<svg xmlns="http://www.w3.org/2000/svg" width="62" height="62" viewBox="0 0 62 62">
  <g id="media-monitor-screen-Digital_Marketing" data-name="media-monitor-screen-Digital Marketing" transform="translate(-3 -3)">
    <path id="Trazado_103494" data-name="Trazado 103494" d="M5.138,16H62.862A2.138,2.138,0,0,1,65,18.138V50.207H3V18.138A2.138,2.138,0,0,1,5.138,16Z" transform="translate(0 0.897)" fill="#3780ea"/>
    <path id="Trazado_103495" data-name="Trazado 103495" d="M7,28H34.793V45.1H7Z" transform="translate(0.276 1.724)" fill="#896ff7"/>
    <path id="Trazado_103496" data-name="Trazado 103496" d="M43.379,57v4.276H22V57H43.379Z" transform="translate(1.31 3.724)" fill="#e8e5fb"/>
    <path id="Trazado_103497" data-name="Trazado 103497" d="M29,51h6.414v6.414H29Z" transform="translate(1.793 3.31)" fill="#8e95a3"/>
    <path id="Trazado_103498" data-name="Trazado 103498" d="M65,49.069v1.069a2.144,2.144,0,0,1-2.138,2.138H5.138A2.144,2.144,0,0,1,3,50.138V48H65Z" transform="translate(0 3.103)" fill="#e8e5fb"/>
    <path id="Trazado_103499" data-name="Trazado 103499" d="M8,6H29.379V23.1H8Z" transform="translate(0.345 0.207)" fill="#78b9eb"/>
    <path id="Trazado_103500" data-name="Trazado 103500" d="M34.793,28,20.9,36.552,7,28Z" transform="translate(0.276 1.724)" fill="#b9b1f1"/>
    <path id="Trazado_103501" data-name="Trazado 103501" d="M36,7h7.483v8.552H36Z" transform="translate(2.276 0.276)" fill="#e8e5fb"/>
    <path id="Trazado_103502" data-name="Trazado 103502" d="M41.276,15l-1.069,7.483H37V15Z" transform="translate(2.345 0.828)" fill="#c7bec5"/>
    <path id="Trazado_103503" data-name="Trazado 103503" d="M59.645,9.631a2.09,2.09,0,0,1,.631,1.507,2.144,2.144,0,0,1-2.138,2.138H56V9h2.138a2.09,2.09,0,0,1,1.507.631Z" transform="translate(3.655 0.414)" fill="#ec455a"/>
    <path id="Trazado_103504" data-name="Trazado 103504" d="M56.9,3V20.1L43,15.828V7.276Z" transform="translate(2.759 0)" fill="#f6cc4f"/>
    <path id="Trazado_103505" data-name="Trazado 103505" d="M33,9h3.207v4.276H33Z" transform="translate(2.069 0.414)" fill="#ec455a"/>
    <path id="Trazado_103506" data-name="Trazado 103506" d="M37,26H56.241V38.828H37Z" transform="translate(2.345 1.586)" fill="#9e2849"/>
    <path id="Trazado_103507" data-name="Trazado 103507" d="M58.172,30V42.828H40V30H58.172Z" transform="translate(2.552 1.862)" fill="#ec455a"/>
    <g id="Grupo_58502" data-name="Grupo 58502" transform="translate(45.759 35.069)">
      <path id="Trazado_103508" data-name="Trazado 103508" d="M43,33h2.138v2.138H43Z" transform="translate(-43 -33)" fill="#e8e5fb"/>
      <path id="Trazado_103509" data-name="Trazado 103509" d="M47,33h7.483v2.138H47Z" transform="translate(-42.724 -33)" fill="#e8e5fb"/>
      <path id="Trazado_103510" data-name="Trazado 103510" d="M43,37h4.276v2.138H43Z" transform="translate(-43 -32.724)" fill="#e8e5fb"/>
      <path id="Trazado_103511" data-name="Trazado 103511" d="M49,37h5.345v2.138H49Z" transform="translate(-42.586 -32.724)" fill="#e8e5fb"/>
    </g>
    <path id="Trazado_103512" data-name="Trazado 103512" d="M29,52h6.414v2.138H29Z" transform="translate(1.793 3.379)" fill="#636263"/>
    <path id="Trazado_103513" data-name="Trazado 103513" d="M22.483,14.276,15,18.552V10Z" transform="translate(0.828 0.483)" fill="#ec455a"/>
  </g>
</svg>
