<svg xmlns="http://www.w3.org/2000/svg" width="60.542" height="61" viewBox="0 0 60.542 61">
  <g id="newspaper_1_" data-name="newspaper (1)" transform="translate(-23.308 -23)">
    <g id="icon" transform="translate(23.308 23)">
      <path id="Trazado_103433" data-name="Trazado 103433" d="M71.085,76.73,77.468,84h-47.4a6.758,6.758,0,0,1-6.758-6.758V23H71.085V80.836" transform="translate(-23.308 -23)" fill="#fff"/>
      <path id="Trazado_103434" data-name="Trazado 103434" d="M87.533,66.65H100.3V88.8a6.383,6.383,0,1,1-12.765,0V66.65h0Z" transform="translate(-39.756 -34.179)" fill="#c5c5c5"/>
      <path id="Trazado_103435" data-name="Trazado 103435" d="M41.313,34.83h-1L36.436,29V34.83h-.928V27.436h1l3.873,5.835V27.436h.933Z" transform="translate(-26.432 -24.136)" fill="#575b6d"/>
      <path id="Trazado_103436" data-name="Trazado 103436" d="M51.048,34.83H45.535V27.436h5.341v.878H46.514v2.259h4.08v.878h-4.08v2.5h4.538Z" transform="translate(-29 -24.136)" fill="#575b6d"/>
      <path id="Trazado_103437" data-name="Trazado 103437" d="M63.377,27.436,61.327,34.83h-.937L58.615,28.4l-1.78,6.426H55.9l-2.043-7.394h1.029l1.478,6.026,1.664-6.026H59.2l1.664,6.026,1.478-6.026Z" transform="translate(-31.131 -24.136)" fill="#575b6d"/>
      <path id="Trazado_103438" data-name="Trazado 103438" d="M70.567,34.912a3.388,3.388,0,0,1-2.338-.7,2.448,2.448,0,0,1-.815-1.8h.943a1.532,1.532,0,0,0,.688,1.223,2.669,2.669,0,0,0,1.48.4,2.331,2.331,0,0,0,1.324-.338,1.053,1.053,0,0,0,.5-.918.935.935,0,0,0-.521-.887,7.469,7.469,0,0,0-1.785-.548,4.129,4.129,0,0,1-1.824-.749,1.605,1.605,0,0,1-.552-1.276,1.8,1.8,0,0,1,.719-1.473,2.967,2.967,0,0,1,1.909-.575,3.258,3.258,0,0,1,2.017.58,2.054,2.054,0,0,1,.812,1.637h-.951q-.149-1.339-1.836-1.339a2.222,2.222,0,0,0-1.265.308.947.947,0,0,0-.446.818.773.773,0,0,0,.361.7,4.574,4.574,0,0,0,1.346.446,12.705,12.705,0,0,1,1.566.428,2.507,2.507,0,0,1,.994.658,1.692,1.692,0,0,1,.414,1.2,1.974,1.974,0,0,1-.759,1.584,3,3,0,0,1-1.984.631Z" transform="translate(-34.603 -24.091)" fill="#575b6d"/>
      <g id="Grupo_58497" data-name="Grupo 58497" transform="translate(4.299 14.582)">
        <path id="Trazado_103439" data-name="Trazado 103439" d="M29.087,42.6H46.042v1.364H29.087Z" transform="translate(-29.087 -42.602)" fill="#dbd8dd"/>
        <path id="Trazado_103440" data-name="Trazado 103440" d="M58.962,42.6H75.917v1.364H58.962Z" transform="translate(-36.738 -42.602)" fill="#dbd8dd"/>
        <path id="Trazado_103441" data-name="Trazado 103441" d="M29.087,50.13H46.042v1.364H29.087Z" transform="translate(-29.087 -44.53)" fill="#dbd8dd"/>
        <path id="Trazado_103442" data-name="Trazado 103442" d="M29.087,57.657H46.042v1.364H29.087Z" transform="translate(-29.087 -46.458)" fill="#dbd8dd"/>
        <path id="Trazado_103443" data-name="Trazado 103443" d="M29.087,65.185H46.042v1.364H29.087Z" transform="translate(-29.087 -48.385)" fill="#dbd8dd"/>
        <path id="Trazado_103444" data-name="Trazado 103444" d="M58.962,65.185H75.917v1.364H58.962Z" transform="translate(-36.738 -48.385)" fill="#dbd8dd"/>
        <path id="Trazado_103445" data-name="Trazado 103445" d="M29.087,72.712H46.042v1.364H29.087Z" transform="translate(-29.087 -50.313)" fill="#dbd8dd"/>
        <path id="Trazado_103446" data-name="Trazado 103446" d="M58.962,72.712H75.917v1.364H58.962Z" transform="translate(-36.738 -50.313)" fill="#dbd8dd"/>
        <path id="Trazado_103447" data-name="Trazado 103447" d="M29.087,80.239H46.042V81.6H29.087Z" transform="translate(-29.087 -52.241)" fill="#dbd8dd"/>
        <path id="Trazado_103448" data-name="Trazado 103448" d="M58.962,80.239H75.917V81.6H58.962Z" transform="translate(-36.738 -52.241)" fill="#dbd8dd"/>
        <path id="Trazado_103449" data-name="Trazado 103449" d="M29.087,87.767H46.042v1.364H29.087Z" transform="translate(-29.087 -54.169)" fill="#dbd8dd"/>
        <path id="Trazado_103450" data-name="Trazado 103450" d="M58.962,87.767H75.917v1.364H58.962Z" transform="translate(-36.738 -54.169)" fill="#dbd8dd"/>
        <path id="Trazado_103451" data-name="Trazado 103451" d="M29.087,95.294H46.042v1.364H29.087Z" transform="translate(-29.087 -56.096)" fill="#dbd8dd"/>
        <path id="Trazado_103452" data-name="Trazado 103452" d="M58.962,95.294H75.917v1.364H58.962Z" transform="translate(-36.738 -56.096)" fill="#dbd8dd"/>
        <path id="Trazado_103453" data-name="Trazado 103453" d="M29.087,74.065H46.042V85.471H29.087Z" transform="translate(-29.087 -50.66)" fill="#dbd8dd"/>
        <path id="Trazado_103454" data-name="Trazado 103454" d="M58.962,50.13H75.917v6.964H58.962Z" transform="translate(-36.738 -44.53)" fill="#dbd8dd"/>
      </g>
    </g>
  </g>
</svg>
