<svg xmlns="http://www.w3.org/2000/svg" width="515.656" height="298.236" viewBox="0 0 515.656 298.236">
  <g id="Grupo_59195" data-name="Grupo 59195" transform="translate(-215.344 -5231.904)">
    <g id="Grupo_59092" data-name="Grupo 59092" transform="translate(315.849 5231.904)">
      <g id="Grupo_59080" data-name="Grupo 59080">
        <path id="Trazado_104389" data-name="Trazado 104389" d="M408.6,231.713a93.446,93.446,0,0,1-12.5,29.219,98.956,98.956,0,0,1-9.768,12.69c-21.636,23.932-53.149,36.457-77.12,39.5a88.8,88.8,0,0,1-9.181.728,131.939,131.939,0,0,1-20.891-1.191c-29.853-4.034-67.023-18.965-87.765-58.17a123.425,123.425,0,0,1-8.6-20.766c-6.024-19.192-7.794-35.736-7.246-49.57a112.371,112.371,0,0,1,1.293-13.207c4.073-25.693,15.721-38.837,15.721-38.837,11.155-15.675,23.226-27.5,35.759-36.089a115.135,115.135,0,0,1,10.637-6.494c36.237-19.489,75.208-14.554,106.7,0q4.594,2.127,8.969,4.5c1.183.642,2.366,1.308,3.517,2a106.8,106.8,0,0,1,34.1,32.359c.063.095.125.18.18.274a112.724,112.724,0,0,1,5.8,9.7c.792,1.465,1.544,2.969,2.264,4.481a118.6,118.6,0,0,1,5.813,14.539C413.692,180.107,414.765,205.847,408.6,231.713Z" transform="translate(-175.432 -76.697)" fill="#31d9e7"/>
        <g id="Grupo_59078" data-name="Grupo 59078" transform="translate(1.39 14.47)">
          <path id="Trazado_104390" data-name="Trazado 104390" d="M319.084,245.737c2.5,9.878-6.044,10.32-8.845,10.275s-5.811,2.929-3.729,8.126.187,6.418-2.7,9.152c-1.064,1-1.955,1.692-2.7,2.4-.734,1.213-1.4,2.367-1.82,3.227a20.443,20.443,0,0,0-.816,2.382c-.808,4.883-2.246,7.579-11.316,7.534a2.53,2.53,0,0,0-1.423.7,2.256,2.256,0,0,0,.09,2.052c.6.644,2.981-.187,3.557.5.359.419.09,1.692-.112,2.216-.374.981-2.734,2.239-2.659,3.295.052.727,1.468,1.79,2.187,2.022.877.292,2.981-.966,3.692-.39.554.457.232,2.112.18,2.809-.045.727-.517,2.134-.591,2.853a5.154,5.154,0,0,0,0,2.27c.869,1.535,5.347,2.15,6.08,3.744a2.94,2.94,0,0,1-.4,2.434c-1.348,1.25-5.617,1.266-7.437.847a6.086,6.086,0,0,1-.906-.293.025.025,0,0,1-.015-.007c-.246-.1-.5-.21-.764-.345a45.055,45.055,0,0,1-5.594-2.965.088.088,0,0,0-.03-.022c-.389-.247-.764-.494-1.13-.742-.008-.007-.015-.007-.022-.015s-.008,0-.008-.007c-.374-.262-.742-.532-1.093-.794-10.163-7.691-8.148-16.266-11.661-20.362-4.291-5.01-.314-10.051-2.965-12.23s-1.873-7.721-1.483-11.541-.157-8.267-3.819-10.065-9.752.239-10.994-4.052-4.157-6.68-10.814-14.169c-5.774-6.493-2.546-12.44.988-15.391a10.888,10.888,0,0,1,1.611-1.138c3.954-2.291,2.853-5.377,2.853-5.377-1.2-2.067-3.572-2.494-6.9-1.386-3.744,1.25-7.908,1.25-8.635-1.243s-2.861-6.448-5.677-7.721c-1.363-.217-3.086-.262-4.067-.344-.869-.068-2.89.464-3.5-.157-.547-.546.539-2.531-.015-3.078-.779-.764-3.708-.831-4.441-.022-.292.33.554,1.408.247,1.715a4.176,4.176,0,0,1-2.9.869h-.007a21.556,21.556,0,0,1-8.336-2.037c-1.79-.906-4.958-4-5.3-5.947-.157-.891,1.513-2.5,1.34-3.4-.568-2.959-6.747-6.276-8.275-8.89-.921-1.6-.614-6.029-2.187-7.01-.6-.367-2.411-.2-2.8.374-1,1.475,1.064,5.279,1.917,6.837,1.041,1.917,5.047,4.509,5.774,6.538.24.688.42,2.411-.119,2.906-.75.7-3.206.382-4.119-.06-2.224-1.079-5.167-5.378-6.141-7.6s.247-7.759-1.355-9.623a3.255,3.255,0,0,0-1.8-.719c4.074-25.695,15.719-38.838,15.719-38.838,11.159-15.675,23.231-27.492,35.76-36.089a7.688,7.688,0,0,1,2.232,2.336c.749,1,1.49,2.126,2.254,2.411a9.324,9.324,0,0,0,5.534-.427c1.033-.546,1.76-3.265,2.869-3.587.681-.195,2.464.217,2.673.883.457,1.5-2.569,4.165-3.954,4.958a3.723,3.723,0,0,1-.727.277c-.315.082-.667.165-1.056.232-1.19.344-2.958,1.138-2.958,2.846,0,2.164,2.142,2.172,2.831,2.126a9.487,9.487,0,0,0,4.658-1.633c.42-.374.15-1.745.554-2.134.967-.9,4.351-.022,5.228-1,.532-.591.749-2.539.2-3.115-.531-.577-2.688.517-3.183-.1-.456-.577.188-2.292.66-2.861a5.63,5.63,0,0,1,2.284-1.033c2.014-.518,7.369-2.517,8.343-.7.719,1.348-3.745,3.161-4.006,4.65a4.188,4.188,0,0,0,1.176,3.041c1,.682,4.089.981,4.875.068.846-1-1.191-3.692-1.191-5.182,0-.037.007-.075.007-.113v-.014a.988.988,0,0,1,.068-.308c.007-.015.015-.022.015-.029.292-.966,1.467-3.708,5.751-5.265,5.265-1.91,7.931-1.281,10.41.367s5.107,1.977,6.628,1.5c1.273-.39,2.187.607,2.187,2.531a7.194,7.194,0,0,1-.1,1.213c-.008.359-.03.727-.037,1.072a1.917,1.917,0,0,0,2.187,1.662c.09,0,.18,0,.254-.007.779-.083,1.528-.127,1.775.262.532.839-.592,3.07-1.378,3.685-.846.658-3.183.427-4.246.561-.262.037-.847-.022-1.033.142-.816.727-.128,3.527-1.019,4.157-2.538,1.774-10.567.913-11.384-2.037-.711-2.553,7.8-2.688,7.714-5.332-.03-1.168-2.853-2.336-4.037-2.516a13.743,13.743,0,0,0-5.565.959,5.126,5.126,0,0,0-2.95,3.58c-.832,3.266-4.576,9.347-8.68,9.654s-2.793-4.838-7.092-3.01c-.254.165-.479.322-.674.434-2.771,1.655-9.406,4.77-10.208,7.841-.3,1.123,1.049,3.452,1.873,4.291a8.872,8.872,0,0,0,3.385,1.558c1.543.344,5.13-1.011,6.328,0,1.347,1.146-.532,5.961.966,6.889.622.39,2.284-.329,2.809-.831,1.093-1.056.869-4.606,1.887-5.736,1.145-1.289,5.489-1.423,6.321-2.921,1.011-1.85-1.85-6.3-1.169-8.275a7.271,7.271,0,0,1,3.288-3.2c2.172-.757,7.6-.787,9.174.853.966,1.019-.936,4.651.149,5.542.457.382,1.812-.1,2.39-.322,1.7-.629,4.388-4.689,6.073-3.992,1.715.7.172,5.707,1.325,7.123.4.494,1.768.749,2.359,1,.435.188,1.25.367,1.9.63,4.321,1.266,3.692,7.152,3.834,12.3s-12.155,7.069-15.532,4.9a12.743,12.743,0,0,0-4.8-1.835,2.5,2.5,0,0,1-.63-.052,6.321,6.321,0,0,0-.861-.1c-.142-.007-.262-.007-.344-.007h-.12c-2.112.1-3.01,1.842-2.419,5.182.7,3.976-3.123,5.931-9.669,7.8a8.735,8.735,0,0,0-5.751,4.553,8.112,8.112,0,0,0-.831,3.161,2.658,2.658,0,0,1-.1,1.213c-.974,2.06-5.414,4.3-6.995,5.947-.928.981-2.973,2.958-3.281,4.261-.434,1.835,2.913,6.149,1.468,7.414-1.094.959-4.665-.584-5.617-1.685-.734-.854.322-3.715-.576-4.388-2.944-2.2-11.241.666-14.7,1.984a21.775,21.775,0,0,0-7.077,4.778c-1.079,1.347-2.053,4.733-2.471,6.388-.307,1.2-.921,3.692-.652,4.89.285,1.243,1.648,3.685,2.786,4.292,1.355.7,4.681.449,6.1-.1,2.688-1.018,5.834-8.126,8.65-7.5.8.18,1.258,2.164,1.273,2.966.038,1.542-3.04,4.493-2.157,5.759s4.516-.247,6.5-.075l.007-.007c6.5-.083,3.115,7.324,8.523,8.987,3.812,1.176,7.01-1.843,8.568-3.722a6.659,6.659,0,0,1,.868-1.214,7.109,7.109,0,0,1,5.8-2.711c4.576.052,3.115,4.943,6.913,5,2.688.037,4.4-3.123,7-3.123,1.072,0,2.292.532,3.8,2.045a9.672,9.672,0,0,1,1.7,2.022c.165.232,2.7,3.685,8.246,2.434s8.582-.555,8.89,5.691,4.134,7.175,9.046,6.007c2.853-.681,5.138-2.448,7.212-2.448,1.491,0,2.883.921,4.3,3.834.951,1.235,1.82,3.146,2.786,3.7a2.985,2.985,0,0,0,1.2.27s5.609-1.453,6.755,4.157S316.589,235.859,319.084,245.737Z" transform="translate(-177.181 -94.899)" fill="#23a2b7"/>
        </g>
        <g id="Grupo_59079" data-name="Grupo 59079" transform="translate(136.049 19.338)">
          <path id="Trazado_104391" data-name="Trazado 104391" d="M433.373,133.383a.814.814,0,0,0-.359-.254c-.906-.315-2.607,1.415-3.086,2.224-.607,1.026-.03,3.527-.068,5.287v.007c.307,2.142-1.086,4.06-3.542,3.67s-4.793-2.651-3.976-5.5a11.292,11.292,0,0,0,.374-5.429c-.862-1.258-3.932-2.419-5.2-3.281-.51-.337-1.363-1.288-1.948-1.438-1.333-.336-4.778-.456-5.407.727-.591,1.116,1.416,3.625,2.367,4.464,1.394,1.221,5.37,1.745,6.995,2.659.352.2,1.311.607,1.3,1.01s-1.161.525-1.31.884c-.382.861.988,2.861.576,3.707-.367.749-2.134,1.521-2.981,1.708a5.841,5.841,0,0,1-2.785-.217c-.659-.315-2.277-1.438-2.007-2.1.4-1.011,3.483.232,4.418-.359.427-.262,1.123-1.251.959-1.715-.891-2.763-8.6-3-10.62-5.107-.509-.517-.4-2.516-1.13-2.629-1.333-.2-2.232,3.5-3.46,4.022-.951.4-3.22-.749-4.127-.269-2.224,1.169-4.081,6.269-5.01,8.56a6.967,6.967,0,0,1-4.621,4.06c-1,.18-2.734.561-4.171.734h-.015a8.587,8.587,0,0,1-1.58.075c-6.561-.068-8-6.59-6.044-10.02s4.284-2.913,6.9-3.033a2.49,2.49,0,0,1,.337-.022c2.456-.195,4.284-1.2,2.142-3.235-2.239-2.134-1.452-5.2.464-5.976a29.874,29.874,0,0,1,6.456-1.078,3.16,3.16,0,0,0,1.153-.487c1.513-1.22,2.119-5.587,3.625-6.815a6.443,6.443,0,0,1,2.269-.928.215.215,0,0,0,.037-.015,22.429,22.429,0,0,1,2.247-.449c1.063-.149,3.22.112,4.283.052.39-.03,1.333.113,1.543-.21.839-1.243-.254-5.16-1.662-5.721-.479-.195-1.1.187-1.745.726h-.008c-.165.143-.329.285-.494.435h-.007c-1.9,2.15-4.284,3.677-5.167.247s-3.011-1.251-4.314-4.231c-1.25-2.868.63-6.036,4.306-7.092A106.642,106.642,0,0,1,433.373,133.383Z" transform="translate(-352.632 -101.023)" fill="#23a2b7"/>
          <path id="Trazado_104392" data-name="Trazado 104392" d="M454.169,151.768a6.892,6.892,0,0,1-2.479-.734A5.507,5.507,0,0,1,449.2,147.5a10.6,10.6,0,0,1-.374-2.411,9.1,9.1,0,0,0-.457-3.018A110.137,110.137,0,0,1,454.169,151.768Z" transform="translate(-367.451 -109.44)" fill="#23a2b7"/>
          <path id="Trazado_104393" data-name="Trazado 104393" d="M376.043,128.25c1.428-.668,4.031-2.8,4.623-4.226a3.52,3.52,0,0,0-.153-2.653,4.11,4.11,0,0,0-2.534-.7,6.923,6.923,0,0,0-3.251,1.211,9.5,9.5,0,0,0-1.943,4.22c-.091.634-.161,2.144.355,2.527C373.724,129.065,375.382,128.55,376.043,128.25Z" transform="translate(-351.938 -105.053)" fill="#23a2b7"/>
          <path id="Trazado_104394" data-name="Trazado 104394" d="M383.32,117.524c.759.348,2.506.717,3.049,1.344.335.376.773,1.49.537,1.936-.362.668-2.493.382-2.925,1.01-.613.877-.661,3.565.181,4.247.7.571,2.729-.32,3.62-.488,1.2-.223,3.76-.4,4.749-1.093.8-.556,2.451-2.34,2.082-3.223-.272-.648-2.152-.328-2.785-.648a9.612,9.612,0,0,1-1.671-1.427,21.461,21.461,0,0,1-2.66-3.14c-.634-1.094-.564-4.178-1.719-4.721-.954-.445-3.2.676-3.976,1.365a4,4,0,0,0-.9,1.859,3.4,3.4,0,0,0,.271,1.929C381.523,116.947,382.783,117.267,383.32,117.524Z" transform="translate(-353.61 -103.114)" fill="#23a2b7"/>
          <path id="Trazado_104395" data-name="Trazado 104395" d="M443.7,247.432a93.251,93.251,0,0,1-12.5,29.216v-.135c-.015-.225-.015-.472-.008-.749.12-8.994-9.99-7.8-8.118-14.663s-2.029-4.681-5.07-12.425,5.534-12.686.952-18.243c-.667-.719-1.394-1.445-2.127-2.165-4.3-3.737-9.181-4.98-8.178-9.039,1.169-4.763-1.093-6.942-5.542-4.853s-7.018-4.433-9.437,0c-2.209,4.052-12.4,5.266-22.249-1.52,0-.007-.008-.007-.015-.007-5.205-2.644-8.74-4.553-15.188-2.561s-12.9-3.3-7.8-14.641a38.413,38.413,0,0,1,13.7-16.079c.1-.068.209-.135.314-.195.225-.142.352-.217.352-.217l.007.007a7.666,7.666,0,0,1,1.1-.487c8.852-3.048,8.066-7.624,7.841-8.433a1.044,1.044,0,0,0-.037-.127c-.21-.689-.427-1.394-.562-2.029v-.008a5,5,0,0,1,2.15-6.014c2.576-1.715,5.5-1.25,9.788-.974a7.63,7.63,0,0,0,3.191-.419,23.165,23.165,0,0,0,1.932-1.506c2.786-2.389,5.834-4.74,9.736-5.639a5.592,5.592,0,0,1,5.849,1.88h-.007a2.149,2.149,0,0,1,.366,1.094,9.16,9.16,0,0,1,.008,1.445c.195,1.595,1.108,3.886,4.816,3.572,5.616-.465,12.162-6.216,18.52-1.9a13.127,13.127,0,0,1,1.161.7l.015.015a.386.386,0,0,1,.052.022c.18.1.366.188.554.269a4.713,4.713,0,0,0,6.216-1.909l.09-.157C447.965,184.5,451.222,215.873,443.7,247.432Z" transform="translate(-346.577 -111.753)" fill="#23a2b7"/>
        </g>
        <path id="Trazado_104396" data-name="Trazado 104396" d="M410.622,241.415a93.318,93.318,0,0,1-12.512,29.212,97.78,97.78,0,0,1-9.759,12.694c-21.645,23.927-53.152,36.452-77.131,39.505a89.993,89.993,0,0,1-9.172.73,133.065,133.065,0,0,1-20.9-1.187c-29.851-4.045-67.02-18.97-87.763-58.174a123.927,123.927,0,0,1-7.906-18.644c20.744,21.657,47.75,31.064,70.5,34.143a132.977,132.977,0,0,0,20.9,1.188,90,90,0,0,0,9.172-.731c23.967-3.053,55.487-15.578,77.118-39.505a97.869,97.869,0,0,0,9.772-12.694,93.3,93.3,0,0,0,12.5-29.211c6.171-25.871,5.1-51.612-2.323-74.326-.039-.131-.091-.274-.13-.4a108.1,108.1,0,0,1,11.246,14.077c.066.1.131.184.183.274a110.122,110.122,0,0,1,5.793,9.707c.8,1.461,1.553,2.961,2.27,4.475a121.223,121.223,0,0,1,5.806,14.534C415.71,189.8,416.78,215.545,410.622,241.415Z" transform="translate(-177.493 -86.399)" fill="#e6e6e7" style="mix-blend-mode: multiply;isolation: isolate"/>
      </g>
      <g id="Grupo_59091" data-name="Grupo 59091" transform="translate(42.235 23.816)">
        <g id="Grupo_59082" data-name="Grupo 59082" transform="translate(0 30.418)">
          <g id="Grupo_59081" data-name="Grupo 59081">
            <path id="Trazado_104397" data-name="Trazado 104397" d="M248.6,154.938a10.018,10.018,0,1,1-10.019-10.016A10,10,0,0,1,248.6,154.938Z" transform="translate(-228.562 -144.922)" fill="#fff"/>
            <path id="Trazado_104398" data-name="Trazado 104398" d="M244.406,166.879l-4.369,9.425-4.369-9.425,4.369-4.369Z" transform="translate(-230.019 -148.529)" fill="#fff"/>
            <circle id="Elipse_4042" data-name="Elipse 4042" cx="3.32" cy="3.32" r="3.32" transform="translate(6.697 3.613)" fill="#d35b30"/>
            <path id="Trazado_104399" data-name="Trazado 104399" d="M245.79,163.36a8.468,8.468,0,0,1-12.469,0,6.609,6.609,0,0,1,12.469,0Z" transform="translate(-229.538 -147.797)" fill="#d35b30"/>
          </g>
        </g>
        <g id="Grupo_59084" data-name="Grupo 59084" transform="translate(47.248)">
          <g id="Grupo_59083" data-name="Grupo 59083">
            <path id="Trazado_104400" data-name="Trazado 104400" d="M308.034,116.673a10.018,10.018,0,1,1-10.02-10.016A10,10,0,0,1,308.034,116.673Z" transform="translate(-287.998 -106.657)" fill="#fff"/>
            <path id="Trazado_104401" data-name="Trazado 104401" d="M303.841,128.614l-4.369,9.425-4.369-9.425,4.369-4.369Z" transform="translate(-289.455 -110.264)" fill="#fff"/>
            <circle id="Elipse_4043" data-name="Elipse 4043" cx="3.32" cy="3.32" r="3.32" transform="translate(6.697 3.613)" fill="#d35b30"/>
            <path id="Trazado_104402" data-name="Trazado 104402" d="M305.226,125.1a8.47,8.47,0,0,1-12.469,0,6.608,6.608,0,0,1,12.469,0Z" transform="translate(-288.974 -109.532)" fill="#d35b30"/>
          </g>
        </g>
        <g id="Grupo_59086" data-name="Grupo 59086" transform="translate(150.66 66.651)">
          <g id="Grupo_59085" data-name="Grupo 59085">
            <path id="Trazado_104403" data-name="Trazado 104403" d="M438.122,200.517A10.018,10.018,0,1,1,428.1,190.5,10.006,10.006,0,0,1,438.122,200.517Z" transform="translate(-418.086 -190.501)" fill="#fff"/>
            <path id="Trazado_104404" data-name="Trazado 104404" d="M433.93,212.458l-4.369,9.425-4.369-9.425,4.369-4.369Z" transform="translate(-419.543 -194.108)" fill="#fff"/>
            <circle id="Elipse_4044" data-name="Elipse 4044" cx="3.32" cy="3.32" r="3.32" transform="translate(6.697 3.613)" fill="#d35b30"/>
            <path id="Trazado_104405" data-name="Trazado 104405" d="M435.315,208.938a8.469,8.469,0,0,1-12.47,0,6.609,6.609,0,0,1,12.47,0Z" transform="translate(-419.062 -193.376)" fill="#d35b30"/>
          </g>
        </g>
        <g id="Grupo_59088" data-name="Grupo 59088" transform="translate(93.116 52.763)">
          <g id="Grupo_59087" data-name="Grupo 59087">
            <path id="Trazado_104406" data-name="Trazado 104406" d="M365.734,183.047a10.018,10.018,0,1,1-10.019-10.016A10,10,0,0,1,365.734,183.047Z" transform="translate(-345.698 -173.031)" fill="#fff"/>
            <path id="Trazado_104407" data-name="Trazado 104407" d="M361.541,194.988l-4.369,9.425-4.369-9.425,4.369-4.369Z" transform="translate(-347.155 -176.638)" fill="#fff"/>
            <path id="Trazado_104408" data-name="Trazado 104408" d="M360.763,180.9a3.32,3.32,0,1,1-3.32-3.32A3.32,3.32,0,0,1,360.763,180.9Z" transform="translate(-347.426 -173.963)" fill="#d35b30"/>
            <path id="Trazado_104409" data-name="Trazado 104409" d="M362.926,191.468a8.468,8.468,0,0,1-12.469,0,6.608,6.608,0,0,1,12.469,0Z" transform="translate(-346.674 -175.906)" fill="#d35b30"/>
          </g>
        </g>
        <g id="Grupo_59090" data-name="Grupo 59090" transform="translate(135.904 16.531)">
          <g id="Grupo_59089" data-name="Grupo 59089">
            <path id="Trazado_104410" data-name="Trazado 104410" d="M419.56,137.468a10.018,10.018,0,1,1-10.02-10.016A10,10,0,0,1,419.56,137.468Z" transform="translate(-399.524 -127.452)" fill="#fff"/>
            <path id="Trazado_104411" data-name="Trazado 104411" d="M415.367,149.409,411,158.834l-4.369-9.425L411,145.04Z" transform="translate(-400.981 -131.059)" fill="#fff"/>
            <circle id="Elipse_4045" data-name="Elipse 4045" cx="3.32" cy="3.32" r="3.32" transform="translate(6.697 3.613)" fill="#d35b30"/>
            <path id="Trazado_104412" data-name="Trazado 104412" d="M416.752,145.889a8.468,8.468,0,0,1-12.469,0,6.608,6.608,0,0,1,12.469,0Z" transform="translate(-400.5 -130.327)" fill="#d35b30"/>
          </g>
        </g>
      </g>
    </g>
    <g id="Grupo_59093" data-name="Grupo 59093" transform="translate(533.652 5306.505)">
      <path id="Trazado_104413" data-name="Trazado 104413" d="M613.854,329.963l-10.8,20.62,15.71,7.528,2.618-28.148Z" transform="translate(-480.925 -203.234)" fill="#d35b30"/>
      <path id="Trazado_104414" data-name="Trazado 104414" d="M601.421,408.322h24.808l17.933-92.488H619.355Z" transform="translate(-480.591 -200.337)" fill="#59595b"/>
      <path id="Trazado_104415" data-name="Trazado 104415" d="M511.673,249.613v60.5l-50.211-15.639-12.041-3.75V269l12.041-3.75Z" transform="translate(-449.421 -186.757)" fill="#59595b"/>
      <path id="Trazado_104416" data-name="Trazado 104416" d="M583.057,235.755v60.415L491.449,350.1V181.828Z" transform="translate(-458.04 -172.857)" fill="#31d9e7"/>
      <path id="Trazado_104417" data-name="Trazado 104417" d="M679.019,277.834v3.615c0,.37-.009.742-.025,1.1a28.16,28.16,0,0,1-28.143,27.056H606.689V249.666H650.85A28.171,28.171,0,0,1,679.019,277.834Z" transform="translate(-481.671 -186.768)" fill="#31d9e7"/>
      <rect id="Rectángulo_5702" data-name="Rectángulo 5702" width="42.442" height="69.347" transform="translate(125.018 58.28)" fill="#808183"/>
      <path id="Trazado_104418" data-name="Trazado 104418" d="M631.137,288.442H597.616c1.828-6.511,4.11-14.256,4.8-14.938,1.208-1.192,20.469-13.511,22.393-25.886s-20.893-6.586-20.893-6.586l-8.044,6.637s-24.979,12.829-28.618,16.674c-1.938,2.046-3.3,12.973-3.1,18.7l-72.706-20.757v99.672l91.608-53.927v4.315H625.5v-4.786h1.719A28.16,28.16,0,0,0,655.362,280.5C649.96,287.22,640.548,288.442,631.137,288.442Z" transform="translate(-458.04 -184.72)" fill="#e6e6e7" style="mix-blend-mode: multiply;isolation: isolate"/>
      <path id="Trazado_104419" data-name="Trazado 104419" d="M489.709,170.543a6.745,6.745,0,0,1,6.725,6.725V349.174a6.725,6.725,0,0,1-13.45,0V177.268A6.745,6.745,0,0,1,489.709,170.543Z" transform="translate(-456.304 -170.543)" fill="#d0d1d3"/>
      <path id="Trazado_104420" data-name="Trazado 104420" d="M461.462,269.286v29.222l-12.041-3.75V273.035Z" transform="translate(-449.421 -190.792)" fill="#a6a8aa"/>
    </g>
    <g id="Grupo_59130" data-name="Grupo 59130" transform="translate(552.775 5249.658)">
      <g id="Grupo_59129" data-name="Grupo 59129">
        <g id="Grupo_59125" data-name="Grupo 59125">
          <g id="Grupo_59123" data-name="Grupo 59123">
            <path id="Trazado_104477" data-name="Trazado 104477" d="M483.267,139.941l6.194,13.58,6.844-14.587-6.65-.618Z" transform="translate(-475.484 -107.087)" fill="#f17781"/>
            <rect id="Rectángulo_5703" data-name="Rectángulo 5703" width="44.988" height="36.586" rx="11.199" fill="#f17781"/>
          </g>
          <g id="Grupo_59124" data-name="Grupo 59124" transform="translate(7.66 15.72)">
            <path id="Trazado_104478" data-name="Trazado 104478" d="M513.959,121.379a2.573,2.573,0,1,0,2.573-2.573A2.573,2.573,0,0,0,513.959,121.379Z" transform="translate(-489.438 -118.806)" fill="#fff"/>
            <path id="Trazado_104479" data-name="Trazado 104479" d="M498.536,121.379a2.573,2.573,0,1,0,2.573-2.573A2.573,2.573,0,0,0,498.536,121.379Z" transform="translate(-486.276 -118.806)" fill="#fff"/>
            <path id="Trazado_104480" data-name="Trazado 104480" d="M483.113,121.379a2.573,2.573,0,1,0,2.573-2.573A2.573,2.573,0,0,0,483.113,121.379Z" transform="translate(-483.113 -118.806)" fill="#fff"/>
          </g>
        </g>
        <g id="Grupo_59128" data-name="Grupo 59128" transform="translate(26.065 23.432)">
          <g id="Grupo_59126" data-name="Grupo 59126">
            <path id="Trazado_104481" data-name="Trazado 104481" d="M549.705,169.417,543.511,183l-6.844-14.587,6.65-.618Z" transform="translate(-512.5 -136.563)" fill="#fff"/>
            <rect id="Rectángulo_5704" data-name="Rectángulo 5704" width="44.988" height="36.586" rx="11.199" fill="#fff"/>
          </g>
          <g id="Grupo_59127" data-name="Grupo 59127" transform="translate(7.66 15.72)">
            <path id="Trazado_104482" data-name="Trazado 104482" d="M521.048,150.855a2.573,2.573,0,1,1-2.573-2.573A2.573,2.573,0,0,1,521.048,150.855Z" transform="translate(-515.902 -148.282)" fill="#d0d1d3"/>
            <path id="Trazado_104483" data-name="Trazado 104483" d="M536.471,150.855a2.573,2.573,0,1,1-2.573-2.573A2.573,2.573,0,0,1,536.471,150.855Z" transform="translate(-519.065 -148.282)" fill="#d0d1d3"/>
            <path id="Trazado_104484" data-name="Trazado 104484" d="M551.894,150.855a2.573,2.573,0,1,1-2.573-2.573A2.573,2.573,0,0,1,551.894,150.855Z" transform="translate(-522.227 -148.282)" fill="#d0d1d3"/>
          </g>
        </g>
      </g>
    </g>
    <g id="Grupo_59168" data-name="Grupo 59168" transform="translate(215.344 5307.352)">
      <g id="Grupo_59163" data-name="Grupo 59163" transform="translate(13.679)">
        <rect id="Rectángulo_5705" data-name="Rectángulo 5705" width="136.375" height="176.936" transform="translate(0 14.367)" fill="#564c44"/>
        <g id="Grupo_59161" data-name="Grupo 59161" transform="translate(6.848 20.862)">
          <g id="Grupo_59131" data-name="Grupo 59131">
            <path id="Trazado_104485" data-name="Trazado 104485" d="M198.491,358.9l-19.979-.134-103.64.65-.05-160.774,122.679-.795Z" transform="translate(-74.823 -197.852)" fill="#fff"/>
          </g>
          <g id="Grupo_59132" data-name="Grupo 59132" transform="translate(10.175 27.373)">
            <rect id="Rectángulo_5706" data-name="Rectángulo 5706" width="101.491" height="3.137" rx="0.667" transform="translate(0 0.658) rotate(-0.371)" fill="#a6a8aa"/>
          </g>
          <g id="Grupo_59139" data-name="Grupo 59139" transform="translate(9.972 37.017)">
            <g id="Grupo_59133" data-name="Grupo 59133" transform="translate(30.355 0.656)">
              <rect id="Rectángulo_5707" data-name="Rectángulo 5707" width="70.497" height="2.022" rx="0.43" transform="translate(0 0.457) rotate(-0.371)" fill="#cfd1d2"/>
            </g>
            <g id="Grupo_59134" data-name="Grupo 59134" transform="translate(30.394 6.722)">
              <path id="Rectángulo_5708" data-name="Rectángulo 5708" d="M.43,0H70.068A.429.429,0,0,1,70.5.429V1.593a.43.43,0,0,1-.43.43H.43A.43.43,0,0,1,0,1.592V.43A.43.43,0,0,1,.43,0Z" transform="translate(0 0.457) rotate(-0.371)" fill="#cfd1d2"/>
            </g>
            <g id="Grupo_59135" data-name="Grupo 59135" transform="translate(30.433 12.789)">
              <path id="Rectángulo_5709" data-name="Rectángulo 5709" d="M.43,0H70.067a.43.43,0,0,1,.43.43V1.593a.429.429,0,0,1-.429.429H.43A.43.43,0,0,1,0,1.592V.43A.43.43,0,0,1,.43,0Z" transform="translate(0 0.457) rotate(-0.371)" fill="#cfd1d2"/>
            </g>
            <g id="Grupo_59136" data-name="Grupo 59136" transform="translate(30.472 19.081)">
              <path id="Rectángulo_5710" data-name="Rectángulo 5710" d="M.43,0H35.144a.43.43,0,0,1,.43.43V1.592a.43.43,0,0,1-.43.43H.429A.429.429,0,0,1,0,1.593V.43A.43.43,0,0,1,.43,0Z" transform="translate(0 0.231) rotate(-0.371)" fill="#cfd1d2"/>
            </g>
            <g id="Grupo_59137" data-name="Grupo 59137">
              <path id="Trazado_104486" data-name="Trazado 104486" d="M107.943,266.991l-19.261.125a1.177,1.177,0,0,1-1.184-1.169l-.131-20.221a1.176,1.176,0,0,1,1.169-1.184l19.26-.125a1.175,1.175,0,0,1,1.184,1.169l.02,3.081a1.177,1.177,0,1,1-2.353.015l-.012-1.9-16.908.11.116,17.868,16.908-.11-.052-7.971a1.177,1.177,0,1,1,2.353-.015l.06,9.147A1.176,1.176,0,0,1,107.943,266.991Z" transform="translate(-87.367 -244.417)" fill="#cfd1d2"/>
            </g>
            <g id="Grupo_59138" data-name="Grupo 59138" transform="translate(4.198 4.214)">
              <path id="Trazado_104487" data-name="Trazado 104487" d="M98.874,263.913a1.145,1.145,0,0,1-.117-.006,1.169,1.169,0,0,1-.819-.448L92.9,257a1.177,1.177,0,0,1,1.857-1.446l4.273,5.478,12.482-11.014a1.176,1.176,0,1,1,1.556,1.764L99.644,263.618A1.169,1.169,0,0,1,98.874,263.913Z" transform="translate(-92.648 -249.718)" fill="#23a2b7"/>
            </g>
          </g>
          <g id="Grupo_59146" data-name="Grupo 59146" transform="translate(10.172 67.924)">
            <g id="Grupo_59140" data-name="Grupo 59140" transform="translate(30.355 0.656)">
              <rect id="Rectángulo_5711" data-name="Rectángulo 5711" width="70.497" height="2.022" rx="0.43" transform="matrix(1, -0.006, 0.006, 1, 0, 0.457)" fill="#cfd1d2"/>
            </g>
            <g id="Grupo_59141" data-name="Grupo 59141" transform="translate(30.394 6.722)">
              <rect id="Rectángulo_5712" data-name="Rectángulo 5712" width="70.497" height="2.022" rx="0.43" transform="matrix(1, -0.006, 0.006, 1, 0, 0.457)" fill="#cfd1d2"/>
            </g>
            <g id="Grupo_59142" data-name="Grupo 59142" transform="translate(30.433 12.789)">
              <path id="Rectángulo_5713" data-name="Rectángulo 5713" d="M.43,0H70.067a.43.43,0,0,1,.43.43V1.592a.43.43,0,0,1-.43.43H.429A.429.429,0,0,1,0,1.593V.43A.43.43,0,0,1,.43,0Z" transform="translate(0 0.457) rotate(-0.371)" fill="#cfd1d2"/>
            </g>
            <g id="Grupo_59143" data-name="Grupo 59143" transform="translate(30.472 19.081)">
              <path id="Rectángulo_5714" data-name="Rectángulo 5714" d="M.43,0H35.144a.43.43,0,0,1,.43.43V1.592a.43.43,0,0,1-.43.43H.429A.429.429,0,0,1,0,1.593V.43A.43.43,0,0,1,.43,0Z" transform="translate(0 0.231) rotate(-0.371)" fill="#cfd1d2"/>
            </g>
            <g id="Grupo_59144" data-name="Grupo 59144">
              <path id="Trazado_104488" data-name="Trazado 104488" d="M108.194,305.872,88.935,306a1.177,1.177,0,0,1-1.184-1.169l-.131-20.221a1.177,1.177,0,0,1,1.169-1.184l19.26-.124a1.175,1.175,0,0,1,1.184,1.169l.02,3.081a1.177,1.177,0,1,1-2.353.015l-.012-1.9-16.908.11.115,17.868,16.908-.11-.052-7.971a1.177,1.177,0,1,1,2.353-.015l.06,9.147A1.177,1.177,0,0,1,108.194,305.872Z" transform="translate(-87.619 -283.298)" fill="#cfd1d2"/>
            </g>
            <g id="Grupo_59145" data-name="Grupo 59145" transform="translate(4.198 4.212)">
              <path id="Trazado_104489" data-name="Trazado 104489" d="M99.126,302.794a1.153,1.153,0,0,1-.117-.006,1.17,1.17,0,0,1-.819-.448l-5.042-6.464a1.177,1.177,0,0,1,1.857-1.446l4.272,5.479,12.483-11.015a1.176,1.176,0,0,1,1.555,1.764L99.9,302.5A1.169,1.169,0,0,1,99.126,302.794Z" transform="translate(-92.9 -288.597)" fill="#23a2b7"/>
            </g>
          </g>
          <g id="Grupo_59153" data-name="Grupo 59153" transform="translate(10.373 98.832)">
            <g id="Grupo_59147" data-name="Grupo 59147" transform="translate(30.354 0.656)">
              <path id="Rectángulo_5715" data-name="Rectángulo 5715" d="M.43,0H70.068A.429.429,0,0,1,70.5.429V1.592a.43.43,0,0,1-.43.43H.43A.43.43,0,0,1,0,1.592V.43A.43.43,0,0,1,.43,0Z" transform="translate(0 0.457) rotate(-0.371)" fill="#cfd1d2"/>
            </g>
            <g id="Grupo_59148" data-name="Grupo 59148" transform="translate(30.394 6.722)">
              <rect id="Rectángulo_5716" data-name="Rectángulo 5716" width="70.497" height="2.022" rx="0.43" transform="translate(0 0.457) rotate(-0.371)" fill="#cfd1d2"/>
            </g>
            <g id="Grupo_59149" data-name="Grupo 59149" transform="translate(30.433 12.788)">
              <rect id="Rectángulo_5717" data-name="Rectángulo 5717" width="70.497" height="2.022" rx="0.43" transform="translate(0 0.457) rotate(-0.371)" fill="#cfd1d2"/>
            </g>
            <g id="Grupo_59150" data-name="Grupo 59150" transform="translate(30.472 19.081)">
              <rect id="Rectángulo_5718" data-name="Rectángulo 5718" width="35.574" height="2.022" rx="0.43" transform="translate(0 0.231) rotate(-0.371)" fill="#cfd1d2"/>
            </g>
            <g id="Grupo_59151" data-name="Grupo 59151">
              <path id="Trazado_104490" data-name="Trazado 104490" d="M108.446,344.753l-19.26.125A1.177,1.177,0,0,1,88,343.708l-.131-20.221A1.176,1.176,0,0,1,89.04,322.3l19.26-.125a1.176,1.176,0,0,1,1.184,1.169l.02,3.081a1.177,1.177,0,1,1-2.353.016l-.012-1.905-16.908.11.116,17.868,16.907-.11-.052-7.971a1.177,1.177,0,1,1,2.353-.015l.06,9.147A1.177,1.177,0,0,1,108.446,344.753Z" transform="translate(-87.871 -322.179)" fill="#cfd1d2"/>
            </g>
            <g id="Grupo_59152" data-name="Grupo 59152" transform="translate(4.198 4.213)">
              <path id="Trazado_104491" data-name="Trazado 104491" d="M99.378,341.675a1.144,1.144,0,0,1-.117-.006,1.168,1.168,0,0,1-.819-.448L93.4,334.757a1.176,1.176,0,1,1,1.856-1.446l4.273,5.479,12.482-11.015a1.176,1.176,0,1,1,1.556,1.764L100.148,341.38A1.169,1.169,0,0,1,99.378,341.675Z" transform="translate(-93.152 -327.479)" fill="#23a2b7"/>
            </g>
          </g>
          <g id="Grupo_59160" data-name="Grupo 59160" transform="translate(10.573 129.74)">
            <g id="Grupo_59154" data-name="Grupo 59154" transform="translate(30.354 0.656)">
              <rect id="Rectángulo_5719" data-name="Rectángulo 5719" width="70.497" height="2.022" rx="0.43" transform="translate(0 0.457) rotate(-0.371)" fill="#cfd1d2"/>
            </g>
            <g id="Grupo_59155" data-name="Grupo 59155" transform="translate(30.394 6.722)">
              <rect id="Rectángulo_5720" data-name="Rectángulo 5720" width="70.497" height="2.022" rx="0.43" transform="translate(0 0.457) rotate(-0.371)" fill="#cfd1d2"/>
            </g>
            <g id="Grupo_59156" data-name="Grupo 59156" transform="translate(30.433 12.788)">
              <rect id="Rectángulo_5721" data-name="Rectángulo 5721" width="70.497" height="2.022" rx="0.43" transform="translate(0 0.457) rotate(-0.371)" fill="#cfd1d2"/>
            </g>
            <g id="Grupo_59157" data-name="Grupo 59157" transform="translate(30.472 19.08)">
              <rect id="Rectángulo_5722" data-name="Rectángulo 5722" width="35.574" height="2.022" rx="0.43" transform="matrix(1, -0.006, 0.006, 1, 0, 0.23)" fill="#cfd1d2"/>
            </g>
            <g id="Grupo_59158" data-name="Grupo 59158">
              <path id="Trazado_104492" data-name="Trazado 104492" d="M108.7,383.634l-19.26.125a1.176,1.176,0,0,1-1.184-1.169l-.131-20.221a1.176,1.176,0,0,1,1.169-1.184l19.261-.125a1.176,1.176,0,0,1,1.184,1.169l.02,3.081a1.177,1.177,0,0,1-2.353.016l-.013-1.905-16.907.11L90.6,381.4l16.908-.11-.052-7.971a1.177,1.177,0,1,1,2.353-.015l.06,9.147A1.177,1.177,0,0,1,108.7,383.634Z" transform="translate(-88.123 -361.06)" fill="#cfd1d2"/>
            </g>
            <g id="Grupo_59159" data-name="Grupo 59159" transform="translate(4.198 4.214)">
              <path id="Trazado_104493" data-name="Trazado 104493" d="M99.63,380.556c-.039,0-.078,0-.118-.006a1.177,1.177,0,0,1-.818-.448l-5.042-6.466a1.176,1.176,0,0,1,1.856-1.446l4.273,5.481,12.482-11.015a1.176,1.176,0,1,1,1.556,1.764L100.4,380.261A1.17,1.17,0,0,1,99.63,380.556Z" transform="translate(-93.404 -366.361)" fill="#23a2b7"/>
            </g>
          </g>
        </g>
        <g id="Grupo_59162" data-name="Grupo 59162" transform="translate(42.523)">
          <path id="Trazado_104494" data-name="Trazado 104494" d="M171.029,191.406v6.654H119.7v-6.654a6.958,6.958,0,0,1,6.956-6.956h37.418A6.958,6.958,0,0,1,171.029,191.406Z" transform="translate(-119.7 -174.241)" fill="#a6a8aa"/>
          <rect id="Rectángulo_5723" data-name="Rectángulo 5723" width="51.329" height="4.96" transform="translate(0.001 18.857)" fill="#929496"/>
          <path id="Trazado_104495" data-name="Trazado 104495" d="M152.475,171.608h-4.821a5.04,5.04,0,0,0-5.036,5.036v6.646a5.03,5.03,0,0,0,5.036,5.025h4.821a5.029,5.029,0,0,0,5.036-5.025v-6.646A5.039,5.039,0,0,0,152.475,171.608ZM150.06,181.1a3.017,3.017,0,1,1,3.018-3.018A3.016,3.016,0,0,1,150.06,181.1Z" transform="translate(-124.4 -171.608)" fill="#a6a8aa"/>
        </g>
      </g>
      <g id="Grupo_59167" data-name="Grupo 59167" transform="translate(0 115.988)">
        <path id="Trazado_104496" data-name="Trazado 104496" d="M140.134,363.092a45.6,45.6,0,1,1-16.592-35.162A45.579,45.579,0,0,1,140.134,363.092Z" transform="translate(-49.001 -317.517)" fill="#f17781"/>
        <circle id="Elipse_4046" data-name="Elipse 4046" cx="36.314" cy="36.314" r="36.314" transform="matrix(0.23, -0.973, 0.973, 0.23, 1.879, 72.574)" fill="#fff"/>
        <circle id="Elipse_4047" data-name="Elipse 4047" cx="23.586" cy="23.586" r="23.586" transform="translate(17.191 63.11) rotate(-76.717)" fill="#f9e478"/>
        <circle id="Elipse_4048" data-name="Elipse 4048" cx="9.361" cy="9.361" r="9.361" transform="matrix(0.196, -0.981, 0.981, 0.196, 34.55, 52.918)" fill="#fff"/>
        <path id="Trazado_104497" data-name="Trazado 104497" d="M144.473,365.779a45.559,45.559,0,0,1-74.314,35.354l57.722-70.516A45.443,45.443,0,0,1,144.473,365.779Z" transform="translate(-53.34 -320.203)" fill="#e5e5e6" style="mix-blend-mode: multiply;isolation: isolate"/>
        <g id="Grupo_59166" data-name="Grupo 59166" transform="translate(45.166 22.051)">
          <g id="Grupo_59164" data-name="Grupo 59164" transform="translate(0 8.865)">
            <rect id="Rectángulo_5724" data-name="Rectángulo 5724" width="30.02" height="1.751" transform="matrix(0.886, -0.463, 0.463, 0.886, 0, 13.892)" fill="#47286d"/>
          </g>
          <g id="Grupo_59165" data-name="Grupo 59165" transform="translate(23.033)">
            <path id="Trazado_104498" data-name="Trazado 104498" d="M134.792,358.576l10.855-5.111,6.525,2.347L141.4,360.882Z" transform="translate(-134.792 -346.94)" fill="#47286d"/>
            <path id="Trazado_104499" data-name="Trazado 104499" d="M134.792,356.893l10.855-5.111,2.347-6.525-10.768,5.07Z" transform="translate(-134.792 -345.257)" fill="#47286d"/>
          </g>
        </g>
      </g>
    </g>
    <path id="Trazado_104500" data-name="Trazado 104500" d="M431.238,380.541H203.078L151.985,245.483,155.7,241.5H378.64Z" transform="translate(145.225 5121.412)" fill="#59595b"/>
    <path id="Trazado_104501" data-name="Trazado 104501" d="M428.444,374.338,382.169,252.015H171.883l46.275,122.323Z" transform="translate(141.145 5119.256)" fill="#eddeff"/>
    <g id="Grupo_59171" data-name="Grupo 59171" transform="translate(326.992 5377.528)">
      <path id="Trazado_104502" data-name="Trazado 104502" d="M383.556,281.542H197.471l-8.02-21.656H375.536Z" transform="translate(-189.451 -259.887)" fill="#47286d"/>
      <g id="Grupo_59169" data-name="Grupo 59169" transform="translate(11.003 29.167)">
        <path id="Trazado_104503" data-name="Trazado 104503" d="M279.055,305.03H206.422l-3.13-8.453h72.633Z" transform="translate(-203.291 -296.578)" fill="#47286d"/>
        <path id="Trazado_104504" data-name="Trazado 104504" d="M285.055,320.879H212.422l-3.13-8.453h72.633Z" transform="translate(-204.522 -299.828)" fill="#47286d"/>
        <path id="Trazado_104505" data-name="Trazado 104505" d="M291.055,336.727H218.422l-3.13-8.453h72.633Z" transform="translate(-205.752 -303.078)" fill="#47286d"/>
        <path id="Trazado_104506" data-name="Trazado 104506" d="M297.055,352.575H224.422l-3.13-8.453h72.633Z" transform="translate(-206.983 -306.327)" fill="#47286d"/>
        <path id="Trazado_104507" data-name="Trazado 104507" d="M303.055,368.423H230.422l-3.13-8.453h72.633Z" transform="translate(-208.213 -309.577)" fill="#47286d"/>
        <path id="Trazado_104508" data-name="Trazado 104508" d="M309.055,384.271H236.422l-3.13-8.453h72.633Z" transform="translate(-209.443 -312.827)" fill="#47286d"/>
      </g>
      <g id="Grupo_59170" data-name="Grupo 59170" transform="translate(123.255 29.167)">
        <path id="Trazado_104509" data-name="Trazado 104509" d="M420.264,305.03H347.631l-3.13-8.453h72.633Z" transform="translate(-344.501 -296.578)" fill="#47286d"/>
        <path id="Trazado_104510" data-name="Trazado 104510" d="M426.264,320.879H353.631l-3.13-8.453h72.633Z" transform="translate(-345.731 -299.828)" fill="#47286d"/>
        <path id="Trazado_104511" data-name="Trazado 104511" d="M432.264,336.727H359.631l-3.13-8.453h72.633Z" transform="translate(-346.962 -303.078)" fill="#47286d"/>
        <path id="Trazado_104512" data-name="Trazado 104512" d="M438.264,352.575H365.631l-3.13-8.453h72.633Z" transform="translate(-348.192 -306.327)" fill="#47286d"/>
        <path id="Trazado_104513" data-name="Trazado 104513" d="M444.264,368.423H371.631l-3.13-8.453h72.633Z" transform="translate(-349.422 -309.577)" fill="#47286d"/>
        <path id="Trazado_104514" data-name="Trazado 104514" d="M450.264,384.271H377.631l-3.13-8.453h72.633Z" transform="translate(-350.653 -312.827)" fill="#47286d"/>
      </g>
    </g>
    <path id="Trazado_104515" data-name="Trazado 104515" d="M384.823,241.5H156.662l52.6,139.041h228.16Zm-5.775,8.359,46.275,122.323H215.036L168.762,249.859Z" transform="translate(144.266 5121.412)" fill="#808183"/>
    <rect id="Rectángulo_5725" data-name="Rectángulo 5725" width="115.791" height="12.538" transform="translate(348.136 5501.953)" fill="#6d6e70"/>
    <rect id="Rectángulo_5726" data-name="Rectángulo 5726" width="228.838" height="12.538" transform="translate(463.928 5501.953)" fill="#929496"/>
    <g id="Grupo_59176" data-name="Grupo 59176" transform="translate(433.325 5397.498)">
      <g id="Grupo_59174" data-name="Grupo 59174" transform="translate(68.982 67.515)">
        <line id="Línea_162" data-name="Línea 162" x2="15.607" y2="14.869" transform="translate(2.793 2.93)" fill="#6d6e70"/>
        <path id="Trazado_104516" data-name="Trazado 104516" d="M431.183,384.805l-2.623,2.758-2.965,3.108-4.785-4.563-10.819-10.3,2.7-2.838,2.886-3.029,10.811,10.294Z" transform="translate(-409.99 -369.94)" fill="#929496"/>
      </g>
      <path id="Trazado_104517" data-name="Trazado 104517" d="M478.334,429.4l-2.011,2.107-.032.032-3.792,4a5.849,5.849,0,0,1-8.251.024l-40.836-38.9a5.835,5.835,0,0,1-.366-8.228l.127-.135,2.886-3.021.914-.962.008-.024,1.773-1.868.127-.135a5.835,5.835,0,0,1,8.251,0l40.836,38.9A5.815,5.815,0,0,1,478.334,429.4Z" transform="translate(-343.372 -304.605)" fill="#434244"/>
      <path id="Trazado_104518" data-name="Trazado 104518" d="M473.959,430.1l-.032.032-3.792,4a5.849,5.849,0,0,1-8.251.024l-40.836-38.9a5.835,5.835,0,0,1-.366-8.228l.127-.135-10.819-10.3,2.7-2.838,11,10.12,4.865,4.475Z" transform="translate(-341.008 -303.206)" fill="#e6e6e7" style="mix-blend-mode: multiply;isolation: isolate"/>
      <g id="Grupo_59175" data-name="Grupo 59175">
        <path id="Trazado_104519" data-name="Trazado 104519" d="M401.584,316.644a35.581,35.581,0,0,1-18.511,46.745,35.054,35.054,0,0,1-11.3,2.8,35.474,35.474,0,0,1-14.961-2.062,35.378,35.378,0,0,1-20.459-19.259c-.408-.942-.766-1.905-1.088-2.855a35.539,35.539,0,0,1,54.4-40.136,35.03,35.03,0,0,1,7.994,7.933A33.968,33.968,0,0,1,401.584,316.644Z" transform="translate(-325.31 -287.106)" fill="#9ec8dd" opacity="0.4"/>
        <path id="Trazado_104520" data-name="Trazado 104520" d="M349.54,288.608a43.647,43.647,0,1,0,57.39,22.726A43.647,43.647,0,0,0,349.54,288.608ZM334.251,342.78a35.543,35.543,0,1,1,46.734,18.507A35.583,35.583,0,0,1,334.251,342.78Z" transform="translate(-323.213 -285.008)" fill="#f9e478"/>
      </g>
      <path id="Trazado_104521" data-name="Trazado 104521" d="M390.132,301.884l-42.686,56.792a35.267,35.267,0,0,1-10.621-13.8c-.408-.942-.766-1.905-1.088-2.855l35.173-46.741A35.889,35.889,0,0,1,390.132,301.884Z" transform="translate(-325.781 -287.114)" fill="#fff" opacity="0.4"/>
      <path id="Trazado_104522" data-name="Trazado 104522" d="M407.614,320.4a35.878,35.878,0,0,1,2.192,6.97l-32,42.574a35.474,35.474,0,0,1-14.961-2.062l40.842-54.317A33.968,33.968,0,0,1,407.614,320.4Z" transform="translate(-331.339 -290.865)" fill="#fff" opacity="0.4"/>
    </g>
    <g id="Grupo_59180" data-name="Grupo 59180" transform="translate(384.92 5341.131)">
      <g id="Grupo_59179" data-name="Grupo 59179">
        <rect id="Rectángulo_5727" data-name="Rectángulo 5727" width="79.007" height="38.988" fill="#fff"/>
        <path id="Trazado_104523" data-name="Trazado 104523" d="M326.436,233.984,354.477,216v37.477H350.3Z" transform="translate(-275.469 -214.49)" fill="#e6e6e7"/>
        <path id="Trazado_104524" data-name="Trazado 104524" d="M288.649,232.885,262.322,216v37.477H266.5Z" transform="translate(-262.322 -214.49)" fill="#e6e6e7"/>
        <g id="Grupo_59177" data-name="Grupo 59177">
          <path id="Trazado_104525" data-name="Trazado 104525" d="M341.329,214.1v2.285L314.37,233.9l-1.677,1.086-10.872,7.06-13.071-8.5-1.626-1.052-24.8-16.111V214.1l26.264,17.073,13.234,8.6,10.964-7.117Z" transform="translate(-262.322 -214.1)" fill="#bbbcbf"/>
        </g>
        <g id="Grupo_59178" data-name="Grupo 59178" transform="translate(2.168 17.073)">
          <path id="Trazado_104526" data-name="Trazado 104526" d="M339.178,257.492H336.12l-22.868-18.1-10.872,7.06-13.071-8.5-21.478,19.539h-2.782L287.683,236.9l1.463-1.324,13.234,8.6,10.964-7.117,1.586,1.245Z" transform="translate(-265.049 -235.577)" fill="#bbbcbf"/>
        </g>
      </g>
      <path id="Trazado_104527" data-name="Trazado 104527" d="M317.273,259.671l-7.085,15.571L303.1,259.671l7.085-7.838Z" transform="translate(-270.684 -221.838)" fill="#fff"/>
    </g>
    <path id="Trazado_104528" data-name="Trazado 104528" d="M225.035,301.35V411.316a7.786,7.786,0,0,1-7.508,8.036H162.572a7.786,7.786,0,0,1-7.509-8.036V301.35a7.786,7.786,0,0,1,7.509-8.036h54.955A7.786,7.786,0,0,1,225.035,301.35Z" transform="translate(144.593 5110.787)" fill="#eddeff"/>
    <g id="Grupo_59181" data-name="Grupo 59181" transform="translate(305.997 5421.639)">
      <path id="Trazado_104529" data-name="Trazado 104529" d="M177.586,322.649a7.274,7.274,0,1,1-7.275-7.273A7.265,7.265,0,0,1,177.586,322.649Z" transform="translate(-163.039 -315.376)" fill="#929496"/>
      <path id="Trazado_104530" data-name="Trazado 104530" d="M174.117,320.752a2.6,2.6,0,1,1-2.6-2.6A2.6,2.6,0,0,1,174.117,320.752Z" transform="translate(-164.245 -315.945)" fill="#bbbcbf"/>
      <path id="Trazado_104531" data-name="Trazado 104531" d="M175.81,329.027a6.629,6.629,0,0,1-9.76,0,5.173,5.173,0,0,1,9.76,0Z" transform="translate(-163.656 -317.466)" fill="#bbbcbf"/>
    </g>
    <g id="Grupo_59182" data-name="Grupo 59182" transform="translate(324.066 5425.563)">
      <rect id="Rectángulo_5728" data-name="Rectángulo 5728" width="26.339" height="2.468" rx="1.234" fill="#47286d"/>
      <rect id="Rectángulo_5729" data-name="Rectángulo 5729" width="14.49" height="2.468" rx="1.234" transform="translate(0 4.232)" fill="#47286d"/>
    </g>
    <g id="Grupo_59184" data-name="Grupo 59184" transform="translate(305.997 5440.577)">
      <path id="Trazado_104532" data-name="Trazado 104532" d="M177.586,346.472a7.274,7.274,0,1,1-7.275-7.272A7.265,7.265,0,0,1,177.586,346.472Z" transform="translate(-163.039 -339.2)" fill="#929496"/>
      <path id="Trazado_104533" data-name="Trazado 104533" d="M174.117,344.575a2.6,2.6,0,1,1-2.6-2.6A2.6,2.6,0,0,1,174.117,344.575Z" transform="translate(-164.245 -339.769)" fill="#bbbcbf"/>
      <path id="Trazado_104534" data-name="Trazado 104534" d="M175.81,352.851a6.629,6.629,0,0,1-9.76,0,5.173,5.173,0,0,1,9.76,0Z" transform="translate(-163.656 -341.29)" fill="#bbbcbf"/>
    </g>
    <g id="Grupo_59185" data-name="Grupo 59185" transform="translate(324.066 5444.501)">
      <rect id="Rectángulo_5730" data-name="Rectángulo 5730" width="26.339" height="2.468" rx="1.234" fill="#47286d"/>
      <rect id="Rectángulo_5731" data-name="Rectángulo 5731" width="14.49" height="2.468" rx="1.234" transform="translate(0 4.232)" fill="#47286d"/>
    </g>
    <g id="Grupo_59187" data-name="Grupo 59187" transform="translate(305.997 5459.515)">
      <path id="Trazado_104535" data-name="Trazado 104535" d="M177.586,370.3a7.274,7.274,0,1,1-7.275-7.273A7.268,7.268,0,0,1,177.586,370.3Z" transform="translate(-163.039 -363.023)" fill="#929496"/>
      <path id="Trazado_104536" data-name="Trazado 104536" d="M174.117,368.4a2.6,2.6,0,1,1-2.6-2.6A2.6,2.6,0,0,1,174.117,368.4Z" transform="translate(-164.245 -363.592)" fill="#bbbcbf"/>
      <path id="Trazado_104537" data-name="Trazado 104537" d="M175.81,376.674a6.629,6.629,0,0,1-9.76,0,5.173,5.173,0,0,1,9.76,0Z" transform="translate(-163.656 -365.113)" fill="#bbbcbf"/>
    </g>
    <g id="Grupo_59188" data-name="Grupo 59188" transform="translate(324.066 5463.439)">
      <rect id="Rectángulo_5732" data-name="Rectángulo 5732" width="26.339" height="2.468" rx="1.234" fill="#47286d"/>
      <rect id="Rectángulo_5733" data-name="Rectángulo 5733" width="14.49" height="2.468" rx="1.234" transform="translate(0 4.232)" fill="#47286d"/>
    </g>
    <g id="Grupo_59190" data-name="Grupo 59190" transform="translate(305.997 5478.454)">
      <path id="Trazado_104538" data-name="Trazado 104538" d="M177.586,394.119a7.274,7.274,0,1,1-7.275-7.272A7.265,7.265,0,0,1,177.586,394.119Z" transform="translate(-163.039 -386.847)" fill="#929496"/>
      <path id="Trazado_104539" data-name="Trazado 104539" d="M174.117,392.222a2.6,2.6,0,1,1-2.6-2.6A2.6,2.6,0,0,1,174.117,392.222Z" transform="translate(-164.245 -387.416)" fill="#bbbcbf"/>
      <path id="Trazado_104540" data-name="Trazado 104540" d="M175.81,400.5a6.628,6.628,0,0,1-9.76,0,5.173,5.173,0,0,1,9.76,0Z" transform="translate(-163.656 -388.937)" fill="#bbbcbf"/>
    </g>
    <g id="Grupo_59191" data-name="Grupo 59191" transform="translate(324.066 5482.377)">
      <rect id="Rectángulo_5734" data-name="Rectángulo 5734" width="26.339" height="2.468" rx="1.234" fill="#47286d"/>
      <rect id="Rectángulo_5735" data-name="Rectángulo 5735" width="14.49" height="2.468" rx="1.234" transform="translate(0 4.232)" fill="#47286d"/>
    </g>
    <g id="Grupo_59193" data-name="Grupo 59193" transform="translate(305.997 5497.391)">
      <path id="Trazado_104541" data-name="Trazado 104541" d="M177.586,417.942a7.274,7.274,0,1,1-7.275-7.272A7.265,7.265,0,0,1,177.586,417.942Z" transform="translate(-163.039 -410.67)" fill="#929496"/>
      <path id="Trazado_104542" data-name="Trazado 104542" d="M174.117,416.046a2.6,2.6,0,1,1-2.6-2.6A2.6,2.6,0,0,1,174.117,416.046Z" transform="translate(-164.245 -411.239)" fill="#bbbcbf"/>
      <path id="Trazado_104543" data-name="Trazado 104543" d="M175.81,424.321a6.629,6.629,0,0,1-9.76,0,5.173,5.173,0,0,1,9.76,0Z" transform="translate(-163.656 -412.76)" fill="#bbbcbf"/>
    </g>
    <g id="Grupo_59194" data-name="Grupo 59194" transform="translate(324.066 5501.315)">
      <rect id="Rectángulo_5736" data-name="Rectángulo 5736" width="26.339" height="2.468" rx="1.234" fill="#47286d"/>
      <rect id="Rectángulo_5737" data-name="Rectángulo 5737" width="14.49" height="2.468" rx="1.234" transform="translate(0 4.232)" fill="#47286d"/>
    </g>
    <path id="Trazado_104544" data-name="Trazado 104544" d="M225.035,301.35v4.522H155.063V301.35a7.786,7.786,0,0,1,7.509-8.036h54.955A7.786,7.786,0,0,1,225.035,301.35Z" transform="translate(144.593 5110.787)" fill="#47286d"/>
    <path id="Trazado_104545" data-name="Trazado 104545" d="M225.035,433.8v6.324a7.786,7.786,0,0,1-7.508,8.036H162.572a7.786,7.786,0,0,1-7.509-8.036V433.8Z" transform="translate(144.593 5081.978)" fill="#47286d"/>
    <rect id="Rectángulo_5738" data-name="Rectángulo 5738" width="21.757" height="1.747" rx="0.873" transform="translate(323.764 5410.379)" fill="#6d6e70"/>
    <path id="Trazado_104546" data-name="Trazado 104546" d="M200.568,436.812H193.7a4.09,4.09,0,0,0,0,8.181h6.871a4.09,4.09,0,1,0,0-8.181Z" transform="translate(137.51 5081.36)" fill="#6d6e70"/>
    <path id="Trazado_104547" data-name="Trazado 104547" d="M224.169,313.941v20.241l-67.638,52.974V366.916Z" transform="translate(144.292 5106.557)" fill="#a6a8aa" style="mix-blend-mode: soft-light;isolation: isolate"/>
    <path id="Trazado_104548" data-name="Trazado 104548" d="M224.169,350.954V358.2l-67.638,52.974v-7.248Z" transform="translate(144.292 5098.967)" fill="#a6a8aa" style="mix-blend-mode: soft-light;isolation: isolate"/>
    <g id="Grupo_59098" data-name="Grupo 59098" transform="translate(624.369 5351.571)">
      <g id="Grupo_59097" data-name="Grupo 59097">
        <g id="Grupo_59096" data-name="Grupo 59096">
          <g id="Grupo_59094" data-name="Grupo 59094" transform="translate(21.105 75.741)">
            <path id="Trazado_104421" data-name="Trazado 104421" d="M601.585,338.76l2.261,1.1-.368,2.163a12.579,12.579,0,0,1-8.8,1.606c-5.1-1.315-4.568-5.1-4.568-5.1l.49-2.173Z" transform="translate(-590.089 -325.352)" fill="#fff"/>
            <path id="Trazado_104422" data-name="Trazado 104422" d="M595.2,338.985a11.8,11.8,0,0,0,8.766-1.96c.773-2.381,0-7.5,0-8.059a25.723,25.723,0,0,1,1.052-3.433l-7.168-3.02s-1.245,3.508-1.522,4.366-5.544,6.217-5.611,6.638S590.3,338.009,595.2,338.985Z" transform="translate(-590.211 -322.513)" fill="#434244"/>
            <path id="Trazado_104423" data-name="Trazado 104423" d="M595.2,341.405a11.8,11.8,0,0,0,8.766-1.96s-7.849-8.623-13.25-3.508C590.65,336.357,590.3,340.429,595.2,341.405Z" transform="translate(-590.211 -324.933)" fill="#59595b"/>
          </g>
          <g id="Grupo_59095" data-name="Grupo 59095" transform="translate(0 60.377)">
            <path id="Trazado_104424" data-name="Trazado 104424" d="M583.4,314.048l4.16,1.524.582,2.271-23.608,8.137-.508-2.137Z" transform="translate(-563.64 -305.413)" fill="#fff"/>
            <path id="Trazado_104425" data-name="Trazado 104425" d="M563.926,321.614l7.6-2.595,15.941-5.675a99.552,99.552,0,0,0-2.766-9.665l-7.9-.494a17.46,17.46,0,0,1-.167,3.636c-.271.44-7.053,4.917-7.053,4.917q-.886.531-1.619,1.056C561.694,317.316,563.926,321.614,563.926,321.614Z" transform="translate(-563.54 -303.186)" fill="#434244"/>
            <path id="Trazado_104426" data-name="Trazado 104426" d="M563.926,324.093l7.6-2.595s-.453-4.2-3.56-6.225C561.694,319.795,563.926,324.093,563.926,324.093Z" transform="translate(-563.54 -305.665)" fill="#59595b"/>
          </g>
          <path id="Trazado_104427" data-name="Trazado 104427" d="M640.612,244.152c-2.373,9.46-29.189,25.089-29.189,25.089l-9.645,38.1-10.309-3.553s4.813-37.624,6.16-40.737c.82-3.417,15.59-16.694,16.966-17.933l.1-.078-.107.068-32.7,10.755,4.864,32.809-10.547,2s-10.186-35.815-9.043-42.6c1.854-7.065,43.535-18.5,43.535-18.5L617,227.234l23.738,3.056S641.481,240.706,640.612,244.152Z" transform="translate(-564.263 -227.234)" fill="#564c44"/>
          <path id="Trazado_104428" data-name="Trazado 104428" d="M584.863,258.766l4.269,28.787L581.6,256.663l31.633-10.137-2.177-5.145,6.511,6.628Z" transform="translate(-567.243 -230.135)" fill="#cfd1d2" style="mix-blend-mode: multiply;isolation: isolate"/>
          <path id="Trazado_104429" data-name="Trazado 104429" d="M649.566,244.152c-2.373,9.46-29.189,25.089-29.189,25.089l-9.645,38.1,6.785-39.634,26.9-26.338s-19.476,2.049-27.9-6.961c-2.948-3.153,1.894-5.476,9.44-7.175L649.38,229.7S650.435,240.706,649.566,244.152Z" transform="translate(-573.217 -227.234)" fill="#cfd1d2" style="mix-blend-mode: multiply;isolation: isolate"/>
        </g>
      </g>
    </g>
    <path id="Trazado_104430" data-name="Trazado 104430" d="M615.416,166.194l-7,2.01s-3.414,9.758-8.825,23.079c0,0-4.62,11.094.879,12.6,5.232,1.209,12.5-21.246,12.5-21.246Z" transform="translate(53.808 5136.854)" fill="#e5b7ac"/>
    <path id="Trazado_104431" data-name="Trazado 104431" d="M644.688,199.046c.021.484.2,3.475.223,3.829.667,5.417,2.471,12.753,2.471,12.753.417,6.2-17.408,7.855-22.1,7.217-15-.293-13.255-7-13.255-7,.1-.664.2-1.541.306-2.58.813-7.975,1.807-25.316,1.709-26.322-.041-.441-.087-.865-.134-1.282.274-1.115-3.5-19.834-2.771-19.936a40.421,40.421,0,0,1,7.83-7.144c.481-.335.979-.671,1.5-.984.131-.074.262-.16.387-.234.324-.2.654-.4,1-.583a23.189,23.189,0,0,1,7.555-2.688,28.977,28.977,0,0,1,6.982,1.9c.7.273,1.39.576,2.074.891.257.119.508.244.759.363.4.192.8.4,1.184.6a30.054,30.054,0,0,1,10.757,9.932s-.7,1.107-.711,1.144c-.454,1.008-3.924,11.135-5.314,15.641-.114.689-.218,1.425-.3,2.194-.033.3-.06.6-.087.907a.362.362,0,0,0-.006.077A90.681,90.681,0,0,0,644.688,199.046Z" transform="translate(51.088 5139.336)" fill="#fff"/>
    <path id="Trazado_104432" data-name="Trazado 104432" d="M647.619,220.432c.417,6.2-17.408,7.855-22.1,7.217-15-.293-13.255-7-13.255-7,.1-.664.2-1.541.306-2.58,4.259-.079,14.535-.737,21.982-5.018,9.626-5.541,8.193-22.766,8.193-22.766l-2.712-6.925,2.869,1.88-.153-7.72,2.332,14.042c-.033.3-.06.6-.087.907a.362.362,0,0,0-.006.077,90.681,90.681,0,0,0-.068,11.307c.021.484.2,3.475.223,3.829C645.815,213.1,647.619,220.432,647.619,220.432Z" transform="translate(50.85 5134.532)" fill="#e5e5e6" style="mix-blend-mode: multiply;isolation: isolate"/>
    <path id="Trazado_104433" data-name="Trazado 104433" d="M619.311,167.484s.743,46.478.208,57.028c0,0-8.613-3-7.629-8.069,0,0,1.639-23.332,1.439-29.538s-2.971-20.373-2.971-20.373a57.247,57.247,0,0,1,11.416-9.511Z" transform="translate(51.229 5138.735)" fill="#bb83ff"/>
    <path id="Trazado_104434" data-name="Trazado 104434" d="M610.864,167.292l-2.787,1.346-8.837,16.12,11.778,6.709,1.873-4.2Z" transform="translate(53.509 5136.629)" fill="#bb83ff"/>
    <path id="Trazado_104435" data-name="Trazado 104435" d="M623.195,156.039l-2.325,11.111-4.113,1.542,4.208-10.92Z" transform="translate(49.917 5138.937)" fill="#47286d"/>
    <path id="Trazado_104436" data-name="Trazado 104436" d="M651.56,190.976c1.127,8.363,4.79,30.906,4.79,30.906-.078.056-.155.112-.238.169-5.138,3.435-23.1,4.081-23.1,4.081-.065-.275-.09-2.458-.084-5.847.014-15.16.576-54.468.576-54.468l7.9-9.539a32.733,32.733,0,0,1,12.76,9.864s-3.548,16.867-2.836,23.042c.057.479.134,1.079.231,1.783Z" transform="translate(46.601 5138.888)" fill="#bb83ff"/>
    <path id="Trazado_104437" data-name="Trazado 104437" d="M656.35,230.833c-.078.056-.155.112-.238.169-5.138,3.435-23.1,4.081-23.1,4.081-.065-.275-.09-2.458-.084-5.847,17.955-7.433,18.637-28.754,18.63-29.309C652.687,208.29,656.35,230.833,656.35,230.833Z" transform="translate(46.601 5129.937)" fill="#f0f1f1" style="mix-blend-mode: multiply;isolation: isolate"/>
    <path id="Trazado_104438" data-name="Trazado 104438" d="M646.117,189.185s.836-7.5,1.878-10.174l-1.706,4-.653-2.73-.471,7.727Z" transform="translate(44.091 5134.226)" fill="#e5e5e6" style="mix-blend-mode: multiply;isolation: isolate"/>
    <path id="Trazado_104439" data-name="Trazado 104439" d="M613.68,194.049l1.2-14.169-2.66,13.339Z" transform="translate(50.847 5134.048)" fill="#e5e5e6" style="mix-blend-mode: multiply;isolation: isolate"/>
    <path id="Trazado_104440" data-name="Trazado 104440" d="M639.748,153.392a25.43,25.43,0,0,1-10.613,9.446,12.747,12.747,0,0,1-4.49-9.146l1.367-8.539,6.654,1.163,6.043-7.285.029.424.473,6.484Z" transform="translate(48.299 5142.424)" fill="#e5b7ac"/>
    <path id="Trazado_104441" data-name="Trazado 104441" d="M639.315,146.049c-6.853,5.557-10.413,7.052-14.159,6.309l2.12-4.231.234-1.786,6.742.351,4.59-7.128Z" transform="translate(48.194 5142.315)" fill="#ca7e86" opacity="0.5"/>
    <g id="Grupo_59113" data-name="Grupo 59113" transform="translate(665.145 5264.154)">
      <path id="Trazado_104442" data-name="Trazado 104442" d="M625.295,117.516v-.006s8.015-2.305,12.619,7.278c0,0,2.756,6.205.344,12.4,0,0-5.385,8.274-11.933,10.783-4.6,1.589-9.68-6.513-9.965-14.941C616.091,125.056,620.024,118.379,625.295,117.516Z" transform="translate(-615.144 -117.266)" fill="#e5b7ac"/>
      <g id="Grupo_59100" data-name="Grupo 59100" transform="translate(5.786 22.5)">
        <g id="Grupo_59099" data-name="Grupo 59099">
          <path id="Trazado_104443" data-name="Trazado 104443" d="M629.014,145.57a5.478,5.478,0,0,1-1.179,2.267,3.007,3.007,0,0,1-.272.269,3.068,3.068,0,0,1-1.534.747,3.141,3.141,0,0,1-1.963-.3c-.114-.058-.222-.117-.324-.182a5.563,5.563,0,0,1-1.63-1.6A13.568,13.568,0,0,0,629.014,145.57Z" transform="translate(-622.112 -145.57)" fill="#fff"/>
        </g>
      </g>
      <g id="Grupo_59101" data-name="Grupo 59101" transform="translate(22.437 12.717)">
        <path id="Trazado_104444" data-name="Trazado 104444" d="M643.059,137.224l.127,3.77c3.227,1.04,5.736-2.193,6.126-4.779.195-1.3-.15-2.441-1.206-2.8-2.233-.745-3.822,1.457-4.566,2.817A8.959,8.959,0,0,0,643.059,137.224Z" transform="translate(-643.059 -133.263)" fill="#e5b7ac"/>
        <path id="Trazado_104445" data-name="Trazado 104445" d="M647.368,136.27a4.492,4.492,0,0,0-3.491,2.181.186.186,0,0,0,.068.254.188.188,0,0,0,.1.025.186.186,0,0,0,.154-.093,4.868,4.868,0,0,1,1.29-1.355c.786.476.435,1.789.431,1.8a.188.188,0,0,0,.129.231.206.206,0,0,0,.057.007.186.186,0,0,0,.172-.135c.018-.064.387-1.447-.446-2.118a3.263,3.263,0,0,1,1.484-.425l.057,0a.184.184,0,0,0,.184-.189A.187.187,0,0,0,647.368,136.27Z" transform="translate(-643.221 -133.88)" fill="#ca7e86"/>
      </g>
      <g id="Grupo_59104" data-name="Grupo 59104" transform="translate(1.211 18.416)">
        <g id="Grupo_59102" data-name="Grupo 59102" transform="translate(14.974)">
          <path id="Trazado_104446" data-name="Trazado 104446" d="M635.2,141.1c.047.174.513.2,1.041.059s.918-.4.872-.572-.513-.2-1.041-.059S635.15,140.921,635.2,141.1Z" transform="translate(-635.193 -140.432)" fill="#ca7e86"/>
          <path id="Trazado_104447" data-name="Trazado 104447" d="M635.243,142.537c0-.18.45-.317,1-.305s.987.166.983.346-.45.317-1,.306S635.24,142.717,635.243,142.537Z" transform="translate(-635.203 -140.801)" fill="#ca7e86"/>
        </g>
        <g id="Grupo_59103" data-name="Grupo 59103" transform="translate(0 1.892)">
          <path id="Trazado_104448" data-name="Trazado 104448" d="M618.4,144.56c-.047-.173-.513-.2-1.041-.058s-.919.4-.872.572.513.2,1.041.058S618.446,144.735,618.4,144.56Z" transform="translate(-616.383 -143.14)" fill="#ca7e86"/>
          <path id="Trazado_104449" data-name="Trazado 104449" d="M618.336,143.159c0,.18-.45.317-1,.306s-.987-.167-.983-.347.45-.317,1-.306S618.34,142.98,618.336,143.159Z" transform="translate(-616.357 -142.812)" fill="#ca7e86"/>
        </g>
      </g>
      <path id="Trazado_104450" data-name="Trazado 104450" d="M628.082,139.3a2.106,2.106,0,0,1,.421-1.161,1.506,1.506,0,0,1,2.4-.117,2.088,2.088,0,0,1,.528,1.118,5.438,5.438,0,0,0-.834-.773,1.318,1.318,0,0,0-1.762.085A5.426,5.426,0,0,0,628.082,139.3Z" transform="translate(-617.551 -121.411)" fill="#434244"/>
      <path id="Trazado_104451" data-name="Trazado 104451" d="M618.351,139.968a2.045,2.045,0,0,1,.281-1.1,1.238,1.238,0,0,1,2.177-.107,2.035,2.035,0,0,1,.383,1.072,7.484,7.484,0,0,0-.723-.762.942.942,0,0,0-1.47.073A7.288,7.288,0,0,0,618.351,139.968Z" transform="translate(-615.555 -121.551)" fill="#434244"/>
      <g id="Grupo_59110" data-name="Grupo 59110" transform="translate(0 13.792)">
        <path id="Trazado_104452" data-name="Trazado 104452" d="M625.834,143.883l-.068,0c-.281.01-.964-.148-1.236-1.812a14.369,14.369,0,0,1-.174-4.355.186.186,0,0,1,.367.064,14.33,14.33,0,0,0,.175,4.231c.183,1.121.562,1.51.856,1.5.431-.009.986-.816,1.107-2.085a.186.186,0,1,1,.37.036C627.1,142.8,626.521,143.8,625.834,143.883Z" transform="translate(-616.769 -135.221)" fill="#ca7e86"/>
        <g id="Grupo_59109" data-name="Grupo 59109">
          <g id="Grupo_59105" data-name="Grupo 59105" transform="translate(8.703 1.154)">
            <path id="Trazado_104453" data-name="Trazado 104453" d="M627.569,140.695c-1.56-1.273-1.759-3.9-1.767-4.007l-.02-.289,7.778-.331.014.278c0,.045.185,4.484-3.572,4.985-.087.011-.175.021-.262.026A3,3,0,0,1,627.569,140.695Zm-1.173-3.758a5.505,5.505,0,0,0,1.529,3.323,2.515,2.515,0,0,0,2,.514c2.77-.369,3.064-3.2,3.086-4.119Z" transform="translate(-625.782 -136.068)" fill="#fff"/>
          </g>
          <g id="Grupo_59106" data-name="Grupo 59106" transform="translate(0 1.567)">
            <path id="Trazado_104454" data-name="Trazado 104454" d="M618.455,141.917c-3.409-.124-3.609-4.56-3.611-4.605l-.01-.273,7-.452.006.294c0,.118.041,2.9-1.363,4.279a2.583,2.583,0,0,1-1.685.752A2.888,2.888,0,0,1,618.455,141.917Zm-3.028-4.353c.092.9.578,3.7,3.049,3.791a2.057,2.057,0,0,0,1.6-.6,5.789,5.789,0,0,0,1.191-3.572Z" transform="translate(-614.834 -136.587)" fill="#fff"/>
          </g>
          <g id="Grupo_59107" data-name="Grupo 59107" transform="translate(6.487 2.055)">
            <path id="Trazado_104455" data-name="Trazado 104455" d="M625.645,138.032l.23-.514c-.077-.034-1.9-.834-2.88.24l.417.378C624.113,137.365,625.629,138.027,625.645,138.032Z" transform="translate(-622.995 -137.201)" fill="#fff"/>
          </g>
          <g id="Grupo_59108" data-name="Grupo 59108" transform="translate(16.176)">
            <path id="Trazado_104456" data-name="Trazado 104456" d="M635.258,136.342l8.2-1.129.5-.6-8.777,1.168Z" transform="translate(-635.183 -134.616)" fill="#fff"/>
          </g>
        </g>
      </g>
      <g id="Grupo_59111" data-name="Grupo 59111" transform="translate(1.668 13.252)">
        <path id="Trazado_104457" data-name="Trazado 104457" d="M618.593,135.119a2.287,2.287,0,0,1,1.79-.148.462.462,0,1,0,.234-.894,3.173,3.173,0,0,0-2.5.252c-1.1.659-1.34,2.46-1.091,2.52A7.861,7.861,0,0,1,618.593,135.119Z" transform="translate(-616.932 -133.937)" fill="#434244"/>
      </g>
      <g id="Grupo_59112" data-name="Grupo 59112" transform="translate(10.583 12.685)">
        <path id="Trazado_104458" data-name="Trazado 104458" d="M633.337,136.225c.283-.123-.37-2.223-1.824-2.781a3.836,3.836,0,0,0-3.039.217.559.559,0,0,0,.464,1.018,2.77,2.77,0,0,1,2.175-.191A9.591,9.591,0,0,1,633.337,136.225Z" transform="translate(-628.148 -133.223)" fill="#434244"/>
      </g>
    </g>
    <path id="Trazado_104459" data-name="Trazado 104459" d="M631.035,243.544l0-.018h0Z" transform="translate(46.989 5120.997)" fill="#e5e5e6"/>
    <g id="Grupo_59115" data-name="Grupo 59115" transform="translate(661.747 5299.083)">
      <path id="Trazado_104460" data-name="Trazado 104460" d="M644.572,190.537c4.718,7.383,2.453,15.919-3.879,10.772-4.008-5.053-13.206-22.735-14.251-24.938.742-1.857.1-2.673,1.492-3.914-2.253-.551,1.444-.89,1.444-.89Z" transform="translate(-613.816 -163.331)" fill="#e5b7ac"/>
      <g id="Grupo_59114" data-name="Grupo 59114">
        <path id="Trazado_104461" data-name="Trazado 104461" d="M610.559,169.779l1.252-.125,11.163-7.521a.563.563,0,0,0,.013-.508,1.049,1.049,0,0,0-.645-.419l-11.143,7.47Z" transform="translate(-610.559 -161.206)" fill="#6d6e70"/>
        <path id="Trazado_104462" data-name="Trazado 104462" d="M610.559,169.887l1.252-.125,11.163-7.521a.563.563,0,0,0,.013-.508l-11.343,7.617Z" transform="translate(-610.559 -161.314)" fill="#59595b"/>
      </g>
      <path id="Trazado_104463" data-name="Trazado 104463" d="M615.48,167.874c-1.088.413-1.521-.439-1.207-1.054s2.8-2.14,3.523-2.03a27.959,27.959,0,0,1,3.514,1.425l-2.795-2.371s-1.173.108-3.4.144c-1.9-.083-1.693-1.059-.994-1.3.551-.455,4.535-1.194,5.382-.708a29.489,29.489,0,0,1,4.412,3.208,47.166,47.166,0,0,1,2.836,4.384c-.311,2.242-1.621,3.336-2.365,5.2-4.964-.762-5.667-4.472-5.949-4.551s.169,2.258-1.608,1.5a10.192,10.192,0,0,1-.161-2.615s.858,1.991-.966,1.54C614.8,170.184,615.48,167.874,615.48,167.874Z" transform="translate(-611.186 -161.331)" fill="#e5b7ac"/>
    </g>
    <path id="Trazado_104464" data-name="Trazado 104464" d="M649.9,171.722c-2.533,2.9-6.029,27.382-6.029,27.382s3.034,7.941,8.6,3.27c3.606-4.034,6.388-22.974,5.861-30.513C658.339,171.861,656,163,649.9,171.722Z" transform="translate(44.356 5136.509)" fill="#e5b7ac"/>
    <g id="Grupo_59118" data-name="Grupo 59118" transform="translate(639.051 5293.395)">
      <g id="Grupo_59117" data-name="Grupo 59117">
        <g id="Grupo_59116" data-name="Grupo 59116" transform="translate(2.233)">
          <path id="Trazado_104465" data-name="Trazado 104465" d="M586.366,154.148l10.29-.078a1.131,1.131,0,0,1,1.326.894l4.291,22.069a1.531,1.531,0,0,1-1.222,1.812l-9.963-.408a1.132,1.132,0,0,1-1.326-.894l-4.736-21.908C584.907,155.023,585.753,154.268,586.366,154.148Z" transform="translate(-584.858 -154.05)" fill="#434244"/>
          <path id="Trazado_104466" data-name="Trazado 104466" d="M585.733,154.941l10.29-.078a1.131,1.131,0,0,1,1.326.894l4.29,22.069a1.131,1.131,0,0,1-.894,1.326l-10.29.078a1.13,1.13,0,0,1-1.325-.894l-4.291-22.069A1.131,1.131,0,0,1,585.733,154.941Z" transform="translate(-584.818 -154.212)" fill="#59595b"/>
          <path id="Trazado_104467" data-name="Trazado 104467" d="M592.02,164.808c.347,1.63,1.349,2.8,2.238,2.609s1.328-1.664.982-3.294-1.349-2.8-2.238-2.608S591.674,163.179,592.02,164.808Z" transform="translate(-586.27 -155.576)" fill="#6d6e70"/>
          <path id="Trazado_104468" data-name="Trazado 104468" d="M586.8,156.224l2-.01a.558.558,0,0,1,.006,1.116l-2,.01a.56.56,0,0,1-.561-.556h0A.559.559,0,0,1,586.8,156.224Z" transform="translate(-585.111 -154.493)" fill="#434244"/>
        </g>
        <path id="Trazado_104469" data-name="Trazado 104469" d="M583.081,179.6a14.088,14.088,0,0,1-.93-6.91c.239-1.9,3.72-5.394,4.274-5.933s4.483-2.528,5.074-2.055.089,1.331-1.018,2-2.609,1.537-2.721,1.629-2.1,3.206-2.1,3.206,3.029-1.265,3.7-1.452,4.193-.529,4.507-.2.274,1.055-.888,1.258a3.945,3.945,0,0,1,1.665.285c.3.213.894,1.407-2.606,1.565,0,0,1.715-.222,1.8.454s-3.724,1.09-3.724,1.09-.164,2.65-2.135,3.569l.646,3.565Z" transform="translate(-582.008 -156.22)" fill="#e5b7ac"/>
      </g>
      <path id="Trazado_104470" data-name="Trazado 104470" d="M586.061,181.149l2.042.047a77.573,77.573,0,0,0,9.166,13.621c4.014,4.947,3.995,10.249,1.991,11.759s-5.948-.256-8.061-3.967c-2.049-3.184-7.841-19.618-7.841-19.618Z" transform="translate(-582.285 -159.607)" fill="#e5b7ac"/>
    </g>
    <path id="Trazado_104471" data-name="Trazado 104471" d="M641.366,153.469l2.458,2.874-6.249,12.95-3.92-4.054S640.528,157.791,641.366,153.469Z" transform="translate(46.452 5139.464)" fill="#47286d"/>
    <path id="Trazado_104472" data-name="Trazado 104472" d="M646.363,186.8l11.749,5.11s5.637-18.149-1.189-23.494S646.958,180.245,646.363,186.8Z" transform="translate(43.846 5136.606)" fill="#bb83ff"/>
    <g id="Grupo_59119" data-name="Grupo 59119" transform="translate(661.432 5260.067)">
      <path id="Trazado_104473" data-name="Trazado 104473" d="M626.5,112.641c8.557-2.452,10.176,4.573,10.394,5.842,0,0,.3-.41,2.432.483s2.275,7.057,1.149,10c0,0-3.481,1.073-4.081,7.056a8.678,8.678,0,0,1-.416-6.173,6.854,6.854,0,0,1-3.263-4.248,20.115,20.115,0,0,1-8.529.7s3.65,1.06,5.721,1.589c0,0-7.294,1.823-10.564-.67a23.45,23.45,0,0,0,2.171,2.124,23.762,23.762,0,0,1-6.235-1.154h0a24.277,24.277,0,0,0-.056,5.99,12.647,12.647,0,0,1-1.674-6.576c-1.69-.656-3.055-1.487-3.333-2.488C609.374,122.066,617.946,115.093,626.5,112.641Z" transform="translate(-610.163 -112.126)" fill="#434244"/>
    </g>
    <g id="Grupo_59120" data-name="Grupo 59120" transform="translate(681.329 5278.18)">
      <path id="Trazado_104474" data-name="Trazado 104474" d="M645.848,135.109c-1.767.639-2.977,3.57-2.459,5.2s3.235,1.229,4.345-.921S648.668,134.089,645.848,135.109Z" transform="translate(-636.849 -134.911)" fill="#434244"/>
      <path id="Trazado_104475" data-name="Trazado 104475" d="M646.906,137.5a2.558,2.558,0,0,0-1.285,2.715c.271.849,1.69.642,2.27-.482S648.38,136.964,646.906,137.5Z" transform="translate(-637.319 -135.42)" fill="#6d6e70"/>
      <path id="Trazado_104476" data-name="Trazado 104476" d="M642.339,140.136a9.018,9.018,0,0,1-7.083,4.836l-.063.6s4.868.248,7.65-3.65Z" transform="translate(-635.193 -135.982)" fill="#434244"/>
    </g>
  </g>
</svg>
