<svg xmlns="http://www.w3.org/2000/svg" width="198" height="198" viewBox="0 0 198 198">
  <g id="Grupo_60880" data-name="Grupo 60880" transform="translate(-492 -620)">
    <g id="Grupo_59196" data-name="Grupo 59196" transform="translate(491.94 620.162)">
      <g id="Elipse_4293" data-name="Elipse 4293" transform="translate(0.06 -0.162)" fill="#fff" stroke="#47286d" stroke-width="4">
        <circle cx="99" cy="99" r="99" stroke="none"/>
        <circle cx="99" cy="99" r="97" fill="none"/>
      </g>
    </g>
    <g id="seo" transform="translate(533.333 661.333)">
      <path id="Trazado_104549" data-name="Trazado 104549" d="M111,115.334H4.337A4.337,4.337,0,0,1,0,111V4.337A4.337,4.337,0,0,1,4.337,0H111a4.338,4.338,0,0,1,4.338,4.337V111A4.338,4.338,0,0,1,111,115.334Zm0,0" transform="translate(0 0)" fill="#f2f2f2"/>
      <path id="Trazado_104550" data-name="Trazado 104550" d="M362.825,381.049a1.734,1.734,0,0,1-1.23-.509l-7.861-7.861a1.74,1.74,0,1,1,2.461-2.461l7.861,7.861a1.74,1.74,0,0,1-1.231,2.971Zm0,0" transform="translate(-273.656 -286.427)" fill="#426175"/>
      <path id="Trazado_104551" data-name="Trazado 104551" d="M449.872,0H437.406a4.338,4.338,0,0,1,4.338,4.337V111a4.338,4.338,0,0,1-4.338,4.338h12.466A4.338,4.338,0,0,0,454.209,111V4.337A4.337,4.337,0,0,0,449.872,0Zm0,0" transform="translate(-338.876 0)" fill="#cdd6df"/>
      <path id="Trazado_104552" data-name="Trazado 104552" d="M111,0H4.337A4.337,4.337,0,0,0,0,4.337V17.27H115.333V4.337A4.337,4.337,0,0,0,111,0Zm0,0" transform="translate(0 0)" fill="#426175"/>
      <path id="Trazado_104553" data-name="Trazado 104553" d="M81.071,34.089H38.686a1.74,1.74,0,1,1,0-3.48H81.072a1.74,1.74,0,1,1,0,3.48Zm0,0" transform="translate(-28.623 -23.714)" fill="#f2f2f2"/>
      <path id="Trazado_104554" data-name="Trazado 104554" d="M454.212,17.27V4.337A4.337,4.337,0,0,0,449.875,0H437.41a4.337,4.337,0,0,1,4.337,4.337V17.27Zm0,0" transform="translate(-338.879 0)" fill="#2c4456"/>
      <g id="Grupo_59198" data-name="Grupo 59198" transform="translate(82.058 6.452)">
        <path id="Trazado_104555" data-name="Trazado 104555" d="M368.647,30.825a2.183,2.183,0,1,1-2.183-2.184A2.183,2.183,0,0,1,368.647,30.825Zm0,0" transform="translate(-364.281 -28.641)" fill="#fed066"/>
        <path id="Trazado_104556" data-name="Trazado 104556" d="M415.113,30.825a2.184,2.184,0,1,1-2.184-2.184A2.184,2.184,0,0,1,415.113,30.825Zm0,0" transform="translate(-400.279 -28.641)" fill="#fed066"/>
        <path id="Trazado_104557" data-name="Trazado 104557" d="M461.578,30.825a2.184,2.184,0,1,1-2.183-2.184A2.183,2.183,0,0,1,461.578,30.825Zm0,0" transform="translate(-436.278 -28.641)" fill="#fed066"/>
      </g>
      <path id="Trazado_104558" data-name="Trazado 104558" d="M170.017,151.479a35.022,35.022,0,1,1-35.023-35.022A35.023,35.023,0,0,1,170.017,151.479Zm0,0" transform="translate(-77.452 -90.224)" fill="#47286d" opacity="0.77"/>
      <path id="Trazado_104559" data-name="Trazado 104559" d="M187.841,176.607a27.715,27.715,0,1,1-27.716-27.716A27.715,27.715,0,0,1,187.841,176.607Zm0,0" transform="translate(-102.583 -115.352)" fill="#f2f2f2"/>
      <path id="Trazado_104560" data-name="Trazado 104560" d="M253.608,157.016a27.694,27.694,0,0,0-25.831-7.41,27.717,27.717,0,0,1,0,54.014,27.716,27.716,0,0,0,25.831-46.6Zm0,0" transform="translate(-176.468 -115.358)" fill="#cdd6df"/>
      <path id="Trazado_104561" data-name="Trazado 104561" d="M401.988,414.49l-3.978,3.979a2.109,2.109,0,0,1-2.983,0l-16.249-16.25a2.108,2.108,0,0,1,0-2.982l3.978-3.979a2.109,2.109,0,0,1,2.983,0l16.249,16.249A2.109,2.109,0,0,1,401.988,414.49Zm0,0" transform="translate(-292.976 -305.744)" fill="#f5b556"/>
      <path id="Trazado_104562" data-name="Trazado 104562" d="M178.062,242.724c0-4.132-7.588-2.522-7.588-8.124,0-3.455,2.895-4.482,5.393-4.482,1.517,0,4.249.4,4.249,1.681,0,.467-.327,1.33-1.028,1.33-.63,0-1.237-.887-3.221-.887-1.7,0-2.919.654-2.919,2.125,0,3.455,7.588,1.89,7.588,8.1,0,3.338-2.241,4.972-5.323,4.972-3.035,0-5.159-1.587-5.159-2.755,0-.56.49-1.33,1.074-1.33.84,0,1.4,1.844,3.992,1.844,1.681,0,2.942-.794,2.942-2.474Zm0,0" transform="translate(-131.748 -178.281)" fill="#f17781"/>
      <path id="Trazado_104563" data-name="Trazado 104563" d="M234.818,237.969h3.595a.9.9,0,0,1,.817,1,.873.873,0,0,1-.817.957h-3.595V245.3h6.934c.513,0,.817.514.817,1.121,0,.513-.257,1.073-.817,1.073h-8.311c-.538,0-1.1-.28-1.1-.817V231.246c0-.537.56-.817,1.1-.817h8.311c.56,0,.817.56.817,1.074,0,.607-.3,1.121-.817,1.121h-6.934Zm0,0" transform="translate(-180.006 -178.523)" fill="#f17781"/>
      <path id="Trazado_104564" data-name="Trazado 104564" d="M290.281,242.428v-6.793c0-3.782,2.264-5.206,5.229-5.206,2.942,0,5.252,1.424,5.252,5.206v6.793c0,3.782-2.311,5.207-5.252,5.207C292.545,247.634,290.281,246.21,290.281,242.428Zm8.007-6.793c0-2.055-1.051-3.011-2.779-3.011-1.75,0-2.754.956-2.754,3.011v6.793c0,2.055,1,3.012,2.754,3.012,1.728,0,2.779-.957,2.779-3.012Zm0,0" transform="translate(-224.892 -178.523)" fill="#f17781"/>
      <path id="Trazado_104565" data-name="Trazado 104565" d="M368.647,30.825a2.183,2.183,0,1,1-2.183-2.184A2.183,2.183,0,0,1,368.647,30.825Zm0,0" transform="translate(-282.223 -22.189)" fill="#46d1c0"/>
      <path id="Trazado_104566" data-name="Trazado 104566" d="M415.113,30.825a2.184,2.184,0,1,1-2.184-2.184A2.184,2.184,0,0,1,415.113,30.825Zm0,0" transform="translate(-318.221 -22.189)" fill="#46d1c0"/>
      <path id="Trazado_104567" data-name="Trazado 104567" d="M461.578,30.825a2.184,2.184,0,1,1-2.183-2.184A2.183,2.183,0,0,1,461.578,30.825Zm0,0" transform="translate(-354.22 -22.189)" fill="#46d1c0"/>
    </g>
  </g>
</svg>
