<svg xmlns="http://www.w3.org/2000/svg" width="177" height="177" viewBox="0 0 177 177">
  <g id="Grupo_60881" data-name="Grupo 60881" transform="translate(-774 -1187)">
    <g id="Elipse_3954" data-name="Elipse 3954" transform="translate(774 1187)" fill="#bb83ff" stroke="#707070" stroke-width="1" opacity="0.15">
      <circle cx="88.5" cy="88.5" r="88.5" stroke="none"/>
      <circle cx="88.5" cy="88.5" r="88" fill="none"/>
    </g>
    <g id="habilidad" transform="translate(795.034 1208.437)">
      <path id="Trazado_102670" data-name="Trazado 102670" d="M177.743,225.406a4.774,4.774,0,0,0,4.774,4.774h31.441a4.774,4.774,0,0,0,4.774-4.774V202.612a5.416,5.416,0,0,0-5.416-5.416H195.832a4.166,4.166,0,0,0-2.818,1.1,4.166,4.166,0,0,1-5.429.179l-.446-.358a4.166,4.166,0,0,0-2.61-.919H183.16a5.416,5.416,0,0,0-5.416,5.416v22.794Z" transform="translate(-130.778 -145.537)" fill="#738b95"/>
      <g id="Grupo_56627" data-name="Grupo 56627" transform="translate(77.394 51.659)">
        <path id="Trazado_102671" data-name="Trazado 102671" d="M304.46,202.612a5.416,5.416,0,0,0-5.416-5.416H293.9a5.416,5.416,0,0,1,5.416,5.416v22.794a4.774,4.774,0,0,1-4.774,4.774h5.143a4.774,4.774,0,0,0,4.774-4.774V202.612Z" transform="translate(-293.9 -197.196)" fill="#617881"/>
      </g>
      <path id="Trazado_102672" data-name="Trazado 102672" d="M236.342,357.005h10.287v18.863H236.342Z" transform="translate(-174.026 -263.482)" fill="#e2a770"/>
      <path id="Trazado_102673" data-name="Trazado 102673" d="M211.89,437.862H169.482a1.971,1.971,0,0,1-1.971-1.971V430.1a18.554,18.554,0,0,1,18.554-18.554h9.242A18.554,18.554,0,0,1,213.861,430.1v5.791A1.971,1.971,0,0,1,211.89,437.862Z" transform="translate(-123.226 -303.735)" fill="#b3e59f"/>
      <path id="Trazado_102674" data-name="Trazado 102674" d="M259.125,411.547h-5.143A18.554,18.554,0,0,1,272.536,430.1v7.761h3.173a1.971,1.971,0,0,0,1.971-1.971V430.1A18.554,18.554,0,0,0,259.125,411.547Z" transform="translate(-187.045 -303.735)" fill="#95d6a4"/>
      <path id="Trazado_102675" data-name="Trazado 102675" d="M231.319,278.048a13.568,13.568,0,1,1-27.136,0v-16.9a.45.45,0,0,1,.713-.365c4.589,3.3,12.623,2.719,15.878.436a.451.451,0,0,1,.481-.023c2.745,1.557,6.558,2.037,9.326-.272a.45.45,0,0,1,.738.346Z" transform="translate(-150.292 -192.405)" fill="#f1d0a5"/>
      <g id="Grupo_56628" data-name="Grupo 56628" transform="translate(65.314 68.416)">
        <path id="Trazado_102676" data-name="Trazado 102676" d="M259.207,262.792v15.6a13.571,13.571,0,0,1-11.422,13.4,13.569,13.569,0,0,0,15.714-13.4V261.614a.45.45,0,0,0-.738-.346A6.792,6.792,0,0,1,259.207,262.792Z" transform="translate(-247.785 -261.164)" fill="#f1b986"/>
      </g>
      <path id="Trazado_102677" data-name="Trazado 102677" d="M245.741,93.751l-3.235-2.887a2.023,2.023,0,0,0-2.7,0l-3.235,2.887a2.023,2.023,0,0,0,2.558,3.13v7.671a2.024,2.024,0,0,0,4.048,0v-7.67a2.024,2.024,0,0,0,2.559-3.131Z" transform="translate(-173.699 -66.681)" fill="#617881"/>
      <path id="Trazado_102678" data-name="Trazado 102678" d="M231.329,0h-8.256a1.958,1.958,0,0,0-1.7.979l-4.128,7.15a1.958,1.958,0,0,0,0,1.958l4.128,7.15a1.958,1.958,0,0,0,1.7.979h8.256a1.958,1.958,0,0,0,1.7-.979l4.128-7.15a1.958,1.958,0,0,0,0-1.958L233.025.979a1.958,1.958,0,0,0-1.7-.979Z" transform="translate(-159.742)" fill="#dd636e"/>
      <path id="Trazado_102679" data-name="Trazado 102679" d="M260.071,8.129,255.942.979a1.958,1.958,0,0,0-1.7-.979H248.04a1.958,1.958,0,0,1,1.7.979l4.128,7.15a1.958,1.958,0,0,1,0,1.958l-4.128,7.15a1.958,1.958,0,0,1-1.7.979h6.207a1.958,1.958,0,0,0,1.7-.979l4.128-7.15a1.958,1.958,0,0,0,0-1.958Z" transform="translate(-182.66)" fill="#da4a54"/>
      <path id="Trazado_102680" data-name="Trazado 102680" d="M148.346,144.974l-5.424-5.424a2.024,2.024,0,0,0-.4-4.023l-4.329.246a2.025,2.025,0,0,0-1.906,1.906l-.246,4.329a2.024,2.024,0,0,0,1.906,2.136c.039,0,.078,0,.117,0a2.024,2.024,0,0,0,2-1.734l5.424,5.424a2.024,2.024,0,0,0,2.863-2.863Z" transform="translate(-99.995 -100.021)" fill="#617881"/>
      <path id="Trazado_102681" data-name="Trazado 102681" d="M68.429,62.08l-5.838,5.838a1.958,1.958,0,0,0-.507,1.891l2.137,7.975a1.958,1.958,0,0,0,1.384,1.384L73.581,81.3a1.958,1.958,0,0,0,1.891-.507l5.838-5.838a1.958,1.958,0,0,0,.507-1.891l-2.137-7.975a1.958,1.958,0,0,0-1.384-1.384L70.32,61.574A1.957,1.957,0,0,0,68.429,62.08Z" transform="translate(-45.369 -45.394)" fill="#b3e59f"/>
      <path id="Trazado_102682" data-name="Trazado 102682" d="M83.992,63.71l-7.975-2.137a1.957,1.957,0,0,0-1.891.507l-4.389,4.389a1.958,1.958,0,0,1,1.891-.507L79.6,68.1a1.958,1.958,0,0,1,1.384,1.385l2.137,7.975a1.959,1.959,0,0,1-.507,1.891l4.389-4.389a1.958,1.958,0,0,0,.507-1.891l-2.137-7.975A1.959,1.959,0,0,0,83.992,63.71Z" transform="translate(-51.067 -45.394)" fill="#95d6a4"/>
      <path id="Trazado_102683" data-name="Trazado 102683" d="M105.1,238.639H97.427a2.023,2.023,0,0,0-3.13-2.559l-2.887,3.235a2.024,2.024,0,0,0,0,2.7l2.887,3.235a2.023,2.023,0,0,0,3.131-2.558H105.1a2.024,2.024,0,0,0,0-4.048Z" transform="translate(-66.682 -173.736)" fill="#617881"/>
      <path id="Trazado_102684" data-name="Trazado 102684" d="M.545,222.576v8.256a1.958,1.958,0,0,0,.979,1.7l7.15,4.128a1.958,1.958,0,0,0,1.958,0l7.15-4.128a1.958,1.958,0,0,0,.979-1.7v-8.256a1.958,1.958,0,0,0-.979-1.7l-7.15-4.128a1.958,1.958,0,0,0-1.958,0l-7.15,4.128a1.958,1.958,0,0,0-.979,1.7Z" transform="translate(0 -159.777)" fill="#f9ef63"/>
      <path id="Trazado_102685" data-name="Trazado 102685" d="M8.674,216.752l-7.15,4.128a1.958,1.958,0,0,0-.979,1.7v6.207a1.958,1.958,0,0,1,.979-1.7l7.15-4.128a1.958,1.958,0,0,1,1.958,0l7.15,4.128a1.958,1.958,0,0,1,.979,1.7v-6.207a1.958,1.958,0,0,0-.979-1.7l-7.15-4.128a1.958,1.958,0,0,0-1.958,0Z" transform="translate(0 -159.777)" fill="#f6e738"/>
      <path id="Trazado_102686" data-name="Trazado 102686" d="M339.571,141.974l-.246-4.329a2.025,2.025,0,0,0-1.906-1.906l-4.329-.246a2.024,2.024,0,0,0-.4,4.023l-5.424,5.424a2.024,2.024,0,0,0,2.863,2.863l5.424-5.424a2.024,2.024,0,0,0,2,1.734q.058,0,.117,0a2.024,2.024,0,0,0,1.906-2.136Z" transform="translate(-240.69 -99.996)" fill="#617881"/>
      <path id="Trazado_102687" data-name="Trazado 102687" d="M393.41,67.884l-5.838-5.838a1.958,1.958,0,0,0-1.891-.507l-7.975,2.137a1.958,1.958,0,0,0-1.384,1.384l-2.137,7.975a1.958,1.958,0,0,0,.507,1.891l5.838,5.838a1.958,1.958,0,0,0,1.891.507l7.975-2.137a1.958,1.958,0,0,0,1.384-1.384l2.137-7.975A1.957,1.957,0,0,0,393.41,67.884Z" transform="translate(-275.709 -45.369)" fill="#9dc6fb"/>
      <path id="Trazado_102688" data-name="Trazado 102688" d="M397.476,83.447l2.137-7.975a1.957,1.957,0,0,0-.507-1.891l-4.389-4.389a1.959,1.959,0,0,1,.507,1.891l-2.137,7.975a1.958,1.958,0,0,1-1.385,1.384l-7.975,2.137a1.958,1.958,0,0,1-1.891-.507l4.389,4.389a1.958,1.958,0,0,0,1.891.507l7.975-2.137A1.958,1.958,0,0,0,397.476,83.447Z" transform="translate(-281.406 -51.066)" fill="#80b4fb"/>
      <path id="Trazado_102689" data-name="Trazado 102689" d="M374.877,239.267l-2.887-3.235a2.023,2.023,0,0,0-3.13,2.558h-7.671a2.024,2.024,0,0,0,0,4.048h7.671a2.023,2.023,0,0,0,3.13,2.559l2.887-3.235A2.023,2.023,0,0,0,374.877,239.267Z" transform="translate(-264.673 -173.7)" fill="#617881"/>
      <path id="Trazado_102690" data-name="Trazado 102690" d="M460.138,230.784v-8.256a1.958,1.958,0,0,0-.979-1.7l-7.15-4.128a1.958,1.958,0,0,0-1.958,0l-7.15,4.128a1.958,1.958,0,0,0-.979,1.7v8.256a1.958,1.958,0,0,0,.979,1.7l7.15,4.128a1.958,1.958,0,0,0,1.958,0l7.15-4.128A1.959,1.959,0,0,0,460.138,230.784Z" transform="translate(-325.752 -159.742)" fill="#b3e59f"/>
      <path id="Trazado_102691" data-name="Trazado 102691" d="M452.009,259.526l7.15-4.128a1.958,1.958,0,0,0,.979-1.7V247.5a1.958,1.958,0,0,1-.979,1.7l-7.15,4.128a1.958,1.958,0,0,1-1.958,0l-7.15-4.128a1.958,1.958,0,0,1-.979-1.7V253.7a1.958,1.958,0,0,0,.979,1.7l7.15,4.128A1.958,1.958,0,0,0,452.009,259.526Z" transform="translate(-325.751 -182.66)" fill="#95d6a4"/>
    </g>
  </g>
</svg>
