<svg xmlns="http://www.w3.org/2000/svg" width="177" height="177" viewBox="0 0 177 177">
  <g id="Grupo_60882" data-name="Grupo 60882" transform="translate(-1023 -1187)">
    <g id="Elipse_3955" data-name="Elipse 3955" transform="translate(1023 1187)" fill="#bb83ff" stroke="#707070" stroke-width="1" opacity="0.15">
      <circle cx="88.5" cy="88.5" r="88.5" stroke="none"/>
      <circle cx="88.5" cy="88.5" r="88" fill="none"/>
    </g>
    <g id="desintoxicacion" transform="translate(1041.151 1202.541)">
      <g id="Grupo_56630" data-name="Grupo 56630" transform="translate(7.57 11.476)">
        <g id="Grupo_56629" data-name="Grupo 56629">
          <path id="Trazado_102692" data-name="Trazado 102692" d="M132.441,67.191h-6.123a59.209,59.209,0,1,0-64.771,62.431,3.489,3.489,0,1,0,.668-6.946,52.229,52.229,0,1,1,57.108-55.485H113.17a1.114,1.114,0,0,0-.886,1.789l9.635,12.646a1.114,1.114,0,0,0,1.772,0l9.635-12.646A1.113,1.113,0,0,0,132.441,67.191Z" transform="translate(-8 -11.476)" fill="#bb83ff"/>
        </g>
      </g>
      <g id="Grupo_56655" data-name="Grupo 56655" transform="translate(35.706 40.281)">
        <g id="Grupo_56632" data-name="Grupo 56632" transform="translate(4.563 16.955)">
          <g id="Grupo_56631" data-name="Grupo 56631">
            <path id="Trazado_102693" data-name="Trazado 102693" d="M100.583,143.614A30.08,30.08,0,0,1,70.5,113.535V103.9a4.959,4.959,0,0,1,4.958-4.958h55.2v14.59A30.08,30.08,0,0,1,100.583,143.614Z" transform="translate(-70.504 -98.945)" fill="#4671c6"/>
          </g>
        </g>
        <g id="Grupo_56634" data-name="Grupo 56634" transform="translate(3.517 15.908)">
          <g id="Grupo_56633" data-name="Grupo 56633">
            <path id="Trazado_102694" data-name="Trazado 102694" d="M99.63,143.706A31.161,31.161,0,0,1,68.5,112.581v-9.631a6.012,6.012,0,0,1,6-6.005h55.2a1.047,1.047,0,0,1,1.046,1.046v14.59A31.16,31.16,0,0,1,99.63,143.706ZM74.509,99.037a3.916,3.916,0,0,0-3.912,3.913v9.631a29.033,29.033,0,1,0,58.066,0V99.037Z" transform="translate(-68.504 -96.944)" fill="#3762cc"/>
          </g>
        </g>
        <g id="Grupo_56636" data-name="Grupo 56636" transform="translate(2.501 71.576)">
          <g id="Grupo_56635" data-name="Grupo 56635">
            <path id="Trazado_102695" data-name="Trazado 102695" d="M130.845,224.891v-9.635a11.9,11.9,0,0,0-11.9-11.9H78.465a11.9,11.9,0,0,0-11.9,11.9v9.635Z" transform="translate(-66.561 -203.352)" fill="#6bdddd"/>
          </g>
        </g>
        <g id="Grupo_56638" data-name="Grupo 56638" transform="translate(22.74 66.947)">
          <g id="Grupo_56637" data-name="Grupo 56637">
            <path id="Trazado_102696" data-name="Trazado 102696" d="M117.15,197.412a25.663,25.663,0,0,1-11.9-2.909v5.583a11.892,11.892,0,0,0,23.784,0v-5.571A25.668,25.668,0,0,1,117.15,197.412Z" transform="translate(-105.247 -194.503)" fill="#f9cfcf"/>
          </g>
        </g>
        <g id="Grupo_56640" data-name="Grupo 56640" transform="translate(1.046 7.031)">
          <g id="Grupo_56639" data-name="Grupo 56639">
            <path id="Trazado_102697" data-name="Trazado 102697" d="M123,107.762v-2.4a25.62,25.62,0,0,0-51.238,0v2.4a7.747,7.747,0,1,0,.677,15.437,25.67,25.67,0,0,0,49.884,0A7.747,7.747,0,1,0,123,107.762Z" transform="translate(-63.781 -79.975)" fill="#f9cfcf"/>
          </g>
        </g>
        <g id="Grupo_56642" data-name="Grupo 56642" transform="translate(44.705 37.901)">
          <g id="Grupo_56641" data-name="Grupo 56641">
            <path id="Trazado_102698" data-name="Trazado 102698" d="M150.472,148.912a3.238,3.238,0,0,1-3.238-3.238v-3.454a3.238,3.238,0,1,1,6.476,0v3.454A3.237,3.237,0,0,1,150.472,148.912Z" transform="translate(-147.234 -138.983)" fill="#3762cc"/>
          </g>
        </g>
        <g id="Grupo_56644" data-name="Grupo 56644" transform="translate(18.098 37.901)">
          <g id="Grupo_56643" data-name="Grupo 56643">
            <path id="Trazado_102699" data-name="Trazado 102699" d="M99.613,148.912a3.238,3.238,0,0,1-3.238-3.238v-3.454a3.238,3.238,0,0,1,6.476,0v3.454A3.237,3.237,0,0,1,99.613,148.912Z" transform="translate(-96.375 -138.983)" fill="#3762cc"/>
          </g>
        </g>
        <g id="Grupo_56646" data-name="Grupo 56646" transform="translate(0 5.984)">
          <g id="Grupo_56645" data-name="Grupo 56645">
            <path id="Trazado_102700" data-name="Trazado 102700" d="M96.424,142.892a26.5,26.5,0,0,1-25.746-19.557H70.65a8.916,8.916,0,0,1-5.96-2.277A8.78,8.78,0,0,1,69.759,105.8v-1.393a26.666,26.666,0,0,1,53.331,0V105.8a8.8,8.8,0,0,1,5.342,2.487,8.745,8.745,0,0,1-.273,12.769,8.918,8.918,0,0,1-5.96,2.278h-.029a26.5,26.5,0,0,1-25.746,19.557ZM71.482,121.2a1.046,1.046,0,0,1,1.018.807,24.623,24.623,0,0,0,47.847,0,1.052,1.052,0,0,1,1.128-.8,6.825,6.825,0,0,0,5.283-1.7,6.694,6.694,0,0,0-4.7-11.649,1.089,1.089,0,0,1-.753-.3,1.045,1.045,0,0,1-.314-.748v-2.4a24.574,24.574,0,0,0-49.145,0v2.4a1.047,1.047,0,0,1-.314.748,1.092,1.092,0,0,1-.753.3,6.78,6.78,0,0,0-4.9,1.929,6.652,6.652,0,0,0,.209,9.72,6.824,6.824,0,0,0,5.282,1.7c.038,0,.075-.006.111-.006Z" transform="translate(-61.781 -77.975)" fill="#3762cc"/>
          </g>
        </g>
        <g id="Grupo_56648" data-name="Grupo 56648" transform="translate(1.455 65.9)">
          <g id="Grupo_56647" data-name="Grupo 56647">
            <path id="Trazado_102701" data-name="Trazado 102701" d="M129.892,220.764H65.608a1.047,1.047,0,0,1-1.046-1.046v-9.635a12.966,12.966,0,0,1,12.951-12.951H84.8v-3.583a1.046,1.046,0,0,1,1.53-.928,24.766,24.766,0,0,0,22.817.012,1.046,1.046,0,0,1,1.529.928v3.57h7.311a12.966,12.966,0,0,1,12.951,12.951v9.635A1.048,1.048,0,0,1,129.892,220.764Zm-63.237-2.093h62.191v-8.589a10.871,10.871,0,0,0-10.858-10.858H109.63a1.047,1.047,0,0,1-1.046-1.046v-2.954a26.871,26.871,0,0,1-21.691-.011v2.965a1.047,1.047,0,0,1-1.046,1.046H77.513a10.871,10.871,0,0,0-10.858,10.858Z" transform="translate(-64.562 -192.502)" fill="#3762cc"/>
          </g>
        </g>
        <g id="Grupo_56650" data-name="Grupo 56650" transform="translate(9.397 1.046)">
          <g id="Grupo_56649" data-name="Grupo 56649">
            <path id="Trazado_102702" data-name="Trazado 102702" d="M122.216,94.982H92.966a13.223,13.223,0,1,1,0-26.446h42.357v13.34A13.106,13.106,0,0,1,122.216,94.982Z" transform="translate(-79.743 -68.536)" fill="#4671c6"/>
          </g>
        </g>
        <g id="Grupo_56652" data-name="Grupo 56652" transform="translate(8.351)">
          <g id="Grupo_56651" data-name="Grupo 56651">
            <path id="Trazado_102703" data-name="Trazado 102703" d="M121.263,95.074H92.012a14.269,14.269,0,0,1,0-28.538h42.356a1.047,1.047,0,0,1,1.046,1.046v13.34A14.168,14.168,0,0,1,121.263,95.074ZM92.012,68.628a12.176,12.176,0,1,0,0,24.353h29.251a12.073,12.073,0,0,0,12.06-12.06V68.628Z" transform="translate(-77.743 -66.536)" fill="#3762cc"/>
          </g>
        </g>
        <g id="Grupo_56654" data-name="Grupo 56654" transform="translate(28.143 53.907)">
          <g id="Grupo_56653" data-name="Grupo 56653">
            <path id="Trazado_102704" data-name="Trazado 102704" d="M122.064,173.741a9.328,9.328,0,0,1-2.743-.37,8.183,8.183,0,0,1-3.441-2.009,1.046,1.046,0,1,1,1.486-1.473,6.1,6.1,0,0,0,2.564,1.481,8.309,8.309,0,0,0,4.269,0,6.1,6.1,0,0,0,2.565-1.482,1.047,1.047,0,1,1,1.486,1.474,8.191,8.191,0,0,1-3.441,2.009A9.33,9.33,0,0,1,122.064,173.741Z" transform="translate(-115.576 -169.579)" fill="#3762cc"/>
          </g>
        </g>
      </g>
      <g id="Grupo_56668" data-name="Grupo 56668" transform="translate(7.099 86.536)">
        <g id="Grupo_56657" data-name="Grupo 56657" transform="translate(97.422 1.046)">
          <g id="Grupo_56656" data-name="Grupo 56656">
            <circle id="Elipse_3956" data-name="Elipse 3956" cx="14.016" cy="14.016" r="14.016" fill="#b3e59f"/>
          </g>
        </g>
        <g id="Grupo_56659" data-name="Grupo 56659" transform="translate(1.046 1.046)">
          <g id="Grupo_56658" data-name="Grupo 56658">
            <circle id="Elipse_3957" data-name="Elipse 3957" cx="14.016" cy="14.016" r="14.016" fill="#da4a54"/>
          </g>
        </g>
        <g id="Grupo_56661" data-name="Grupo 56661" transform="translate(6.749 12.623)">
          <g id="Grupo_56660" data-name="Grupo 56660">
            <path id="Trazado_102705" data-name="Trazado 102705" d="M35.695,184.572H20.523a.523.523,0,0,1-.523-.523V179.6a.523.523,0,0,1,.523-.523H35.695a.523.523,0,0,1,.523.523v4.447A.523.523,0,0,1,35.695,184.572Z" transform="translate(-20 -179.079)" fill="#fff"/>
          </g>
        </g>
        <g id="Grupo_56663" data-name="Grupo 56663" transform="translate(103.329 7.26)">
          <g id="Grupo_56662" data-name="Grupo 56662">
            <path id="Trazado_102706" data-name="Trazado 102706" d="M220.3,174.191h-4.839v-4.839a.523.523,0,0,0-.523-.523H210.5a.523.523,0,0,0-.523.523v4.839h-4.839a.523.523,0,0,0-.523.523v4.447a.523.523,0,0,0,.523.523h4.839v4.839a.523.523,0,0,0,.523.523h4.447a.523.523,0,0,0,.523-.523v-4.839H220.3a.523.523,0,0,0,.523-.523v-4.447A.523.523,0,0,0,220.3,174.191Z" transform="translate(-204.61 -168.829)" fill="#fff"/>
          </g>
        </g>
        <g id="Grupo_56665" data-name="Grupo 56665" transform="translate(96.375)">
          <g id="Grupo_56664" data-name="Grupo 56664">
            <path id="Trazado_102707" data-name="Trazado 102707" d="M206.38,185.075a15.062,15.062,0,1,1,15.062-15.062A15.079,15.079,0,0,1,206.38,185.075Zm0-28.031a12.969,12.969,0,1,0,12.97,12.97,12.984,12.984,0,0,0-12.97-12.97Z" transform="translate(-191.318 -154.951)" fill="#3762cc"/>
          </g>
        </g>
        <g id="Grupo_56667" data-name="Grupo 56667">
          <g id="Grupo_56666" data-name="Grupo 56666">
            <path id="Trazado_102708" data-name="Trazado 102708" d="M22.161,185.075a15.062,15.062,0,1,1,15.062-15.062A15.079,15.079,0,0,1,22.161,185.075Zm0-28.031a12.969,12.969,0,1,0,12.97,12.97,12.984,12.984,0,0,0-12.97-12.97Z" transform="translate(-7.099 -154.951)" fill="#3762cc"/>
          </g>
        </g>
      </g>
    </g>
  </g>
</svg>
