<svg xmlns="http://www.w3.org/2000/svg" width="177" height="177" viewBox="0 0 177 177">
  <g id="Grupo_60884" data-name="Grupo 60884" transform="translate(-774 -2103)">
    <g id="Elipse_3959" data-name="Elipse 3959" transform="translate(774 2103)" fill="#bb83ff" stroke="#707070" stroke-width="1" opacity="0.15">
      <circle cx="88.5" cy="88.5" r="88.5" stroke="none"/>
      <circle cx="88.5" cy="88.5" r="88" fill="none"/>
    </g>
    <g id="administracion_1_" data-name="administracion (1)" transform="translate(814 2143)">
      <path id="Trazado_102724" data-name="Trazado 102724" d="M15,50H38.032v6.581H15Z" transform="translate(9.032 31.613)" fill="#aab2bd"/>
      <path id="Trazado_102725" data-name="Trazado 102725" d="M48.036,55.448a4.924,4.924,0,0,1,1.448,3.488,1.65,1.65,0,0,1-1.645,1.645H11.645A1.65,1.65,0,0,1,10,58.935,4.929,4.929,0,0,1,14.935,54H44.548A4.924,4.924,0,0,1,48.036,55.448Z" transform="translate(5.806 34.194)" fill="#aab2bd"/>
      <path id="Trazado_102726" data-name="Trazado 102726" d="M61.226,68.065H8.581A6.581,6.581,0,0,1,2,61.484v-32.9A6.581,6.581,0,0,1,8.581,22H61.226a6.581,6.581,0,0,1,6.581,6.581v32.9A6.581,6.581,0,0,1,61.226,68.065Z" transform="translate(0.645 13.548)" fill="#ccd1d9"/>
      <circle id="Elipse_3961" data-name="Elipse 3961" cx="13" cy="13" r="13" transform="translate(3 3)" fill="#ffeaa7"/>
      <path id="Trazado_102727" data-name="Trazado 102727" d="M13.587,12a9.859,9.859,0,0,1,9.147,6.169,13.153,13.153,0,0,1-18.294,0A9.859,9.859,0,0,1,13.587,12Z" transform="translate(2.219 7.097)" fill="#ff826e"/>
      <path id="Trazado_102728" data-name="Trazado 102728" d="M57,58.9H7.645A1.646,1.646,0,0,1,6,57.258V27.645A1.646,1.646,0,0,1,7.645,26H57a1.646,1.646,0,0,1,1.645,1.645V57.258A1.646,1.646,0,0,1,57,58.9Z" transform="translate(3.226 16.129)" fill="#69d6f4"/>
      <circle id="Elipse_3962" data-name="Elipse 3962" cx="13" cy="13" r="13" transform="translate(29 29)" fill="#ffeaa7"/>
      <path id="Trazado_102729" data-name="Trazado 102729" d="M29.587,28a9.859,9.859,0,0,1,9.147,6.169,13.153,13.153,0,0,1-18.294,0A9.859,9.859,0,0,1,29.587,28Z" transform="translate(12.542 17.419)" fill="#ff826e"/>
      <circle id="Elipse_3963" data-name="Elipse 3963" cx="5" cy="5" r="5" transform="translate(11 9)" fill="#f0d0b4"/>
      <ellipse id="Elipse_3964" data-name="Elipse 3964" cx="5" cy="4.5" rx="5" ry="4.5" transform="translate(37 36)" fill="#f0d0b4"/>
      <path id="Trazado_102730" data-name="Trazado 102730" d="M73.194,16.806v6.581l-3.948,1.086a15.522,15.522,0,0,1-1.053,2.534l2.024,3.554L65.56,35.216l-3.554-2.024A31.639,31.639,0,0,1,58.387,34.9V28.323a2.74,2.74,0,0,0-.066-.642v-.016a8.226,8.226,0,1,0-6.449,0,2.882,2.882,0,0,0-.066.658V34.9a31.64,31.64,0,0,1-3.619-1.711l-3.554,2.024-.313-.313L39.978,30.56,42,27.006a15.522,15.522,0,0,1-1.053-2.534L37,23.387V16.806l3.948-1.086A15.521,15.521,0,0,1,42,13.187L39.978,9.634l4.656-4.656L48.187,7a15.521,15.521,0,0,1,2.534-1.053L51.806,2h6.581l1.086,3.948A15.521,15.521,0,0,1,62.006,7L65.56,4.978l4.656,4.656-2.024,3.554a15.52,15.52,0,0,1,1.053,2.534Z" transform="translate(23.226 0.645)" fill="#ffc729"/>
      <path id="Trazado_102731" data-name="Trazado 102731" d="M73.9,54V67.161H41V54H73.9Z" transform="translate(25.806 34.194)" fill="#b4dd7f"/>
      <path id="Trazado_102732" data-name="Trazado 102732" d="M72.194,42.323a3.3,3.3,0,0,1,3.29-3.29,3.314,3.314,0,0,1,3.29,3.29V63.71A9.858,9.858,0,0,1,76.8,69.632l-2.961,3.948v4.935H47.516V73.581L45.048,68.5l-3.126-6.433A9.793,9.793,0,0,1,40.689,58.4l-1.135-9.114a6.093,6.093,0,0,0-.263-1.234,8.131,8.131,0,0,0-1.168-2.616l-1.695-2.55a2.461,2.461,0,0,1-.428-1.4,2.521,2.521,0,0,1,2.534-2.517c.263,0,.51.016.757.033a8.949,8.949,0,0,1,6.367,3.488A8.761,8.761,0,0,1,47.3,46.156l1.859,9.262h1.645l.954-1.908a6.513,6.513,0,0,0,.691-2.945V19.29a2.882,2.882,0,0,1,.066-.658A3.313,3.313,0,0,1,55.742,16a3.217,3.217,0,0,1,2.32.971,3.184,3.184,0,0,1,.9,1.662v.016a2.74,2.74,0,0,1,.066.642V39.032a3.3,3.3,0,0,1,3.29-3.29,3.314,3.314,0,0,1,3.29,3.29,3.3,3.3,0,0,1,3.29-3.29,3.314,3.314,0,0,1,3.29,3.29Z" transform="translate(22.581 9.677)" fill="#f0d0b4"/>
      <path id="Trazado_102733" data-name="Trazado 102733" d="M100.7,80.3a11.578,11.578,0,0,0,2.3-6.91V52a4.919,4.919,0,0,0-6.771-4.574,4.892,4.892,0,0,0-8.035-2.369,4.784,4.784,0,0,0-4.935-.981V36.656c.6-.268,1.262-.6,1.94-.948l3.873,2.208L95.5,31.486,93.275,27.6c.171-.372.329-.749.471-1.127l4.319-1.181V16.2l-4.319-1.181c-.141-.378-.3-.755-.471-1.127L95.5,10,89.07,3.568,85.176,5.789c-.373-.171-.749-.329-1.125-.471L82.87,1H73.777L72.6,5.319c-.377.141-.753.3-1.127.471L67.576,3.568,61.149,10l2.223,3.891c-.171.372-.329.749-.471,1.127L58.581,16.2v2.9H48.71a4.942,4.942,0,0,0-4.935,4.935V27.42a13.991,13.991,0,0,0-3.29,0V19.1a4.942,4.942,0,0,0-4.935-4.935H30.516a14.806,14.806,0,1,0,0,3.29h5.033A1.647,1.647,0,0,1,37.194,19.1v9.09A14.868,14.868,0,0,0,29.827,33.9H9.226A8.235,8.235,0,0,0,1,42.129v32.9a8.235,8.235,0,0,0,8.226,8.226H22.387v3.29H20.742a6.587,6.587,0,0,0-6.581,6.581,3.294,3.294,0,0,0,3.29,3.29H53.645a3.294,3.294,0,0,0,3.29-3.29,6.587,6.587,0,0,0-6.581-6.581H48.71v-3.29H61.871a8.146,8.146,0,0,0,5.391-2.066l1.189,2.445v2.912h-3.29V103h36.194V86.548h-3.29V83.806ZM8.7,24.848a8.209,8.209,0,0,1,14.221,0,11.454,11.454,0,0,1-14.221,0Zm3.82-10.687a3.29,3.29,0,1,1,3.29,3.29,3.294,3.294,0,0,1-3.29-3.29ZM25.232,22.4a11.422,11.422,0,0,0-4.546-3.868,6.581,6.581,0,1,0-9.759,0A11.422,11.422,0,0,0,6.381,22.4a11.516,11.516,0,1,1,18.85,0Zm32.4,31.075,1.693,2.54a7.323,7.323,0,0,1,.9,1.923V73.387H10.871V43.774H27.42a14.8,14.8,0,0,0,29.419,0h3.387v3.318a4.167,4.167,0,0,0-2.589,6.387Zm-18.8-13a3.29,3.29,0,1,1,3.29,3.29A3.294,3.294,0,0,1,38.839,40.484Zm3.29,6.581a8.182,8.182,0,0,1,7.11,4.106,11.454,11.454,0,0,1-14.221,0,8.182,8.182,0,0,1,7.11-4.106Zm18.1-6.581H56.838a14.7,14.7,0,0,0-.767-3.29h5.8a4.942,4.942,0,0,1,4.935,4.935V48.7a10.539,10.539,0,0,0-3.29-1.4V43.774a3.294,3.294,0,0,0-3.29-3.29Zm8.323-3.123,2.9-1.653c.66.342,1.334.675,1.94.948V60.249a4.934,4.934,0,0,1-.5,2.17l-1.38-6.9A10.552,10.552,0,0,0,70.1,52h0V42.129a8.156,8.156,0,0,0-1.548-4.768ZM74.4,26.006a6.58,6.58,0,1,1,7.847,0,4.885,4.885,0,0,0-7.847,0Zm-12.528-7.3,3.608-.987.265-.864a13.174,13.174,0,0,1,.941-2.252l.424-.8L65.25,10.549l2.877-2.879,3.256,1.857.8-.423a12.953,12.953,0,0,1,2.254-.939L75.3,7.9l.99-3.608h4.068L81.346,7.9l.862.267a13.171,13.171,0,0,1,2.256.941l.8.421,3.256-1.857L91.4,10.549,89.536,13.8l.424.8a13.042,13.042,0,0,1,.941,2.252l.265.864,3.608.987v4.07l-3.608.987-.265.864a13.174,13.174,0,0,1-.941,2.252l-.424.8L91.4,30.935l-2.877,2.879-3.256-1.857-.8.421c-.443.234-.842.441-1.2.625V29.275a9.871,9.871,0,1,0-9.871,0V33c-.35-.178-.742-.38-1.2-.624l-.8-.423-3.256,1.857-2.877-2.879,1.859-3.256-.424-.8a13.043,13.043,0,0,1-.941-2.252l-.265-.864-3.611-.987ZM47.065,24.032a1.647,1.647,0,0,1,1.645-1.645h9.871v2.9L62.9,26.469c.141.378.3.755.471,1.127l-2.223,3.891,2.677,2.677a8.135,8.135,0,0,0-1.953-.26H54.432a14.868,14.868,0,0,0-7.367-5.717Zm-4.935,6.581a11.5,11.5,0,0,1,9.425,18.113,11.422,11.422,0,0,0-4.546-3.868,6.581,6.581,0,1,0-9.759,0A11.422,11.422,0,0,0,32.7,48.726a11.5,11.5,0,0,1,9.425-18.113ZM53.645,93.129l-36.194,0v0a3.294,3.294,0,0,1,3.29-3.29H50.355A3.294,3.294,0,0,1,53.645,93.129Zm-8.226-6.581H25.677v-3.29H45.419Zm16.452-6.581H9.226A4.942,4.942,0,0,1,4.29,75.032v-32.9a4.942,4.942,0,0,1,4.935-4.935h18.96a14.612,14.612,0,0,0-.767,3.29H10.871a3.294,3.294,0,0,0-3.29,3.29V73.387a3.294,3.294,0,0,0,3.29,3.29H60.226a3.29,3.29,0,0,0,3.282-3.206l2.208,4.541a4.872,4.872,0,0,1-3.845,1.956ZM98.065,99.71H68.452V89.839H98.065ZM71.742,86.548V82.88L65.925,70.924a8.124,8.124,0,0,1-1.02-3.058l-1.138-9.1a10.627,10.627,0,0,0-1.7-4.565l-1.695-2.542a.88.88,0,0,1,.732-1.369,7.335,7.335,0,0,1,7.171,5.878l2.116,10.573H74.4l1.4-2.812a8.271,8.271,0,0,0,.869-3.677V28.968a1.645,1.645,0,1,1,3.29,0V55.29h3.29V48.71a1.645,1.645,0,1,1,3.29,0V55.29h3.29V48.71a1.645,1.645,0,1,1,3.29,0V55.29h3.29V52a1.645,1.645,0,1,1,3.29,0V73.387a8.272,8.272,0,0,1-1.645,4.935l-3.29,4.388v3.838Z" fill="#5f266d"/>
      <path id="Trazado_102734" data-name="Trazado 102734" d="M45.194,42.161H41.9v6.581h-3.29v-3.29h-3.29v3.29h-3.29V42.161h-3.29v6.581h-3.29V35.581h-3.29V48.742h-3.29V32.29h-3.29V48.742H12.29V29H9V52.032H48.484v-3.29h-3.29Z" transform="translate(5.161 18.065)" fill="#5f266d"/>
    </g>
  </g>
</svg>
