<svg xmlns="http://www.w3.org/2000/svg" width="177" height="177" viewBox="0 0 177 177">
  <g id="Grupo_60880" data-name="Grupo 60880" transform="translate(-525 -1187)">
    <g id="Elipse_3953" data-name="Elipse 3953" transform="translate(525 1187)" fill="#bb83ff" stroke="#707070" stroke-width="1" opacity="0.15">
      <circle cx="88.5" cy="88.5" r="88.5" stroke="none"/>
      <circle cx="88.5" cy="88.5" r="88" fill="none"/>
    </g>
    <g id="book" transform="translate(555.229 1211.722)">
      <g id="Grupo_56626" data-name="Grupo 56626" transform="translate(0 13.466)">
        <path id="Trazado_102647" data-name="Trazado 102647" d="M58.268,247.152l48.244-.06c6.461-.006,10.031-4.668,10.031-9.582V175.765a7.082,7.082,0,0,0-7.059-7.062H7.052A7.077,7.077,0,0,0,0,175.765v61.746c0,4.914,3.563,9.575,10.031,9.582Zm0,0" transform="translate(0 -143.618)" fill="#8ebfe8" fill-rule="evenodd"/>
        <path id="Trazado_102648" data-name="Trazado 102648" d="M304.356,136.231v66.514H254.988V133.213a14.948,14.948,0,0,1,1.771-.861c4.34-1.8,12.043-3.159,23.407-3.48,8.8.245,13.826.9,18.572,2.253,4.195,1.19,5.618,1.57,5.618,5.107Zm0,0" transform="translate(-196.719 -112.888)" fill="#eceff1" fill-rule="evenodd"/>
        <path id="Trazado_102649" data-name="Trazado 102649" d="M95.22,164.459,90.106,192.9l-1.771,9.845H38.972V136.232c0-3.537,1.424-3.917,5.611-5.107,4.753-1.35,9.772-2.009,18.579-2.253,11.362.321,19.06,1.68,23.4,3.478a15.112,15.112,0,0,1,1.773.864l1.771,8.035Zm0,0" transform="translate(-30.066 -112.889)" fill="#eceff1" fill-rule="evenodd"/>
        <path id="Trazado_102650" data-name="Trazado 102650" d="M42.625,441.945H88.337l2.732-2.732-2.732-1.989c-7.777-4.515-33.86-7.128-49.361,0v.971a3.713,3.713,0,0,0,3.649,3.75Zm0,0" transform="translate(-30.07 -347.368)" fill="#90a4ae" fill-rule="evenodd"/>
        <path id="Trazado_102651" data-name="Trazado 102651" d="M304.352,437.224c-15.508-7.128-41.585-4.515-49.368,0v4.721H300.7a3.717,3.717,0,0,0,3.655-3.75v-.971Zm0,0" transform="translate(-196.716 -347.368)" fill="#90a4ae" fill-rule="evenodd"/>
        <path id="Trazado_102652" data-name="Trazado 102652" d="M299.961,94.625l5.531,3.285,5.536-3.285h.426c0-9.588,9.279-10.825,9.267-21.138-.013-9.828-7.618-14.663-15.228-14.549-7.6-.113-15.209,4.721-15.222,14.549-.013,10.313,9.266,11.55,9.266,21.138Zm0,0" transform="translate(-223.939 -58.935)" fill="#fcd968" fill-rule="evenodd"/>
        <path id="Trazado_102653" data-name="Trazado 102653" d="M356.663,73.483c.013,10.313-9.266,11.55-9.266,21.138h5.75c0-9.588,9.279-10.825,9.266-21.138-.013-9.828-7.617-14.662-15.228-14.549a16.657,16.657,0,0,0-2.872.193c6.541,1,12.344,5.778,12.351,14.356Zm0,0" transform="translate(-265.631 -58.93)" fill="#e6a235" fill-rule="evenodd"/>
        <path id="Trazado_102654" data-name="Trazado 102654" d="M440.336,144.3V206.64a41.291,41.291,0,0,1,7.013,2.433V142.56c0-3.538-1.423-3.916-5.617-5.107q-.687-.2-1.4-.378Zm0,0" transform="translate(-339.712 -119.217)" fill="#c4cccf" fill-rule="evenodd"/>
        <path id="Trazado_102655" data-name="Trazado 102655" d="M447.348,443.93a41.291,41.291,0,0,0-7.013-2.433v7.154h3.356a3.717,3.717,0,0,0,3.655-3.75v-.971Zm0,0" transform="translate(-339.712 -354.074)" fill="#7c8c94" fill-rule="evenodd"/>
        <path id="Trazado_102656" data-name="Trazado 102656" d="M447.348,234.446a3.718,3.718,0,0,1-3.656,3.75h-3.356v8.9l5.889-.006c6.461-.006,10.031-4.668,10.031-9.582V175.765A7.082,7.082,0,0,0,449.2,168.7h-1.848Zm0,0" transform="translate(-339.712 -143.619)" fill="#519ad6" fill-rule="evenodd"/>
      </g>
      <path id="Trazado_102657" data-name="Trazado 102657" d="M72.757,305.351a1.774,1.774,0,0,1-.742-3.386c6.171-2.84,13.919-3.028,17.988-2.887,6.1.212,11.623,1.348,14.405,2.964a1.773,1.773,0,0,1-1.78,3.068c-4.269-2.481-19.861-4.188-29.132.078a1.755,1.755,0,0,1-.739.162Zm0,0" transform="translate(-54.762 -230.708)" fill="#37474f"/>
      <path id="Trazado_102658" data-name="Trazado 102658" d="M72.757,362.323a1.774,1.774,0,0,1-.742-3.386c6.171-2.84,13.919-3.028,17.988-2.887,6.1.212,11.623,1.348,14.405,2.964a1.773,1.773,0,0,1-1.78,3.068c-4.269-2.48-19.861-4.189-29.132.078a1.755,1.755,0,0,1-.739.162Zm0,0" transform="translate(-54.762 -274.661)" fill="#37474f"/>
      <path id="Trazado_102659" data-name="Trazado 102659" d="M72.756,248.368a1.775,1.775,0,0,1-.743-3.386c6.17-2.844,13.919-3.031,17.989-2.889,6.1.212,11.62,1.349,14.4,2.966a1.774,1.774,0,0,1-1.78,3.069c-4.273-2.483-19.867-4.194-29.131.077a1.763,1.763,0,0,1-.74.163Zm0,0" transform="translate(-54.762 -186.745)" fill="#37474f"/>
      <path id="Trazado_102660" data-name="Trazado 102660" d="M321.409,305.35a1.765,1.765,0,0,1-.74-.162c-9.27-4.27-24.856-2.56-29.124-.078a1.774,1.774,0,0,1-1.781-3.068c2.779-1.617,8.3-2.753,14.4-2.964,4.069-.142,11.818.047,17.985,2.887a1.775,1.775,0,0,1-.743,3.386Zm0,0" transform="translate(-222.868 -230.708)" fill="#37474f"/>
      <path id="Trazado_102661" data-name="Trazado 102661" d="M321.409,362.323a1.765,1.765,0,0,1-.74-.162c-9.27-4.27-24.856-2.56-29.124-.078a1.773,1.773,0,0,1-1.781-3.067c2.779-1.617,8.3-2.754,14.4-2.965,4.069-.141,11.818.047,17.985,2.887a1.774,1.774,0,0,1-.743,3.386Zm0,0" transform="translate(-222.868 -274.662)" fill="#37474f"/>
      <path id="Trazado_102662" data-name="Trazado 102662" d="M250.774,144.093v70.394a1.772,1.772,0,1,1-3.544,0v-70.4a15.182,15.182,0,0,1,1.773.864,14.876,14.876,0,0,1,1.771-.861Zm0,0" transform="translate(-190.735 -111.163)" fill="#90a4ae"/>
      <path id="Trazado_102663" data-name="Trazado 102663" d="M339.472,138.039h-9.285a1.774,1.774,0,0,0,0,3.548h2.96v14.064a1.772,1.772,0,1,0,3.545,0V141.587h2.781a1.774,1.774,0,0,0,0-3.548Zm0,0" transform="translate(-253.367 -106.495)" fill="#eceff1"/>
      <path id="Trazado_102664" data-name="Trazado 102664" d="M350.956,8.2a1.773,1.773,0,0,1-1.772-1.774V1.774a1.772,1.772,0,1,1,3.545,0V6.429A1.773,1.773,0,0,1,350.956,8.2Zm0,0" transform="translate(-269.39)" fill="#fcd968"/>
      <path id="Trazado_102665" data-name="Trazado 102665" d="M273.823,30.939a1.767,1.767,0,0,1-1.253-.52l-3.3-3.3a1.773,1.773,0,0,1,2.506-2.51l3.3,3.3a1.774,1.774,0,0,1-1.253,3.029Zm0,0" transform="translate(-207.34 -18.588)" fill="#fcd968"/>
      <path id="Trazado_102666" data-name="Trazado 102666" d="M416.957,30.938a1.774,1.774,0,0,1-1.255-3.027l3.29-3.3a1.773,1.773,0,1,1,2.509,2.507l-3.29,3.3a1.766,1.766,0,0,1-1.254.52Zm0,0" transform="translate(-320.308 -18.586)" fill="#fcd968"/>
      <path id="Trazado_102667" data-name="Trazado 102667" d="M72.757,191.383A1.774,1.774,0,0,1,72.015,188c6.169-2.839,13.919-3.025,17.988-2.884,6.1.212,11.619,1.347,14.4,2.961a1.773,1.773,0,0,1-1.776,3.07c-4.276-2.478-19.873-4.186-29.134.077a1.755,1.755,0,0,1-.739.162Zm0,0" transform="translate(-54.762 -142.786)" fill="#37474f"/>
      <path id="Trazado_102668" data-name="Trazado 102668" d="M323.513,215.113h-5.531a4.352,4.352,0,1,0,0,8.7H329.05a4.352,4.352,0,1,0,0-8.7Zm0,0" transform="translate(-241.96 -165.956)" fill="#c4cccf" fill-rule="evenodd"/>
      <path id="Trazado_102669" data-name="Trazado 102669" d="M366.053,219.469a4.37,4.37,0,0,0-4.354-4.355h-5.75a4.352,4.352,0,1,1,0,8.7H361.7a4.364,4.364,0,0,0,4.354-4.349Zm0,0" transform="translate(-274.609 -165.957)" fill="#90a4ae" fill-rule="evenodd"/>
    </g>
  </g>
</svg>
