<svg xmlns="http://www.w3.org/2000/svg" width="502" height="355.902" viewBox="0 0 502 355.902">
  <g id="Grupo_58934" data-name="Grupo 58934" transform="translate(-183.413 -119.625)">
    <path id="Trazado_103881" data-name="Trazado 103881" d="M219.126,474.625s-62.078-65.535-22.544-142.6,92.582-38.283,90.045-128,122.065-97.377,161.717-71.35,43.147,42.788,125.026,32.451,119.956,66.021,93.048,119c-31.43,61.884,63.245,67.88-8.693,190.644Z" transform="translate(0 0)" fill="#ebf3fa"/>
    <g id="Grupo_58896" data-name="Grupo 58896" transform="translate(518.973 179.707)" opacity="0.4">
      <path id="Trazado_103882" data-name="Trazado 103882" d="M1922.242,472.407a65.005,65.005,0,0,1-1.044,11.629,64.581,64.581,0,0,1-122.568,14.508,63.463,63.463,0,0,1-3.288-9.285,65.02,65.02,0,0,1-.76-30.591c.01-.052.022-.1.032-.151a64.73,64.73,0,0,1,25.2-38.408q1.99-1.444,4.1-2.737a64.216,64.216,0,0,1,33.77-9.53q2.464,0,4.879.184a64.126,64.126,0,0,1,31.976,11.365h0a64.814,64.814,0,0,1,17.71,18.492q1.483,2.343,2.77,4.815a64.27,64.27,0,0,1,7.224,29.709Z" transform="translate(-1793.117 -407.843)" fill="#d7e5ff"/>
      <g id="Grupo_58895" data-name="Grupo 58895" transform="translate(1.465 8.925)">
        <path id="Trazado_103883" data-name="Trazado 103883" d="M1841.31,479.691c-2.576,4.08,1.076,11.165-6.654,9.233s-12.454-2.792-12.882,1.5,5.8,4.3,5.8,8.8-2.792,6-7.085,3.858-5.53-5.256-10.521-3.323-7.89.644-9.017-3.22a5.655,5.655,0,0,0-.8-1.691c.01-.052.022-.1.032-.151a64.73,64.73,0,0,1,25.2-38.408q1.99-1.444,4.1-2.737a8.491,8.491,0,0,1,6.47,3.375c4.509,5.584,7.513,2.792,6.441,9.233s.644,7.3,4.293,7.085,7.945-.216,8.373,2.577S1843.886,475.611,1841.31,479.691Z" transform="translate(-1800.146 -452.953)" fill="#aec3ff"/>
        <path id="Trazado_103884" data-name="Trazado 103884" d="M1999.881,717.293s-5.689,1.825-7.192-2.147.214-4.831-4.831-6.012-5.475-4.616-8.7-4.187-1.61,1.718-5.367,4.509-7.193,1.5-7.085,6.656,5.689,5.958,6.816,9.339-.8,4.831,1.61,7.407,6.924,1.449,4.831,4.992-5.314,6.28-3.7,11.755.483,5.8,3.22,9.662,8.051,5.153,8.856,2.576-3.7-5.958-2.254-8.534,3.865-.805,4.831-4.67,4.884-3.864,5.206-6.548-4.723-6.763-2.791-8.481,5.8,3.113,8.8-1.181.966-7.729,4.079-11.808S2002.028,714.931,1999.881,717.293Z" transform="translate(-1931.986 -651.909)" fill="#aec3ff"/>
        <path id="Trazado_103885" data-name="Trazado 103885" d="M2223.38,614.226a65.017,65.017,0,0,1-1.044,11.629,64.208,64.208,0,0,1-10.19,24.769,7.37,7.37,0,0,1-5.162-.138c-8.051-3.221-2.094-11.916,1.127-16.263s-4.991-2.415-10.949-6.441.644-14.814-5.475-13.043-13.526,4.026-17.068-1.932,3.22-6.924.161-11.916,1.771-7.89,7.89-8.373,5.314-4.831,12.882-5.475,7.407,9.017,15.781,8.373,8,1.288,8,1.288a3.9,3.9,0,0,1,1.749.367A64.69,64.69,0,0,1,2223.38,614.226Z" transform="translate(-2095.72 -558.587)" fill="#aec3ff"/>
        <path id="Trazado_103886" data-name="Trazado 103886" d="M2229.284,486.544c-6.963,3.388-9.758-5.826-15.71-3.056-6,2.792-4.95-2.577-9.671-6.013s-14.17,2.792-13.742-2.576,7.513-3.865,9.017-8.158,8.373-3.22,8.373-3.22a4.668,4.668,0,0,1,1.25-.283s0,0,0,0a64.825,64.825,0,0,1,17.71,18.492Q2228,484.072,2229.284,486.544Z" transform="translate(-2108.847 -460.614)" fill="#aec3ff"/>
        <path id="Trazado_103887" data-name="Trazado 103887" d="M2031.92,458.074s3.65-5.266-2.147-6.82-5.689.48-10.2,0-6.28,3.009-2.9,6.82,6.119,11.124,9.179,7.226S2028.324,458.449,2031.92,458.074Z" transform="translate(-1970.144 -450.658)" fill="#aec3ff"/>
      </g>
    </g>
    <path id="Trazado_103888" data-name="Trazado 103888" d="M1069.929,646.4V847.361c0,3.516-2.538,6.368-5.668,6.368H774.313c-3.129,0-5.667-2.852-5.667-6.368V646.4c0-3.519,2.538-6.368,5.667-6.368h289.948C1067.391,640.029,1069.929,642.878,1069.929,646.4Z" transform="translate(-463.235 -411.92)" fill="#c7b0e3"/>
    <g id="Grupo_58898" data-name="Grupo 58898" transform="translate(305.411 228.109)">
      <path id="Trazado_103889" data-name="Trazado 103889" d="M1069.929,645.7V660.87H768.646V645.7a5.667,5.667,0,0,1,5.667-5.667h289.948A5.667,5.667,0,0,1,1069.929,645.7Z" transform="translate(-768.646 -640.029)" fill="#47286d"/>
      <g id="Grupo_58897" data-name="Grupo 58897" transform="translate(9.216 7.782)">
        <path id="Trazado_103890" data-name="Trazado 103890" d="M812.857,680a2.638,2.638,0,1,1,2.638,2.638A2.638,2.638,0,0,1,812.857,680Z" transform="translate(-812.857 -677.361)" fill="#dfebfd"/>
        <path id="Trazado_103891" data-name="Trazado 103891" d="M862.731,680a2.638,2.638,0,1,1,2.638,2.638A2.638,2.638,0,0,1,862.731,680Z" transform="translate(-852.334 -677.361)" fill="#dfebfd"/>
        <path id="Trazado_103892" data-name="Trazado 103892" d="M913.864,680a2.638,2.638,0,1,1,2.638,2.638A2.638,2.638,0,0,1,913.864,680Z" transform="translate(-892.808 -677.361)" fill="#dfebfd"/>
      </g>
    </g>
    <rect id="Rectángulo_5673" data-name="Rectángulo 5673" width="31.777" height="31.777" transform="translate(467.523 379.244)" fill="#ebf3fa" opacity="0.5"/>
    <g id="Grupo_58899" data-name="Grupo 58899" transform="translate(469.91 385.611)">
      <path id="Trazado_103893" data-name="Trazado 103893" d="M1557.758,1435.8l9.386-16.922,6.9,9.413,3.446-3.767,7.3,11.275Z" transform="translate(-1557.758 -1414.025)" fill="#47286d"/>
      <path id="Trazado_103894" data-name="Trazado 103894" d="M1624.238,1398.008a2.429,2.429,0,1,1,2.429,2.429A2.429,2.429,0,0,1,1624.238,1398.008Z" transform="translate(-1610.38 -1395.579)" fill="#47286d"/>
    </g>
    <rect id="Rectángulo_5674" data-name="Rectángulo 5674" width="79.227" height="45.922" transform="translate(467.523 321.077)" fill="#ebf3fa" opacity="0.5"/>
    <path id="Trazado_103895" data-name="Trazado 103895" d="M1693.448,1139.719v23.528l17.881-11.764Z" transform="translate(-1195.253 -807.445)" fill="#47286d"/>
    <path id="Trazado_103896" data-name="Trazado 103896" d="M1140.742,850.453a19.007,19.007,0,0,1-5.406,13.309,18.125,18.125,0,0,1-13,5.534h-214.4c-10.943,0-19.9-8.48-19.9-18.843a18.287,18.287,0,0,1,5.845-13.307,20.393,20.393,0,0,1,14.051-5.534h214.4A18.679,18.679,0,0,1,1140.742,850.453Z" transform="translate(-557.744 -563.566)" fill="#ebf3fa"/>
    <path id="Trazado_103897" data-name="Trazado 103897" d="M1883.062,850.453a19.007,19.007,0,0,1-5.407,13.309,18.125,18.125,0,0,1-13,5.534h-38.8V831.612h38.8A18.679,18.679,0,0,1,1883.062,850.453Z" transform="translate(-1300.063 -563.566)" fill="#f9e478"/>
    <g id="Grupo_58901" data-name="Grupo 58901" transform="translate(536.87 274.532)">
      <g id="Grupo_58900" data-name="Grupo 58900" transform="translate(11.954)">
        <path id="Trazado_103898" data-name="Trazado 103898" d="M1945.935,881.932a9.742,9.742,0,0,1-1.438-.107,9.6,9.6,0,0,1-4.3-17.216h0a9.6,9.6,0,1,1,5.734,17.323Zm-4.793-16.052a8.021,8.021,0,1,0,11.22,1.674,8.03,8.03,0,0,0-11.22-1.674Z" transform="translate(-1936.316 -862.727)" fill="#fff"/>
      </g>
      <rect id="Rectángulo_5675" data-name="Rectángulo 5675" width="1.582" height="13.105" transform="translate(14.001 14.207) rotate(53.492)" fill="#fff"/>
      <path id="Trazado_103899" data-name="Trazado 103899" d="M1879.247,958.343h0a1.412,1.412,0,0,1,.295-1.975l6.2-4.592a1.412,1.412,0,0,1,1.975.295h0a1.412,1.412,0,0,1-.295,1.975l-6.2,4.592A1.412,1.412,0,0,1,1879.247,958.343Z" transform="translate(-1878.97 -932.993)" fill="#fff"/>
    </g>
    <g id="Grupo_58904" data-name="Grupo 58904" transform="translate(356.567 148.117)">
      <g id="Grupo_58902" data-name="Grupo 58902" transform="translate(0 0)">
        <path id="Trazado_103900" data-name="Trazado 103900" d="M1190.842,748.544a1.435,1.435,0,0,0-.256,1.535.012.012,0,0,0,0,.008,9.541,9.541,0,0,0,3.013,3.308c.181.147.343.28.484.4.037.032.074.065.109.1l.083.075c1.325,1.222.826,1.5,3.206,3.981,2.714,2.825,4.582,2.877,5.114,2.62.45-.219-.464-1.717-1.475-3.4-.049-.081-.1-.163-.148-.245-.135-.224-.269-.451-.4-.676-1.186-2.027-.881-2.977-.6-5.993.229-2.45,3.817-13.688,3.817-13.688l-5.2-.9s-1.57,8.949-3.3,10.327c-.923.734-1.956.743-2.844,1.288q-.094.057-.184.116A6.82,6.82,0,0,0,1190.842,748.544Z" transform="translate(-1153.693 -635.74)" fill="#ffb27d"/>
        <path id="Trazado_103901" data-name="Trazado 103901" d="M1190.842,793.087a1.435,1.435,0,0,0-.256,1.535.012.012,0,0,0,0,.008,11.045,11.045,0,0,0,3.019,3.3c.179.149.338.286.478.414.037.033.074.065.109.1l.083.076c1.325,1.222.826,1.5,3.206,3.981,2.714,2.825,4.582,2.877,5.114,2.62.45-.219-.464-1.717-1.475-3.4a11.565,11.565,0,0,1-4.838-3.567c-1.574-2.01-2.643-4.572-3.714-6.145l-.306-.057A6.822,6.822,0,0,0,1190.842,793.087Z" transform="translate(-1153.693 -680.284)" fill="#233862"/>
        <path id="Trazado_103902" data-name="Trazado 103902" d="M1377.681,739.344c.321,1.606,2.609,1.339,5.167.715s1.949.119,5.589-.283,4.742-1.758,4.853-2.3c.1-.48-1.7-.65-3.628-.873-.242-.027-.486-.057-.73-.088-2.178-.274-3.772-1.68-5.75-2.834-1.873-1.094-4.668-5.549-4.668-5.549l-4.991.394s2.618,3.979,3.63,5.709a6.03,6.03,0,0,1,.489,3.4A6.4,6.4,0,0,0,1377.681,739.344Z" transform="translate(-1298.587 -629.775)" fill="#ffb27d"/>
        <path id="Trazado_103903" data-name="Trazado 103903" d="M1398.342,772.222c2.557-.624,1.949.119,5.589-.283s4.742-1.758,4.854-2.3c.1-.48-1.7-.65-3.628-.873l-.018.037a10.259,10.259,0,0,1-5.212,1.618c-2.469.059-5.084-.649-6.789-.622a6.4,6.4,0,0,0,.038,1.707C1393.5,773.113,1395.784,772.846,1398.342,772.222Z" transform="translate(-1314.08 -661.938)" fill="#233862"/>
        <path id="Trazado_103904" data-name="Trazado 103904" d="M1236.712,598.4l-4.67,12.553-6.1,16.391a9.874,9.874,0,0,1-3.236-.3,14.034,14.034,0,0,1-3.129-1.524s1.7-17.6,4.856-27.7a18,18,0,0,1,2.717-5.871C1232.046,586.17,1236.712,598.4,1236.712,598.4Z" transform="translate(-1176.734 -520.752)" fill="#f4904d"/>
        <path id="Trazado_103905" data-name="Trazado 103905" d="M1107.663,523.56c-2.656-.858-9.586-.017-17.1,1.341a5.1,5.1,0,0,1-5.263-2.379h0l-18.916-1.484s-6.247,13.84-2.833,22.661a3.318,3.318,0,0,0,3.305,2.134h0s11.43.02,15.086.021c9.407,0,19.911-6.46,21.27-6.731,2.224-.444,3.112,4,5.334,8.674s20.895,20.687,20.895,20.687a16.434,16.434,0,0,0,4.057-.415,4,4,0,0,0,1.742-1.1S1114.555,525.786,1107.663,523.56Z" transform="translate(-1052.421 -465.851)" fill="#ffa561"/>
        <path id="Trazado_103906" data-name="Trazado 103906" d="M1045.218,257.425a6.71,6.71,0,0,0-3.613-.941,10.051,10.051,0,0,1-1.745-.107c-7.219-1.061-11.57,9.424-11.826,12.592-.469,5.817-3.547,6.7-7.88,10.345-8.688,7.3-6.144,15.791-1.4,18.947,2.849,1.893,7.872,0,7.872,0,.071.05,13.739-7.634,20.476-11.341C1057.2,285.49,1049.274,259.841,1045.218,257.425Z" transform="translate(-1014.333 -256.302)" fill="#233862"/>
        <path id="Trazado_103907" data-name="Trazado 103907" d="M1109.193,347.813c.03.019-3.315,1.159-5.55.168-2.1-.93-3.7-4.391-3.664-4.393.957-.044,2.008-.88,2.819-6.369l.407.146,6.85,2.467s-.5,2.2-.818,4.291C1108.965,345.881,1108.819,347.564,1109.193,347.813Z" transform="translate(-1082.064 -320.351)" fill="#ffb27d"/>
        <path id="Trazado_103908" data-name="Trazado 103908" d="M1122.306,340.388s-.274,1.186-.673,3.4a7.736,7.736,0,0,1-6.177-5.869Z" transform="translate(-1094.316 -320.907)" fill="#ed975d"/>
        <path id="Trazado_103909" data-name="Trazado 103909" d="M1120.722,297.617s-9.373-1.261-8.5-7.086.255-9.91,6.276-9.351,6.847,2.956,7.028,4.971S1123.183,297.8,1120.722,297.617Z" transform="translate(-1091.712 -275.953)" fill="#ffb27d"/>
        <path id="Trazado_103910" data-name="Trazado 103910" d="M1114.981,281s-6,5.169-10.083,5.584-5.626-.895-5.626-.895a15.939,15.939,0,0,0,3.855-5.219,2.871,2.871,0,0,1,2.366-1.691C1108.407,278.532,1113.932,278.419,1114.981,281Z" transform="translate(-1081.504 -273.999)" fill="#233862"/>
        <path id="Trazado_103911" data-name="Trazado 103911" d="M1156.64,283.422a14.78,14.78,0,0,1,2.638,3.381,11.347,11.347,0,0,1,.305,6.031s3.13-6.08,1.36-9.035C1159.067,280.665,1156.64,283.422,1156.64,283.422Z" transform="translate(-1126.914 -276.881)" fill="#233862"/>
        <path id="Trazado_103912" data-name="Trazado 103912" d="M1086.516,384.969c-.29,18.973-.083,15.009-2.159,16.808-.5.433-1.906.691-3.757.813-5.818.384-16.045-.578-16.434-1.653-1.34-3.721-.393-4.876-1.51-10.572-.116-.606-.261-1.262-.43-1.976-.932-3.912-1.84-5.243,1.474-11.527,3.005-5.692,6.127-10.311,6.408-10.144,7.922,4.706,8.563.753,8.563.753S1086.658,375.714,1086.516,384.969Z" transform="translate(-1051.499 -343.697)" fill="#afcdfb"/>
        <path id="Trazado_103913" data-name="Trazado 103913" d="M1232.042,639.137l-6.1,16.391a9.873,9.873,0,0,1-3.236-.3,14.033,14.033,0,0,1-3.129-1.525s1.7-17.6,4.856-27.7Z" transform="translate(-1176.734 -548.935)" fill="#ffa561"/>
        <path id="Trazado_103914" data-name="Trazado 103914" d="M1144.388,370.341s8.153,1.385,9.109,4.9,4.1,24.82,4.1,24.82-2.3,2.244-4.214.329-6.019-19.938-6.019-19.938Z" transform="translate(-1117.216 -346.568)" fill="#afcdfb"/>
        <path id="Trazado_103915" data-name="Trazado 103915" d="M1085.509,462.4c-5.818.384-16.045-.578-16.434-1.653-1.341-3.721-.393-4.876-1.51-10.572l2.809-7.9s-.467,8.8,2.127,11.114,10.623,4.471,11.884,6.406A7.079,7.079,0,0,1,1085.509,462.4Z" transform="translate(-1056.408 -403.503)" fill="#95b3ef"/>
        <path id="Trazado_103916" data-name="Trazado 103916" d="M1121.673,517.686s5.74-1.276,6.666-.766a13.48,13.48,0,0,1,3.472,3.011c.283.646-2.062-.491-2.824-.7a6.8,6.8,0,0,0-2.438.533,8.1,8.1,0,0,1-4.369.437Z" transform="translate(-1099.236 -462.496)" fill="#ffb27d"/>
        <path id="Trazado_103917" data-name="Trazado 103917" d="M1032.647,366.713s-7.707.472-10.376,4.192c-3.758,5.237-11.216,27.558-6.947,30.537,4.807,3.355,21.884.885,21.884.885s.569-2.656-.221-3.941-13.638-3.365-14.231-3.958,7.416-11.561,7.417-13.34S1032.647,366.713,1032.647,366.713Z" transform="translate(-1014.043 -343.697)" fill="#afcdfb"/>
        <path id="Trazado_103918" data-name="Trazado 103918" d="M1154.981,525.04a11.105,11.105,0,0,0,1.6,1.737,1.175,1.175,0,0,0,.649.139l-.81-1.459Z" transform="translate(-1125.601 -469.019)" fill="#ffb27d"/>
        <path id="Trazado_103919" data-name="Trazado 103919" d="M1153.651,517.376l3.5,1.7a.623.623,0,0,1-.579.223,8.337,8.337,0,0,1-1.516-.417Z" transform="translate(-1124.548 -462.952)" fill="#ffb27d"/>
      </g>
      <g id="Grupo_58903" data-name="Grupo 58903" transform="translate(22.435 38.535)">
        <path id="Trazado_103920" data-name="Trazado 103920" d="M1158.191,536.525l-36.524-.013v.806l36.2.013Z" transform="translate(-1121.667 -516.634)" fill="#233862"/>
        <path id="Trazado_103921" data-name="Trazado 103921" d="M1162.637,461.842l27.659.01,8.327-20.687-27.616-.01Z" transform="translate(-1154.096 -441.155)" fill="#233862"/>
        <path id="Trazado_103922" data-name="Trazado 103922" d="M1251.638,485.8a.958.958,0,0,0-.939-1.317A1.887,1.887,0,0,0,1249,485.8a.958.958,0,0,0,.939,1.317A1.887,1.887,0,0,0,1251.638,485.8Z" transform="translate(-1222.417 -475.451)" fill="#fff"/>
      </g>
    </g>
    <path id="Rectángulo_5676" data-name="Rectángulo 5676" d="M2.278,0H51.426A2.278,2.278,0,0,1,53.7,2.278v0a2.278,2.278,0,0,1-2.278,2.278H2.278A2.278,2.278,0,0,1,0,2.278v0A2.278,2.278,0,0,1,2.278,0Z" transform="translate(337.503 325.369)" fill="#f9e478"/>
    <g id="Grupo_58906" data-name="Grupo 58906" transform="translate(337.503 335.962)">
      <path id="Trazado_103923" data-name="Trazado 103923" d="M948.79,1191.8H924.15a1.554,1.554,0,0,1-1.555-1.554h0a1.555,1.555,0,0,1,1.555-1.555h24.64a1.555,1.555,0,0,1,1.555,1.555h0A1.554,1.554,0,0,1,948.79,1191.8Z" transform="translate(-922.595 -1182.173)" fill="#fff"/>
      <g id="Grupo_58905" data-name="Grupo 58905" transform="translate(0 0)">
        <path id="Rectángulo_5677" data-name="Rectángulo 5677" d="M1.555,0h43.4A1.555,1.555,0,0,1,46.51,1.555v0a1.555,1.555,0,0,1-1.555,1.555H1.555A1.555,1.555,0,0,1,0,1.555v0A1.555,1.555,0,0,1,1.555,0Z" fill="#fff"/>
        <rect id="Rectángulo_5678" data-name="Rectángulo 5678" width="43.431" height="3.109" rx="1.555" transform="translate(50.749)" fill="#fff"/>
        <path id="Trazado_103924" data-name="Trazado 103924" d="M1096.222,1191.8h-24.641a1.554,1.554,0,0,1-1.555-1.554h0a1.555,1.555,0,0,1,1.555-1.555h24.641a1.555,1.555,0,0,1,1.555,1.555h0A1.554,1.554,0,0,1,1096.222,1191.8Z" transform="translate(-1039.293 -1182.173)" fill="#fff"/>
      </g>
    </g>
    <path id="Rectángulo_5679" data-name="Rectángulo 5679" d="M2.278,0H51.426A2.278,2.278,0,0,1,53.7,2.278v0a2.278,2.278,0,0,1-2.278,2.278H2.278A2.278,2.278,0,0,1,0,2.278v0A2.278,2.278,0,0,1,2.278,0Z" transform="translate(398.315 325.369)" fill="#f9e478"/>
    <path id="Rectángulo_5680" data-name="Rectángulo 5680" d="M2.278,0H51.426A2.278,2.278,0,0,1,53.7,2.278v0a2.278,2.278,0,0,1-2.278,2.278H2.278A2.278,2.278,0,0,1,0,2.278v0A2.278,2.278,0,0,1,2.278,0Z" transform="translate(337.503 406.949)" fill="#f9e478"/>
    <g id="Grupo_58908" data-name="Grupo 58908" transform="translate(337.503 417.542)">
      <path id="Trazado_103925" data-name="Trazado 103925" d="M948.79,1583.146H924.15a1.555,1.555,0,0,1-1.555-1.555h0a1.555,1.555,0,0,1,1.555-1.555h24.64a1.555,1.555,0,0,1,1.555,1.555h0A1.555,1.555,0,0,1,948.79,1583.146Z" transform="translate(-922.595 -1573.516)" fill="#fff"/>
      <g id="Grupo_58907" data-name="Grupo 58907" transform="translate(0)">
        <path id="Rectángulo_5681" data-name="Rectángulo 5681" d="M1.555,0h43.4A1.555,1.555,0,0,1,46.51,1.555v0a1.555,1.555,0,0,1-1.555,1.555H1.555A1.555,1.555,0,0,1,0,1.555v0A1.555,1.555,0,0,1,1.555,0Z" fill="#fff"/>
        <path id="Rectángulo_5682" data-name="Rectángulo 5682" d="M1.555,0H41.876a1.555,1.555,0,0,1,1.555,1.555v0a1.555,1.555,0,0,1-1.555,1.555H1.555A1.555,1.555,0,0,1,0,1.555v0A1.555,1.555,0,0,1,1.555,0Z" transform="translate(50.749)" fill="#fff"/>
        <path id="Trazado_103926" data-name="Trazado 103926" d="M1096.222,1583.146h-24.641a1.555,1.555,0,0,1-1.555-1.555h0a1.555,1.555,0,0,1,1.555-1.555h24.641a1.555,1.555,0,0,1,1.555,1.555h0A1.555,1.555,0,0,1,1096.222,1583.146Z" transform="translate(-1039.293 -1573.516)" fill="#fff"/>
      </g>
    </g>
    <path id="Rectángulo_5683" data-name="Rectángulo 5683" d="M2.278,0H51.426A2.278,2.278,0,0,1,53.7,2.278v0a2.278,2.278,0,0,1-2.278,2.278H2.278A2.278,2.278,0,0,1,0,2.278v0A2.278,2.278,0,0,1,2.278,0Z" transform="translate(398.315 406.949)" fill="#f9e478"/>
    <rect id="Rectángulo_5684" data-name="Rectángulo 5684" width="53.704" height="4.556" rx="2.278" transform="translate(337.503 366.159)" fill="#f9e478"/>
    <g id="Grupo_58910" data-name="Grupo 58910" transform="translate(337.503 376.752)">
      <path id="Trazado_103927" data-name="Trazado 103927" d="M948.79,1387.474H924.15a1.555,1.555,0,0,1-1.555-1.555h0a1.555,1.555,0,0,1,1.555-1.555h24.64a1.555,1.555,0,0,1,1.555,1.555h0A1.554,1.554,0,0,1,948.79,1387.474Z" transform="translate(-922.595 -1377.844)" fill="#fff"/>
      <g id="Grupo_58909" data-name="Grupo 58909" transform="translate(0)">
        <path id="Rectángulo_5685" data-name="Rectángulo 5685" d="M1.555,0h43.4A1.555,1.555,0,0,1,46.51,1.555v0a1.555,1.555,0,0,1-1.555,1.555H1.555A1.555,1.555,0,0,1,0,1.555v0A1.555,1.555,0,0,1,1.555,0Z" fill="#fff"/>
        <rect id="Rectángulo_5686" data-name="Rectángulo 5686" width="43.431" height="3.109" rx="1.555" transform="translate(50.749)" fill="#fff"/>
        <path id="Trazado_103928" data-name="Trazado 103928" d="M1096.222,1387.474h-24.641a1.555,1.555,0,0,1-1.555-1.555h0a1.555,1.555,0,0,1,1.555-1.555h24.641a1.555,1.555,0,0,1,1.555,1.555h0A1.555,1.555,0,0,1,1096.222,1387.474Z" transform="translate(-1039.293 -1377.844)" fill="#fff"/>
      </g>
    </g>
    <rect id="Rectángulo_5687" data-name="Rectángulo 5687" width="53.704" height="4.556" rx="2.278" transform="translate(398.315 366.159)" fill="#f9e478"/>
    <g id="Grupo_58914" data-name="Grupo 58914" transform="translate(253.094 310.458)">
      <path id="Trazado_103929" data-name="Trazado 103929" d="M790.093,1204.13s.563-1.267.928-1.866,1.923-2.357,2.188-1.959,1.326,3.076.763,3.826.037,2.054-2.767,2.844Z" transform="translate(-733.305 -1165.813)" fill="#ffb27d"/>
      <path id="Trazado_103930" data-name="Trazado 103930" d="M640.662,1180.512s14.349,11.978,19.944,10.869a110.334,110.334,0,0,0,11.09-3.17l1.343,3.435s-6.022,8.168-12.3,8.222a35.762,35.762,0,0,1-17.064-4.249Z" transform="translate(-615.024 -1150.192)" fill="#95b3ef"/>
      <path id="Trazado_103931" data-name="Trazado 103931" d="M519.942,1778.365s.417,6.72,1.717,6.816c.173.013,6.594.013,6.594.013l8.2-.047a2.66,2.66,0,0,0-2.45-2.392c-2.4-.418-6.406-2.1-7.857-5.268C524.615,1774.155,519.942,1778.365,519.942,1778.365Z" transform="translate(-519.47 -1621.705)" fill="#1c4b8e"/>
      <path id="Trazado_103932" data-name="Trazado 103932" d="M517.676,1473.815a17.084,17.084,0,0,0,4.437.834,16.293,16.293,0,0,0,4.142-.591,113.391,113.391,0,0,1,3.05-14.532c1.354-5.239,3.286-11.975,6.036-20.346,7.6-23.134,9.915-36.666,10.126-37.948.011-.067.016-.1.016-.1l-.025-.011-23.374-10.262s2.889,31.883-.8,44.121a51.557,51.557,0,0,0-1.338,5.863C517.622,1454.134,517.676,1473.815,517.676,1473.815Z" transform="translate(-517.676 -1316.688)" fill="#455a64"/>
      <path id="Trazado_103933" data-name="Trazado 103933" d="M542.933,1459.525c1.354-5.239,3.286-11.975,6.036-20.346,7.6-23.134,9.915-36.666,10.126-37.948,0-.038,0-.074-.009-.112l-23.374-10.262s2.889,31.883-.8,44.121C534.4,1436.688,542.933,1459.525,542.933,1459.525Z" transform="translate(-531.304 -1316.688)" fill="#2c3d46"/>
      <path id="Trazado_103934" data-name="Trazado 103934" d="M607.517,1778.365s.417,6.72,1.716,6.816c.173.013,6.594.013,6.594.013l8.2-.047a2.66,2.66,0,0,0-2.45-2.392c-2.4-.418-6.406-2.1-7.857-5.268C612.19,1774.155,607.517,1778.365,607.517,1778.365Z" transform="translate(-588.789 -1621.705)" fill="#1c4b8e"/>
      <path id="Trazado_103935" data-name="Trazado 103935" d="M576.725,1394.461a332.765,332.765,0,0,1-3.271,46.028c-3.574,25.367-2.363,36.135-2.363,36.135a24.365,24.365,0,0,1-3.447.877,15.644,15.644,0,0,1-5.114-.592s-5.116-25.377-3.649-38.074-7.006-43.569-7.006-43.569Z" transform="translate(-544.745 -1319.541)" fill="#455a64"/>
      <path id="Trazado_103936" data-name="Trazado 103936" d="M591.582,1123.75l4.563,2.992,4.156-1.175c.76-1.084.961-3.173.972-4.983a30.96,30.96,0,0,0-.163-3.318l-6.156-2.717-2.3-1.012c.006.036.179,1.886.2,2.156A15.714,15.714,0,0,1,591.582,1123.75Z" transform="translate(-576.175 -1097.179)" fill="#ffb27d"/>
      <path id="Trazado_103937" data-name="Trazado 103937" d="M562.213,1210.042c-5.679,5.483-27.171,4.561-28.5-1.48s1.444-51.426,11.145-54.277c2.013-.592,12.775,2.887,12.775,2.887a68.24,68.24,0,0,1,2.8,10.042c.215,1.1.842,12.693,1.312,23.544.219,5.074.4,9.987.5,13.583A39.236,39.236,0,0,1,562.213,1210.042Z" transform="translate(-530.128 -1129.378)" fill="#afcdfb"/>
      <path id="Trazado_103938" data-name="Trazado 103938" d="M599.256,1119.619c1.249,2.111,5.631,3.959,7.952,4.806a30.969,30.969,0,0,0-.163-3.318l-6.156-2.717C599.528,1118.372,598.7,1118.676,599.256,1119.619Z" transform="translate(-582.111 -1101.019)" fill="#fca56b"/>
      <path id="Trazado_103939" data-name="Trazado 103939" d="M595.9,1067.644s-9.918,3.094-11.75-3.112-4.345-9.987,1.91-12.224,8.19-.234,9.305,1.688S598.436,1066.679,595.9,1067.644Z" transform="translate(-568.647 -1047.932)" fill="#ffb27d"/>
      <path id="Trazado_103940" data-name="Trazado 103940" d="M578.594,1040.531s-.633,7.222-2.126,6.909-3.138-.984-2.919,1.193-1.452,5.909-3.606,5.9c-4.619-.019-9.638-11.871-8.373-14.119C565.219,1033.929,583.867,1032.62,578.594,1040.531Z" transform="translate(-552.263 -1035.065)" fill="#163560"/>
      <path id="Trazado_103941" data-name="Trazado 103941" d="M598.493,1143.728c-.128-.054-7.383-3.308-8.232-3.028s-1.906,2.872-1.906,2.872l12.776,2.888A6.346,6.346,0,0,0,598.493,1143.728Z" transform="translate(-573.621 -1118.666)" fill="#95b3ef"/>
      <g id="Grupo_58912" data-name="Grupo 58912" transform="translate(25.566 4.574)">
        <path id="Trazado_103942" data-name="Trazado 103942" d="M684.8,1309.136l-40.672,38.293c-.8.75-1.8.99-2.234.531l-1.373-1.458c-.432-.458-.132-1.447.665-2.2l40.672-38.293c.8-.75,1.8-.99,2.234-.531l1.373,1.458C685.892,1307.4,685.593,1308.386,684.8,1309.136Z" transform="translate(-640.319 -1253.498)" fill="#1f4d84"/>
        <path id="Trazado_103943" data-name="Trazado 103943" d="M661.971,1415.124l-17.848,16.8c-.8.75-1.8.99-2.234.531L640.517,1431c-.432-.458-.132-1.447.665-2.2l17.848-16.8Z" transform="translate(-640.319 -1337.997)" fill="#739af0"/>
        <path id="Trazado_103944" data-name="Trazado 103944" d="M803.581,1098.185a31.879,31.879,0,1,0,52.837-32.036c-.163-.163-.331-.324-.5-.482a31.88,31.88,0,0,0-52.337,32.518Zm9.112-29.422a29.363,29.363,0,1,1,1.265,41.505A29.327,29.327,0,0,1,812.693,1068.763Z" transform="translate(-768.453 -1057.005)" fill="#1f4d84"/>
        <g id="Grupo_58911" data-name="Grupo 58911" transform="translate(36.261 2.517)" opacity="0.5">
          <path id="Trazado_103945" data-name="Trazado 103945" d="M865.014,1118.558a29.363,29.363,0,1,1-1.266-41.5A29.242,29.242,0,0,1,865.014,1118.558Z" transform="translate(-814.268 -1069.079)" fill="#b3cff9"/>
        </g>
      </g>
      <path id="Trazado_103946" data-name="Trazado 103946" d="M593.579,1253.112c-22.411-15.969-20.547-37.279-20.547-37.279,8.191,4.62,16.319,14.834,20.048,23.7C593.3,1244.6,593.484,1249.515,593.579,1253.112Z" transform="translate(-561.462 -1178.15)" fill="#95b3ef"/>
      <g id="Grupo_58913" data-name="Grupo 58913" transform="translate(11.102 27.795)">
        <path id="Trazado_103947" data-name="Trazado 103947" d="M767.656,1353.061a6.119,6.119,0,0,0,2.862-1.768s.674.046-.111,1.484c-.066.12-.211.429-.321.648a.139.139,0,0,0,.117.2,14.918,14.918,0,0,1,3.586.075c.242.05.313.631.3.878a2.244,2.244,0,0,1-.472,1.531c-.283.373-1.073.775-2.832,1.483a8.562,8.562,0,0,1-4.382-.551l-1.435-.664.445-2.667.36.075C766.35,1353.906,767.059,1353.208,767.656,1353.061Z" transform="translate(-724.523 -1313.166)" fill="#ffb27d"/>
        <path id="Trazado_103948" data-name="Trazado 103948" d="M578.357,1168.4s-20.136,3.834,5.924,32.994c4.168,4.664,26.686,10.736,26.686,10.736s2.284-1.943,1.132-3.517c0,0-15.5-11.259-18.916-13.049-1.534-.805-5.956-17.97-8.458-22.1A11.278,11.278,0,0,0,578.357,1168.4Z" transform="translate(-570.934 -1168.397)" fill="#afcdfb"/>
      </g>
      <path id="Trazado_103949" data-name="Trazado 103949" d="M792.711,1201.937a10.24,10.24,0,0,0,.787-1.922,10.619,10.619,0,0,1,1.3-2.942c.137-.136.588.04.641.627a3.408,3.408,0,0,1-.323,1.274,14.35,14.35,0,0,0-.426,2.531C794.377,1202.519,792.711,1201.937,792.711,1201.937Z" transform="translate(-735.377 -1163.266)" fill="#ffb27d"/>
    </g>
    <g id="Grupo_58915" data-name="Grupo 58915" transform="translate(558.321 300.228)">
      <path id="Trazado_103950" data-name="Trazado 103950" d="M2003.214,996.459l-11.4,2.653-5.637,10.258-4.3-23.376Z" transform="translate(-1981.873 -985.993)" fill="#233862"/>
      <rect id="Rectángulo_5688" data-name="Rectángulo 5688" width="2.084" height="12.057" transform="matrix(0.797, -0.604, 0.604, 0.797, 7.658, 12.125)" fill="#233862"/>
    </g>
    <g id="Grupo_58929" data-name="Grupo 58929" transform="translate(515.896 356.311)">
      <g id="Grupo_58922" data-name="Grupo 58922" transform="translate(0 16.453)">
        <g id="Grupo_58917" data-name="Grupo 58917" transform="translate(0 34.566)">
          <path id="Trazado_103951" data-name="Trazado 103951" d="M1804.536,1511.176s4.713-5.534.263-9.026c0,0-3.249-1.953-5.892-1.785,0,0,3.766,6.27,2.556,6.9s-3.693-7.289-3.693-7.289-7.381-.692-9.751.456c0,0,6.324,5.142,5,5.454s-8.156-4.734-8.156-4.734-6.864,1.191-6.484,5.379,2.75,5.474,3.789,5.36,7.116-2.457,7.252-1.6-3.518,3.648-6.082,3.787c0,0,4.859,5.324,8.072,3.773s3.48-3.995,5.482-4.917,3.716-.926,2.89.011-4.452,1.857-5.593,3.889-2.165,3.4,1.162,2.893,8.731-2.965,8.96-5.755Z" transform="translate(-1778.36 -1499.768)" fill="#82b378"/>
          <g id="Grupo_58916" data-name="Grupo 58916" transform="translate(3.39 6.824)">
            <path id="Trazado_103952" data-name="Trazado 103952" d="M1794.621,1532.545s18.65-.778,22.786,4.543a13.492,13.492,0,0,0,3.731,5.2l.441,1.19s-3.243-3.4-4.4-3.6C1817.178,1539.878,1818.966,1533.264,1794.621,1532.545Z" transform="translate(-1794.621 -1532.505)" fill="#82b378"/>
            <path id="Trazado_103953" data-name="Trazado 103953" d="M1917.821,1577.67a11.713,11.713,0,0,1,4.308,8.238l-.727.067s-1.3-5.466-3.614-7.6S1917.821,1577.67,1917.821,1577.67Z" transform="translate(-1891.304 -1567.885)" fill="#82b378"/>
          </g>
        </g>
        <g id="Grupo_58919" data-name="Grupo 58919" transform="translate(46.216 11.824)">
          <path id="Trazado_103954" data-name="Trazado 103954" d="M2005.03,1410.224s-7.539-4.19-4.045-9.921c0,0,2.8-3.521,5.806-4.433,0,0-1.578,8.534.028,8.729s1.073-9.636,1.073-9.636,7.915-3.838,11.026-3.547c0,0-4.89,8.344-3.286,8.138s7.1-8.652,7.1-8.652,8.123-1.531,9.442,3.281-.78,7.227-1.983,7.532-8.929.229-8.725,1.232,5.427,2.592,8.333,1.679c0,0-3.185,7.937-7.4,7.549s-5.528-2.993-8.137-3.185-4.514.516-3.207,1.214,5.72.212,7.833,2,3.822,2.883-.089,3.7-10.936.336-12.35-2.67Z" transform="translate(-2000.061 -1390.672)" fill="#a8d29f"/>
          <g id="Grupo_58918" data-name="Grupo 58918" transform="translate(1.04 5.03)">
            <path id="Trazado_103955" data-name="Trazado 103955" d="M2039.8,1414.8s-21.049,6.89-23.433,14.523a16.006,16.006,0,0,1-1.984,7.331l0,1.5s2.191-5.124,3.393-5.83C2017.781,1432.328,2013.044,1425.72,2039.8,1414.8Z" transform="translate(-2012.438 -1414.799)" fill="#82b378"/>
            <path id="Trazado_103956" data-name="Trazado 103956" d="M2007,1516.067a13.9,13.9,0,0,0-1.362,10.945l.835-.227s-.833-6.614.857-9.946S2007,1516.067,2007,1516.067Z" transform="translate(-2005.052 -1494.212)" fill="#82b378"/>
          </g>
        </g>
        <g id="Grupo_58921" data-name="Grupo 58921" transform="translate(2.754)">
          <path id="Trazado_103957" data-name="Trazado 103957" d="M1828.011,1359.555s9.9-5.586,5.249-13.111c0,0-3.718-4.617-7.69-5.8,0,0,2.152,11.236.037,11.507s-1.5-12.693-1.5-12.693-10.465-4.993-14.564-4.583c0,0,6.516,10.958,4.4,10.7s-9.427-11.345-9.427-11.345-10.72-1.95-12.419,4.4,1.088,9.52,2.677,9.911,11.772.227,11.512,1.551-7.131,3.462-10.971,2.283c0,0,4.266,10.436,9.819,9.889s7.262-3.991,10.7-4.267,5.954.642,4.238,1.574-7.538.327-10.308,2.7-5.014,3.832.148,4.874,14.418.351,16.257-3.623Z" transform="translate(-1791.57 -1333.953)" fill="#a8d29f"/>
          <g id="Grupo_58920" data-name="Grupo 58920" transform="translate(5.431 6.655)">
            <path id="Trazado_103958" data-name="Trazado 103958" d="M1817.621,1365.875s27.8,8.906,31.01,18.948a21.1,21.1,0,0,0,2.676,9.647l.006,1.984s-2.931-6.736-4.521-7.657C1846.792,1388.8,1852.981,1380.047,1817.621,1365.875Z" transform="translate(-1817.621 -1365.875)" fill="#82b378"/>
            <path id="Trazado_103959" data-name="Trazado 103959" d="M1974.162,1498.373a18.319,18.319,0,0,1,1.887,14.416l-1.1-.292s1.042-8.724-1.213-13.1S1974.162,1498.373,1974.162,1498.373Z" transform="translate(-1940.476 -1469.778)" fill="#82b378"/>
          </g>
        </g>
      </g>
      <g id="Grupo_58928" data-name="Grupo 58928" transform="translate(8.356 0)">
        <g id="Grupo_58927" data-name="Grupo 58927">
          <g id="Grupo_58923" data-name="Grupo 58923" transform="translate(0 32.744)">
            <path id="Trazado_103960" data-name="Trazado 103960" d="M1928.7,1497.5H1827.037c-14.174-16.214-10.43-38.118,8.383-56.591,2.365-2.323,6.9-3.971,11.8-5.133a130.742,130.742,0,0,1,19.326-2.677,71.821,71.821,0,0,0,8.638-8.285c10.048-12.164,18.6-11.119,18.6-11.119,10.242-1.993,18.977-2.578,25.453,1.026,0,0,0,0,0,0,6,3.344,10.061,10.288,11.581,23.05.288,2.413.486,5.034.588,7.879.371,10.356,2.413,19.568,3.625,27.369,0,0,0,0,0,0C1936.784,1484.32,1938.024,1492.913,1928.7,1497.5Z" transform="translate(-1818.442 -1412.101)" fill="#31d9e7"/>
          </g>
          <path id="Trazado_103961" data-name="Trazado 103961" d="M2019.509,1427.728c-6.214,3.385-6.9,14.536-16.628,17.416s-26.237,2.618-35.6,12.777c-9.035,9.8-19-15.134-14.709-22.148a130.746,130.746,0,0,1,19.326-2.677,71.831,71.831,0,0,0,8.638-8.285c10.048-12.164,18.6-11.119,18.6-11.119,10.242-1.993,18.977-2.578,25.453,1.026,0,0,0,0,0,0C2031.72,1422.092,2025.724,1424.343,2019.509,1427.728Z" transform="translate(-1923.796 -1379.358)" fill="#23adb8"/>
          <g id="Grupo_58926" data-name="Grupo 58926" transform="translate(11.699)">
            <path id="Trazado_103962" data-name="Trazado 103962" d="M1953.673,1703.9s1.79,4.747,1.419,6.511.248,5.18-.469,6.71-2,3.756-.76,4.315c.47.212,5.917-4.041,6.226-5.292s.541-4.939,1.579-6.944a2.975,2.975,0,0,0-1.355-4.348c-1.513-.732-3.631-4.756-3.631-4.756Z" transform="translate(-1936.923 -1607.314)" fill="#f9ddbf"/>
            <path id="Trazado_103963" data-name="Trazado 103963" d="M1962.113,1500.826s-29.746-1.836-33.578,2.109c-4.039,4.157,2.54,45.044,2.54,45.044s8.066.232,8.7-1.9c0,0-1.514-19.8-.255-23.22s.461-8.162.461-8.162,15.783,2.357,20.789,1.156S1962.113,1500.826,1962.113,1500.826Z" transform="translate(-1916.246 -1449.249)" fill="#233862"/>
            <path id="Trazado_103964" data-name="Trazado 103964" d="M2058.832,1397.713c0,.024-4.384,10.232-6.522,11.319s-9.88,9.989-11.54,9.835,1.714,1.818,1.714,1.818,13.762-6.714,14.549-7.1,4.93-7.212,5.5-10.674S2058.832,1397.713,2058.832,1397.713Z" transform="translate(-2005.759 -1367.969)" fill="#ffb27d"/>
            <path id="Trazado_103965" data-name="Trazado 103965" d="M1885.822,1752.261s-1.7,4.782-3.117,5.89-3.153,4.118-4.688,4.824-3.95,1.58-3.364,2.806c.222.465,7.128.73,8.171-.026s3.6-3.425,5.688-4.286a2.975,2.975,0,0,0,1.77-4.2c-.684-1.535.294-5.977.294-5.977Z" transform="translate(-1874.564 -1647.844)" fill="#f9ddbf"/>
            <path id="Trazado_103966" data-name="Trazado 103966" d="M2143.638,1280.238c-.635-.734,15.473,1.075,17.616,9.305,0,0,12.373-9.752,1.023-17.97-3.929-2.845-4.324-5.882-4.9-8.661s-4.491-10.767-11.292-6.8a8.854,8.854,0,0,0-5.074,1.719C2136.545,1261.707,2131.666,1286.338,2143.638,1280.238Z" transform="translate(-2081.605 -1255.027)" fill="#163560"/>
            <path id="Trazado_103967" data-name="Trazado 103967" d="M1970.371,1509.367s-32.339,3.3-35.18,6.6-14,46.231-14,46.231,3.3,1.838,6.3.118c0,0,8.551-14.564,12.335-19.137s5.2-18.687,5.821-18.832,20.892,2.821,27.869-2.538S1970.371,1509.367,1970.371,1509.367Z" transform="translate(-1911.473 -1456.347)" fill="#2a4e96"/>
            <path id="Trazado_103968" data-name="Trazado 103968" d="M2116.838,1359.909a33.693,33.693,0,0,0-17.5-1.864,6.694,6.694,0,0,0-5.228,3.336c-2.019,3.327-2.963,5.113-2.963,5.113s.195,1.541,2.954,2.768c-.751,2.758.689,7.574-.635,9.443s-9.543,6.506-9.948,9.084c-.745,4.736,14.049,13.316,18.46,12.4C2114.673,1397.545,2123.283,1363.534,2116.838,1359.909Z" transform="translate(-2039.941 -1336.242)" fill="#f9ddbf"/>
            <path id="Trazado_103969" data-name="Trazado 103969" d="M2179.8,1275.377a17.992,17.992,0,0,0,1.72-5.448c.144-1.753-1.339-8.059-7.672-6.532a8.76,8.76,0,0,0-3.489,1.71c-1.305,1.074-3.125,3.3-.348,8.659l.762,1.828Z" transform="translate(-2107.27 -1261.465)" fill="#163560"/>
            <g id="Grupo_58924" data-name="Grupo 58924" transform="translate(57.748 4.392)">
              <path id="Trazado_103970" data-name="Trazado 103970" d="M2179.757,1335.728c-.64.676-.388,2.921,2.61,2.752,1.968-.111,6.186-2.545,5.79-4.227a20.842,20.842,0,0,1-2.059-7.6l-.357.1-6.007,1.69s.29,1.91.437,3.718A7.744,7.744,0,0,1,2179.757,1335.728Z" transform="translate(-2173.657 -1316.113)" fill="#ffb27d"/>
              <path id="Trazado_103971" data-name="Trazado 103971" d="M2180.736,1328.823s.291,1.91.438,3.718c3.407-.366,4.966-3.624,5.569-5.408Z" transform="translate(-2174.659 -1316.494)" fill="#f4a269"/>
              <path id="Trazado_103972" data-name="Trazado 103972" d="M2160.365,1293.883s7.86-1.98,6.552-6.856-1.175-8.415-6.249-7.357-5.545,3.179-5.5,4.913S2158.287,1294.273,2160.365,1293.883Z" transform="translate(-2154.416 -1278.777)" fill="#ffb27d"/>
              <path id="Trazado_103973" data-name="Trazado 103973" d="M2164.326,1277.83s2.64,5.028,7.62,5.568a4.355,4.355,0,0,1,3.714,2.235,45.712,45.712,0,0,0-2.342-8.845S2165.209,1274.673,2164.326,1277.83Z" transform="translate(-2161.67 -1276.095)" fill="#163560"/>
              <path id="Trazado_103974" data-name="Trazado 103974" d="M2155.143,1284.492a13.7,13.7,0,0,0-2.251,3c-.786,1.834.749,5.7,1.383,6.53,0,0-3.66-6.2-2.439-8.892C2153.131,1282.276,2155.143,1284.492,2155.143,1284.492Z" transform="translate(-2151.586 -1282.091)" fill="#163560"/>
            </g>
            <path id="Trazado_103975" data-name="Trazado 103975" d="M2014.27,1500.159s-1.565,1.658-1.755,1.747c-1.035.485-2.342.2-2.975.362s-.523-.234-.057-.553,1.613-.2,1.144-.311a12.735,12.735,0,0,0-3.952-.332,3.551,3.551,0,0,1-2.793-.224,12.4,12.4,0,0,1,4.454-1.827c1.011.058,3.917-.083,3.917-.083Z" transform="translate(-1976.923 -1448.093)" fill="#ffb27d"/>
            <path id="Trazado_103976" data-name="Trazado 103976" d="M2201.477,1383.223s9.754,22.018,7.045,25.251c-2.69,3.211-21.459-.69-21.459-.69l.578-2.045s13.8-.845,14.787-1.123c1.414-.4-6.994-15.842-6.994-15.842Z" transform="translate(-2121.919 -1356.499)" fill="#ffb27d"/>
            <path id="Trazado_103977" data-name="Trazado 103977" d="M2216.113,1366.823c.234.006,3.149.962,5.243,5.1,2.057,4.069,2.806,6.045,2.806,6.045s-9.117,7.071-12.745,4.469S2212.767,1366.738,2216.113,1366.823Z" transform="translate(-2140.193 -1343.518)" fill="#f9ddbf"/>
            <path id="Trazado_103978" data-name="Trazado 103978" d="M2172.864,1481.854s-1.567-1.017-2.2-1.573-4.305-1.008-4.3-.637,2.14.876,2.373,1.247,1.539,1.9,2.654,1.9A1.588,1.588,0,0,0,2172.864,1481.854Z" transform="translate(-2105.531 -1432.714)" fill="#ffb27d"/>
            <g id="Grupo_58925" data-name="Grupo 58925" transform="translate(54.188 41.479)">
              <path id="Trazado_103979" data-name="Trazado 103979" d="M2146.695,1465.449l-4.207-.6a1.837,1.837,0,0,1-1.423-1.173l-2.323-8.213c-.158-.558.223-.939.852-.849l4.207.6a1.838,1.838,0,0,1,1.423,1.173l2.323,8.213C2147.7,1465.158,2147.323,1465.538,2146.695,1465.449Z" transform="translate(-2137.831 -1454.478)" fill="#1f4a91"/>
              <path id="Trazado_103980" data-name="Trazado 103980" d="M2142.5,1464.852l-4.207-.6a1.838,1.838,0,0,1-1.424-1.173l-2.323-8.213c-.158-.558.223-.939.852-.849l4.207.6a1.838,1.838,0,0,1,1.423,1.173l2.323,8.213C2143.505,1464.561,2143.124,1464.941,2142.5,1464.852Z" transform="translate(-2134.507 -1454.006)" fill="#233862"/>
              <path id="Trazado_103981" data-name="Trazado 103981" d="M2138.066,1457.737c-.065-.232.093-.39.354-.353a.764.764,0,0,1,.591.487c.066.232-.093.39-.354.353A.765.765,0,0,1,2138.066,1457.737Z" transform="translate(-2137.313 -1456.675)" fill="#1f4a91"/>
            </g>
            <path id="Trazado_103982" data-name="Trazado 103982" d="M2165.45,1488.762a28.949,28.949,0,0,1-3.559-.129c-.714-.169-2.538-2.432-2.052-3,.306-.357,2.007.283,2.817.281s2.915-1.174,4.355,1.224C2167.174,1487.409,2165.45,1488.762,2165.45,1488.762Z" transform="translate(-2100.306 -1437.477)" fill="#ffb27d"/>
          </g>
          <path id="Trazado_103983" data-name="Trazado 103983" d="M2072.6,1527.022s-3.063,2.87-15.883,3.283-29.533,14.58-29.69,18.579,25.814,10.077,26.216,9.5,16.467-14.375,16.467-14.375Z" transform="translate(-1983.547 -1470.322)" fill="#23adb8"/>
          <path id="Trazado_103984" data-name="Trazado 103984" d="M2178.284,1570.486c-14.263-17.8-43.562,6.467-51.144,5.782-6.971-.63,13.594-24.964,39.1-28.584,10.309-1.464,7.84-12.117,7.835-12.446.288,2.413.486,5.034.588,7.879C2175.031,1553.474,2177.072,1562.686,2178.284,1570.486Z" transform="translate(-2061.702 -1476.825)" fill="#23adb8"/>
        </g>
      </g>
    </g>
    <path id="Trazado_103985" data-name="Trazado 103985" d="M707.791,1820.623l-486.273-.168a.594.594,0,0,1-.593-.593v-.3a.594.594,0,0,1,.593-.592l486.273.168a.594.594,0,0,1,.592.593v.3A.594.594,0,0,1,707.791,1820.623Z" transform="translate(-29.692 -1345.096)" fill="#2e3552"/>
    <g id="Grupo_58930" data-name="Grupo 58930" transform="translate(459.646 189.879)">
      <path id="Trazado_103986" data-name="Trazado 103986" d="M1592.861,497.7l27.775,5.746L1602.83,489.61l-1.2,4-6.892.809Z" transform="translate(-1575.28 -482.737)" fill="#95b3ef"/>
      <path id="Trazado_103987" data-name="Trazado 103987" d="M1553.88,495.023l-22.571-13.479-22.785-2.576Z" transform="translate(-1508.524 -474.314)" fill="#f9ddbf"/>
      <path id="Trazado_103988" data-name="Trazado 103988" d="M1640.682,463.513l17.806,13.836-13.161-20.709Z" transform="translate(-1613.132 -456.641)" fill="#f9ddbf"/>
    </g>
    <g id="Grupo_58931" data-name="Grupo 58931" transform="translate(274.918 268.046)">
      <path id="Trazado_103989" data-name="Trazado 103989" d="M650.143,872.672l-27.775,5.746,17.806-13.836,1.2,4,6.892.809Z" transform="translate(-622.368 -857.709)" fill="#95b3ef"/>
      <path id="Trazado_103990" data-name="Trazado 103990" d="M622.368,869.995l22.571-13.479,22.785-2.576Z" transform="translate(-622.368 -849.285)" fill="#f9ddbf"/>
      <path id="Trazado_103991" data-name="Trazado 103991" d="M640.174,838.485l-17.806,13.836,13.161-20.709Z" transform="translate(-622.368 -831.612)" fill="#f9ddbf"/>
    </g>
    <g id="Grupo_58932" data-name="Grupo 58932" transform="translate(348.201 284.14)">
      <path id="Trazado_103992" data-name="Trazado 103992" d="M973.913,916.546l.812-.966a3.538,3.538,0,0,0,2.426,1c.834,0,1.361-.384,1.361-.988,0-.549-.307-.846-1.734-1.186-1.636-.384-2.558-.867-2.558-2.305a2.35,2.35,0,0,1,2.624-2.229,4.26,4.26,0,0,1,2.789.966l-.725,1.021a3.491,3.491,0,0,0-2.086-.791c-.791,0-1.251.406-1.251.933,0,.593.351.856,1.822,1.208,1.625.4,2.47.977,2.47,2.272,0,1.438-1.131,2.294-2.745,2.294A4.733,4.733,0,0,1,973.913,916.546Z" transform="translate(-973.913 -909.651)" fill="#47286d"/>
      <path id="Trazado_103993" data-name="Trazado 103993" d="M1007.828,921.9a2.877,2.877,0,0,1,2.832-3.019c1.844,0,2.777,1.449,2.777,3.118,0,.088-.011.307-.022.373h-4.259a1.618,1.618,0,0,0,1.669,1.471,2.105,2.105,0,0,0,1.57-.692l.779.692a2.932,2.932,0,0,1-2.371,1.087A2.9,2.9,0,0,1,1007.828,921.9Zm4.292-.406a1.5,1.5,0,0,0-1.471-1.526,1.569,1.569,0,0,0-1.5,1.526Z" transform="translate(-1000.758 -916.78)" fill="#47286d"/>
      <path id="Trazado_103994" data-name="Trazado 103994" d="M1043.208,924.919v-.714a2.342,2.342,0,0,1-1.877.835,1.859,1.859,0,0,1-2.064-1.811c0-1.285,1-1.9,2.349-1.9a4.883,4.883,0,0,1,1.6.241v-.11c0-.8-.5-1.24-1.427-1.24a4.037,4.037,0,0,0-1.658.362l-.362-1.065a4.969,4.969,0,0,1,2.207-.483,2.237,2.237,0,0,1,2.547,2.448v3.436Zm.033-2.426a3.8,3.8,0,0,0-1.328-.23c-.834,0-1.328.34-1.328.922,0,.549.494.856,1.12.856.878,0,1.537-.494,1.537-1.218Z" transform="translate(-1025.643 -916.905)" fill="#47286d"/>
      <path id="Trazado_103995" data-name="Trazado 103995" d="M1072.075,919.031h1.328v1.306a2.055,2.055,0,0,1,2.053-1.416v1.4h-.077c-1.164,0-1.976.758-1.976,2.295v2.207h-1.328Z" transform="translate(-1051.612 -916.813)" fill="#47286d"/>
      <path id="Trazado_103996" data-name="Trazado 103996" d="M1091.35,921.907a2.989,2.989,0,0,1,3.008-3.03,2.9,2.9,0,0,1,2.316,1l-.824.889a1.95,1.95,0,0,0-1.5-.725,1.875,1.875,0,0,0,.066,3.732,2.041,2.041,0,0,0,1.5-.724l.8.79a2.933,2.933,0,0,1-2.371,1.087A2.964,2.964,0,0,1,1091.35,921.907Z" transform="translate(-1066.869 -916.78)" fill="#47286d"/>
      <path id="Trazado_103997" data-name="Trazado 103997" d="M1122.948,908.818h1.328v3.118a2.086,2.086,0,0,1,1.812-1.021,1.99,1.99,0,0,1,2.064,2.228v3.689h-1.328v-3.293c0-.9-.45-1.416-1.241-1.416a1.289,1.289,0,0,0-1.306,1.438v3.272h-1.328Z" transform="translate(-1091.88 -908.818)" fill="#47286d"/>
      <path id="Trazado_103998" data-name="Trazado 103998" d="M1155.177,940.047h1.46v1.5h-1.46Z" transform="translate(-1117.391 -933.537)" fill="#47286d"/>
      <path id="Trazado_103999" data-name="Trazado 103999" d="M1169.344,940.047h1.46v1.5h-1.46Z" transform="translate(-1128.604 -933.537)" fill="#47286d"/>
      <path id="Trazado_104000" data-name="Trazado 104000" d="M1183.51,940.047h1.46v1.5h-1.46Z" transform="translate(-1139.817 -933.537)" fill="#47286d"/>
      <path id="Trazado_104001" data-name="Trazado 104001" d="M1197.676,940.047h1.46v1.5h-1.46Z" transform="translate(-1151.03 -933.537)" fill="#47286d"/>
    </g>
    <g id="Grupo_58933" data-name="Grupo 58933" transform="translate(471.641 361.435)">
      <path id="Trazado_104002" data-name="Trazado 104002" d="M1566.065,1281.028a1.422,1.422,0,1,1,1.422,1.422A1.422,1.422,0,0,1,1566.065,1281.028Z" transform="translate(-1566.065 -1279.606)" fill="#d7e5ff"/>
      <path id="Trazado_104003" data-name="Trazado 104003" d="M1637.579,1285.357h-64.311a.383.383,0,0,1-.383-.383h0a.383.383,0,0,1,.383-.383h64.311a.383.383,0,0,1,.383.383h0A.383.383,0,0,1,1637.579,1285.357Z" transform="translate(-1571.463 -1283.552)" fill="#d7e5ff"/>
    </g>
  </g>
</svg>
