<svg xmlns="http://www.w3.org/2000/svg" width="198" height="198" viewBox="0 0 198 198">
  <g id="Grupo_60881" data-name="Grupo 60881" transform="translate(-897 -620)">
    <g id="Grupo_59197" data-name="Grupo 59197" transform="translate(896.94 620.162)">
      <g id="Elipse_4293" data-name="Elipse 4293" transform="translate(0.06 -0.162)" fill="#fff" stroke="#88222b" stroke-width="4">
        <circle cx="99" cy="99" r="99" stroke="none"/>
        <circle cx="99" cy="99" r="97" fill="none"/>
      </g>
    </g>
    <g id="seo_1_" data-name="seo (1)" transform="translate(937.526 661.332)">
      <path id="Trazado_104568" data-name="Trazado 104568" d="M3.909,373.152H82.1a3.91,3.91,0,0,1,3.91,3.909v23.458a3.91,3.91,0,0,1-3.91,3.909H3.909A3.909,3.909,0,0,1,0,400.519V377.061A3.909,3.909,0,0,1,3.909,373.152Zm0,0" transform="translate(0 -289.096)" fill="#e8e8e8"/>
      <path id="Trazado_104569" data-name="Trazado 104569" d="M3.909,190.914H82.1a3.911,3.911,0,0,1,3.91,3.91v23.458a3.91,3.91,0,0,1-3.91,3.909H3.909A3.909,3.909,0,0,1,0,218.281V194.824A3.91,3.91,0,0,1,3.909,190.914Zm0,0" transform="translate(0 -147.908)" fill="#e8e8e8"/>
      <path id="Trazado_104570" data-name="Trazado 104570" d="M125.4,8.68h78.191a3.909,3.909,0,0,1,3.909,3.909V36.046a3.91,3.91,0,0,1-3.909,3.91H125.4a3.91,3.91,0,0,1-3.909-3.91V12.589A3.909,3.909,0,0,1,125.4,8.68Zm0,0" transform="translate(-94.125 -6.724)" fill="#ff5364"/>
      <path id="Trazado_104571" data-name="Trazado 104571" d="M435.075,190.057a1.951,1.951,0,0,1-1.381-.573l-2.528-2.527-2.527,2.527a1.955,1.955,0,0,1-2.765-2.764l3.909-3.909a1.954,1.954,0,0,1,2.765,0l3.909,3.909a1.955,1.955,0,0,1-1.382,3.337Zm0,0" transform="translate(-329.517 -141.187)" fill="#f0c419"/>
      <path id="Trazado_104572" data-name="Trazado 104572" d="M444.533,207.651a1.955,1.955,0,0,1-1.954-1.955v-21.5a1.955,1.955,0,0,1,3.909,0v21.5A1.955,1.955,0,0,1,444.533,207.651Zm0,0" transform="translate(-342.883 -141.187)" fill="#f0c419"/>
      <path id="Trazado_104573" data-name="Trazado 104573" d="M35.891,7.821a1.951,1.951,0,0,1-1.381-.573L31.981,4.721,29.454,7.248A1.955,1.955,0,0,1,26.69,4.484L30.6.575a1.955,1.955,0,0,1,2.764,0l3.909,3.909a1.955,1.955,0,0,1-1.382,3.337Zm0,0" transform="translate(-20.253 -0.002)" fill="#ff5364"/>
      <path id="Trazado_104574" data-name="Trazado 104574" d="M45.345,25.413a1.954,1.954,0,0,1-1.954-1.954V1.956a1.955,1.955,0,1,1,3.909,0v21.5A1.955,1.955,0,0,1,45.345,25.413Zm0,0" transform="translate(-33.616)" fill="#ff5364"/>
      <path id="Trazado_104575" data-name="Trazado 104575" d="M278.789,43.391l3.511,4.58,6.263,1.394-4.093,4.224.36,5.44-6.041-1.968-6.04,1.968.359-5.44-4.093-4.224,6.263-1.394Zm0,0" transform="translate(-208.417 -33.616)" fill="#f3d55b"/>
      <g id="Grupo_59199" data-name="Grupo 59199" transform="translate(7.819 7.819)">
        <path id="Trazado_104576" data-name="Trazado 104576" d="M170.984,38.62h-21.5a1.955,1.955,0,0,1,0-3.909h21.5a1.955,1.955,0,1,1,0,3.909Zm0,0" transform="translate(-122.114 -34.711)" fill="#fff"/>
        <path id="Trazado_104577" data-name="Trazado 104577" d="M170.984,108.046h-21.5a1.955,1.955,0,0,1,0-3.909h21.5a1.955,1.955,0,1,1,0,3.909Zm0,0" transform="translate(-122.114 -88.498)" fill="#fff"/>
        <path id="Trazado_104578" data-name="Trazado 104578" d="M165.121,73.332H149.482a1.955,1.955,0,0,1,0-3.91h15.639a1.955,1.955,0,0,1,0,3.91Zm0,0" transform="translate(-122.114 -61.603)" fill="#fff"/>
        <path id="Trazado_104579" data-name="Trazado 104579" d="M387.93,38.62h-21.5a1.955,1.955,0,1,1,0-3.909h21.5a1.955,1.955,0,1,1,0,3.909Zm0,0" transform="translate(-290.191 -34.711)" fill="#fff"/>
        <path id="Trazado_104580" data-name="Trazado 104580" d="M387.93,108.046h-21.5a1.955,1.955,0,1,1,0-3.909h21.5a1.955,1.955,0,1,1,0,3.909Zm0,0" transform="translate(-290.191 -88.498)" fill="#fff"/>
        <path id="Trazado_104581" data-name="Trazado 104581" d="M408.1,73.332H392.463a1.955,1.955,0,0,1,0-3.91H408.1a1.955,1.955,0,0,1,0,3.91Zm0,0" transform="translate(-310.361 -61.603)" fill="#fff"/>
        <path id="Trazado_104582" data-name="Trazado 104582" d="M36.666,225.629H48.395a1.955,1.955,0,0,1,1.955,1.954v11.728a1.955,1.955,0,0,1-1.955,1.955H36.666a1.955,1.955,0,0,1-1.955-1.955V227.583a1.955,1.955,0,0,1,1.955-1.954Zm0,0" transform="translate(-34.711 -182.623)" fill="#fff"/>
        <path id="Trazado_104583" data-name="Trazado 104583" d="M36.666,407.863H71.852a1.955,1.955,0,0,1,1.954,1.955v3.909a1.955,1.955,0,0,1-1.954,1.955H36.666a1.955,1.955,0,0,1-1.955-1.955v-3.909A1.955,1.955,0,0,1,36.666,407.863Zm0,0" transform="translate(-34.711 -323.807)" fill="#fff"/>
        <path id="Trazado_104584" data-name="Trazado 104584" d="M264.487,415.683H244.938a1.955,1.955,0,0,1-1.954-1.955v-3.909a1.955,1.955,0,0,1,1.954-1.955h19.548a1.955,1.955,0,0,1,1.954,1.955v3.909A1.955,1.955,0,0,1,264.487,415.683Zm0,0" transform="translate(-196.069 -323.807)" fill="#fff"/>
      </g>
      <path id="Trazado_104585" data-name="Trazado 104585" d="M179.037,220.859H132.122a1.955,1.955,0,1,1,0-3.909h46.915a1.955,1.955,0,1,1,0,3.909Zm0,0" transform="translate(-100.846 -168.079)" fill="#afafaf"/>
      <path id="Trazado_104586" data-name="Trazado 104586" d="M179.037,255.57H132.122a1.955,1.955,0,1,1,0-3.909h46.915a1.955,1.955,0,1,1,0,3.909Zm0,0" transform="translate(-100.846 -194.971)" fill="#afafaf"/>
      <path id="Trazado_104587" data-name="Trazado 104587" d="M179.037,290.281H132.122a1.955,1.955,0,1,1,0-3.91h46.915a1.955,1.955,0,1,1,0,3.91Zm0,0" transform="translate(-100.846 -221.863)" fill="#afafaf"/>
      <path id="Trazado_104588" data-name="Trazado 104588" d="M67.085,472.519H27.99a1.955,1.955,0,0,1,0-3.909h39.1a1.955,1.955,0,1,1,0,3.909Zm0,0" transform="translate(-20.171 -363.051)" fill="#afafaf"/>
      <path id="Trazado_104589" data-name="Trazado 104589" d="M259.716,472.519H236.26a1.955,1.955,0,1,1,0-3.909h23.457a1.955,1.955,0,1,1,0,3.909Zm0,0" transform="translate(-181.525 -363.051)" fill="#afafaf"/>
    </g>
  </g>
</svg>
