<svg xmlns="http://www.w3.org/2000/svg" width="309" height="422" viewBox="0 0 309 422">
  <g id="Grupo_59438" data-name="Grupo 59438" transform="translate(-20 -12)">
    <g id="BACKGROUND">
      <g id="Grupo_59388" data-name="Grupo 59388" opacity="0.67">
        <path id="Trazado_104910" data-name="Trazado 104910" d="M324,171l-1.5,3-3.5,2,3.5,2,1.5,3,1.5-3.5L329,176l-3.5-2Z" fill="#d9edff"/>
        <g id="Grupo_59387" data-name="Grupo 59387">
          <g id="Grupo_59386" data-name="Grupo 59386">
            <path id="Trazado_104911" data-name="Trazado 104911" d="M257,41l-3,6-7,4,7,4,3,6,3-7,7-3-7-4Z" fill="#d9edff"/>
            <path id="Trazado_104912" data-name="Trazado 104912" d="M25,12l-1.5,3L20,17l3.5,2L25,22l1.5-3.5L30,17l-3.5-2Z" fill="#d9edff"/>
            <path id="Trazado_104913" data-name="Trazado 104913" d="M54,424l-1.5,3L49,429l3.5,2,1.5,3,1.5-3.5L59,429l-3.5-2Z" fill="#d9edff"/>
            <path id="Trazado_104914" data-name="Trazado 104914" d="M35,226l-3,6-7,4,7,4,3,6,3-7,7-3-7-4Z" fill="#d9edff"/>
          </g>
        </g>
      </g>
    </g>
    <g id="OBJECTS">
      <g id="Grupo_59404" data-name="Grupo 59404">
        <path id="Trazado_104915" data-name="Trazado 104915" d="M232.183,50.729c-42.914,1.1-84.425,16.383-116.795,44.579-18.147,15.806-35.147,36.856-43.093,63.752C51.1,230.78,128.53,251.155,213.29,231.6S300.495,71.854,273.6,57.184C263.581,51.72,247.908,50.326,232.183,50.729Z" fill="#fff" opacity="0.67"/>
        <g id="Grupo_59403" data-name="Grupo 59403">
          <path id="Trazado_104916" data-name="Trazado 104916" d="M200.777,120.272a35.379,35.379,0,0,1,24.909-22.8c9.751-2.306,20.444-1.109,27.1,10.866,14.782,26.608,34.739,23.652,33.26,48.043s-10.347,36.956-6.652,60.608H184.783s-.739-68.739,5.174-79.825C194.228,129.154,198.113,127.7,200.777,120.272Z" fill="#2d3561"/>
          <path id="Trazado_104917" data-name="Trazado 104917" d="M190.954,179.2,168.02,144.929s-10.71,1.083-13.249,8.8c0,0,12.491,43.869,15.4,48.032S203.607,212.228,190.954,179.2Z" fill="#a05fef"/>
          <path id="Trazado_104918" data-name="Trazado 104918" d="M194.392,137.162s-2.554,2.426-2.957,2.956c-2.144,2.827-5.21,9.755-6.652,15.522-1.712,6.848-2.375,26.889-2.375,26.889l10.272,5.991,5.408-53.576" fill="#a05fef"/>
          <path id="Trazado_104919" data-name="Trazado 104919" d="M253.26,221.484a43.026,43.026,0,0,0,3.958-5.236s8.456-39.565,8.456-56.413-6.065-19.543-12.13-22.239-17.761-8.565-17.761-8.565-11.217,7.891-19.3-2.217c0,0-14.116,5.261-21.348,9.608-4.2,2.522-16.261,77.608-16.261,77.608a16.333,16.333,0,0,0,1.647,4.315C204.793,218.611,229.025,220.09,253.26,221.484Z" fill="#bb83ff"/>
          <path id="Trazado_104920" data-name="Trazado 104920" d="M217.3,121.64l-1.478,8.13s9.608,12.565,19.956,0l.739-11.826Z" fill="#ffb9b0"/>
          <path id="Trazado_104921" data-name="Trazado 104921" d="M239.479,114.969s5.913-2.938,7.391-7.373-5.913-1.478-5.913-1.478Z" fill="#2d3561"/>
          <path id="Trazado_104922" data-name="Trazado 104922" d="M217.145,122.517a21.688,21.688,0,0,0,18.925,2.663l.452-6.559Z" fill="#f99f98"/>
          <path id="Trazado_104923" data-name="Trazado 104923" d="M210.653,86.162s-2.957,19.217-.739,28.826,15.521,9.608,22.173,7.391,10.348-12.565,10.348-12.565a4.653,4.653,0,0,0,6.652-1.478c2.957-4.435,2.957-12.566-.739-14.783s-5.913,2.217-5.913,2.217,1.478-15.521-9.609-17.738S211.392,79.51,210.653,86.162Z" fill="#ffb9b0"/>
          <path id="Trazado_104924" data-name="Trazado 104924" d="M243.275,98.686a2.008,2.008,0,0,1,2.068-1.62,3.27,3.27,0,0,1,2.266.922c1.478,1.478.739,7.391-1.478,8.13a1.661,1.661,0,0,1-1.479-2.956c1.479-.739.74-3.7-.739-3.7C243.322,99.466,243.2,99.111,243.275,98.686Z" fill="#f99f98"/>
          <path id="Trazado_104925" data-name="Trazado 104925" d="M236.671,87.191a7.632,7.632,0,0,1,2.024-1.07c2.53-.866,5.238-.351,7.75.3a39.02,39.02,0,0,0,7.247,1.31c1.863-.978,4.515-3.274,3.526-8.222-1.479-7.392-7.392-4.435-7.392-4.435a7.2,7.2,0,0,0-.739-6.652c-2.217-3.7-6.652-1.478-6.652-1.478,0-2.218-1.478-8.131-5.913-8.131a6.366,6.366,0,0,0-5.913,3.7,5.514,5.514,0,0,0-6.652-.739c-2.285,1.371-2.957,5.913,1.478,6.652,2.382.4-6.652,3.695-6.652,3.695s-7.391-6.652-11.826-5.173S204,73.6,204,73.6s-6.653.739-7.392,7.391S204,89.118,204,89.118c7.391.74,7.391-4.434,7.391-4.434s.739,2.956,5.913,4.434S224.7,86.9,224.7,86.9c1.212,4.241,5.9,3.516,7.548,3.117A9.328,9.328,0,0,1,236.671,87.191Z" fill="#2d3561"/>
          <circle id="Elipse_4320" data-name="Elipse 4320" cx="5.913" cy="5.913" r="5.913" transform="translate(224.696 80.988)" fill="#2d3561"/>
          <path id="Trazado_104926" data-name="Trazado 104926" d="M245.392,86.162a5.174,5.174,0,1,1-5.174-5.174A5.175,5.175,0,0,1,245.392,86.162Z" fill="#2d3561"/>
          <circle id="Elipse_4321" data-name="Elipse 4321" cx="6.652" cy="6.652" r="6.652" transform="translate(241.696 82.466)" fill="#2d3561"/>
          <path id="Trazado_104927" data-name="Trazado 104927" d="M239.639,91.3s.579,5.207.579,7.424,2.956.739,2.956,0a7.049,7.049,0,0,1,1.043-4.4c1.175-1.515-1.043-5.211-1.043-5.211h-3.695Z" fill="#2d3561"/>
          <path id="Trazado_104928" data-name="Trazado 104928" d="M219.522,94.292,217.3,103.9l5.913.739Z" fill="#ff6c7e"/>
          <path id="Trazado_104929" data-name="Trazado 104929" d="M224.862,92.542s7.426-.186,7.942,2.817-5.325,1.826-7.426.186S224.125,92.487,224.862,92.542Z" fill="#2d3561"/>
          <path id="Trazado_104930" data-name="Trazado 104930" d="M217.244,92.542s-7.425-.186-7.942,2.817,5.325,1.826,7.426.186S217.981,92.487,217.244,92.542Z" fill="#2d3561"/>
          <path id="Trazado_104931" data-name="Trazado 104931" d="M215.087,99.466c0,.817-.33,1.478-.739,1.478s-.739-.661-.739-1.478.331-1.478.739-1.478S215.087,98.65,215.087,99.466Z" fill="#2d3561"/>
          <path id="Trazado_104932" data-name="Trazado 104932" d="M226.913,100.205c0,.817-.33,1.479-.739,1.479s-.739-.662-.739-1.479.331-1.478.739-1.478S226.913,99.389,226.913,100.205Z" fill="#2d3561"/>
          <path id="Trazado_104933" data-name="Trazado 104933" d="M215.827,107.6a3.52,3.52,0,0,0-2.957,2.218,6.012,6.012,0,0,0,4.435,7.391c5.913,1.478,13.3-1.478,12.565-5.174s-4.435-3.695-7.391-1.478C219.892,112.493,218.783,107.6,215.827,107.6Z" fill="#fff"/>
          <rect id="Rectángulo_5808" data-name="Rectángulo 5808" width="230.607" height="9.609" transform="translate(58.393 214.031)" fill="#b25478"/>
          <g id="Grupo_59389" data-name="Grupo 59389">
            <rect id="Rectángulo_5809" data-name="Rectángulo 5809" width="107.912" height="70.956" rx="7.755" transform="translate(76.871 114.988)" fill="#2d3561"/>
            <rect id="Rectángulo_5810" data-name="Rectángulo 5810" width="41.391" height="53.217" rx="8.468" transform="translate(109.393 136.422)" fill="#374270"/>
            <path id="Trazado_104934" data-name="Trazado 104934" d="M139.7,214.03H120.479V160.814a9.609,9.609,0,0,1,9.609-9.609h0a9.609,9.609,0,0,1,9.609,9.609Z" fill="#2d3561"/>
            <path id="Trazado_104935" data-name="Trazado 104935" d="M87.219,157.709H76.871V155.64H87.219a1.035,1.035,0,0,1,1.035,1.034h0A1.035,1.035,0,0,1,87.219,157.709Z" fill="#242c51"/>
            <path id="Trazado_104936" data-name="Trazado 104936" d="M87.219,161.848H76.871v-2.069H87.219a1.035,1.035,0,0,1,1.035,1.035h0A1.035,1.035,0,0,1,87.219,161.848Z" fill="#242c51"/>
            <path id="Trazado_104937" data-name="Trazado 104937" d="M87.219,165.987H76.871v-2.069H87.219a1.035,1.035,0,0,1,1.035,1.035h0A1.035,1.035,0,0,1,87.219,165.987Z" fill="#242c51"/>
            <path id="Trazado_104938" data-name="Trazado 104938" d="M173.992,163.918H184.34v2.069H173.992a1.035,1.035,0,0,1-1.035-1.034h0A1.035,1.035,0,0,1,173.992,163.918Z" fill="#242c51"/>
            <path id="Trazado_104939" data-name="Trazado 104939" d="M173.992,159.779H184.34v2.069H173.992a1.035,1.035,0,0,1-1.035-1.034h0A1.035,1.035,0,0,1,173.992,159.779Z" fill="#242c51"/>
            <path id="Trazado_104940" data-name="Trazado 104940" d="M173.992,155.64H184.34v2.069H173.992a1.035,1.035,0,0,1-1.035-1.035h0A1.035,1.035,0,0,1,173.992,155.64Z" fill="#242c51"/>
            <path id="Trazado_104941" data-name="Trazado 104941" d="M160.392,175.6a1.478,1.478,0,1,1-1.478-1.478A1.478,1.478,0,0,1,160.392,175.6Z" fill="#242c51"/>
            <path id="Trazado_104942" data-name="Trazado 104942" d="M168.523,175.6a1.479,1.479,0,1,1-1.479-1.478A1.478,1.478,0,0,1,168.523,175.6Z" fill="#242c51"/>
            <path id="Trazado_104943" data-name="Trazado 104943" d="M176.653,175.6a1.479,1.479,0,1,1-1.478-1.478A1.478,1.478,0,0,1,176.653,175.6Z" fill="#242c51"/>
            <path id="Rectángulo_5811" data-name="Rectángulo 5811" d="M2.532,0h68.11a2.532,2.532,0,0,1,2.532,2.532V3.7a0,0,0,0,1,0,0H0a0,0,0,0,1,0,0V2.532A2.532,2.532,0,0,1,2.532,0Z" transform="translate(93.871 210.335)" fill="#2d3561"/>
          </g>
          <path id="Trazado_104944" data-name="Trazado 104944" d="M233.43,209.149h0a1.855,1.855,0,0,0-1-.292H163a1.871,1.871,0,0,0-1.872,1.871v3.3h84.261v-.241a1.637,1.637,0,0,0-1.19-1.575Z" fill="#374270"/>
          <path id="Trazado_104945" data-name="Trazado 104945" d="M215.827,140.127l-4.848-11.155-9.222-7.332-11.509.806S190,123,193,124a26.386,26.386,0,0,0,7,1l2.788,3.9-7.1-2.581L186,129a8.587,8.587,0,0,0,4,1c2.626.116,5,0,5,0l5,2-7.094.128-5.179,3.227s3.158,1.067,4.273.645,3.119-1.056,3.119-1.056l4.766,1.478,2.082,5.2,7.3,6Z" fill="#ffb9b0"/>
          <path id="Trazado_104946" data-name="Trazado 104946" d="M259.435,140.857s9.609,6.652,12.565,24.391-8.13,36.217-14.782,39.913-50.261-48.782-51.739-53.217,4.435-14.043,14.782-12.565l30.3,26.608S243.913,143.814,259.435,140.857Z" fill="#a05fef"/>
          <path id="Trazado_104947" data-name="Trazado 104947" d="M252.783,99.1c0,5.1-2.482,9.239-5.544,9.239S241.7,104.2,241.7,99.1s2.482-9.239,5.543-9.239S252.783,93.994,252.783,99.1Z" fill="#5a81ff"/>
          <ellipse id="Elipse_4322" data-name="Elipse 4322" cx="3.651" cy="7.022" rx="3.651" ry="7.022" transform="translate(245.805 92.075)" fill="#719aff"/>
          <path id="Trazado_104948" data-name="Trazado 104948" d="M219,72l6.435-3.577S245.2,67.89,248.989,90.33l-4.482,2.21S243.391,72,219,72Z" fill="#5a81ff"/>
          <path id="Trazado_104949" data-name="Trazado 104949" d="M244.652,103.162s-4.434,8.13-15.521,8.13" fill="none" stroke="#5a81ff" stroke-miterlimit="10" stroke-width="1"/>
          <path id="Trazado_104950" data-name="Trazado 104950" d="M232.457,111.292c0,.612-.993,1.109-2.217,1.109s-2.218-.5-2.218-1.109.993-1.108,2.218-1.108S232.457,110.68,232.457,111.292Z" fill="#5a81ff"/>
          <g id="Grupo_59402" data-name="Grupo 59402">
            <g id="Grupo_59400" data-name="Grupo 59400">
              <g id="Grupo_59390" data-name="Grupo 59390">
                <path id="Trazado_104951" data-name="Trazado 104951" d="M153.919,97.323l.508-.142,11.39-.756s.694.135.909.514,1.862,6.707,1.795,8.039a7.061,7.061,0,0,1-1.039,3.354,7.836,7.836,0,0,1-2.6.5c-.638.068-10.143.519-10.143.519Z" fill="#374270"/>
              </g>
              <g id="Grupo_59391" data-name="Grupo 59391">
                <path id="Trazado_104952" data-name="Trazado 104952" d="M155.553,109.433l-23.408,1.649-3.323-1.377-.49-9.411,2.948-1.7,23.888-1.551S157.234,103.867,155.553,109.433Z" fill="#2d3561"/>
              </g>
              <g id="Grupo_59392" data-name="Grupo 59392">
                <path id="Trazado_104953" data-name="Trazado 104953" d="M168.462,105.509s0,1.227-1.646,1.335-12.228.509-12.228.509l-.107,1.255,12.2-.613S168.793,107.983,168.462,105.509Z" fill="#2d3561"/>
              </g>
              <g id="Grupo_59395" data-name="Grupo 59395">
                <g id="Grupo_59393" data-name="Grupo 59393">
                  <path id="Trazado_104954" data-name="Trazado 104954" d="M150.454,99.011c-.74.06-1.308.516-1.267,1.019s.673.864,1.413.8,1.307-.515,1.267-1.019S151.194,98.952,150.454,99.011Z" fill="#374270"/>
                </g>
                <g id="Grupo_59394" data-name="Grupo 59394">
                  <path id="Trazado_104955" data-name="Trazado 104955" d="M143,99.46c-.74.059-1.308.515-1.267,1.019s.673.863,1.413.8,1.307-.516,1.267-1.019S143.74,99.4,143,99.46Z" fill="#374270"/>
                </g>
              </g>
              <g id="Grupo_59398" data-name="Grupo 59398">
                <g id="Grupo_59396" data-name="Grupo 59396">
                  <path id="Trazado_104956" data-name="Trazado 104956" d="M150.481,98.565c-.705.057-1.246.492-1.207.971s.641.823,1.346.766,1.246-.491,1.207-.97S151.186,98.509,150.481,98.565Z" fill="#374270"/>
                </g>
                <g id="Grupo_59397" data-name="Grupo 59397">
                  <path id="Trazado_104957" data-name="Trazado 104957" d="M143.039,98.973c-.705.056-1.245.491-1.207.971s.641.822,1.347.766,1.245-.491,1.207-.971S143.745,98.916,143.039,98.973Z" fill="#374270"/>
                </g>
              </g>
              <g id="Grupo_59399" data-name="Grupo 59399">
                <path id="Trazado_104958" data-name="Trazado 104958" d="M128.658,100.153c-.79.044-1.312,2.25-1.164,4.928s.909,4.812,1.7,4.769,1.312-2.25,1.164-4.928S129.449,100.11,128.658,100.153Z" fill="#2d3561"/>
              </g>
            </g>
            <g id="Grupo_59401" data-name="Grupo 59401">
              <path id="Trazado_104959" data-name="Trazado 104959" d="M86.551,215.292l-3.716,1.444L52.4,124.377l3.716-1.444Z" fill="#2d3561"/>
              <rect id="Rectángulo_5812" data-name="Rectángulo 5812" width="1.989" height="95.233" transform="translate(140.833 83.572) rotate(66.792)" fill="#374270"/>
              <rect id="Rectángulo_5813" data-name="Rectángulo 5813" width="1.989" height="95.233" transform="translate(141.853 86.123) rotate(66.792)" fill="#374270"/>
              <rect id="Rectángulo_5814" data-name="Rectángulo 5814" width="9.691" height="17.348" rx="2.67" transform="translate(79.73 208.185)" fill="#2d3561"/>
              <path id="Trazado_104960" data-name="Trazado 104960" d="M86.361,216.348a2.041,2.041,0,1,1-2.04-2.041A2.04,2.04,0,0,1,86.361,216.348Z" fill="#374270"/>
              <path id="Trazado_104961" data-name="Trazado 104961" d="M58.161,123.443a4.08,4.08,0,1,1-4.08-4.082A4.081,4.081,0,0,1,58.161,123.443Z" fill="#374270"/>
              <path id="Trazado_104962" data-name="Trazado 104962" d="M56.631,123.443a2.551,2.551,0,1,1-2.55-2.551A2.551,2.551,0,0,1,56.631,123.443Z" fill="#2d3561"/>
              <circle id="Elipse_4323" data-name="Elipse 4323" cx="4.081" cy="4.081" r="4.081" transform="translate(136.2 82.115)" fill="#374270"/>
              <circle id="Elipse_4324" data-name="Elipse 4324" cx="2.551" cy="2.551" r="2.551" transform="translate(137.73 83.645)" fill="#2d3561"/>
              <path id="Trazado_104963" data-name="Trazado 104963" d="M140.436,97.988h4.435l-1.746-9.046-3.735.486Z" fill="#374270"/>
            </g>
          </g>
        </g>
      </g>
      <g id="Grupo_59432" data-name="Grupo 59432">
        <path id="Trazado_104964" data-name="Trazado 104964" d="M68.741,340.134c30.092,18.515,65.587,26.617,100.576,21.708,19.614-2.753,40.794-9.636,58.353-24.617,46.826-39.95,2.575-88.775-64.67-113.351S31.112,294.884,43.074,317.081C47.53,325.35,57.714,333.35,68.741,340.134Z" fill="#fff" opacity="0.67"/>
        <g id="Grupo_59431" data-name="Grupo 59431">
          <g id="Grupo_59405" data-name="Grupo 59405">
            <path id="Trazado_104965" data-name="Trazado 104965" d="M183.006,267.516s2.81-8.177,13.629-7.506,23.617,8.879,26.076,13.916-.9,11.5-.9,11.5Z" fill="#47286d"/>
          </g>
          <g id="Grupo_59406" data-name="Grupo 59406">
            <path id="Trazado_104966" data-name="Trazado 104966" d="M137.6,250.387s2.81-8.178-6.134-14.3-24.085-7.517-29.122-5.057-6.356,9.625-6.356,9.625Z" fill="#47286d"/>
          </g>
          <g id="Grupo_59407" data-name="Grupo 59407">
            <path id="Trazado_104967" data-name="Trazado 104967" d="M161.38,265.036s-13.853-5.142-20.274-13.064-11.148-14.119-21.04-16.376-24.831-.915-37.491,12.64-29.28,36.416-38.7,57.179-3.023,30.964,9.158,32.1,27.023-26.524,47.541-27.472c0,0,13.108-.448,27.834,8.805s28.77,6.079,38.524,10.955,11.212,7.283,15.248,14.385,4.249,33.083,8.4,39.844,16.046,14.278,23.553,3.524S230.2,338.6,229.367,317.741s-5.57-38.108-13.14-44.9-17.346-9.391-22.254-8.412S172.624,268.9,161.38,265.036Z" fill="#2d3561"/>
          </g>
          <g id="Grupo_59408" data-name="Grupo 59408">
            <path id="Trazado_104968" data-name="Trazado 104968" d="M127.254,271.213a21.618,21.618,0,1,1-13.417-27.471A21.617,21.617,0,0,1,127.254,271.213Z" fill="#374270"/>
          </g>
          <g id="Grupo_59409" data-name="Grupo 59409">
            <circle id="Elipse_4325" data-name="Elipse 4325" cx="21.618" cy="21.618" r="21.618" transform="matrix(0.12, -0.993, 0.993, 0.12, 173.727, 314.32)" fill="#374270"/>
          </g>
          <g id="Grupo_59414" data-name="Grupo 59414">
            <g id="Grupo_59410" data-name="Grupo 59410">
              <circle id="Elipse_4326" data-name="Elipse 4326" cx="5.044" cy="5.044" r="5.044" transform="translate(194.967 281.716) rotate(-27.417)" fill="#f9e478"/>
            </g>
            <g id="Grupo_59411" data-name="Grupo 59411">
              <circle id="Elipse_4327" data-name="Elipse 4327" cx="5.044" cy="5.044" r="5.044" transform="translate(187.167 304.404) rotate(-26.223)" fill="#31d9e7"/>
            </g>
            <g id="Grupo_59412" data-name="Grupo 59412">
              <circle id="Elipse_4328" data-name="Elipse 4328" cx="5.044" cy="5.044" r="5.044" transform="translate(203.241 297.551) rotate(-27.704)" fill="#31d9e7"/>
            </g>
            <g id="Grupo_59413" data-name="Grupo 59413">
              <path id="Trazado_104969" data-name="Trazado 104969" d="M189.948,292.762a5.044,5.044,0,1,1-3.13-6.41A5.043,5.043,0,0,1,189.948,292.762Z" fill="#f9e478"/>
            </g>
          </g>
          <g id="Grupo_59419" data-name="Grupo 59419">
            <g id="Grupo_59415" data-name="Grupo 59415">
              <path id="Trazado_104970" data-name="Trazado 104970" d="M97.8,273.938a5.044,5.044,0,1,1,3.127,6.412A5.045,5.045,0,0,1,97.8,273.938Z" fill="#f9e478"/>
            </g>
            <g id="Grupo_59416" data-name="Grupo 59416">
              <path id="Trazado_104971" data-name="Trazado 104971" d="M105.665,251.114a5.044,5.044,0,1,1,3.126,6.412A5.045,5.045,0,0,1,105.665,251.114Z" fill="#31d9e7"/>
            </g>
            <g id="Grupo_59417" data-name="Grupo 59417">
              <path id="Trazado_104972" data-name="Trazado 104972" d="M89.529,258.131a5.044,5.044,0,1,1,3.127,6.412A5.044,5.044,0,0,1,89.529,258.131Z" fill="#31d9e7"/>
            </g>
            <g id="Grupo_59418" data-name="Grupo 59418">
              <path id="Trazado_104973" data-name="Trazado 104973" d="M114.4,266.7a5.044,5.044,0,1,1,3.127,6.412A5.045,5.045,0,0,1,114.4,266.7Z" fill="#f9e478"/>
            </g>
          </g>
          <g id="Grupo_59420" data-name="Grupo 59420">
            <circle id="Elipse_4329" data-name="Elipse 4329" cx="15.99" cy="15.99" r="15.99" transform="translate(137.614 319.294) rotate(-27.208)" fill="#2d3561"/>
          </g>
          <g id="Grupo_59424" data-name="Grupo 59424">
            <g id="Grupo_59421" data-name="Grupo 59421">
              <circle id="Elipse_4330" data-name="Elipse 4330" cx="10.873" cy="10.873" r="10.873" transform="translate(146.896 335.499) rotate(-82.188)" fill="#151b35"/>
            </g>
            <g id="Grupo_59422" data-name="Grupo 59422" opacity="0.11">
              <path id="Trazado_104974" data-name="Trazado 104974" d="M160.529,316.335a6.7,6.7,0,0,0-4.11.488,6.573,6.573,0,0,0-4.109,5c-.718,4.713,11.014,4.688,12.526,1.6C166.112,320.82,164.229,317.13,160.529,316.335Z" fill="#fff"/>
            </g>
            <g id="Grupo_59423" data-name="Grupo 59423" opacity="0.11">
              <path id="Trazado_104975" data-name="Trazado 104975" d="M163.969,318.315a2.314,2.314,0,0,0-3.43,1.194,1.521,1.521,0,0,0,.541,1.724c1.739,1.5,4.865-1.034,3.529-2.395A3.686,3.686,0,0,0,163.969,318.315Z" fill="#fff"/>
            </g>
          </g>
          <g id="Grupo_59425" data-name="Grupo 59425">
            <path id="Trazado_104976" data-name="Trazado 104976" d="M108.4,302.085l-5.452-1.874a2.168,2.168,0,0,1-1.341-2.747h0a2.168,2.168,0,0,1,2.747-1.342L109.807,298a2.167,2.167,0,0,1,1.342,2.747h0A2.168,2.168,0,0,1,108.4,302.085Z" fill="#151b35"/>
          </g>
          <g id="Grupo_59426" data-name="Grupo 59426">
            <path id="Trazado_104977" data-name="Trazado 104977" d="M123.735,307.355l-5.452-1.874a2.167,2.167,0,0,1-1.341-2.747h0a2.169,2.169,0,0,1,2.747-1.342l5.451,1.874a2.168,2.168,0,0,1,1.342,2.747h0A2.167,2.167,0,0,1,123.735,307.355Z" fill="#151b35"/>
          </g>
          <g id="Grupo_59427" data-name="Grupo 59427">
            <circle id="Elipse_4331" data-name="Elipse 4331" cx="11.71" cy="11.71" r="11.71" transform="translate(136.425 276.164) rotate(-26.306)" fill="#47286d"/>
          </g>
          <g id="Grupo_59428" data-name="Grupo 59428">
            <path id="Trazado_104978" data-name="Trazado 104978" d="M73.923,258.215s12.805,8.974,2.509,25.627-2.329,26.9,16.591,27.744c0,0-6.389,2.664-9.546,5.082s-11.511,9.431-14.628,12.18-11.128,12.206-21.364,7.345-8.061-15.37-8.061-15.37a48.32,48.32,0,0,1,6.466-19.667l7.818-14.212S65.271,268.2,73.923,258.215Z" fill="#bb83ff"/>
          </g>
          <g id="Grupo_59429" data-name="Grupo 59429">
            <path id="Trazado_104979" data-name="Trazado 104979" d="M228.861,311.471s-15.616-.8-17.735,18.669-14.7,22.648-30.142,11.681c0,0,2.394,6.519,3.4,10.367s2.139,14.059,2.907,18.143-.17,18.229,13.012,22c10.342,2.957,14.968-4.6,16.575-8.335.639-1.485,1.432-2.895,2.139-4.349a52.612,52.612,0,0,0,5.556-17.072l2.572-16.016S230.89,325.5,228.861,311.471Z" fill="#bb83ff"/>
          </g>
          <g id="Grupo_59430" data-name="Grupo 59430">
            <path id="Trazado_104980" data-name="Trazado 104980" d="M145.734,299.471c-8.245-2.834-16.881-10.922-11.2-33.36,5.222-20.631-5.5-26.463-5.605-26.519l.166-.321a13.03,13.03,0,0,1,4.921,5.554c1.921,3.724,3.631,10.456.867,21.374-5.613,22.173,2.867,30.147,10.969,32.932,10.685,3.672,17.63,1.206,23.222-8.249,1.1-1.866,2.172-3.879,3.206-5.825,5.087-9.58,10.347-19.486,23.419-21l.041.358c-12.884,1.488-18.1,11.309-23.142,20.807-1.035,1.95-2.106,3.966-3.214,5.84-3.052,5.159-6.571,8.256-10.761,9.467C154.991,301.583,150.9,301.246,145.734,299.471Z" fill="#5a81ff"/>
          </g>
        </g>
      </g>
      <g id="Grupo_59434" data-name="Grupo 59434">
        <rect id="Rectángulo_5815" data-name="Rectángulo 5815" width="71" height="27" transform="translate(222 256)" fill="#f17781"/>
        <g id="Grupo_59433" data-name="Grupo 59433">
          <text id="LIVE" transform="translate(233.912 275.201)" fill="#fff" font-size="18.918" font-family="Baloo-Regular, Baloo"><tspan x="0" y="0">LIVE</tspan></text>
          <circle id="Elipse_4332" data-name="Elipse 4332" cx="3.5" cy="3.5" r="3.5" transform="translate(275 266)" fill="#fff"/>
        </g>
        <path id="Trazado_104981" data-name="Trazado 104981" d="M222,281.3V293l18-10Z" fill="#f17781"/>
      </g>
      <g id="Grupo_59437" data-name="Grupo 59437">
        <rect id="Rectángulo_5816" data-name="Rectángulo 5816" width="56" height="23.758" transform="translate(49 62.121)" fill="#f17781"/>
        <g id="Grupo_59436" data-name="Grupo 59436">
          <g id="Grupo_59435" data-name="Grupo 59435">
            <rect id="Rectángulo_5817" data-name="Rectángulo 5817" width="5.531" height="16.97" rx="0.561" transform="translate(59.983 65.515)" fill="#fff"/>
            <rect id="Rectángulo_5818" data-name="Rectángulo 5818" width="5.531" height="16.97" rx="0.561" transform="translate(68.971 65.515)" fill="#fff"/>
            <path id="Trazado_104982" data-name="Trazado 104982" d="M82.939,66.356V80.823a.482.482,0,0,0,.771.34l10.609-7.577a.411.411,0,0,0-.018-.693L83.692,66A.481.481,0,0,0,82.939,66.356Z" fill="#fff"/>
          </g>
        </g>
      </g>
    </g>
  </g>
</svg>
