<svg xmlns="http://www.w3.org/2000/svg" width="72.872" height="74.087" viewBox="0 0 72.872 74.087">
  <g id="megafono" transform="translate(-2 -1)">
    <path id="Trazado_102838" data-name="Trazado 102838" d="M44.509,58.72H42.08v-11.9a1.215,1.215,0,0,0-2.429,0v11.9H8.073V34.429h10.1a1.215,1.215,0,0,0,0-2.429H6.858a1.215,1.215,0,0,0-1.215,1.215V58.72H3.215A1.215,1.215,0,0,0,2,59.934v2.429a6.073,6.073,0,0,0,6.073,6.073H39.651a6.073,6.073,0,0,0,6.073-6.073V59.934A1.215,1.215,0,0,0,44.509,58.72Zm-1.215,3.644a3.644,3.644,0,0,1-3.644,3.644H37.221V64.792a1.215,1.215,0,1,0-2.429,0v1.215H12.931V64.792a1.215,1.215,0,1,0-2.429,0v1.215H8.073a3.644,3.644,0,0,1-3.644-3.644V61.149H43.294Z" transform="translate(0 6.651)" fill="#47286d"/>
    <path id="Trazado_102839" data-name="Trazado 102839" d="M55.073,8.429H57.5A1.215,1.215,0,1,0,57.5,6H55.073a3.644,3.644,0,0,0-3.644,3.644v1.215H50.215a1.215,1.215,0,0,0,0,2.429h1.215v3.644a1.215,1.215,0,0,0,2.429,0V13.287h1.215a1.215,1.215,0,1,0,0-2.429H53.858V9.644A1.215,1.215,0,0,1,55.073,8.429Z" transform="translate(10.083 1.073)" fill="#47286d"/>
    <path id="Trazado_102840" data-name="Trazado 102840" d="M62.218,2H47.644A3.644,3.644,0,0,0,44,5.644V8.073a1.215,1.215,0,1,0,2.429,0V5.644a1.215,1.215,0,0,1,1.215-1.215H62.218a1.215,1.215,0,0,1,1.215,1.215V20.218a1.215,1.215,0,0,1-1.215,1.215H47.644a1.215,1.215,0,0,1-1.215-1.215V12.931a1.215,1.215,0,0,0-2.429,0v7.287a3.644,3.644,0,0,0,3.644,3.644H62.218a3.644,3.644,0,0,0,3.644-3.644V5.644A3.644,3.644,0,0,0,62.218,2Z" transform="translate(9.01 0.215)" fill="#47286d"/>
    <path id="Trazado_102841" data-name="Trazado 102841" d="M49,42.858A4.858,4.858,0,1,0,53.858,38,4.858,4.858,0,0,0,49,42.858Zm7.287,0a2.429,2.429,0,1,1-2.429-2.429A2.429,2.429,0,0,1,56.287,42.858Z" transform="translate(10.083 7.938)" fill="#47286d"/>
    <path id="Trazado_102842" data-name="Trazado 102842" d="M62.218,33H47.644A3.644,3.644,0,0,0,44,36.644V51.218a3.644,3.644,0,0,0,3.644,3.644H62.218a3.644,3.644,0,0,0,3.644-3.644V48.789a1.215,1.215,0,1,0-2.429,0v2.429a1.215,1.215,0,0,1-1.215,1.215H47.644a1.215,1.215,0,0,1-1.215-1.215V36.644a1.215,1.215,0,0,1,1.215-1.215H62.218a1.215,1.215,0,0,1,1.215,1.215v7.287a1.215,1.215,0,1,0,2.429,0V36.644A3.644,3.644,0,0,0,62.218,33Z" transform="translate(9.01 6.865)" fill="#47286d"/>
    <path id="Trazado_102843" data-name="Trazado 102843" d="M24.571,15.533a1.208,1.208,0,0,0,1.19.049l7.287-3.644a1.215,1.215,0,0,0,0-2.162L25.761,6.133A1.215,1.215,0,0,0,24,7.214V14.5A1.215,1.215,0,0,0,24.571,15.533Zm1.858-6.352,3.352,1.676-3.352,1.676Z" transform="translate(4.72 1.073)" fill="#47286d"/>
    <path id="Trazado_102844" data-name="Trazado 102844" d="M28.931,22.862A10.931,10.931,0,1,0,18,11.931,10.931,10.931,0,0,0,28.931,22.862Zm0-19.433a8.5,8.5,0,1,1-8.5,8.5,8.5,8.5,0,0,1,8.5-8.5Z" transform="translate(3.433)" fill="#47286d"/>
    <path id="Trazado_102845" data-name="Trazado 102845" d="M37.215,24.287a1.215,1.215,0,0,0,.972-.486l3.644-4.858a1.215,1.215,0,1,0-1.943-1.457l-3.644,4.858a1.215,1.215,0,0,0,.972,1.943Z" transform="translate(7.294 3.433)" fill="#47286d"/>
    <path id="Trazado_102846" data-name="Trazado 102846" d="M39.243,27.587a1.215,1.215,0,0,0,1.7.243L45.8,24.186a1.215,1.215,0,1,0-1.457-1.943l-4.858,3.644a1.215,1.215,0,0,0-.243,1.7Z" transform="translate(7.938 4.505)" fill="#47286d"/>
    <path id="Trazado_102847" data-name="Trazado 102847" d="M50.524,28.977a1.215,1.215,0,0,0-1.457-.972L42.994,29.22a1.221,1.221,0,0,0,.243,2.429h.243l6.073-1.215a1.215,1.215,0,0,0,.972-1.457Z" transform="translate(8.559 5.787)" fill="#47286d"/>
    <path id="Trazado_102848" data-name="Trazado 102848" d="M3.215,32.862H17.789A1.215,1.215,0,0,0,19,31.647V12.215A1.215,1.215,0,0,0,17.789,11H3.215A1.215,1.215,0,0,0,2,12.215V31.647A1.215,1.215,0,0,0,3.215,32.862ZM4.429,13.429H16.574v17H4.429Z" transform="translate(0 2.145)" fill="#47286d"/>
    <path id="Trazado_102849" data-name="Trazado 102849" d="M11.644,15H9.215a1.215,1.215,0,0,0,0,2.429h2.429a1.215,1.215,0,0,0,0-2.429Z" transform="translate(1.287 3.003)" fill="#47286d"/>
    <path id="Trazado_102850" data-name="Trazado 102850" d="M12.073,19H7.215a1.215,1.215,0,0,0,0,2.429h4.858a1.215,1.215,0,0,0,0-2.429Z" transform="translate(0.858 3.862)" fill="#47286d"/>
    <path id="Trazado_102851" data-name="Trazado 102851" d="M12.073,23H7.215a1.215,1.215,0,1,0,0,2.429h4.858a1.215,1.215,0,1,0,0-2.429Z" transform="translate(0.858 4.72)" fill="#47286d"/>
    <path id="Trazado_102852" data-name="Trazado 102852" d="M41.931,29.922a1.219,1.219,0,0,0-2.113,1.215L45.174,40.4,25.741,47.691h-.182L22.4,49.513l-2.1,1.215a2.425,2.425,0,0,1-3.316-.887l-2.429-4.2a2.429,2.429,0,0,1,.911-3.206L19.668,40,22.7,45.262a1.219,1.219,0,1,0,2.113-1.215L21.685,38.63,36.927,26.06l.5.862a1.219,1.219,0,0,0,2.113-1.215l-1.215-2.1a1.231,1.231,0,0,0-1.834-.328l-17,14.016-5.174,2.988a4.858,4.858,0,0,0-2.235,5.5l-1.215.692a3.641,3.641,0,0,0,1.822,6.8,3.717,3.717,0,0,0,1.822-.486l1.215-.692a4.712,4.712,0,0,0,2.125,1.263,4.6,4.6,0,0,0,1.275.17,4.785,4.785,0,0,0,2.429-.656l1.057-.607,2.429,4.214a3.64,3.64,0,1,0,6.3-3.644l-2.21-3.85,18.218-6.838a1.218,1.218,0,0,0,.632-1.737ZM13.244,50.679a1.213,1.213,0,1,1-1.215-2.1l1.057-.607,1.215,2.1Zm15.983,3.4a1.213,1.213,0,0,1-2.1,1.215L24.7,51.079l2.016-1.154h.1Z" transform="translate(1.509 4.72)" fill="#47286d"/>
  </g>
</svg>
