<svg xmlns="http://www.w3.org/2000/svg" width="115" height="114.909" viewBox="0 0 115 114.909">
  <g id="grupo" transform="translate(0 -0.203)">
    <path id="Trazado_102758" data-name="Trazado 102758" d="M37.274,100.836h-22.2a1.747,1.747,0,0,1-1.747-1.747v-4.9A12.847,12.847,0,0,1,26.173,81.341h0A12.847,12.847,0,0,1,39.021,94.188v4.9A1.747,1.747,0,0,1,37.274,100.836Z" transform="translate(-10.333 -62.914)" fill="#c3da40"/>
    <path id="Trazado_102759" data-name="Trazado 102759" d="M137.756,266.185a11.013,11.013,0,0,1-4.753-5.6,11.446,11.446,0,0,1-6.893-10.619,11.318,11.318,0,0,1,11.121-11.481h14.154a11.487,11.487,0,0,1,0,22.962H140.41a11.021,11.021,0,0,0,.113,2.933l.509,3a.479.479,0,0,1-.736.48Z" transform="translate(-97.785 -184.762)" fill="#ff62a7"/>
    <path id="Trazado_102760" data-name="Trazado 102760" d="M185.408,249.968a11.318,11.318,0,0,0-11.121-11.481H160.133a10.758,10.758,0,0,0-4.487.98A18.247,18.247,0,0,0,173.934,256.4H183.5A11.676,11.676,0,0,0,185.408,249.968Z" transform="translate(-120.687 -184.763)" fill="#fc5479"/>
    <path id="Trazado_102761" data-name="Trazado 102761" d="M212.147,212.794a13.461,13.461,0,0,0,.308-4.45H198.713a14.083,14.083,0,1,1-.214-28.164h17.764a14.21,14.21,0,0,1,14.278,13.913,14.03,14.03,0,0,1-8.741,13.2c-1.155,3.5-4.44,5.99-7,7.468l-2.636,1.522a.479.479,0,0,1-.706-.523Z" transform="translate(-142.996 -139.553)" fill="#31d2f7"/>
    <path id="Trazado_102762" data-name="Trazado 102762" d="M195.928,198.306a14.1,14.1,0,0,1,14.08-14.3h16.017a14.359,14.359,0,0,0-9.763-3.825H198.5a14.083,14.083,0,1,0,.214,28.164h1.736A13.917,13.917,0,0,1,195.928,198.306Z" transform="translate(-142.995 -139.553)" fill="#13ace8"/>
    <path id="Trazado_102763" data-name="Trazado 102763" d="M407.757,100.836h-22.2a1.747,1.747,0,0,1-1.747-1.747v-4.9a12.847,12.847,0,0,1,12.847-12.847h0A12.847,12.847,0,0,1,409.5,94.188v4.9A1.747,1.747,0,0,1,407.757,100.836Z" transform="translate(-297.602 -62.914)" fill="#ffcf59"/>
    <path id="Trazado_102764" data-name="Trazado 102764" d="M37.274,406.364h-22.2a1.747,1.747,0,0,1-1.747-1.747v-4.9a12.847,12.847,0,0,1,12.847-12.847h0a12.847,12.847,0,0,1,12.847,12.847v4.9A1.748,1.748,0,0,1,37.274,406.364Z" transform="translate(-10.333 -299.817)" fill="#ff62a7"/>
    <path id="Trazado_102765" data-name="Trazado 102765" d="M407.757,406.364h-22.2a1.747,1.747,0,0,1-1.747-1.747v-4.9a12.847,12.847,0,0,1,12.847-12.847h0A12.847,12.847,0,0,1,409.5,399.716v4.9A1.748,1.748,0,0,1,407.757,406.364Z" transform="translate(-297.602 -299.817)" fill="#31d2f7"/>
    <path id="Trazado_102766" data-name="Trazado 102766" d="M23.2,99.089v-4.9a12.85,12.85,0,0,1,7.911-11.863,12.806,12.806,0,0,0-4.936-.984h0A12.847,12.847,0,0,0,13.325,94.188v4.9a1.747,1.747,0,0,0,1.747,1.747h9.872A1.747,1.747,0,0,1,23.2,99.089Z" transform="translate(-10.332 -62.914)" fill="#adbc15"/>
    <path id="Trazado_102767" data-name="Trazado 102767" d="M393.679,99.089v-4.9a12.85,12.85,0,0,1,7.911-11.863,12.806,12.806,0,0,0-4.936-.984h0a12.847,12.847,0,0,0-12.847,12.847v4.9a1.747,1.747,0,0,0,1.747,1.747h9.872A1.747,1.747,0,0,1,393.679,99.089Z" transform="translate(-297.6 -62.914)" fill="#ffb55c"/>
    <path id="Trazado_102768" data-name="Trazado 102768" d="M23.2,404.617v-4.9a12.85,12.85,0,0,1,7.911-11.863,12.81,12.81,0,0,0-4.936-.984h0a12.847,12.847,0,0,0-12.847,12.847v4.9a1.747,1.747,0,0,0,1.747,1.747h9.872A1.747,1.747,0,0,1,23.2,404.617Z" transform="translate(-10.332 -299.817)" fill="#fc5479"/>
    <path id="Trazado_102769" data-name="Trazado 102769" d="M393.679,404.617v-4.9a12.85,12.85,0,0,1,7.911-11.863,12.81,12.81,0,0,0-4.936-.984h0a12.847,12.847,0,0,0-12.847,12.847v4.9a1.747,1.747,0,0,0,1.747,1.747h9.872A1.747,1.747,0,0,1,393.679,404.617Z" transform="translate(-297.6 -299.817)" fill="#13ace8"/>
    <g id="Grupo_56672" data-name="Grupo 56672" transform="translate(7.404 9.09)">
      <path id="Trazado_102770" data-name="Trazado 102770" d="M41.289,56.422A8.326,8.326,0,1,1,49.615,48.1,8.335,8.335,0,0,1,41.289,56.422Z" transform="translate(-32.964 -39.771)" fill="#fad393"/>
      <path id="Trazado_102771" data-name="Trazado 102771" d="M411.771,56.422A8.326,8.326,0,1,1,420.1,48.1,8.335,8.335,0,0,1,411.771,56.422Z" transform="translate(-320.232 -39.771)" fill="#fad393"/>
      <path id="Trazado_102772" data-name="Trazado 102772" d="M41.289,361.951a8.326,8.326,0,1,1,8.326-8.326A8.335,8.335,0,0,1,41.289,361.951Z" transform="translate(-32.964 -276.675)" fill="#fad393"/>
      <path id="Trazado_102773" data-name="Trazado 102773" d="M411.771,361.951a8.326,8.326,0,1,1,8.326-8.326A8.335,8.335,0,0,1,411.771,361.951Z" transform="translate(-320.232 -276.675)" fill="#fad393"/>
    </g>
    <g id="Grupo_56673" data-name="Grupo 56673" transform="translate(7.404 9.09)">
      <path id="Trazado_102774" data-name="Trazado 102774" d="M40.826,48.1A8.332,8.332,0,0,1,45.22,40.76a8.326,8.326,0,1,0,0,14.673A8.331,8.331,0,0,1,40.826,48.1Z" transform="translate(-32.963 -39.771)" fill="#edb769"/>
      <path id="Trazado_102775" data-name="Trazado 102775" d="M411.309,48.1A8.332,8.332,0,0,1,415.7,40.76a8.326,8.326,0,1,0,0,14.673A8.332,8.332,0,0,1,411.309,48.1Z" transform="translate(-320.232 -39.771)" fill="#edb769"/>
      <path id="Trazado_102776" data-name="Trazado 102776" d="M40.826,353.626a8.332,8.332,0,0,1,4.394-7.337,8.326,8.326,0,1,0,0,14.673A8.332,8.332,0,0,1,40.826,353.626Z" transform="translate(-32.963 -276.676)" fill="#edb769"/>
      <path id="Trazado_102777" data-name="Trazado 102777" d="M411.309,353.626a8.332,8.332,0,0,1,4.394-7.337,8.326,8.326,0,1,0,0,14.673A8.332,8.332,0,0,1,411.309,353.626Z" transform="translate(-320.232 -276.676)" fill="#edb769"/>
    </g>
    <g id="Grupo_56674" data-name="Grupo 56674">
      <path id="Trazado_102778" data-name="Trazado 102778" d="M125.4,27.194a1.864,1.864,0,0,0,.938-.253,53.74,53.74,0,0,1,5.575-2.815,1.871,1.871,0,0,0-1.488-3.433,57.51,57.51,0,0,0-5.965,3.012,1.871,1.871,0,0,0,.941,3.489Z" transform="translate(-95.785 -15.769)" fill="#47286d"/>
      <path id="Trazado_102779" data-name="Trazado 102779" d="M291.831,7.567a53.62,53.62,0,0,1,6.083,1.425,1.871,1.871,0,1,0,1.066-3.587,57.382,57.382,0,0,0-6.51-1.525,1.871,1.871,0,0,0-.639,3.687Z" transform="translate(-225.08 -2.83)" fill="#47286d"/>
      <path id="Trazado_102780" data-name="Trazado 102780" d="M234.749,4.042c.037,0,.074,0,.112,0,1.062-.063,2.141-.094,3.207-.094h.006c1.013,0,2.036.029,3.041.085a1.871,1.871,0,0,0,.209-3.736C240.249.234,239.155.2,238.074.2h-.006c-1.139,0-2.291.034-3.426.1a1.871,1.871,0,0,0,.108,3.739Z" transform="translate(-180.573)" fill="#47286d"/>
      <path id="Trazado_102781" data-name="Trazado 102781" d="M490.039,190.3a1.871,1.871,0,0,0-1.386,2.254,53.8,53.8,0,0,1,1.091,6.153,1.871,1.871,0,1,0,3.716-.437,57.517,57.517,0,0,0-1.167-6.583A1.871,1.871,0,0,0,490.039,190.3Z" transform="translate(-378.857 -147.363)" fill="#47286d"/>
      <path id="Trazado_102782" data-name="Trazado 102782" d="M480.585,312.409a1.871,1.871,0,1,0,3.516,1.279,57.322,57.322,0,0,0,1.916-6.41,1.871,1.871,0,0,0-3.642-.859A53.615,53.615,0,0,1,480.585,312.409Z" transform="translate(-372.554 -236.319)" fill="#47286d"/>
      <path id="Trazado_102783" data-name="Trazado 102783" d="M346.531,23.819a53.79,53.79,0,0,1,5.589,2.8,1.871,1.871,0,1,0,1.868-3.242,57.478,57.478,0,0,0-5.98-3,1.871,1.871,0,1,0-1.477,3.438Z" transform="translate(-267.818 -15.528)" fill="#47286d"/>
      <path id="Trazado_102784" data-name="Trazado 102784" d="M8.114,305.285a1.871,1.871,0,0,0-1.389,2.252,57.288,57.288,0,0,0,1.921,6.4,1.871,1.871,0,0,0,3.515-1.283,53.57,53.57,0,0,1-1.8-5.985A1.87,1.87,0,0,0,8.114,305.285Z" transform="translate(-5.176 -236.52)" fill="#47286d"/>
      <path id="Trazado_102785" data-name="Trazado 102785" d="M178.137,9.227a1.868,1.868,0,0,0,.54-.08A53.611,53.611,0,0,1,184.755,7.7a1.871,1.871,0,1,0-.651-3.685A57.347,57.347,0,0,0,177.6,5.564a1.871,1.871,0,0,0,.538,3.663Z" transform="translate(-136.676 -2.936)" fill="#47286d"/>
      <path id="Trazado_102786" data-name="Trazado 102786" d="M495.932,247.347a1.871,1.871,0,0,0-1.871,1.871v.118a54.611,54.611,0,0,1-.358,6.241,1.871,1.871,0,1,0,3.717.43,58.32,58.32,0,0,0,.383-6.671v-.118A1.871,1.871,0,0,0,495.932,247.347Z" transform="translate(-382.803 -191.634)" fill="#47286d"/>
      <path id="Trazado_102787" data-name="Trazado 102787" d="M270.168,491.828a54.118,54.118,0,0,1-6.209.721,1.871,1.871,0,0,0,.106,3.738c.036,0,.073,0,.11,0a57.766,57.766,0,0,0,6.639-.772,1.871,1.871,0,1,0-.647-3.685Z" transform="translate(-203.305 -381.18)" fill="#47286d"/>
      <path id="Trazado_102788" data-name="Trazado 102788" d="M213.2,492.588a54.137,54.137,0,0,1-6.209-.715,1.871,1.871,0,1,0-.644,3.686,57.862,57.862,0,0,0,6.64.765q.054,0,.108,0a1.871,1.871,0,0,0,.1-3.739Z" transform="translate(-158.799 -381.215)" fill="#47286d"/>
      <path id="Trazado_102789" data-name="Trazado 102789" d="M158.183,477.7a53.5,53.5,0,0,1-5.876-2.135A1.871,1.871,0,0,0,150.826,479a57.338,57.338,0,0,0,6.288,2.284,1.871,1.871,0,1,0,1.069-3.585Z" transform="translate(-116.072 -368.47)" fill="#47286d"/>
      <path id="Trazado_102790" data-name="Trazado 102790" d="M3.277,201.123a1.869,1.869,0,0,0,2.072-1.646,53.773,53.773,0,0,1,1.071-6.157,1.871,1.871,0,0,0-3.643-.856,57.583,57.583,0,0,0-1.146,6.586A1.871,1.871,0,0,0,3.277,201.123Z" transform="translate(-1.255 -147.959)" fill="#47286d"/>
      <path id="Trazado_102791" data-name="Trazado 102791" d="M326.023,475.464a53.622,53.622,0,0,1-5.871,2.14,1.871,1.871,0,1,0,1.074,3.585,57.322,57.322,0,0,0,6.283-2.29,1.871,1.871,0,0,0-1.485-3.434Z" transform="translate(-247.209 -368.395)" fill="#47286d"/>
      <path id="Trazado_102792" data-name="Trazado 102792" d="M2.465,258.321a1.871,1.871,0,0,0,1.641-2.075A54.551,54.551,0,0,1,3.742,250a1.871,1.871,0,0,0-1.871-1.869h0A1.871,1.871,0,0,0,0,250.009a58.318,58.318,0,0,0,.39,6.671,1.871,1.871,0,0,0,1.856,1.654A1.9,1.9,0,0,0,2.465,258.321Z" transform="translate(0 -192.246)" fill="#47286d"/>
      <path id="Trazado_102793" data-name="Trazado 102793" d="M8.678,64.657H30.294a3.981,3.981,0,0,0,3.976-3.976V56.173a13.509,13.509,0,0,0-.723-4.374,1.688,1.688,0,1,0-3.195,1.09,10.143,10.143,0,0,1,.542,3.284v4.508a.6.6,0,0,1-.6.6H8.678a.6.6,0,0,1-.6-.6V56.173A10.18,10.18,0,0,1,11.462,48.6,9.88,9.88,0,1,0,9.9,45.515,13.557,13.557,0,0,0,4.7,56.173v4.508A3.981,3.981,0,0,0,8.678,64.657Zm10.7-28.524a6.525,6.525,0,1,1-6.525,6.525A6.533,6.533,0,0,1,19.375,36.134Z" transform="translate(-3.646 -25.243)" fill="#47286d"/>
      <path id="Trazado_102794" data-name="Trazado 102794" d="M375.652,56.174v4.508a3.981,3.981,0,0,0,3.976,3.976h21.616a3.981,3.981,0,0,0,3.977-3.976V56.174A13.509,13.509,0,0,0,404.5,51.8a1.688,1.688,0,1,0-3.195,1.09,10.149,10.149,0,0,1,.542,3.284v4.508a.6.6,0,0,1-.6.6H379.628a.6.6,0,0,1-.6-.6V56.174a10.179,10.179,0,0,1,3.384-7.571,9.878,9.878,0,1,0-1.566-3.087A13.555,13.555,0,0,0,375.652,56.174Zm14.673-20.039A6.525,6.525,0,1,1,383.8,42.66,6.533,6.533,0,0,1,390.325,36.134Z" transform="translate(-291.277 -25.244)" fill="#47286d"/>
      <path id="Trazado_102795" data-name="Trazado 102795" d="M402.355,355.616a1.688,1.688,0,0,0-1.052,2.143,10.148,10.148,0,0,1,.542,3.284v4.508a.6.6,0,0,1-.6.6H379.628a.6.6,0,0,1-.6-.6v-4.508a10.18,10.18,0,0,1,3.384-7.571,9.878,9.878,0,1,0-1.566-3.087,13.557,13.557,0,0,0-5.194,10.658v4.508a3.981,3.981,0,0,0,3.976,3.976h21.616a3.981,3.981,0,0,0,3.976-3.976v-4.508a13.508,13.508,0,0,0-.723-4.374A1.688,1.688,0,0,0,402.355,355.616ZM390.325,341a6.525,6.525,0,1,1-6.525,6.525A6.533,6.533,0,0,1,390.325,341Z" transform="translate(-291.277 -261.636)" fill="#47286d"/>
      <path id="Trazado_102796" data-name="Trazado 102796" d="M31.405,355.616a1.688,1.688,0,0,0-1.052,2.143,10.142,10.142,0,0,1,.542,3.284v4.508a.6.6,0,0,1-.6.6H8.678a.6.6,0,0,1-.6-.6v-4.508a10.18,10.18,0,0,1,3.384-7.571A9.878,9.878,0,1,0,9.9,350.384,13.557,13.557,0,0,0,4.7,361.042v4.508a3.981,3.981,0,0,0,3.976,3.976H30.294a3.981,3.981,0,0,0,3.976-3.976v-4.508a13.509,13.509,0,0,0-.723-4.374A1.688,1.688,0,0,0,31.405,355.616ZM19.375,341a6.525,6.525,0,1,1-6.525,6.525A6.533,6.533,0,0,1,19.375,341Z" transform="translate(-3.646 -261.636)" fill="#47286d"/>
    </g>
    <path id="Trazado_102797" data-name="Trazado 102797" d="M165.812,173.165H147.851a15.68,15.68,0,0,0-15.444,13.1h-.613a12.9,12.9,0,0,0-12.7,13.057,13.038,13.038,0,0,0,7.217,11.778c2.167,5.249,8.927,7.766,9.227,7.875a1.688,1.688,0,0,0,2.115-2.283,12.215,12.215,0,0,1-1.142-4.313h9.434a12.711,12.711,0,0,0,11.659-7.894h2.687a14.67,14.67,0,0,1-1.5,5.828,1.688,1.688,0,0,0,2.09,2.308c.375-.132,8.9-3.2,11.51-9.587a15.658,15.658,0,0,0-6.584-29.864Zm4.615,27.04a1.66,1.66,0,0,0-.965,1.025c-.947,2.957-3.83,5.159-6.209,6.532a15.161,15.161,0,0,0,.334-5.148,1.693,1.693,0,0,0-1.678-1.51H147.851a12.194,12.194,0,0,1-4.574-.887,1.679,1.679,0,0,0-1.819.363l-.024.024a1.675,1.675,0,0,0,.561,2.737,15.553,15.553,0,0,0,5.856,1.139h5.975A9.246,9.246,0,0,1,145.947,209H134.87a1.684,1.684,0,0,0-1.676,1.491,12.736,12.736,0,0,0,.116,3.543,9.562,9.562,0,0,1-4.03-4.646,1.743,1.743,0,0,0-.97-1.09,9.648,9.648,0,0,1-5.836-8.979,9.517,9.517,0,0,1,9.321-9.681h.421a15.527,15.527,0,0,0,1.107,5.015,1.675,1.675,0,0,0,2.739.567l.025-.025a1.675,1.675,0,0,0,.365-1.812,12.206,12.206,0,0,1-.878-4.834,12.4,12.4,0,0,1,12.453-12.008H165.6a12.487,12.487,0,0,1,12.488,12.322A12.236,12.236,0,0,1,170.427,200.2Z" transform="translate(-92.347 -134.113)" fill="#47286d"/>
  </g>
</svg>
