<svg xmlns="http://www.w3.org/2000/svg" xmlns:xlink="http://www.w3.org/1999/xlink" width="275" height="475" viewBox="0 0 275 475">
  <defs>
    <clipPath id="clip-path">
      <rect id="Rectángulo_5839" data-name="Rectángulo 5839" width="275" height="475" transform="translate(0)" fill="none"/>
    </clipPath>
  </defs>
  <g id="Grupo_59483" data-name="Grupo 59483" transform="translate(0 -62)">
    <g id="Grupo_59476" data-name="Grupo 59476" transform="translate(0 62)" clip-path="url(#clip-path)">
      <g id="Grupo_59455" data-name="Grupo 59455" transform="translate(-114.91 114.798)">
        <path id="Trazado_104984" data-name="Trazado 104984" d="M1074.776,183.69s-31.559,11.115-47.81,26.246c-6.685,6.224-9.847,13.9-13.995,21.672-5.326,9.983-14.6,17.529-20.385,27.443a107.293,107.293,0,0,0-12.7,33.733c-2.479,12.9-7.4,17.252-17.446,25.1l-30.432,23.766q-21.683,16.935-43.392,33.887s1.064,41.508,43.1,62.263c15.964-9.579,83.221-68.962,83.221-68.962,60.46-3.52,75.456-60.828,84.569-66.989C1106.669,243.612,1074.776,183.69,1074.776,183.69Z" transform="translate(-790.198 -134.719)" fill="#e8b585"/>
        <path id="Trazado_104985" data-name="Trazado 104985" d="M926.73,362.549c19.383,5.589,38.559-9.641,45.041-16.746s8.457-26.525,8.457-26.525l51.071,16.884c-12.232,12.3-29.373,22.8-54.171,24.24,0,0-23.059,20.359-45.379,39.159a6.712,6.712,0,0,1-2.523-1.271C926.8,395.452,907.347,356.959,926.73,362.549Z" transform="translate(-752.386 -126.286)" fill="#e8b585" opacity="0.5" style="mix-blend-mode: multiply;isolation: isolate"/>
        <path id="Trazado_104986" data-name="Trazado 104986" d="M834.644,185.793s79.618-39.058,88.087-35.706c8.953,3.543-20.779,30.731-37.879,39.784s-57.3,33.6-57.3,33.6S817.137,193.088,834.644,185.793Z" transform="translate(-545.892 -136.821)" fill="#e8b585"/>
        <g id="Grupo_59447" data-name="Grupo 59447" transform="translate(225.869 0)">
          <rect id="Rectángulo_5820" data-name="Rectángulo 5820" width="123.83" height="226.061" rx="9.587" fill="#5e2227"/>
          <path id="Trazado_104987" data-name="Trazado 104987" d="M861.332,144.464h23.547a7.094,7.094,0,0,1,6.669,4.677h0a7.1,7.1,0,0,0,6.671,4.677h29.69a7.1,7.1,0,0,0,6.671-4.677h0a7.094,7.094,0,0,1,6.669-4.677H964.8a2.878,2.878,0,0,1,2.878,2.878v186.7a2.878,2.878,0,0,1-2.878,2.878H861.332a2.876,2.876,0,0,1-2.876-2.876v-186.7A2.877,2.877,0,0,1,861.332,144.464Z" transform="translate(-851.15 -137.158)" fill="#fff"/>
          <g id="Grupo_59442" data-name="Grupo 59442" transform="translate(48.223 5.283)">
            <path id="Trazado_104988" data-name="Trazado 104988" d="M906.693,145.931a3.371,3.371,0,1,0,3.371-3.371A3.371,3.371,0,0,0,906.693,145.931Z" transform="translate(-896.371 -142.56)" fill="#fff"/>
            <circle id="Elipse_4334" data-name="Elipse 4334" cx="2.008" cy="2.008" r="2.008" transform="translate(0 1.363)" fill="#fff"/>
            <circle id="Elipse_4335" data-name="Elipse 4335" cx="2.008" cy="2.008" r="2.008" transform="translate(23.368 1.363)" fill="#fff"/>
          </g>
          <rect id="Rectángulo_5821" data-name="Rectángulo 5821" width="109.219" height="99.057" transform="translate(7.306 43.214)" fill="#e7edf3"/>
          <rect id="Rectángulo_5822" data-name="Rectángulo 5822" width="109.219" height="35.386" transform="translate(7.306 151.463)" fill="#e7edf3"/>
          <rect id="Rectángulo_5823" data-name="Rectángulo 5823" width="37.256" height="12.928" rx="3.519" transform="translate(43.287 206.588)" fill="#1b75ba"/>
          <rect id="Rectángulo_5824" data-name="Rectángulo 5824" width="91.685" height="63.53" rx="6.661" transform="translate(16.073 56.623)" fill="#f9e478"/>
          <path id="Trazado_104989" data-name="Trazado 104989" d="M870.923,256.7h42.866a4.214,4.214,0,1,1,0,8.429H870.923a4.214,4.214,0,0,1,0-8.429Z" transform="translate(-810.246 -130.178)" fill="#ced2d6"/>
          <path id="Trazado_104990" data-name="Trazado 104990" d="M888.157,288.205h42.866a4.214,4.214,0,1,1,0,8.428H888.157a4.214,4.214,0,0,1,0-8.428Z" transform="translate(-845.788 -128.219)" fill="#ced2d6"/>
          <path id="Trazado_104991" data-name="Trazado 104991" d="M870.923,165.245h42.866a4.214,4.214,0,1,1,0,8.428H870.923a4.214,4.214,0,0,1,0-8.428Z" transform="translate(-810.246 -135.866)" fill="#e7edf3"/>
          <path id="Trazado_104992" data-name="Trazado 104992" d="M935.132,165.245h15.054a4.214,4.214,0,1,1,0,8.428H935.132a4.214,4.214,0,1,1,0-8.428Z" transform="translate(-914.845 -135.866)" fill="#e7edf3"/>
          <g id="Grupo_59443" data-name="Grupo 59443" transform="translate(36.789 71.748)">
            <rect id="Rectángulo_5825" data-name="Rectángulo 5825" width="50.252" height="33.278" transform="translate(0)" fill="#27a8df"/>
            <path id="Trazado_104993" data-name="Trazado 104993" d="M911.339,229.4l-25.126-16.639v-7.631h50.252v7.631Z" transform="translate(-886.213 -205.133)" fill="#64caed"/>
          </g>
          <path id="Trazado_104994" data-name="Trazado 104994" d="M927.378,205.515a6.526,6.526,0,1,0,6.526-6.525A6.526,6.526,0,0,0,927.378,205.515Z" transform="translate(-897.115 -133.767)" fill="#ef5a29"/>
          <g id="Grupo_59444" data-name="Grupo 59444" transform="translate(34.182 68.154)">
            <path id="Trazado_104995" data-name="Trazado 104995" d="M933.444,201.75a3.725,3.725,0,0,1,1.165.168,2.708,2.708,0,0,1,.865.456,1.907,1.907,0,0,1,.543.681,1.946,1.946,0,0,1,.184.841,3.026,3.026,0,0,1-1.372,2.307l-1.511,1.212h2.769a1.85,1.85,0,0,1,.133.323,1.371,1.371,0,0,1,.063.427.8.8,0,0,1-.184.594.668.668,0,0,1-.484.178h-4a1.205,1.205,0,0,1-.4-.444,1.336,1.336,0,0,1-.144-.639,1.271,1.271,0,0,1,.161-.664,1.629,1.629,0,0,1,.358-.432l1.591-1.362c.2-.169.365-.321.5-.456a3.685,3.685,0,0,0,.318-.363,1.166,1.166,0,0,0,.172-.3.745.745,0,0,0,.053-.266.578.578,0,0,0-.283-.508,1.262,1.262,0,0,0-.7-.185,2.227,2.227,0,0,0-.824.144,3.322,3.322,0,0,0-.605.306,1.16,1.16,0,0,1-.324-.346.915.915,0,0,1-.126-.484.952.952,0,0,1,.565-.893A3.317,3.317,0,0,1,933.444,201.75Z" transform="translate(-931.068 -201.75)" fill="#fff"/>
          </g>
          <g id="Grupo_59446" data-name="Grupo 59446" transform="translate(16.073 159.987)">
            <rect id="Rectángulo_5826" data-name="Rectángulo 5826" width="19.254" height="19.254" fill="#f9ae40"/>
            <g id="Grupo_59445" data-name="Grupo 59445" transform="translate(3.314 4.215)">
              <path id="Trazado_104996" data-name="Trazado 104996" d="M944.156,298.794a3.31,3.31,0,1,1,3.311-3.311A3.311,3.311,0,0,1,944.156,298.794Z" transform="translate(-937.843 -292.173)" fill="#fff"/>
              <path id="Trazado_104997" data-name="Trazado 104997" d="M944.331,298.822a6.313,6.313,0,0,1,6.314,6.314V306.8H938.019v-1.662A6.313,6.313,0,0,1,944.331,298.822Z" transform="translate(-938.019 -291.759)" fill="#fff"/>
            </g>
          </g>
        </g>
        <path id="Trazado_104998" data-name="Trazado 104998" d="M832.271,273.819s30.2.814,33.891,13.3-39.928,25.139-44.875,24.759.711-16.117,10.984-21.063Z" transform="translate(-482.579 -129.113)" fill="#e8b585"/>
        <path id="Trazado_104999" data-name="Trazado 104999" d="M906.441,269.691c.433-2.139.853-4.065,1.206-5.689,1.194-5.515,4.858-9.716,10.715-10.01,8.392-.422,16.49,2.9,23.253,7.429,20.054,13.436,59.2,25.35,59.2,25.35s-4.887,14.7-31.61,11.476a118.483,118.483,0,0,0-31.99-6.9c0,.012-2.471,29.957-20.113,25.855C899.323,313.065,903.237,285.519,906.441,269.691Z" transform="translate(-706.461 -130.349)" fill="#e8b585"/>
        <path id="Trazado_105000" data-name="Trazado 105000" d="M922.237,293.021c-.05-.013-12.026-2.887-16.183-4.706-3.707-1.622-3.578-9.55,4.111-9.79,10.663,4.127,18.829,6.718,18.829,6.718S927.6,289.575,922.237,293.021Z" transform="translate(-634.644 -128.821)" fill="#ef5a29"/>
        <path id="Trazado_105001" data-name="Trazado 105001" d="M849.327,298.77c1.718-.7,13.843-5.431,15.23.516.979,4.2-2.73,7.22-5.4,8.8-5.456,1.605-9.777,2.5-11.145,2.393C845.03,310.254,845.909,304.436,849.327,298.77Z" transform="translate(-509.306 -127.714)" fill="#ef5a29"/>
        <path id="Trazado_105002" data-name="Trazado 105002" d="M1141.588,342.936s-27.083-6.154-44.608,1.539-24.574,31.094-36.542,38.787-38.743,22.009-38.743,22.009,6.411,79.072,61.975,94.887c0,0,34.509-24.791,41.4-26.073s24.688-5.622,50.269-18c18.074-8.749,15.182-43.545,15.182-43.545S1157.191,353.262,1141.588,342.936Z" transform="translate(-1021.696 -124.96)" fill="#f17781"/>
        <path id="Trazado_105003" data-name="Trazado 105003" d="M840.837,285.926c-4.945.15-11.743,4.894-11.743,4.894v-17s13.807.377,23.891,4.481C847.379,279.99,838.844,284.228,840.837,285.926Z" transform="translate(-479.401 -129.113)" fill="#e8b585" opacity="0.5" style="mix-blend-mode: multiply;isolation: isolate"/>
        <path id="Trazado_105004" data-name="Trazado 105004" d="M839.009,247.187s32.019.862,35.926,14.1-51.276,32.83-55.577,29.8c-7.149-5.033,8.76-20.641,19.652-25.885Z" transform="translate(-489.314 -130.77)" fill="#e8b585"/>
        <path id="Trazado_105005" data-name="Trazado 105005" d="M857.285,276.63c3.218-1.738,13.2-6.6,15.266-1.142,2.465,6.519-6.9,11.694-6.9,11.694s-1.289.667-2.954,1.475c-4.387,1.1-7.562,1.47-8.467.833C850.654,286.975,852.842,281.816,857.285,276.63Z" transform="translate(-524.183 -129.166)" fill="#ef5a29"/>
        <path id="Trazado_105006" data-name="Trazado 105006" d="M831.837,265.209V247.187a94.3,94.3,0,0,1,20.972,3.235c-2.721,1-6.819,2.906-9.941,4.408a2.839,2.839,0,0,0-.457,4.836l.078.058A28.764,28.764,0,0,0,831.837,265.209Z" transform="translate(-482.141 -130.77)" fill="#e8b585" opacity="0.5" style="mix-blend-mode: multiply;isolation: isolate"/>
        <path id="Trazado_105007" data-name="Trazado 105007" d="M839.009,217.359s32.019.862,35.926,14.1-51.276,32.83-55.577,29.8c-7.149-5.033,8.76-20.642,19.652-25.886Z" transform="translate(-489.314 -132.625)" fill="#e8b585"/>
        <path id="Trazado_105008" data-name="Trazado 105008" d="M854.225,259.623c-3.284-2.312-1.694-6.859,2.033-11.606h0s13.826-8.234,16.291-1.714c2.456,6.493-6.826,11.651-6.9,11.691C859.748,259.688,855.323,260.4,854.225,259.623Z" transform="translate(-524.18 -130.981)" fill="#ef5a29"/>
        <path id="Trazado_105009" data-name="Trazado 105009" d="M956.523,289.353c3.809,5.008,12.894,6.811,18.112,7.446a53.684,53.684,0,0,1-12.409-.183,118.487,118.487,0,0,0-31.99-6.9c0,.008-1.27,15.374-8.474,22.584,5.941-8,4.615-25.8,4.051-32.115C932.294,288.8,952.3,289.735,956.523,289.353Z" transform="translate(-699.486 -128.718)" fill="#e8b585" opacity="0.5" style="mix-blend-mode: multiply;isolation: isolate"/>
        <path id="Trazado_105010" data-name="Trazado 105010" d="M1052.646,436.162c9.55,10.744,28.651,12.335,40.589,8.755s32.63-28.652,19.059-48.946c-10.933-16.349-14.552-43.642-15.547-53.639,1.591.29,2.506.5,2.506.5,15.6,10.326,48.937,69.6,48.937,69.6s2.893,34.794-15.181,43.544c-25.582,12.382-43.375,16.722-50.27,18s-41.4,26.073-41.4,26.073a65.59,65.59,0,0,1-19.639-9.33C1046.217,479.213,1054.1,450.363,1052.646,436.162Z" transform="translate(-979.36 -124.852)" fill="#f9ae40" opacity="0.5" style="mix-blend-mode: multiply;isolation: isolate"/>
        <g id="Grupo_59454" data-name="Grupo 59454" transform="translate(119.892 195.855)">
          <path id="Trazado_105011" data-name="Trazado 105011" d="M1025.147,321.973s31.349,56.936,47.287,66.164l-28,25.559s-38.56-18.291-48.939-69.6C1005.89,337.584,1025.147,321.973,1025.147,321.973Z" transform="translate(-995.493 -321.973)" fill="#db6f78"/>
          <g id="Grupo_59453" data-name="Grupo 59453" transform="translate(7.946 9.081)">
            <g id="Grupo_59448" data-name="Grupo 59448" transform="translate(34.4 54.801)">
              <path id="Trazado_105012" data-name="Trazado 105012" d="M1009.837,399.542a2.077,2.077,0,0,0,1.263-.427l17.4-13.253a2.088,2.088,0,0,0-2.53-3.322l-17.4,13.254a2.087,2.087,0,0,0,1.267,3.747Z" transform="translate(-1007.748 -382.115)" fill="#d6441d"/>
            </g>
            <g id="Grupo_59449" data-name="Grupo 59449" transform="translate(23.99 43.731)">
              <path id="Trazado_105013" data-name="Trazado 105013" d="M1019.637,389.12a2.084,2.084,0,0,0,1.264-.426l17.4-13.254a2.088,2.088,0,0,0-2.53-3.322l-17.4,13.254a2.087,2.087,0,0,0,1.266,3.747Z" transform="translate(-1017.548 -371.693)" fill="#d6441d"/>
            </g>
            <g id="Grupo_59450" data-name="Grupo 59450" transform="translate(12.826 28.414)">
              <path id="Trazado_105014" data-name="Trazado 105014" d="M1030.147,374.7a2.085,2.085,0,0,0,1.264-.426l17.4-13.254a2.087,2.087,0,1,0-2.53-3.32l-17.4,13.253a2.087,2.087,0,0,0,1.266,3.747Z" transform="translate(-1028.058 -357.272)" fill="#d6441d"/>
            </g>
            <g id="Grupo_59451" data-name="Grupo 59451" transform="translate(5.096 13.249)">
              <path id="Trazado_105015" data-name="Trazado 105015" d="M1037.425,360.423a2.08,2.08,0,0,0,1.263-.426l17.4-13.254a2.088,2.088,0,0,0-2.53-3.322l-17.4,13.254a2.087,2.087,0,0,0,1.267,3.747Z" transform="translate(-1035.336 -342.996)" fill="#d6441d"/>
            </g>
            <g id="Grupo_59452" data-name="Grupo 59452">
              <path id="Trazado_105016" data-name="Trazado 105016" d="M1042.224,347.951a2.076,2.076,0,0,0,1.263-.427l17.4-13.253a2.088,2.088,0,1,0-2.53-3.322l-17.4,13.254a2.088,2.088,0,0,0,1.267,3.747Z" transform="translate(-1040.134 -330.522)" fill="#d6441d"/>
            </g>
          </g>
          <path id="Trazado_105017" data-name="Trazado 105017" d="M1017.473,378.848c13.183,4.3,26.832-3.311,33.23-7.719,5.207,6.681,10.184,12.01,14.188,14.329l-28,25.56s-26.406-12.555-41.394-45.971C1001.871,370.657,1009.689,376.313,1017.473,378.848Z" transform="translate(-987.949 -319.294)" fill="#ef5a29" opacity="0.5" style="mix-blend-mode: multiply;isolation: isolate"/>
        </g>
      </g>
      <g id="Grupo_59460" data-name="Grupo 59460" transform="translate(198.39 36.887)">
        <path id="Trazado_105047" data-name="Trazado 105047" d="M884.347,64.237H842.809a4.452,4.452,0,0,0-4.453,4.453v53.494l13.156-15.548h32.834a4.452,4.452,0,0,0,4.453-4.453V68.69A4.452,4.452,0,0,0,884.347,64.237Z" transform="translate(-838.356 -64.237)" fill="#8ed7ff"/>
        <path id="Trazado_105048" data-name="Trazado 105048" d="M875.213,83.011a1.988,1.988,0,0,0-1.1-3.392l-5.973-.868a1.991,1.991,0,0,1-1.5-1.088l-2.672-5.413a1.988,1.988,0,0,0-3.566,0l-2.671,5.413a1.992,1.992,0,0,1-1.5,1.088l-5.974.868a1.988,1.988,0,0,0-1.1,3.392l4.322,4.214a1.988,1.988,0,0,1,.571,1.759l-1.02,5.949a1.988,1.988,0,0,0,2.885,2.1l5.343-2.81a1.992,1.992,0,0,1,1.85,0l5.343,2.81a1.988,1.988,0,0,0,2.885-2.1l-1.021-5.949a1.987,1.987,0,0,1,.572-1.759Z" transform="translate(-836.207 -63.807)" fill="#fff"/>
      </g>
      <g id="Grupo_59461" data-name="Grupo 59461" transform="translate(79.917 113.232)">
        <circle id="Elipse_4337" data-name="Elipse 4337" cx="23.16" cy="23.16" r="23.16" transform="translate(32.753 65.506) rotate(-135)" fill="#f17781"/>
        <path id="Trazado_105049" data-name="Trazado 105049" d="M956.109,158.733c7.5-3.464,11.256,5.2,11.256,5.2s3.752-8.659,11.255-5.2S976.6,177.2,967.365,179.8C958.129,177.2,948.606,162.2,956.109,158.733Z" transform="translate(-934.612 -134.756)" fill="#fff"/>
      </g>
      <g id="Grupo_59467" data-name="Grupo 59467" transform="translate(49.306 36.158)">
        <path id="Trazado_105055" data-name="Trazado 105055" d="M915.579,63.551h112.686a5.136,5.136,0,0,1,5.136,5.137V134.6l-29.45-19.882H915.579a5.136,5.136,0,0,1-5.137-5.137V68.688A5.136,5.136,0,0,1,915.579,63.551Z" transform="translate(-910.442 -63.551)" fill="#f17781"/>
        <g id="Grupo_59466" data-name="Grupo 59466" transform="translate(79.882 6.717)">
          <rect id="Rectángulo_5834" data-name="Rectángulo 5834" width="37.042" height="37.042" fill="#31d9e7"/>
          <g id="Grupo_59465" data-name="Grupo 59465" transform="translate(6.376 8.108)">
            <path id="Trazado_105056" data-name="Trazado 105056" d="M933.933,90.246a6.369,6.369,0,1,1,6.369-6.369A6.369,6.369,0,0,1,933.933,90.246Z" transform="translate(-921.787 -77.508)" fill="#fff"/>
            <path id="Trazado_105057" data-name="Trazado 105057" d="M934.271,90.3a12.146,12.146,0,0,1,12.145,12.146v3.2h-24.29v-3.2A12.146,12.146,0,0,1,934.271,90.3Z" transform="translate(-922.126 -76.712)" fill="#fff"/>
          </g>
        </g>
        <path id="Trazado_105058" data-name="Trazado 105058" d="M960.694,71.708h22.668a4.63,4.63,0,1,1,0,9.259H960.694a4.63,4.63,0,1,1,0-9.259Z" transform="translate(-913.494 -63.044)" fill="#fff"/>
        <path id="Trazado_105059" data-name="Trazado 105059" d="M960.694,90.94H1018a4.63,4.63,0,1,1,0,9.259H960.694a4.63,4.63,0,1,1,0-9.259Z" transform="translate(-948.131 -61.848)" fill="#fff"/>
      </g>
      <g id="Grupo_59468" data-name="Grupo 59468" transform="translate(142.645 343.666)">
        <rect id="Rectángulo_5835" data-name="Rectángulo 5835" width="99.485" height="51.575" rx="6.403" transform="translate(0 19.876)" fill="#4c2a4b"/>
        <path id="Trazado_105060" data-name="Trazado 105060" d="M873.187,378.266a19.218,19.218,0,1,1-19.219,19.217h19.219Z" transform="translate(-802.799 -351.485)" fill="#64caed"/>
        <path id="Trazado_105061" data-name="Trazado 105061" d="M891.044,378.266v15.2h-15.2A15.2,15.2,0,0,1,891.044,378.266Z" transform="translate(-824.671 -351.485)" fill="#fff"/>
        <path id="Trazado_105062" data-name="Trazado 105062" d="M898.713,379.728h15.364a3.446,3.446,0,0,1,3.445,3.446h0a3.445,3.445,0,0,1-3.445,3.446H898.713a3.445,3.445,0,0,1-3.446-3.446h0A3.446,3.446,0,0,1,898.713,379.728Z" transform="translate(-871.783 -351.394)" fill="#8c528e"/>
        <path id="Trazado_105063" data-name="Trazado 105063" d="M898.713,392.009H927.7a3.445,3.445,0,0,1,3.445,3.446h0A3.445,3.445,0,0,1,927.7,398.9H898.713a3.445,3.445,0,0,1-3.446-3.445h0A3.445,3.445,0,0,1,898.713,392.009Z" transform="translate(-885.409 -350.63)" fill="#8c528e"/>
        <rect id="Rectángulo_5836" data-name="Rectángulo 5836" width="35.882" height="6.891" rx="3.244" transform="translate(9.857 54.423)" fill="#8c528e"/>
        <path id="Trazado_105064" data-name="Trazado 105064" d="M912.315,379.731V353.053s28.554,21.191,27.607,21.775S912.315,379.731,912.315,379.731Z" transform="translate(-912.315 -353.053)" fill="#4c2a4b"/>
      </g>
      <path id="Trazado_105065" data-name="Trazado 105065" d="M1008.169,159.7h5.06v-5.06a2.6,2.6,0,1,1,5.2,0v5.06h5.059a2.6,2.6,0,1,1,0,5.2h-5.059v5.059a2.6,2.6,0,1,1-5.2,0v-5.059h-5.06a2.6,2.6,0,1,1,0-5.2Z" transform="translate(-954.874 -21.889)" fill="#64caed"/>
      <path id="Trazado_105066" data-name="Trazado 105066" d="M824.853,44.333h5.06V39.273a2.6,2.6,0,1,1,5.2,0v5.059h5.06a2.6,2.6,0,0,1,0,5.2h-5.06V54.6a2.6,2.6,0,1,1-5.2,0v-5.06h-5.06a2.6,2.6,0,0,1,0-5.2Z" transform="translate(-576.841 -29.064)" fill="#ef5a29"/>
      <path id="Trazado_105068" data-name="Trazado 105068" d="M955.36,383.421h5.059v-5.059a2.6,2.6,0,0,1,5.2,0v5.059h5.06a2.6,2.6,0,0,1,0,5.2h-5.06v5.06a2.6,2.6,0,1,1-5.2,0v-5.06H955.36a2.6,2.6,0,1,1,0-5.2Z" transform="translate(-845.967 -7.975)" fill="#ef5a29"/>
      <path id="Trazado_105069" data-name="Trazado 105069" d="M806.193,308.415h5.06v-5.06a2.6,2.6,0,1,1,5.2,0v5.06h5.06a2.6,2.6,0,0,1,0,5.2h-5.06v5.059a2.6,2.6,0,1,1-5.2,0v-5.059h-5.06a2.6,2.6,0,1,1,0-5.2Z" transform="translate(-538.358 -12.64)" fill="#fff"/>
      <g id="Grupo_59470" data-name="Grupo 59470" transform="translate(51.841 217.219)">
        <path id="Trazado_105071" data-name="Trazado 105071" d="M1015.259,253.391a9.69,9.69,0,1,0-9.692-9.69A9.7,9.7,0,0,0,1015.259,253.391Zm0-15.132a5.442,5.442,0,1,1-5.443,5.442A5.448,5.448,0,0,1,1015.259,238.259Z" transform="translate(-1005.567 -234.01)" fill="#4c2a4b"/>
      </g>
      <g id="Grupo_59471" data-name="Grupo 59471" transform="translate(243.05 334.398)">
        <path id="Trazado_105072" data-name="Trazado 105072" d="M835.245,363.709a9.69,9.69,0,1,0-9.69-9.69A9.7,9.7,0,0,0,835.245,363.709Zm0-15.132a5.442,5.442,0,1,1-5.442,5.442A5.449,5.449,0,0,1,835.245,348.577Z" transform="translate(-825.555 -344.328)" fill="#64caed"/>
      </g>
    </g>
  </g>
</svg>
