<svg xmlns="http://www.w3.org/2000/svg" width="510" height="397.07" viewBox="0 0 510 397.07">
  <g id="Grupo_59371" data-name="Grupo 59371" transform="translate(-98.362 -33.839)">
    <g id="shadow" transform="translate(98.362 372.623)">
      <path id="Trazado_104763" data-name="Trazado 104763" d="M332.338,648.77a399.821,399.821,0,0,0-44.779,2.144c-5.621.65-11.124,2.081-16.759,2.658-11.254,1.152-22.307,3.3-33.6,4.293-9.095.8-18.228,1.269-27.3,2.283a92.408,92.408,0,0,1-26.351-.839c-6.245-1.161-12.52-1.815-18.661-3.681A73.6,73.6,0,0,0,143.4,652.1c-10.206.077-20.145.085-29.913,3.771-3.428,1.294-7.626,3.42-10.23,6.136-5.96,6.215-6.767,21.724-.816,28.17,10.024,10.85,31.418,15.107,45.468,15.308,15.4.22,30.353-.968,45.772-1.667,14.328-.65,28.619-1.573,42.97-1.541,29.311.067,58.626,0,87.883-2.036,27.488-1.913,55.046-1.256,82.594-1.256,28.25,0,56.309.231,84.355,4.136,12.22,1.7,24.67,2.3,36.951,3.489,11,1.067,21.569-.021,32.524-1.008a75.3,75.3,0,0,0,26.7-7.439c6.615-3.287,18.409-13.5,20.438-21.35,5.687-22-80.153-21.472-93.333-21.423-14.744.055-29.6.56-44.337-.025a100.831,100.831,0,0,1-18.351-2.886c-6.024-1.375-12.095-1.025-18.2-1.6-25.477-2.41-51.011-2.058-76.569-2.058C348.981,648.82,340.659,648.744,332.338,648.77Z" transform="translate(-98.362 -648.765)" fill="#f1f2f2" opacity="0.4"/>
    </g>
    <g id="object" transform="translate(129.308 33.839)">
      <g id="Grupo_59285" data-name="Grupo 59285" transform="translate(41.599 158.058)">
        <g id="Grupo_59283" data-name="Grupo 59283" transform="translate(10.758 24.131)">
          <path id="Trazado_104764" data-name="Trazado 104764" d="M304.946,380.5a1.7,1.7,0,0,0-.4-.273c-1.351-.577-2.4-.068-3.855-.252-.648-.082-1.376-1.6-2.256-.553-.325.385-.987,1.441-1.672,2.268a9.638,9.638,0,0,1-4.71,2.575,49.573,49.573,0,0,1-7.122,1.415,84.034,84.034,0,0,1-15.463.087A22.705,22.705,0,0,0,258,365.333a5.263,5.263,0,0,0-2.423-.8,4.542,4.542,0,0,0-2.079.584c-6.844,3.505-3.231,9.84-.533,15.066a75.169,75.169,0,0,0,5.748,9.446c3.008,4.173,7.359,5,12.371,4.854a74.755,74.755,0,0,0,15.864-1.7,56.9,56.9,0,0,0,7.122-2.621c2.361-.929,2.642.175,4.918-.109a20.648,20.648,0,0,0,3.816-.471c2.193-.7,2.948-2.959,3.8-4.865a2.468,2.468,0,0,0,.326-1.28,3.57,3.57,0,0,0-1.039-1.963A6.916,6.916,0,0,0,304.946,380.5Z" transform="translate(-249.565 -364.53)" fill="#e5d1bd"/>
        </g>
        <g id="Grupo_59284" data-name="Grupo 59284">
          <path id="Trazado_104765" data-name="Trazado 104765" d="M242.31,364.942c1.553,2.374,3.178,4.637,4.828,6.754,2.46,3.158,5.234,6.521,9.14,7.4a17.163,17.163,0,0,0,4.61.2q10.96-.544,21.884-1.636a38.116,38.116,0,0,0-.117-11.483,4.7,4.7,0,0,0-1.255-2.907c-1.213-1.047-3.051-.693-4.6-.28L269.239,365a3.4,3.4,0,0,1-2.475.022,3.268,3.268,0,0,1-1.1-1.215c-5.555-8.854-8.45-17.294-11.537-27.2-1.362-4.365-2.805-8.877-5.866-12.273-6.535-7.253-18.638-2.933-18.212,7.158C230.533,343,235.783,354.961,242.31,364.942Z" transform="translate(-230.037 -320.73)" fill="#ebb044"/>
        </g>
      </g>
      <g id="Grupo_59294" data-name="Grupo 59294" transform="translate(228.758 106.487)">
        <g id="Grupo_59290" data-name="Grupo 59290" transform="translate(0 139.248)">
          <g id="Grupo_59287" data-name="Grupo 59287" transform="translate(49.078 61.508)">
            <g id="Grupo_59286" data-name="Grupo 59286" transform="translate(0.172)">
              <path id="Trazado_104766" data-name="Trazado 104766" d="M659.144,591.515l.38,23.068c-.155,6.4.422,12.781.811,19.16.361,5.926-.833,12.033,1.978,17.525.881,1.722,2.757,2.921,4.185.932,1.1-1.533.593-4.185.866-5.965,2.042-13.372,5.843-26.414,7.739-39.812C677.089,592.389,671.659,592.759,659.144,591.515Z" transform="translate(-659.144 -591.515)" fill="#eacdb0"/>
            </g>
            <path id="Trazado_104767" data-name="Trazado 104767" d="M660.314,692.164l-1.483,3.848,7.3,6.424,6.686.275,2.162-3.527-8.991-7.818Z" transform="translate(-658.831 -636.354)" fill="#3b455a"/>
          </g>
          <g id="Grupo_59289" data-name="Grupo 59289" transform="translate(13.345 60.368)">
            <g id="Grupo_59288" data-name="Grupo 59288" transform="translate(0.897)">
              <path id="Trazado_104768" data-name="Trazado 104768" d="M614.266,590.81,610.059,613.5c-1.458,10.148-4.774,20.03-6.232,30.178-.335,2.333-.166,4.886-1.142,7.087-.954,2.153-2.821,2.238-4.469.777-2.208-1.957-1.189-5.454-1.149-8.127.27-17.81-1.131-35.366-1.468-53.2a.794.794,0,0,1,.187-.65.767.767,0,0,1,.546-.106C598.064,589.567,614.176,591.3,614.266,590.81Z" transform="translate(-595.599 -589.445)" fill="#eacdb0"/>
            </g>
            <path id="Trazado_104769" data-name="Trazado 104769" d="M596.284,694.533l-2.313,3.414,5.66,7.905,6.451,1.777,2.9-2.948-6.995-9.646Z" transform="translate(-593.971 -636.637)" fill="#3b455a"/>
          </g>
          <path id="Trazado_104770" data-name="Trazado 104770" d="M642.775,556.058l-3.147-32.98L638.11,501.65l-5.1-17.5-27.554-4.276-34.067,5.839-1.637,6.619L576.3,553.6l32.858,2.463-.445-38.131,5.068,23.635-.215,14.5Z" transform="translate(-569.749 -479.872)" fill="#1a3151"/>
        </g>
        <path id="Trazado_104771" data-name="Trazado 104771" d="M585.7,340.381q-.069,1.67-.1,3.337c-.4,22.622.848,45.532.992,68.342a253.159,253.159,0,0,1,35.315-3.015c2.737-.042,15.178,1.88,16.91.246,2.351-2.217-.235-1.8-.062-4.688.223-3.738-1.573-6.8-.895-11.227.8-5.205,2.383-10.354,3.3-15.558a227.2,227.2,0,0,0,3.293-31.588c.317-9.392-.024-19.133-4.063-27.618-9.96-20.925-42.072-20.549-50.883,1.3C586.9,326.38,586,333.387,585.7,340.381Z" transform="translate(-576.835 -261.292)" fill="#fff"/>
        <path id="Trazado_104772" data-name="Trazado 104772" d="M644.509,309.656l-8.722,15.894q.684,24.084,1.367,48.168.315,11.1.63,22.2c.073,2.569.137,5.139.219,7.708.037,1.153-.281,3.095.376,4.036,1.428,2.043,6.648,1.406,8.924,1.585a39.247,39.247,0,0,1,10.5,1.8c2.227.816,4.337,2.045,6.686,2.375a1.985,1.985,0,0,0,1.532-.25,2.227,2.227,0,0,0,.586-1.633c.816-11.023.834-22.387,1.445-33.528.481-8.762,1.668-17.594,1.25-26.369a187.687,187.687,0,0,0-3.568-26.863c-1.021-5.245-2.222-10.592-5.109-15.088-3.273-5.1-7.906-7.138-13.613-8.288-2.015-.405-9.517-3.242-8.265,1.34C639.363,305,642.979,307.836,644.509,309.656Z" transform="translate(-599.404 -259.921)" fill="#3b455a"/>
        <path id="Trazado_104773" data-name="Trazado 104773" d="M596.439,312.26l8.722,15.894c-.183,0-1.106,38.961-1.181,41.591q-.426,15-.852,30c-.079,2.78.295,6.036-.249,8.769-.759,3.815-4.775,3.064-8.2,3.372-7.486.675-15.367,1.953-22.873,1.573-2.165-.109.684-45.294.68-49.511-.015-15.166-3.144-31.991,4.56-45.744,2.242-4,6.193-10.417,10.555-12.392,4.064-1.841,9.883-2.154,14.3-3.186l.23,2.859Z" transform="translate(-570.31 -261.03)" fill="#3b455a"/>
        <g id="Grupo_59293" data-name="Grupo 59293" transform="translate(19.304)">
          <g id="Grupo_59292" data-name="Grupo 59292">
            <path id="Trazado_104774" data-name="Trazado 104774" d="M647.732,245.1a17.591,17.591,0,0,1,2.157,7.946,2.521,2.521,0,0,0,.678,2.02c.637.465.077,1.485.561.863s2.13-2.783,2.2-3.568a29.065,29.065,0,0,0-.008-5.535,7.939,7.939,0,0,0-1.529-4.49,9,9,0,0,0-2.264-1.724,11.577,11.577,0,0,0-3.76-1.688c-2.341-.436-3.777.4-1.712,2.036A14.277,14.277,0,0,1,647.732,245.1Z" transform="translate(-621.977 -232.373)" fill="#3b455a"/>
            <g id="Grupo_59291" data-name="Grupo 59291" transform="translate(2.715 6.953)">
              <path id="Trazado_104775" data-name="Trazado 104775" d="M618.129,276.917c.016,1.133-.217,2.308.783,3.186a3.428,3.428,0,0,0,1.761.692,10.935,10.935,0,0,0,4.906-.348,4.394,4.394,0,0,0,1.788-.943,2.236,2.236,0,0,0,.637-1.813c.033-.853.206-1.722.317-2.588.245-1.894.355-3.8.409-5.71,2.805-.482,6.1-1.388,7.063-4.327a9.659,9.659,0,0,0,.32-2.917q.044-6.106.089-12.213a11.792,11.792,0,0,0-.469-4.166c-.846-2.292-3-3.659-5.1-4.519a18.326,18.326,0,0,0-16.616,1.015,9.067,9.067,0,0,0-3.33,3.349c-1.173,2.236-1.026,5-.844,7.578q.252,3.573.5,7.146c.193,2.74.6,5.893,2.732,7.34,1.13.768,2.589.909,3.563,1.9,1.7,1.735.89,4.328,1.392,6.431A4.132,4.132,0,0,1,618.129,276.917Z" transform="translate(-609.717 -239.743)" fill="#eacdb0"/>
            </g>
            <path id="Trazado_104776" data-name="Trazado 104776" d="M626.945,281.547a5.315,5.315,0,0,1-4.7.545c-.693-.208-.4-1.371.295-1.162a4.271,4.271,0,0,0,3.841-.422C626.992,280.1,627.554,281.137,626.945,281.547Zm10.154-5.733c-.045-.755-.375-2.967-1.511-1.577a2.284,2.284,0,0,0-.388,1.362,5.128,5.128,0,0,1-.149,1.438,2.533,2.533,0,0,1-2.539,1.5,2.472,2.472,0,0,1-1.191-.281,3.713,3.713,0,0,1-.9-.832l-1.986-2.279c-1.138-1.306-3.395-.741-4.928-.541a9.824,9.824,0,0,0-4.978,1.927c-.145.117-.288.24-.43.364a5.305,5.305,0,0,1-1.1.794,3.4,3.4,0,0,1-4.011-1.272c-.439-.57-.847-1.3-1.528-1.4a1.4,1.4,0,0,0-1.324.805,3.994,3.994,0,0,0-.384,1.67,12.273,12.273,0,0,0,1.067,6.136c1.977,4.044,5.8,4.541,9.639,4.45l4.554-.107c2.776-.066,5.709-.181,8.047-1.794a9.97,9.97,0,0,0,3.79-6.378A15.685,15.685,0,0,0,637.1,275.814Z" transform="translate(-607 -248.078)" fill="#3b455a"/>
            <path id="Trazado_104777" data-name="Trazado 104777" d="M635.466,232.8a21.627,21.627,0,0,0,.593-3.007,5.948,5.948,0,0,1-2.944.252l-.007-1.756c0-.487-6.591-.828-7.126-.872-5.01-.411-9.592-.8-14.123,1.887a13.645,13.645,0,0,0-6.946,10.192,20.87,20.87,0,0,0,3.3,13.377c-.014-1.136-.668-3.815-.4-4.893a9.635,9.635,0,0,1,1.053-3.087,12.726,12.726,0,0,1,4.466-4.694,24.755,24.755,0,0,1,9.761-3.289c3.124-.435,6.932-.837,10.018-.009,1.484.4,1.73.77,2.628-.728a25.383,25.383,0,0,0,1.292-3.349Z" transform="translate(-604.788 -227.123)" fill="#3b455a"/>
          </g>
        </g>
      </g>
      <g id="Grupo_59297" data-name="Grupo 59297" transform="translate(272.65 135.302)">
        <g id="Grupo_59296" data-name="Grupo 59296" transform="translate(0 0)">
          <g id="Grupo_59295" data-name="Grupo 59295">
            <path id="Trazado_104778" data-name="Trazado 104778" d="M675.548,315.558a7.758,7.758,0,0,1-4.017-1.48c-4.82-3.191-6.915-9.025-9.565-13.923-1.58-2.921-3.128-7.255-5.578-9.518-.459-.424-5.73-2.929-5.686-3.094l.267-1.441,1.432.275.85-.582-3.836-1.983,2.518-4.242,5.714-.144c1.664,3.18,2.54,6.859,4.94,9.59,1.015,1.155,2.21,2.135,3.32,3.2,1.906,1.828,3.551,3.9,5.275,5.893,2.208,2.556,5.568,4.639,6.861,7.846.721,1.788,1.907,5.815,1.084,7.607A3.832,3.832,0,0,1,675.548,315.558Z" transform="translate(-649.417 -279.426)" fill="#eacdb0"/>
          </g>
        </g>
        <path id="Trazado_104779" data-name="Trazado 104779" d="M687.319,331.23a1.724,1.724,0,0,1,.974.366,1.681,1.681,0,0,1,.371,1.1,55.477,55.477,0,0,1-1.081,13.58c-1.041,6.248-2.366,12.869-6.749,17.44-2.526,2.635-6.613,4.386-9.83,2.665-2.815-1.505-3.846-4.994-4.284-8.155a47.547,47.547,0,0,1,4.5-27.519,3.944,3.944,0,0,1,1.1-1.514c1.254-.905,5.167.516,6.648.745Z" transform="translate(-656.99 -301.64)" fill="#3b455a"/>
      </g>
      <g id="Grupo_59299" data-name="Grupo 59299" transform="translate(215.003 90.611)">
        <g id="Grupo_59298" data-name="Grupo 59298">
          <path id="Trazado_104780" data-name="Trazado 104780" d="M560.8,253.194a5.7,5.7,0,0,0,1.728-6.391q-2.316-6.272-4.632-12.545c-.867-2.348-2.522-5.147-2.552-7.6-.052-4.329,1.49-9.239,2.378-13.459.451-2.143.616-5.173,1.741-7.064.21-.354,3.073-2.927,3.014-3.022l-.439-.861-.854.443-.647-.209,2.053-1.973-2.388-2.21-3.639.981c-.456,2.323-.32,4.813-1.324,6.99-.425.921-1,1.764-1.5,2.646-.862,1.513-1.513,3.131-2.229,4.715-.693,1.533-1.687,2.934-2.347,4.452-1.473,3.387-2.923,6.784-4.384,10.176l6.771,22.118A5.831,5.831,0,0,0,560.8,253.194Z" transform="translate(-544.783 -198.307)" fill="#eacdb0"/>
        </g>
        <path id="Trazado_104781" data-name="Trazado 104781" d="M578.225,290.062a26.745,26.745,0,0,1-7.459-4.775c-.978-.906-5.4-9.289-4.594-9.51l-.2.064-.6.221-.08-.009c-1.321-.134-3.7,1.179-4.986,1.588a95.351,95.351,0,0,1-12.6,3.581,39.75,39.75,0,0,0,1.777,11.084c.961,3.289,2.6,5.977,3.853,9.076a79.525,79.525,0,0,0,4.674,9.214c.415.737,4.574,9.3,4.334,9.345,2.411-.412,4.27-2.321,5.75-4.269,3.477-4.576,5.13-10.775,9.494-14.508,3.39-2.9,7.822-3.182,7.388-9.042A30.6,30.6,0,0,1,578.225,290.062Z" transform="translate(-546.095 -233.096)" fill="#3b455a"/>
      </g>
      <g id="Grupo_59300" data-name="Grupo 59300" transform="translate(137.632 119.549)">
        <path id="Trazado_104782" data-name="Trazado 104782" d="M470.807,263.748a5.4,5.4,0,0,1-.576,2.061,13.527,13.527,0,0,0-.785,6.785A20.3,20.3,0,0,1,476,273.658l1.381-4.992a1.961,1.961,0,0,1,.321-.74,2.088,2.088,0,0,1,.89-.529,17.144,17.144,0,0,0,4.9-2.981,2.692,2.692,0,0,0,.789-.96,2.923,2.923,0,0,0,.144-1.116q-.007-4.514-.015-9.027a1.261,1.261,0,0,0-1.069-1.5l-1.543-.547a1.718,1.718,0,0,0-.464-.165,2.682,2.682,0,0,0-2.329,0,9.21,9.21,0,0,1-2.46.38,13.251,13.251,0,0,1-2.508,9.06.6.6,0,0,1-1.095.054,9.829,9.829,0,0,1-1.716-2.569l-2.49.623a4.511,4.511,0,0,0,1.166,3.778,3.725,3.725,0,0,0,.28.258A1.225,1.225,0,0,1,470.807,263.748Z" transform="translate(-433.235 -250.832)" fill="#eacdb0"/>
        <path id="Trazado_104783" data-name="Trazado 104783" d="M450.282,281.125l-10.37-1.7-10.577,28.946-24.987-4.257,5.442,33.305,31.786-19.038Z" transform="translate(-404.347 -263.673)" fill="#fff"/>
      </g>
      <g id="Grupo_59310" data-name="Grupo 59310" transform="translate(89.406 107.624)">
        <g id="Grupo_59309" data-name="Grupo 59309">
          <g id="Grupo_59302" data-name="Grupo 59302" transform="translate(0 118.564)">
            <g id="Grupo_59301" data-name="Grupo 59301" transform="translate(0 116.463)">
              <path id="Trazado_104784" data-name="Trazado 104784" d="M334.811,672.312c-1.577.1-3.02-.449-4.548-.621a78.511,78.511,0,0,1,1.821-15.906c2.377,2.638,4.378,1.1,4.3,6.063C336.355,663.452,334.5,669.87,334.811,672.312Z" transform="translate(-322.853 -655.785)" fill="#e5d1bd"/>
              <path id="Trazado_104785" data-name="Trazado 104785" d="M323.877,679.729c-1.793-.642-2.2,3.641-2.211,4.648a7.489,7.489,0,0,1-.09,1.807,4.839,4.839,0,0,1-1.009,1.707l-2.6,3.274a5.7,5.7,0,0,0-1,1.585,3.343,3.343,0,0,0,1.726,3.9c4.813,2.431,9.209-3.456,10.252-7.343.16-.6.277-1.2.393-1.808.241-1.253,1.189-3.985.692-5.209-.58-1.428-2.338-.393-3.49-.932C325.47,680.862,324.6,679.989,323.877,679.729Z" transform="translate(-316.813 -666.508)" fill="#3b455a"/>
            </g>
            <path id="Trazado_104786" data-name="Trazado 104786" d="M360.946,488.427c-4.487,12.216-9.665,24.165-12.618,36.952-3.648,15.8-9.529,31.2-12.548,47.034a39.059,39.059,0,0,1-5.843-.248c-2.222-.262-5.748-.862-6.55-3.288-.41-1.24.025-3.257.087-4.545.2-4.125.5-8.246.8-12.365.858-11.654,1.447-23.451,3.59-34.94,2.255-12.086,4.415-24.214,6.4-36.3,1.025-6.245,2.289-12.452,3.842-18.589.4-1.581,4.569-17.877,5.387-17.747a76.433,76.433,0,0,1,27.256,9.777,3.9,3.9,0,0,1,1.9,1.937,3.6,3.6,0,0,1-.238,2.4c-2.528,7.511-5.9,14.556-8.594,22.038C362.879,483.152,361.928,485.755,360.946,488.427Z" transform="translate(-319.687 -444.393)" fill="#ccd2d9"/>
          </g>
          <g id="Grupo_59304" data-name="Grupo 59304" transform="translate(38.531 119.35)">
            <g id="Grupo_59303" data-name="Grupo 59303" transform="translate(2.965 116.36)">
              <path id="Trazado_104787" data-name="Trazado 104787" d="M393.237,671.991c1.475.569,3.017.469,4.527.759a78.529,78.529,0,0,0,2.992-15.728c-3.054,1.812-4.509-.247-5.906,4.51C394.4,663.073,394.258,669.752,393.237,671.991Z" transform="translate(-392.628 -657.023)" fill="#e5d1bd"/>
              <path id="Trazado_104788" data-name="Trazado 104788" d="M398.811,680.929c0,2.927,2.308,6.079,3.583,8.711A1.8,1.8,0,0,1,402.1,692a3.759,3.759,0,0,1-1.528,1.438,3.581,3.581,0,0,1-2.06-.023q-1.71-.375-3.381-.905a2.352,2.352,0,0,1-.786-.366,2.435,2.435,0,0,1-.582-.844c-.786-1.583-1.454-2.706-1.412-4.469a26.947,26.947,0,0,0-.059-5.513c-.164-.875-.383-1.995.367-2.475.58-.372,1.641.141,2.273.244a8.565,8.565,0,0,1,3.168.7,1.482,1.482,0,0,1,.541.466A1.239,1.239,0,0,1,398.811,680.929Z" transform="translate(-392.132 -666.76)" fill="#3b455a"/>
            </g>
            <path id="Trazado_104789" data-name="Trazado 104789" d="M388.806,483.5c.651,13,2.041,25.946,1.057,39.033-1.215,16.167-.182,32.624-2.009,48.638a39.02,39.02,0,0,0,5.653,1.5c2.2.411,5.744.886,7.231-1.191.76-1.062.945-3.117,1.269-4.365,1.036-4,1.98-8.021,2.915-12.043,2.647-11.382,5.593-22.82,6.964-34.427,1.441-12.21,2.987-24.431,4.686-36.558.879-6.269,1.519-12.57,1.861-18.89.088-1.629.955-18.427.135-18.546a76.424,76.424,0,0,0-28.931,1.229,3.9,3.9,0,0,0-2.391,1.283,3.6,3.6,0,0,0-.488,2.366c.18,7.924,1.3,15.651,1.65,23.6C388.529,477.891,388.664,480.659,388.806,483.5Z" transform="translate(-386.75 -445.819)" fill="#ccd2d9"/>
          </g>
          <path id="Trazado_104790" data-name="Trazado 104790" d="M361.135,323.882q-.237.08-.472.169a26.545,26.545,0,0,0-7.009,4.532c-3.265,2.637-4.874,3.794-6.135,7.7a94.9,94.9,0,0,0-2.633,11.245c-3.7,19.273-4.412,38.466-7.066,57.884-.723,5.286-1.28,11.5,2.629,15.13,6.936-5.4,15.655-5.71,24.067-5.717,5.908-.005,11.684-1.919,17.605-1.259,5.66.63,10.6-.785,16.346-.41,1.385.09,3.149.075,3.7-1.2-1.988-5.958-1.953-12.365-2.4-18.629-1.164-16.2-6.532-31.753-8.7-47.848-.736-5.471-1.129-14.551-5.366-18.692-4.6-4.5-15.106-4.592-21.023-3.712A20.409,20.409,0,0,0,361.135,323.882Z" transform="translate(-326.015 -271.152)" fill="#fff"/>
          <g id="Grupo_59308" data-name="Grupo 59308" transform="translate(10.055)">
            <g id="Grupo_59307" data-name="Grupo 59307">
              <g id="Grupo_59306" data-name="Grupo 59306" transform="translate(22.582 13.696)">
                <g id="Grupo_59305" data-name="Grupo 59305" transform="translate(0 6.534)">
                  <path id="Trazado_104791" data-name="Trazado 104791" d="M382.93,298.134a2.126,2.126,0,0,0,.4.543,4.614,4.614,0,0,0,2.586,1.2,11.44,11.44,0,0,0,3.75-.264c1.671-.318,1.612-1.3,1.854-2.813.132-.829.215-1.664.278-2.5.034-.458-.143-2.1.149-2.422.2-.218,1.006-.144,1.36-.329a3.9,3.9,0,0,0,1.366-1.356,10.968,10.968,0,0,0,1.135-2.781l1.528-5.015a26.526,26.526,0,0,0,1.211-5.209c.252-2.68-.181-6.462-2.2-8.422-1.845-1.787-4.537-2.413-7.006-2.729a14.6,14.6,0,0,0-9.48,1.916,7.8,7.8,0,0,0-2.894,2.858c-1.038,1.926-.959,4.33-.847,6.579q.155,3.112.309,6.225c.119,2.387.416,5.136,2.2,6.431.949.688,2.191.834,3,1.716,1.018,1.1.952,2.76.994,4.159A5.113,5.113,0,0,0,382.93,298.134Z" transform="translate(-376.053 -265.906)" fill="#eacdb0"/>
                </g>
                <path id="Trazado_104792" data-name="Trazado 104792" d="M400.953,265.984a3.488,3.488,0,0,1,.279.607c.381,1.1.123,2.341.5,3.445.59,1.749,2.631,2.8,2.938,4.62.252,1.489-.765,2.9-.851,4.41-.094,1.647.961,3.205.8,4.83a10.759,10.759,0,0,1-1.88,4.527c.261-.35,2.624-.225,3.237-.6a2.481,2.481,0,0,0,1.326-1.914c.278-.972.063-1.93.5-2.925.531-1.221,1.621-2.118,2-3.42.521-1.777-.425-3.653-.351-5.5.112-2.8,2.533-5.44,1.654-8.1-.516-1.562-2.032-2.56-2.885-3.966a21.23,21.23,0,0,1-1.335-3.492,4.163,4.163,0,0,0-2.419-2.685,20.319,20.319,0,0,0-2.064-.243c-1.179-.219-2.159-1.033-3.295-1.418-1.625-.55-4.492,1.094-5.441,2.471s-.467,2.529.5,3.738C395.756,262.377,399.63,263.694,400.953,265.984Z" transform="translate(-383.729 -254.045)" fill="#3b455a"/>
              </g>
              <path id="Trazado_104793" data-name="Trazado 104793" d="M362.715,255.761a31.076,31.076,0,0,0-3.066,2.066c-1.734,1.627-2.063,4.231-2.126,6.609-.056,2.117-.982,4-.753,6.2a5.4,5.4,0,0,0,1.989,3.855c1.5,1.09,3.859,1.268,4.529,3,.728,1.879-1.219,4.246-.037,5.878.652.9,1.929,1.032,2.862,1.638a8.21,8.21,0,0,1,2.211,2.946c.635,1.066,1.59,2.133,2.83,2.159a10.341,10.341,0,0,0-.7-5.107c-.469-1-1.851-2.859-.789-3.947.669-.9,2.25-1.2,2.291-2.323a2.6,2.6,0,0,0-.64-1.419,6.471,6.471,0,0,1-.477-5.881,8.414,8.414,0,0,1,4.176-4.305c2.157-1.045,1.81-1.572,2.437-3.637.577-1.9,1.656-2.346,3.367-3.039a3.605,3.605,0,0,0,2.6-2.447c.415-1.052.926-2.313.324-3.487a7.1,7.1,0,0,0-2.173-2.237c-1.742-1.328-3.7-2.724-5.885-2.567-1.213.088-2.355.658-3.57.727-.81.046-1.616-.133-2.427-.16a6.453,6.453,0,0,0-3.961,1.2c-1.129.83-1.1,1.7-1.724,2.878A4.225,4.225,0,0,1,362.715,255.761Z" transform="translate(-344.795 -238.402)" fill="#3b455a"/>
              <path id="Trazado_104794" data-name="Trazado 104794" d="M357.876,238.791c.213-1.315.076-3.027-1.179-3.471-.688-.243-1.458.023-2.173-.122-1.523-.31-2.042-2.155-2.841-3.488a1.151,1.151,0,0,0-.474-.5,1.873,1.873,0,0,0-.983.025c-1.516.185-2.668-1.311-4.1-1.853a3.584,3.584,0,0,0-4.522,2.247c-.219.745-.181,1.546-.386,2.3-.832,3.035-5.276,4.326-5.388,7.471-.076,2.125,2,4.161,1.2,6.127-.517,1.258-2.135,2.115-1.95,3.462A1.876,1.876,0,0,0,337,252.432a3.767,3.767,0,0,0,2.337-1.068c1.046-.913,1.834-2.085,2.83-3.052a4.734,4.734,0,0,1,3.7-1.58c1.334.166,2.542,1.205,3.869.983,1.061-.178,1.848-1.124,2.89-1.391a9.8,9.8,0,0,1,2.993.194c1,.061,2.238-.462,2.265-1.468a2.525,2.525,0,0,1,.015-.727c.214-.648,1.322-.612,1.533-1.261-.524-.809-1.264-.519-1.64-1.575A5.806,5.806,0,0,1,357.876,238.791Z" transform="translate(-335.064 -229.186)" fill="#3b455a"/>
            </g>
          </g>
        </g>
      </g>
      <g id="Grupo_59317" data-name="Grupo 59317" transform="translate(116.664 177.618)">
        <g id="Grupo_59315" data-name="Grupo 59315">
          <g id="Grupo_59314" data-name="Grupo 59314">
            <g id="Grupo_59313" data-name="Grupo 59313">
              <g id="Grupo_59311" data-name="Grupo 59311">
                <rect id="Rectángulo_5784" data-name="Rectángulo 5784" width="206.814" height="143.588" fill="#e3ccff"/>
              </g>
              <g id="Grupo_59312" data-name="Grupo 59312" transform="translate(4.821 4.565)" opacity="0.2">
                <path id="Trazado_104795" data-name="Trazado 104795" d="M424.4,364.52H375.038v43.862C375.038,384.158,397.139,364.52,424.4,364.52Z" transform="translate(-375.038 -364.52)" fill="#ccd2d9"/>
              </g>
            </g>
          </g>
        </g>
        <g id="Grupo_59316" data-name="Grupo 59316" transform="translate(90.4 70.082)" opacity="0.06">
          <path id="Trazado_104796" data-name="Trazado 104796" d="M530.372,556.945H646.786V483.439S636.032,556.945,530.372,556.945Z" transform="translate(-530.372 -483.439)" fill="#ccd2d9"/>
        </g>
      </g>
      <g id="Grupo_59318" data-name="Grupo 59318" transform="translate(302.227 77.425)">
        <path id="Trazado_104797" data-name="Trazado 104797" d="M703.128,174.532c-.009-.052-.016-.105-.026-.158.031.026.06.055.091.081C703.171,174.481,703.149,174.505,703.128,174.532Z" transform="translate(-703.102 -174.374)" fill="gray" opacity="0.49"/>
      </g>
      <g id="Grupo_59330" data-name="Grupo 59330" transform="translate(0 106.678)">
        <g id="Grupo_59321" data-name="Grupo 59321" transform="translate(7.893 115.751)">
          <g id="Grupo_59319" data-name="Grupo 59319" transform="translate(5.295 140.237)">
            <path id="Trazado_104798" data-name="Trazado 104798" d="M178.8,696.767l-.331,4.653,8.974,5.315,4.984-4.322-4.322-4.984-8.974-5.315Z" transform="translate(-178.469 -692.114)" fill="#3b455a"/>
          </g>
          <g id="Grupo_59320" data-name="Grupo 59320">
            <path id="Trazado_104799" data-name="Trazado 104799" d="M169.863,440.968,168.858,455.1l14.483,62.574L174.1,580.926l9.1,2.5,26.883-75.687.907-22.917-5.38-47.254Z" transform="translate(-168.858 -437.57)" fill="#3b455a"/>
          </g>
        </g>
        <g id="Grupo_59324" data-name="Grupo 59324" transform="translate(30.582 125.244)">
          <g id="Grupo_59322" data-name="Grupo 59322">
            <path id="Trazado_104800" data-name="Trazado 104800" d="M246.776,457.046l5.749,59.264-4.65,77.441-8.6.734-11.453-70.112L210.04,454.8Z" transform="translate(-210.04 -454.801)" fill="#3b455a"/>
          </g>
          <g id="Grupo_59323" data-name="Grupo 59323" transform="translate(29.201 137.863)">
            <path id="Trazado_104801" data-name="Trazado 104801" d="M263.043,705.829l.4,4.648,9.692,3.854,4.251-5.044-5.044-4.251Z" transform="translate(-263.043 -705.036)" fill="#3b455a"/>
          </g>
        </g>
        <g id="Grupo_59325" data-name="Grupo 59325" transform="translate(0 44.386)">
          <path id="Trazado_104802" data-name="Trazado 104802" d="M155.164,390.2c-.679,5.391-1.265,12.69.783,13.172a1.891,1.891,0,0,0,1.136-.213c3.793-1.587,6.618-4.082,10.353-5.608a40.979,40.979,0,0,1,12.5-2.52,117.6,117.6,0,0,1,19.12.012,150.252,150.252,0,0,1,14.873,2.3c4.092.772,7.806,2.394,12.042,2.54a27.183,27.183,0,0,0,12.643-2.613.73.73,0,0,0,.367-.291.741.741,0,0,0-.005-.511c-.629-2.5-1.014-4.958-2.406-7.122a44.236,44.236,0,0,1-3.555-8.056,122.645,122.645,0,0,1-5.391-17.216c-2.045-7.959-4.515-15.762-6.462-23.736-1.35-5.528-2.522-11.133-4.58-16.454-1.611-4.167-4.615-10.321-8.775-12.513a13.568,13.568,0,0,0-4.6-1.173l-14.359-1.909a11.724,11.724,0,0,0-5.232.1c-2.5.832-4.115,3.2-5.54,5.423a115.579,115.579,0,0,0-14.046,32.411c-1.621,6-3.168,12.011-4.517,18.07-1.5,6.762-2.762,13.58-3.593,20.454C155.83,385.5,155.486,387.634,155.164,390.2Z" transform="translate(-154.531 -308.036)" fill="#ebb044"/>
        </g>
        <g id="Grupo_59326" data-name="Grupo 59326" transform="translate(25.049 44.641)">
          <path id="Trazado_104803" data-name="Trazado 104803" d="M213.628,335.789a39.469,39.469,0,0,1-1.44,8.081L200,392.463,238.7,396.14q.259-9.313.518-18.627a87.794,87.794,0,0,0-.211-11.937c-.7-6.391-2.783-12.556-4.856-18.662l-11.5-33.85a3.347,3.347,0,0,0-2.929-2.711,38.127,38.127,0,0,0-11.482-1.837c-1.276,3.275,1.531,9.49,2.471,12.757C212.085,326.028,213.813,330.785,213.628,335.789Z" transform="translate(-199.997 -308.499)" fill="#f7f7f7"/>
        </g>
        <g id="Grupo_59329" data-name="Grupo 59329" transform="translate(22.368)">
          <g id="Grupo_59327" data-name="Grupo 59327" transform="translate(7.92 17.383)">
            <path id="Trazado_104804" data-name="Trazado 104804" d="M222.711,290.366l-7.979-1.181a40.328,40.328,0,0,1,.742-6.381c-.051.255-4.092-2.443-4.417-2.994-.936-1.585-.806-4.07-1.078-5.869-.577-3.831-1.048-8.126,1.267-11.232,2.4-3.217,6.937-3.932,10.937-3.622,5.022.389,10.463,2.43,12.593,6.995,1.923,4.123-1.606,9.544-2.87,13.562-.623,1.981-1.494,4.225-3.463,4.885-1.046.35-2.252.175-3.21.722C223.544,286.215,223.647,288.662,222.711,290.366Z" transform="translate(-209.506 -259.022)" fill="#eacdb0"/>
          </g>
          <g id="Grupo_59328" data-name="Grupo 59328">
            <path id="Trazado_104805" data-name="Trazado 104805" d="M236.982,245.311q.878-4.106,1.756-8.213a7.222,7.222,0,0,0,.2-3.086,5.4,5.4,0,0,0-3.546-3.5c-1.614-.621-3.36-.82-5-1.364-1.752-.581-3.412-1.56-5.254-1.67-3.5-.208-6.509,2.749-10.013,2.943-4.852.267-9.008-2.375-12.473,2.944-.636.977-.906,2.15-1.484,3.163a23.2,23.2,0,0,1-2.941,3.416c-4.335,5.009-3.965,13.332.134,18.383,1.987,2.449,2.686,4.551,5.667,5.58-1.1-2.99,1.92-14.129,5.883-15,1.05-.231,3.968,1.327,5.075,1.608A29.979,29.979,0,0,1,222.062,253a36.385,36.385,0,0,0,10.727,3.884,1.4,1.4,0,0,0,2-1.318Q235.887,250.439,236.982,245.311Z" transform="translate(-195.131 -227.471)" fill="#3b455a"/>
          </g>
        </g>
      </g>
      <g id="Grupo_59333" data-name="Grupo 59333" transform="translate(203.733)" opacity="0.73">
        <g id="Grupo_59332" data-name="Grupo 59332">
          <path id="Trazado_104806" data-name="Trazado 104806" d="M524.586,99.144a23.279,23.279,0,0,1,19.322-26.425c-.076-.394-.149-.79-.209-1.191a28.234,28.234,0,0,1,46.219-25.686,26.108,26.108,0,0,1,47.535,8.816c.577-.132,1.16-.25,1.754-.338a23.284,23.284,0,0,1,13.843,43.86,22.529,22.529,0,0,1-18.664,34.347l3.565,23.837c.139,1.036-1.126,1.648-1.58,1.177L618.091,138.6a22.515,22.515,0,0,1-32.7-2.71,25.157,25.157,0,0,1-41.226-15.407c-.09-.6-.149-1.193-.2-1.786A23.292,23.292,0,0,1,524.586,99.144Z" transform="translate(-524.326 -33.839)" fill="#bb83ff"/>
          <g id="Grupo_59331" data-name="Grupo 59331" transform="translate(42.327 53.145)">
            <path id="Trazado_104807" data-name="Trazado 104807" d="M603.346,144.863c3.4-.509,4.2,4.775.79,5.285S599.94,145.373,603.346,144.863Z" transform="translate(-601.155 -136.826)" fill="#fff"/>
            <path id="Trazado_104808" data-name="Trazado 104808" d="M646.513,138.407c3.4-.509,4.2,4.775.79,5.285S643.107,138.917,646.513,138.407Z" transform="translate(-620.539 -133.926)" fill="#fff"/>
            <path id="Trazado_104809" data-name="Trazado 104809" d="M700.472,130.337c3.4-.509,4.2,4.775.791,5.285S697.066,130.847,700.472,130.337Z" transform="translate(-644.77 -130.303)" fill="#fff"/>
          </g>
        </g>
      </g>
      <g id="Grupo_59334" data-name="Grupo 59334" transform="translate(142.367 203.613)">
        <path id="Trazado_104810" data-name="Trazado 104810" d="M693.532,406.279l-8.712,6.955q2.217,3.4,4.327,6.864c.7,1.16-1.187,2.075-1.882.926-1.322-2.187-2.69-4.343-4.084-6.481l-8.484,6.773c-1.054.842-2.426-.75-1.367-1.595l8.7-6.945q-2.554-3.843-5.264-7.582c-.789-1.089.792-2.471,1.587-1.375q2.736,3.773,5.313,7.65l8.5-6.785C693.219,403.842,694.591,405.434,693.532,406.279Z" transform="translate(-529.702 -403.417)" fill="#fff"/>
        <path id="Trazado_104811" data-name="Trazado 104811" d="M566.357,447.823a58.935,58.935,0,0,0-3.049-11.353c-.307-.816-1.345-.669-1.8-.134a44.113,44.113,0,0,0-6.774,10.687c-.458,1.014.913,1.762,1.671,1.152a25.785,25.785,0,0,0,2.728-2.551c-4.825,15.466-9.494,34.481-26.951,38.057-15.613,3.2-24.417-14.236-31.191-25.322-5.81-9.51-11.977-19.811-21.689-25.782-10.375-6.377-23.148-5.938-33.689-.179-10.631,5.81-19.14,16.472-18.905,28.957a13.182,13.182,0,0,0-13.559,11.077c-1.016,5.591,1.82,14.644,8.321,14.374a.865.865,0,0,0,.676,1.036,12.8,12.8,0,0,0,15.838-10.229c1.349-6.788-2.231-14.35-9.186-15.95-.715-16.983,16.764-31.306,32.819-31.7,26.531-.657,34.864,29.477,48.892,46.33,4.191,5.036,9.53,9.238,16.255,9.81,6.276.534,12.318-2.049,17.113-5.981,11.662-9.565,14.093-25.184,18.856-38.777a57.09,57.09,0,0,1,1.575,6.889C564.519,449.569,566.575,449.159,566.357,447.823Zm-139.1,15.706a.977.977,0,0,0,.446.071c.213.035.426.067.64.116,12.9,2.935,8.474,24.414-4.35,22.38.553-.71.1-2.017-.954-1.7-7.649,2.322-9.036-9.2-7.164-13.968A10.83,10.83,0,0,1,427.258,463.528Z" transform="translate(-412.942 -414.427)" fill="#fff"/>
        <path id="Trazado_104812" data-name="Trazado 104812" d="M419.249,508.962a11.973,11.973,0,0,1-.185-1.973c-.152-7.643,3.786-12.729,11.647-10.885,4.047.95,6.4,6.048,6.379,9.858-.013,2.56-.786,5.377-2.949,6.731-3.517,2.2-11.831,2.458-14.183-1.7A6.555,6.555,0,0,1,419.249,508.962Z" transform="translate(-415.689 -444.869)" fill="#ebb044"/>
      </g>
      <g id="Grupo_59335" data-name="Grupo 59335" transform="translate(129.319 62.053)">
        <rect id="Rectángulo_5785" data-name="Rectángulo 5785" width="95.724" height="6.77" transform="matrix(0.576, 0.817, -0.817, 0.576, 21.302, 30.159)" fill="#d34e4e"/>
        <rect id="Rectángulo_5786" data-name="Rectángulo 5786" width="95.724" height="6.77" transform="matrix(0.576, 0.817, -0.817, 0.576, 32.367, 22.353)" fill="#d34e4e"/>
        <rect id="Rectángulo_5787" data-name="Rectángulo 5787" width="95.724" height="6.77" transform="matrix(0.576, 0.817, -0.817, 0.576, 26.834, 26.256)" fill="#fff"/>
        <rect id="Rectángulo_5788" data-name="Rectángulo 5788" width="1.826" height="20.311" transform="translate(31.314 20.86) rotate(54.796)" fill="#ccd2d9"/>
        <rect id="Rectángulo_5789" data-name="Rectángulo 5789" width="1.826" height="20.311" transform="matrix(0.576, 0.817, -0.817, 0.576, 30.261, 19.368)" fill="#f7f7f7"/>
        <rect id="Rectángulo_5790" data-name="Rectángulo 5790" width="1.826" height="20.311" transform="matrix(0.576, 0.817, -0.817, 0.576, 29.208, 17.876)" fill="#ccd2d9"/>
        <path id="Rectángulo_5791" data-name="Rectángulo 5791" d="M10.156,0h9.9a0,0,0,0,1,0,0V20.311a0,0,0,0,1,0,0h-9.9A10.156,10.156,0,0,1,0,10.156v0A10.156,10.156,0,0,1,10.156,0Z" transform="translate(16.596) rotate(54.796)" fill="#fff"/>
        <rect id="Rectángulo_5792" data-name="Rectángulo 5792" width="1.826" height="20.311" transform="matrix(0.576, 0.817, -0.817, 0.576, 28.156, 16.384)" fill="#f7f7f7"/>
        <path id="Trazado_104813" data-name="Trazado 104813" d="M534.643,329.016l-16.6,11.709,22.728,14.6Z" transform="translate(-447.093 -228.446)" fill="#fff"/>
        <path id="Trazado_104814" data-name="Trazado 104814" d="M553.537,365.605l-3.879,2.737,5.312,3.412Z" transform="translate(-461.288 -244.877)" fill="#7fc5a3"/>
      </g>
      <g id="Grupo_59337" data-name="Grupo 59337" transform="translate(40.418 198.673)">
        <path id="Trazado_104815" data-name="Trazado 104815" d="M236.082,490.1s92.346,3.909,93.5,3.179.472-93.357-3.119-96.9C326.461,396.379,241.692,484.338,236.082,490.1Z" transform="translate(-231.57 -395.316)" fill="#3b455a" opacity="0.25"/>
        <path id="Trazado_104816" data-name="Trazado 104816" d="M322.677,489.234H227.893a315.02,315.02,0,0,0,3.573-50.341c-.141-15.056-.075-28.065-2.269-42.484,31.594,0,61.886-1.959,93.481-1.959,1.343,13.238,2.241,27.678,2.38,43.168A469.526,469.526,0,0,1,322.677,489.234Z" transform="translate(-227.893 -394.45)" fill="#d34e4e"/>
        <g id="Grupo_59336" data-name="Grupo 59336" transform="translate(14.031 21.217)">
          <path id="Trazado_104817" data-name="Trazado 104817" d="M283.96,450.53c-.674-6.221-2.891-13.514-9.073-16.282-7.072-3.166-14.652.129-21.132,3.151-.891.416-.116,1.735.772,1.321.64-.3,1.3-.6,1.965-.9,1.323,13.973-1.359,27.959-.37,41.94a.845.845,0,0,0,.077.987c.026.309.042.618.072.926.093.972,1.624.981,1.53,0-.032-.334-.05-.669-.078-1C270.236,476.379,285.556,465.26,283.96,450.53Zm-10.775,19.391a45.443,45.443,0,0,1-15.584,9.16c-.871-13.971,1.811-27.948.364-41.912,5.4-2.311,11.48-4.081,16.92-1.232,5.764,3.02,7.74,11.3,7.693,17.3C282.523,460.054,278.006,465.553,273.185,469.921Z" transform="translate(-253.361 -432.96)" fill="#fff"/>
          <path id="Trazado_104818" data-name="Trazado 104818" d="M319.467,480.965c-2.259-.9-5.318.2-7.2,1.417a12.71,12.71,0,0,0-5.342,8.113c-1.3,6.089.353,13.911,7.694,14.485,7.071.554,12.422-5.816,13.171-12.385C328.412,487.092,325.089,481.138,319.467,480.965Zm6.583,12.806c-1.1,5.022-5.14,9.717-10.613,9.711-6.775-.007-8.2-7.181-7.04-12.58a11.54,11.54,0,0,1,3.589-6.4,10.153,10.153,0,0,1,4.887-2.313.761.761,0,0,0,.876.45,7.663,7.663,0,0,1,1.316-.164,3,3,0,0,1,.492.288.63.63,0,0,0,.953-.187C325.077,483.437,327.024,489.3,326.049,493.771Z" transform="translate(-277.232 -454.369)" fill="#fff"/>
          <path id="Trazado_104819" data-name="Trazado 104819" d="M364.889,512.429a1.166,1.166,0,0,0-.089-.12,1.577,1.577,0,0,0-2.561.6,2.777,2.777,0,0,0-.733,2.06,1.688,1.688,0,0,0,1.64,1.542,2.1,2.1,0,0,0,1.879-1.622,1.6,1.6,0,0,0,.456-1.465A1.663,1.663,0,0,0,364.889,512.429Z" transform="translate(-301.917 -468.388)" fill="#fff"/>
          <path id="Trazado_104820" data-name="Trazado 104820" d="M369.953,449.125c-.714-1.267-2.687-1.254-3.964-1.321a.775.775,0,0,0-.765.765q-.393,13.5-.2,27.008a.753.753,0,0,0,.921.727.764.764,0,0,0,1.524-.039,160.73,160.73,0,0,1,1.735-19.942c.223-1.464.47-2.924.729-4.382C370.088,451.052,370.434,449.979,369.953,449.125Zm-3.218.25.2.021a.852.852,0,0,0-.1.311c-.028.279-.074.545-.126.807C366.718,450.135,366.724,449.755,366.735,449.375Zm-.121,5.116a.689.689,0,0,0,.376.133c-.163.823-.337,1.6-.415,2.195Q366.593,455.655,366.613,454.491Z" transform="translate(-303.476 -439.626)" fill="#fff"/>
        </g>
      </g>
      <g id="Grupo_59340" data-name="Grupo 59340" transform="translate(10.475 157.734)">
        <g id="Grupo_59338" data-name="Grupo 59338" transform="translate(4.145 27.128)">
          <path id="Trazado_104821" data-name="Trazado 104821" d="M229.569,412.418a1.886,1.886,0,0,0-.223-.478c-.94-1.291-2.2-1.4-3.457-2.382-.559-.437-.4-2.256-1.8-1.772-.517.178-1.724.794-2.823,1.186a10.475,10.475,0,0,1-5.829-.22,53.811,53.811,0,0,1-7.433-2.647,91.309,91.309,0,0,1-14.477-8.531,24.674,24.674,0,0,0,.679-25.455,5.713,5.713,0,0,0-1.814-2.1,4.933,4.933,0,0,0-2.265-.613c-8.338-.542-8.495,7.382-8.888,13.762a81.755,81.755,0,0,0,.1,12.016c.483,5.569,4.08,8.768,8.84,11.419,5.043,2.809,10.2,5.565,15.751,7.245a61.817,61.817,0,0,0,8.106,1.521c2.721.448,2.369,1.635,4.649,2.638a22.529,22.529,0,0,0,3.824,1.686c2.438.564,4.4-1.12,6.256-2.423a2.691,2.691,0,0,0,1.018-1.014,3.886,3.886,0,0,0,.124-2.41A7.528,7.528,0,0,0,229.569,412.418Z" transform="translate(-181.068 -369.382)" fill="#e5d1bd"/>
        </g>
        <g id="Grupo_59339" data-name="Grupo 59339" transform="translate(0 0)">
          <path id="Trazado_104822" data-name="Trazado 104822" d="M173.634,364.142c.127,3.08.383,6.1.743,8.992.537,4.317,1.252,9,4.408,11.994a18.666,18.666,0,0,0,4.193,2.75q10.53,5.6,21.331,10.662a41.417,41.417,0,0,0,6.286-10.781,5.1,5.1,0,0,0,.448-3.411c-.549-1.652-2.461-2.345-4.135-2.822l-8.18-2.328a3.691,3.691,0,0,1-2.322-1.357,3.547,3.547,0,0,1-.35-1.747c-.253-11.355,1.747-20.844,4.381-31.8,1.16-4.831,2.326-9.845,1.362-14.719-2.058-10.407-15.758-13.116-20.981-3.464C174.862,337.113,173.1,351.194,173.634,364.142Z" transform="translate(-173.544 -320.142)" fill="#ebb044"/>
        </g>
      </g>
      <g id="Grupo_59370" data-name="Grupo 59370" transform="translate(302.157 110.626)">
        <g id="Grupo_59343" data-name="Grupo 59343" transform="translate(0 43.018)">
          <g id="Grupo_59341" data-name="Grupo 59341" transform="translate(0 25.317)">
            <path id="Trazado_104823" data-name="Trazado 104823" d="M708.351,387.619a3.237,3.237,0,0,1,1.413-1.1,14.615,14.615,0,0,0,2.638-1.084c.674-.444.5-2.065,2.064-1.45.576.227,1.582.949,2.683,1.37a11.019,11.019,0,0,0,5.826.135,200.921,200.921,0,0,1,23.01-3.98,2.508,2.508,0,0,0,1.257-.338,2.923,2.923,0,0,0,.927-1.989,55.7,55.7,0,0,1,3.125-10.193,20.473,20.473,0,0,1,5.29-7.809,9.4,9.4,0,0,1,8.8-2.143,6.414,6.414,0,0,1,4.65,4.7c1.176,5.9-4.244,10.312-7.492,14.448-3.074,3.913-5.7,7.232-8.92,10.819a4.081,4.081,0,0,1-1.333,1.109,4.262,4.262,0,0,1-1.807.258c-7.791-.1-15.384-.4-23.012,1.179-2.1.435-4.01-.009-5.983.661-1.259.428-1.917,1.676-3.075,2.274a10.373,10.373,0,0,1-3.823,1.292c-2.557.173-4.13-1.706-5.872-3.253a3.984,3.984,0,0,0-4.259-1.11,1.446,1.446,0,0,1-.685.14,1.068,1.068,0,0,1-.637-1.6,2.714,2.714,0,0,1,1.68-1.034,8.311,8.311,0,0,1,2.151-.458,1.317,1.317,0,0,0,.884-.225C708.073,388.018,708.148,387.849,708.351,387.619Z" transform="translate(-702.976 -358.671)" fill="#eacdb0"/>
          </g>
          <g id="Grupo_59342" data-name="Grupo 59342" transform="translate(46.207)">
            <path id="Trazado_104824" data-name="Trazado 104824" d="M800.113,355.4c-4.388-1.661-8.99-2.676-13.267-4.686,1.551-3.724,6.038-18.877,6.811-20.691,2.947-6.924,3.518-9.907,7.58-13.563,8.675-7.808,18.976-2.63,18.553,8.451-.459,12.03-6.905,22.356-13.887,31.66a1.359,1.359,0,0,1-.623.459,1.565,1.565,0,0,1-.989-.127C802.927,356.365,801.5,355.925,800.113,355.4Z" transform="translate(-786.846 -312.718)" fill="#aab4b5"/>
          </g>
        </g>
        <g id="Grupo_59354" data-name="Grupo 59354" transform="translate(45.916 107.652)">
          <g id="Grupo_59348" data-name="Grupo 59348">
            <g id="Grupo_59347" data-name="Grupo 59347" transform="translate(0 97.482)">
              <g id="Grupo_59346" data-name="Grupo 59346">
                <g id="Grupo_59344" data-name="Grupo 59344" transform="translate(11.565)">
                  <path id="Trazado_104825" data-name="Trazado 104825" d="M812.056,653.044a35.639,35.639,0,0,1-4.519-.432c-.778-14.95.635-30.617,1.247-45.638l11.521.615a134.267,134.267,0,0,0-5.7,24.7C814.429,633.614,812.275,653.036,812.056,653.044Z" transform="translate(-807.309 -606.974)" fill="#eacdb0"/>
                </g>
                <g id="Grupo_59345" data-name="Grupo 59345" transform="translate(0 42.701)">
                  <path id="Trazado_104826" data-name="Trazado 104826" d="M797.646,684.517a2.318,2.318,0,0,0-2.139.83c-.367.336-.617.81-1.06,1.05a3.479,3.479,0,0,1-1.4.34c-2.77.278-9.153.162-5.753,4.8,3.088,4.208,11.289,2.533,16.027,1.389a1.628,1.628,0,0,0,.869-.363,2.227,2.227,0,0,0,.48-.94c.54-1.98,1.279-4.452-1.155-5.282-1.039-.354-2,.334-3.095-.047C799.517,685.978,798.594,684.686,797.646,684.517Z" transform="translate(-786.318 -684.48)" fill="#3b455a"/>
                </g>
              </g>
            </g>
            <path id="Trazado_104827" data-name="Trazado 104827" d="M794.2,536.534l23.5-.456q9.5-45.24,16.731-90.918c.374-2.36.737-4.814.057-7.1-1.286-4.332-5.926-6.8-10.368-7.634-6.9-1.29-19.587.506-23.128,7.684-3.741,7.586-3.113,21.133-4.021,29.515A509.559,509.559,0,0,0,794.2,536.534Z" transform="translate(-789.77 -430.035)" fill="#3b455a"/>
          </g>
          <g id="Grupo_59353" data-name="Grupo 59353" transform="translate(32.318)">
            <g id="Grupo_59352" data-name="Grupo 59352" transform="translate(20.532 97.482)">
              <g id="Grupo_59351" data-name="Grupo 59351">
                <g id="Grupo_59349" data-name="Grupo 59349">
                  <path id="Trazado_104828" data-name="Trazado 104828" d="M890.5,653.044a35.639,35.639,0,0,0,4.519-.432c.779-14.95-.634-30.617-1.247-45.638l-11.521.615a134.222,134.222,0,0,1,5.7,24.7C888.123,633.614,890.277,653.036,890.5,653.044Z" transform="translate(-882.246 -606.974)" fill="#eacdb0"/>
                </g>
                <g id="Grupo_59350" data-name="Grupo 59350" transform="translate(5.669 42.701)">
                  <path id="Trazado_104829" data-name="Trazado 104829" d="M900.1,684.517a2.318,2.318,0,0,1,2.139.83c.367.336.617.81,1.059,1.05a3.482,3.482,0,0,0,1.4.34c2.771.278,9.153.162,5.753,4.8-3.088,4.208-11.289,2.533-16.026,1.389a1.629,1.629,0,0,1-.869-.363,2.226,2.226,0,0,1-.479-.94c-.541-1.98-1.28-4.452,1.155-5.282,1.038-.354,1.995.334,3.094-.047C898.229,685.978,899.152,684.686,900.1,684.517Z" transform="translate(-892.536 -684.48)" fill="#3b455a"/>
                </g>
              </g>
            </g>
            <path id="Trazado_104830" data-name="Trazado 104830" d="M885.642,536.534l-23.5-.456q-9.5-45.24-16.73-90.918c-.373-2.36-.737-4.814-.057-7.1,1.286-4.332,5.926-6.8,10.369-7.634,6.9-1.29,19.587.506,23.128,7.684,3.741,7.586,3.113,21.133,4.021,29.515A509.549,509.549,0,0,1,885.642,536.534Z" transform="translate(-844.978 -430.035)" fill="#3b455a"/>
          </g>
        </g>
        <g id="Grupo_59355" data-name="Grupo 59355" transform="translate(51.807 39.934)">
          <path id="Trazado_104831" data-name="Trazado 104831" d="M844.02,315.956a56,56,0,0,1,13.815,21.6c5.016,14.081,5.113,29.116,5.159,43.848q.023,7.355.046,14.71c.016,4.825-.411,5.863-5.654,5.227-9.715-1.178-19.815-3.181-28.619-7.5-4.189-2.054-8.1-4.649-12.5-6.267-6.389-2.353-12.939-1.288-19.26-2.819a149.872,149.872,0,0,0,6.116-23.906c1.45-8.8,2.768-18.4,4.893-27.081,1.275-5.21,3.647-10.077,6.059-14.866,1.621-3.22,3.338-6.515,6.092-8.843C828.465,303.054,837.765,310,844.02,315.956Z" transform="translate(-797.011 -307.12)" fill="#fff"/>
        </g>
        <g id="Grupo_59360" data-name="Grupo 59360" transform="translate(75.084)">
          <g id="Grupo_59357" data-name="Grupo 59357" transform="translate(0 5.452)">
            <g id="Grupo_59356" data-name="Grupo 59356">
              <path id="Trazado_104832" data-name="Trazado 104832" d="M840.337,267.193c1.186,2.592,3.123,4.752,4.705,7.123a15.982,15.982,0,0,1,2.5,7.068c.295,1.932.985,3.442,3.312,3.772,4.388.624,3.133-3,4.13-5.64,1.139-3.015,3.569-5.4,5.267-8.089,4.907-7.776,3.506-23.146-6.692-26.427C842.411,241.415,836.738,259.327,840.337,267.193Z" transform="translate(-839.26 -244.532)" fill="#eacdb0"/>
            </g>
          </g>
          <g id="Grupo_59358" data-name="Grupo 59358" transform="translate(11.728 8.553)">
            <path id="Trazado_104833" data-name="Trazado 104833" d="M867.672,262.2a5.58,5.58,0,0,1,3.6,1c.939.85.837,2.7-.4,2.905-1.123.181-2.578-.991-3.264-.135-.4.5-.049,1.232.255,1.817a10.675,10.675,0,0,1,.973,7.238c.462.429,1.183-.016,1.589-.462a23.288,23.288,0,0,0,4.623-7.592,4.654,4.654,0,0,0,1.7,1.645,5.379,5.379,0,0,1,.105-3.268c.953-3.934,1.6-8.542-1.145-11.757a10.224,10.224,0,0,0-5.953-3.125,29.872,29.872,0,0,0-6.8-.213c-.97.044-2.164.253-2.4,1.15a10.8,10.8,0,0,1,5.389,4.525C866.264,256.544,867.543,262.191,867.672,262.2Z" transform="translate(-860.548 -250.161)" fill="#3b455a"/>
          </g>
          <g id="Grupo_59359" data-name="Grupo 59359" transform="translate(1.769)">
            <path id="Trazado_104834" data-name="Trazado 104834" d="M855.062,245.772q.117.084.228.17a9.668,9.668,0,0,0,3.033,1.951c1.681.468,3.486-.342,5.141.231,1.849.64,3.065,2.852,4.416,4.161a19.561,19.561,0,0,0,7.905,4.621,19.783,19.783,0,0,0,4.635.829,8.194,8.194,0,0,0,2.359-.012c.932-.251.9-.674-.093-.992-3.113-1-4.09-5.371-3.854-8.269.186-2.288.975-4.68.1-6.8-.667-1.622-2.1-2.459-3.482-3.387-1.526-1.023-3.181-.748-4.913-1.24-1.808-.513-3.28-1.937-5.124-2.3-1.948-.383-3.893.48-5.842.858a12.088,12.088,0,0,1-4.885-.06,19.579,19.579,0,0,0-4.3-.883,7.046,7.046,0,0,0-5.424,3.133,14.4,14.4,0,0,0-2.315,10.026c-.1-.509,1.614-2.351,1.966-2.748a4.629,4.629,0,0,1,2.775-1.756C849.953,243,853,244.273,855.062,245.772Z" transform="translate(-842.471 -234.636)" fill="#3b455a"/>
          </g>
        </g>
        <g id="Grupo_59366" data-name="Grupo 59366" transform="translate(18.688 34.505)">
          <path id="Trazado_104835" data-name="Trazado 104835" d="M769.5,529.818l-.593,6.516a3.661,3.661,0,0,0,3.074,4.144l15.287,1.391a3.66,3.66,0,0,0,3.772-3.521l.593-6.515Z" transform="translate(-751.264 -401.697)" fill="#e4e7ea"/>
          <path id="Trazado_104836" data-name="Trazado 104836" d="M811.23,342.283c2.085-22.922-12.82-43.014-33.292-44.877s-38.76,15.209-40.846,38.131a45.187,45.187,0,0,0,3.7,22.673h0c8.554,20.29,9.463,36.716,9.463,36.716l18.653,1.7,18.654,1.7s3.859-15.992,15.935-34.405h0A45.188,45.188,0,0,0,811.23,342.283Z" transform="translate(-736.897 -297.267)" fill="#ebb044"/>
          <path id="Trazado_104837" data-name="Trazado 104837" d="M758.3,474.455l-2.518,27.678a1.982,1.982,0,0,0,1.635,2.26l34.514,3.14a1.982,1.982,0,0,0,2.016-1.928l2.518-27.678Z" transform="translate(-745.375 -376.836)" fill="#e4e7ea"/>
          <path id="Trazado_104838" data-name="Trazado 104838" d="M822.161,364.761c-11.291,19.754-32.474,49.929-61.029,60.36,0,.068.007.113.007.113l18.653,1.7,18.654,1.7s3.859-15.992,15.935-34.405h0a45.189,45.189,0,0,0,7.734-21.632A46.7,46.7,0,0,0,822.161,364.761Z" transform="translate(-747.78 -327.576)" fill="#d34e4e" opacity="0.2"/>
          <g id="Grupo_59361" data-name="Grupo 59361" transform="translate(3.73 4.576)">
            <path id="Trazado_104839" data-name="Trazado 104839" d="M745.879,343.231c1.821-20.012,17.786-34.916,35.659-33.29,10.447.95,19.232,7.34,24.366,16.481-4.6-11.371-14.409-19.636-26.409-20.728-17.873-1.626-33.838,13.278-35.659,33.29a39.094,39.094,0,0,0,4.7,22.7A39.6,39.6,0,0,1,745.879,343.231Z" transform="translate(-743.667 -305.573)" fill="#d34e4e" opacity="0.2"/>
          </g>
          <g id="Grupo_59362" data-name="Grupo 59362" transform="translate(22.89 38.436)">
            <path id="Trazado_104840" data-name="Trazado 104840" d="M780.358,427.3l.343-53.536,5.727,6.4,6.341-9.187,4.68,9.878,6.659-5.007-9.333,52.768,1.915.174L806.873,371.2l-8.7,6.546-5.078-10.717-6.824,9.886-7.448-8.318-.375,58.521Z" transform="translate(-778.444 -367.032)" fill="#f6f7f7"/>
          </g>
          <g id="Grupo_59363" data-name="Grupo 59363" transform="translate(22.89 76.012)">
            <path id="Trazado_104841" data-name="Trazado 104841" d="M778.478,465.528l-.034,5.339,1.915.174.042-6.595Q779.446,465,778.478,465.528Z" transform="translate(-778.444 -448.353)" fill="#edeced"/>
            <path id="Trazado_104842" data-name="Trazado 104842" d="M811.929,437.508l-3.843,21.727,1.914.175,4.276-24.174Q813.118,436.385,811.929,437.508Z" transform="translate(-791.755 -435.235)" fill="#edeced"/>
          </g>
          <g id="Grupo_59364" data-name="Grupo 59364" transform="translate(10.846 104.492)">
            <rect id="Rectángulo_5793" data-name="Rectángulo 5793" width="5.132" height="38.323" transform="matrix(0.091, -0.996, 0.996, 0.091, 0.993, 5.111)" fill="#bbbfc4"/>
            <rect id="Rectángulo_5794" data-name="Rectángulo 5794" width="5.132" height="38.323" transform="translate(0 16.027) rotate(-84.801)" fill="#bbbfc4"/>
          </g>
          <g id="Grupo_59365" data-name="Grupo 59365" transform="translate(10.428 101.037)">
            <path id="Trazado_104843" data-name="Trazado 104843" d="M795.407,505.957l17.242,1.569.528-5.8-10.636-.967A72.5,72.5,0,0,1,795.407,505.957Z" transform="translate(-773.599 -489.683)" fill="#2a3693" opacity="0.2"/>
            <path id="Trazado_104844" data-name="Trazado 104844" d="M823.69,487.586l.625-6.872-.6-.055a51.4,51.4,0,0,1-5.932,6.39Z" transform="translate(-783.647 -480.659)" fill="#2a3693" opacity="0.2"/>
            <path id="Trazado_104845" data-name="Trazado 104845" d="M757.443,524.041l34.514,3.14a1.982,1.982,0,0,0,2.016-1.928l.435-4.779-24.921-2.267a52.691,52.691,0,0,1-13.663,4.1A1.9,1.9,0,0,0,757.443,524.041Z" transform="translate(-755.824 -497.521)" fill="#2a3693" opacity="0.2"/>
            <path id="Trazado_104846" data-name="Trazado 104846" d="M808.356,496.938l10.636.967.465-5.111-5.908-.538Q810.933,494.818,808.356,496.938Z" transform="translate(-779.414 -485.867)" fill="#3b455a" opacity="0.5"/>
            <path id="Trazado_104847" data-name="Trazado 104847" d="M780.624,514.611l24.921,2.267.465-5.111L788.768,510.2A63.317,63.317,0,0,1,780.624,514.611Z" transform="translate(-766.961 -493.924)" fill="#3b455a" opacity="0.5"/>
          </g>
          <path id="Trazado_104848" data-name="Trazado 104848" d="M796.593,540.657c-4.726,4.249-13.1,4.9-15.856,5l11.852,1.078a3.66,3.66,0,0,0,3.772-3.521Z" transform="translate(-756.584 -406.565)" fill="#bbbfc4"/>
        </g>
        <g id="Grupo_59369" data-name="Grupo 59369" transform="translate(67.419 48.158)">
          <g id="Grupo_59367" data-name="Grupo 59367" transform="translate(0 23.906)">
            <path id="Trazado_104849" data-name="Trazado 104849" d="M825.765,402.7a1.6,1.6,0,0,1,.194-.414c.82-1.118,1.917-1.21,3.009-2.059.487-.379.349-1.958,1.565-1.534.449.156,1.5.695,2.449,1.037a9.09,9.09,0,0,0,5.063-.175,46.8,46.8,0,0,0,6.464-2.278c2.122-.98,4.192-2.071,6.213-3.244,1.684-.978,4.356-2.1,5.629-3.587,2.153-2.517-.34-8.651-.624-11.793-.3-3.275-.009-12.924,4.412-13.2,7.244-.447,7.357,6.436,7.681,11.978a70.95,70.95,0,0,1-.122,10.435c-.435,4.836-3.568,7.6-7.71,9.893a70.569,70.569,0,0,1-13.7,6.248,53.735,53.735,0,0,1-7.044,1.3c-2.364.382-2.062,1.413-4.045,2.278a19.53,19.53,0,0,1-3.326,1.454c-2.119.483-3.817-.985-5.427-2.122a2.338,2.338,0,0,1-.88-.883,3.373,3.373,0,0,1-.1-2.094A6.562,6.562,0,0,1,825.765,402.7Z" transform="translate(-825.347 -365.437)" fill="#eacdb0"/>
          </g>
          <g id="Grupo_59368" data-name="Grupo 59368" transform="translate(23.592)">
            <path id="Trazado_104850" data-name="Trazado 104850" d="M886.915,359.823,874.629,362.2c.263-.051-4.739-18.361-5-19.461-.994-4.2-1.992-8.558-1.142-12.788,1.817-9.033,6.171-11.256,11.657-1.765,5.178,8.959,13.295,19.683,11.687,29.879a1.307,1.307,0,0,1-.216.629,1.331,1.331,0,0,1-.824.372Z" transform="translate(-868.168 -322.047)" fill="#fff"/>
          </g>
        </g>
      </g>
    </g>
  </g>
</svg>
