<svg id="objetive" xmlns="http://www.w3.org/2000/svg" width="35.727" height="35.727" viewBox="0 0 35.727 35.727">
  <g id="Grupo_59201" data-name="Grupo 59201">
    <path id="Trazado_104591" data-name="Trazado 104591" d="M34.536,16.673H33.3A15.507,15.507,0,0,0,19.054,2.427V1.191a1.191,1.191,0,0,0-2.382,0V2.427A15.507,15.507,0,0,0,2.427,16.673H1.191a1.191,1.191,0,0,0,0,2.382H2.427A15.507,15.507,0,0,0,16.673,33.3v1.236a1.191,1.191,0,0,0,2.382,0V33.3A15.507,15.507,0,0,0,33.3,19.054h1.236a1.191,1.191,0,0,0,0-2.382ZM16.673,30.909A13.121,13.121,0,0,1,4.818,19.054h7.211A5.972,5.972,0,0,0,16.673,23.7Zm0-9.677A3.59,3.59,0,0,1,14.5,19.054h2.177Zm0-4.559H14.5A3.59,3.59,0,0,1,16.673,14.5Zm0-4.644a5.972,5.972,0,0,0-4.644,4.644H4.818A13.121,13.121,0,0,1,16.673,4.818v7.211ZM19.054,14.5a3.59,3.59,0,0,1,2.177,2.177H19.054Zm0,4.559h2.177a3.59,3.59,0,0,1-2.177,2.177Zm0,11.854V23.7A5.972,5.972,0,0,0,23.7,19.054h7.211A13.121,13.121,0,0,1,19.054,30.909ZM23.7,16.673a5.972,5.972,0,0,0-4.644-4.644V4.818A13.121,13.121,0,0,1,30.909,16.673H23.7Z" fill="#f17781"/>
  </g>
</svg>
