<svg xmlns="http://www.w3.org/2000/svg" width="31.438" height="26.215" viewBox="0 0 31.438 26.215">
  <g id="strategy" transform="translate(0 -24.669)">
    <path id="Trazado_104592" data-name="Trazado 104592" d="M218.206,41.116a4.4,4.4,0,1,0,4.4,4.4,4.408,4.408,0,0,0-4.4-4.4Zm0,6.963a2.56,2.56,0,1,1,2.56-2.56A2.563,2.563,0,0,1,218.206,48.079Z" transform="translate(-191.172 -14.706)" fill="#f17781"/>
    <path id="Trazado_104593" data-name="Trazado 104593" d="M8.493,32.336a.922.922,0,0,0,1.3,0l2.395-2.395,2.395,2.395a.922.922,0,0,0,1.3-1.3l-2.4-2.395,2.395-2.395a.922.922,0,1,0-1.3-1.3l-2.395,2.395L9.8,24.939a.922.922,0,1,0-1.3,1.3l2.395,2.395L8.493,31.032a.922.922,0,0,0,0,1.3Z" transform="translate(-7.352)" fill="#f17781"/>
    <path id="Trazado_104594" data-name="Trazado 104594" d="M131.014,197.628a.922.922,0,0,0-1.3,0l-2.395,2.395-2.395-2.395a.922.922,0,1,0-1.3,1.3l2.395,2.395-2.395,2.395a.922.922,0,0,0,1.3,1.3l2.395-2.395,2.395,2.395a.922.922,0,0,0,1.3-1.3l-2.395-2.395,2.395-2.395A.922.922,0,0,0,131.014,197.628Z" transform="translate(-110.291 -154.41)" fill="#f17781"/>
    <path id="Trazado_104595" data-name="Trazado 104595" d="M20.794,48.639l-3.716-3.23A.921.921,0,1,0,15.869,46.8l1.971,1.713a16.094,16.094,0,0,0-11.175,6.37,17.7,17.7,0,0,0-2.776,5.569,4.4,4.4,0,1,0,1.872.184,16.041,16.041,0,0,1,2.427-4.711A14.137,14.137,0,0,1,18.1,50.334l-1.836,2.112a.921.921,0,0,0,1.391,1.209l3.23-3.716a.921.921,0,0,0-.091-1.3ZM6.963,64.823a2.56,2.56,0,1,1-2.56-2.56A2.563,2.563,0,0,1,6.963,64.823Z" transform="translate(0 -18.342)" fill="#f17781"/>
  </g>
</svg>
