<svg xmlns="http://www.w3.org/2000/svg" width="407.5" height="390.464" viewBox="0 0 407.5 390.464">
  <g id="Grupo_60481" data-name="Grupo 60481" transform="translate(0 -255.132)">
    <path id="Trazado_105750" data-name="Trazado 105750" d="M430.058,782.467s-17.845,40.363-25.151,36.578S428.035,775.5,428.035,775.5s-22.229-38.815-36.13-46.515c0,0-3.393,49.062-9.542,43.6s-4.99-56.683-4.99-56.683-29.719-29.723-49.061-13.3-17.451,32.584-13.273,37.315,36.841,26.57,33.109,30.2-30.22-4.679-39.811-16.847c0,0-9.384,42.466,9.431,52.925s31.8,3.287,43.306,9.962,17.474,15.111,9.985,14.3-24.628-15.513-38.619-14.078-24.318,1.146-10.233,15.784,44.96,32.772,59.519,24.206l1.82-1.071a8.078,8.078,0,0,1-1.82,1.071c1.812,3.845.562,15.378-.729,24-.307,1.407-.642,3.415-1.007,6.2h0c-.214,1.227-.4,2.226-.528,2.921-4.164,18.436-24.4,41.3-24.4,41.3l2.856,3.349c25.068-19.832,25.669-49.871,25.669-49.871,2.445-22.468,12.695-36.474,12.695-36.474s43.675,4.023,45.437-30.06C441.723,817.733,440.069,794.923,430.058,782.467Z" transform="translate(-237.522 -343.495)" fill="#31d9e7" opacity="0.22"/>
    <path id="Trazado_105751" data-name="Trazado 105751" d="M875.593,527.6s-21.311,42.632-42.958,72.061c-8.613,11.713-17.28,21.332-24.677,25.344-7.24,3.926-13.37,10.026-18.442,16.785-13.136,17.5-19.2,39.411-19.2,39.411l-55.354-83.744s1.889-81.861,8.535-95.554c9.687-19.955,14.366-60.273,18.087-68.3,2.761-5.955,10.644-36.712,11.4-38.973.328-.974,2.952-2.467,6.358-2.465,2.734,0,7.375,2.642,8.546,8.072,5.92,27.445-1.205,45.549-1.125,46.353,2.088,21.093-4.19,36.75.212,40.9.164.154.468.081.9-.194,7.631-4.9,54.994-73.95,60.827-75.441C834.865,410.287,875.593,527.6,875.593,527.6Z" transform="translate(-554.97 -106.372)" fill="#efa26f"/>
    <path id="Trazado_105752" data-name="Trazado 105752" d="M542.32,1477.883s-.754,37.215-2.912,87.336H399.782c31.916-68.06,59.663-125.344,59.663-125.344S538.946,1442.3,542.32,1477.883Z" transform="translate(-310.32 -919.624)" fill="#bb83ff"/>
    <path id="Trazado_105753" data-name="Trazado 105753" d="M1457.725,282.765l-17.141,25.129-16.821,24.661a3.85,3.85,0,0,1-3.5,1.544c-4.037-.383-9.031-6.205-12.923-9.428l-.395-.324a12.142,12.142,0,0,1-1.612-17.048l25.71-31.078v0l7.625-9.216a12.142,12.142,0,0,1,17.047-1.612l.395.324A12.145,12.145,0,0,1,1457.725,282.765Z" transform="translate(-1088.706 -5.817)" fill="#ffb27d"/>
    <path id="Trazado_105754" data-name="Trazado 105754" d="M1501.962,355.056l-16.821,24.661a3.85,3.85,0,0,1-3.5,1.544l10.78-57.878C1492.448,323.707,1494.281,349.676,1501.962,355.056Z" transform="translate(-1150.084 -52.978)" fill="#efa26f"/>
    <path id="Trazado_105755" data-name="Trazado 105755" d="M1004.183,1301.535c-8.613,11.713-17.28,21.332-24.677,25.344-7.24,3.926-13.37,10.026-18.442,16.785-5.834-2.719-12.484-5.91-18.985-9.069a10.827,10.827,0,0,1-.466-19.252c.076-.04.15-.082.223-.123,7.265-4.157,14.71-18.835,14.71-18.835Z" transform="translate(-726.517 -808.243)" fill="#d38254"/>
    <path id="Trazado_105756" data-name="Trazado 105756" d="M867.6,408.874l-4.485,18.107s3.921,1.6,6.439.359S874.122,409.849,867.6,408.874Z" transform="translate(-669.966 -119.338)" fill="#ffc197"/>
    <path id="Trazado_105757" data-name="Trazado 105757" d="M605.655,1436.375s27.285,26.133,45.678,36.222l13.926-9.878v14.572s27.388,4.843,36.027,0v-39.737L624.36,1398.99Z" transform="translate(-470.123 -887.888)" fill="#47286d"/>
    <path id="Trazado_105758" data-name="Trazado 105758" d="M595.133,1296.384s-17.327,25.921-34.548,53.635c0,0,36.292,24.967,55.967,32.289l25.808-29.557-3.684,35.58s22.839,8.325,33.437,6.152c0,0-.67-32.278-.662-53.426C671.451,1341.057,608.664,1323.458,595.133,1296.384Z" transform="translate(-435.138 -808.243)" fill="#f3f8ff"/>
    <path id="Trazado_105759" data-name="Trazado 105759" d="M734.013,1575.576a4.3,4.3,0,1,1,4.256,4.335A4.3,4.3,0,0,1,734.013,1575.576Z" transform="translate(-569.757 -1021.654)" fill="#bb83ff"/>
    <path id="Trazado_105760" data-name="Trazado 105760" d="M912.216,732s-3.791-33.1-7.289-39.549-6.458-19.379-1.076-28.982,7.241-28.083,7.241-28.083c2.088,21.093-4.19,36.75.212,40.9.164.154.468.081.9-.193Z" transform="translate(-699.296 -295.159)" fill="#d38254"/>
    <path id="Trazado_105761" data-name="Trazado 105761" d="M109.807,1362.47s-6.465-17.671-17.2-25.26c0,0-4.994,35.962-11.628,34.619s8.453-39.672,8.453-39.672-26.36-25.677-39.1-28.628c0,0,8.407,39.579,2.306,36.645s-16.76-43.711-16.76-43.711S13.639,1284.1,0,1291.555v41.491c10.44,4.132,26.583,10.182,25.019,12.905s-14.277,3.135-25.019.214v28.9a16.477,16.477,0,0,0,9.143,6.3c17.248,4.022,25.9-4.589,36.51-1.908s17.238,8,11.13,9.05-22.989-6.705-33.73-2.406-18.979,6.4-4.527,14.8,42.972,15.76,52.552,5.694l0,0,1.2-1.26.006-.007a6.672,6.672,0,0,1-1.206,1.27c2.3,2.632,3.922,12.043,4.849,19.155.074,1.178.263,2.838.6,5.111.112,1.055.195,1.912.249,2.5a53.71,53.71,0,0,1-1.732,14.886h4.6a57.415,57.415,0,0,0-.79-19.991v0c-3.145-18.326,1.8-31.722,1.8-31.722h0C80.737,1396.5,116.11,1389.8,109.807,1362.47Z" transform="translate(0 -802.64)" fill="#31d9e7" opacity="0.22"/>
    <path id="Trazado_105762" data-name="Trazado 105762" d="M1293.8,1418.464c-6.068-22.407-43.879-15.4-43.879-15.4s-25.674,39.211-33.143,40.145,15.4-37.811,15.4-37.811c-14.471-1.4-51.349,16.338-51.349,16.338s2.334,45.746-5.135,44.813,0-40.612,0-40.612c-14,4.2-27.075,20.539-27.075,20.539-16.338,26.608,18.672,46.214,18.672,46.214s.467,15.871-9.336,34.076h0a54.018,54.018,0,0,0-4.461,9.075h3.818q.468-1.536,1.036-2.964a.022.022,0,0,1,.007-.017l.017-.041c.261-.59.637-1.429,1.106-2.452l0,0s0,0,0-.005c1.166-2.283,1.955-3.97,2.453-5.188a.041.041,0,0,0,0-.011c3.495-7.168,8.53-16.507,11.888-18.466a7.4,7.4,0,0,1-.817-1.751l.817,1.751c6.535,14,39.212,16.338,57.417,12.6s10.269-8.87.467-17.2-30.342-6.137-36.411-9.4,2.8-6.535,14.938-5.6,18.205,13.071,37.811,14.938,34.543-35.01,34.543-35.01c-13.537,4.2-37.811-3.267-38.745-7.935s35.01-4.2,40.612-5.6S1299.87,1440.871,1293.8,1418.464Z" transform="translate(-888.216 -890.243)" fill="#31d9e7" opacity="0.22"/>
    <g id="Grupo_60477" data-name="Grupo 60477" transform="translate(212.284 255.132)">
      <g id="Grupo_60385" data-name="Grupo 60385" transform="translate(0 0)">
        <g id="Grupo_60324" data-name="Grupo 60324" transform="translate(0.882)">
          <g id="Grupo_60323" data-name="Grupo 60323">
            <rect id="Rectángulo_5959" data-name="Rectángulo 5959" width="129.845" height="246.717" rx="25.345" fill="#375a64"/>
          </g>
        </g>
        <g id="Grupo_60326" data-name="Grupo 60326" transform="translate(2.928 1.963)">
          <g id="Grupo_60325" data-name="Grupo 60325" transform="translate(0 0)">
            <rect id="Rectángulo_5960" data-name="Rectángulo 5960" width="242.791" height="125.753" rx="22.226" transform="translate(125.753 0) rotate(90)" fill="#1a2e35"/>
          </g>
        </g>
        <g id="Grupo_60343" data-name="Grupo 60343" transform="translate(45.079 6.967)">
          <g id="Grupo_60329" data-name="Grupo 60329" transform="translate(9.957)">
            <g id="Grupo_60328" data-name="Grupo 60328">
              <g id="Grupo_60327" data-name="Grupo 60327">
                <path id="Trazado_105763" data-name="Trazado 105763" d="M1196.019,289.038a1.387,1.387,0,1,1,0-2.771h18.57a1.387,1.387,0,1,1,0,2.771Z" transform="translate(-1194.575 -286.267)" fill="#375a64"/>
              </g>
            </g>
          </g>
          <g id="Grupo_60342" data-name="Grupo 60342">
            <g id="Grupo_60332" data-name="Grupo 60332">
              <g id="Grupo_60331" data-name="Grupo 60331">
                <g id="Grupo_60330" data-name="Grupo 60330">
                  <path id="Trazado_105764" data-name="Trazado 105764" d="M1151.526,289.038a1.387,1.387,0,1,1,1.444-1.385A1.417,1.417,0,0,1,1151.526,289.038Z" transform="translate(-1150.082 -286.267)" fill="#375a64"/>
                </g>
              </g>
            </g>
            <g id="Grupo_60335" data-name="Grupo 60335" transform="translate(5.315)">
              <g id="Grupo_60334" data-name="Grupo 60334">
                <g id="Grupo_60333" data-name="Grupo 60333">
                  <path id="Trazado_105765" data-name="Trazado 105765" d="M1175.275,289.038a1.387,1.387,0,1,1,1.444-1.385A1.417,1.417,0,0,1,1175.275,289.038Z" transform="translate(-1173.831 -286.267)" fill="#375a64"/>
                </g>
              </g>
            </g>
            <g id="Grupo_60338" data-name="Grupo 60338" transform="translate(38.565)">
              <g id="Grupo_60337" data-name="Grupo 60337">
                <g id="Grupo_60336" data-name="Grupo 60336">
                  <path id="Trazado_105766" data-name="Trazado 105766" d="M1323.86,289.038a1.387,1.387,0,1,1,1.444-1.385A1.417,1.417,0,0,1,1323.86,289.038Z" transform="translate(-1322.416 -286.267)" fill="#375a64"/>
                </g>
              </g>
            </g>
            <g id="Grupo_60341" data-name="Grupo 60341" transform="translate(33.25)">
              <g id="Grupo_60340" data-name="Grupo 60340">
                <g id="Grupo_60339" data-name="Grupo 60339">
                  <path id="Trazado_105767" data-name="Trazado 105767" d="M1300.11,289.038a1.387,1.387,0,1,1,1.444-1.385A1.417,1.417,0,0,1,1300.11,289.038Z" transform="translate(-1298.666 -286.267)" fill="#375a64"/>
                </g>
              </g>
            </g>
          </g>
        </g>
        <g id="Grupo_60345" data-name="Grupo 60345" transform="translate(5.854 3.628)">
          <g id="Grupo_60344" data-name="Grupo 60344">
            <path id="Trazado_105768" data-name="Trazado 105768" d="M1085.78,271.343H1063.3a3.793,3.793,0,0,0-3.661,2.638l-1.43,4.726a4.248,4.248,0,0,1-4.1,2.954h-38.727a4.247,4.247,0,0,1-4.1-2.954l-1.429-4.726a3.794,3.794,0,0,0-3.661-2.638h-17.48c-7.687,0-13.919,5.979-13.919,13.356V500.171a9.223,9.223,0,0,0,9.407,9.026h102.232a8.1,8.1,0,0,0,8.262-7.928V279.9A8.746,8.746,0,0,0,1085.78,271.343Z" transform="translate(-974.799 -271.343)" fill="#fafafa"/>
          </g>
        </g>
        <g id="Grupo_60349" data-name="Grupo 60349" transform="translate(72.989 167.037)">
          <g id="Grupo_60348" data-name="Grupo 60348">
            <path id="Trazado_105770" data-name="Trazado 105770" d="M1327.573,1070.608v-69.034c-18.459,1.8-35.737,12.519-45.011,27.939a55.472,55.472,0,0,0-4.68,46.506h44.052A5.529,5.529,0,0,0,1327.573,1070.608Z" transform="translate(-1274.806 -1001.574)" fill="#f5f5f5"/>
          </g>
        </g>
        <g id="Grupo_60351" data-name="Grupo 60351" transform="translate(130.725 53.624)">
          <g id="Grupo_60350" data-name="Grupo 60350" transform="translate(0)">
            <path id="Rectángulo_5961" data-name="Rectángulo 5961" d="M.851,0h0a0,0,0,0,1,0,0V28.356a0,0,0,0,1,0,0h0A.851.851,0,0,1,0,27.5V.851A.851.851,0,0,1,.851,0Z" transform="translate(0.851 28.356) rotate(180)" fill="#375a64"/>
          </g>
        </g>
        <g id="Grupo_60353" data-name="Grupo 60353" transform="translate(0 71.099)">
          <g id="Grupo_60352" data-name="Grupo 60352">
            <path id="Rectángulo_5962" data-name="Rectángulo 5962" d="M.882,0h0a0,0,0,0,1,0,0V17.953a0,0,0,0,1,0,0h0A.882.882,0,0,1,0,17.07V.882A.882.882,0,0,1,.882,0Z" fill="#375a64"/>
          </g>
        </g>
        <g id="Grupo_60355" data-name="Grupo 60355" transform="translate(0 47.645)">
          <g id="Grupo_60354" data-name="Grupo 60354">
            <path id="Rectángulo_5963" data-name="Rectángulo 5963" d="M.882,0h0a0,0,0,0,1,0,0V17.953a0,0,0,0,1,0,0h0A.882.882,0,0,1,0,17.07V.882A.882.882,0,0,1,.882,0Z" fill="#375a64"/>
          </g>
        </g>
        <g id="Grupo_60357" data-name="Grupo 60357" transform="translate(0.122 30.039)">
          <g id="Grupo_60356" data-name="Grupo 60356">
            <path id="Rectángulo_5964" data-name="Rectángulo 5964" d="M.761,0h0a0,0,0,0,1,0,0V8.347a0,0,0,0,1,0,0h0A.761.761,0,0,1,0,7.587V.761A.761.761,0,0,1,.761,0Z" fill="#375a64"/>
          </g>
        </g>
        <g id="Grupo_60382" data-name="Grupo 60382" transform="translate(96.648 9.735)">
          <g id="Grupo_60366" data-name="Grupo 60366" transform="translate(0 0.21)">
            <g id="Grupo_60359" data-name="Grupo 60359" transform="translate(0 1.711)">
              <g id="Grupo_60358" data-name="Grupo 60358">
                <rect id="Rectángulo_5965" data-name="Rectángulo 5965" width="0.891" height="1.2" fill="#1a2e35"/>
              </g>
            </g>
            <g id="Grupo_60361" data-name="Grupo 60361" transform="translate(1.452 1.176)">
              <g id="Grupo_60360" data-name="Grupo 60360">
                <rect id="Rectángulo_5966" data-name="Rectángulo 5966" width="0.891" height="1.734" fill="#1a2e35"/>
              </g>
            </g>
            <g id="Grupo_60363" data-name="Grupo 60363" transform="translate(2.903 0.775)">
              <g id="Grupo_60362" data-name="Grupo 60362">
                <rect id="Rectángulo_5967" data-name="Rectángulo 5967" width="0.891" height="2.135" fill="#1a2e35"/>
              </g>
            </g>
            <g id="Grupo_60365" data-name="Grupo 60365" transform="translate(4.355)">
              <g id="Grupo_60364" data-name="Grupo 60364">
                <rect id="Rectángulo_5968" data-name="Rectángulo 5968" width="0.891" height="2.91" fill="#1a2e35"/>
              </g>
            </g>
          </g>
          <g id="Grupo_60371" data-name="Grupo 60371" transform="translate(13.616 0.429)">
            <g id="Grupo_60368" data-name="Grupo 60368">
              <g id="Grupo_60367" data-name="Grupo 60367">
                <path id="Trazado_105771" data-name="Trazado 105771" d="M1446.173,303.3H1441.7a.315.315,0,0,1-.321-.308v-2.135a.313.313,0,0,1,.318-.308h4.48a.085.085,0,0,1,.058.023.077.077,0,0,1,.023.056v.7h.479a.08.08,0,0,1,.082.079v1.029a.08.08,0,0,1-.082.079h-.479v.7A.08.08,0,0,1,1446.173,303.3Zm-.082-2.594h-4.4a.15.15,0,0,0-.154.151v2.135a.154.154,0,0,0,.157.151h4.395v-.7a.08.08,0,0,1,.082-.079h.479v-.872h-.479a.08.08,0,0,1-.082-.079Z" transform="translate(-1441.375 -300.551)" fill="#1a2e35"/>
              </g>
            </g>
            <g id="Grupo_60370" data-name="Grupo 60370" transform="translate(0.529 0.508)">
              <g id="Grupo_60369" data-name="Grupo 60369">
                <path id="Trazado_105772" data-name="Trazado 105772" d="M1443.74,304.558v-1.735h3.821v1.735Z" transform="translate(-1443.74 -302.823)" fill="#1a2e35"/>
              </g>
            </g>
          </g>
          <g id="Grupo_60381" data-name="Grupo 60381" transform="translate(6.735)">
            <g id="Grupo_60373" data-name="Grupo 60373" transform="translate(2.126 2.702)">
              <g id="Grupo_60372" data-name="Grupo 60372">
                <path id="Trazado_105773" data-name="Trazado 105773" d="M1420.78,311.023a.327.327,0,1,0-.327.314A.321.321,0,0,0,1420.78,311.023Z" transform="translate(-1420.126 -310.709)" fill="#1a2e35"/>
              </g>
            </g>
            <g id="Grupo_60380" data-name="Grupo 60380">
              <g id="Grupo_60375" data-name="Grupo 60375" transform="translate(1.337 1.815)">
                <g id="Grupo_60374" data-name="Grupo 60374">
                  <path id="Trazado_105774" data-name="Trazado 105774" d="M1416.6,307.189l.418.4a1.016,1.016,0,0,1,1.4,0l.418-.4a1.624,1.624,0,0,0-2.232,0Z" transform="translate(-1416.602 -306.745)" fill="#1a2e35"/>
                </g>
              </g>
              <g id="Grupo_60377" data-name="Grupo 60377" transform="translate(0.679 0.922)">
                <g id="Grupo_60376" data-name="Grupo 60376">
                  <path id="Trazado_105775" data-name="Trazado 105775" d="M1415.437,302.754a2.555,2.555,0,0,0-1.774.706l.417.4a1.973,1.973,0,0,1,2.712,0l.418-.4A2.555,2.555,0,0,0,1415.437,302.754Z" transform="translate(-1413.663 -302.754)" fill="#1a2e35"/>
                </g>
              </g>
              <g id="Grupo_60379" data-name="Grupo 60379">
                <g id="Grupo_60378" data-name="Grupo 60378">
                  <path id="Trazado_105776" data-name="Trazado 105776" d="M1410.627,299.61l.418.4a2.962,2.962,0,0,1,4.071,0l.418-.4a3.569,3.569,0,0,0-4.906,0Z" transform="translate(-1410.627 -298.633)" fill="#1a2e35"/>
                </g>
              </g>
            </g>
          </g>
        </g>
        <g id="Grupo_60384" data-name="Grupo 60384" transform="translate(63.515 81.288)">
          <g id="Grupo_60383" data-name="Grupo 60383" transform="translate(0 0)">
            <ellipse id="Elipse_4391" data-name="Elipse 4391" cx="15.838" cy="15.197" rx="15.838" ry="15.197" fill="#f5f5f5"/>
          </g>
        </g>
      </g>
      <g id="Grupo_60386" data-name="Grupo 60386" transform="translate(31.8 61.642)">
        <path id="Trazado_105777" data-name="Trazado 105777" d="M1090.745,535.745c0-3.227,1.764-5.151,4.208-5.151s4.222,1.925,4.222,5.151-1.78,5.151-4.222,5.151S1090.745,538.972,1090.745,535.745Zm7.314,0c0-2.706-1.267-4.2-3.106-4.2s-3.106,1.49-3.106,4.2,1.266,4.2,3.106,4.2S1098.059,538.451,1098.059,535.745Z" transform="translate(-1090.745 -530.594)" fill="#1a2e35"/>
        <path id="Trazado_105778" data-name="Trazado 105778" d="M1141.873,535.658c0,3.444-1.96,5.238-4.825,5.238a5.01,5.01,0,0,1-2.5-.55l.437-.839a3.824,3.824,0,0,0,2.051.478c2.277,0,3.739-1.4,3.739-4.153,0-.232-.015-.521-.045-.825a3.4,3.4,0,0,1-3.227,1.736c-2.1,0-3.559-1.187-3.559-3.039,0-1.9,1.553-3.111,3.6-3.111C1140.35,530.594,1141.873,532.461,1141.873,535.658Zm-1.493-2.011c0-1.114-.965-2.17-2.79-2.17-1.523,0-2.578.854-2.578,2.2s1.025,2.185,2.654,2.185S1140.38,534.906,1140.38,533.647Z" transform="translate(-1124.275 -530.594)" fill="#1a2e35"/>
        <path id="Trazado_105779" data-name="Trazado 105779" d="M1176.463,542.756a.782.782,0,0,1,.8-.781.8.8,0,0,1,.815.781.808.808,0,0,1-.815.8A.8.8,0,0,1,1176.463,542.756Zm0,6.164a.783.783,0,0,1,.8-.781.8.8,0,0,1,.815.781.807.807,0,0,1-.815.8A.8.8,0,0,1,1176.463,548.92Z" transform="translate(-1157.281 -539.428)" fill="#1a2e35"/>
        <path id="Trazado_105780" data-name="Trazado 105780" d="M1190.682,535.745c0-3.227,1.764-5.151,4.207-5.151s4.222,1.925,4.222,5.151-1.779,5.151-4.222,5.151S1190.682,538.972,1190.682,535.745Zm7.314,0c0-2.706-1.267-4.2-3.106-4.2s-3.107,1.49-3.107,4.2,1.267,4.2,3.107,4.2S1198,538.451,1198,535.745Z" transform="translate(-1168.318 -530.594)" fill="#1a2e35"/>
        <path id="Trazado_105781" data-name="Trazado 105781" d="M1235.292,535.745c0-3.227,1.765-5.151,4.208-5.151s4.222,1.925,4.222,5.151-1.779,5.151-4.222,5.151S1235.292,538.972,1235.292,535.745Zm7.314,0c0-2.706-1.267-4.2-3.107-4.2s-3.107,1.49-3.107,4.2,1.267,4.2,3.107,4.2S1242.606,538.451,1242.606,535.745Z" transform="translate(-1202.946 -530.594)" fill="#1a2e35"/>
      </g>
      <g id="Grupo_60390" data-name="Grupo 60390" transform="translate(18.319 30.445)">
        <g id="Grupo_60387" data-name="Grupo 60387">
          <path id="Trazado_105782" data-name="Trazado 105782" d="M1119.96,406.711h-81.367a7.934,7.934,0,0,1-8.093-7.765h0a7.934,7.934,0,0,1,8.093-7.765h81.367a7.934,7.934,0,0,1,8.093,7.765h0A7.934,7.934,0,0,1,1119.96,406.711Z" transform="translate(-1030.501 -391.181)" fill="#e1e1e1"/>
        </g>
        <g id="Grupo_60388" data-name="Grupo 60388" transform="translate(84.261 4.803)">
          <path id="Trazado_105783" data-name="Trazado 105783" d="M1410.128,418.568a2.965,2.965,0,1,1,3.088-2.963A3.031,3.031,0,0,1,1410.128,418.568Zm0-5.334a2.373,2.373,0,1,0,2.471,2.371A2.426,2.426,0,0,0,1410.128,413.234Z" transform="translate(-1407.04 -412.643)" fill="#1a2e35"/>
        </g>
        <g id="Grupo_60389" data-name="Grupo 60389" transform="translate(89.155 9.2)">
          <path id="Trazado_105784" data-name="Trazado 105784" d="M1431.247,434.589a.314.314,0,0,1-.2-.073l-2.031-1.7a.287.287,0,0,1-.029-.417.317.317,0,0,1,.435-.028l2.031,1.7a.287.287,0,0,1,.029.417A.313.313,0,0,1,1431.247,434.589Z" transform="translate(-1428.908 -432.293)" fill="#1a2e35"/>
        </g>
      </g>
      <g id="Grupo_60424" data-name="Grupo 60424" transform="translate(87.103 61.305)">
        <g id="Grupo_60423" data-name="Grupo 60423">
          <g id="Grupo_60394" data-name="Grupo 60394">
            <g id="Grupo_60393" data-name="Grupo 60393">
              <g id="Grupo_60392" data-name="Grupo 60392">
                <g id="Grupo_60391" data-name="Grupo 60391">
                  <path id="Trazado_105785" data-name="Trazado 105785" d="M1351.78,539.477a4.529,4.529,0,0,0,.545-.023,2.9,2.9,0,0,0,1.393-.584,2.646,2.646,0,0,0,.7-.8,2.36,2.36,0,0,0,.23-.551,2.483,2.483,0,0,0,.076-.634,2.69,2.69,0,0,0-.1-.673,2.922,2.922,0,0,0-.3-.663,2.661,2.661,0,0,0-1.178-1.035l-.027-.012v-.028a1.91,1.91,0,0,0-1.077-1.749,2.051,2.051,0,0,0-2.244.36l-.065.063-.019-.086a3.784,3.784,0,0,0-3.235-2.752,1.476,1.476,0,0,0-.238-.017c-.079,0-.158-.006-.237,0a3.5,3.5,0,0,0-.467.051,3.6,3.6,0,0,0-1.64.756,3.88,3.88,0,0,0-1.048,1.335,3.289,3.289,0,0,0-.307,1.541l0,.059-.06-.014a2.8,2.8,0,0,0-1.812.206,3.268,3.268,0,0,0-.717.465,3.009,3.009,0,0,0-.518.608,2.486,2.486,0,0,0-.285.684,2.231,2.231,0,0,0-.05.685,2.6,2.6,0,0,0,.375,1.155,2.861,2.861,0,0,0,1.3,1.151,3.912,3.912,0,0,0,.607.191.171.171,0,0,1-.041-.005l-.121-.022a1.2,1.2,0,0,1-.2-.047,2.014,2.014,0,0,1-.261-.092,2.857,2.857,0,0,1-1.331-1.15,2.64,2.64,0,0,1-.394-1.176,2.289,2.289,0,0,1,.047-.7,2.538,2.538,0,0,1,.289-.706,3.066,3.066,0,0,1,.529-.628,3.329,3.329,0,0,1,.734-.481,2.886,2.886,0,0,1,1.871-.218l-.056.045a3.372,3.372,0,0,1,.31-1.584,3.965,3.965,0,0,1,1.071-1.37,3.7,3.7,0,0,1,1.685-.779,3.583,3.583,0,0,1,.482-.053c.081,0,.163,0,.244,0a1.536,1.536,0,0,1,.244.018,3.879,3.879,0,0,1,3.322,2.83l-.084-.024a2.148,2.148,0,0,1,2.357-.374,1.992,1.992,0,0,1,1.121,1.833l-.025-.04a2.736,2.736,0,0,1,1.21,1.071,2.975,2.975,0,0,1,.3.682,2.748,2.748,0,0,1,.1.692,2.538,2.538,0,0,1-.082.651,2.409,2.409,0,0,1-.24.564,2.684,2.684,0,0,1-.723.808,2.884,2.884,0,0,1-1.421.572,2.255,2.255,0,0,1-.409.011C1351.827,539.484,1351.78,539.477,1351.78,539.477Z" transform="translate(-1338.773 -529.945)" fill="#1a2e35"/>
                  <path id="Trazado_105786" data-name="Trazado 105786" d="M1351.149,538.885c-.055,0-.1,0-.149-.006-.1-.007-.149-.014-.149-.014a.256.256,0,0,1-.209-.169.241.241,0,0,1,.066-.254.31.31,0,0,1,.241-.07,2.755,2.755,0,0,0,.45-.02,2.644,2.644,0,0,0,1.264-.532,2.389,2.389,0,0,0,.636-.723,2.186,2.186,0,0,0,.209-.5,2.237,2.237,0,0,0,.065-.561,2.48,2.48,0,0,0-.095-.61,2.68,2.68,0,0,0-.272-.605,2.413,2.413,0,0,0-1.062-.934.287.287,0,0,1-.176-.249,1.673,1.673,0,0,0-.935-1.544,1.789,1.789,0,0,0-1.946.314l-.064.062a.268.268,0,0,1-.255.064.252.252,0,0,1-.18-.186l-.019-.086a3.405,3.405,0,0,0-2.146-2.35,3.367,3.367,0,0,0-.86-.208,1.913,1.913,0,0,0-.213-.016l-.1,0c-.046,0-.091,0-.135,0l-.114.009a1.993,1.993,0,0,0-.3.035,3.355,3.355,0,0,0-1.534.706,3.624,3.624,0,0,0-.978,1.246,3.056,3.056,0,0,0-.285,1.427l0,.057a.244.244,0,0,1-.093.2.263.263,0,0,1-.226.05l-.06-.014a2.523,2.523,0,0,0-1.637.188,2.993,2.993,0,0,0-.659.428,2.759,2.759,0,0,0-.47.553,2.249,2.249,0,0,0-.253.609,1.953,1.953,0,0,0-.045.606,2.362,2.362,0,0,0,.342,1.054,2.613,2.613,0,0,0,1.18,1.051,2.572,2.572,0,0,0,.5.159.3.3,0,0,1,.218.127.241.241,0,0,1,.03.192.3.3,0,0,1-.335.176l-.123-.022a1.5,1.5,0,0,1-.239-.059l-.058-.018a1.458,1.458,0,0,1-.23-.085,3.1,3.1,0,0,1-1.436-1.244,2.9,2.9,0,0,1-.429-1.282,2.49,2.49,0,0,1,.051-.771,2.771,2.771,0,0,1,.317-.779,3.3,3.3,0,0,1,.577-.686,3.594,3.594,0,0,1,.8-.522,3.176,3.176,0,0,1,1.671-.3,3.7,3.7,0,0,1,.333-1.336,4.217,4.217,0,0,1,1.139-1.458,3.958,3.958,0,0,1,1.809-.836,2.585,2.585,0,0,1,.383-.046l.119-.009c.075,0,.134,0,.193,0l.08,0a1.785,1.785,0,0,1,.282.021,3.935,3.935,0,0,1,1.008.243,4.1,4.1,0,0,1,2.394,2.337,2.426,2.426,0,0,1,2.269-.123,2.247,2.247,0,0,1,1.261,1.874,3.024,3.024,0,0,1,1.15,1.086,3.247,3.247,0,0,1,.326.739,2.979,2.979,0,0,1,.113.754,2.8,2.8,0,0,1-.09.716,2.6,2.6,0,0,1-.269.631,2.907,2.907,0,0,1-.786.876,3.081,3.081,0,0,1-1.865.64Z" transform="translate(-1337.879 -529.088)" fill="#1a2e35"/>
                </g>
              </g>
            </g>
          </g>
          <g id="Grupo_60398" data-name="Grupo 60398" transform="translate(5.11 7.516)">
            <g id="Grupo_60397" data-name="Grupo 60397">
              <g id="Grupo_60396" data-name="Grupo 60396">
                <g id="Grupo_60395" data-name="Grupo 60395">
                  <path id="Trazado_105787" data-name="Trazado 105787" d="M1363.443,563.778a10.114,10.114,0,0,1-.714,1.235,10.219,10.219,0,0,1-.8,1.184,10.111,10.111,0,0,1,.714-1.235A10.246,10.246,0,0,1,1363.443,563.778Z" transform="translate(-1361.655 -563.531)" fill="#1a2e35"/>
                  <path id="Trazado_105788" data-name="Trazado 105788" d="M1361,565.609a.315.315,0,0,1-.15-.056c-.247-.143-.245-.187.625-1.574.787-1.256.848-1.271.958-1.3a.269.269,0,0,1,.2.028h0a.254.254,0,0,1,.118.152c.028.106.043.164-.744,1.421C1361.341,565.349,1361.162,565.609,1361,565.609Z" transform="translate(-1360.713 -562.674)" fill="#1a2e35"/>
                </g>
              </g>
            </g>
          </g>
          <g id="Grupo_60402" data-name="Grupo 60402" transform="translate(7.485 7.516)">
            <g id="Grupo_60401" data-name="Grupo 60401">
              <g id="Grupo_60400" data-name="Grupo 60400">
                <g id="Grupo_60399" data-name="Grupo 60399">
                  <path id="Trazado_105789" data-name="Trazado 105789" d="M1374.054,563.778a10.1,10.1,0,0,1-.714,1.235,10.265,10.265,0,0,1-.8,1.184,10.127,10.127,0,0,1,.714-1.235A10.255,10.255,0,0,1,1374.054,563.778Z" transform="translate(-1372.266 -563.531)" fill="#1a2e35"/>
                  <path id="Trazado_105790" data-name="Trazado 105790" d="M1371.6,565.589a.267.267,0,0,1-.135-.036c-.244-.142-.242-.185.627-1.573.787-1.256.848-1.271.959-1.3a.276.276,0,0,1,.2.029h0c.244.142.242.186-.627,1.573-.787,1.257-.848,1.271-.958,1.3A.282.282,0,0,1,1371.6,565.589Z" transform="translate(-1371.325 -562.676)" fill="#1a2e35"/>
                </g>
              </g>
            </g>
          </g>
          <g id="Grupo_60406" data-name="Grupo 60406" transform="translate(9.859 7.516)">
            <g id="Grupo_60405" data-name="Grupo 60405">
              <g id="Grupo_60404" data-name="Grupo 60404">
                <g id="Grupo_60403" data-name="Grupo 60403">
                  <path id="Trazado_105791" data-name="Trazado 105791" d="M1384.665,563.778a10.114,10.114,0,0,1-.714,1.235,10.3,10.3,0,0,1-.8,1.184,10.069,10.069,0,0,1,.714-1.235A10.237,10.237,0,0,1,1384.665,563.778Z" transform="translate(-1382.877 -563.531)" fill="#1a2e35"/>
                  <path id="Trazado_105792" data-name="Trazado 105792" d="M1382.227,565.609a.314.314,0,0,1-.15-.056c-.247-.143-.245-.187.625-1.574.787-1.256.848-1.271.958-1.3a.269.269,0,0,1,.2.028h0a.255.255,0,0,1,.118.152c.027.106.043.164-.745,1.421C1382.563,565.349,1382.385,565.609,1382.227,565.609Z" transform="translate(-1381.936 -562.674)" fill="#1a2e35"/>
                </g>
              </g>
            </g>
          </g>
          <g id="Grupo_60410" data-name="Grupo 60410" transform="translate(2.373 10.888)">
            <g id="Grupo_60409" data-name="Grupo 60409">
              <g id="Grupo_60408" data-name="Grupo 60408">
                <g id="Grupo_60407" data-name="Grupo 60407">
                  <path id="Trazado_105793" data-name="Trazado 105793" d="M1351.159,578.944a20.332,20.332,0,0,1-1.516,2.419,10.086,10.086,0,0,1,.714-1.235A10.244,10.244,0,0,1,1351.159,578.944Z" transform="translate(-1349.383 -578.676)" fill="#1a2e35"/>
                  <path id="Trazado_105794" data-name="Trazado 105794" d="M1348.747,580.68a.27.27,0,0,1-.135-.036.254.254,0,0,1-.118-.153c-.028-.106-.043-.164.745-1.421.867-1.385.907-1.41,1.153-1.269h0c.245.142.243.185-.626,1.573-.788,1.257-.848,1.271-.958,1.3A.277.277,0,0,1,1348.747,580.68Z" transform="translate(-1348.485 -577.745)" fill="#1a2e35"/>
                </g>
              </g>
            </g>
          </g>
          <g id="Grupo_60414" data-name="Grupo 60414" transform="translate(4.748 10.888)">
            <g id="Grupo_60413" data-name="Grupo 60413">
              <g id="Grupo_60412" data-name="Grupo 60412">
                <g id="Grupo_60411" data-name="Grupo 60411">
                  <path id="Trazado_105795" data-name="Trazado 105795" d="M1361.77,578.944a10.142,10.142,0,0,1-.714,1.235,10.279,10.279,0,0,1-.8,1.185,10.106,10.106,0,0,1,.714-1.235A10.226,10.226,0,0,1,1361.77,578.944Z" transform="translate(-1359.995 -578.675)" fill="#1a2e35"/>
                  <path id="Trazado_105796" data-name="Trazado 105796" d="M1359.359,580.678a.27.27,0,0,1-.135-.036.254.254,0,0,1-.118-.152c-.028-.106-.043-.164.744-1.421.869-1.388.908-1.41,1.154-1.27l0,0c.241.143.239.187-.629,1.572-.787,1.257-.848,1.271-.958,1.3A.277.277,0,0,1,1359.359,580.678Z" transform="translate(-1359.097 -577.743)" fill="#1a2e35"/>
                </g>
              </g>
            </g>
          </g>
          <g id="Grupo_60418" data-name="Grupo 60418" transform="translate(7.123 10.888)">
            <g id="Grupo_60417" data-name="Grupo 60417">
              <g id="Grupo_60416" data-name="Grupo 60416">
                <g id="Grupo_60415" data-name="Grupo 60415">
                  <path id="Trazado_105797" data-name="Trazado 105797" d="M1372.38,578.944a20.354,20.354,0,0,1-1.516,2.419,10.156,10.156,0,0,1,.714-1.235A10.262,10.262,0,0,1,1372.38,578.944Z" transform="translate(-1370.605 -578.676)" fill="#1a2e35"/>
                  <path id="Trazado_105798" data-name="Trazado 105798" d="M1369.969,580.68a.27.27,0,0,1-.135-.036.253.253,0,0,1-.118-.153c-.028-.106-.043-.164.745-1.421.868-1.385.907-1.41,1.153-1.269h0c.245.142.243.185-.627,1.573-.788,1.257-.848,1.271-.958,1.3A.275.275,0,0,1,1369.969,580.68Z" transform="translate(-1369.707 -577.745)" fill="#1a2e35"/>
                </g>
              </g>
            </g>
          </g>
          <g id="Grupo_60422" data-name="Grupo 60422" transform="translate(9.59 10.961)">
            <g id="Grupo_60421" data-name="Grupo 60421">
              <g id="Grupo_60420" data-name="Grupo 60420">
                <g id="Grupo_60419" data-name="Grupo 60419">
                  <path id="Trazado_105799" data-name="Trazado 105799" d="M1383.463,579.175a20.3,20.3,0,0,1-1.516,2.419,10.155,10.155,0,0,1,.714-1.235A10.278,10.278,0,0,1,1383.463,579.175Z" transform="translate(-1381.674 -578.928)" fill="#1a2e35"/>
                  <path id="Trazado_105800" data-name="Trazado 105800" d="M1381.025,581.007a.315.315,0,0,1-.15-.056c-.247-.143-.245-.186.625-1.575.787-1.256.848-1.271.958-1.3a.273.273,0,0,1,.2.028h0a.253.253,0,0,1,.118.152c.028.106.043.164-.744,1.421C1381.36,580.747,1381.182,581.007,1381.025,581.007Z" transform="translate(-1380.733 -578.072)" fill="#1a2e35"/>
                </g>
              </g>
            </g>
          </g>
        </g>
      </g>
      <g id="Grupo_60425" data-name="Grupo 60425" transform="translate(55.526 171.564)">
        <ellipse id="Elipse_4392" data-name="Elipse 4392" cx="2.182" cy="2.094" rx="2.182" ry="2.094" fill="#ececec"/>
      </g>
      <g id="Grupo_60426" data-name="Grupo 60426" transform="translate(62.823 171.564)">
        <ellipse id="Elipse_4393" data-name="Elipse 4393" cx="2.182" cy="2.094" rx="2.182" ry="2.094" fill="#e1e1e1"/>
      </g>
      <g id="Grupo_60427" data-name="Grupo 60427" transform="translate(70.119 171.564)">
        <ellipse id="Elipse_4394" data-name="Elipse 4394" cx="2.182" cy="2.094" rx="2.182" ry="2.094" fill="#e1e1e1"/>
      </g>
      <g id="Grupo_60428" data-name="Grupo 60428" transform="translate(77.415 171.564)">
        <ellipse id="Elipse_4395" data-name="Elipse 4395" cx="2.182" cy="2.094" rx="2.182" ry="2.094" fill="#e1e1e1"/>
      </g>
      <g id="Grupo_60429" data-name="Grupo 60429" transform="translate(26.601 184.075)">
        <rect id="Rectángulo_5969" data-name="Rectángulo 5969" width="17.587" height="16.876" rx="8.438" fill="#ff735d"/>
      </g>
      <g id="Grupo_60430" data-name="Grupo 60430" transform="translate(48.523 183.918)">
        <rect id="Rectángulo_5970" data-name="Rectángulo 5970" width="17.587" height="16.876" rx="8.438" fill="#e1e1e1"/>
      </g>
      <g id="Grupo_60431" data-name="Grupo 60431" transform="translate(70.446 183.761)">
        <rect id="Rectángulo_5971" data-name="Rectángulo 5971" width="17.587" height="16.876" rx="8.438" fill="#375a64"/>
      </g>
      <g id="Grupo_60432" data-name="Grupo 60432" transform="translate(92.369 184.075)">
        <rect id="Rectángulo_5972" data-name="Rectángulo 5972" width="17.587" height="16.876" rx="8.438" fill="#1a2e35"/>
      </g>
      <g id="Grupo_60433" data-name="Grupo 60433" transform="translate(26.601 147.542)">
        <rect id="Rectángulo_5973" data-name="Rectángulo 5973" width="17.587" height="16.876" rx="8.438" fill="#375a64"/>
      </g>
      <g id="Grupo_60434" data-name="Grupo 60434" transform="translate(48.524 147.385)">
        <rect id="Rectángulo_5974" data-name="Rectángulo 5974" width="17.587" height="16.876" rx="8.438" fill="#1a2e35"/>
      </g>
      <g id="Grupo_60435" data-name="Grupo 60435" transform="translate(70.447 147.228)">
        <rect id="Rectángulo_5975" data-name="Rectángulo 5975" width="17.587" height="16.876" rx="8.438" fill="#e1e1e1"/>
      </g>
      <g id="Grupo_60436" data-name="Grupo 60436" transform="translate(92.369 147.071)">
        <rect id="Rectángulo_5976" data-name="Rectángulo 5976" width="17.587" height="16.876" rx="8.438" fill="#ff735d"/>
      </g>
      <g id="Grupo_60442" data-name="Grupo 60442" transform="translate(30.972 151.737)">
        <g id="Grupo_60441" data-name="Grupo 60441">
          <g id="Grupo_60440" data-name="Grupo 60440">
            <g id="Grupo_60439" data-name="Grupo 60439">
              <g id="Grupo_60438" data-name="Grupo 60438">
                <g id="Grupo_60437" data-name="Grupo 60437">
                  <path id="Trazado_105801" data-name="Trazado 105801" d="M1089.574,934.437a3.715,3.715,0,0,1,.887-.37l.183-.843,1.484-.025.214.836a3.732,3.732,0,0,1,.9.34l.75-.472,1.068.99-.465.736a3.41,3.41,0,0,1,.386.852l.878.175.026,1.424-.872.205a3.4,3.4,0,0,1-.354.864l.492.72-1.031,1.025-.767-.446a3.732,3.732,0,0,1-.888.37l-.183.843-1.484.025-.214-.837a3.721,3.721,0,0,1-.9-.34l-.75.472-1.068-.99.465-.736a3.412,3.412,0,0,1-.385-.852l-.879-.175-.026-1.424.872-.205a3.4,3.4,0,0,1,.354-.864l-.492-.72,1.031-1.025.767.446Zm.5,1.716a1.8,1.8,0,0,0,.048,2.625,1.993,1.993,0,0,0,2.735-.046,1.8,1.8,0,0,0-.048-2.625A1.993,1.993,0,0,0,1090.073,936.153Z" transform="translate(-1087.042 -933.199)" fill="#fff"/>
                </g>
              </g>
            </g>
          </g>
        </g>
      </g>
      <g id="Grupo_60445" data-name="Grupo 60445" transform="translate(75.14 187.718)">
        <g id="Grupo_60443" data-name="Grupo 60443">
          <path id="Trazado_105802" data-name="Trazado 105802" d="M1284.415,1102.565l.641-2.294a4.088,4.088,0,0,1-.554-2.046,4.418,4.418,0,1,1,4.414,4.235,4.551,4.551,0,0,1-2.1-.513Zm2.522-1.477.151.087a3.69,3.69,0,0,0,1.827.486,3.438,3.438,0,1,0-3.58-3.435,3.323,3.323,0,0,0,.524,1.781l.093.146-.358,1.281Z" transform="translate(-1284.415 -1093.99)" fill="#fff"/>
        </g>
        <g id="Grupo_60444" data-name="Grupo 60444" transform="translate(2.316 2.325)">
          <path id="Trazado_105803" data-name="Trazado 105803" d="M1298.542,1106.9a.767.767,0,0,0-.632-.137c-.164.064-.269.311-.376.437a.161.161,0,0,1-.2.042,2.832,2.832,0,0,1-1.429-1.174.163.163,0,0,1,.022-.229.923.923,0,0,0,.26-.4.858.858,0,0,0-.116-.479,1.134,1.134,0,0,0-.368-.533.521.521,0,0,0-.548.078,1.048,1.048,0,0,0-.386.846,1.139,1.139,0,0,0,.035.268,2.174,2.174,0,0,0,.268.593,4.733,4.733,0,0,0,.28.409,4.253,4.253,0,0,0,1.215,1.082,3.73,3.73,0,0,0,.758.346,1.749,1.749,0,0,0,.882.134,1.064,1.064,0,0,0,.8-.571.478.478,0,0,0,.037-.291C1298.994,1107.121,1298.711,1107,1298.542,1106.9Z" transform="translate(-1294.766 -1104.38)" fill="#fff" fill-rule="evenodd"/>
        </g>
      </g>
      <g id="Grupo_60446" data-name="Grupo 60446" transform="translate(31.326 188.732)">
        <path id="Trazado_105804" data-name="Trazado 105804" d="M1095.8,1103.316a1.457,1.457,0,0,0-1.2-.26c-.312.122-.511.591-.713.83a.307.307,0,0,1-.387.081,5.385,5.385,0,0,1-2.714-2.231.311.311,0,0,1,.042-.436,1.746,1.746,0,0,0,.493-.768,1.624,1.624,0,0,0-.22-.909,2.152,2.152,0,0,0-.7-1.012.99.99,0,0,0-1.041.148,1.992,1.992,0,0,0-.732,1.606,2.2,2.2,0,0,0,.066.51,4.135,4.135,0,0,0,.51,1.127,8.78,8.78,0,0,0,.532.777,8.091,8.091,0,0,0,2.307,2.056,7.119,7.119,0,0,0,1.439.657,3.32,3.32,0,0,0,1.675.254,2.021,2.021,0,0,0,1.519-1.084.91.91,0,0,0,.07-.553C1096.658,1103.727,1096.12,1103.5,1095.8,1103.316Z" transform="translate(-1088.625 -1098.521)" fill="#fff" fill-rule="evenodd"/>
      </g>
      <g id="Grupo_60450" data-name="Grupo 60450" transform="translate(97.213 188.308)">
        <g id="Grupo_60447" data-name="Grupo 60447" transform="translate(6.188 1.501)">
          <path id="Trazado_105805" data-name="Trazado 105805" d="M1411.221,1103.336a.493.493,0,1,0,.514.493A.5.5,0,0,0,1411.221,1103.336Z" transform="translate(-1410.707 -1103.336)" fill="#fff"/>
        </g>
        <g id="Grupo_60448" data-name="Grupo 60448" transform="translate(2.259 1.992)">
          <path id="Trazado_105806" data-name="Trazado 105806" d="M1395.309,1105.528a2.073,2.073,0,1,0,2.158,2.071A2.119,2.119,0,0,0,1395.309,1105.528Zm0,3.4a1.328,1.328,0,1,1,1.383-1.327A1.357,1.357,0,0,1,1395.309,1108.926Z" transform="translate(-1393.15 -1105.528)" fill="#fff"/>
        </g>
        <g id="Grupo_60449" data-name="Grupo 60449">
          <path id="Trazado_105807" data-name="Trazado 105807" d="M1389.184,1105.036h-3.5a2.584,2.584,0,0,1-2.632-2.526v-3.358a2.584,2.584,0,0,1,2.632-2.526h3.5a2.584,2.584,0,0,1,2.633,2.526v3.358A2.584,2.584,0,0,1,1389.184,1105.036Zm-3.5-7.618a1.774,1.774,0,0,0-1.808,1.735v3.358a1.775,1.775,0,0,0,1.808,1.735h3.5a1.775,1.775,0,0,0,1.808-1.735v-3.358a1.775,1.775,0,0,0-1.808-1.735Z" transform="translate(-1383.053 -1096.627)" fill="#fff"/>
        </g>
      </g>
      <g id="Grupo_60451" data-name="Grupo 60451" transform="translate(53.035 188.246)">
        <path id="Trazado_105808" data-name="Trazado 105808" d="M1186.029,1104.57a.4.4,0,0,1-.276-.11.364.364,0,0,1,0-.53l2.089-2.005a3.352,3.352,0,0,1,.26-4.569,3.682,3.682,0,0,1,5.055,0,3.337,3.337,0,0,1,0,4.85,3.686,3.686,0,0,1-4.763.25l-2.09,2A.4.4,0,0,1,1186.029,1104.57Zm4.6-7.47a2.835,2.835,0,0,0-1.975.785,2.606,2.606,0,0,0,0,3.79,2.877,2.877,0,0,0,3.95,0,2.607,2.607,0,0,0,0-3.79A2.834,2.834,0,0,0,1190.629,1097.1Z" transform="translate(-1185.638 -1096.351)" fill="#fff"/>
      </g>
      <g id="Grupo_60453" data-name="Grupo 60453" transform="translate(32.608 76.617)">
        <g id="Grupo_60452" data-name="Grupo 60452">
          <path id="Trazado_105809" data-name="Trazado 105809" d="M1131.209,597.637c0,.071-8.251.129-18.426.129s-18.428-.058-18.428-.129,8.249-.128,18.428-.128S1131.209,597.567,1131.209,597.637Z" transform="translate(-1094.355 -597.509)" fill="#1a2e35"/>
        </g>
      </g>
      <g id="Grupo_60458" data-name="Grupo 60458" transform="translate(53.63 151.737)">
        <g id="Grupo_60457" data-name="Grupo 60457">
          <g id="Grupo_60456" data-name="Grupo 60456">
            <g id="Grupo_60455" data-name="Grupo 60455">
              <g id="Grupo_60454" data-name="Grupo 60454">
                <path id="Trazado_105810" data-name="Trazado 105810" d="M1192.746,937.2a2.071,2.071,0,0,0,1.287-1.917,2.026,2.026,0,1,0-2.761,1.917c-3.117.451-2.976,3.7-2.976,3.7l7.372.033S1195.836,937.646,1192.746,937.2Z" transform="translate(-1188.296 -933.199)" fill="#fff"/>
              </g>
            </g>
          </g>
        </g>
      </g>
      <g id="Grupo_60462" data-name="Grupo 60462" transform="translate(73.973 152.643)">
        <g id="Grupo_60461" data-name="Grupo 60461">
          <g id="Grupo_60460" data-name="Grupo 60460">
            <g id="Grupo_60459" data-name="Grupo 60459">
              <path id="Trazado_105811" data-name="Trazado 105811" d="M1290.239,942.981a2.3,2.3,0,0,0-.489-2.519,2.823,2.823,0,0,0-2.694-.838,2.965,2.965,0,0,0-1.733-2.13,3.179,3.179,0,0,0-2.81.175,2.924,2.924,0,0,0-1.431,2.327,2.289,2.289,0,0,0-1.592,1.072,2.118,2.118,0,0,0-.13,1.863Z" transform="translate(-1279.204 -937.247)" fill="#fff"/>
            </g>
          </g>
        </g>
      </g>
      <g id="Grupo_60476" data-name="Grupo 60476" transform="translate(97.393 152.092)">
        <g id="Grupo_60475" data-name="Grupo 60475">
          <g id="Grupo_60474" data-name="Grupo 60474">
            <g id="Grupo_60464" data-name="Grupo 60464" transform="translate(3.852 5.646)">
              <g id="Grupo_60463" data-name="Grupo 60463">
                <path id="Trazado_105812" data-name="Trazado 105812" d="M1402.5,960.711a.718.718,0,1,1-.714-.691A.7.7,0,0,1,1402.5,960.711Z" transform="translate(-1401.07 -960.02)" fill="#fff"/>
              </g>
            </g>
            <g id="Grupo_60467" data-name="Grupo 60467" transform="translate(2.454 4.075)">
              <g id="Grupo_60466" data-name="Grupo 60466">
                <g id="Grupo_60465" data-name="Grupo 60465">
                  <path id="Trazado_105813" data-name="Trazado 105813" d="M1395.506,954.376a2.045,2.045,0,0,1,2.875-.036c.366.354.939-.191.573-.545a2.886,2.886,0,0,0-4.015.031c-.358.361.209.911.568.55Z" transform="translate(-1394.824 -952.998)" fill="#fff"/>
                </g>
              </g>
            </g>
            <g id="Grupo_60470" data-name="Grupo 60470">
              <g id="Grupo_60469" data-name="Grupo 60469">
                <g id="Grupo_60468" data-name="Grupo 60468">
                  <path id="Trazado_105814" data-name="Trazado 105814" d="M1384.559,937.039a6.008,6.008,0,0,1,3.849-1.477,5.85,5.85,0,0,1,3.927,1.442c.378.341.952-.2.573-.545a6.706,6.706,0,0,0-4.5-1.671,6.9,6.9,0,0,0-4.421,1.7c-.393.326.176.874.568.55Z" transform="translate(-1383.858 -934.788)" fill="#fff"/>
                </g>
              </g>
            </g>
            <g id="Grupo_60473" data-name="Grupo 60473" transform="translate(0.983 1.994)">
              <g id="Grupo_60472" data-name="Grupo 60472">
                <g id="Grupo_60471" data-name="Grupo 60471">
                  <path id="Trazado_105815" data-name="Trazado 105815" d="M1388.928,945.73a4.058,4.058,0,0,1,5.8-.079c.363.357.935-.187.573-.545a4.887,4.887,0,0,0-6.937.074.4.4,0,0,0,.567.55Z" transform="translate(-1388.25 -943.698)" fill="#fff"/>
                </g>
              </g>
            </g>
          </g>
        </g>
      </g>
      <path id="Trazado_105816" data-name="Trazado 105816" d="M1085.78,271.343H1063.3a3.793,3.793,0,0,0-3.661,2.638l-1.43,4.726a4.248,4.248,0,0,1-4.1,2.954h-38.727a4.247,4.247,0,0,1-4.1-2.954l-1.429-4.726a3.794,3.794,0,0,0-3.661-2.638h-17.48c-7.687,0-13.919,5.979-13.919,13.356V500.171a9.223,9.223,0,0,0,9.407,9.026h102.232a8.1,8.1,0,0,0,8.262-7.928V279.9A8.746,8.746,0,0,0,1085.78,271.343Zm-2.452,210.836H988.752V318.467h94.575Z" transform="translate(-968.945 -267.715)" fill="#99989b" opacity="0.43"/>
      <rect id="Rectángulo_5977" data-name="Rectángulo 5977" width="1.488" height="13.902" transform="translate(16.081 47.026)" fill="#fff"/>
      <rect id="Rectángulo_5978" data-name="Rectángulo 5978" width="1.488" height="10.925" transform="translate(28.495 47.026) rotate(90)" fill="#fff"/>
      <rect id="Rectángulo_5979" data-name="Rectángulo 5979" width="1.488" height="10.925" transform="translate(74.925 47.026) rotate(90)" fill="#fff"/>
      <rect id="Rectángulo_5980" data-name="Rectángulo 5980" width="1.488" height="13.902" transform="translate(118.151 60.928) rotate(-180)" fill="#fff"/>
      <rect id="Rectángulo_5981" data-name="Rectángulo 5981" width="1.488" height="13.902" transform="translate(16.081 125.657)" fill="#fff"/>
      <rect id="Rectángulo_5982" data-name="Rectángulo 5982" width="1.488" height="13.902" transform="translate(118.151 139.559) rotate(-180)" fill="#fff"/>
      <rect id="Rectángulo_5983" data-name="Rectángulo 5983" width="1.488" height="10.925" transform="translate(116.662 47.026) rotate(90)" fill="#fff"/>
      <rect id="Rectángulo_5984" data-name="Rectángulo 5984" width="1.488" height="13.902" transform="translate(16.081 204.114)" fill="#fff"/>
      <rect id="Rectángulo_5985" data-name="Rectángulo 5985" width="1.488" height="10.925" transform="translate(17.57 218.016) rotate(-90)" fill="#fff"/>
      <rect id="Rectángulo_5986" data-name="Rectángulo 5986" width="1.488" height="10.925" transform="translate(64 218.016) rotate(-90)" fill="#fff"/>
      <rect id="Rectángulo_5987" data-name="Rectángulo 5987" width="1.488" height="13.902" transform="translate(118.151 218.016) rotate(180)" fill="#fff"/>
      <rect id="Rectángulo_5988" data-name="Rectángulo 5988" width="1.488" height="10.925" transform="translate(105.737 218.016) rotate(-90)" fill="#fff"/>
    </g>
    <g id="Grupo_60478" data-name="Grupo 60478" transform="translate(324.628 348.538)">
      <path id="Trazado_105817" data-name="Trazado 105817" d="M1486.526,695.845l-2.556.971-17.189,6.533a11,11,0,0,1-1.218.386,11.741,11.741,0,0,1-13.882-7.172l-.252-.66a11.742,11.742,0,0,1,6.785-15.1l16.025-6.089,1.164-.443,2.556-.971a11.739,11.739,0,0,1,15.1,6.785l.252.66A11.742,11.742,0,0,1,1486.526,695.845Z" transform="translate(-1450.668 -672.536)" fill="#ffb27d"/>
      <path id="Trazado_105818" data-name="Trazado 105818" d="M1488.737,729.448c-2.869,1.087-8.062,3.016-10.84,3.416a4.578,4.578,0,0,1-3.585-1.794,10.6,10.6,0,0,1-2.162-3.9,12.391,12.391,0,0,1-.588-2.489,10.516,10.516,0,0,1,.094-2.96,2.955,2.955,0,0,1,1.64-2.112s.009,0,.012-.006a67.778,67.778,0,0,1,10.425-4.088,4.529,4.529,0,0,1,5.618,2.51l.361.987,1.844,5.052A4.328,4.328,0,0,1,1488.737,729.448Z" transform="translate(-1466.838 -705.745)" fill="#ffd3b6"/>
      <path id="Trazado_105819" data-name="Trazado 105819" d="M1494.84,739.255c-2.869,1.087-8.062,3.017-10.84,3.415a4.577,4.577,0,0,1-3.585-1.794c-.145-.336-.277-.691-.4-1.071a12.366,12.366,0,0,1-.588-2.489,10.5,10.5,0,0,1,.094-2.96,2.955,2.955,0,0,1,1.64-2.111s.009,0,.013-.006a67.777,67.777,0,0,1,10.425-4.088,4.943,4.943,0,0,1,4.22.669l1.844,5.052A4.328,4.328,0,0,1,1494.84,739.255Z" transform="translate(-1472.942 -715.552)" fill="#ffc197"/>
    </g>
    <g id="Grupo_60479" data-name="Grupo 60479" transform="translate(329.439 379.6)">
      <path id="Trazado_105820" data-name="Trazado 105820" d="M1495.414,827.759l-13.256,3.609a7.612,7.612,0,0,1-9.317-5.33l-.408-1.5a7.612,7.612,0,0,1,5.329-9.317l13.256-3.609a7.613,7.613,0,0,1,9.318,5.33l.408,1.5A7.612,7.612,0,0,1,1495.414,827.759Z" transform="translate(-1472.166 -811.346)" fill="#ffb27d"/>
      <path id="Trazado_105821" data-name="Trazado 105821" d="M1496.376,843.3a59.847,59.847,0,0,1-9.144,1.923c-.839.047-2.52-.663-3.616-2.869a10.025,10.025,0,0,1-.974-3.818,7.6,7.6,0,0,1,.3-2.268,2.349,2.349,0,0,1,1.5-1.515c.006,0,.009,0,.012-.006a59.276,59.276,0,0,1,8.854-2.47,3.752,3.752,0,0,1,4.424,2.291l.342,1.194,1.021,3.585A3.362,3.362,0,0,1,1496.376,843.3Z" transform="translate(-1480.297 -827.537)" fill="#ffd3b6"/>
      <path id="Trazado_105822" data-name="Trazado 105822" d="M1498.829,850.209a59.848,59.848,0,0,1-9.143,1.923c-.839.047-2.52-.663-3.616-2.869a8.432,8.432,0,0,1-.267-1.829,7.6,7.6,0,0,1,.3-2.269,2.356,2.356,0,0,1,1.5-1.514c.006,0,.01,0,.013-.006a58.9,58.9,0,0,1,8.854-2.466,4,4,0,0,1,4.06,1.493l1.021,3.585A3.362,3.362,0,0,1,1498.829,850.209Z" transform="translate(-1482.75 -834.446)" fill="#ffc197"/>
    </g>
    <g id="Grupo_60480" data-name="Grupo 60480" transform="translate(323.333 317.203)">
      <path id="Trazado_105823" data-name="Trazado 105823" d="M1481.618,561.748c-.094.035-.188.066-.286.1l-17.379,4.462c-7.642,1.964-15.544-2.171-17.561-9.187l-1.034-3.595c-1.939-6.737,2.228-13.781,9.329-16.065l5.737-1.474L1472.066,533c7.641-1.964,15.543,2.171,17.561,9.187l1.034,3.594C1492.571,552.426,1488.543,559.367,1481.618,561.748Z" transform="translate(-1444.883 -532.51)" fill="#ffb27d"/>
      <path id="Trazado_105824" data-name="Trazado 105824" d="M1516.9,580.377l-8.443,3.805-.053.013a9.028,9.028,0,0,1-1.021.21c-.141.022-.286.038-.427.053a1.153,1.153,0,0,1-.179,0,1.343,1.343,0,0,1-1.166-1.9,8.4,8.4,0,0,0,.478-5.725l-.2-.735a.058.058,0,0,0-.006-.022l-.653-2.4a8.99,8.99,0,0,0-3.06-4.666c-.173-.141-.352-.273-.534-.4a2.426,2.426,0,0,1,.71-4.317l.053-.016,9.266-1.4c2.29-.622,4.5,1.141,5.121,3.431l.745,2.73,1.584,5.822C1519.732,577.163,1519.188,579.755,1516.9,580.377Z" transform="translate(-1488.127 -555.99)" fill="#ffd3b6"/>
      <path id="Trazado_105825" data-name="Trazado 105825" d="M1522.346,593.455l-8.443,3.805-.053.013c-.2.038-.817.141-1.628.267a1.343,1.343,0,0,1-1.166-1.9,8.394,8.394,0,0,0,.478-5.725l-.2-.735a.057.057,0,0,0-.006-.022l-.653-2.4a8.992,8.992,0,0,0-3.06-4.666,2.353,2.353,0,0,1,1.329-.946c.015-.006.034-.009.053-.015l9.266-1.4a4.214,4.214,0,0,1,4.713,2.391l1.584,5.822C1525.18,590.24,1524.636,592.833,1522.346,593.455Z" transform="translate(-1493.575 -569.068)" fill="#ffc197"/>
    </g>
  </g>
</svg>
