<svg xmlns="http://www.w3.org/2000/svg" xmlns:xlink="http://www.w3.org/1999/xlink" width="467.5" height="334.51" viewBox="0 0 467.5 334.51">
  <defs>
    <clipPath id="clip-path">
      <path id="Trazado_105224" data-name="Trazado 105224" d="M502.124,24.779H168.731l-1.694,280.027H500.43Z" transform="translate(-167.037 -24.779)" fill="none"/>
    </clipPath>
    <clipPath id="clip-path-2">
      <path id="Trazado_105208" data-name="Trazado 105208" d="M446.311,117.965c-6.358,15.895-19.58,63.741-23.332,64.367-13.966,1.875-49.36,17.33-55.2,14.828l1.8,10.537a124.069,124.069,0,0,0-24.35-15.123L318.551,191.4c-12.457,4.417-31.444,14.635-38.743,24.527v0c-8.471,6.842-42.6,64.736-38.042,83.942,3.891,16.4,46.628,51.14,53.087,52.81,7.38,1.906,23.089-10.523,28.751-21.53,23.683,1.136,48.263-.747,48.515-6.465.322-7.318.666-15.108,1.26-28.562.265-6.056,3.084-18.945,5.766-32.318,4.983-17.024,62.853-40.513,68.274-47.877s33.569-76.574,35.487-85.427C484.816,121.675,452.387,102.773,446.311,117.965Z" transform="translate(-241.348 -112.246)" fill="none"/>
    </clipPath>
  </defs>
  <g id="Grupo_59519" data-name="Grupo 59519" transform="translate(-70.688 -24.779)">
    <g id="Grupo_59496" data-name="Grupo 59496" transform="translate(70.688 68.129)">
      <path id="Trazado_105115" data-name="Trazado 105115" d="M500.895,165.692A110.46,110.46,0,1,0,611.354,276.15,110.461,110.461,0,0,0,500.895,165.692Z" transform="translate(-143.854 -100.374)" fill="#bb83ff" opacity="0.38"/>
      <path id="Trazado_105116" data-name="Trazado 105116" d="M621.23,123.328a14.953,14.953,0,1,1-14.953-14.953A14.952,14.952,0,0,1,621.23,123.328Z" transform="translate(-189.824 -87.259)" fill="#bb83ff" opacity="0.5"/>
      <path id="Trazado_105117" data-name="Trazado 105117" d="M103.9,398.6a13.344,13.344,0,1,1-13.344-13.344A13.343,13.343,0,0,1,103.9,398.6Z" transform="translate(-72.18 -150.617)" fill="#bb83ff"/>
      <path id="Trazado_105118" data-name="Trazado 105118" d="M655.655,97.566a11.592,11.592,0,1,1-11.593-11.593A11.592,11.592,0,0,1,655.655,97.566Z" transform="translate(-199.24 -82.132)" fill="#bb83ff"/>
      <path id="Trazado_105119" data-name="Trazado 105119" d="M136.335,203.46a67.43,67.43,0,1,0,69.191,65.621A67.431,67.431,0,0,0,136.335,203.46Z" transform="translate(-70.688 -109.011)" fill="#bb83ff" opacity="0.4"/>
      <g id="Grupo_59488" data-name="Grupo 59488" transform="translate(23.215)">
        <path id="Trazado_105120" data-name="Trazado 105120" d="M106.722,97.6h-5.93l9.382-16.608h5.93Z" transform="translate(-100.791 -80.993)" fill="#47286d"/>
        <path id="Trazado_105121" data-name="Trazado 105121" d="M120.494,97.6h-5.93l9.382-16.608h5.931Z" transform="translate(-103.943 -80.993)" fill="#47286d"/>
        <path id="Trazado_105122" data-name="Trazado 105122" d="M134.266,97.6h-5.93l9.382-16.608h5.931Z" transform="translate(-107.095 -80.993)" fill="#47286d"/>
      </g>
      <g id="Grupo_59489" data-name="Grupo 59489" transform="translate(339.875 251.406)">
        <path id="Trazado_105123" data-name="Trazado 105123" d="M518.784,427.639h-7.371L523.073,407h7.37Z" transform="translate(-511.413 -406.998)" fill="#bb83ff"/>
        <path id="Trazado_105124" data-name="Trazado 105124" d="M535.9,427.639h-7.37L540.19,407h7.37Z" transform="translate(-515.33 -406.998)" fill="#bb83ff"/>
        <path id="Trazado_105125" data-name="Trazado 105125" d="M553.017,427.639h-7.371L557.307,407h7.371Z" transform="translate(-519.247 -406.998)" fill="#bb83ff"/>
        <path id="Trazado_105126" data-name="Trazado 105126" d="M570.134,427.639h-7.37L574.422,407h7.371Z" transform="translate(-523.164 -406.998)" fill="#bb83ff"/>
        <path id="Trazado_105127" data-name="Trazado 105127" d="M587.252,427.639h-7.371L591.541,407h7.371Z" transform="translate(-527.08 -406.998)" fill="#bb83ff"/>
      </g>
      <rect id="Rectángulo_5849" data-name="Rectángulo 5849" width="18.122" height="5.404" transform="translate(3.719 12.828) rotate(-45.003)" fill="#bb83ff"/>
      <rect id="Rectángulo_5850" data-name="Rectángulo 5850" width="5.404" height="18.122" transform="matrix(0.707, -0.707, 0.707, 0.707, 3.719, 3.834)" fill="#bb83ff"/>
      <g id="Grupo_59491" data-name="Grupo 59491" transform="translate(429.962 49.142)">
        <g id="Grupo_59490" data-name="Grupo 59490">
          <path id="Trazado_105128" data-name="Trazado 105128" d="M644.874,154.557a2.489,2.489,0,0,0-3.534,3.506,10.962,10.962,0,0,1-.063,15.486,2.488,2.488,0,1,0,3.5,3.534A15.946,15.946,0,0,0,644.874,154.557Z" transform="translate(-631.048 -146.8)" fill="#47286d"/>
          <path id="Trazado_105129" data-name="Trazado 105129" d="M653.885,182.078a25.93,25.93,0,0,0,.152-36.626,2.489,2.489,0,0,0-3.534,3.506,20.947,20.947,0,0,1-.122,29.588,2.488,2.488,0,1,0,3.5,3.533Z" transform="translate(-633.131 -144.716)" fill="#47286d"/>
          <path id="Trazado_105130" data-name="Trazado 105130" d="M636.627,164.577a4.91,4.91,0,1,0-.03,6.945A4.918,4.918,0,0,0,636.627,164.577Z" transform="translate(-628.232 -148.929)" fill="#47286d"/>
        </g>
      </g>
      <g id="Grupo_59494" data-name="Grupo 59494" transform="translate(3.719 30.344)">
        <g id="Grupo_59493" data-name="Grupo 59493">
          <g id="Grupo_59492" data-name="Grupo 59492">
            <path id="Trazado_105131" data-name="Trazado 105131" d="M107.181,125.374l-2.192,0-3.143-4.444a1.321,1.321,0,0,0-1.079-.561l-12.575-.025a1.331,1.331,0,0,0-1.084.558l-3.157,4.433-2.194-.005a6.221,6.221,0,0,0-6.213,6.192l-.035,18.04A6.222,6.222,0,0,0,81.7,155.77l25.425.047a6.219,6.219,0,0,0,6.213-6.189l.033-18.041A6.22,6.22,0,0,0,107.181,125.374ZM94.425,149.557a9.141,9.141,0,1,1,9.158-9.124A9.14,9.14,0,0,1,94.425,149.557Z" transform="translate(-75.51 -120.34)" fill="#bb83ff"/>
            <path id="Trazado_105132" data-name="Trazado 105132" d="M98.279,138.54a6.042,6.042,0,1,0,6.029,6.053A6.041,6.041,0,0,0,98.279,138.54Z" transform="translate(-79.335 -124.505)" fill="#bb83ff"/>
          </g>
        </g>
      </g>
      <g id="Grupo_59495" data-name="Grupo 59495" transform="translate(417.243 244.211)">
        <path id="Trazado_105133" data-name="Trazado 105133" d="M629.8,406.192l-.053-7.273a1.263,1.263,0,0,0-1.273-1.251,4.88,4.88,0,0,0-4.844,4.918l.026,3.485-7.992.059-1.316.009a2.624,2.624,0,0,0-1.214,4.945,2.609,2.609,0,0,0,.034,4.605,2.616,2.616,0,0,0,.321,4.744,2.63,2.63,0,0,0,1,5.07l1.316-.01,11.843-.086,1.082-.009a4.934,4.934,0,0,0,4.9-4.97l-.069-9.5A4.926,4.926,0,0,0,629.8,406.192Z" transform="translate(-611.739 -397.668)" fill="#bb83ff"/>
        <path id="Trazado_105134" data-name="Trazado 105134" d="M648.063,410.955l-3.712.028a1.837,1.837,0,0,0-1.822,1.848l.087,11.748a1.835,1.835,0,0,0,1.847,1.821l3.715-.029A1.831,1.831,0,0,0,650,424.526l-.087-11.751A1.833,1.833,0,0,0,648.063,410.955Z" transform="translate(-618.785 -400.708)" fill="#bb83ff"/>
      </g>
    </g>
    <g id="Grupo_59515" data-name="Grupo 59515" transform="translate(141.347 24.779)">
      <rect id="Rectángulo_5851" data-name="Rectángulo 5851" width="332.978" height="218.468" transform="translate(3.67 61.56)" fill="#bb83ff" opacity="0.1"/>
      <rect id="Rectángulo_5852" data-name="Rectángulo 5852" width="327.375" height="3.92" transform="translate(6.582 67.266)" fill="#e2e2e2" style="mix-blend-mode: multiply;isolation: isolate"/>
      <rect id="Rectángulo_5853" data-name="Rectángulo 5853" width="68.826" height="7.182" transform="translate(248.902 43.626)" fill="#0b3356"/>
      <path id="Trazado_105135" data-name="Trazado 105135" d="M500.295,96.319l-6.283-11.671H174.868l-6.732,6.073v15.024H500.295Z" transform="translate(-163.646 -38.479)" fill="#0b3356"/>
      <g id="Grupo_59497" data-name="Grupo 59497" transform="translate(322.294 53.211)">
        <line id="Línea_178" data-name="Línea 178" x2="6.343" y2="6.339" transform="translate(0 0.001)" fill="none" stroke="#fff" stroke-linecap="round" stroke-miterlimit="10" stroke-width="3"/>
        <line id="Línea_179" data-name="Línea 179" x1="6.343" y2="6.34" transform="translate(0)" fill="none" stroke="#fff" stroke-linecap="round" stroke-miterlimit="10" stroke-width="3"/>
      </g>
      <g id="Grupo_59503" data-name="Grupo 59503" transform="translate(3.642)">
        <g id="Grupo_59502" data-name="Grupo 59502" clip-path="url(#clip-path)">
          <path id="Trazado_105136" data-name="Trazado 105136" d="M531.315,262.1a58.1,58.1,0,1,0,58.1,58.1A58.1,58.1,0,0,0,531.315,262.1Zm0,89.064A30.964,30.964,0,1,1,562.28,320.2,30.964,30.964,0,0,1,531.315,351.167Z" transform="translate(-237.099 -79.086)" fill="#9b9b9b" opacity="0.4" style="mix-blend-mode: color-burn;isolation: isolate"/>
          <path id="Trazado_105137" data-name="Trazado 105137" d="M467.888,128.794a35.7,35.7,0,1,0,35.7,35.7A35.7,35.7,0,0,0,467.888,128.794Zm0,54.729A19.027,19.027,0,1,1,486.915,164.5,19.026,19.026,0,0,1,467.888,183.523Z" transform="translate(-227.71 -48.581)" fill="#9b9b9b" opacity="0.4" style="mix-blend-mode: color-burn;isolation: isolate"/>
          <path id="Trazado_105138" data-name="Trazado 105138" d="M146.823,194.742a39.5,39.5,0,1,0,39.5,39.5A39.5,39.5,0,0,0,146.823,194.742Zm0,60.552a21.052,21.052,0,1,1,21.051-21.052A21.052,21.052,0,0,1,146.823,255.294Z" transform="translate(-153.372 -63.672)" fill="#9b9b9b" opacity="0.4" style="mix-blend-mode: color-burn;isolation: isolate"/>
          <path id="Trazado_105139" data-name="Trazado 105139" d="M229.966,321.176c-6.432-16.563-5.059-62.088,37.08-117.887-8.383-31.35,3.844-81.32,25.864-91.284l38.4.928s38.4,109.84,30.494,208.243Z" transform="translate(-180.783 -44.739)" fill="#9b9b9b" opacity="0.4" style="mix-blend-mode: color-burn;isolation: isolate"/>
          <g id="Grupo_59501" data-name="Grupo 59501" transform="translate(57.044 9.684)">
            <path id="Trazado_105140" data-name="Trazado 105140" d="M524.589,77.606c-.589-3.773-2.278-6.891-1.138-15.059.388-2.785-.05-2.964.216-5.259.145-1.232.99-2.435.992-3.553,0-3.446-.392-3.111-.36-5.036.563-4.367,7.823,2.324,5.155,11.322.246,4.888.793,4.8,1.232,4.4.213-.2,2.468-2.089,4.132-6.889.839-2.42,1.36-7.037,2.41-9.644,1.1-2.714,1.659-5.354,3.1-7.544,1.655-2.518,3.116-4.022,4.531-2.2.436.561.219,2.577-.955,5.2-.875,1.953-.812,2.716-1.751,5.187-.739,2.384-2.271,9.512-2.067,9.644.136.086,2.364-5.413,5.414-11.006,1.118-2.054,2.026-3.429,2.666-4.714,1.1-2.192,2.851-2.27,3.317-1.788,1.006,1.043.9,2.5-.365,5.542-.7,1.683-1.765,3.752-2.813,5.815-2.125,4.177-3.751,7.857-3.593,8.069.029.038.41,1.46.886.738,1.744-2.637,5.816-11.133,8.058-14.075,1.627-2.132,2.656-.6,2.57,1.233a7.394,7.394,0,0,1-1.277,3.847c-.5.794-1.492,3.45-2.5,5.279-1.292,2.347-3.012,5.486-2.965,5.634.011.035.389.886.885.049.9-1.521,2.079-4.228,3.617-6.614a11.769,11.769,0,0,1,2.244-3.755c.764-.757,1.444-.029,1.622.49.5,1.467.321,2.1-.494,4.073-.64,1.544-1.232,2.983-1.6,3.637-.778,1.393-1.973,3.648-2.635,5.023a68.521,68.521,0,0,0-3.067,6.642c-1.771,4.986-7.607,12.161-11.022,15.877-.778,2.938-7.6,25.456-7.6,25.456s-16.486.777-15.1-3.817S522.967,84.1,524.589,77.606Z" transform="translate(-303.991 -37.336)" fill="#ffa383"/>
            <path id="Trazado_105141" data-name="Trazado 105141" d="M405.3,197.16c5.837,2.5,41.231-12.953,55.2-14.828,3.752-.625,16.974-48.472,23.332-64.367,6.076-15.192,38.505,3.71,36.594,12.532-1.918,8.853-30.067,78.062-35.487,85.427s-63.3,30.856-68.276,47.881" transform="translate(-278.602 -54.478)" fill="#f17781"/>
            <path id="Trazado_105142" data-name="Trazado 105142" d="M515.09,111.637c2.6-4.172,5.838-9.588,6.533-12.784s19.669,3.358,17.931,6.971a33.224,33.224,0,0,0-2.782,13.875C536.874,123.381,513.423,114.312,515.09,111.637Z" transform="translate(-303.706 -51.218)" fill="#ea4613"/>
            <path id="Trazado_105143" data-name="Trazado 105143" d="M539.769,121.18s.312-8.73,3.867-14.122" transform="translate(-309.373 -53.291)" fill="#9b9b9b" style="mix-blend-mode: color-burn;isolation: isolate"/>
            <path id="Trazado_105144" data-name="Trazado 105144" d="M536.855,119.558s.314-8.729,3.867-14.123" transform="translate(-308.706 -52.919)" fill="#9b9b9b" style="mix-blend-mode: color-burn;isolation: isolate"/>
            <path id="Trazado_105145" data-name="Trazado 105145" d="M533.024,118.477s.25-8.453,4.376-14.122" transform="translate(-307.829 -52.672)" fill="#9b9b9b" style="mix-blend-mode: color-burn;isolation: isolate"/>
            <path id="Trazado_105146" data-name="Trazado 105146" d="M529.824,117.2s.335-8.45,4.519-14.078" transform="translate(-307.097 -52.389)" fill="#9b9b9b" style="mix-blend-mode: color-burn;isolation: isolate"/>
            <path id="Trazado_105147" data-name="Trazado 105147" d="M525.456,115.627s1.563-9.12,5.628-13.706" transform="translate(-306.098 -52.115)" fill="#9b9b9b" style="mix-blend-mode: color-burn;isolation: isolate"/>
            <path id="Trazado_105148" data-name="Trazado 105148" d="M522.524,114.479s1.565-9.121,5.63-13.706" transform="translate(-305.427 -51.852)" fill="#9b9b9b" style="mix-blend-mode: color-burn;isolation: isolate"/>
            <path id="Trazado_105149" data-name="Trazado 105149" d="M518.549,112.777s2.293-8.494,6.566-12.611" transform="translate(-304.517 -51.714)" fill="#9b9b9b" style="mix-blend-mode: color-burn;isolation: isolate"/>
            <path id="Trazado_105150" data-name="Trazado 105150" d="M381.6,199.772c-4.553-10.826,5.818-68.058-4.245-90.1-6.146-13.461-20.684-21.54-33.416-16.37-9.757-.308-16.072,6.9-20.913,15.617-9.195,16.556-.228,34.885-5.455,39.584-8.593,7.726-15.454,13.64-15.21,22.584.362,13.261,9.983,17.469,7.922,27.363C304.459,226.407,381.6,199.772,381.6,199.772Z" transform="translate(-255.046 -49.781)" fill="#47286d"/>
            <path id="Trazado_105151" data-name="Trazado 105151" d="M326.593,168.61c-2.457,11.187,4.571,16.93,5.549,23.107.906,5.727-.119,13.83-5.508,17.2l11.4-2.436,3.115-23.815L333,167.86Z" transform="translate(-260.474 -67.204)" fill="#e2e2e2" style="mix-blend-mode: multiply;isolation: isolate"/>
            <path id="Trazado_105152" data-name="Trazado 105152" d="M355.607,216.06c13.49,6.169,34.548,20.341,38.24,31.62s-9.5,58.47-10.09,71.925-.938,21.244-1.26,28.562c-.49,11.094-92.491,7.75-91.971-4.053.322-7.318.666-15.106,1.258-28.561s-8.4-61.624-3.728-72.534,26.893-23.176,40.874-28.134Z" transform="translate(-251.465 -77.965)" fill="#f17781"/>
            <path id="Trazado_105153" data-name="Trazado 105153" d="M403.931,156.052c-.953,5.343-5.426,12.052-9.326,9.8-3.14-1.818-5.724-4.73-4.777-10.073s3.882-7.857,8.193-8.531C402.666,146.523,404.875,150.706,403.931,156.052Z" transform="translate(-275.017 -62.468)" fill="#e5886e"/>
            <path id="Trazado_105154" data-name="Trazado 105154" d="M404.866,149.2c-.809-1.105-5.4-1.88-6.909,2.1l.664-3.789a6.11,6.11,0,0,1,3.264-.272A4.2,4.2,0,0,1,404.866,149.2Z" transform="translate(-276.922 -62.46)" fill="#ffa383"/>
            <path id="Trazado_105155" data-name="Trazado 105155" d="M318.207,152.22c.477,5.407,4.343,12.483,8.429,10.581,3.284-1.535,6.115-4.208,5.641-9.614s-3.176-8.169-7.409-9.218C320.306,142.839,317.732,146.812,318.207,152.22Z" transform="translate(-258.66 -61.693)" fill="#e5886e"/>
            <path id="Trazado_105156" data-name="Trazado 105156" d="M320.256,145.487c.911-1.03,5.546-1.4,6.7,2.7l-.327-3.833a6.135,6.135,0,0,0-3.23-.557A4.2,4.2,0,0,0,320.256,145.487Z" transform="translate(-259.142 -61.689)" fill="#ffa383"/>
            <path id="Trazado_105157" data-name="Trazado 105157" d="M335.283,188.141c1.434,5.957-1.5,19.063-2.034,22.347-1.228.457-9.443,4.169-9.443,4.169-2.341,8.093,4.341,14.584,10.59,23.1,7.07,9.641,15.214,23.6,14.613,34.451l2.6.116c5.937-22.578,20.544-50.26,17.126-60-.419-1.284-2.755-12.431-.282-22.005Z" transform="translate(-259.845 -71.845)" fill="#ffa383"/>
            <path id="Trazado_105158" data-name="Trazado 105158" d="M339.239,192.065a33.767,33.767,0,0,1-.21,5.644s9.108,11.8,15.971,12.107,16.1-9.827,16.1-9.827.163-7.048.608-9.973Z" transform="translate(-263.438 -72.274)" fill="#e5886e"/>
            <path id="Trazado_105159" data-name="Trazado 105159" d="M382.9,134.559a27.122,27.122,0,1,1-54.192-2.387c.885-20.09,13.439-29.217,28.408-28.558S383.766,114.89,382.9,134.559Z" transform="translate(-261.07 -52.495)" fill="#ffa383"/>
            <path id="Trazado_105160" data-name="Trazado 105160" d="M382.791,143.043c-.639,14.493-1.175,26.625-7.045,34.259-3.539,4.6-12.54,12.375-18.891,14.165a18.277,18.277,0,0,1-7.544-.627c-6.115-2.473-13.728-10.773-16.709-15.438-5.176-8.121-4.642-20.253-4-34.745" transform="translate(-260.96 -60.979)" fill="#ffa383"/>
            <path id="Trazado_105161" data-name="Trazado 105161" d="M382.578,156.38c-.108,2.461-1.679,4.395-3.508,4.315s-3.227-2.146-3.119-4.607,1.677-4.4,3.511-4.319S382.685,153.914,382.578,156.38Z" transform="translate(-271.885 -63.521)" fill="#0e263f"/>
            <path id="Trazado_105162" data-name="Trazado 105162" d="M349.329,154.714c-.108,2.462-1.683,4.4-3.514,4.315s-3.225-2.146-3.118-4.607,1.681-4.4,3.51-4.319S349.438,152.249,349.329,154.714Z" transform="translate(-264.276 -63.14)" fill="#0e263f"/>
            <path id="Trazado_105163" data-name="Trazado 105163" d="M370.393,141.4s12.143.062,17.477,3.934" transform="translate(-270.615 -61.149)" fill="none" stroke="#0e263f" stroke-linecap="round" stroke-miterlimit="10" stroke-width="5"/>
            <path id="Trazado_105164" data-name="Trazado 105164" d="M351.767,141.892s-11.35-.433-17.137,3.469" transform="translate(-262.431 -61.258)" fill="none" stroke="#0e263f" stroke-linecap="round" stroke-miterlimit="10" stroke-width="5"/>
            <path id="Trazado_105165" data-name="Trazado 105165" d="M356.2,175.892c1.6-.585,7.258-.386,8.566.378s-2.9,1.522-4.356,1.458S354.919,176.443,356.2,175.892Z" transform="translate(-267.311 -68.964)" fill="#e5886e"/>
            <path id="Trazado_105166" data-name="Trazado 105166" d="M363.476,196.357a32.462,32.462,0,0,0-8.679-.382c-1.4.184,1.83-1.075,4.352-.964C361.457,195.113,364.8,196.708,363.476,196.357Z" transform="translate(-266.969 -73.415)" fill="#e5886e" opacity="0.5"/>
            <path id="Trazado_105167" data-name="Trazado 105167" d="M350.719,183.379c5.214,1.8,11.641,1.785,16.606,1.414.614-.046.342.048-.265.747-.988,1.142-4.152,4.648-8.377,4.427-4.062-.212-7.55-5.285-8.43-6.751C349.912,182.653,350.251,183.216,350.719,183.379Z" transform="translate(-265.974 -70.662)" fill="#fff"/>
            <path id="Trazado_105168" data-name="Trazado 105168" d="M327.589,161.138c-2.052-1.51-3.322-3.405-1.818-5.668a8.085,8.085,0,0,1,1.67-1.76c3.758-3.054,1.8,3.79,1.8,3.79Z" transform="translate(-260.253 -63.786)" fill="#ffa383"/>
            <path id="Trazado_105169" data-name="Trazado 105169" d="M349.117,182.09c3.314.557,7.43-1.3,9.3.757,2.592-1.65,7.043,1.292,10.434,1.287.064,0,.169.122-.066.192-1.792.54-11.831,2.541-19.727-1.877C348.665,182.232,348.7,182.02,349.117,182.09Z" transform="translate(-265.669 -70.405)" fill="#ea4939"/>
            <path id="Trazado_105170" data-name="Trazado 105170" d="M349.486,182.71A37.68,37.68,0,0,0,354,188.791c1.815,1.677,6.958,2.26,9.072.836a37.647,37.647,0,0,0,5.13-5.112l-.79.226c-1.822,1.073-2.929,2.208-5.033,2.917a10.156,10.156,0,0,1-6.368.086c-2.683-.855-3.26-2.86-5.123-4.362l-.912-.548Z" transform="translate(-265.831 -70.602)" fill="#ea4939"/>
            <path id="Trazado_105171" data-name="Trazado 105171" d="M351.882,183.955a14.642,14.642,0,0,0,7.406,2.322,25.45,25.45,0,0,0,8.35-1.056,52.9,52.9,0,0,1-8.163.438A25.035,25.035,0,0,1,351.882,183.955Z" transform="translate(-266.379 -70.887)" fill="#e2e2e2"/>
            <path id="Trazado_105172" data-name="Trazado 105172" d="M327.945,150.17c-.022-8.276,3-20.027,8.289-24.754,4.39-3.925,11.494-8.129,10.452-15.258a14.07,14.07,0,0,0,6.641,13.785c5.9,3.834,33.781,4.238,25.422,26.789l3.129-3.092.447-11.51L374.579,124.7l-28.667-19.71-15.345,20.174-3.9,14.071Z" transform="translate(-260.609 -52.818)" fill="#e5886e"/>
            <path id="Trazado_105173" data-name="Trazado 105173" d="M387.192,150.457c.2-7.444.955-13.321-4.862-18.945-8.187-7.916-15.9-5.621-22.507-10.561a18.667,18.667,0,0,1-7.4-18.191l9.884-.976,10.012,1.852,11.348,9.025,5.516,13.183a41.726,41.726,0,0,1,.375,12.24A57.389,57.389,0,0,1,387.192,150.457Z" transform="translate(-266.449 -52.084)" fill="#47286d"/>
            <path id="Trazado_105174" data-name="Trazado 105174" d="M348.253,103.1c-18.931,5.866-20.277,15.239-21.853,26.16a52.065,52.065,0,0,0,1.377,20.478c-.381-4.766.76-22.446,10.065-28.871s8.676-11.141,8.676-11.141Z" transform="translate(-260.442 -52.384)" fill="#47286d"/>
            <path id="Trazado_105175" data-name="Trazado 105175" d="M351.872,107.589s-1.385-9.1,2.816-13.821c0,0-3.608.308-5.055,5.018C348.288,103.157,351.872,107.589,351.872,107.589Z" transform="translate(-265.795 -50.25)" fill="#e2e2e2" style="mix-blend-mode: multiply;isolation: isolate"/>
            <path id="Trazado_105176" data-name="Trazado 105176" d="M318.03,224.9c-1.281,7.658,3.512,13.368,11,23.631s15.706,21.092,16.316,31.406c.7,11.851-4.717,69.678-4.717,69.678l5.523.242,4.2-69.7c.258-8.149-5.264-16.9-9.383-23.842s-14.048-18.619-16.164-23-3.089-7.352-2.26-10.826C322.546,222.486,319.654,221.513,318.03,224.9Z" transform="translate(-258.585 -79.674)" fill="#881922"/>
            <path id="Trazado_105177" data-name="Trazado 105177" d="M359.068,290.514c1.088-3.881,4.88-14.153,6.26-17.285s3.813,3.039,3.813,3.039-10.118,25.594-10.847,34.077-.83-12.983-.83-12.983Z" transform="translate(-267.656 -91.112)" fill="#881922"/>
            <path id="Trazado_105178" data-name="Trazado 105178" d="M420.03,294.569c1.233-6.254,6.007-18.222,4.076-28.741s3.35-1.255,6.964.366,52.98-11.5,57.235-19.506a11.806,11.806,0,0,1-3.824,3.385c-5.714,3.524-16.916,9.337-28.6,15.936C429.3,281.017,421.068,289.438,420.03,294.569Z" transform="translate(-281.973 -85.242)" fill="#ea4613"/>
            <path id="Trazado_105179" data-name="Trazado 105179" d="M454.6,206.045c3.313-1.055,16.343-3.349,21.069,2.07s5,.29,3.059-2.009-3.927-8.24-3.628-10.191c-1.331,3.213-2.071,4.452-2.928,5.354C470.667,202,469.939,201.027,454.6,206.045Z" transform="translate(-289.884 -73.624)" fill="#ea4613"/>
            <path id="Trazado_105180" data-name="Trazado 105180" d="M508.036,116.214c-1.182,1.722,6.6,8.065,17.582,11.541s16.895,3.958,17.481,2.675c0,0,.46,1-4.231,13.2,0,0,2.34-8.542-2.687-8.967-5.948-.5-19.282-3.884-26.754-12.773-1.674-1.991-2.951-1.169-5.378,3.427C506.307,119.164,506.944,117.126,508.036,116.214Z" transform="translate(-301.199 -55.386)" fill="#ea4613"/>
            <path id="Trazado_105181" data-name="Trazado 105181" d="M313.064,293.978s-8.366,19.6-5.239,24.182S317.7,323.87,317.7,327s-7.377-.708-6.96,2.419c.29,2.182,22.973,21.98,28,29.669,2.176,3.327-.7,11.928-.069,13.187l-2.587-.112c-7.326-6.191-33.477-33.573-33.477-33.573s-7.582-27.724-6.605-29.6,6.813-16.26,7.439-17.3S313.064,293.978,313.064,293.978Z" transform="translate(-253.574 -95.492)" fill="#ea4613"/>
            <path id="Trazado_105182" data-name="Trazado 105182" d="M279.807,246.688c-8.471,6.842-42.6,64.736-38.042,83.942,3.891,16.4,46.628,51.14,53.087,52.81,11.2,2.893,41.6-27.239,26.912-35.3S288.58,316.457,287.686,313.4s14.948-34.188,14.948-34.188" transform="translate(-241.086 -85.242)" fill="#f17781"/>
            <path id="Trazado_105183" data-name="Trazado 105183" d="M412.533,324.193c-3.018,6.871-15.541,21.672-14.7,27.09s11.072,10.025,10.23,18.563C408.064,369.846,408.125,343.154,412.533,324.193Z" transform="translate(-276.885 -102.977)" fill="#ea4613"/>
            <path id="Trazado_105184" data-name="Trazado 105184" d="M359.157,260.389c.452,4.865,3.928,16.815,3.928,16.815l2.386-5.867S360.095,268.589,359.157,260.389Z" transform="translate(-268.044 -88.377)" fill="#e2e2e2" style="mix-blend-mode: multiply;isolation: isolate"/>
            <path id="Trazado_105185" data-name="Trazado 105185" d="M364.25,274.069c5.14,4.032,26.923,7.436,34.983-4.933s4.905-22.448,4.905-22.448l-37.5,21.514Z" transform="translate(-269.209 -85.242)" fill="#ea4613"/>
            <path id="Trazado_105186" data-name="Trazado 105186" d="M241.271,347.609c.416,6.115,58.285,60.149,69.234,52.449,0,0-8.5,7.588-15.731,6.476-4.726-.557-38.346-27.434-48.913-44.291C239.742,352.891,241.061,348.908,241.271,347.609Z" transform="translate(-241.008 -108.336)" fill="#ea4613"/>
            <g id="Grupo_59500" data-name="Grupo 59500" transform="translate(0.263 57.769)">
              <g id="Grupo_59499" data-name="Grupo 59499" clip-path="url(#clip-path-2)">
                <g id="Grupo_59498" data-name="Grupo 59498" transform="translate(-0.263 9.453)">
                  <path id="Trazado_105187" data-name="Trazado 105187" d="M430.383,219.084a6.809,6.809,0,1,1-6.809-6.809A6.809,6.809,0,0,1,430.383,219.084Z" transform="translate(-281.226 -144.589)" fill="#ededed" style="mix-blend-mode: soft-light;isolation: isolate"/>
                  <path id="Trazado_105188" data-name="Trazado 105188" d="M456.332,246.3a6.809,6.809,0,1,1-6.809-6.81A6.81,6.81,0,0,1,456.332,246.3Z" transform="translate(-287.164 -150.816)" fill="#ededed" style="mix-blend-mode: soft-light;isolation: isolate"/>
                  <path id="Trazado_105189" data-name="Trazado 105189" d="M469.087,208.492a6.81,6.81,0,1,1-6.809-6.81A6.81,6.81,0,0,1,469.087,208.492Z" transform="translate(-290.082 -142.165)" fill="#ededed" style="mix-blend-mode: soft-light;isolation: isolate"/>
                  <path id="Trazado_105190" data-name="Trazado 105190" d="M500.978,246.3a6.81,6.81,0,1,1-6.812-6.81A6.811,6.811,0,0,1,500.978,246.3Z" transform="translate(-297.38 -150.816)" fill="#ededed" style="mix-blend-mode: soft-light;isolation: isolate"/>
                  <circle id="Elipse_4372" data-name="Elipse 4372" cx="6.81" cy="6.81" r="6.81" transform="translate(207.222 60.876)" fill="#ededed" style="mix-blend-mode: soft-light;isolation: isolate"/>
                  <path id="Trazado_105191" data-name="Trazado 105191" d="M421.7,296.248a6.81,6.81,0,1,1-6.81-6.81A6.811,6.811,0,0,1,421.7,296.248Z" transform="translate(-279.238 -162.246)" fill="#ededed" style="mix-blend-mode: soft-light;isolation: isolate"/>
                  <path id="Trazado_105192" data-name="Trazado 105192" d="M379.692,325.5a6.809,6.809,0,1,1-6.809-6.812A6.808,6.808,0,0,1,379.692,325.5Z" transform="translate(-269.626 -168.94)" fill="#ededed" style="mix-blend-mode: soft-light;isolation: isolate"/>
                  <path id="Trazado_105193" data-name="Trazado 105193" d="M405.751,363.139a6.809,6.809,0,1,1-6.809-6.809A6.808,6.808,0,0,1,405.751,363.139Z" transform="translate(-275.59 -177.553)" fill="#ededed" style="mix-blend-mode: soft-light;isolation: isolate"/>
                  <path id="Trazado_105194" data-name="Trazado 105194" d="M375.183,394.489a6.811,6.811,0,1,1-6.811-6.81A6.81,6.81,0,0,1,375.183,394.489Z" transform="translate(-268.594 -184.727)" fill="#ededed" style="mix-blend-mode: soft-light;isolation: isolate"/>
                  <path id="Trazado_105195" data-name="Trazado 105195" d="M330.864,368.761a6.809,6.809,0,1,1-7.535-6.773C323.567,361.963,326.932,365.716,330.864,368.761Z" transform="translate(-258.453 -178.848)" fill="#ededed" style="mix-blend-mode: soft-light;isolation: isolate"/>
                  <path id="Trazado_105196" data-name="Trazado 105196" d="M309.654,418.485a6.809,6.809,0,1,1-6.81-6.81A6.809,6.809,0,0,1,309.654,418.485Z" transform="translate(-253.6 -190.218)" fill="#ededed" style="mix-blend-mode: soft-light;isolation: isolate"/>
                  <path id="Trazado_105197" data-name="Trazado 105197" d="M282.027,372.83a6.81,6.81,0,1,1-6.809-6.81A6.81,6.81,0,0,1,282.027,372.83Z" transform="translate(-247.278 -179.77)" fill="#ededed" style="mix-blend-mode: soft-light;isolation: isolate"/>
                  <path id="Trazado_105198" data-name="Trazado 105198" d="M298.312,331.491a6.809,6.809,0,1,1-6.809-6.809A6.81,6.81,0,0,1,298.312,331.491Z" transform="translate(-251.004 -170.311)" fill="#ededed" style="mix-blend-mode: soft-light;isolation: isolate"/>
                  <path id="Trazado_105199" data-name="Trazado 105199" d="M254.628,322.764a6.81,6.81,0,1,1-6.809-6.811A6.809,6.809,0,0,1,254.628,322.764Z" transform="translate(-241.008 -168.314)" fill="#ededed" style="mix-blend-mode: soft-light;isolation: isolate"/>
                  <path id="Trazado_105200" data-name="Trazado 105200" d="M309.654,289.463a6.809,6.809,0,1,1-6.81-6.81A6.809,6.809,0,0,1,309.654,289.463Z" transform="translate(-253.6 -160.694)" fill="#ededed" style="mix-blend-mode: soft-light;isolation: isolate"/>
                  <path id="Trazado_105201" data-name="Trazado 105201" d="M273.2,280.174a6.81,6.81,0,1,1-6.81-6.81A6.81,6.81,0,0,1,273.2,280.174Z" transform="translate(-245.257 -158.568)" fill="#ededed" style="mix-blend-mode: soft-light;isolation: isolate"/>
                  <path id="Trazado_105202" data-name="Trazado 105202" d="M305.786,240.7a6.81,6.81,0,1,1-6.81-6.811A6.81,6.81,0,0,1,305.786,240.7Z" transform="translate(-252.714 -149.536)" fill="#ededed" style="mix-blend-mode: soft-light;isolation: isolate"/>
                  <path id="Trazado_105203" data-name="Trazado 105203" d="M341.325,313.934a6.81,6.81,0,1,1-6.81-6.81A6.81,6.81,0,0,1,341.325,313.934Z" transform="translate(-260.847 -166.293)" fill="#ededed" style="mix-blend-mode: soft-light;isolation: isolate"/>
                  <path id="Trazado_105204" data-name="Trazado 105204" d="M341.258,270.423a6.811,6.811,0,1,1-7.729-11.177C335.194,261.867,338.044,265.826,341.258,270.423Z" transform="translate(-261.417 -155.338)" fill="#ededed" style="mix-blend-mode: soft-light;isolation: isolate"/>
                  <path id="Trazado_105205" data-name="Trazado 105205" d="M496.306,169.955a6.81,6.81,0,1,1-6.809-6.809A6.809,6.809,0,0,1,496.306,169.955Z" transform="translate(-296.311 -133.347)" fill="#ededed" style="mix-blend-mode: soft-light;isolation: isolate"/>
                  <path id="Trazado_105206" data-name="Trazado 105206" d="M543.49,162.879a6.81,6.81,0,1,1-6.811-6.81A6.81,6.81,0,0,1,543.49,162.879Z" transform="translate(-307.108 -131.728)" fill="#ededed" style="mix-blend-mode: soft-light;isolation: isolate"/>
                  <path id="Trazado_105207" data-name="Trazado 105207" d="M521.04,131.315a6.81,6.81,0,1,1-6.81-6.81,6.908,6.908,0,0,1,.851.053,30.163,30.163,0,0,0,4.332,2.34A6.779,6.779,0,0,1,521.04,131.315Z" transform="translate(-301.971 -124.505)" fill="#ededed" style="mix-blend-mode: soft-light;isolation: isolate"/>
                </g>
              </g>
            </g>
            <path id="Trazado_105209" data-name="Trazado 105209" d="M420.03,294.569c1.233-6.254,6.007-18.222,4.076-28.741s3.35-1.255,6.964.366,52.98-11.5,57.235-19.506a11.806,11.806,0,0,1-3.824,3.385c-5.714,3.524-16.916,9.337-28.6,15.936C429.3,281.017,421.068,289.438,420.03,294.569Z" transform="translate(-281.973 -85.242)" fill="#881922" opacity="0.5" style="mix-blend-mode: multiply;isolation: isolate"/>
            <path id="Trazado_105210" data-name="Trazado 105210" d="M454.6,206.045c3.313-1.055,16.343-3.349,21.069,2.07s5,.29,3.059-2.009-3.927-8.24-3.628-10.191c-1.331,3.213-2.071,4.452-2.928,5.354C470.667,202,469.939,201.027,454.6,206.045Z" transform="translate(-289.884 -73.624)" fill="#881922" opacity="0.5" style="mix-blend-mode: multiply;isolation: isolate"/>
            <path id="Trazado_105211" data-name="Trazado 105211" d="M508.036,116.214c-1.182,1.722,6.6,8.065,17.582,11.541s16.895,3.958,17.481,2.675c0,0,.46,1-4.231,13.2,0,0,2.34-8.542-2.687-8.967-5.948-.5-19.282-3.884-26.754-12.773-1.674-1.991-2.951-1.169-5.378,3.427C506.307,119.164,506.944,117.126,508.036,116.214Z" transform="translate(-301.199 -55.386)" fill="#ea4613" opacity="0.5" style="mix-blend-mode: multiply;isolation: isolate"/>
            <path id="Trazado_105212" data-name="Trazado 105212" d="M314.471,294.718s-8.366,19.6-5.239,24.182,9.879,5.711,9.879,8.838-7.377-.708-6.96,2.419c.29,2.182,22.973,21.98,28,29.669,2.176,3.327-.7,11.928-.069,13.187L337.5,372.9c3.483-7.1,2.863-11.407-3.042-14.465-16.468-9.4-32.246-32.79-32.246-32.79a11.61,11.61,0,0,1,.283-4.87C306.382,310.353,314.471,294.718,314.471,294.718Z" transform="translate(-254.98 -96.233)" fill="#881922" opacity="0.5" style="mix-blend-mode: multiply;isolation: isolate"/>
            <path id="Trazado_105213" data-name="Trazado 105213" d="M412.533,324.193c-3.018,6.871-15.541,21.672-14.7,27.09s11.072,10.025,10.23,18.563C408.064,369.846,408.125,343.154,412.533,324.193Z" transform="translate(-276.885 -102.977)" fill="#881922" opacity="0.5" style="mix-blend-mode: multiply;isolation: isolate"/>
            <path id="Trazado_105214" data-name="Trazado 105214" d="M364.25,274.069c5.14,4.032,26.923,7.436,34.983-4.933s4.905-22.448,4.905-22.448l-37.5,21.514Z" transform="translate(-269.209 -85.242)" fill="#881922" opacity="0.5" style="mix-blend-mode: multiply;isolation: isolate"/>
            <path id="Trazado_105215" data-name="Trazado 105215" d="M241.271,347.609c.416,6.115,58.285,60.149,69.234,52.449,0,0-8.5,7.588-15.731,6.476-4.726-.557-38.346-27.434-48.913-44.291C239.742,352.891,241.061,348.908,241.271,347.609Z" transform="translate(-241.008 -108.336)" fill="#881922" opacity="0.5" style="mix-blend-mode: multiply;isolation: isolate"/>
            <path id="Trazado_105216" data-name="Trazado 105216" d="M392.565,123.58c2.715,12.2.6,14.274,6.435,24.424,4.446,7.734,13.857,23.669,4.722,35.092-3.08,3.852-8.57,6.821-8.936,12.259-.277,4.12,2.775,8.134,4.395,11.783,3.325,7.483,6.685,17.52,1.851,24.967a26.33,26.33,0,0,1-18.3,11.438c-8.566,1.07-18.4-1.016-22.236-9.731-4.177-9.482,2.2-16.877,8.548-22.984,2.861-2.754,6.383-5.105,6.795-9.45.423-4.462-1.967-7.618-4.181-11.3-10.292-17.121,16.731-28.472,17.169-43.017.2-6.656-2.866-9.539.26-15.578C389.085,131.484,392.561,123.569,392.565,123.58Z" transform="translate(-268.044 -57.071)" fill="#47286d"/>
            <path id="Trazado_105217" data-name="Trazado 105217" d="M369.749,203.128c9.8,5.613,17.154,8.209,17.206,12.16s-22.58,15.279-27.033,26.659l.022-.486s-1.108-5.488,4.2-13.182c2.941-4.261,7.156-7.519,8.341-12.865C373.13,212.5,369.905,207.488,369.749,203.128Z" transform="translate(-268.202 -75.274)" fill="#e2e2e2" style="mix-blend-mode: multiply;isolation: isolate"/>
            <path id="Trazado_105218" data-name="Trazado 105218" d="M371.186,322.157a4.064,4.064,0,1,1-4.056-4.325A4.2,4.2,0,0,1,371.186,322.157Z" transform="translate(-268.94 -101.522)" fill="#2993e2"/>
            <path id="Trazado_105219" data-name="Trazado 105219" d="M368.614,369.485a4.065,4.065,0,1,1-4.057-4.326A4.2,4.2,0,0,1,368.614,369.485Z" transform="translate(-268.351 -112.351)" fill="#2993e2"/>
            <path id="Trazado_105220" data-name="Trazado 105220" d="M365.054,324.871c0-.416.853.789,2.529.789,1.749,0,2.529-1.108,2.529-.789a2.592,2.592,0,0,1-5.058,0Z" transform="translate(-269.393 -103.112)" fill="#2993e2"/>
            <path id="Trazado_105221" data-name="Trazado 105221" d="M362.482,372.2c0-.416.854.79,2.529.79,1.748,0,2.529-1.11,2.529-.79a2.592,2.592,0,0,1-5.057,0Z" transform="translate(-268.805 -113.942)" fill="#2993e2"/>
            <path id="Trazado_105222" data-name="Trazado 105222" d="M365.054,324.871c0-.416.853.789,2.529.789,1.749,0,2.529-1.108,2.529-.789a2.592,2.592,0,0,1-5.058,0Z" transform="translate(-269.393 -103.112)" fill="#ededed" style="mix-blend-mode: soft-light;isolation: isolate"/>
            <path id="Trazado_105223" data-name="Trazado 105223" d="M362.482,372.2c0-.416.854.79,2.529.79,1.748,0,2.529-1.11,2.529-.79a2.592,2.592,0,0,1-5.057,0Z" transform="translate(-268.805 -113.942)" fill="#ededed" style="mix-blend-mode: soft-light;isolation: isolate"/>
          </g>
        </g>
      </g>
      <rect id="Rectángulo_5854" data-name="Rectángulo 5854" width="330.067" height="23.34" transform="translate(6.582 256.687)" fill="#0b3356" opacity="0.6" style="mix-blend-mode: multiply;isolation: isolate"/>
      <rect id="Rectángulo_5855" data-name="Rectángulo 5855" width="40.565" height="2.244" transform="translate(6.582 254.443)" fill="#ea4939"/>
      <rect id="Rectángulo_5856" data-name="Rectángulo 5856" width="276.073" height="2.244" transform="translate(57.884 254.443)" fill="#0b3356" opacity="0.4" style="mix-blend-mode: multiply;isolation: isolate"/>
      <rect id="Rectángulo_5857" data-name="Rectángulo 5857" width="10.119" height="2.244" transform="translate(47.766 254.443)" fill="#fff" opacity="0.5"/>
      <g id="Grupo_59504" data-name="Grupo 59504" transform="translate(316.674 262.523)">
        <path id="Trazado_105225" data-name="Trazado 105225" d="M575.866,365.2h-2.912v2.91" transform="translate(-572.954 -365.2)" fill="none" stroke="#fff" stroke-linejoin="round" stroke-width="3"/>
        <path id="Trazado_105226" data-name="Trazado 105226" d="M583.733,368.111V365.2h-2.911" transform="translate(-574.755 -365.2)" fill="none" stroke="#fff" stroke-linejoin="round" stroke-width="3"/>
        <path id="Trazado_105227" data-name="Trazado 105227" d="M580.82,375.988h2.912v-2.912" transform="translate(-574.754 -367.002)" fill="none" stroke="#fff" stroke-linejoin="round" stroke-width="3"/>
        <path id="Trazado_105228" data-name="Trazado 105228" d="M572.954,373.076v2.913h2.911" transform="translate(-572.954 -367.002)" fill="none" stroke="#fff" stroke-linejoin="round" stroke-width="3"/>
      </g>
      <rect id="Rectángulo_5858" data-name="Rectángulo 5858" width="7.932" height="5.909" transform="translate(301.713 265.6)" fill="none" stroke="#fff" stroke-linecap="round" stroke-linejoin="round" stroke-width="3"/>
      <path id="Trazado_105229" data-name="Trazado 105229" d="M162.314,81.35V321.343H502.853V81.35h-29.8l-.848,7.182h24.064V314.161H168.9V88.532H429.429l-.106-7.182Z" transform="translate(-162.314 -37.724)" fill="#0b3356"/>
      <g id="Grupo_59505" data-name="Grupo 59505" transform="translate(297.859 188.101)">
        <path id="Trazado_105230" data-name="Trazado 105230" d="M609.348,304.537c-3.186,4.258-43.048,14.4-48.911,13.752s-14.472-27.444-11.137-34.415,46.152-17.632,50.943-14.671S612.533,300.281,609.348,304.537Z" transform="translate(-548.556 -268.695)" fill="#fff"/>
        <path id="Trazado_105231" data-name="Trazado 105231" d="M592.6,295.761l-11.31-4.743a1.763,1.763,0,0,0-2.394,2.054l3.584,14.271a1.764,1.764,0,0,0,3.08.682l7.727-9.526A1.763,1.763,0,0,0,592.6,295.761Z" transform="translate(-555.487 -273.77)" fill="#31d9e7"/>
      </g>
      <path id="Trazado_105232" data-name="Trazado 105232" d="M294.564,176.716H276.328a8.2,8.2,0,0,0-8.177,8.178v8.272a8.2,8.2,0,0,0,8.177,8.177h13.613l2.593,3.356a1.171,1.171,0,0,0,1.99-.228l1.5-3.266a8.2,8.2,0,0,0,6.719-8.039v-8.272A8.2,8.2,0,0,0,294.564,176.716Zm-18.235,14.853a2.256,2.256,0,1,1,2.257-2.258A2.256,2.256,0,0,1,276.328,191.569Zm9.165,0a2.256,2.256,0,1,1,2.256-2.258A2.258,2.258,0,0,1,285.493,191.569Zm9.165,0a2.256,2.256,0,1,1,2.255-2.258A2.257,2.257,0,0,1,294.658,191.569Z" transform="translate(-198.871 -59.547)" fill="#bb83ff" opacity="0.38"/>
      <g id="Grupo_59508" data-name="Grupo 59508" transform="translate(224.179 215.752)">
        <g id="Grupo_59507" data-name="Grupo 59507">
          <g id="Grupo_59506" data-name="Grupo 59506">
            <path id="Trazado_105233" data-name="Trazado 105233" d="M457.519,322.067l.114.042,13.106,4.619,7.584-11.643.067-.1a6.751,6.751,0,1,0-11.313-7.369l-1.859,2.852-3.211-1.131a6.751,6.751,0,1,0-4.488,12.734Z" transform="translate(-453.013 -304.551)" fill="#f17781"/>
          </g>
        </g>
      </g>
      <g id="Grupo_59511" data-name="Grupo 59511" transform="translate(301.714 138.048)">
        <g id="Grupo_59510" data-name="Grupo 59510" transform="translate(0)">
          <g id="Grupo_59509" data-name="Grupo 59509">
            <path id="Trazado_105234" data-name="Trazado 105234" d="M554.307,210.919l.045.069,5.206,7.919,8.925-3.186.078-.027a4.6,4.6,0,0,0-3.1-8.673l-2.186.78L562,205.862a4.6,4.6,0,1,0-7.694,5.057Z" transform="translate(-553.554 -203.79)" fill="#fff"/>
          </g>
        </g>
      </g>
      <g id="Grupo_59514" data-name="Grupo 59514" transform="translate(39.048 86.979)">
        <g id="Grupo_59513" data-name="Grupo 59513">
          <g id="Grupo_59512" data-name="Grupo 59512">
            <path id="Trazado_105235" data-name="Trazado 105235" d="M216.013,149.492l.078.029,8.932,3.166,5.188-7.93.046-.069a4.6,4.6,0,0,0-7.707-5.04l-1.271,1.943-2.189-.775a4.6,4.6,0,1,0-3.077,8.677Z" transform="translate(-212.949 -137.567)" fill="#fff"/>
          </g>
        </g>
      </g>
    </g>
    <g id="Grupo_59518" data-name="Grupo 59518" transform="translate(114.48 140.945)">
      <path id="Trazado_105236" data-name="Trazado 105236" d="M233.34,428.724c0,10.337-23.7,18.717-52.933,18.717s-52.932-8.38-52.932-18.717,23.7-18.716,52.932-18.716S233.34,418.386,233.34,428.724Z" transform="translate(-127.475 -229.096)" fill="#69cdff" opacity="0.2"/>
      <g id="Grupo_59517" data-name="Grupo 59517" transform="translate(11.468)">
        <rect id="Rectángulo_5859" data-name="Rectángulo 5859" width="6.047" height="11.82" transform="translate(37.86 62.029)" fill="#123456"/>
        <g id="Grupo_59516" data-name="Grupo 59516">
          <path id="Trazado_105237" data-name="Trazado 105237" d="M197.569,175.415H181.485l-2.731,12.746H200.3Z" transform="translate(-150.677 -175.415)" fill="#0b3356"/>
          <rect id="Rectángulo_5860" data-name="Rectángulo 5860" width="10.171" height="5.615" rx="2" transform="translate(33.688 2.882)"/>
          <rect id="Rectángulo_5861" data-name="Rectángulo 5861" width="80.116" height="51.167" rx="5" transform="translate(0 9.4)" fill="#0b3356"/>
          <rect id="Rectángulo_5862" data-name="Rectángulo 5862" width="80.116" height="51.166" rx="5" transform="translate(0 11.501)" fill="#0a1d35"/>
          <rect id="Rectángulo_5863" data-name="Rectángulo 5863" width="44.615" height="32.27" rx="5" transform="translate(5.008 23.427)" fill="#0a1d35"/>
          <rect id="Rectángulo_5864" data-name="Rectángulo 5864" width="44.615" height="32.272" rx="5" transform="translate(5.008 25.268)" fill="#69cdff"/>
          <path id="Trazado_105238" data-name="Trazado 105238" d="M166.188,240.453h-4.552L171.8,208.181h4.551Z" transform="translate(-146.76 -182.912)" fill="#fff" style="mix-blend-mode: soft-light;isolation: isolate"/>
          <path id="Trazado_105239" data-name="Trazado 105239" d="M154.8,240.453h-.836l10.164-32.272h.836Z" transform="translate(-145.004 -182.912)" fill="#fff" style="mix-blend-mode: soft-light;isolation: isolate"/>
          <path id="Trazado_105240" data-name="Trazado 105240" d="M183.921,240.453H171.176l10.164-32.272h12.744Z" transform="translate(-148.943 -182.912)" fill="#fff" style="mix-blend-mode: soft-light;isolation: isolate"/>
          <rect id="Rectángulo_5865" data-name="Rectángulo 5865" width="5.657" height="3.122" rx="1.561" transform="translate(57.455 16.857)" fill="#e2e2e2"/>
          <rect id="Rectángulo_5866" data-name="Rectángulo 5866" width="5.657" height="3.122" rx="1.561" transform="translate(65.762 16.857)" fill="#e2e2e2"/>
          <rect id="Rectángulo_5867" data-name="Rectángulo 5867" width="5.657" height="3.123" rx="1.561" transform="translate(57.455 22.146)" fill="#e2e2e2"/>
          <rect id="Rectángulo_5868" data-name="Rectángulo 5868" width="5.657" height="3.123" rx="1.561" transform="translate(65.762 22.146)" fill="#e2e2e2"/>
          <rect id="Rectángulo_5869" data-name="Rectángulo 5869" width="5.657" height="3.122" rx="1.561" transform="translate(57.455 27.435)" fill="#e2e2e2"/>
          <rect id="Rectángulo_5870" data-name="Rectángulo 5870" width="5.657" height="3.122" rx="1.561" transform="translate(65.762 27.435)" fill="#e2e2e2"/>
          <path id="Trazado_105241" data-name="Trazado 105241" d="M231.629,232.32a8.877,8.877,0,1,1-8.876-8.878A8.877,8.877,0,0,1,231.629,232.32Z" transform="translate(-158.714 -186.405)" fill="#0a1d35"/>
          <path id="Trazado_105242" data-name="Trazado 105242" d="M230.576,232.764a7.38,7.38,0,1,1-7.379-7.38A7.38,7.38,0,0,1,230.576,232.764Z" transform="translate(-159.158 -186.849)" fill="#0b3356"/>
          <path id="Trazado_105243" data-name="Trazado 105243" d="M229.136,233.372a5.332,5.332,0,1,1-5.331-5.333A5.331,5.331,0,0,1,229.136,233.372Z" transform="translate(-159.766 -187.457)" fill="#0a1d35"/>
        </g>
        <rect id="Rectángulo_5871" data-name="Rectángulo 5871" width="20.54" height="2.474" transform="translate(30.613 72.612)" fill="#123456"/>
        <path id="Trazado_105244" data-name="Trazado 105244" d="M209.547,270.81a1.237,1.237,0,1,1-1.236-1.238A1.237,1.237,0,0,1,209.547,270.81Z" transform="translate(-157.157 -196.96)" fill="#123456"/>
        <path id="Trazado_105245" data-name="Trazado 105245" d="M183.192,270.81a1.237,1.237,0,1,1-1.238-1.238A1.238,1.238,0,0,1,183.192,270.81Z" transform="translate(-151.126 -196.96)" fill="#123456"/>
        <rect id="Rectángulo_5872" data-name="Rectángulo 5872" width="20.54" height="2.474" transform="translate(30.613 78.405)" fill="#123456"/>
        <path id="Trazado_105246" data-name="Trazado 105246" d="M209.547,278.321a1.237,1.237,0,1,1-1.236-1.237A1.237,1.237,0,0,1,209.547,278.321Z" transform="translate(-157.157 -198.679)" fill="#123456"/>
        <path id="Trazado_105247" data-name="Trazado 105247" d="M183.192,278.321a1.237,1.237,0,1,1-1.238-1.237A1.237,1.237,0,0,1,183.192,278.321Z" transform="translate(-151.126 -198.679)" fill="#123456"/>
        <rect id="Rectángulo_5873" data-name="Rectángulo 5873" width="19.089" height="5.792" transform="translate(31.339 73.849)" fill="#123456"/>
        <line id="Línea_180" data-name="Línea 180" x1="37.86" y2="118.933" transform="translate(0 79.641)" fill="none" stroke="#153556" stroke-linecap="round" stroke-miterlimit="10" stroke-width="5"/>
        <line id="Línea_181" data-name="Línea 181" x1="37.86" y1="118.933" transform="translate(45.109 79.641)" fill="none" stroke="#153556" stroke-linecap="round" stroke-miterlimit="10" stroke-width="5"/>
        <line id="Línea_182" data-name="Línea 182" y2="127.322" transform="translate(41.464 80.735)" fill="none" stroke="#153556" stroke-linecap="round" stroke-miterlimit="10" stroke-width="5"/>
      </g>
    </g>
  </g>
</svg>
