<svg xmlns="http://www.w3.org/2000/svg" width="77.667" height="82.753" viewBox="0 0 77.667 82.753">
  <g id="medios-de-comunicacion-social" transform="translate(-15.731)">
    <path id="Trazado_102853" data-name="Trazado 102853" d="M84.309,0H80.751a1.213,1.213,0,0,0,0,2.425h3.558a6.659,6.659,0,0,1,6.664,6.64V37.122a6.659,6.659,0,0,1-6.664,6.64H80.274a1.213,1.213,0,0,0-.737.249l-7.4,5.664v-4.7a1.212,1.212,0,0,0-1.212-1.212H56.165a6.63,6.63,0,0,1-3.394-.925V29.227a7.4,7.4,0,0,0-3.27-6.134V9.064a6.659,6.659,0,0,1,6.664-6.64H73.154a1.213,1.213,0,0,0,0-2.425H56.165a9.087,9.087,0,0,0-9.089,9.064V22.027a7.433,7.433,0,0,0-1.729-.2H23.154a7.422,7.422,0,0,0-7.423,7.4v2.618a1.213,1.213,0,0,0,2.425,0V29.227a5,5,0,0,1,5-4.98H45.348a5,5,0,0,1,5,4.98V43.319a1.213,1.213,0,0,0,0,.321v7.713c0,.152-.009.3-.023.455h-2.5a5.624,5.624,0,0,0-5.528,4.6,1.215,1.215,0,0,0-.314.175l-5.423,4.187V57.545a1.212,1.212,0,0,0-1.212-1.212H23.154a5,5,0,0,1-5-4.98V39.119a1.213,1.213,0,0,0-2.425,0V51.353a7.422,7.422,0,0,0,7.423,7.4h10.98V63.24a1.231,1.231,0,0,0,1.953.96L42.2,59.477V73.117a5.62,5.62,0,0,0,5.62,5.606h7.44v2.829a1.231,1.231,0,0,0,1.953.96l4.907-3.789h1.45a5.62,5.62,0,0,0,5.62-5.606V70.964a1.213,1.213,0,0,0-2.425,0v2.153a3.192,3.192,0,0,1-3.2,3.182H61.71a1.212,1.212,0,0,0-.741.253l-3.281,2.533V77.511A1.212,1.212,0,0,0,56.476,76.3H47.824a3.192,3.192,0,0,1-3.2-3.182v-15.7a3.192,3.192,0,0,1,3.2-3.182h15.75a3.192,3.192,0,0,1,3.2,3.182v5.952a1.213,1.213,0,0,0,2.425,0V57.415a5.62,5.62,0,0,0-5.62-5.606H52.758c.009-.151.014-6.275.014-6.275a9.074,9.074,0,0,0,3.394.653H69.708v5.942a1.231,1.231,0,0,0,1.949.963l9.027-6.905H84.31A9.087,9.087,0,0,0,93.4,37.122V9.064A9.087,9.087,0,0,0,84.309,0Z" fill="#47286d"/>
    <path id="Trazado_102854" data-name="Trazado 102854" d="M283.6,54.672a2.527,2.527,0,0,0-3.108,2.414,7.123,7.123,0,0,1-1.783,4.715l-3.34,3.78a1.21,1.21,0,0,0-1.016-.552h-6.521a1.212,1.212,0,0,0-1.212,1.212V80.914a1.212,1.212,0,0,0,1.212,1.212h6.521a1.212,1.212,0,0,0,1.1-.709,8.471,8.471,0,0,0,4.407,1.243h11.524a3.173,3.173,0,0,0,3.131-3.285c-.037-.778,0-11.223,0-11.454a3.138,3.138,0,0,0-3.131-3.135l-5.993-.018.248-.588a9.466,9.466,0,0,0-.5-8.33,2.471,2.471,0,0,0-1.547-1.178h0ZM273.14,79.7h-4.1V67.454h4.1Zm18.245-12.491a.711.711,0,0,1,.71.71c0,.231,0,.857-.006,1.706-.018,4.687-.03,9.125,0,9.863a.71.71,0,0,1-.709.746H279.861a6.036,6.036,0,0,1-3.786-1.34l-.51-.413V69.02l4.961-5.614a9.546,9.546,0,0,0,2.39-6.32.068.068,0,0,1,.125-.033,7.027,7.027,0,0,1,.37,6.184l-.957,2.266a1.212,1.212,0,0,0,1.113,1.684Z" transform="translate(-210.332 -45.715)" fill="#47286d"/>
    <path id="Trazado_102855" data-name="Trazado 102855" d="M73.663,204.329a1.212,1.212,0,0,0,0,2.425h3.574l-.668,4.038a1.212,1.212,0,1,0,2.392.4l.733-4.433h2.925l-.668,4.038a1.212,1.212,0,1,0,2.392.4l.733-4.433h4.865a1.212,1.212,0,0,0,0-2.425H85.478l.489-2.958h3.975a1.212,1.212,0,0,0,0-2.425H86.368l.668-4.038a1.212,1.212,0,1,0-2.392-.4l-.733,4.433H80.985l.668-4.038a1.212,1.212,0,0,0-2.392-.4l-.733,4.433H73.663a1.212,1.212,0,1,0,0,2.425h4.464l-.489,2.958Zm6.921-2.958h2.925l-.489,2.958H80.1Z" transform="translate(-47.551 -162.22)" fill="#47286d"/>
    <path id="Trazado_102856" data-name="Trazado 102856" d="M226.838,369.384a4.077,4.077,0,0,0-3.588-.806,4.51,4.51,0,0,0-3.364,4.551,5.952,5.952,0,0,0,1.791,4.261,17.785,17.785,0,0,0,4.607,3.178,1.212,1.212,0,0,0,1.136,0c3.84-2.036,6.4-4.08,6.4-7.438a4.481,4.481,0,0,0-3.483-4.527,4.066,4.066,0,0,0-3.5.782Zm4.556,3.745c0,1.811-1.2,3.151-4.541,4.989-3.34-1.839-4.541-3.178-4.541-4.989a2.074,2.074,0,0,1,1.511-2.2,1.818,1.818,0,0,1,.427-.051,1.673,1.673,0,0,1,1.526.976,1.212,1.212,0,0,0,2.176-.043,1.576,1.576,0,0,1,1.859-.846A2.05,2.05,0,0,1,231.394,373.129Z" transform="translate(-171.154 -308.896)" fill="#47286d"/>
  </g>
</svg>
