<svg xmlns="http://www.w3.org/2000/svg" xmlns:xlink="http://www.w3.org/1999/xlink" width="327.156" height="369.054" viewBox="0 0 327.156 369.054">
  <defs>
    <linearGradient id="linear-gradient" x1="0.5" y1="1" x2="0.5" gradientUnits="objectBoundingBox">
      <stop offset="0" stop-color="#ffac81"/>
      <stop offset="1" stop-color="#de6673"/>
    </linearGradient>
    <linearGradient id="linear-gradient-2" x1="0.5" y1="1" x2="0.5" gradientUnits="objectBoundingBox">
      <stop offset="0" stop-color="#dd899f"/>
      <stop offset="0.994" stop-color="#d360ae"/>
    </linearGradient>
    <linearGradient id="linear-gradient-12" x1="0.5" y1="1" x2="0.5" gradientUnits="objectBoundingBox">
      <stop offset="0.006" stop-color="#281742"/>
      <stop offset="1" stop-color="#322d45"/>
    </linearGradient>
    <linearGradient id="linear-gradient-13" x1="0.5" y1="1" x2="0.5" y2="0" xlink:href="#linear-gradient-12"/>
    <radialGradient id="radial-gradient" cx="0.5" cy="0.5" r="4.178" gradientTransform="translate(0.458) scale(0.085 1)" gradientUnits="objectBoundingBox">
      <stop offset="0" stop-color="#ffbde3"/>
      <stop offset="1" stop-color="#9d86e8"/>
    </radialGradient>
    <radialGradient id="radial-gradient-2" cx="0.5" cy="0.5" r="0.415" gradientTransform="translate(-0.315) scale(1.631 1)" gradientUnits="objectBoundingBox">
      <stop offset="0" stop-color="#c245ff"/>
      <stop offset="0.964" stop-color="#6e37b3"/>
    </radialGradient>
    <linearGradient id="linear-gradient-14" x1="0.5" y1="1" x2="0.5" gradientUnits="objectBoundingBox">
      <stop offset="0.006" stop-color="#1a082c"/>
      <stop offset="1" stop-color="#17113c"/>
    </linearGradient>
    <linearGradient id="linear-gradient-15" x1="0.5" y1="1" x2="0.5" gradientUnits="objectBoundingBox">
      <stop offset="0" stop-color="#fffcfd"/>
      <stop offset="1" stop-color="#d8aeff"/>
    </linearGradient>
    <linearGradient id="linear-gradient-16" x1="0.5" y1="1" x2="0.5" gradientUnits="objectBoundingBox">
      <stop offset="0.006" stop-color="#514365"/>
      <stop offset="1" stop-color="#49455a"/>
    </linearGradient>
    <linearGradient id="linear-gradient-17" x1="0.5" y1="1" x2="0.5" gradientUnits="objectBoundingBox">
      <stop offset="0.006" stop-color="#90609a"/>
      <stop offset="1" stop-color="#9783c0"/>
    </linearGradient>
    <linearGradient id="linear-gradient-18" x1="0.5" y1="1" x2="0.5" gradientUnits="objectBoundingBox">
      <stop offset="0" stop-color="#3b5793"/>
      <stop offset="0.859"/>
    </linearGradient>
    <linearGradient id="linear-gradient-19" x1="0.5" y1="1" x2="0.5" gradientUnits="objectBoundingBox">
      <stop offset="0.141"/>
      <stop offset="1" stop-color="#8957b9"/>
    </linearGradient>
    <linearGradient id="linear-gradient-20" x1="0.5" y1="1" x2="0.5" gradientUnits="objectBoundingBox">
      <stop offset="0" stop-color="#ffae7f"/>
      <stop offset="1" stop-color="#ff9d84"/>
    </linearGradient>
    <linearGradient id="linear-gradient-21" x1="0.5" y1="1" x2="0.5" gradientUnits="objectBoundingBox">
      <stop offset="0" stop-color="#ffae7f"/>
      <stop offset="1" stop-color="#ffb384"/>
    </linearGradient>
    <linearGradient id="linear-gradient-22" x1="0.5" y1="1" x2="0.5" gradientUnits="objectBoundingBox">
      <stop offset="0" stop-color="#7e27ba"/>
      <stop offset="1" stop-color="#89569c"/>
    </linearGradient>
    <linearGradient id="linear-gradient-23" x1="0.5" y1="1" x2="0.5" gradientUnits="objectBoundingBox">
      <stop offset="0" stop-color="#ff89ab"/>
      <stop offset="0.994" stop-color="#ea609a"/>
    </linearGradient>
    <linearGradient id="linear-gradient-27" y1="0.5" x2="1" y2="0.5" gradientUnits="objectBoundingBox">
      <stop offset="0.006" stop-color="#b060f4"/>
      <stop offset="1" stop-color="#ffb9cd"/>
    </linearGradient>
    <linearGradient id="linear-gradient-31" x1="0.5" y1="0.013" x2="0.5" y2="0.934" gradientUnits="objectBoundingBox">
      <stop offset="0"/>
      <stop offset="1" stop-color="#5468a4"/>
    </linearGradient>
  </defs>
  <g id="Grupo_59606" data-name="Grupo 59606" transform="translate(530.739 -2326.617)">
    <g id="Grupo_59605" data-name="Grupo 59605" transform="translate(-530.739 2326.617)">
      <g id="Grupo_59586" data-name="Grupo 59586" transform="translate(226.412 58.15)">
        <path id="Trazado_105371" data-name="Trazado 105371" d="M-177.06,2702.483h-52.318c-.994-15.6-3.619-24.449-3.619-24.449s-15.141-1.5-17.862-3.182c-8.9-5.56-16.17-18.784-19.789-28.578a45.029,45.029,0,0,1-2.284-7.865c-1.514-8.612,8.99-27.549,8.99-46.026s-7.5-46.262-7.5-46.262l5.986-7.275a139.712,139.712,0,0,1-5.725-18.051,309.51,309.51,0,0,1-6.624-36.113l10.315-4.625,7.275-3.253,16.572,50.674,1.951-2.4c1.124-15.709-4.495-57.724-4.495-57.724s-3.253-.592-7.57-6.825c-1.218-1.751-2.958-6.056-4.8-11.628-4.684-14.277-9.924-36.693-8.1-44.783,2.52-11.226,15.424-12.538,15.424-12.538,5.619,19.469,22.83,50.9,24.7,57.439a118.88,118.88,0,0,1,2.815,12.349c1.679,13.757,15.992,50.52,17.672,56.387s6.091,39.969,8.328,58.67,10.479,51.644,13.473,69.588C-182.561,2656.127-179.449,2681.948-177.06,2702.483Z" transform="translate(277.805 -2391.579)" fill-rule="evenodd" fill="url(#linear-gradient)"/>
        <path id="Trazado_105372" data-name="Trazado 105372" d="M-235.649,2562.817c2.985,12.472,13.428,33.516,13.428,33.516l-10.848,9.819-5.454,2.813v62.492a48.854,48.854,0,0,1-31.891-18.466c-.269-.336-.528-.685-.786-1.044-7.364-10.069-4.052-72.09.258-124.447,1.224-14.818,2.514-28.85,3.682-40.727l7.286-3.256,16.558,50.673,1.964-2.4c1.123-15.716-4.49-57.722-4.49-57.722s-3.256-.6-7.577-6.825c-1.212-1.752-2.952-6.062-4.793-11.63,4.816,3.367,13.243,9.141,14.8,9.31,2.526.28,7.109-4.135,7.109-4.135l-3.648,7.577s14.4,33.362,14.5,56.1h12.124s-14.841,3.975-21.014,9.722C-234.437,2534.192-238.647,2550.345-235.649,2562.817Z" transform="translate(277.568 -2398.293)" fill-rule="evenodd" opacity="0.3" fill="url(#linear-gradient-2)" style="mix-blend-mode: multiply;isolation: isolate"/>
        <path id="Trazado_105373" data-name="Trazado 105373" d="M-255.417,2566.607s19.273,6.6,23.481,17.1,10.531,24.263,10.531,24.263l-13.057,9.078-33.3-18.9Z" transform="translate(276.752 -2409.932)" fill-rule="evenodd" opacity="0.3" fill="url(#linear-gradient-2)" style="mix-blend-mode: multiply;isolation: isolate"/>
        <path id="Trazado_105374" data-name="Trazado 105374" d="M-243.023,2474.674s5.8-9.912,9.541-13.28c0,0-10.29,5.051-14.218,10.29A19.937,19.937,0,0,0-243.023,2474.674Z" transform="translate(274.648 -2398.9)" fill="#cc5e6e" fill-rule="evenodd"/>
        <path id="Trazado_105375" data-name="Trazado 105375" d="M-270.691,2672.678l17.862.775-3.892-20.173Z" transform="translate(277.059 -2419.02)" fill-rule="evenodd" opacity="0.3" fill="url(#linear-gradient-2)" style="mix-blend-mode: multiply;isolation: isolate"/>
        <path id="Trazado_105376" data-name="Trazado 105376" d="M-228.62,2621.486a47.264,47.264,0,0,0,17.248-19.638s-13.564,15.729-21.749,17.594Z" transform="translate(273.12 -2413.627)" fill="#cc5e6e" fill-rule="evenodd"/>
        <path id="Trazado_105377" data-name="Trazado 105377" d="M-251.732,2548.164s30.389-13.125,40.807-15.628h-10.35s-8.56,7.46-17.681,7.32l-12.6,4.854Z" transform="translate(275.071 -2406.359)" fill="#cc5e6e" fill-rule="evenodd"/>
        <path id="Trazado_105378" data-name="Trazado 105378" d="M-226.331,2732.942c-2.378-18.1-3.5-22.907-3.5-22.907s-15.155-1.5-17.871-3.188c0,0,4.344,1.156,9.284-6.949,0,0,13.168,3.211,32.251-3.155Z" transform="translate(274.649 -2423.578)" fill-rule="evenodd" opacity="0.3" fill="url(#linear-gradient-2)" style="mix-blend-mode: multiply;isolation: isolate"/>
        <path id="Trazado_105379" data-name="Trazado 105379" d="M-228.252,2710.034s12.247-10.014,23.664-13.292c0,0-20.782,4.39-28.031,12.8Z" transform="translate(273.067 -2423.578)" fill="#cc5e6e" fill-rule="evenodd"/>
      </g>
      <g id="Grupo_59587" data-name="Grupo 59587" transform="translate(0 21.954)">
        <path id="Trazado_105380" data-name="Trazado 105380" d="M-336.619,2431.376c0,6.139-23.574,37.378-27.691,41.412-4.128,4.01-41.163,44.334-41.53,49.8s-3.939,12.775-3.939,12.775,2.176,17.755,3.619,34.386c.746,8.446,1.29,16.583,1.29,21.966a35.913,35.913,0,0,1-.225,4.589,29.513,29.513,0,0,1-3.513,9.5c.012.012,0,.012,0,.023-4.778,8.718-13.473,17.98-21.564,21.931,0,0-1.171,21.847-4.862,47.941-1.029,7.31-2.271,14.951-3.737,22.545h-63.911c6.388-20.558,14.478-48.758,19.008-72.593l-.023-.023c-.8-.639-19.47-15.543-33.617-35.475-5.678-8.031-10.646-16.855-13.414-25.88,0,0-.651-8.695,7.949-18.051,0,0,6.931-23.48,9.735-43.979s2.236-23.267,3.371-28.045c1.112-4.791,6.175-14.289,9.534-22.865s11.225-36.078,12.207-40.289,29.051-58.943,31.571-59.782,9.818,2.8,10.953,10.385c.662,4.542-1.786,21.682-6.541,36.231v.012c-3.158,9.7-7.334,18.264-12.266,21.209,0,0-6.458,20.617-8.15,33.5s-1.951,23.906-1.951,23.906h5.334s20.475-51.041,29.465-70.464,20.2-46.072,22.723-47.48,10.669,2.52,12.076,8.422-6.174,47.291-15.72,53.111l-17.034,50.816c1.715-4.021,29.288-68.725,32.907-76.933,3.774-8.47,7.973-20.262,9.38-20.546s9.262,1.419,10.669,9.829-6.174,41.885-14.6,48.58L-409.5,2479.8l.284,7.1h5.607l28.436-28.293s2.625-8.446,5.619-12.149,18.7-23.728,22.084-24.757C-344.107,2420.671-336.619,2425.249-336.619,2431.376Z" transform="translate(530.739 -2351.143)" fill-rule="evenodd" fill="url(#linear-gradient)"/>
        <path id="Trazado_105381" data-name="Trazado 105381" d="M-455.045,2647.879s6.623-4.075,19.252-2.475,15.435,9.907,15.435,9.907S-429.115,2643.984-455.045,2647.879Z" transform="translate(522.802 -2381.959)" fill-rule="evenodd" opacity="0.3" fill="url(#linear-gradient-2)" style="mix-blend-mode: multiply;isolation: isolate"/>
        <path id="Trazado_105382" data-name="Trazado 105382" d="M-407.028,2633.745a.084.084,0,0,1-.012.033c.012.011,0,.011,0,.022-4.782,8.722-13.471,18-21.564,21.936,0,0-1.179,21.856-4.861,47.944-6.074-19.2-20.689-52.5-48.641-50.043l-.022-.022c-.819-.584-22.709-16.334-33.621-35.473a.49.49,0,0,1-.055-.112c.55.28,18.152,9.362,28.827,10.586,10.855,1.246,34.148-4.153,49.583-3.7a42.371,42.371,0,0,1,25.629,9.99Z" transform="translate(529.173 -2379.127)" fill-rule="evenodd" opacity="0.3" fill="url(#linear-gradient-2)" style="mix-blend-mode: multiply;isolation: isolate"/>
        <path id="Trazado_105383" data-name="Trazado 105383" d="M-502.825,2488.911s15.716,11.569,64.36,10.01l-23.761-6.866-3.836-1.1h-5.331S-482.245,2493.916-502.825,2488.911Z" transform="translate(527.812 -2365.589)" fill="#cc5e6e" fill-rule="evenodd"/>
        <path id="Trazado_105384" data-name="Trazado 105384" d="M-333.2,2432.217c0,6.129-23.574,37.37-27.694,41.4-2.671,2.6-19.24,20.532-30.623,34.271v.012c-6.152,7.409-10.788,13.605-10.912,15.525-.371,5.477-3.929,12.775-3.929,12.775s2.11,17.276,3.558,33.7c.022.224.034.46.056.685v.011c-39.222-5.074-61.145-27.547-61.145-27.547l-3.75,10.552-.393-11.518-3.435-22.249.841-8.442,2.986-29.917c-7.6-2.772-30.489-3.03-30.489-3.03l6.1-1.132s11.02-12.388,13.235-23a204.409,204.409,0,0,0,3.957-42.019,56.033,56.033,0,0,0,13,3.041c5.893-2.245,13.051-16.135,13.3-16.607-3.165,9.7-7.33,18.253-12.27,21.205,0,0-6.455,20.611-8.139,33.5s-1.964,23.911-1.964,23.911h5.331s20.487-51.043,29.467-70.463,20.206-46.082,22.732-47.485,10.665,2.525,12.067,8.419-6.174,47.294-15.716,53.12l-17.04,50.807c1.717-4.019,29.287-68.724,32.924-76.929,3.76-8.475,7.97-20.261,9.374-20.543s9.261,1.4,10.664,9.823-6.174,41.883-14.593,48.585l-10.385,47.955.281,7.106h5.613l28.434-28.3s2.627-8.441,5.613-12.145,18.713-23.72,22.081-24.753S-333.2,2426.087-333.2,2432.217Z" transform="translate(527.318 -2351.978)" fill-rule="evenodd" opacity="0.3" fill="url(#linear-gradient-2)" style="mix-blend-mode: multiply;isolation: isolate"/>
        <path id="Trazado_105385" data-name="Trazado 105385" d="M-521.849,2560.887c6.4-20.792,18.615-52.2,20.47-69.867,0,0,22.4,2.535,31.257,4.286l0,40.744Z" transform="translate(529.806 -2365.81)" fill-rule="evenodd" opacity="0.3" fill="url(#linear-gradient-2)" style="mix-blend-mode: multiply;isolation: isolate"/>
        <path id="Trazado_105386" data-name="Trazado 105386" d="M-464.575,2562.563s16.564,7.5,25,21.77c7.686,12.992,9.168,29.9,9.168,29.9s.324-18.7-9.473-36.161a56.158,56.158,0,0,0-25.326-23.633Z" transform="translate(523.867 -2372.459)" fill="#cc5e6e" fill-rule="evenodd"/>
        <path id="Trazado_105387" data-name="Trazado 105387" d="M-388.389,2524.977v.012c-6.152,7.409-10.788,13.605-10.912,15.525-.371,5.477-3.929,12.775-3.929,12.775s2.11,17.276,3.558,33.7c.022.224.034.46.056.685v.011c-39.222-5.074-61.145-27.547-61.145-27.547l-3.75,10.552-.393-11.518-3.435-22.249.841-8.442,8.329-1.987S-418.508,2517.681-388.389,2524.977Z" transform="translate(524.195 -2369.067)" fill-rule="evenodd" opacity="0.3" fill="url(#linear-gradient-2)" style="mix-blend-mode: multiply;isolation: isolate"/>
        <path id="Trazado_105388" data-name="Trazado 105388" d="M-476.521,2415.41a40.111,40.111,0,0,0,17.989,10.429l3.33-2.935S-467.56,2421.288-476.521,2415.41Z" transform="translate(525.053 -2357.881)" fill="#cc5e6e" fill-rule="evenodd"/>
      </g>
      <g id="Grupo_59600" data-name="Grupo 59600" transform="translate(75.115)">
        <path id="Trazado_105389" data-name="Trazado 105389" d="M-245.8,2376.5a50.613,50.613,0,0,1,2.876,6.737c.517,2.072-.691,39.9-1.9,42.141a19.876,19.876,0,0,1-3.415,4.3Z" transform="translate(426.001 -2331.848)" fill-rule="evenodd" fill="url(#linear-gradient-12)"/>
        <path id="Trazado_105390" data-name="Trazado 105390" d="M-248.422,2447.79s2.245,4.667,2.245,6.221-.521,14.188-1.425,15.933a30.345,30.345,0,0,1-2.025,3.3Z" transform="translate(426.147 -2339.323)" fill-rule="evenodd" fill="url(#linear-gradient-13)"/>
        <path id="Trazado_105391" data-name="Trazado 105391" d="M-445.239,2341.989s3.418-9.909,11.621-12.06c17.429-4.567,150.566-3.439,155.793-2.292a19.551,19.551,0,0,1,13.562,12.87Z" transform="translate(446.659 -2326.617)" fill-rule="evenodd" fill="url(#radial-gradient)"/>
        <path id="Trazado_105392" data-name="Trazado 105392" d="M-446.815,2349.5s9.924,266.14,11.392,271.255,9.906,8.6,15.082,9.079,124.869,1.351,130.515,0,11.644-5.978,12.7-11.849,13.761-270.313,13.5-273.709-3-9.752-10.851-11.755c-5.6-1.428-153.126-.687-160.946,1.045C-441.955,2335.01-447.078,2342.487-446.815,2349.5Z" transform="translate(446.825 -2327.157)" fill-rule="evenodd" fill="url(#radial-gradient-2)"/>
        <path id="Trazado_105393" data-name="Trazado 105393" d="M-442.723,2353.02s9.563,259.814,10.978,264.808,9.545,8.4,14.534,8.863,119.664,1.318,125.1,0,11.221-5.835,12.241-11.568,13.261-263.888,13.006-267.2-3.446-9.635-10.455-11.476c-5.387-1.414-146.893-.67-154.429,1.02C-438.04,2338.877-442.976,2346.176-442.723,2353.02Z" transform="translate(446.396 -2327.57)" fill-rule="evenodd" fill="url(#linear-gradient-14)"/>
        <g id="Grupo_59588" data-name="Grupo 59588" transform="translate(5.439 21.851)">
          <path id="Trazado_105394" data-name="Trazado 105394" d="M-268.421,2358.185c-.072,11.261-12.527,246.84-13.366,252.589-.58,3.028-1.621,5.879-7.465,6.837a.968.968,0,0,1-.2.036c-.272.047-.556.082-.852.118-1.325.154-9.415.556-58.1.568H-361.6c-38.751-.012-54.483-.035-58.966,0a.515.515,0,0,0-.19,0h-.65c-6.435.106-7.358-3.667-8.15-5.406-1.218-9-7.346-154.187-11.19-250.425-.177-4.27,3.336-9.049,7.216-9.865,7.157-1.5,32.671-1.608,98.272-1.608,40.111,0,57.251.319,60.066.627C-269.415,2352.944-269.274,2355.689-268.421,2358.185Z" transform="translate(440.748 -2351.028)" fill-rule="evenodd" fill="url(#linear-gradient-15)" style="mix-blend-mode: lighten;isolation: isolate"/>
        </g>
        <g id="Grupo_59589" data-name="Grupo 59589" transform="translate(91.368 10.451)">
          <path id="Trazado_105395" data-name="Trazado 105395" d="M-335.6,2342.869a4.577,4.577,0,0,1-4.577,4.577,4.577,4.577,0,0,1-4.577-4.577,4.577,4.577,0,0,1,4.577-4.576A4.577,4.577,0,0,1-335.6,2342.869Z" transform="translate(344.754 -2338.293)" fill-rule="evenodd" fill="url(#linear-gradient-16)"/>
          <path id="Trazado_105396" data-name="Trazado 105396" d="M-337.5,2343.121a2.425,2.425,0,0,1-2.425,2.425,2.425,2.425,0,0,1-2.425-2.425,2.425,2.425,0,0,1,2.425-2.424A2.425,2.425,0,0,1-337.5,2343.121Z" transform="translate(344.502 -2338.545)" fill-rule="evenodd" opacity="0.6" fill="url(#linear-gradient-17)" style="mix-blend-mode: multiply;isolation: isolate"/>
          <path id="Trazado_105397" data-name="Trazado 105397" d="M-337.147,2344.984a.916.916,0,0,1-.916.916.916.916,0,0,1-.917-.916.916.916,0,0,1,.917-.916A.916.916,0,0,1-337.147,2344.984Z" transform="translate(344.148 -2338.898)" fill="#a498d8" fill-rule="evenodd"/>
        </g>
        <path id="Trazado_105398" data-name="Trazado 105398" d="M-432.311,2580.977l74.756,71.2-58.086-.512s-9.621-.481-13.581-8.282Z" transform="translate(445.303 -2353.289)" fill-rule="evenodd" opacity="0.5" fill="url(#linear-gradient-18)" style="mix-blend-mode: screen;isolation: isolate"/>
        <g id="Grupo_59595" data-name="Grupo 59595" transform="translate(14.142 28.871)">
          <g id="Grupo_59590" data-name="Grupo 59590" transform="translate(0 3.684)">
            <rect id="Rectángulo_5901" data-name="Rectángulo 5901" width="10.198" height="1.344" fill="#b379c7"/>
            <rect id="Rectángulo_5902" data-name="Rectángulo 5902" width="10.198" height="1.344" transform="translate(0 4.857)" fill="#b379c7"/>
          </g>
          <path id="Trazado_105399" data-name="Trazado 105399" d="M-265.322,2358.87h-6.424l-3.213,5.564,3.213,5.564h6.424l3.213-5.564Zm-3.212,8.833a3.268,3.268,0,0,1-3.268-3.269,3.268,3.268,0,0,1,3.268-3.268,3.269,3.269,0,0,1,3.268,3.268A3.269,3.269,0,0,1-268.534,2367.7Z" transform="translate(414.661 -2358.87)" fill="#b379c7" fill-rule="evenodd"/>
          <g id="Grupo_59591" data-name="Grupo 59591" transform="translate(10.239 31.175)">
            <rect id="Rectángulo_5903" data-name="Rectángulo 5903" width="59.358" height="75.572" rx="6.958" fill="#fff"/>
            <rect id="Rectángulo_5904" data-name="Rectángulo 5904" width="30.607" height="6.476" transform="translate(14.026 54.75)" fill="#561165" opacity="0.5" style="mix-blend-mode: multiply;isolation: isolate"/>
            <rect id="Rectángulo_5905" data-name="Rectángulo 5905" width="30.607" height="1.92" transform="translate(14.026 64.656)" fill="#c17fa4" opacity="0.5" style="mix-blend-mode: multiply;isolation: isolate"/>
            <rect id="Rectángulo_5906" data-name="Rectángulo 5906" width="19.469" height="1.92" transform="translate(14.026 68.232)" fill="#c17fa4" opacity="0.5" style="mix-blend-mode: multiply;isolation: isolate"/>
          </g>
          <g id="Grupo_59592" data-name="Grupo 59592" transform="translate(83.444 31.175)">
            <rect id="Rectángulo_5907" data-name="Rectángulo 5907" width="59.358" height="75.572" rx="6.958" fill="#fff"/>
            <rect id="Rectángulo_5908" data-name="Rectángulo 5908" width="30.607" height="6.476" transform="translate(14.026 54.75)" fill="#561165" opacity="0.5" style="mix-blend-mode: multiply;isolation: isolate"/>
            <rect id="Rectángulo_5909" data-name="Rectángulo 5909" width="30.607" height="1.92" transform="translate(14.026 64.656)" fill="#c17fa4" opacity="0.5" style="mix-blend-mode: multiply;isolation: isolate"/>
            <rect id="Rectángulo_5910" data-name="Rectángulo 5910" width="19.469" height="1.92" transform="translate(14.026 68.232)" fill="#c17fa4" opacity="0.5" style="mix-blend-mode: multiply;isolation: isolate"/>
          </g>
          <g id="Grupo_59593" data-name="Grupo 59593" transform="translate(10.239 123.916)">
            <rect id="Rectángulo_5911" data-name="Rectángulo 5911" width="59.358" height="75.572" rx="6.958" fill="#fff"/>
            <rect id="Rectángulo_5912" data-name="Rectángulo 5912" width="30.607" height="6.476" transform="translate(14.026 54.75)" fill="#561165" opacity="0.5" style="mix-blend-mode: multiply;isolation: isolate"/>
            <rect id="Rectángulo_5913" data-name="Rectángulo 5913" width="30.607" height="1.92" transform="translate(14.026 64.656)" fill="#c17fa4" opacity="0.5" style="mix-blend-mode: multiply;isolation: isolate"/>
            <rect id="Rectángulo_5914" data-name="Rectángulo 5914" width="19.469" height="1.92" transform="translate(14.026 68.232)" fill="#c17fa4" opacity="0.5" style="mix-blend-mode: multiply;isolation: isolate"/>
          </g>
          <g id="Grupo_59594" data-name="Grupo 59594" transform="translate(83.444 123.916)">
            <rect id="Rectángulo_5915" data-name="Rectángulo 5915" width="59.358" height="75.572" rx="6.958" fill="#fff"/>
            <rect id="Rectángulo_5916" data-name="Rectángulo 5916" width="30.607" height="6.476" transform="translate(14.026 54.75)" fill="#561165" opacity="0.5" style="mix-blend-mode: multiply;isolation: isolate"/>
            <rect id="Rectángulo_5917" data-name="Rectángulo 5917" width="30.607" height="1.92" transform="translate(14.026 64.656)" fill="#c17fa4" opacity="0.5" style="mix-blend-mode: multiply;isolation: isolate"/>
            <rect id="Rectángulo_5918" data-name="Rectángulo 5918" width="19.469" height="1.92" transform="translate(14.026 68.232)" fill="#c17fa4" opacity="0.5" style="mix-blend-mode: multiply;isolation: isolate"/>
          </g>
        </g>
        <path id="Trazado_105400" data-name="Trazado 105400" d="M-379.709,2336.859l107.245,255.295,11.533-243.1s-1.217-9-10.455-11.475C-276.968,2336.081-379.709,2336.859-379.709,2336.859Z" transform="translate(439.787 -2327.67)" fill-rule="evenodd" opacity="0.5" fill="url(#linear-gradient-19)" style="mix-blend-mode: screen;isolation: isolate"/>
        <path id="Trazado_105401" data-name="Trazado 105401" d="M-356.461,2636.96l1.718-2.391,8.068,5.774,8.124-6,1.886,2.164-9.9,8.569Z" transform="translate(437.35 -2358.885)" fill="#b1a4ff" fill-rule="evenodd"/>
        <g id="Grupo_59596" data-name="Grupo 59596" transform="translate(36.997 64.53)" opacity="0.86">
          <path id="Trazado_105402" data-name="Trazado 105402" d="M-403.079,2416.7a4.907,4.907,0,0,1-.507-.884,4.032,4.032,0,0,1-.455-1.868c.317-1.427-.506-2.385-1.06-3.494a2.964,2.964,0,0,1-.007-2.937c.7-1.021,2.094-1.618,2.649-2.679a6.532,6.532,0,0,1,2.495-2.739c1.528-.9,3.137-1.665,4.721-2.47a5.611,5.611,0,0,1,3.223-.789c.782.092,1.623-.477,2.354.208.037.034.139.013.206,0,2.843-.578,5.45.336,8.093,1.191a7.556,7.556,0,0,1,3.626,2.483c1.675,2.031,3.206,4.166,3.5,6.843a36.1,36.1,0,0,0,1.319,5.722,9.584,9.584,0,0,1,0,3.206,13.268,13.268,0,0,1-1.11,4.242,24.312,24.312,0,0,0-1.076,4.493c-.1.479-.081.992-.229,1.453a5.027,5.027,0,0,1-.62,1.031l-.336-.124.605-5.728c-.923,0-1.131.192-1.112,1.07.046,2.155.119,4.309.121,6.464a2.655,2.655,0,0,1-.405,1.442c-.9,1.285-1.883,2.507-2.839,3.75-.049.064-.141.095-.333.054.116-.2.218-.418.351-.61.789-1.134,1.634-2.233,2.355-3.41a4.291,4.291,0,0,0,.474-1.709,10.4,10.4,0,0,0,0-2.037,9.838,9.838,0,0,0-.312-1.394,1.714,1.714,0,0,1-.089-.474c.067-.98.159-1.959.226-2.94.026-.371.2-.488.564-.553a3.989,3.989,0,0,0,3.239-3.852,14.26,14.26,0,0,1,.132-2.1c.243-1.383-.455-2.447-1.106-3.52-.3-.485-1.395-.457-1.813-.019-.211.219-.4.456-.605.684l-.605.688a1.825,1.825,0,0,1,.995-1.85,8.189,8.189,0,0,1,2.2-.185,1.782,1.782,0,0,0-2.466-.355,1.362,1.362,0,0,0-.149.148c-1.169,1.393-2.385,2.751-3.482,4.2-.439.577-.943.461-1.424.4-.234-.031-.487-.434-.6-.72a5.63,5.63,0,0,1-.371-1.495,3.789,3.789,0,0,0-1.364-2.591,6.9,6.9,0,0,0-.712-.676,3.063,3.063,0,0,1-1.419-3.342,4.387,4.387,0,0,0,.006-.756c-1.087-.522-2.11-1.019-3.141-1.5a.718.718,0,0,0-.521-.082,14.819,14.819,0,0,1-4.82,1.165,3.351,3.351,0,0,0-.879.424,6.074,6.074,0,0,1-1.122.559c-1.243.328-2.51.567-3.751.9a2.128,2.128,0,0,0-1.074.649,10.234,10.234,0,0,0-1.093,1.873c-.11.231.011.564-.013.847-.052.653-.143,1.3-.189,1.958-.03.42-.005.843-.005,1.472,1.213-.971,2.093-2.115,3.672-2.27a3.354,3.354,0,0,0-.129.682.758.758,0,0,0,.175.523,1.74,1.74,0,0,1,.573,1.485l-.183.093-.633-1.229-1.741,1.837,3.126,1.411-.328-.711.1-.162c.149.074.379.112.432.23a4.086,4.086,0,0,1,.516,3.158c-.286.84-.38,1.75-.712,2.566a1.964,1.964,0,0,0,.473,2.6l-.08.223a4.221,4.221,0,0,1-1.344-.03c-.451-.161-.579-.591-.354-1.106.5-1.15.957-2.322,1.348-3.523a5.5,5.5,0,0,0-2.275,3.924c-.056.544-.066.543-.674.494.146-1.951,1.3-3.4,2.471-4.975-1.05.25-1.856,1.1-3.017.56l.222.621c-.994.473-1.078,1.467-1.289,2.393a2.677,2.677,0,0,1-.073.482,1.566,1.566,0,0,1-.307.354c-.048-.136-.158-.284-.135-.406.165-.874.407-1.736.518-2.616a2.345,2.345,0,0,0-.248-1.219c-.277-.589-.683-1.116-.994-1.692a2.506,2.506,0,0,1,.356-3c.09-.107.17-.223.252-.336A.507.507,0,0,0-403.079,2416.7Zm4.517,2.68.053-.24c-.316-.149-.623-.318-.948-.443-1.838-.71-2.152-.594-3.235,1.063a1.1,1.1,0,0,0,.015,1.439C-401.424,2420.325-400.4,2418.951-398.562,2419.38Zm-2.722,2.421a3.076,3.076,0,0,0,2.729-.852c.276-.28.242-.491-.143-.6A2.183,2.183,0,0,0-401.284,2421.8Z" transform="translate(405.494 -2398.706)" fill="#3e1d6d"/>
          <path id="Trazado_105403" data-name="Trazado 105403" d="M-393.042,2437.584a2.933,2.933,0,0,1-2.927-1.382c-.594-.781-1.136-1.6-1.669-2.426-.449-.695-.4-1.109.362-1.459a21.434,21.434,0,0,1,3.286-1.172,22.957,22.957,0,0,1,3.1-.567,3.7,3.7,0,0,1,3.868,1.391,1.072,1.072,0,0,1,.159,1.174,24.649,24.649,0,0,1-1.229,2.428,3.36,3.36,0,0,1-2.442,1.486C-391.375,2437.182-392.206,2437.405-393.042,2437.584Zm-2.736-2.08c.473.689.907,1.517,1.867,1.551a7.83,7.83,0,0,0,4.507-1.017,3.957,3.957,0,0,0,1.67-1.907c-.575.366-.986.655-1.423.9C-391.277,2436.23-393.436,2436.87-395.779,2435.5Zm4.631-4.6-5.281,1.478C-395.644,2432.712-391.419,2431.511-391.148,2430.9Zm-1.537,1.93-.085-.118-.849.109c.073.341.033.85.242.991.6.4.4-.44.738-.6l.4.465.226-.031v-1.439Zm3.747-.15.154-.731-1.718.436.055.3Zm-1.653-.048-.452-.639a3.068,3.068,0,0,0-.517.746c-.034.1.28.318.436.482Zm-3.929.29c.068.444-.309,1,.363,1.4A.946.946,0,0,0-394.52,2432.926Z" transform="translate(404.7 -2402.042)" fill="#3e1d6d"/>
          <path id="Trazado_105404" data-name="Trazado 105404" d="M-387.275,2440.671a4.535,4.535,0,0,1-1.973,2.245,23.761,23.761,0,0,1-2.783,1.083l1.019,1.156c-.311.436-.49.276-.713-.013a3.491,3.491,0,0,0-2.334-1.367l1.916,3.845c-.294-.158-.526-.2-.607-.339-.569-.954-1.107-1.927-1.591-2.931-.367-.235-.588-.028-.773.374-.3.658-.649,1.3-1,1.929a3.745,3.745,0,0,1-.5.582l-.176-.118,1.988-3.833c-1.507-.692-1.583-2.081-1.787-3.341a4.077,4.077,0,0,0-1.014-2.215,28.153,28.153,0,0,1-4.441-6.206c-.266-.534-.458-1.1-.685-1.659l.26-.138c.235.51.448,1.033.713,1.528.3.556.625,1.1.971,1.626s.728,1.034,1.107,1.538c.366.487.745.964,1.13,1.436.4.49.817.964,1.218,1.453s.768.958,1.276,1.593a5.781,5.781,0,0,0-.482-1.309c-1.012-1.43-2.062-2.836-3.123-4.231a3.467,3.467,0,0,1-.22-3.157,1.081,1.081,0,0,1,.248-.206l.215.068a2.292,2.292,0,0,1-.187.87,1.189,1.189,0,0,0,.044,1.542,31.019,31.019,0,0,0,2.465,3.319,8.169,8.169,0,0,1,1.592,3.542l-.6.178a3.558,3.558,0,0,0,3.138,4.01,1.986,1.986,0,0,0,.758-.068A8.477,8.477,0,0,0-387.275,2440.671Z" transform="translate(405.204 -2401.959)" fill="#3e1d6d"/>
          <path id="Trazado_105405" data-name="Trazado 105405" d="M-386.131,2417.965l-.979-.29c-.4.845-.838.991-1.7.461a1.505,1.505,0,0,0-1.237-.214,5.76,5.76,0,0,1-3.343-.524,2.881,2.881,0,0,0-1.794-.34c-.4.1-.9-.227-1.376-.364a2.95,2.95,0,0,1,2.692-1.868.816.816,0,0,1,.4.076,11.837,11.837,0,0,0,4.137,1.234,6.933,6.933,0,0,1,1.65.634c.56.277,1.08.635,1.618.956Z" transform="translate(404.556 -2400.396)" fill="#3e1d6d"/>
          <path id="Trazado_105406" data-name="Trazado 105406" d="M-385.013,2438.56l.507-1.647-1.8,1.742-.185-.21a5.672,5.672,0,0,0,1.819-4.1,18.929,18.929,0,0,0,.009-2.877c-.022-.526-.165-1.045-.233-1.571a1.438,1.438,0,0,1,.069-.411c.118.074.311.126.342.228a4.28,4.28,0,0,1,.244,1.147c.025,1.75.011,3.5.011,5.327.354-1.344.63-2.673,1.057-3.95.464-1.39-.21-2.709.015-4.146.106.15.272.289.307.455a8.456,8.456,0,0,1-.053,4.768c-.543,1.491-.972,3.025-1.464,4.536a7.121,7.121,0,0,1-.37.8Z" transform="translate(403.501 -2401.788)" fill="#3e1d6d"/>
          <path id="Trazado_105407" data-name="Trazado 105407" d="M-386.334,2418.766l-.878,1,1.566-.55.142.244c-.155.1-.306.206-.465.3-.194.115-.394.219-.591.327l.388.5a2.076,2.076,0,0,1-.48.185c-.508.061-1.018.091-1.593.138l.129-.8c-1.221.3-2.407.536-3.551.9a.772.772,0,0,1-1.106-.569c-.066-.247.237-.727.5-.894a2.889,2.889,0,0,1,1.187-.255,1.06,1.06,0,0,1,.538.138,3.306,3.306,0,0,0,3.684-.618,2.966,2.966,0,0,1,.391-.212Z" transform="translate(404.161 -2400.793)" fill="#3e1d6d"/>
          <path id="Trazado_105408" data-name="Trazado 105408" d="M-372.537,2434.6c.052.171.2.382.141.507a2.832,2.832,0,0,0,.241,2.233,26.147,26.147,0,0,0,1.7,3.68c.274.481.036.911.214,1.346a11.236,11.236,0,0,1,.871,2.511,16.294,16.294,0,0,1-.039,2.9c0,.05-.128.1-.376.269.053-.7.128-1.236.123-1.771a4,4,0,0,0-.187-1.138q-.837-2.675-1.724-5.334a3.568,3.568,0,0,0-.466-.709c-.163-.251-.423-.491-.459-.761-.164-1.215-.264-2.438-.388-3.658Z" transform="translate(402.075 -2402.47)" fill="#3e1d6d"/>
          <path id="Trazado_105409" data-name="Trazado 105409" d="M-390.355,2426.293c-.069-.344-.053-.619.438-.46,2.387.772,5,3.593,4.635,6.622-.013.1-.079.19-.3.3a6.585,6.585,0,0,1-.152-.782,6.081,6.081,0,0,0-3.707-5.355C-389.707,2426.491-390,2426.417-390.355,2426.293Z" transform="translate(403.909 -2401.546)" fill="#3e1d6d"/>
          <path id="Trazado_105410" data-name="Trazado 105410" d="M-392.9,2426.4a1.274,1.274,0,0,1,1.542,0,1.1,1.1,0,0,1,.4,1.432c-.288.494-.733,1.05-1.464.833a1.972,1.972,0,0,0-2.437.9l-.192-.127a2.029,2.029,0,0,1,.208-.645,1.984,1.984,0,0,1,2.232-.594.816.816,0,0,0,1.089-.458c.1-.229.209-.633.1-.738a1.78,1.78,0,0,0-.848-.314,3.159,3.159,0,0,0-.651-.009Z" transform="translate(404.398 -2401.583)" fill="#3e1d6d"/>
          <path id="Trazado_105411" data-name="Trazado 105411" d="M-370.131,2420.09a3.838,3.838,0,0,1-.021,1.046,2.09,2.09,0,0,1-.573.9c-.132.121-.457.032-.7.038a2.1,2.1,0,0,1,.069-.631,3.013,3.013,0,0,0,.308-2.095c-.047-.177.352-.472.545-.712.129.182.327.347.371.548a4.314,4.314,0,0,1,.016.907Z" transform="translate(401.921 -2400.796)" fill="#3e1d6d"/>
          <path id="Trazado_105412" data-name="Trazado 105412" d="M-398.334,2414.695l1.64-.227c-.006-.857.408-1.09,2.176-1.271.021.04.071.1.059.115a5.017,5.017,0,0,1-3.574,1.912c-.146.013-.312-.232-.468-.356Z" transform="translate(404.76 -2400.226)" fill="#3e1d6d"/>
          <path id="Trazado_105413" data-name="Trazado 105413" d="M-374.679,2420.8c.923.152,1.231.857,1,2.2.471.079.724-.927,1.38-.241-.471.356-.893.715-1.361,1-.108.065-.393-.083-.548-.2-.072-.053-.064-.277-.026-.4a2.127,2.127,0,0,0-.392-2.1C-374.673,2421-374.661,2420.9-374.679,2420.8Z" transform="translate(402.262 -2401.023)" fill="#3e1d6d"/>
          <path id="Trazado_105414" data-name="Trazado 105414" d="M-388.461,2421.67a4.181,4.181,0,0,1-1.077.718,9.523,9.523,0,0,1-2.059.293c-.24.012-.5-.2-.733-.337-.049-.03-.046-.207-.012-.293a.245.245,0,0,1,.229-.071c1.171.737,2.141-.049,3.168-.4l.321-.112Z" transform="translate(404.117 -2401.093)" fill="#3e1d6d"/>
          <path id="Trazado_105415" data-name="Trazado 105415" d="M-401.838,2416.162c.143-.262.22-.623.44-.769a22,22,0,0,1,2.061-1.157c.1-.052.276.042.416.069-.073.116-.118.275-.223.34-.846.524-1.7,1.031-2.557,1.543Z" transform="translate(405.11 -2400.333)" fill="#3e1d6d"/>
          <path id="Trazado_105416" data-name="Trazado 105416" d="M-372.717,2419.2c-.624-.067-.955.127-1.079.689-.038.175-.325.3-.5.442l-.2-.142a13.9,13.9,0,0,1,.625-1.5C-373.616,2418.223-373.112,2418.42-372.717,2419.2Z" transform="translate(402.243 -2400.776)" fill="#3e1d6d"/>
          <path id="Trazado_105417" data-name="Trazado 105417" d="M-397.273,2415.891l.271,2.657c-.693-.222-.619-.8-.683-1.3A1.333,1.333,0,0,1-397.273,2415.891Z" transform="translate(404.678 -2400.508)" fill="#3e1d6d"/>
          <path id="Trazado_105418" data-name="Trazado 105418" d="M-394.886,2421.746c-.082-.152-.2-.27-.2-.388a7.526,7.526,0,0,1,.081-.847c.1.058.3.138.287.171C-394.793,2421.019-394.253,2421.463-394.886,2421.746Z" transform="translate(404.402 -2400.993)" fill="#3e1d6d"/>
        </g>
        <g id="Grupo_59597" data-name="Grupo 59597" transform="translate(103.881 67.6)" opacity="0.86">
          <path id="Trazado_105419" data-name="Trazado 105419" d="M-295.556,2429.681a7.166,7.166,0,0,1,.7.713c.237.314.423.678.63,1.02.021.036.038.075.057.112.29.531.549.594.995.236.124-.1.239-.211.354-.323a.973.973,0,0,0,.266-.792,2.556,2.556,0,0,1,.06-.716,3.56,3.56,0,0,0-.09-1.741c-.123-.5-.226-1-.363-1.489a.453.453,0,0,0-.255-.252c-1.253-.481-2.507-.961-3.769-1.414-.574-.207-1.165-.353-1.748-.525l-.026.072a.777.777,0,0,0,.079.1q.792.737,1.586,1.47c.256.237.266.365.039.628s-.432.5-.643.761c-.047.059-.115.18-.1.209a.482.482,0,0,0,.218.178c.147.059.309.073.454.138.277.123.337.312.2.616-.056.124-.126.24-.19.361l-.062-.027c.024-.092.046-.187.075-.278.1-.33.055-.458-.237-.572-.16-.062-.33-.094-.487-.165-.079-.036-.183-.117-.2-.194a.409.409,0,0,1,.119-.264c.176-.2.371-.37.548-.564a1.544,1.544,0,0,0,.218-.322.284.284,0,0,0-.064-.368,19.824,19.824,0,0,0-2.334-1.969,6.961,6.961,0,0,1-2.189-1.819,1.63,1.63,0,0,0-.3-.236,1.881,1.881,0,0,0,.226,1.173,1.655,1.655,0,0,1,.268.992c-.014,1.619-.005,3.239-.068,4.856-.088,2.293-.234,4.583-.347,6.875-.021.421-.013.844-.013,1.267,0,.161-.05.246-.207.225.006-3.633.45-7.243.375-10.887l-.443,1.26-.054-.02a7.221,7.221,0,0,0,.447-2.785,2.225,2.225,0,0,0-.152.3c-.321.914-.633,1.833-.958,2.744-.2.573-.434,1.133-.636,1.706a3.884,3.884,0,0,0-.167.7,13.548,13.548,0,0,1-1.025,2.934,35.562,35.562,0,0,0-1.4,3.954,10.227,10.227,0,0,1-1.348,2.976,2.64,2.64,0,0,0-.485,1.721.691.691,0,0,1-.1.333,1.366,1.366,0,0,1-.028-1.188c.254-.545.533-1.076.815-1.6.191-.354.2-.472-.06-.77a2.677,2.677,0,0,1-.44-.989c-.412-1.29-.834-2.574-1.25-3.863-.456-1.416-.889-2.842-1.37-4.247-.244-.714-.57-1.393-.867-2.084a1.733,1.733,0,0,0-.2-.291l-.064.042c.029.248.058.5.085.744a45.463,45.463,0,0,1,.187,6.551c-.073,1.926-.168,3.852-.252,5.778-.023.559-.038,1.117-.064,1.676a4.923,4.923,0,0,1-.083-1.385c.034-.9.064-1.8.106-2.694.04-.84.107-1.678.139-2.518.029-.761.051-1.525.035-2.285-.026-1.237-.047-2.477-.144-3.709-.095-1.215-.253-2.427-.433-3.63-.158-1.046-.384-2.08-.58-3.12a.866.866,0,0,0-.326-.553,1.262,1.262,0,0,0-.055.139,1.276,1.276,0,0,1-.567.775,5.329,5.329,0,0,1-.6.325,3.6,3.6,0,0,0-1.307,1.114c-.161.209-.136.325.094.4a4.875,4.875,0,0,0,.626.158c.2.04.245.118.142.316a2.362,2.362,0,0,1-.233.337c-.062.082-.138.151-.2.236a.432.432,0,0,0,.073.634,1.133,1.133,0,0,1,.426,1.127,5.879,5.879,0,0,1-.3,1.768.619.619,0,0,0-.028.232c.021,1.029.018,2.06.078,3.086.053.908.186,1.81.268,2.717.084.936.152,1.875.218,2.814.038.537.059,1.077.081,1.616a1.126,1.126,0,0,1-.052.259l-.068-.01c-.006-.074-.013-.149-.017-.224-.053-.89-.09-1.781-.16-2.669-.1-1.274-.24-2.543-.334-3.817-.078-1.045-.113-2.094-.166-3.142,0-.062-.008-.125-.014-.21a.607.607,0,0,0-.285.491c-.062.483-.1.97-.175,1.453a6.514,6.514,0,0,1-1.131,2.625,5.789,5.789,0,0,1-1.311,1.476c-.335.258-.288.46-.069.7a.7.7,0,0,1,.147.733q-.34.981-.708,1.95a1.159,1.159,0,0,0,.013,1.136,1.368,1.368,0,0,1,.109.336l-.081.04-.288-.628c-.039.056-.072.095-.1.139-.294.52-.589,1.039-.877,1.562-.081.148-.171.2-.338.083.182-.385.356-.778.55-1.159a3.469,3.469,0,0,0,.411-2.079,1.176,1.176,0,0,0-.763-1.046c-.461-.173-.916-.367-1.379-.533a6.608,6.608,0,0,1-2.322-1.458c-.165-.156-.337-.3-.508-.45a1.176,1.176,0,0,1-.4-.735,1.2,1.2,0,0,0-.3,1.2,5.777,5.777,0,0,0,.511,1.076c.51.831,1.07,1.622,1.566,2.463.467.792.879,1.627,1.31,2.446a1.115,1.115,0,0,1,.064.252l-.072.047a2.834,2.834,0,0,1-.185-.276c-.431-.811-.829-1.647-1.3-2.43-.6-1.005-1.253-1.966-1.88-2.949a2.1,2.1,0,0,1,.288-2.4.358.358,0,0,1,.19-.08c.242-.048.31-.171.231-.44a5.932,5.932,0,0,1-.217-.755,5.414,5.414,0,0,1-.061-.987,4.862,4.862,0,0,0-.169-1.42,11.815,11.815,0,0,1-.4-2.41,1.22,1.22,0,0,0-.678-1.03.9.9,0,0,0-1.063.537c-.553,1.122-1.092,2.251-1.631,3.382a1.773,1.773,0,0,0-.078.349c-.117.512-.206,1.037-.363,1.534a10.007,10.007,0,0,0-.454,1.93,1.647,1.647,0,0,0-.006.387,3.147,3.147,0,0,1-.368,1.773,3.843,3.843,0,0,0-.366,1.363,6.42,6.42,0,0,1-.3,1.3,7.62,7.62,0,0,0-.381,1.927c0,.172.015.345,0,.516,0,.064-.064.125-.1.186-.035-.063-.1-.129-.1-.192a8.519,8.519,0,0,1,.587-3.009,1.718,1.718,0,0,0,.141-.7,3.332,3.332,0,0,1,.355-1.437,3.415,3.415,0,0,0,.364-1.516,6.858,6.858,0,0,1,.611-2.992.675.675,0,0,0,.062-.246,5.2,5.2,0,0,1,.876-2.689,8.21,8.21,0,0,0,.72-1.51,2.761,2.761,0,0,1,.344-.612,1.049,1.049,0,0,1,.865-.457c.2-.008.233-.1.108-.267a6.366,6.366,0,0,1-.925-2.224q-.189-.687-.415-1.363a2.831,2.831,0,0,1-.11-1.146.636.636,0,0,1,.5-.555.464.464,0,0,1,.576.2,3.084,3.084,0,0,1,.582,1.632,1.946,1.946,0,0,0,1.156,1.773,4.794,4.794,0,0,1-.121-.712c-.014-.653,0-1.306,0-1.959,0-.755.027-1.51.009-2.265a1.2,1.2,0,0,1,.545-1.057c.291-.214.686-.042.858.354a3.12,3.12,0,0,1,.184,1.971,1.673,1.673,0,0,0-.007.459c.028.393.065.785.1,1.177.019.236.022.475.053.708a.8.8,0,0,0,.318.551c0-.37-.005-.69,0-1.01a14.172,14.172,0,0,1,.425-2.755,8.891,8.891,0,0,0,.237-1.851c0-.687.247-.872.826-.655a1.022,1.022,0,0,1,.678.94c.033.38.045.762.047,1.142a1.441,1.441,0,0,1-.073.549,1.474,1.474,0,0,0-.08.851,4.131,4.131,0,0,1-.049,1.392,2.208,2.208,0,0,0,.141,1.1,3.554,3.554,0,0,0,.4-1.516,6.009,6.009,0,0,1,.24-1.586c.046-.216.081-.435.114-.654.035-.239.1-.305.311-.318a.6.6,0,0,1,.609.387,3.217,3.217,0,0,1,.308,2.056,3.813,3.813,0,0,0,.005.857,2.363,2.363,0,0,1-.166,1.11.3.3,0,0,0,.028.233c.02.032.124.016.183-.006a9.069,9.069,0,0,1,2.759-.706,1.467,1.467,0,0,0,.866-.327,1.354,1.354,0,0,1,.457-.245,1.722,1.722,0,0,0,1.111-1.081,1.725,1.725,0,0,0,.127-.891c-.091-.848-.126-1.7-.208-2.555-.118-1.22-.27-2.437-.381-3.658a6.244,6.244,0,0,1,.025-1.206,2.307,2.307,0,0,0-.194-1.231,7.413,7.413,0,0,1-.539-2.626,8.164,8.164,0,0,1-.035-1.075,1.788,1.788,0,0,1,.209-.679,2.239,2.239,0,0,0,.286-1.142,1.486,1.486,0,0,1,.388-1.081,1.844,1.844,0,0,0,.362-.647,3.331,3.331,0,0,1,1.464-1.9c.771-.474,1.559-.913,2.35-1.343a1.7,1.7,0,0,1,.638-.159c.363-.036.73-.042,1.1-.048.182,0,.364.024.546.032.283.01.567.01.849.027a4.22,4.22,0,0,1,.9.094c.181.052.327.253.5.37a.564.564,0,0,0,.313.135.7.7,0,0,1,.764.382.218.218,0,0,0,.184.1,1.076,1.076,0,0,1,.986.377c.276.25.552.5.837.737a1.307,1.307,0,0,1,.451.722.418.418,0,0,0,.125.226,2.162,2.162,0,0,1,.749,1.136c.247.729.446,1.479.663,2.222a7.361,7.361,0,0,1,.338,2.24c-.007.286.056.571.069.858a1.147,1.147,0,0,1-.294.835.635.635,0,0,0-.1.325,5.174,5.174,0,0,1-.1,1.063,7.663,7.663,0,0,0-.311,1.671,8.181,8.181,0,0,1-.337,1.321c-.064.225-.144.444-.224.662a1.672,1.672,0,0,1-.44.757.742.742,0,0,0-.21.641.276.276,0,0,1-.155.305.968.968,0,0,0-.448.678c-.141.52-.305,1.031-.473,1.54-.057.173-.032.3.115.341a2.124,2.124,0,0,1,1.164,1.041,1.3,1.3,0,0,0,.934.667.219.219,0,0,1,.132.068,1.9,1.9,0,0,0,1.285.66,16,16,0,0,1,4,1.263c.515.212,1.034.408,1.576.621a1.633,1.633,0,0,0-.124-1.053,2.455,2.455,0,0,1-.187-1.806.725.725,0,0,1,.635-.56c.252-.057.413.116.517.342.164.354.314.716.457,1.081.274.7.534,1.41.809,2.11a9.892,9.892,0,0,0,.516,1.119l-.119-.883a2.71,2.71,0,0,1,.339,1.342c-.039.225-.4.444-.581.344a.218.218,0,0,1-.069-.154c0-.026.064-.064.1-.083s.063,0,.094,0c.234-.031.266-.117.155-.346-.144-.293-.281-.594-.408-.9-.38-.906-.76-1.812-1.054-2.761a5.021,5.021,0,0,0-.357-.733c-.093-.184-.211-.337-.422-.276s-.453.167-.488.446a5.207,5.207,0,0,0-.028,1.114c.045.482.167.572.638.584-.37.25-.317.6-.235.958.172.756.34,1.513.529,2.264a2.947,2.947,0,0,1,.008,1.61,1.59,1.59,0,0,0-.036.511c.007.206.155.194.282.191a8.867,8.867,0,0,1,.889-.021,6.415,6.415,0,0,1,.969.165.975.975,0,0,1,.627.526,1.612,1.612,0,0,0-.187-.127,4.712,4.712,0,0,0-.688-.324c-.229-.071-.307.045-.277.322.042.385.1.769.116,1.156a3.55,3.55,0,0,1-.575,2.122.846.846,0,0,0-.065.182l-.1-.089a1.908,1.908,0,0,1,.119-.3,3.884,3.884,0,0,0,.386-3.09.453.453,0,0,0-.363-.387,1.162,1.162,0,0,0-1.29.523,3.073,3.073,0,0,1-.813.755c-.305.212-.6.115-.818-.214a3.516,3.516,0,0,1-.294-.575.755.755,0,0,0-.484-.5.133.133,0,0,1-.088-.068,2.739,2.739,0,0,0-.589-.987Zm-13.892-3.9.005-.051a2.534,2.534,0,0,0,.346.04c.681-.014,1.363-.011,2.043-.057a2.26,2.26,0,0,0,1.518-.627.918.918,0,0,1,.263-.165,7.4,7.4,0,0,0,2.631-2.407.461.461,0,0,0,.058-.333.821.821,0,0,1,.067-.577,5.5,5.5,0,0,0,.334-.864c.184-.753.336-1.515.5-2.275.029-.133.064-.228.211-.206.371.057.477.005.616-.386.24-.678.461-1.365.68-2.052a1.9,1.9,0,0,0-.005-1.02.511.511,0,0,0-.58-.453,1.375,1.375,0,0,0-.978,1.044.24.24,0,0,1-.1.162c-.209.091-.512-.185-.509-.443,0-.352.013-.7,0-1.057-.018-.574-.04-1.149-.081-1.722a1.1,1.1,0,0,0-.149-.48,2.875,2.875,0,0,1-.391-2.2,1.243,1.243,0,0,0-.448-1.356.426.426,0,0,1-.164-.266.706.706,0,0,0-.281-.531,1.629,1.629,0,0,1-.269-.268.244.244,0,0,0-.336-.092,1.139,1.139,0,0,1-.943.007.3.3,0,0,0-.388.1.425.425,0,0,1-.632.114.323.323,0,0,0-.194-.042c-.161.029-.319.082-.479.118a2.17,2.17,0,0,1-1.216.013c-.428-.146-.551-.087-.778.339-.1.19-.2.213-.352.063a2.517,2.517,0,0,1-.294-.336c-.439-.626-1.058-.576-1.662-.584a.3.3,0,0,0-.125.047,4.605,4.605,0,0,0-1.4,1.127.71.71,0,0,0-.141.251,5.112,5.112,0,0,0,.1,1.968l.211-.111a1.791,1.791,0,0,1,1.43-.234,9.088,9.088,0,0,1,1.02.492c-.109.083-.19.133-.259.2a1.113,1.113,0,0,0-.277.3.3.3,0,0,1-.409.184c-.168-.059-.336-.125-.5-.181-.676-.22-1.252.23-1.324,1.027-.016.185-.056.368-.081.552-.073.561-.163,1.12-.212,1.684a16.661,16.661,0,0,0,.273,3.834,25.136,25.136,0,0,1,.257,2.807,4.338,4.338,0,0,0,.64,2.353,11.494,11.494,0,0,0,1.1,1.325c.286.308.615.563.925.842a5.074,5.074,0,0,1-2.041-1.717c.111.747.257,1.474.379,2.207a5.264,5.264,0,0,0,.608,1.762,23.856,23.856,0,0,1,.977,2.187c.112.258.22.519.351.827a1.664,1.664,0,0,0,.112-.26c.112-.53.226-1.06.325-1.593a7.124,7.124,0,0,1,.77-2.48.251.251,0,0,0-.1-.4,1.117,1.117,0,0,0-.29-.084C-309.2,2425.813-309.327,2425.8-309.448,2425.781Zm-14.07.423-.018.048a.481.481,0,0,1-.073,0,1.145,1.145,0,0,1-.884-.69.8.8,0,0,0-.945-.486c-.007,0-.018-.014-.044-.037a1.167,1.167,0,0,0,.147-.158c.028-.044.06-.134.042-.16-.17-.254-.241-.653-.585-.578a2.922,2.922,0,0,0,.146-.73,2.753,2.753,0,0,0-.554-1.438.311.311,0,0,0-.425-.111.528.528,0,0,0-.325.607,7.97,7.97,0,0,0,.26,1.186,6.777,6.777,0,0,1,.286,1.089,5.4,5.4,0,0,0,1.334,2.678c.13.153.258.254.462.142,0,.076,0,.133,0,.188a9.919,9.919,0,0,0,.238,2.5,8,8,0,0,1,.3,2.077,3.238,3.238,0,0,0,.169,1.242,1.955,1.955,0,0,1-.034,1.425c-.142.339-.14.34.111.6.037.04.073.08.107.123a4.563,4.563,0,0,0,1.7,1.334c.781.365,1.591.648,2.371,1.012a1.03,1.03,0,0,0,1.4-1,1.086,1.086,0,0,1,.391-.8,5.563,5.563,0,0,0,1.275-1.522,4.958,4.958,0,0,0,.913-1.856c.079-.623.26-1.225.278-1.866a1.489,1.489,0,0,1,.2-.636,5.444,5.444,0,0,0,.614-2.675.779.779,0,0,0-.525-.781.827.827,0,0,0-.946.363c-.225.416-.45.832-.67,1.251a2.581,2.581,0,0,0-.333,1.242,1.077,1.077,0,0,1-.08.409.8.8,0,0,0,.311,1.15,1.263,1.263,0,0,1,.171.162l-.053.079a2.8,2.8,0,0,1-.394-.332c-.308-.368-.6-.758-.9-1.13a2.084,2.084,0,0,1-.555-1.148c-.064-.73-.14-1.46-.168-2.192a.825.825,0,0,0-.462-.759,3.394,3.394,0,0,1-.4-.307l.031-.062c.061.027.124.051.183.083.16.084.316.181.479.258.184.086.3.038.363-.132a2.16,2.16,0,0,0-.259-1.581c-.09-.1-.178-.213-.267-.319l.039-.074c.127.058.26.108.382.178.151.085.219.055.223-.128,0-.28,0-.562,0-.842a.82.82,0,0,0-.292-.646.649.649,0,0,0-.111-.063l.039-.061a.53.53,0,0,1,.124-.01c.26.045.306,0,.314-.3a3.061,3.061,0,0,0-.309-1.406.886.886,0,0,0-.254-.307c-.167-.128-.318-.068-.4.146-.043.117-.058.249-.09.372a7.226,7.226,0,0,0-.309,1.834,3.119,3.119,0,0,1-.252,1.141,3.242,3.242,0,0,0-.158.528c-.076.372-.139.746-.2,1.119-.03.175-.107.21-.243.147a.282.282,0,0,1-.157-.436,2.317,2.317,0,0,0-.283-2.515.555.555,0,0,1-.037-.1l.561.291a4.963,4.963,0,0,0-.053-1.528.625.625,0,0,0-.3-.422,1,1,0,0,1-.215-.215c-.005-.005.056-.109.067-.1.09.033.175.084.263.126s.175.117.229.09.092-.164.093-.253c.005-.438.009-.878-.013-1.316a.873.873,0,0,0-.538-.81c-.389-.17-.581.005-.634.472-.1.9-.236,1.8-.371,2.7-.095.629-.252,1.249-.307,1.881a12.52,12.52,0,0,0,.05,1.485c.008.237,0,.475,0,.713l-.045.023c-.041-.072-.115-.142-.117-.215a2.037,2.037,0,0,0-.34-.942,2.144,2.144,0,0,1-.218-.631c-.026-.14-.067-.179-.175-.185-.079-.005-.157-.025-.235-.038l0-.064c.047-.007.094-.017.141-.021a.315.315,0,0,0,.306-.36c-.016-.386-.049-.772-.1-1.155a.325.325,0,0,0-.317-.287c-.044-.005-.093.012-.131-.006a.554.554,0,0,1-.121-.106c.038-.033.071-.084.114-.1a1.978,1.978,0,0,1,.243-.03c.213-.03.257-.085.251-.336a4.009,4.009,0,0,0-.047-.773,4.794,4.794,0,0,0-.317-.887.294.294,0,0,0-.394-.155c-.394.126-.582.46-.582,1.005,0,.834.024,1.672-.036,2.5a8.21,8.21,0,0,0,.125,2.31,1.192,1.192,0,0,0,.612.9A.627.627,0,0,1-323.518,2426.2Zm17.479,5.19.056-.038.056-.827.047,0,.064.806.064.031c.144-.174.3-.34.431-.523.348-.482.69-.97,1.03-1.459s.681-.962,1-1.465a6.9,6.9,0,0,0,.713-2.229,16.915,16.915,0,0,0,.423-2.97.705.705,0,0,0-.178-.624,3.006,3.006,0,0,1-.1.356,1.191,1.191,0,0,1-.166.311,9.438,9.438,0,0,1-2.5,2.31,15.267,15.267,0,0,1-1.638.764c-.241.1-.269.154-.124.388a1.717,1.717,0,0,1,.228.392,12.516,12.516,0,0,1,.329,1.293c.142.786.252,1.58.375,2.37a.177.177,0,0,1-.083-.122c-.054-.28-.095-.565-.164-.84a.533.533,0,0,0-.18-.263c-.021-.017-.138.087-.191.156-.122.162-.222.347-.35.5a.366.366,0,0,0-.048.481C-306.651,2430.6-306.341,2431-306.039,2431.395Zm-9.128-7.1c-.084-.008-.108-.013-.133-.012a10.27,10.27,0,0,0-2.614.556.786.786,0,0,0-.546.747,3.1,3.1,0,0,1-.047.513,7.286,7.286,0,0,0-.093,1.948,5.169,5.169,0,0,0,.081.855,2.035,2.035,0,0,0,.815,1.37c.188.135.292.107.358-.135a2.011,2.011,0,0,0,.067-.568,1.653,1.653,0,0,1,.141-.79q.352-.725.706-1.448a.934.934,0,0,1,.509-.482,1.711,1.711,0,0,0,.536-.344,5.608,5.608,0,0,0,.518-.654c.04-.055.092-.17.074-.193a.39.39,0,0,0-.2-.124.352.352,0,0,0-.167.025.524.524,0,0,1-.582-.416.312.312,0,0,1,.057-.211c.1-.132.229-.245.338-.373A2.982,2.982,0,0,0-315.166,2424.3Zm12.189,3.6-.083-.073a.887.887,0,0,1-.077.17c-.774,1.061-1.547,2.124-2.327,3.177a1.18,1.18,0,0,0-.194,1.1c.115.388.214.781.328,1.169.046.158.111.308.184.508.228-.478.429-.9.632-1.322a2.085,2.085,0,0,0,.241-1.58c-.04-.133.016-.257.147-.269.15-.014.184-.114.2-.252a1.424,1.424,0,0,1,.069-.289c.184-.488.375-.972.559-1.46C-303.185,2428.487-303.083,2428.192-302.977,2427.9Zm-5.229,5.752c.177,0,.311-.2.332-.421a1.524,1.524,0,0,1,.134-.494,3.536,3.536,0,0,1,.3-.473.833.833,0,0,0,.16-.619c-.03-.2.055-.269.226-.27a.746.746,0,0,0,.345-.084c.152-.082.153-.2.047-.343-.148-.2-.292-.412-.425-.629-.078-.125-.144-.182-.277-.094s-.27.135-.187.366.01.319-.192.269c-.166-.042-.268.018-.325.2-.122.377-.246.754-.37,1.13-.022.067-.032.156-.076.193-.281.244-.169.552-.11.847A.73.73,0,0,0-308.207,2433.65Zm-9.959,4.9c-.3,0-.537-.008-.774,0-.1.005-.167.073-.146.22.047.338.081.679.114,1.02.02.2.024.406.036.608l.064.02Zm11.311-4.349a1.129,1.129,0,0,0,.007.34c.043.122.119.278.213.315.209.085.366-.083.5-.244a.436.436,0,0,0,.1-.521,1.36,1.36,0,0,0-.337-.419c-.244-.185-.483-.017-.486.314C-306.855,2434.056-306.854,2434.127-306.855,2434.2Zm4.914-10.576-.435,2.362.082.03c.173-.432.369-.855.51-1.3A1.322,1.322,0,0,0-301.941,2423.623Zm-4.711,14.556a1.4,1.4,0,0,0,.273-.885c-.008-.067-.065-.171-.11-.179a.237.237,0,0,0-.2.085,1.646,1.646,0,0,0-.178.4A.458.458,0,0,0-306.652,2438.179Zm-.648-1.591c-.227-.274-.272-.254-.395.035a.837.837,0,0,0,.041.6c.015.058.087.1.133.144a.612.612,0,0,0,.124-.168.345.345,0,0,0-.011-.21C-307.476,2436.819-307.468,2436.685-307.3,2436.588Zm-2.236-6.008a.426.426,0,0,0,.685-.25.451.451,0,0,0-.086-.262c-.016-.028-.119-.031-.147,0C-309.239,2430.228-309.382,2430.4-309.536,2430.58Zm-9.134,7.661a.635.635,0,0,0,.627-.436.563.563,0,0,0,0-.308c-.029-.093-.114-.117-.175-.015C-318.37,2437.732-318.517,2437.985-318.67,2438.241Zm10.929-10.264c.063-.038.122-.076.183-.111a.756.756,0,0,0,.2-.116.73.73,0,0,0,.09-.215c-.066-.021-.136-.072-.2-.061C-307.669,2427.507-307.752,2427.67-307.741,2427.978Z" transform="translate(330.775 -2402.136)" fill="#3e1d6d"/>
          <path id="Trazado_105420" data-name="Trazado 105420" d="M-281.18,2434.739c-.054.335-.091.675-.166,1a2.832,2.832,0,0,1-.247.716,3.79,3.79,0,0,0-.381,1.712.265.265,0,0,0,.2.3c.3.078.359.339.4.688-.175-.228-.253-.515-.577-.522.094.1.163.167.223.242a.6.6,0,0,1,.056.744c-.143.253-.279.513-.427.763a.6.6,0,0,1-.234.22.443.443,0,0,1,.045-.122,1.854,1.854,0,0,0,.293-1.517c-.038-.226-.075-.452-.107-.678a2.553,2.553,0,0,1,.223-1.4,8.456,8.456,0,0,0,.616-2.517,11.126,11.126,0,0,0,.148-1.389,1.142,1.142,0,0,1,.516-1.044,2.808,2.808,0,0,0,.937-1.4,7.6,7.6,0,0,0,.389-2.918c-.007-.106-.063-.273-.125-.294a.357.357,0,0,0-.325.073,1.278,1.278,0,0,0-.316.5c-.1.336-.131.7-.209,1.041a2.575,2.575,0,0,1-.2.549.651.651,0,0,0-.051.711c-.253-.16-.388.014-.537.174a1.277,1.277,0,0,1-.94.386c-.1,0-.217-.136-.312-.227-.124-.116-.223-.267-.351-.374a4.363,4.363,0,0,0-.412-.263.549.549,0,0,0-.63-.018c-.277.164-.4.1-.463-.251-.084-.457-.131-.923-.216-1.379-.149-.792-.3-1.585-.478-2.369a7.644,7.644,0,0,1-.3-1.938.779.779,0,0,0-.6-.889.637.637,0,0,0-.726.622c-.02.336.008.675.021,1.012a.353.353,0,0,0,.3.363c.111.026.224.046.333.079.039.013.07.06.1.092-.04.024-.079.053-.121.073a.232.232,0,0,1-.075.006c-.357.029-.489.172-.44.578a8.239,8.239,0,0,0,.226,1.017.291.291,0,0,0,.29.232c.111.006.221.016.314.023l-.51,1.052a6.782,6.782,0,0,1-.155-.7q-.211-1.783-.395-3.57a1.106,1.106,0,0,1,.064-.44c.142-.431.455-.679.768-.634a.91.91,0,0,1,.728.847,9.132,9.132,0,0,0,.477,2.448,18.574,18.574,0,0,1,.534,3.172,2.43,2.43,0,0,0,.094.376l.065-.008c.024-.214.04-.429.073-.642a11.318,11.318,0,0,0,.021-2.516c-.035-.509-.056-1.02-.079-1.53a.949.949,0,0,1,.71-.813.607.607,0,0,1,.647.6c.174,1.386.356,2.773.49,4.165a12.653,12.653,0,0,1-.042,1.6.911.911,0,0,0,.976-.384,2.669,2.669,0,0,0,.55-1.48,2.257,2.257,0,0,1,.654-1.441.583.583,0,0,1,.358-.159c.258-.025.359.126.4.415a6.9,6.9,0,0,1-.367,3.042,2.758,2.758,0,0,1-.433,1.064,2.583,2.583,0,0,1-.519.5,1.287,1.287,0,0,0-.6,1.124,18.334,18.334,0,0,0,.035,2.045,8.734,8.734,0,0,0,.33,1.3,1.926,1.926,0,0,1,.114.578,6.338,6.338,0,0,0,.393,2.44,17.955,17.955,0,0,1,.874,3.181c.081.583.143,1.167.2,1.753.006.066-.049.14-.076.211a.748.748,0,0,1-.1-.188c-.078-.4-.142-.8-.221-1.2-.047-.23-.119-.454-.166-.685-.03-.156-.107-.311.007-.482.039-.058.006-.2-.021-.292-.2-.687-.389-1.38-.616-2.056a6.934,6.934,0,0,1-.417-2.84.727.727,0,0,0-.073-.37,2.83,2.83,0,0,1-.351-1.685.586.586,0,0,0-.052-.2Zm-1.647-8.473a.9.9,0,0,1,.1-.072.383.383,0,0,0,.222-.46c-.038-.261-.052-.528-.087-.791s-.1-.5-.356-.576a.509.509,0,0,0-.569.289.873.873,0,0,0-.137.468c.03.841.083,1.679.133,2.518.022.361.042.369.362.3a.574.574,0,0,1,.573.111c-.114,0-.226-.018-.337-.026a.527.527,0,0,0-.646.465,1.762,1.762,0,0,0-.031.363c0,.288.1.366.349.31a1.357,1.357,0,0,1,.839.039c.218.09.271.038.28-.222a10.068,10.068,0,0,0-.172-2.139C-282.381,2426.4-282.428,2426.334-282.827,2426.267Zm.7,3.645a.557.557,0,0,0-.66-.562.194.194,0,0,0-.121.3,1.177,1.177,0,0,0,.3.311,1.351,1.351,0,0,0,.26.121C-282.159,2430.176-282.133,2430.157-282.128,2429.912Z" transform="translate(326.14 -2404.307)" fill="#3e1d6d"/>
          <path id="Trazado_105421" data-name="Trazado 105421" d="M-292.97,2434.657c.119.235.229.476.359.7.309.542.664,1.053.933,1.62a16.624,16.624,0,0,0,2.038,3.206,1.543,1.543,0,0,0,.575.429,2.273,2.273,0,0,1,1.188,1.2.926.926,0,0,0,.57.525,4.942,4.942,0,0,0,3.728-.1c.168-.073.338-.14.561-.23-.129.322-.238.617-.363.9a4.688,4.688,0,0,1-.25.457,2.354,2.354,0,0,0,.03,2.212.519.519,0,0,0,.233.206c.089.052.168.021.209-.1.063-.2.184-.378.038-.6-.027-.042,0-.15.03-.216.153-.386.323-.763.467-1.151.162-.437.3-.882.452-1.325a2.15,2.15,0,0,0,.057-1.133,5.58,5.58,0,0,1-1,1.534l1.118-2.056a16.585,16.585,0,0,1,1.552,2.582l-.055.044c-.226-.365-.462-.724-.676-1.1a5.326,5.326,0,0,0-.726-1.092,7.584,7.584,0,0,1-.116.935c-.164.647-.369,1.281-.543,1.926-.113.418-.2.844-.3,1.267-.027.111-.054.221-.079.332-.083.371-.283.426-.6.336a.287.287,0,0,1-.147-.192,1.263,1.263,0,0,0-.992-1.1,1.18,1.18,0,0,1-.282-.16l.026-.068c.208.075.418.145.624.229.245.1.345.021.3-.266a1.628,1.628,0,0,1,.158-1c.168-.335.339-.669.53-1.043a6.818,6.818,0,0,1-.7.218c-.44.086-.885.147-1.329.212-.095.013-.162.021-.177.163a.218.218,0,0,1-.165.143,12.913,12.913,0,0,1-1.3-.14,2.929,2.929,0,0,1-.575-.26c-.056-.024-.162-.044-.175-.018-.037.07-.073.2-.043.244a1.609,1.609,0,0,1,.175.909c0,.058,0,.115,0,.173.021.308.085.357.329.229a2.046,2.046,0,0,1,1.375-.109c.206.037.413.063.617.109a1.479,1.479,0,0,1,.271.125l-.022.075c-.273-.032-.545-.07-.818-.1-.3-.028-.591-.057-.887-.063a.979.979,0,0,0-.386.09c-.218.091-.254.234-.156.477.12.293.235.589.35.884a.428.428,0,0,1,.018.077l-.047.028c-.1-.194-.207-.382-.29-.585a2.464,2.464,0,0,0-.485-.984.27.27,0,0,1-.042-.2,2.85,2.85,0,0,0-.122-1.124c-.03-.116-.038-.242-.074-.354a.726.726,0,0,0-.146-.29,1,1,0,0,1-.292-.8c.013-.326-.076-.5-.35-.571a2.675,2.675,0,0,1-1.533-1.316c-.2-.32-.434-.616-.637-.935a5.552,5.552,0,0,1-.514-.9,17.8,17.8,0,0,0-1.187-2.227c-.151-.261-.28-.541-.419-.812Zm4.908,7.333a1.814,1.814,0,0,0,1.724.818,6.219,6.219,0,0,1-.922-.286A6.484,6.484,0,0,1-288.061,2441.99Z" transform="translate(326.819 -2405.546)" fill="#3e1d6d"/>
          <path id="Trazado_105422" data-name="Trazado 105422" d="M-293.284,2434.412l-.081.09c-.086-.165-.173-.329-.257-.493-.037-.072-.069-.147-.1-.22l-.059-.009c-.141.41-.29.816-.419,1.231-.28.907-.531,1.826-.83,2.724a16.037,16.037,0,0,0-.757,3.439c-.047.463-.1.925-.151,1.386l-.057.012a.559.559,0,0,1-.047-.186,30.213,30.213,0,0,1,.605-3.879c.156-.545.371-1.067.538-1.608.212-.682.4-1.374.607-2.059a6.778,6.778,0,0,1,.249-.74,1.689,1.689,0,0,0,.176-1.155.412.412,0,0,1,.228-.47,1.44,1.44,0,0,1,1.727.372l-.089.1a4.806,4.806,0,0,0-.8-.352,1.354,1.354,0,0,0-.628.05c-.243.058-.327.223-.252.5.1.362.226.712.34,1.068C-293.321,2434.277-293.3,2434.345-293.284,2434.412Z" transform="translate(327.133 -2405.301)" fill="#3e1d6d"/>
          <path id="Trazado_105423" data-name="Trazado 105423" d="M-299.873,2446.681c-.165.087-.232-.017-.291-.117a.536.536,0,0,1-.041-.529.637.637,0,0,1,.848-.309c.167.092.225.063.229-.144.013-.654.023-1.309.024-1.963a.88.88,0,0,0-.325-.675c-.055-.048-.112-.093-.167-.141a.327.327,0,0,1-.065-.523,4.12,4.12,0,0,1,.281-.377.314.314,0,0,1,.192-.114c.064-.005.131.055.2.086-.044.047-.08.114-.131.141a.516.516,0,0,0-.153.78,1.955,1.955,0,0,1,.388,1.4c-.021.517-.042,1.033-.056,1.55-.009.328-.1.4-.365.274a.4.4,0,0,1-.115-.071c-.117-.117-.213-.13-.306.04-.03.057-.1.087-.151.125-.184.132-.2.214-.07.417C-299.925,2446.57-299.9,2446.619-299.873,2446.681Z" transform="translate(327.575 -2406.294)" fill="#3e1d6d"/>
          <path id="Trazado_105424" data-name="Trazado 105424" d="M-304.324,2446.434a.737.737,0,0,1,.71.522.81.81,0,0,1-.023.237.666.666,0,0,1-.218-.061,2.1,2.1,0,0,1-.209-.215c-.235-.226-.354-.227-.6-.009a2.388,2.388,0,0,1-.264.239.529.529,0,0,1-.213.035.7.7,0,0,1,.024-.23A.852.852,0,0,1-304.324,2446.434Z" transform="translate(328.087 -2406.781)" fill="#3e1d6d"/>
          <path id="Trazado_105425" data-name="Trazado 105425" d="M-318.6,2445.454c0,.257-.126.419-.32.416a.326.326,0,0,1-.355-.347c0-.253.164-.538.306-.539C-318.787,2444.983-318.6,2445.224-318.6,2445.454Z" transform="translate(329.569 -2406.629)" fill="#3e1d6d"/>
          <path id="Trazado_105426" data-name="Trazado 105426" d="M-285.653,2432.157c.158.212.315.427.476.636a1.146,1.146,0,0,0,1.285.448,2.2,2.2,0,0,1,1.047-.1.434.434,0,0,1,.18.078.461.461,0,0,1-.093,0,2.3,2.3,0,0,0-1.064.132,1.27,1.27,0,0,1-1.561-.624c-.107-.174-.209-.353-.314-.529Z" transform="translate(326.048 -2405.284)" fill="#3e1d6d"/>
          <path id="Trazado_105427" data-name="Trazado 105427" d="M-302.159,2439.114l.952-2.785.051.023A9.146,9.146,0,0,1-302.159,2439.114Z" transform="translate(327.774 -2405.721)" fill="#3e1d6d"/>
          <path id="Trazado_105428" data-name="Trazado 105428" d="M-282.706,2440.634a1.524,1.524,0,0,1-1.223.845,7.364,7.364,0,0,0,.653-.364A7.135,7.135,0,0,0-282.706,2440.634Z" transform="translate(325.863 -2406.173)" fill="#3e1d6d"/>
          <path id="Trazado_105429" data-name="Trazado 105429" d="M-285.254,2430.2a.647.647,0,0,1,.73.144c.028.046.012.128.016.193a.639.639,0,0,1-.154-.039c-.124-.063-.244-.137-.369-.2C-285.092,2430.265-285.157,2430.242-285.254,2430.2Z" transform="translate(326.002 -2405.073)" fill="#3e1d6d"/>
          <path id="Trazado_105430" data-name="Trazado 105430" d="M-316.838,2447.035l-.073-.933A1.051,1.051,0,0,1-316.838,2447.035Z" transform="translate(329.321 -2406.746)" fill="#3e1d6d"/>
          <path id="Trazado_105431" data-name="Trazado 105431" d="M-307.51,2421.479c-.032-.281-.08-.336-.318-.323a2.646,2.646,0,0,0-.371.069l-.7.13a1.57,1.57,0,0,0,.732.746,2.159,2.159,0,0,0,2.341-.287c.139-.1.264-.218.4-.329a1.109,1.109,0,0,1-.9,1.127c-.484.127-.972.24-1.461.347a.535.535,0,0,1-.668-.552c-.031-.4-.293-.567-.527-.764-.031-.027-.153.033-.2.088-.206.251-.4.271-.628.035a.919.919,0,0,1-.15-.219,1.581,1.581,0,0,1,.389-1.764c.449-.334.9-.666,1.343-1.008.141-.109.219-.087.326.066a1.232,1.232,0,0,0,.366.325c.228.143.234.132.132.4a.7.7,0,0,0-.012.128c.09-.016.175-.007.231-.051.027-.021.009-.141-.008-.21-.064-.251-.032-.311.186-.414a3.9,3.9,0,0,0,.365-.225.39.39,0,0,1,.482.01,4.919,4.919,0,0,0,1.763.8c.055.016.111.027.166.042a1.076,1.076,0,0,1,.621,1.619l-.428.9c-.119-.21-.249-.433-.374-.66-.189-.343-.307-.394-.643-.249a.564.564,0,0,1-.545-.073,1.528,1.528,0,0,0-1.678.112A2.139,2.139,0,0,0-307.51,2421.479Zm1.033-.824a1.9,1.9,0,0,1,.44.132,1.408,1.408,0,0,0,.79.25,1.211,1.211,0,0,0,.246-.066.906.906,0,0,0-.09-.32,1.284,1.284,0,0,0-.772-.462,2.877,2.877,0,0,1-.9-.191.891.891,0,0,0-.923.029,1.137,1.137,0,0,1-.107.042,1.844,1.844,0,0,0-.9.642.751.751,0,0,0-.056.245.7.7,0,0,0,.223.033c.1-.018.2-.074.307-.1a.94.94,0,0,1,.756.045.431.431,0,0,0,.5-.049A3.318,3.318,0,0,1-306.477,2420.655Z" transform="translate(328.605 -2403.873)" fill="#3e1d6d"/>
          <path id="Trazado_105432" data-name="Trazado 105432" d="M-301.124,2412.063c-.334-.142-.659-.288-.988-.417a.542.542,0,0,0-.281-.013,1.96,1.96,0,0,1-1.063-.12,1.518,1.518,0,0,0-1.166.034c-.023.01-.047.02-.071.028-.125.041-.257.081-.334-.086s.047-.25.141-.329a2.235,2.235,0,0,1,.425-.319,1.4,1.4,0,0,1,.455-.09,3.468,3.468,0,0,0,.6-.048,2.119,2.119,0,0,1,1.861.4A1.228,1.228,0,0,1-301.124,2412.063Z" transform="translate(328.078 -2403.026)" fill="#3e1d6d"/>
          <path id="Trazado_105433" data-name="Trazado 105433" d="M-303.7,2414.673a1.508,1.508,0,0,1-1.037-.282c-.231-.165-.247-.287-.064-.515a1.264,1.264,0,0,1,.913-.448,1.137,1.137,0,0,1,.811.214c.218.156.444.3.662.455a.974.974,0,0,1,.141.159.834.834,0,0,1-.169.147A2.465,2.465,0,0,1-303.7,2414.673Zm.973-.462c-.2-.132-.373-.251-.551-.354-.038-.022-.127-.013-.144.017a2.248,2.248,0,0,0-.2.432c-.013.04.068.171.1.169A1.075,1.075,0,0,0-302.729,2414.211Z" transform="translate(328.065 -2403.319)" fill="#3e1d6d"/>
          <path id="Trazado_105434" data-name="Trazado 105434" d="M-309.629,2414.785c-.239-.087-.5-.173-.76-.282a.238.238,0,0,1-.107-.354,1.207,1.207,0,0,1,.346-.406,1.837,1.837,0,0,1,1.613-.054.922.922,0,0,1,.268.159c.2.152.191.26-.019.376-.25.139-.5.286-.754.4A3.974,3.974,0,0,1-309.629,2414.785Zm1.188-.6,0-.093a2.489,2.489,0,0,0-.491-.183c-.151-.023-.243.133-.224.32s.156.2.269.167A3.259,3.259,0,0,0-308.441,2414.188Z" transform="translate(328.653 -2403.33)" fill="#3e1d6d"/>
          <path id="Trazado_105435" data-name="Trazado 105435" d="M-308.324,2418.333a.4.4,0,0,1-.37-.442c.016-.293.224-.521.466-.466a2.018,2.018,0,0,1,.508.224c.164.091.313.215.476.31.2.117.33.063.437-.162.188-.395.442-.454.777-.2a2.375,2.375,0,0,0,.53.321.429.429,0,0,0,.347-.037c.136-.082.127-.262.082-.408a2.556,2.556,0,0,0-.48-1.014,1.062,1.062,0,0,1-.066-.094l.032-.068c.078.042.2.063.226.131a7.631,7.631,0,0,1,.409,1.1c.107.429-.156.678-.535.55a1.537,1.537,0,0,0-.907-.126c-.158.043-.306.133-.464.177a.692.692,0,0,1-.343.025c-.25-.062-.494-.158-.741-.236a3.348,3.348,0,0,0-.386-.1c-.055-.011-.147-.014-.167.021a.289.289,0,0,0-.016.217A1.579,1.579,0,0,0-308.324,2418.333Z" transform="translate(328.46 -2403.621)" fill="#3e1d6d"/>
          <path id="Trazado_105436" data-name="Trazado 105436" d="M-303.025,2423.294a.985.985,0,0,1-.234.726,12.774,12.774,0,0,1-1.806,1.864.644.644,0,0,1-.252.142,4.863,4.863,0,0,1-2.3.179,1.156,1.156,0,0,1-.517-.238,6.591,6.591,0,0,1-1.523-1.869c-.046-.091-.085-.187-.126-.28l.046-.045a2.449,2.449,0,0,1,.271.346,7.7,7.7,0,0,0,1.163,1.525,1.39,1.39,0,0,0,.986.473,5.441,5.441,0,0,0,2.017-.3.5.5,0,0,0,.185-.1c.493-.47,1-.925,1.466-1.426a5.157,5.157,0,0,0,.522-.84C-303.1,2423.4-303.061,2423.346-303.025,2423.294Z" transform="translate(328.574 -2404.354)" fill="#3e1d6d"/>
          <path id="Trazado_105437" data-name="Trazado 105437" d="M-297.514,2417.918c.273-.422.247-.657-.129-.96-.174-.141-.177-.226-.039-.419.068-.1.148-.091.214.026a1.727,1.727,0,0,1-.361,2.183.206.206,0,0,1-.188.035c-.039-.016-.07-.116-.069-.178.005-.2.041-.4.038-.6a4.1,4.1,0,0,0-.069-.55c-.021-.139-.13-.3.062-.382.154-.064.371.1.408.286.022.118.032.24.057.358A1.4,1.4,0,0,0-297.514,2417.918Z" transform="translate(327.356 -2403.639)" fill="#3e1d6d"/>
          <path id="Trazado_105438" data-name="Trazado 105438" d="M-308.266,2409.649a5.461,5.461,0,0,0-2.084.1l-.02-.049c.043-.044.08-.106.13-.127a1.74,1.74,0,0,1,.958-.177,4.36,4.36,0,0,0,.714.03C-308.432,2409.421-308.338,2409.468-308.266,2409.649Z" transform="translate(328.635 -2402.895)" fill="#3e1d6d"/>
          <path id="Trazado_105439" data-name="Trazado 105439" d="M-298.556,2417.829c-.134-.026-.259-.044-.38-.073-.164-.038-.234-.186-.194-.392.035-.181.133-.212.283-.176C-298.544,2417.261-298.437,2417.478-298.556,2417.829Z" transform="translate(327.458 -2403.713)" fill="#3e1d6d"/>
          <path id="Trazado_105440" data-name="Trazado 105440" d="M-305.5,2411.266a1.245,1.245,0,0,1,.995-.763Z" transform="translate(328.125 -2403.013)" fill="#3e1d6d"/>
          <path id="Trazado_105441" data-name="Trazado 105441" d="M-307.948,2411.285l-.661-.543a.773.773,0,0,1,.677.4C-307.918,2411.177-307.942,2411.236-307.948,2411.285Z" transform="translate(328.451 -2403.038)" fill="#3e1d6d"/>
          <path id="Trazado_105442" data-name="Trazado 105442" d="M-308.62,2414.93a.753.753,0,0,1-.9.226Z" transform="translate(328.546 -2403.477)" fill="#3e1d6d"/>
          <path id="Trazado_105443" data-name="Trazado 105443" d="M-300.829,2423.562l.608-.87A1.246,1.246,0,0,1-300.829,2423.562Z" transform="translate(327.635 -2404.291)" fill="#3e1d6d"/>
          <path id="Trazado_105444" data-name="Trazado 105444" d="M-302.173,2414.967l.821-.326A.859.859,0,0,1-302.173,2414.967Z" transform="translate(327.776 -2403.447)" fill="#3e1d6d"/>
          <path id="Trazado_105445" data-name="Trazado 105445" d="M-308.494,2416.358l.467-.7A.873.873,0,0,1-308.494,2416.358Z" transform="translate(328.439 -2403.554)" fill="#3e1d6d"/>
          <path id="Trazado_105446" data-name="Trazado 105446" d="M-322.274,2430.789a.249.249,0,0,1,.33-.231,3.32,3.32,0,0,1,.488.16c.2.078.4.19.6.246a.953.953,0,0,0,1.095-.521c.142-.218.266-.452.422-.677a1.885,1.885,0,0,1-.062.307,1.534,1.534,0,0,1-1.2,1.133c-.277.039-.32.14-.194.43s.234.562.35.843l-.074.042c-.125-.276-.257-.549-.374-.829a1.259,1.259,0,0,0-.622-.773A3.9,3.9,0,0,0-322.274,2430.789Z" transform="translate(329.884 -2405.033)" fill="#3e1d6d"/>
          <path id="Trazado_105447" data-name="Trazado 105447" d="M-320.753,2439.6c.186-.055.374-.1.557-.167a2.289,2.289,0,0,0,1.013-.754c.059-.075.134-.2.226-.072s-.019.193-.1.253a3.031,3.031,0,0,1-1.357.758c-.111.015-.224.017-.336.025Z" transform="translate(329.724 -2405.954)" fill="#3e1d6d"/>
          <path id="Trazado_105448" data-name="Trazado 105448" d="M-313.715,2432.813l-1.206-.613A1.461,1.461,0,0,1-313.715,2432.813Z" transform="translate(329.113 -2405.288)" fill="#3e1d6d"/>
          <path id="Trazado_105449" data-name="Trazado 105449" d="M-319.888,2428.155c-.187-.017-.366-.021-.542-.054-.062-.012-.114-.092-.169-.141.058-.032.12-.1.175-.09C-320.217,2427.895-319.989,2427.887-319.888,2428.155Z" transform="translate(329.708 -2404.834)" fill="#3e1d6d"/>
          <path id="Trazado_105450" data-name="Trazado 105450" d="M-318.757,2433.987l.149-.843.069.017-.159.841Z" transform="translate(329.515 -2405.387)" fill="#3e1d6d"/>
        </g>
        <g id="Grupo_59598" data-name="Grupo 59598" transform="translate(32.104 158.254)" opacity="0.86">
          <path id="Trazado_105451" data-name="Trazado 105451" d="M-410.957,2526.344c0-.38-.005-.761,0-1.14a23.351,23.351,0,0,1,1.962-9.845,22.646,22.646,0,0,1,3.628-5.375,12.718,12.718,0,0,1,2.609-2.028,27.443,27.443,0,0,1,6.746-3.233,25.661,25.661,0,0,1,4.912-1.08,27.961,27.961,0,0,1,3.857-.228,23.376,23.376,0,0,1,6.429,1.1,11.405,11.405,0,0,1,5.047,3.546c.638.709,1.183,1.5,1.763,2.261.088.115.158.177.311.14a4.014,4.014,0,0,1,.567-.09.407.407,0,0,1,.464.338.421.421,0,0,1-.353.477c-.115.025-.233.046-.371.073.065.115.119.213.176.309a24.525,24.525,0,0,1,1.651,3.725,44.141,44.141,0,0,1,2.277,8.224,29.276,29.276,0,0,1,.514,5.092,17.7,17.7,0,0,1-1.31,7.036c-.013.031-.023.064-.041.116.21.055.413.106.613.163a5.2,5.2,0,0,1,2.235,1.262,3.232,3.232,0,0,1,.815,1.517,4.594,4.594,0,0,1-.594,3.867,3.314,3.314,0,0,1-1.663,1.2,8.991,8.991,0,0,1-2.187.52,9.265,9.265,0,0,1-3.916-.263,5.154,5.154,0,0,1-2.054-1.073,3.594,3.594,0,0,1-.348-.371.165.165,0,0,0-.23-.062c-.751.314-1.508.616-2.259.93a.449.449,0,0,0-.21.184,3.726,3.726,0,0,1-1.208,1.32c-.06.04-.131.146-.117.2.174.81.362,1.616.546,2.423l-.636.048c-.066-.339-.125-.681-.2-1.02-.095-.418-.2-.833-.314-1.276a11.782,11.782,0,0,1-5.183.658l-.284,2.086-.424.031c.006-.055.013-.11.02-.166.073-.588.143-1.177.218-1.765.024-.19-.029-.291-.239-.333-.367-.073-.728-.179-1.087-.284a.235.235,0,0,0-.311.119c-.455.7-.923,1.391-1.379,2.09-.119.182-.214.379-.32.57l-.509.039c.121-.217.229-.441.364-.649q.783-1.2,1.582-2.4a2.346,2.346,0,0,1,.266-.329,8.5,8.5,0,0,0,1.519-1.9,1.969,1.969,0,0,0,.2-.62.478.478,0,0,0-.394-.566,1.586,1.586,0,0,0-1.426.288c-.329.245-.634.523-.937.8a14.751,14.751,0,0,0-3.573,4.894c-.1.217-.155.451-.231.677l-.467.035c.123-.331.226-.672.372-.994a14.992,14.992,0,0,1,3.4-4.707.73.73,0,0,0,.227-.759.5.5,0,0,0-.5-.431,1.5,1.5,0,0,0-1.258.508,8.962,8.962,0,0,0-.705.93,17.876,17.876,0,0,0-2.594,5.533l-.721.054a1.492,1.492,0,0,1,0-.19,14.631,14.631,0,0,1,.854-3.586c.156-.408.334-.809.506-1.223-.064-.021-.123-.044-.183-.061-1.082-.31-2.173-.593-3.245-.934-1.113-.354-2.226-.718-3.3-1.162-.821-.338-1.586-.81-2.429-1.25-.217.305-.463.658-.718,1-.058.081-.15.2-.225.193a2.712,2.712,0,0,1-.873-.1.932.932,0,0,1-.334-1.451c.243-.275.5-.54.737-.8-.408-.429-.828-.832-1.2-1.272a18.321,18.321,0,0,1-4.049-9.24c-.064-.4-.116-.793-.175-1.189Zm33.042,13.1c.016-.041.023-.055.027-.068q.012-.051.021-.1a3.336,3.336,0,0,1,1.381-2.189,6.946,6.946,0,0,1,2.317-1.031,10.467,10.467,0,0,1,3.219-.363.2.2,0,0,0,.238-.149c.1-.273.22-.538.32-.811a17.676,17.676,0,0,0,.989-6.5,32.569,32.569,0,0,0-.666-5.524,42.97,42.97,0,0,0-2.27-7.7,20.164,20.164,0,0,0-1.43-3.175c-.286-.465-.281-.472-.829-.367a33.5,33.5,0,0,0-5.246,1.422c-1.237.452-2.449.969-3.672,1.46a.44.44,0,0,1-.627-.2.429.429,0,0,1,.272-.563,40.233,40.233,0,0,1,8.728-2.86c.184-.037.368-.077.574-.121-.039-.071-.06-.114-.087-.153a16.684,16.684,0,0,0-3.313-3.661,7.689,7.689,0,0,0-1.59-1.091,19.308,19.308,0,0,0-5.038-1.419,24.324,24.324,0,0,0-6.4-.023,24.8,24.8,0,0,0-4.893,1.075,27.621,27.621,0,0,0-7.167,3.568,11.7,11.7,0,0,0-1.482,1.133,16.186,16.186,0,0,0-1.427,1.63,18.684,18.684,0,0,0-3.6,7.1,25.6,25.6,0,0,0-.636,8.905,19.339,19.339,0,0,0,1.268,5.232,15.2,15.2,0,0,0,3.609,5.528c.117.11.237.217.346.315a.388.388,0,0,0,.065-.025c.046-.035.089-.071.133-.107a7.584,7.584,0,0,1,2.727-1.479,5.859,5.859,0,0,1,2.024-.178c1.087.086,2.18.133,3.259.275a23.545,23.545,0,0,1,5.971,1.625c.1.04.179.083.279-.029a5.134,5.134,0,0,1,2.418-1.4,11.531,11.531,0,0,1,2.534-.406,10.908,10.908,0,0,1,2.248-.036,4.034,4.034,0,0,1,3.508,2.486.2.2,0,0,0,.152.1C-379.075,2539.538-378.5,2539.492-377.916,2539.448Zm-25.572.437a3.3,3.3,0,0,0,.282.183c.731.373,1.442.8,2.2,1.1a60.252,60.252,0,0,0,6.285,1.963c.146.041.2-.019.26-.13a2.035,2.035,0,0,1,1.892-1.152.612.612,0,0,0,.264-.1,6.128,6.128,0,0,1,.752-.383c.167-.057.19-.142.214-.281.029-.162-.068-.205-.183-.258a23.373,23.373,0,0,0-7.121-2.036,7.7,7.7,0,0,0-3.324.234A4.276,4.276,0,0,0-403.487,2539.885Zm16.25,3.5,6.014-5.2c-.278-.156-.523-.291-.764-.431a.282.282,0,0,0-.374.048q-2.311,1.974-4.633,3.936c-.047.041-.091.084-.138.128C-386.818,2542.4-387.046,2542.878-387.237,2543.386Zm16.955-7.165-.008-.07c-.414-.016-.828-.041-1.242-.042a.628.628,0,0,0-.347.118q-2.687,2-5.365,4.01a.522.522,0,0,0-.175.755Zm-6.187,6.516a.288.288,0,0,0,.473.079q3.95-2.714,7.911-5.411c.074-.051.148-.1.22-.156-.117-.195-.215-.062-.3,0q-4.071,2.685-8.14,5.375C-376.361,2542.655-376.41,2542.694-376.469,2542.737Zm-16.4-.442a1.536,1.536,0,0,0-1.148.787,13.481,13.481,0,0,0-1.581,4.194c-.018.092-.031.186-.041.243.4-.875.764-1.8,1.225-2.669S-393.4,2543.156-392.871,2542.295Zm6.1,3.274a.425.425,0,0,0,.482-.094q2.007-1.883,4.024-3.755l1.99-1.855c.077-.073.175-.141.032-.269Zm7.194-2.8c.65-.283,1.255-.545,1.857-.813a.138.138,0,0,0,.051-.116c-.024-.217-.09-.264-.323-.241-.155.015-.309.036-.464.049-.336.027-.671.05-1,.075Z" transform="translate(410.96 -2503.409)" fill="#3e1d6d"/>
          <path id="Trazado_105452" data-name="Trazado 105452" d="M-386.953,2527.758c-.4.091-.809.212-1.224.269-.465.063-.784-.173-1.02-.671a.94.94,0,0,1,.156-1.14,2.774,2.774,0,0,1,1.34-.7.192.192,0,0,1,.26.15c.032.145-.065.213-.187.266a7.327,7.327,0,0,0-.941.433.624.624,0,0,0-.186.941.639.639,0,0,0,.613.305,3.121,3.121,0,0,0,1.327-.479.538.538,0,0,1,.149-.081c.084-.012.206-.035.25.009a.323.323,0,0,1,.054.26c-.081.33-.211.649-.27.982a3.41,3.41,0,0,0-.035.885.86.86,0,0,0,.664.774,2.232,2.232,0,0,0,.772.1,2.407,2.407,0,0,1,1.3.225,2.674,2.674,0,0,0,1.868.121,5.624,5.624,0,0,0,2.467-1.322,1.922,1.922,0,0,0,.308-2.067,2.971,2.971,0,0,0-.325-.522,6.048,6.048,0,0,1-1.225-4.654,1.487,1.487,0,0,1,.152-.436,2.4,2.4,0,0,0,.108-2.3,3.279,3.279,0,0,0-1.156-1.2c-.3-.2-.622-.366-.938-.54-.125-.068-.207-.168-.126-.284a.3.3,0,0,1,.281-.09,5.264,5.264,0,0,1,2.129,1.612,2.438,2.438,0,0,1,.242,2.583,4.392,4.392,0,0,0-.013,3.405,5.6,5.6,0,0,0,.924,1.712,2.285,2.285,0,0,1,.05,2.929,3.861,3.861,0,0,1-.952.77,4.907,4.907,0,0,1-2.89.917,1.868,1.868,0,0,1-.884-.182,3.074,3.074,0,0,0-1.614-.262,1,1,0,0,1-.149-.009,1.492,1.492,0,0,1-1.439-1.838C-387.075,2528.33-387,2528.026-386.953,2527.758Z" transform="translate(408.691 -2504.833)" fill="#3e1d6d"/>
          <path id="Trazado_105453" data-name="Trazado 105453" d="M-398.175,2515.242a55.986,55.986,0,0,1,7.067.356c1.209.14,2.413.331,3.618.5.293.042.46.225.431.453-.034.273-.244.413-.562.37-1.439-.2-2.873-.45-4.317-.572-1.7-.144-3.407-.185-5.112-.246-.664-.024-1.331.019-2,.033a.447.447,0,0,1-.452-.252.352.352,0,0,1,.076-.431.548.548,0,0,1,.3-.135C-398.811,2515.28-398.493,2515.266-398.175,2515.242Z" transform="translate(409.763 -2504.65)" fill="#3e1d6d"/>
          <path id="Trazado_105454" data-name="Trazado 105454" d="M-382,2533.123a7.756,7.756,0,0,1,2.429.16,3.964,3.964,0,0,1,2.759,2.323,10.663,10.663,0,0,1,.419,1.27.314.314,0,0,1-.209.438c-.2.039-.344-.072-.4-.31a4.558,4.558,0,0,0-.992-2.043,3.824,3.824,0,0,0-2.7-1.216,8.357,8.357,0,0,0-3.128.356,4.784,4.784,0,0,0-3.392,3.415c-.013.047-.027.095-.045.141a.32.32,0,0,1-.381.223.3.3,0,0,1-.212-.383,5.356,5.356,0,0,1,1.215-2.4,6.007,6.007,0,0,1,3.523-1.814C-382.745,2533.213-382.37,2533.175-382,2533.123Z" transform="translate(408.538 -2506.523)" fill="#3e1d6d"/>
          <path id="Trazado_105455" data-name="Trazado 105455" d="M-388.681,2514.389a32.74,32.74,0,0,1-5.961-.1c-.163-.018-.367,0-.38-.241-.008-.155.128-.213.425-.184a35.762,35.762,0,0,0,4.6.171,34.064,34.064,0,0,0,7.156-1.034,41.246,41.246,0,0,0,6.131-2.076c.059-.025.118-.048.177-.072.138-.056.29-.105.362.076s-.07.264-.217.324c-.216.089-.431.182-.647.269a42.4,42.4,0,0,1-6.631,2.113A34.719,34.719,0,0,1-388.681,2514.389Z" transform="translate(409.289 -2504.184)" fill="#3e1d6d"/>
          <path id="Trazado_105456" data-name="Trazado 105456" d="M-389.908,2521.33a7.407,7.407,0,0,1-3.668-.62,1.28,1.28,0,0,1-.555-2.076,3.417,3.417,0,0,1,1.221-1,3.839,3.839,0,0,1,2.6-.221,5.391,5.391,0,0,1,2.207.949,2.029,2.029,0,0,1,.807,1.282,1.068,1.068,0,0,1-.546,1.167,4.081,4.081,0,0,1-1.721.5C-389.681,2521.317-389.794,2521.321-389.908,2521.33Zm-.031-.407a4.406,4.406,0,0,0,1.783-.429.725.725,0,0,0,.357-1.05,2,2,0,0,0-.858-.942,4.988,4.988,0,0,0-3.142-.757,2.817,2.817,0,0,0-2.114,1.336.588.588,0,0,0-.051.7,1.677,1.677,0,0,0,.572.541A6.817,6.817,0,0,0-389.939,2520.923Z" transform="translate(409.23 -2504.864)" fill="#3e1d6d"/>
          <path id="Trazado_105457" data-name="Trazado 105457" d="M-389.616,2513.075c-.978.007-2.267.017-3.556.025a.376.376,0,0,1-.207-.025c-.064-.047-.141-.139-.136-.206s.1-.141.169-.175a.567.567,0,0,1,.231-.007,36.525,36.525,0,0,0,6.1-.331,38.839,38.839,0,0,0,8-2.078c.08-.03.16-.059.241-.084.129-.041.247-.034.294.116s-.029.225-.162.272c-.488.171-.974.346-1.462.518a35.691,35.691,0,0,1-6.783,1.658C-387.682,2512.875-388.5,2512.947-389.616,2513.075Z" transform="translate(409.131 -2504.119)" fill="#3e1d6d"/>
          <path id="Trazado_105458" data-name="Trazado 105458" d="M-374.618,2518.616a4.9,4.9,0,0,1-2.712-.435,2.415,2.415,0,0,1-.593-.44.8.8,0,0,1-.056-1.134,2.769,2.769,0,0,1,.741-.617,5.348,5.348,0,0,1,3.2-.641c.3.031.6.021.888.067a1.238,1.238,0,0,1,1.13.894,1.527,1.527,0,0,1-.489,1.619,2.927,2.927,0,0,1-1.516.615C-374.222,2518.577-374.421,2518.594-374.618,2518.616Zm-.062-.395c.347-.064.7-.11,1.041-.2a1.686,1.686,0,0,0,1.047-.677.916.916,0,0,0-.636-1.515c-.305-.053-.619-.049-.929-.076a5.064,5.064,0,0,0-3.114.726.794.794,0,0,0-.474.684c.015.3.269.469.519.6A4.727,4.727,0,0,0-374.679,2518.222Z" transform="translate(407.524 -2504.658)" fill="#3e1d6d"/>
          <path id="Trazado_105459" data-name="Trazado 105459" d="M-390.092,2522.795a13.083,13.083,0,0,1-6.123-1.145c-.151-.066-.235-.171-.179-.332.064-.187.218-.175.371-.121.634.224,1.257.483,1.9.667a11.231,11.231,0,0,0,5.149.263,1.5,1.5,0,0,1,.19-.02c.155-.008.269.047.283.216a.248.248,0,0,1-.247.285Z" transform="translate(409.434 -2505.271)" fill="#3e1d6d"/>
          <path id="Trazado_105460" data-name="Trazado 105460" d="M-395.541,2530.982c.16-.512.287-1.038.487-1.535a6.811,6.811,0,0,1,3.814-3.791c.589-.254,1.218-.416,1.829-.618a.237.237,0,0,1,.144-.022,1.846,1.846,0,0,1,.243.146c-.056.085-.1.217-.173.245-.258.1-.532.148-.795.23a7.713,7.713,0,0,0-3.517,2.133,6.652,6.652,0,0,0-1.571,3.16.407.407,0,0,1-.155.247C-395.37,2531.257-395.505,2531.154-395.541,2530.982Z" transform="translate(409.343 -2505.675)" fill="#3e1d6d"/>
          <path id="Trazado_105461" data-name="Trazado 105461" d="M-391.628,2536.346a4.008,4.008,0,0,1,1.928-3.866c.176-.119.362-.225.546-.329.121-.068.251-.095.328.057s-.011.235-.137.306a4.788,4.788,0,0,0-1.655,1.435,3.6,3.6,0,0,0-.489,2.93,13.593,13.593,0,0,0,.47,1.473c.051.15.09.289-.081.362s-.25-.055-.311-.2A7.317,7.317,0,0,1-391.628,2536.346Z" transform="translate(408.934 -2506.417)" fill="#3e1d6d"/>
          <path id="Trazado_105462" data-name="Trazado 105462" d="M-386.835,2511.434l-1.5.112c-.152.011-.279-.031-.289-.2s.116-.2.258-.213c.966-.088,1.936-.144,2.9-.277a14.762,14.762,0,0,0,3.793-1.072c.152-.065.341-.189.434.046s-.126.278-.279.344A16.866,16.866,0,0,1-386.835,2511.434Z" transform="translate(408.618 -2504.068)" fill="#3e1d6d"/>
          <path id="Trazado_105463" data-name="Trazado 105463" d="M-374.949,2520.282a6.453,6.453,0,0,1-2.019-.16c-.169-.038-.282-.125-.25-.3s.184-.208.347-.189a13.025,13.025,0,0,0,1.43.16,8.23,8.23,0,0,0,3.785-.98c.044-.022.088-.046.132-.066.155-.067.3-.065.377.107s-.018.273-.164.339c-.4.181-.793.378-1.2.533A8.141,8.141,0,0,1-374.949,2520.282Z" transform="translate(407.422 -2505.013)" fill="#3e1d6d"/>
          <path id="Trazado_105464" data-name="Trazado 105464" d="M-371.085,2529.436c-.041.047-.1.164-.161.17a.342.342,0,0,1-.254-.123.971.971,0,0,1-.1-.3,5.522,5.522,0,0,0-4.593-3.94c-.152-.027-.266-.08-.233-.257s.164-.169.3-.146a5.957,5.957,0,0,1,5.011,4.461C-371.11,2529.331-371.1,2529.359-371.085,2529.436Z" transform="translate(407.34 -2505.656)" fill="#3e1d6d"/>
          <path id="Trazado_105465" data-name="Trazado 105465" d="M-376.5,2530.411c.1.046.19.076.269.118a7.2,7.2,0,0,1,3.048,3.352c.176.362.321.739.483,1.107.064.146.055.274-.108.331s-.229-.041-.282-.179a9.957,9.957,0,0,0-1.346-2.519,6.323,6.323,0,0,0-2.043-1.76c-.044-.023-.1-.041-.124-.078a.325.325,0,0,1-.052-.208C-376.635,2530.514-376.556,2530.471-376.5,2530.411Z" transform="translate(407.363 -2506.241)" fill="#3e1d6d"/>
          <path id="Trazado_105466" data-name="Trazado 105466" d="M-398.758,2520.045c.261-.006.523-.014.785-.019a1.2,1.2,0,0,1,.19.015.207.207,0,0,1,.207.244c-.016.143-.122.176-.248.171a6.657,6.657,0,0,0-2.711.406c-.688.271-1.337.64-2,.968a1.526,1.526,0,0,0-.18.112c-.137.092-.278.145-.382-.03s.039-.257.159-.334c.18-.114.361-.225.545-.329A8.459,8.459,0,0,1-398.758,2520.045Z" transform="translate(410.14 -2505.152)" fill="#3e1d6d"/>
          <path id="Trazado_105467" data-name="Trazado 105467" d="M-402.25,2514.64c-.022-.149-.047-.311-.07-.471-.019-.129.016-.228.158-.254a.191.191,0,0,1,.246.17,4.4,4.4,0,0,1-.893,3.849c-.093.111-.2.167-.329.062s-.076-.219.016-.33A3.947,3.947,0,0,0-402.25,2514.64Z" transform="translate(410.148 -2504.51)" fill="#3e1d6d"/>
          <path id="Trazado_105468" data-name="Trazado 105468" d="M-382.366,2536.363a3.746,3.746,0,0,1,1.663.248c.033.012.08.019.094.043.052.088.141.193.124.272-.028.141-.158.146-.292.108a6.919,6.919,0,0,0-.984-.245,3.271,3.271,0,0,0-2.057.45c-.132.077-.256.116-.348-.034s.006-.255.132-.325A3.81,3.81,0,0,1-382.366,2536.363Z" transform="translate(408.154 -2506.863)" fill="#3e1d6d"/>
          <path id="Trazado_105469" data-name="Trazado 105469" d="M-391.013,2524.405a4.656,4.656,0,0,1-2.27-.474c-.141-.067-.271-.141-.184-.314s.23-.1.371-.056a12.552,12.552,0,0,0,1.3.368,3.391,3.391,0,0,0,1.513-.111.557.557,0,0,1,.246-.046c.087.023.212.093.223.159a.278.278,0,0,1-.149.229C-390.308,2524.257-390.662,2524.326-391.013,2524.405Z" transform="translate(409.129 -2505.517)" fill="#3e1d6d"/>
          <path id="Trazado_105470" data-name="Trazado 105470" d="M-406.335,2529.2a2.793,2.793,0,0,1,1.13-2.383.489.489,0,0,1,.223-.112c.077-.006.207.032.226.083.027.073-.024.176-.045.267,0,.011-.021.018-.032.026a2.342,2.342,0,0,0-1.05,2.172.349.349,0,0,1-.109.227.192.192,0,0,1-.188,0A1.294,1.294,0,0,1-406.335,2529.2Z" transform="translate(410.475 -2505.852)" fill="#3e1d6d"/>
          <path id="Trazado_105471" data-name="Trazado 105471" d="M-374.268,2521.541c-.324-.016-.648-.035-.973-.047-.148-.006-.256-.06-.254-.219s.144-.2.273-.2c.176,0,.352.032.529.036a3.7,3.7,0,0,0,1.993-.492.438.438,0,0,1,.331-.04c.137.052.1.263-.054.356A4.193,4.193,0,0,1-374.268,2521.541Z" transform="translate(407.241 -2505.208)" fill="#3e1d6d"/>
          <path id="Trazado_105472" data-name="Trazado 105472" d="M-373.6,2524.533a1.077,1.077,0,0,1,.109.008,2.7,2.7,0,0,1,2.165,1.755.368.368,0,0,1-.039.269c-.022.04-.139.049-.206.035a.214.214,0,0,1-.124-.124,2.328,2.328,0,0,0-1.738-1.5c-.061-.017-.141-.013-.18-.052a.39.39,0,0,1-.131-.232C-373.74,2524.633-373.637,2524.573-373.6,2524.533Z" transform="translate(407.057 -2505.624)" fill="#3e1d6d"/>
          <path id="Trazado_105473" data-name="Trazado 105473" d="M-398.658,2521.7c.073.066.186.12.212.2.043.137-.058.226-.192.25a9.69,9.69,0,0,0-2.341.73.2.2,0,0,1-.3-.1c-.068-.156.029-.251.158-.293q1.033-.348,2.071-.679a2.909,2.909,0,0,1,.353-.07Z" transform="translate(409.947 -2505.327)" fill="#3e1d6d"/>
          <path id="Trazado_105474" data-name="Trazado 105474" d="M-391.415,2527.049c.055.046.16.095.168.155a.311.311,0,0,1-.1.247c-.139.106-.309.17-.457.265a2.311,2.311,0,0,0-1.044,1.365c-.038.139-.119.214-.262.173s-.169-.155-.136-.287a2.433,2.433,0,0,1,.854-1.334,8.554,8.554,0,0,1,.78-.507A1.386,1.386,0,0,1-391.415,2527.049Z" transform="translate(409.103 -2505.888)" fill="#3e1d6d"/>
          <path id="Trazado_105475" data-name="Trazado 105475" d="M-375.641,2526.823a1.989,1.989,0,0,1,1.285.5,2.409,2.409,0,0,1,.615.979c.047.126.038.253-.1.3s-.23-.018-.284-.17a1.591,1.591,0,0,0-1.47-1.182c-.142-.01-.239-.1-.208-.234C-375.788,2526.927-375.68,2526.864-375.641,2526.823Z" transform="translate(407.275 -2505.865)" fill="#3e1d6d"/>
          <path id="Trazado_105476" data-name="Trazado 105476" d="M-398.9,2534.7a2.773,2.773,0,0,1,.866-2.105c.109-.1.233-.164.351-.035s.046.239-.065.344a2.281,2.281,0,0,0-.728,1.619c0,.035-.007.071-.006.106,0,.154-.074.267-.22.243C-398.792,2534.858-398.862,2534.737-398.9,2534.7Z" transform="translate(409.696 -2506.458)" fill="#3e1d6d"/>
          <path id="Trazado_105477" data-name="Trazado 105477" d="M-380.727,2523.874c.021.23-.126.323-.311.245a2,2,0,0,0-.925-.179,1.875,1.875,0,0,0-.891.306c-.121.077-.238.118-.328-.03s-.013-.241.107-.319a2.145,2.145,0,0,1,2.176-.162A.749.749,0,0,1-380.727,2523.874Z" transform="translate(408.051 -2505.518)" fill="#3e1d6d"/>
          <path id="Trazado_105478" data-name="Trazado 105478" d="M-404.724,2531.1c.073-.38.14-.745.215-1.108a.2.2,0,0,1,.291-.158c.13.045.146.157.1.28a2.251,2.251,0,0,0,.142,1.865.193.193,0,0,1-.073.291.189.189,0,0,1-.293-.108C-404.472,2531.811-404.593,2531.46-404.724,2531.1Z" transform="translate(410.306 -2506.178)" fill="#3e1d6d"/>
          <path id="Trazado_105479" data-name="Trazado 105479" d="M-381.426,2523.084c.027.228-.12.31-.312.254a4.024,4.024,0,0,0-.757-.175,1.524,1.524,0,0,0-.962.28c-.124.082-.252.134-.346-.023s.013-.251.135-.328a2.081,2.081,0,0,1,2.047-.152A.977.977,0,0,1-381.426,2523.084Z" transform="translate(408.116 -2505.436)" fill="#3e1d6d"/>
          <path id="Trazado_105480" data-name="Trazado 105480" d="M-390.388,2519.135a.486.486,0,0,1,.533.455.508.508,0,0,1-.469.529.5.5,0,0,1-.532-.464A.486.486,0,0,1-390.388,2519.135Z" transform="translate(408.852 -2505.058)" fill="#3e1d6d"/>
          <path id="Trazado_105481" data-name="Trazado 105481" d="M-374.454,2516.726a.482.482,0,0,1,.534.454.492.492,0,0,1-.457.536.487.487,0,0,1-.533-.459A.476.476,0,0,1-374.454,2516.726Z" transform="translate(407.18 -2504.806)" fill="#3e1d6d"/>
        </g>
        <g id="Grupo_59599" data-name="Grupo 59599" transform="translate(104.992 157.769)" opacity="0.86">
          <path id="Trazado_105482" data-name="Trazado 105482" d="M-284.522,2546.177h-45.012a.545.545,0,0,1,.43-.469,32.76,32.76,0,0,0,5.024-2.282,1.018,1.018,0,0,0,.579-.75c.037-.19.068-.38.091-.571a1.885,1.885,0,0,1,1.788-1.874,12.06,12.06,0,0,1,2.627-.041,8.341,8.341,0,0,0,.982-.021.49.49,0,0,0,.508-.576.871.871,0,0,1,.487-.87.992.992,0,0,0,.384-.573,7.982,7.982,0,0,0,.063-3.191,17.7,17.7,0,0,0-1.1-4.394c-.423-.947-1-1.826-1.507-2.733-.227-.4-.454-.808-.7-1.2a1.314,1.314,0,0,0-.416-.422,3.791,3.791,0,0,1-2.013-3.358c-.043-1.128-.107-2.256-.167-3.383a15.5,15.5,0,0,1,.824-6.068c.375-1.063.628-2.174,1.063-3.211a12.059,12.059,0,0,1,4.952-5.583,12,12,0,0,1,4.614-1.694,6.437,6.437,0,0,1,2.577.238,24.853,24.853,0,0,1,6.475,2.445c.39.229.765.485,1.153.721a1.045,1.045,0,0,0,.257.075c.02-.086.043-.173.056-.26.011-.069.01-.14.014-.209l.124-.086a1.258,1.258,0,0,0,.131.255,15.247,15.247,0,0,1,3.158,5.96,13.707,13.707,0,0,1,.176,6.028c-.141.746-.385,1.474-.527,2.222a10.7,10.7,0,0,0-.207,1.832,14.348,14.348,0,0,1-.276,3.019,1.739,1.739,0,0,1-1.082,1.334.427.427,0,0,0-.279.4,14.514,14.514,0,0,1-1.682,5.26,1.278,1.278,0,0,0-.145.552,36.89,36.89,0,0,0,.109,5.581c.01.086.021.172.033.258.038.279.191.387.476.381a13.271,13.271,0,0,1,1.761.023,4.667,4.667,0,0,1,3.445,2.062,5.714,5.714,0,0,0,4.114,2.462c1.039.154,2.085.274,3.131.37a3.733,3.733,0,0,1,2.964,1.667C-284.921,2545.73-284.724,2545.931-284.522,2546.177Zm-33.567-22.087a2.1,2.1,0,0,1-.2-.364c-.187-.607-.375-1.214-.536-1.828-.09-.339-.126-.382-.468-.282-.3.09-.414.04-.535-.264-.061-.151-.106-.31-.159-.465-.173-.5-.329-1.009-.525-1.5a.656.656,0,0,0-1.016-.346,1.046,1.046,0,0,0-.543,1.017q.013,1.548.057,3.1a2.8,2.8,0,0,0,.515,1.544,4.793,4.793,0,0,0,1.862,1.523.789.789,0,0,0,.593-.043c.413-.186.61-.142.748.291a6.016,6.016,0,0,1,.255,1.066,7.789,7.789,0,0,0,1.112,3.262,18,18,0,0,0,7.02,6.48,3.19,3.19,0,0,0,2.774.111,9.832,9.832,0,0,0,3.209-2.232,14.523,14.523,0,0,0,3.8-5.938c.243-.779.369-1.594.536-2.4.055-.258.061-.554.381-.614a1.155,1.155,0,0,0,.938-1.01,13.748,13.748,0,0,0,.3-3.22c0-.021-.027-.042-.05-.075-.362.394-.449.991-.986,1.277-.005-.1-.009-.157-.011-.213-.041-1.215-.049-2.432-.131-3.644a25.911,25.911,0,0,0-1.259-6.839,6.321,6.321,0,0,0-1.75-2.852,6.084,6.084,0,0,0-4.033-1.354,7.193,7.193,0,0,0-5.206,2.232,38.785,38.785,0,0,0-4.258,5.331,2.179,2.179,0,0,0-.384,1.165c.1-.049.165-.073.222-.106a5.151,5.151,0,0,1,3.18-.641,3.592,3.592,0,0,1,2,.756,3.979,3.979,0,0,1,.475.571l-.076.1c-.229-.058-.459-.111-.686-.176a7.271,7.271,0,0,0-4.689.115,1.108,1.108,0,0,0-.786,1.061,3.482,3.482,0,0,1-.149.883C-317.048,2521.06-317.561,2522.543-318.089,2524.09Zm1.25,7.673a.486.486,0,0,0-.021.1.943.943,0,0,0,.032.14,14.881,14.881,0,0,1,.508,7.176.692.692,0,0,0,.132.473c.3.411.64.8.965,1.192a5.239,5.239,0,0,0,1.7,1.458,11.764,11.764,0,0,0,3.231,1.067,11.192,11.192,0,0,0,7.223-1.258,3.042,3.042,0,0,0,1.735-3.191c-.034-.385-.067-.77-.078-1.156-.038-1.34-.064-2.682-.1-4.023-.005-.2-.04-.406-.07-.689-.409.491-.773.9-1.107,1.334a11.015,11.015,0,0,1-3.777,3.087,4.1,4.1,0,0,1-3.942.077,14.05,14.05,0,0,1-2.118-1.344,24.935,24.935,0,0,1-3.738-3.78C-316.446,2532.212-316.634,2532-316.838,2531.763Z" transform="translate(329.534 -2502.867)" fill="#3e1d6d"/>
          <path id="Trazado_105483" data-name="Trazado 105483" d="M-300.662,2519.686a2.885,2.885,0,0,1,2.215,1.061.419.419,0,0,1,.026.6,1.726,1.726,0,0,1-1.005.639,3.913,3.913,0,0,1-3.089-.452c-.508-.308-.546-.6-.151-1.05A2.429,2.429,0,0,1-300.662,2519.686Zm.252,2a3.963,3.963,0,0,0,.547-.008.312.312,0,0,0,.212-.172,5.586,5.586,0,0,0,.117-.562.466.466,0,0,0-.291-.584,2.389,2.389,0,0,0-2.325.316c-.278.244-.268.407.051.607A2.9,2.9,0,0,0-300.41,2521.682Z" transform="translate(326.745 -2504.63)" fill="#3e1d6d"/>
          <path id="Trazado_105484" data-name="Trazado 105484" d="M-309.592,2521.908a6.621,6.621,0,0,1-2.815-.678c-.286-.129-.349-.339-.149-.584a2.87,2.87,0,0,1,.746-.705,3.528,3.528,0,0,1,2.417-.318,2.156,2.156,0,0,1,1.514,1.43c.1.229-.039.387-.238.49A3.243,3.243,0,0,1-309.592,2521.908Zm.585-1.611c-.123-.087-.238-.225-.38-.26a2.7,2.7,0,0,0-2.169.31.88.88,0,0,0-.413.5c-.032.267.277.35.491.4.587.143,1.182.26,1.776.374.192.036.3-.089.349-.27.065-.23.141-.458.215-.686C-309.1,2520.571-309.068,2520.472-309.007,2520.3Z" transform="translate(327.766 -2504.615)" fill="#3e1d6d"/>
          <path id="Trazado_105485" data-name="Trazado 105485" d="M-302.843,2519.628a1.46,1.46,0,0,1,.893-1.033,5.866,5.866,0,0,1,3.507-.382c.284.049.536.34.771.555.064.059.045.263,0,.369a.322.322,0,0,1-.3.077,5.758,5.758,0,0,0-3.551.058C-301.949,2519.383-302.372,2519.5-302.843,2519.628Z" transform="translate(326.735 -2504.464)" fill="#3e1d6d"/>
          <path id="Trazado_105486" data-name="Trazado 105486" d="M-310.2,2530.844l.2.8a.826.826,0,0,1-.415-1.192.447.447,0,0,1,.685-.078,7.209,7.209,0,0,0,2.374,1.027,6.621,6.621,0,0,0,3.94-.375c.465-.183.9-.426,1.36-.637a3.4,3.4,0,0,1,.354-.114,1.109,1.109,0,0,1-.687.842,8.089,8.089,0,0,1-6.727.1c-.33-.152-.667-.289-1-.434Z" transform="translate(327.542 -2505.739)" fill="#3e1d6d"/>
          <path id="Trazado_105487" data-name="Trazado 105487" d="M-309.786,2538.672a3.859,3.859,0,0,1,.451.242,4.938,4.938,0,0,0,3.549,1.021,5.59,5.59,0,0,0,2.313-.928,1.01,1.01,0,0,1,.277-.151.251.251,0,0,1,.22.057.279.279,0,0,1-.012.23.536.536,0,0,1-.165.158,5.064,5.064,0,0,1-3.809,1.007,3.9,3.9,0,0,1-2.04-.645,9.69,9.69,0,0,1-.885-.842Z" transform="translate(327.474 -2506.621)" fill="#3e1d6d"/>
          <path id="Trazado_105488" data-name="Trazado 105488" d="M-307.455,2525.353a4.425,4.425,0,0,1-.335.365.89.89,0,0,0-.191,1.359c.171.2.292.184.422-.039.253-.435.355-.489.8-.27a2.208,2.208,0,0,1,.7.521c.173.2.067.347-.209.354-.432.01-.865.024-1.3.014a1.094,1.094,0,0,1-.413-.121,1.042,1.042,0,0,1-.683-1.008,1.445,1.445,0,0,1,1.052-1.214A.713.713,0,0,1-307.455,2525.353Z" transform="translate(327.346 -2505.22)" fill="#3e1d6d"/>
          <path id="Trazado_105489" data-name="Trazado 105489" d="M-311.128,2531.207a1.588,1.588,0,0,1-.448-2.015c.286-.472.661-.58,1.245-.31C-311.608,2529.317-311.37,2530.254-311.128,2531.207Z" transform="translate(327.671 -2505.579)" fill="#3e1d6d"/>
          <path id="Trazado_105490" data-name="Trazado 105490" d="M-300.3,2532.185c.054-.289.1-.578.162-.865.162-.815.014-1.065-.786-1.323a1.149,1.149,0,0,1-.119-.063,1.022,1.022,0,0,1,.929-.114.6.6,0,0,1,.415.574,3.711,3.711,0,0,1-.506,1.807Z" transform="translate(326.546 -2505.686)" fill="#3e1d6d"/>
          <path id="Trazado_105491" data-name="Trazado 105491" d="M-303.724,2524.7a1.877,1.877,0,0,1,1.524,1.736l-1.6-1.664Z" transform="translate(326.836 -2505.156)" fill="#3e1d6d"/>
          <path id="Trazado_105492" data-name="Trazado 105492" d="M-320.606,2521.926a6.16,6.16,0,0,1-.032,2.261C-321.183,2523.741-321.033,2522.538-320.606,2521.926Z" transform="translate(328.638 -2504.865)" fill="#3e1d6d"/>
          <path id="Trazado_105493" data-name="Trazado 105493" d="M-299.278,2529.748c-.364-1.054-1.243-.783-2.015-.8a1.4,1.4,0,0,1,1.6-.248A.855.855,0,0,1-299.278,2529.748Z" transform="translate(326.573 -2505.561)" fill="#3e1d6d"/>
          <path id="Trazado_105494" data-name="Trazado 105494" d="M-303.23,2527.7c-.135-.026-.351.042-.366-.223s.272-.465.618-.467a.26.26,0,0,1,.3.3C-302.682,2527.56-302.874,2527.7-303.23,2527.7Z" transform="translate(326.814 -2505.398)" fill="#3e1d6d"/>
          <path id="Trazado_105495" data-name="Trazado 105495" d="M-306.6,2530.316a1.8,1.8,0,0,1,.389-1.688A2.909,2.909,0,0,1-306.6,2530.316Z" transform="translate(327.136 -2505.568)" fill="#3e1d6d"/>
          <path id="Trazado_105496" data-name="Trazado 105496" d="M-304.254,2530.343a2.46,2.46,0,0,1-.444-1.648A1.825,1.825,0,0,1-304.254,2530.343Z" transform="translate(326.931 -2505.575)" fill="#3e1d6d"/>
        </g>
      </g>
      <g id="Grupo_59602" data-name="Grupo 59602" transform="translate(0.838 135.824)">
        <path id="Trazado_105497" data-name="Trazado 105497" d="M-413.1,2492.2c-2.986,13.842-12.4,20.51-18.623,23.9-4.726,2.571-18.947,6.78-32.36,8.521l-5.1,1.818c-2.436,6.174-2.66,25.853-2.66,25.853s.292.864.628,2.29v.012c.988,4.108,2.413,12.886-1.19,19.532-4.861,8.981-21.89,26.6-34.8,24.248-8.542-1.56-19.173-13.089-21.048-20.767s5.7-18.051,5.7-18.051c10.855-5.995,27.694-36.483,28.816-40.042,1.044-3.3,2.873-9.317,4.928-11.663l.494-.494c2.245-1.875,16.468-7.117,35.181-13.853s30.489-15.155,30.489-15.155C-413.663,2481.349-413.1,2492.2-413.1,2492.2Z" transform="translate(529.672 -2478.352)" fill-rule="evenodd" fill="url(#linear-gradient-20)"/>
        <path id="Trazado_105498" data-name="Trazado 105498" d="M-483.6,2507.356s4.8,10.415,13.595,13.034c0,0,26.891-4.546,41.267-8.731,20.245-5.894,20.35-19.458,20.35-19.458s1.468-11.3-9.542-13.845c0,0-9.775,6.221-28.031,13.518C-462.782,2498.6-477.048,2503.333-483.6,2507.356Z" transform="translate(524.958 -2478.353)" fill-rule="evenodd" fill="url(#linear-gradient-21)"/>
        <g id="Grupo_59601" data-name="Grupo 59601" transform="translate(79.417)">
          <path id="Trazado_105499" data-name="Trazado 105499" d="M-403.919,2492.182l-.011.022a.707.707,0,0,1-.1.079c-7.476,6.51-18.635,12.079-27.021,11.147a17.78,17.78,0,0,1-5.444-1.448c-4.512-2.1-6.062-5.849-2.975-8.655.113-.1.247-.213.381-.314a69.292,69.292,0,0,1,8.15-5.209c.225-.134.46-.269.685-.4,1.953-1.112,4-2.245,5.971-3.323,5.737-3.122,10.811-5.725,10.811-5.725C-399.776,2481.462-403.717,2491.688-403.919,2492.182Z" transform="translate(441.083 -2478.352)" fill-rule="evenodd" fill="url(#linear-gradient-22)"/>
          <path id="Trazado_105500" data-name="Trazado 105500" d="M-427.425,2487.974s10.384-6.455,16.137-8C-411.288,2479.976-420.922,2486.45-427.425,2487.974Z" transform="translate(439.651 -2478.522)" fill="#fff" fill-rule="evenodd"/>
          <path id="Trazado_105501" data-name="Trazado 105501" d="M-404.031,2493.39c-7.476,6.51-18.635,12.079-27.021,11.147-8.419-.943-12.538-6.365-8.419-10.1a61.4,61.4,0,0,1,8.532-5.523c-3.985,2.437-8.251,5.49-8.027,7.3.427,3.368,3.463,8.232,14.689,6.829C-413.747,2501.723-405.076,2494.209-404.031,2493.39Z" transform="translate(441.084 -2479.459)" fill="#e37c69" fill-rule="evenodd"/>
        </g>
        <path id="Trazado_105502" data-name="Trazado 105502" d="M-471.217,2557.995c.988,4.108,2.413,12.886-1.19,19.532-4.861,8.981-21.89,26.6-34.8,24.248-8.542-1.56-19.173-13.089-21.048-20.767s5.7-18.051,5.7-18.051c10.855-5.995,27.694-36.483,28.816-40.042,1.044-3.3,2.873-9.317,4.928-11.663l.494-.494c2.907,10.563,19.128,19.083,19.128,19.083-2.436,6.174-2.66,25.853-2.66,25.853s.292.864.628,2.29Z" transform="translate(529.672 -2481.75)" fill-rule="evenodd" opacity="0.2" fill="url(#linear-gradient-23)" style="mix-blend-mode: multiply;isolation: isolate"/>
        <path id="Trazado_105503" data-name="Trazado 105503" d="M-455.07,2529.191l-6.58.375s-4.631.237-9.822-3.552c0,0,3.248,7.742,7.587,7.742Z" transform="translate(523.687 -2483.35)" fill="#cc5e6e" fill-rule="evenodd"/>
        <path id="Trazado_105504" data-name="Trazado 105504" d="M-528.684,2588.154s8.141,10.313,21.877,6.983c12-6.874,13.876-27.823,13.876-27.823s-7.483-11.5-17.727-8.641C-510.659,2558.674-535.266,2577.02-528.684,2588.154Z" transform="translate(529.803 -2486.727)" fill-rule="evenodd" fill="url(#linear-gradient-21)" style="mix-blend-mode: soft-light;isolation: isolate"/>
        <circle id="Elipse_4390" data-name="Elipse 4390" cx="1.843" cy="1.843" r="1.843" transform="translate(47.695 37.235)" fill="#ffd8cb" style="mix-blend-mode: soft-light;isolation: isolate"/>
      </g>
      <g id="Grupo_59604" data-name="Grupo 59604" transform="translate(186.378 203.119)">
        <path id="Trazado_105505" data-name="Trazado 105505" d="M-230.472,2689.112c-3.368.752-14.032-2.155-20.116-7.016s-13.471-45.475-14.875-48.562-17.029-21.3-17.029-21.3a.142.142,0,0,0-.055-.01c-.865-.225-12.338-3.166-17.322-5.894a.034.034,0,0,0-.022-.011c-5.848-3.233-16.636-19.612-20.868-31.881v-.011a26.293,26.293,0,0,1-1.762-8.891c.37-11.046,9.721-12.73,12.527-11.787s22.463,24.135,29.243,30.253c6.87,6.219,11.731,10.53,13.605,12.4l.045.044c2.111,2.021,21.879,16.806,26.9,19.219a10.65,10.65,0,0,0,9.732-.562s10.474,10.1,11.966,32.554S-227.1,2688.36-230.472,2689.112Z" transform="translate(322.528 -2553.53)" fill-rule="evenodd" fill="url(#linear-gradient-20)"/>
        <g id="Grupo_59603" data-name="Grupo 59603" transform="translate(0.006 0.224)">
          <path id="Trazado_105506" data-name="Trazado 105506" d="M-290.854,2578.566c-1.01,1.976-4.119,4.434-8.812,4.7a20.069,20.069,0,0,1-10.7-2.739,25.772,25.772,0,0,1-10.126-10.339,25.565,25.565,0,0,1-2.02-4.579.066.066,0,0,0-.011-.045c2.705-12.022,12.527-11.787,12.527-11.787l2.48,2.526h.012l12,12.213.864.875s2.986,3.266,3.851,6.264A3.911,3.911,0,0,1-290.854,2578.566Z" transform="translate(322.521 -2553.78)" fill-rule="evenodd" fill="url(#linear-gradient-22)"/>
          <path id="Trazado_105507" data-name="Trazado 105507" d="M-290.853,2579.952c-1.01,1.976-4.119,4.434-8.812,4.7a20.069,20.069,0,0,1-10.7-2.739,25.772,25.772,0,0,1-10.126-10.339,25.564,25.564,0,0,1-2.02-4.579c.314.718,4.905,11.034,14.021,14.728,9.441,3.839,16.76-1.392,16.928-4.389.113-2.044-2.346-5.456-3.94-7.431l.864.875s2.986,3.266,3.851,6.264A3.911,3.911,0,0,1-290.853,2579.952Z" transform="translate(322.52 -2555.166)" fill="#e37c69" fill-rule="evenodd"/>
          <path id="Trazado_105508" data-name="Trazado 105508" d="M-304.653,2562.947s4.02,5.692,6.92,6.552C-297.733,2569.5-300.16,2564.608-304.653,2562.947Z" transform="translate(320.647 -2554.741)" fill="#fff" fill-rule="evenodd"/>
        </g>
        <path id="Trazado_105509" data-name="Trazado 105509" d="M-227.818,2694.135c-3.368.752-14.032-2.155-20.116-7.016s-13.471-45.475-14.875-48.562-17.029-21.3-17.029-21.3-12.191-3.064-17.377-5.9c.6.213,11.3,4,19.656,3.031,8.576-.988,13.066-12.954,13.066-12.954l.045.044c1.022.8,17.467,13.785,26.9,19.219a10.65,10.65,0,0,0,9.732-.562s10.474,10.1,11.966,32.554S-224.451,2693.383-227.818,2694.135Z" transform="translate(319.874 -2558.553)" fill-rule="evenodd" opacity="0.2" fill="url(#linear-gradient-27)" style="mix-blend-mode: multiply;isolation: isolate"/>
        <path id="Trazado_105510" data-name="Trazado 105510" d="M-286.8,2603.19c-.613,1.113,3.956,7.854,10.909,8.7s13.925-9.939,12.488-11.315-8.486-7.594-12.241-7.33S-284.558,2599.121-286.8,2603.19Z" transform="translate(318.788 -2557.693)" fill-rule="evenodd" fill="url(#linear-gradient-21)"/>
        <path id="Trazado_105511" data-name="Trazado 105511" d="M-267.472,2612.6a1.867,1.867,0,0,1-1.867,1.867,1.868,1.868,0,0,1-1.868-1.867,1.868,1.868,0,0,1,1.868-1.867A1.867,1.867,0,0,1-267.472,2612.6Z" transform="translate(317.147 -2559.528)" fill="#ffd8cb" fill-rule="evenodd" style="mix-blend-mode: soft-light;isolation: isolate"/>
        <path id="Trazado_105512" data-name="Trazado 105512" d="M-282.34,2614.678c-.865-.225-12.338-3.166-17.322-5.894a.034.034,0,0,0-.022-.011c-5.848-3.233-16.636-19.612-20.868-31.881,0,0,14.353,20.5,20.628,26.69C-293.875,2609.531-283.318,2614.33-282.34,2614.678Z" transform="translate(322.321 -2555.979)" fill-rule="evenodd" opacity="0.3" fill="url(#linear-gradient-2)" style="mix-blend-mode: multiply;isolation: isolate"/>
        <path id="Trazado_105513" data-name="Trazado 105513" d="M-234.693,2647.558s7.433,5.735,12.019,6.3,15.991-3.087,16.463-10.1-16.092-15.631-23.806-14.691S-238.153,2645.146-234.693,2647.558Z" transform="translate(313.536 -2561.442)" fill-rule="evenodd" fill="url(#linear-gradient-21)"/>
        <path id="Trazado_105514" data-name="Trazado 105514" d="M-258.778,2642.906l15.135,11.164-12.829-1.878Z" transform="translate(315.843 -2562.901)" fill="#cc5e6e" fill-rule="evenodd"/>
      </g>
      <path id="Trazado_105515" data-name="Trazado 105515" d="M-321.492,2566.223s.262-3.261.841-3.276,12.187,5.3,15,12.483-.313,6.03-1.315,5.581S-315.814,2577.284-321.492,2566.223Z" transform="translate(508.798 -2351.398)" fill-rule="evenodd" fill="url(#linear-gradient-31)" style="mix-blend-mode: screen;isolation: isolate"/>
      <path id="Trazado_105516" data-name="Trazado 105516" d="M-402.345,2491.02s-15.412,3.165-19.67,5.977-4.781,4.586-4.557,5.193,15.509-2.369,24.547-9.919Z" transform="translate(519.82 -2343.856)" fill-rule="evenodd" fill="url(#linear-gradient-31)" style="mix-blend-mode: screen;isolation: isolate"/>
    </g>
  </g>
</svg>
