<svg xmlns="http://www.w3.org/2000/svg" xmlns:xlink="http://www.w3.org/1999/xlink" width="400.223" height="339.069" viewBox="0 0 400.223 339.069">
  <defs>
    <linearGradient id="linear-gradient" x1="2.455" y1="-1.467" x2="1.629" y2="-0.712" gradientUnits="objectBoundingBox">
      <stop offset="0" stop-color="#502f26"/>
      <stop offset="1" stop-color="#3b221d"/>
    </linearGradient>
    <linearGradient id="linear-gradient-2" x1="22.404" y1="-170.12" x2="22.549" y2="-169.313" gradientUnits="objectBoundingBox">
      <stop offset="0" stop-color="#c9926a"/>
      <stop offset="1" stop-color="#c9926a" stop-opacity="0"/>
    </linearGradient>
    <linearGradient id="linear-gradient-3" x1="5.882" y1="-1011.309" x2="6.853" y2="-1011.309" xlink:href="#linear-gradient"/>
    <linearGradient id="linear-gradient-4" x1="-2505.75" y1="-564.386" x2="-2505.605" y2="-563.569" xlink:href="#linear-gradient-2"/>
    <linearGradient id="linear-gradient-5" x1="-2632.52" y1="-1377.82" x2="-2631.557" y2="-1377.82" xlink:href="#linear-gradient"/>
    <linearGradient id="linear-gradient-6" x1="6.459" y1="-7.191" x2="4.357" y2="-4.65" xlink:href="#linear-gradient"/>
  </defs>
  <g id="Grupo_59585" data-name="Grupo 59585" transform="translate(-56.123 -217.911)">
    <path id="Trazado_105306" data-name="Trazado 105306" d="M674.9,585.535a18.773,18.773,0,0,0-.261-2L672.5,572.094c-1.909-10.246-1.736-26.979.386-37.183l11.344-54.559c2.121-10.2,3.857-21.821,3.857-25.815s-1.225-7.26-2.722-7.26-7.453-7.1-13.235-15.768l-17.095-25.643c-5.782-8.672-15.209-12.7-20.949-8.961s-8.765,15.169-6.721,25.389l1.643,8.215c2.044,10.22,1.095,26.7-2.11,36.615L619.5,490.053c-3.2,9.918-3.248,26.161-.1,36.1l.343,1.082a278.25,278.25,0,0,1,8.422,36.822l2.78,19.353,3.221,47.376h56.184Z" transform="translate(-234.002 -73.803)" fill="#f7c8a8"/>
    <path id="Trazado_105307" data-name="Trazado 105307" d="M140.405,484.511a267.977,267.977,0,0,1-11.345-26.774c-2.5-7.238-9.643-17.244-15.882-22.235s-8.078-13.772-4.085-19.513,7.261-13.909,7.261-18.152-3.063-7.714-6.807-7.714-12,6.764-18.348,15.03L75.255,425.916c-6.347,8.267-11.541,17.686-11.541,20.93s2.278,14.117,5.063,24.161l15.287,55.142c2.785,10.044,2.689,26.452-.212,36.463l-4.879,16.836a18.349,18.349,0,0,0-.592,2.87L56.123,628.536H110.3l13.437-44.323-.744-.08a21.519,21.519,0,0,0,1.958-4.772l5.5-20.29c2.729-10.059,7.617-21.148,10.861-24.643s5.9-13.092,5.9-21.328S144.149,492,140.405,484.511Z" transform="translate(0 -71.557)" fill="#f8c8a6"/>
    <g id="Grupo_59584" data-name="Grupo 59584" transform="translate(105.578 218.589)">
      <g id="Grupo_59577" data-name="Grupo 59577">
        <rect id="Rectángulo_5890" data-name="Rectángulo 5890" width="311.3" height="243.232" rx="32.514" fill="#414042" stroke="#414042" stroke-miterlimit="10" stroke-width="1.355"/>
        <rect id="Rectángulo_5891" data-name="Rectángulo 5891" width="260.476" height="192.71" transform="translate(25.412 24.353)" fill="#fff"/>
      </g>
      <rect id="Rectángulo_5892" data-name="Rectángulo 5892" width="260.476" height="147.106" transform="translate(25.412 24.353)" fill="#bb83ff" opacity="0.31"/>
      <path id="Trazado_105308" data-name="Trazado 105308" d="M212.407,533.657v15.092l9.87-7.546Z" transform="translate(-170.774 -350.022)" fill="#ef5241"/>
      <rect id="Rectángulo_5893" data-name="Rectángulo 5893" width="191.872" height="15.801" transform="translate(57.374 182.993)" fill="#fff" stroke="#bd1e2d" stroke-miterlimit="10" stroke-width="1.355"/>
      <path id="Trazado_105309" data-name="Trazado 105309" d="M583.654,547.975l-9.277-5.28v-2.079l9.277-5.759Z" transform="translate(-321.773 -350.523)" fill="#ef5241"/>
      <rect id="Rectángulo_5894" data-name="Rectángulo 5894" width="1.579" height="3.849" transform="translate(263.46 189.256)" fill="#ef5241"/>
      <rect id="Rectángulo_5895" data-name="Rectángulo 5895" width="1.579" height="8.848" transform="translate(265.846 186.664)" fill="#ef5241"/>
      <rect id="Rectángulo_5896" data-name="Rectángulo 5896" width="1.579" height="11.177" transform="translate(268.216 185.499)" fill="#ef5241"/>
      <rect id="Rectángulo_5897" data-name="Rectángulo 5897" width="127.125" height="11.177" transform="translate(59.637 185.124)" fill="#ef5241"/>
      <g id="Grupo_59583" data-name="Grupo 59583" transform="translate(92.324 38.444)">
        <path id="Trazado_105310" data-name="Trazado 105310" d="M334.548,344.469c3.27,1.04,14.746,6.779,17.961,7.967,1.048,2.027.209,2.865-1.4,2.725s-11.042-1.049-14.537-3.564S331.473,343.49,334.548,344.469Z" transform="translate(-313.369 -309.497)" fill="#f18415"/>
        <path id="Trazado_105311" data-name="Trazado 105311" d="M333.694,434.258l-5.324-32.222c0-3.845,9.085,3.256,9.085,3.256l.808,25.839C338.388,434.1,334.592,435.715,333.694,434.258Z" transform="translate(-311.472 -333.083)" fill="#861729"/>
        <path id="Trazado_105312" data-name="Trazado 105312" d="M334.236,496.187l-1.605.509-1.433-.509V493.4h3.039Z" transform="translate(-312.652 -371.673)" fill="#e8c0a8"/>
        <path id="Trazado_105313" data-name="Trazado 105313" d="M330.356,474.722s1.29-15.812,1.876-18.074,2.534-8.507,3.368-8.6a3.59,3.59,0,0,1,3.056,3.243c.063,2.021-4.157,22.983-4.5,24.374S330.285,475.574,330.356,474.722Z" transform="translate(-312.3 -352.75)" fill="#861729"/>
        <path id="Trazado_105314" data-name="Trazado 105314" d="M330.416,498.014l-.962,1.613a.793.793,0,0,0,.681,1.2h13.791l-.9-1.388-9.592-1.425S331.474,498.614,330.416,498.014Z" transform="translate(-311.877 -373.597)" fill="#b65314"/>
        <path id="Trazado_105315" data-name="Trazado 105315" d="M318.153,496.187l-1.605.509-1.434-.509V493.4h3.039Z" transform="translate(-305.943 -371.673)" fill="#e8c0a8"/>
        <path id="Trazado_105316" data-name="Trazado 105316" d="M463.895,333.494,445.09,345.543l2.849,4.559L461.453,344Z" transform="translate(-360.163 -304.966)" fill="#fdfeff"/>
        <g id="Grupo_59579" data-name="Grupo 59579" transform="translate(32.022 6.205)">
          <rect id="Rectángulo_5898" data-name="Rectángulo 5898" width="62.556" height="51.173" rx="2.84" fill="#296b8c"/>
          <rect id="Rectángulo_5899" data-name="Rectángulo 5899" width="58.981" height="48.249" rx="2.678" transform="translate(1.788 1.462)" fill="#b4e1fa"/>
          <g id="Grupo_59578" data-name="Grupo 59578" transform="translate(4.405 19.349)">
            <path id="Trazado_105317" data-name="Trazado 105317" d="M373.521,346.589l-11.644,19.648H386.07l-11.644-19.648A.526.526,0,0,0,373.521,346.589Z" transform="translate(-361.877 -335.876)" fill="#20496b"/>
            <path id="Trazado_105318" data-name="Trazado 105318" d="M409.162,328.65l-17.84,30.1h36.585l-17.84-30.1A.526.526,0,0,0,409.162,328.65Z" transform="translate(-374.16 -328.392)" fill="#296b8c"/>
          </g>
          <circle id="Elipse_4389" data-name="Elipse 4389" cx="5.844" cy="5.844" r="5.844" transform="matrix(0.652, -0.759, 0.759, 0.652, 19.052, 15.702)" fill="#296b8c"/>
          <rect id="Rectángulo_5900" data-name="Rectángulo 5900" width="58.981" height="48.249" rx="2.678" transform="translate(1.788 1.462)" fill="none" stroke="#20496b" stroke-miterlimit="10" stroke-width="1.324"/>
        </g>
        <path id="Trazado_105319" data-name="Trazado 105319" d="M319.183,433.979l-2.918-32.528c.282-3.835,11.049,3.921,11.049,3.921L323.972,431.2C323.876,434.171,319.971,435.5,319.183,433.979Z" transform="translate(-306.423 -332.871)" fill="#9e1a32"/>
        <path id="Trazado_105320" data-name="Trazado 105320" d="M314.273,474.722s1.29-15.812,1.876-18.074,2.534-8.507,3.368-8.6a3.59,3.59,0,0,1,3.056,3.243c.063,2.021-4.157,22.983-4.5,24.374S314.2,475.574,314.273,474.722Z" transform="translate(-305.591 -352.75)" fill="#9e1a32"/>
        <path id="Trazado_105321" data-name="Trazado 105321" d="M326.443,335.954c-.526-.4-.956-.351-1.392-.819l-1.124-11,4.616-.063,1.813,10.98C329.337,336.165,327.862,337.024,326.443,335.954Z" transform="translate(-309.618 -301.036)" fill="#e5a98d"/>
        <g id="Grupo_59580" data-name="Grupo 59580" transform="translate(79.636 58.713)">
          <path id="Trazado_105322" data-name="Trazado 105322" d="M436.013,385.284h0Z" transform="translate(-436.013 -385.284)" fill="#fdffff"/>
        </g>
        <path id="Trazado_105323" data-name="Trazado 105323" d="M452.167,376.754c0,.008,0,.015,0,.022l.051.028Z" transform="translate(-363.115 -323.012)" fill="#f9cbbf"/>
        <path id="Trazado_105324" data-name="Trazado 105324" d="M321.283,318.519s9.225,3.948,11.182,1.838a4.861,4.861,0,0,0,.934-1.926c.111-.33.5-1.673.585-2.027.8-3.24,1.269-7.479.49-10.292-1.288-4.647-6.852-8.766-11.295-7.162S310.119,304.455,321.283,318.519Z" transform="translate(-306.228 -290.409)" fill="#e8c0a8"/>
        <path id="Trazado_105325" data-name="Trazado 105325" d="M344.028,318.2l-.023-.012.231-.589a28.7,28.7,0,0,0,3.984,3.371c-2.7,2.669-5.478.3-4.856-2.927a1.8,1.8,0,0,1,.663.158C344.186,318.288,344.162,318.258,344.028,318.2Z" transform="translate(-317.691 -298.335)" fill="#e8c0a8"/>
        <path id="Trazado_105326" data-name="Trazado 105326" d="M310.186,379.71s2.029-8.009,5.268-24.595c1.667-8.539-.942-11.728.3-13.381,2.129-2.829,7.158-.666,8.754-.4.782.131,7.3,6.447,7.75,8.155s-.6,4.618-.6,4.618-3.741,11.019,1.951,24.759C327.623,383.479,318.2,383.871,310.186,379.71Z" transform="translate(-303.887 -307.803)" fill="#f8a800"/>
        <path id="Trazado_105327" data-name="Trazado 105327" d="M450.153,500.5,440,503.069l-.322.735H455.07l-.092-3.722Z" transform="translate(-357.905 -374.46)" fill="#3d3f44"/>
        <path id="Trazado_105328" data-name="Trazado 105328" d="M478.062,500.5l-10.155,2.573-.322.735h15.393l-.092-3.722Z" transform="translate(-369.547 -374.46)" fill="#3d3f44"/>
        <path id="Trazado_105329" data-name="Trazado 105329" d="M462.932,422.118l9.487-25.625c-.988-.237-.49-2.474-1.465-2.749-2.458-.7-4.883-1.411-7.4-1.894-.59-.114-1.188-.236-1.777-.39l-7.169,29.527C454.213,424.656,460.89,426.709,462.932,422.118Z" transform="translate(-364.128 -329.147)" fill="#004a6c"/>
        <path id="Trazado_105330" data-name="Trazado 105330" d="M462.854,441.856,461.1,473.878l-4.583.87-1.9-33.595C455.606,439.429,463.069,439.046,462.854,441.856Z" transform="translate(-364.14 -349.314)" fill="#004a6c"/>
        <path id="Trazado_105331" data-name="Trazado 105331" d="M456.138,494.841s-.019,1.622-.008,3.016,6.244.039,6.244.039l.416-2.953S455.354,494.488,456.138,494.841Z" transform="translate(-364.748 -372.217)" fill="#005d87"/>
        <path id="Trazado_105332" data-name="Trazado 105332" d="M484.228,394.188c-2.548.188-5.071.344-7.6.749-.594.095-1.2.184-1.8.241l6.809,60.545,4-.368.913-59.083C485.534,396.387,485.238,394.114,484.228,394.188Z" transform="translate(-372.567 -330.284)" fill="#005d87"/>
        <path id="Trazado_105333" data-name="Trazado 105333" d="M484.91,494.8s.07,1.837.158,3.415,6.33-.266,6.33-.266l.257-3.364S484.1,494.441,484.91,494.8Z" transform="translate(-376.749 -372.156)" fill="#0072a8"/>
        <path id="Trazado_105334" data-name="Trazado 105334" d="M446.56,402.088l-.02-.009-.052.029Z" transform="translate(-360.746 -333.577)" fill="#f9cbbf"/>
        <path id="Trazado_105335" data-name="Trazado 105335" d="M448.587,424.774l-.02-.009c-.017.009-.034.019-.052.027Z" transform="translate(-361.592 -343.041)" fill="#f9cbbf"/>
        <path id="Trazado_105336" data-name="Trazado 105336" d="M476.686,331.6l3.561,2.175c.965,1.063,3.943,3.644,3.983,7.444.012,1.113-2.9,15.263-2.105,32.187.056,1.2-3.878,2.229-13.3,2.33-4.921.053-7.443-1.292-7.443-1.292s-.5-21.123,3.927-33.755c.726-2.068,5.793-9.084,5.793-9.084Z" transform="translate(-366.953 -304.175)" fill="#95c7ed"/>
        <path id="Trazado_105337" data-name="Trazado 105337" d="M486.27,339.565c-1.18-2.37-4.025-3.935-5.382-2.986-3.479,2.435-11.993,18.96-11.993,18.96s1.251,4.553,4.71,3.693,10.721-10.375,12.388-12.016C487.525,345.706,487.412,341.858,486.27,339.565Z" transform="translate(-370.094 -306.136)" fill="#fdfeff"/>
        <path id="Trazado_105338" data-name="Trazado 105338" d="M320.488,341.132c-1.11,1.306-3.558,3.187.121,7.551l11.365,13.087,4.8-3.54-10.669-14.065S322.167,339.16,320.488,341.132Z" transform="translate(-307.42 -307.96)" fill="#f18415"/>
        <path id="Trazado_105339" data-name="Trazado 105339" d="M368.846,378.883a19.285,19.285,0,0,0,4.466-.891l3.34-.048a.292.292,0,0,1,.271.376h0a.742.742,0,0,1-.639.526l-2.458.238,2.718.938,2.024.764a.4.4,0,0,1,.252.455h0a.4.4,0,0,1-.458.316l-2.712-.445s2.046.587,2.122.613a.159.159,0,0,1,.1.252.227.227,0,0,1-.189.12l-2.163.122s1.66.223,1.846.241.119.161.093.248-.138.107-.206.115l-2.071.248,1.419.136a.228.228,0,0,1,.184.328h0a.228.228,0,0,1-.227.127l-2.058-.194-5.975-3.013Z" transform="translate(-328.225 -323.508)" fill="#e8c0a8"/>
        <path id="Trazado_105340" data-name="Trazado 105340" d="M357.294,376.821a3.385,3.385,0,0,0,.841-2.058l-13.753-6.071c-2.011-.63-4.529.47-5.1,1.952-.682,1.77,2.158,3.464,2.158,3.464S357.058,377.08,357.294,376.821Z" transform="translate(-315.979 -319.574)" fill="#f18415"/>
        <path id="Trazado_105341" data-name="Trazado 105341" d="M476.2,332.914a10.878,10.878,0,0,0,4,.329,9.755,9.755,0,0,0,3.76-1.314l-1.641-1.068-5.276.539Z" transform="translate(-373.139 -303.868)" fill="#fdfeff"/>
        <path id="Trazado_105342" data-name="Trazado 105342" d="M483.265,322.6l-.022-11.9-4.68.21-.926,12.078C479.3,324.233,482.337,323.3,483.265,322.6Z" transform="translate(-373.74 -295.459)" fill="#cf9f82"/>
        <path id="Trazado_105343" data-name="Trazado 105343" d="M477.723,311.046s-9.328,4.98-11.622,2.633c-.347-.353-1.058-3.253-1.457-5.353-.589-3.1-.833-7.132.048-9.754,1.456-4.333,6.9-10.153,11.047-8.424S489.034,298.277,477.723,311.046Z" transform="translate(-368.099 -286.753)" fill="#e8c0a8"/>
        <path id="Trazado_105344" data-name="Trazado 105344" d="M464.743,310.927l.02-.01-.19-.569a27.205,27.205,0,0,1-3.955,3c2.435,2.654,5.191.546,4.762-2.536a1.711,1.711,0,0,0-.637.118C464.588,311,464.612,310.977,464.743,310.927Z" transform="translate(-366.641 -295.31)" fill="#e8c0a8"/>
        <path id="Trazado_105345" data-name="Trazado 105345" d="M464.491,292.219l.013.055C464.486,292.247,464.484,292.23,464.491,292.219Z" transform="translate(-368.255 -287.748)" fill="#8e5830"/>
        <path id="Trazado_105346" data-name="Trazado 105346" d="M469.871,296.014l-.455.379A1,1,0,0,0,469.871,296.014Z" transform="translate(-370.311 -289.331)" fill="#d0904b"/>
        <path id="Trazado_105347" data-name="Trazado 105347" d="M478.595,304.527c.262,2.138.528,6.477,2.029,7.289a28.066,28.066,0,0,0,6.138-6.725c1.38-2.329,2.845-7.307-.429-10.675-3.068-3.7-4.359-4.419-6.2-4.65a14.761,14.761,0,0,0-6.3.441,10.508,10.508,0,0,0-2.408,1.381,16.809,16.809,0,0,0-1.42,1.855l.225-.187c1.161,1.037,4.373-.747,5.1.673.849,1.644-.654,6.324-.033,8.054C475.827,303.461,477.773,302.644,478.595,304.527Z" transform="translate(-370.555 -286.666)" fill="#7e2627"/>
        <path id="Trazado_105348" data-name="Trazado 105348" d="M482.993,311.191c-.532,1.382-2.151,2.781-3.059,2.432s-1.215-1.753-.684-3.136,1.692-3.093,2.873-2.56A2.618,2.618,0,0,1,482.993,311.191Z" transform="translate(-374.304 -294.259)" fill="#e8c0a8"/>
        <path id="Trazado_105349" data-name="Trazado 105349" d="M448.255,371.933a28.7,28.7,0,0,1-3.207.461l-3.429.855a.5.5,0,0,0-.355.65l.1.3a1.028,1.028,0,0,0,1,.283l1.987-.517L441.7,376a.478.478,0,0,0-.168.242l-.608,2a.481.481,0,0,0,.2.548l.148.092a.481.481,0,0,0,.655-.14l1.23-1.837-1.006,2a.481.481,0,0,0,.244.66l.271.114a.481.481,0,0,0,.5-.077l.354-.3-.022.314a.481.481,0,0,0,.311.484l.1.04a.483.483,0,0,0,.5-.1l5.562-5.393Z" transform="translate(-358.416 -321.001)" fill="#e8c0a8"/>
        <path id="Trazado_105350" data-name="Trazado 105350" d="M462.862,366.584l-9.827,2.875c-.021.138-.043.273-.059.4a4.187,4.187,0,0,0,.2,2.074c.06.167.552,1.212.618,1.377,0,0,6.983-.153,9.478-.436s6.5-1.614,5.966-4.387C468.725,365.859,466.921,365.462,462.862,366.584Z" transform="translate(-363.433 -318.524)" fill="#fdfeff"/>
        <path id="Trazado_105351" data-name="Trazado 105351" d="M475.3,287.59c.985,0,.963.335.33,1.31-.423.652-2.117,3.47-2.892,3.238l-.282.418a17.983,17.983,0,0,1-3.929.257,11.456,11.456,0,0,1-2.718-.173c-1.659-.553-3.855-4.856-2.425-5.9s2.485.6,2.485.6-1.8-1.813.04-2.638,2.764,1.836,2.764,1.836-.256-.473.136-.6.264.571.978.873A12.136,12.136,0,0,0,475.3,287.59Z" transform="translate(-367.6 -284.548)" fill="#7e2627"/>
        <path id="Trazado_105352" data-name="Trazado 105352" d="M299.378,333.106c8.818-14.139,2.829-21.378,6.031-32.069,2.063-6.89,8.887-9.157,13.722-8.4s4.589,1.636,4.589,1.636,1.957,3.572-.7,5.784a12.6,12.6,0,0,0-4.245,8.49c-1.36,13.179,1.069,13.563,1.91,15.836-.416,2.629-2.038-2.074-2.038-2.074a12.419,12.419,0,0,0,.753,3.651c-1.251,3.4-5.158,3.874-5.158,3.874a61.734,61.734,0,0,1-2.013-8.543,21.922,21.922,0,0,0,1.079,8.335s-1.612-.14-1.942-3.378a13.405,13.405,0,0,0-.008,3.652S306.786,336.241,299.378,333.106Z" transform="translate(-299.378 -287.863)" fill="url(#linear-gradient)"/>
        <g id="Grupo_59581" data-name="Grupo 59581" transform="translate(25.09 17.6)">
          <path id="Trazado_105353" data-name="Trazado 105353" d="M345.067,314.922c.153.6.654,2.771-1.047,3.114s-1.511-2.378-1.511-2.378S344.292,315.093,345.067,314.922Z" transform="translate(-342.459 -314.819)" fill="url(#linear-gradient-2)"/>
          <path id="Trazado_105354" data-name="Trazado 105354" d="M344.622,314.751c-1.859.163-3.086,1.231-1.388.972S345.593,314.666,344.622,314.751Z" transform="translate(-342.427 -314.745)" fill="url(#linear-gradient-3)"/>
          <path id="Trazado_105355" data-name="Trazado 105355" d="M344.131,319.554c.385-1.035,1.5-.782,1.563.058" transform="translate(-343.138 -316.468)" fill="none" stroke="#4b2b19" stroke-miterlimit="10" stroke-width="0.515"/>
        </g>
        <g id="Grupo_59582" data-name="Grupo 59582" transform="translate(97.276 12.572)">
          <path id="Trazado_105356" data-name="Trazado 105356" d="M466.433,306.319c-.14.632-.593,2.913,1.192,3.216s1.5-2.531,1.5-2.531S467.247,306.473,466.433,306.319Z" transform="translate(-466.277 -306.202)" fill="url(#linear-gradient-4)"/>
          <path id="Trazado_105357" data-name="Trazado 105357" d="M466.944,306.121c1.945.11,3.261,1.186,1.48.97S465.929,306.063,466.944,306.121Z" transform="translate(-466.361 -306.118)" fill="url(#linear-gradient-5)"/>
          <path id="Trazado_105358" data-name="Trazado 105358" d="M468.434,311.084c-.435-1.067-1.595-.768-1.63.111" transform="translate(-466.497 -307.905)" fill="none" stroke="#4b2b19" stroke-miterlimit="10" stroke-width="0.537"/>
        </g>
        <path id="Trazado_105359" data-name="Trazado 105359" d="M335.82,294.34c1.666.268,4.281,1.553,5.43,5.453,1.41,4.786-3.373,8.607-8.736,8.187,2.81-1.4,3.311-2.739,1.776-3.281a6.815,6.815,0,0,1-3.218-2.838C329.749,299.293,330.564,293.495,335.82,294.34Z" transform="translate(-312.366 -288.598)" fill="url(#linear-gradient-6)"/>
        <path id="Trazado_105360" data-name="Trazado 105360" d="M471.9,320.281c.365.349.431,2.416-2.778,2.49" transform="translate(-370.19 -299.454)" fill="none" stroke="#a56052" stroke-miterlimit="10" stroke-width="0.398"/>
        <path id="Trazado_105361" data-name="Trazado 105361" d="M314.333,498.014l-.962,1.613a.793.793,0,0,0,.681,1.2h13.791l-.9-1.388-9.592-1.425S315.391,498.614,314.333,498.014Z" transform="translate(-305.168 -373.597)" fill="#c55f02"/>
        <path id="Trazado_105362" data-name="Trazado 105362" d="M339.954,326.724c-.354.359-.357,2.429,2.853,2.4" transform="translate(-316.24 -302.142)" fill="none" stroke="#a56052" stroke-miterlimit="10" stroke-width="0.398"/>
      </g>
    </g>
    <path id="Trazado_105363" data-name="Trazado 105363" d="M661.209,508.374c6.154-3.809,5.143-12.941-2.246-20.291l-.91-.905c-7.39-7.35-19.322-19.534-26.516-27.076l-10.33-10.829c-7.194-7.542-16.015-10.695-19.6-7.006s-3.538,11.527.11,17.419a82.5,82.5,0,0,0,16.757,18.447c5.568,4.254,11.58,11.636,13.359,16.406a40.854,40.854,0,0,0,10.711,14.717C646.655,512.581,655.055,512.184,661.209,508.374Z" transform="translate(-226.444 -92.666)" fill="#f8c8a6"/>
    <path id="Trazado_105364" data-name="Trazado 105364" d="M107.041,505.193c-6.154-3.809-5.144-12.941,2.246-20.291l.91-.905c7.39-7.35,19.322-19.534,26.516-27.076l10.33-10.829c7.194-7.542,16.015-10.695,19.6-7.006s3.538,11.527-.109,17.419a82.521,82.521,0,0,1-16.757,18.447c-5.569,4.254-11.58,11.636-13.359,16.406a40.861,40.861,0,0,1-10.712,14.717C121.6,509.4,113.195,509,107.041,505.193Z" transform="translate(-19.56 -91.339)" fill="#f8c8a6"/>
    <path id="Trazado_105365" data-name="Trazado 105365" d="M611.315,444.759s-6.127,3.586-5.3,6.843c0,0,2.366,4.955,5.6,5.041l6.832-7.294S613.3,443.383,611.315,444.759Z" transform="translate(-229.362 -94.263)" fill="#fbe2ca"/>
    <path id="Trazado_105366" data-name="Trazado 105366" d="M195.383,442.668s5.4,4.606,4.012,7.667c0,0-3.2,4.463-6.4,3.979l-5.445-8.38S193.672,440.965,195.383,442.668Z" transform="translate(-54.827 -93.328)" fill="#fbe2ca"/>
    <path id="Trazado_105367" data-name="Trazado 105367" d="M163.171,624.21s-27.563,6.317-29.669-22.635C133.5,601.575,128.62,635.264,163.171,624.21Z" transform="translate(-32.181 -159.766)" fill="#fce0c6"/>
    <path id="Trazado_105368" data-name="Trazado 105368" d="M79.931,464.9S66.245,475.253,77.3,498.852C77.3,498.852,69.93,476.312,79.931,464.9Z" transform="translate(-7.035 -102.752)" fill="#f3dabc"/>
    <path id="Trazado_105369" data-name="Trazado 105369" d="M720.621,474.179s14.463,9.233,5.314,33.635C725.935,507.814,731.5,484.76,720.621,474.179Z" transform="translate(-277.202 -106.622)" fill="#fbe2ca"/>
    <path id="Trazado_105370" data-name="Trazado 105370" d="M630.128,624.21s27.563,6.317,29.669-22.635C659.8,601.575,664.679,635.264,630.128,624.21Z" transform="translate(-239.452 -159.766)" fill="#fbe2ca"/>
  </g>
</svg>
