<svg xmlns="http://www.w3.org/2000/svg" width="492.405" height="407.084" viewBox="0 0 492.405 407.084">
  <g id="Grupo_60702" data-name="Grupo 60702" transform="translate(-260.362 -163.256)">
    <g id="Grupo_60653" data-name="Grupo 60653" transform="translate(260.362 163.256)" opacity="0.7">
      <g id="Grupo_60620" data-name="Grupo 60620" transform="translate(397.447 97.927)">
        <g id="xsrjP0">
          <g id="Grupo_60619" data-name="Grupo 60619">
            <path id="Trazado_107226" data-name="Trazado 107226" d="M900.358,341.523a3.462,3.462,0,0,1-1.639-1.789c-1.138-2.627-.765-5.645-.182-8.447a1.533,1.533,0,0,1,.277-.706c1.29-1.5,2.875-2.461,4-4.181a13.676,13.676,0,0,0,1.651-3.665c.3-1.045.128-3.279.709-4.11,1.675-2.4,3.115,2.538,3.251,3.686a13.779,13.779,0,0,1-.4,3.3c-.1.806-.284,1.6-.434,2.419.2.142.425.067.636.07q3.716-.007,7.433-.022c1.044,0,1.556.294,1.7.987a1.985,1.985,0,0,1-1.072,2.151c-.185.094-.52.011-.542.3s.323.264.495.383c.9.612.737,1.882-.3,2.619-.249.176-.733.1-.744.463-.005.292.448.287.654.492a1.677,1.677,0,0,1-.709,2.593,3.311,3.311,0,0,0-.435.169c-.123.084-.244.177,0,.345a1.46,1.46,0,0,1-.022,2.612l-.322.233a2.089,2.089,0,0,1-1.3.289q-5.828.031-11.656.042A2.462,2.462,0,0,1,900.358,341.523Z" transform="translate(-891.856 -317.975)" fill="#d89cc7" fill-rule="evenodd"/>
            <path id="Trazado_107227" data-name="Trazado 107227" d="M888.328,343.182c-.006-1.863-.006-3.729-.023-5.591,0-.379.022-.565.335-.561q2.294.033,4.584-.013c.3-.006.347.147.347.544q.006,5.625.039,11.25c0,.477-.084.612-.406.605-1.483-.02-2.965-.02-4.447.02-.369.01-.42-.182-.418-.663C888.352,346.91,888.334,345.046,888.328,343.182Z" transform="translate(-888.305 -324.964)" fill="#d89cc7" fill-rule="evenodd"/>
          </g>
        </g>
      </g>
      <g id="Grupo_60622" data-name="Grupo 60622" transform="translate(116.04 82.493)">
        <g id="xsrjP0-2" data-name="xsrjP0">
          <g id="Grupo_60621" data-name="Grupo 60621">
            <path id="Trazado_107228" data-name="Trazado 107228" d="M453.437,312.617a2.8,2.8,0,0,1-1.325-1.445c-.92-2.122-.618-4.56-.147-6.825a1.24,1.24,0,0,1,.224-.571c1.042-1.215,2.323-1.989,3.231-3.378a11.037,11.037,0,0,0,1.334-2.962c.246-.844.1-2.649.573-3.321,1.354-1.939,2.517,2.051,2.627,2.978a11.148,11.148,0,0,1-.321,2.664c-.08.651-.23,1.295-.351,1.954.159.115.344.054.514.056q3-.006,6.006-.018c.844,0,1.258.238,1.377.8a1.6,1.6,0,0,1-.866,1.739c-.149.076-.42.009-.437.243s.261.214.4.31c.726.495.595,1.52-.242,2.116-.2.142-.592.078-.6.374,0,.236.363.232.528.4a1.355,1.355,0,0,1-.573,2.1,2.781,2.781,0,0,0-.351.137c-.1.068-.2.142,0,.279a1.18,1.18,0,0,1-.017,2.111l-.261.188a1.692,1.692,0,0,1-1.053.234q-4.709.025-9.418.034A1.989,1.989,0,0,1,453.437,312.617Z" transform="translate(-446.567 -293.591)" fill="#d89cc7" fill-rule="evenodd"/>
            <path id="Trazado_107229" data-name="Trazado 107229" d="M443.716,313.957c-.005-1.505-.005-3.012-.018-4.517,0-.307.018-.457.27-.454q1.854.028,3.7-.011c.242,0,.28.12.28.439q0,4.546.032,9.09c0,.385-.067.495-.327.489-1.2-.016-2.4-.016-3.593.016-.3.008-.34-.147-.338-.535C443.736,316.969,443.721,315.464,443.716,313.957Z" transform="translate(-443.698 -299.238)" fill="#d89cc7" fill-rule="evenodd"/>
          </g>
        </g>
      </g>
      <g id="Grupo_60624" data-name="Grupo 60624" transform="translate(259.883 295.255)">
        <g id="xsrjP0-3" data-name="xsrjP0" transform="translate(0)">
          <g id="Grupo_60623" data-name="Grupo 60623">
            <path id="Trazado_107230" data-name="Trazado 107230" d="M682.79,652.848a3.4,3.4,0,0,1-1.608-1.755c-1.116-2.577-.751-5.537-.179-8.288a1.5,1.5,0,0,1,.272-.693c1.266-1.475,2.82-2.415,3.924-4.1a13.425,13.425,0,0,0,1.62-3.6c.3-1.025.126-3.217.7-4.032,1.644-2.355,3.056,2.49,3.191,3.617a13.548,13.548,0,0,1-.39,3.235c-.1.79-.279,1.572-.427,2.373.193.14.417.066.624.068q3.647-.007,7.294-.022c1.024,0,1.527.289,1.672.968a1.948,1.948,0,0,1-1.052,2.112c-.181.092-.51.011-.532.3s.318.259.486.375c.882.6.723,1.846-.294,2.57-.244.173-.72.095-.73.454-.005.287.44.282.642.483a1.645,1.645,0,0,1-.7,2.544,3.252,3.252,0,0,0-.427.167c-.12.082-.239.173,0,.338a1.432,1.432,0,0,1-.021,2.563l-.316.228a2.048,2.048,0,0,1-1.279.284q-5.719.031-11.437.041A2.412,2.412,0,0,1,682.79,652.848Z" transform="translate(-674.448 -629.743)" fill="#d89cc7" fill-rule="evenodd"/>
            <path id="Trazado_107231" data-name="Trazado 107231" d="M670.986,654.475c-.006-1.827-.006-3.658-.023-5.485,0-.372.022-.554.328-.551q2.251.033,4.5-.013c.294-.006.341.145.34.533q.005,5.521.039,11.04c0,.468-.082.6-.4.594-1.455-.02-2.91-.02-4.364.019-.362.009-.413-.179-.41-.65C671.009,658.134,670.992,656.306,670.986,654.475Z" transform="translate(-670.963 -636.601)" fill="#d89cc7" fill-rule="evenodd"/>
          </g>
        </g>
      </g>
      <g id="Grupo_60626" data-name="Grupo 60626" transform="translate(234.721 270.951)">
        <g id="xsrjP0-4" data-name="xsrjP0">
          <g id="Grupo_60625" data-name="Grupo 60625">
            <path id="Trazado_107232" data-name="Trazado 107232" d="M642.187,612.794a3.151,3.151,0,0,1-1.493-1.629c-1.037-2.393-.7-5.142-.166-7.7a1.4,1.4,0,0,1,.253-.643c1.175-1.37,2.618-2.242,3.642-3.809a12.461,12.461,0,0,0,1.5-3.339c.277-.951.116-2.986.646-3.744,1.526-2.187,2.837,2.312,2.962,3.358a12.591,12.591,0,0,1-.362,3c-.091.734-.26,1.46-.4,2.2.179.13.387.061.58.063q3.385-.006,6.771-.02c.951,0,1.418.268,1.552.9a1.809,1.809,0,0,1-.976,1.96c-.168.086-.474.01-.494.274s.294.241.451.349c.819.558.672,1.715-.272,2.386-.227.16-.668.088-.678.422,0,.266.409.261.6.449a1.527,1.527,0,0,1-.646,2.362,3.038,3.038,0,0,0-.4.154c-.112.076-.221.16,0,.313a1.33,1.33,0,0,1-.02,2.38c-.1.07-.194.142-.293.212a1.9,1.9,0,0,1-1.188.264q-5.309.028-10.618.038A2.235,2.235,0,0,1,642.187,612.794Z" transform="translate(-634.442 -591.343)" fill="#d89cc7" fill-rule="evenodd"/>
            <path id="Trazado_107233" data-name="Trazado 107233" d="M631.228,614.3c-.006-1.7-.006-3.4-.021-5.093,0-.346.02-.515.305-.511q2.09.03,4.177-.013c.273-.005.316.135.315.5q.006,5.125.036,10.249c0,.435-.076.558-.37.552-1.351-.018-2.7-.019-4.051.017-.336.01-.383-.166-.38-.6C631.25,617.7,631.234,616,631.228,614.3Z" transform="translate(-631.207 -597.71)" fill="#d89cc7" fill-rule="evenodd"/>
          </g>
        </g>
      </g>
      <g id="Grupo_60635" data-name="Grupo 60635" transform="translate(0 0)">
        <path id="Trazado_107234" data-name="Trazado 107234" d="M715.845,217.619l57.481,80.645-90.368,94.943" transform="translate(-415.482 -183.211)" fill="none" stroke="#000" stroke-linecap="round" stroke-miterlimit="10" stroke-width="0.5" stroke-dasharray="12 5"/>
        <path id="Trazado_107235" data-name="Trazado 107235" d="M684.1,309.873l-114.962-5.148-129.26-55.479" transform="translate(-326.256 -194.82)" fill="none" stroke="#000" stroke-linecap="round" stroke-miterlimit="10" stroke-width="0.5" stroke-dasharray="12 5"/>
        <path id="Trazado_107236" data-name="Trazado 107236" d="M292.583,399.151l225.348-64.058,19.446,102.379" transform="translate(-272.189 -226.332)" fill="none" stroke="#000" stroke-linecap="round" stroke-miterlimit="10" stroke-width="0.5" stroke-dasharray="12 5"/>
        <line id="Línea_213" data-name="Línea 213" x2="55.765" y2="105.524" transform="translate(199.128 301.222)" fill="none" stroke="#000" stroke-linecap="round" stroke-miterlimit="10" stroke-width="0.5" stroke-dasharray="12 5"/>
        <path id="Trazado_107237" data-name="Trazado 107237" d="M631.35,206.776l155.284,71.207.858,129.546-198.109-6.654-63.653,63.849-84.648,28.6" transform="translate(-326.698 -179.231)" fill="none" stroke="#000" stroke-linecap="round" stroke-miterlimit="10" stroke-width="0.5" stroke-dasharray="12 5"/>
        <path id="Trazado_107238" data-name="Trazado 107238" d="M438.673,621.386l141.176,76.641L783.176,530.732" transform="translate(-325.814 -298.144)" fill="none" stroke="#000" stroke-linecap="round" stroke-miterlimit="10" stroke-width="0.5" stroke-dasharray="12 5"/>
        <path id="Trazado_107239" data-name="Trazado 107239" d="M527.694,407.22,284.9,355.745l95.229-118.393,189.6-19.732L287.667,354.7" transform="translate(-269.37 -183.211)" fill="none" stroke="#000" stroke-linecap="round" stroke-miterlimit="10" stroke-width="0.5" stroke-dasharray="12 5"/>
        <path id="Trazado_107240" data-name="Trazado 107240" d="M289.344,469.064l20.627,40.449,69.077,76.245" transform="translate(-271 -275.508)" fill="none" stroke="#000" stroke-linecap="round" stroke-miterlimit="10" stroke-width="0.5" stroke-dasharray="12 5"/>
        <g id="Grupo_60627" data-name="Grupo 60627" transform="translate(442.062 203.477)">
          <circle id="Elipse_4420" data-name="Elipse 4420" cx="9.589" cy="9.589" r="9.589" transform="translate(9.214)" fill="#9cabfc"/>
          <path id="Trazado_107241" data-name="Trazado 107241" d="M996.4,528.665a20.146,20.146,0,0,0-37.607,0Z" transform="translate(-958.794 -496.121)" fill="#9cabfc"/>
        </g>
        <g id="Grupo_60628" data-name="Grupo 60628" transform="translate(440.346 65.865)">
          <circle id="Elipse_4421" data-name="Elipse 4421" cx="10.682" cy="10.682" r="10.682" transform="matrix(0.635, -0.772, 0.772, 0.635, 5.912, 16.501)" fill="#9cabfc"/>
          <path id="Trazado_107242" data-name="Trazado 107242" d="M997.979,323.135a22.444,22.444,0,0,0-41.9,0Z" transform="translate(-956.083 -282.526)" fill="#9cabfc"/>
        </g>
        <g id="Grupo_60629" data-name="Grupo 60629" transform="translate(223.006 77.232)">
          <circle id="Elipse_4422" data-name="Elipse 4422" cx="10.682" cy="10.682" r="10.682" transform="translate(5.841 15.107) rotate(-45)" fill="#9cabfc"/>
          <path id="Trazado_107243" data-name="Trazado 107243" d="M654.594,341.208a22.444,22.444,0,0,0-41.9,0Z" transform="translate(-612.698 -300.528)" fill="#9cabfc"/>
        </g>
        <g id="Grupo_60630" data-name="Grupo 60630" transform="translate(93.745 27.091)">
          <circle id="Elipse_4423" data-name="Elipse 4423" cx="10.245" cy="10.245" r="10.245" transform="translate(9.845)" fill="#9cabfc"/>
          <path id="Trazado_107244" data-name="Trazado 107244" d="M448.655,252.992a21.525,21.525,0,0,0-40.181,0Z" transform="translate(-408.474 -218.222)" fill="#9cabfc"/>
        </g>
        <g id="Grupo_60631" data-name="Grupo 60631" transform="translate(0 160.713)">
          <ellipse id="Elipse_4424" data-name="Elipse 4424" cx="9.945" cy="9.606" rx="9.945" ry="9.606" transform="translate(9.557)" fill="#9cabfc"/>
          <path id="Trazado_107245" data-name="Trazado 107245" d="M299.367,461.179a21.168,21.168,0,0,0-39,0Z" transform="translate(-260.362 -428.578)" fill="#9cabfc"/>
        </g>
        <g id="Grupo_60632" data-name="Grupo 60632" transform="translate(180.074 274.001)">
          <circle id="Elipse_4425" data-name="Elipse 4425" cx="9.279" cy="9.279" r="9.279" transform="translate(7.553 18.319) rotate(-80.807)" fill="#9cabfc"/>
          <path id="Trazado_107246" data-name="Trazado 107246" d="M581.26,640.823a19.495,19.495,0,0,0-36.391,0Z" transform="translate(-544.869 -607.968)" fill="#9cabfc"/>
        </g>
        <g id="Grupo_60633" data-name="Grupo 60633" transform="translate(281.916)">
          <circle id="Elipse_4426" data-name="Elipse 4426" cx="10.464" cy="10.464" r="10.464" transform="translate(5.721 14.798) rotate(-45)" fill="#9cabfc"/>
          <path id="Trazado_107247" data-name="Trazado 107247" d="M746.811,218.04a21.984,21.984,0,0,0-41.038,0Z" transform="translate(-705.773 -178.193)" fill="#9cabfc"/>
        </g>
        <g id="Grupo_60634" data-name="Grupo 60634" transform="translate(337.967 97.666)">
          <circle id="Elipse_4427" data-name="Elipse 4427" cx="9.589" cy="9.589" r="9.589" transform="translate(9.215)" fill="#9cabfc"/>
          <path id="Trazado_107248" data-name="Trazado 107248" d="M831.936,361.49a20.146,20.146,0,0,0-37.606,0Z" transform="translate(-794.33 -328.947)" fill="#9cabfc"/>
        </g>
      </g>
      <g id="Grupo_60636" data-name="Grupo 60636" transform="translate(376.412 126.47)">
        <circle id="Elipse_4428" data-name="Elipse 4428" cx="16.73" cy="16.73" r="16.73" transform="translate(0 23.659) rotate(-45)" fill="none" stroke="#000" stroke-linecap="round" stroke-miterlimit="10" stroke-width="0.5"/>
        <path id="Trazado_107249" data-name="Trazado 107249" d="M890.385,390.647c-1.6.481-2.767,2.733-2.767,2.733s-1.181-2.232-2.778-2.687c-4.623-1.316-6.689,2.853-4.919,6.7,1.708,3.712,7.724,8.178,7.724,8.178s6-4.566,7.688-8.306C897.086,393.389,895,389.254,890.385,390.647Z" transform="translate(-863.962 -373.092)" fill="#d47172" stroke="#000" stroke-miterlimit="10" stroke-width="0.5"/>
      </g>
      <g id="Grupo_60637" data-name="Grupo 60637" transform="translate(274.971 69.771)">
        <circle id="Elipse_4429" data-name="Elipse 4429" cx="15.137" cy="15.137" r="15.137" fill="none" stroke="#000" stroke-linecap="round" stroke-miterlimit="10" stroke-width="0.5"/>
        <path id="Trazado_107250" data-name="Trazado 107250" d="M716.664,287.473c-1.587.479-2.754,2.721-2.754,2.721s-1.176-2.222-2.766-2.675c-4.6-1.31-6.659,2.841-4.9,6.672,1.7,3.7,7.69,8.141,7.69,8.141s5.969-4.546,7.653-8.269C723.335,290.2,721.26,286.086,716.664,287.473Z" transform="translate(-698.772 -278.522)" fill="#d47172" stroke="#000" stroke-miterlimit="10" stroke-width="0.5"/>
      </g>
      <g id="Grupo_60638" data-name="Grupo 60638" transform="translate(72.424 348.182)">
        <circle id="Elipse_4430" data-name="Elipse 4430" cx="15.137" cy="15.137" r="15.137" fill="none" stroke="#000" stroke-linecap="round" stroke-miterlimit="10" stroke-width="0.5"/>
        <path id="Trazado_107251" data-name="Trazado 107251" d="M396.309,725.359c-1.858.561-3.224,3.185-3.224,3.185s-1.377-2.6-3.237-3.131c-5.388-1.534-7.8,3.325-5.733,7.81,1.99,4.327,9,9.531,9,9.531s6.989-5.322,8.96-9.681C404.119,728.554,401.69,723.735,396.309,725.359Z" transform="translate(-377.942 -717.648)" fill="#d47172" stroke="#000" stroke-miterlimit="10" stroke-width="0.5"/>
      </g>
      <g id="Grupo_60652" data-name="Grupo 60652" transform="translate(19.754 2.615)">
        <g id="Grupo_60640" data-name="Grupo 60640" transform="translate(0 224.928)">
          <g id="Grupo_60639" data-name="Grupo 60639" transform="translate(0 0)">
            <circle id="Elipse_4431" data-name="Elipse 4431" cx="29.884" cy="29.884" r="29.884" transform="matrix(0.193, -0.981, 0.981, 0.193, 0, 58.648)" fill="#5f76e8" stroke="#000" stroke-miterlimit="10" stroke-width="0.5"/>
            <path id="Trazado_107252" data-name="Trazado 107252" d="M337.537,559.634c-.068,1.9-.023,3.826-.023,5.885h7.424c-.316,2.445-.589,4.708-.951,6.949-.023.227-.588.5-.905.52-1.788.046-3.576.023-5.523.023v24.762a29.208,29.208,0,0,1-7.876-1.222V573.056h-6.5v-7.469h6.36c.023-.566.068-1.019.068-1.449.046-1.969-.022-3.938.159-5.885.408-4.278,3.033-7.288,7.265-7.877a60.663,60.663,0,0,1,8.126-.068v6.79c-.973,0-1.969-.022-2.943,0a12.534,12.534,0,0,0-2.6.181A2.446,2.446,0,0,0,337.537,559.634Z" transform="translate(-303.177 -532.831)" fill="#fff"/>
          </g>
          <path id="Trazado_107253" data-name="Trazado 107253" d="M384.229,592.308a27.493,27.493,0,0,1-7,10.131" transform="translate(-323.015 -548.289)" fill="#5f76e8" stroke="#000" stroke-miterlimit="10" stroke-width="0.5"/>
          <path id="Trazado_107254" data-name="Trazado 107254" d="M372.643,610.82l-3.657,2.813" transform="translate(-319.988 -555.085)" fill="#5f76e8" stroke="#000" stroke-miterlimit="10" stroke-width="0.5"/>
          <path id="Trazado_107255" data-name="Trazado 107255" d="M376.886,603.637A5.279,5.279,0,0,1,375.3,605.2" transform="translate(-322.307 -552.448)" fill="#5f76e8" stroke="#000" stroke-miterlimit="10" stroke-width="0.5"/>
          <path id="Trazado_107256" data-name="Trazado 107256" d="M386.141,580.984a28.876,28.876,0,0,1-1.747,7.685" transform="translate(-325.644 -544.133)" fill="#5f76e8" stroke="#000" stroke-miterlimit="10" stroke-width="0.5"/>
        </g>
        <g id="Grupo_60644" data-name="Grupo 60644" transform="translate(402.62 118.612)">
          <g id="Grupo_60643" data-name="Grupo 60643" transform="translate(0 0)">
            <circle id="Elipse_4432" data-name="Elipse 4432" cx="29.029" cy="29.029" r="29.029" transform="translate(0 56.54) rotate(-76.868)" fill="#d47172" stroke="#000" stroke-miterlimit="10" stroke-width="0.5"/>
            <g id="Grupo_60642" data-name="Grupo 60642" transform="translate(17.532 17.448)">
              <g id="Grupo_60641" data-name="Grupo 60641">
                <path id="Trazado_107257" data-name="Trazado 107257" d="M990.032,390.209c-.02-4.712-2.962-7.758-7.633-7.8q-9.691-.1-19.387,0c-4.57.048-7.532,3.075-7.6,7.636-.044,3.225-.008,6.453-.008,9.678,0,3.156-.02,6.315,0,9.471.041,4.817,2.978,7.9,7.747,7.945q9.589.1,19.181,0c4.676-.053,7.67-3.128,7.694-7.783Q990.082,399.784,990.032,390.209Zm-3.091,19.2c-.033,2.978-1.637,4.627-4.619,4.647q-9.588.061-19.177,0c-2.994-.016-4.615-1.661-4.63-4.627q-.043-9.673,0-19.347c.012-2.954,1.665-4.651,4.614-4.672q9.589-.066,19.178,0c2.958.02,4.6,1.709,4.635,4.655.036,3.225.008,6.449.008,9.673S986.977,406.187,986.941,409.411Z" transform="translate(-955.388 -382.357)" fill="#fff"/>
                <path id="Trazado_107258" data-name="Trazado 107258" d="M977.573,395.517a9.048,9.048,0,1,0,8.99,9.181A9.035,9.035,0,0,0,977.573,395.517Zm-.113,15.072a6.109,6.109,0,0,1-5.932-5.956,6.031,6.031,0,0,1,12.061,0A6.112,6.112,0,0,1,977.459,410.589Z" transform="translate(-960.219 -387.187)" fill="#fff"/>
                <path id="Trazado_107259" data-name="Trazado 107259" d="M998.953,393.84a1.875,1.875,0,0,1-2.158,1.871,1.9,1.9,0,0,1-1.968-2.254c.094-1.265.917-1.851,2.182-1.923A2.027,2.027,0,0,1,998.953,393.84Z" transform="translate(-969.862 -385.725)" fill="#fff"/>
              </g>
            </g>
          </g>
          <path id="Trazado_107260" data-name="Trazado 107260" d="M1002.374,441.549a29.279,29.279,0,0,0,11.344-12.219" transform="translate(-955.103 -382.15)" fill="none" stroke="#000" stroke-miterlimit="10" stroke-width="0.5"/>
          <path id="Trazado_107261" data-name="Trazado 107261" d="M1021.222,424.18a10.99,10.99,0,0,0,1.144-3.241" transform="translate(-962.021 -379.07)" fill="none" stroke="#000" stroke-miterlimit="10" stroke-width="0.5"/>
          <path id="Trazado_107262" data-name="Trazado 107262" d="M1017.1,424.25a12.675,12.675,0,0,1-1.9,3.814" transform="translate(-959.81 -380.286)" fill="none" stroke="#000" stroke-miterlimit="10" stroke-width="0.5"/>
          <path id="Trazado_107263" data-name="Trazado 107263" d="M1023.686,403.456a12.75,12.75,0,0,1,.119,5.339" transform="translate(-962.926 -372.653)" fill="none" stroke="#000" stroke-miterlimit="10" stroke-width="0.5"/>
          <path id="Trazado_107264" data-name="Trazado 107264" d="M943.556,393.506a22.159,22.159,0,0,0-1.832,15.255" transform="translate(-932.617 -369.001)" fill="none" stroke="#000" stroke-miterlimit="10" stroke-width="0.5"/>
        </g>
        <g id="Grupo_60645" data-name="Grupo 60645" transform="translate(408.495 201.653)">
          <circle id="Elipse_4433" data-name="Elipse 4433" cx="28.991" cy="28.991" r="28.991" fill="#a8dca4" stroke="#000" stroke-miterlimit="10" stroke-width="0.5"/>
          <path id="Trazado_107265" data-name="Trazado 107265" d="M985.766,546.668a1.756,1.756,0,0,1-2.4.63c-4.614-2.7-9.945-3.13-13.6-3.019a33.8,33.8,0,0,0-7.057.932,1.756,1.756,0,0,1-.931-3.386,36.575,36.575,0,0,1,7.783-1.053,34.284,34.284,0,0,1,7.5.543,25.314,25.314,0,0,1,8.084,2.951A1.756,1.756,0,0,1,985.766,546.668Z" transform="translate(-945.6 -506.09)" fill="#fff"/>
          <path id="Trazado_107266" data-name="Trazado 107266" d="M988.218,535.323a2.079,2.079,0,0,1-2.845.747c-5.465-3.194-11.78-3.708-16.115-3.576a40,40,0,0,0-8.359,1.1,2.08,2.08,0,0,1-1.1-4.011,43.333,43.333,0,0,1,9.219-1.247,40.586,40.586,0,0,1,8.881.643,29.95,29.95,0,0,1,9.576,3.5A2.078,2.078,0,0,1,988.218,535.323Z" transform="translate(-944.788 -501.525)" fill="#fff"/>
          <path id="Trazado_107267" data-name="Trazado 107267" d="M988.73,523.93a2.536,2.536,0,0,1-1.285-.349c-12.994-7.593-29.849-3.079-30.018-3.032a2.551,2.551,0,0,1-1.355-4.919A53.161,53.161,0,0,1,967.38,514.1a49.829,49.829,0,0,1,10.894.789,36.751,36.751,0,0,1,11.745,4.288,2.551,2.551,0,0,1-1.289,4.754Z" transform="translate(-943.294 -496.296)" fill="#fff"/>
          <path id="Trazado_107268" data-name="Trazado 107268" d="M952.069,502.837l-3.281,4.038" transform="translate(-941.308 -492.173)" fill="none" stroke="#000" stroke-miterlimit="10" stroke-width="0.5"/>
          <path id="Trazado_107269" data-name="Trazado 107269" d="M943.157,515.977a23.756,23.756,0,0,0,.935,21.272" transform="translate(-938.48 -496.996)" fill="none" stroke="#000" stroke-miterlimit="10" stroke-width="0.5"/>
          <path id="Trazado_107270" data-name="Trazado 107270" d="M950.685,558.343a37.8,37.8,0,0,0,4.628,4.975" transform="translate(-942.004 -512.547)" fill="none" stroke="#000" stroke-miterlimit="10" stroke-width="0.5"/>
        </g>
        <g id="Grupo_60646" data-name="Grupo 60646" transform="translate(245.655 330.691)">
          <circle id="Elipse_4434" data-name="Elipse 4434" cx="28.725" cy="28.725" r="28.725" transform="translate(0 57.257) rotate(-85.289)" fill="#d47172" stroke="#000" stroke-miterlimit="10" stroke-width="0.5"/>
          <path id="Trazado_107271" data-name="Trazado 107271" d="M719.28,713.323a16.138,16.138,0,1,0,16.159,16.138,16.166,16.166,0,0,0-16.159-16.138Zm10.633,7.617a13.547,13.547,0,0,1,3.015,8.313,33.718,33.718,0,0,0-6.315-.61,25.53,25.53,0,0,0-3.112.181c-.089-.217-.178-.433-.272-.651-.274-.645-.57-1.284-.875-1.915a18.6,18.6,0,0,0,7.56-5.318Zm-10.633-5.091a13.6,13.6,0,0,1,8.995,3.386,15.587,15.587,0,0,1-7.051,4.839A73.733,73.733,0,0,0,716.2,716.2a13.593,13.593,0,0,1,3.077-.351Zm-5.864,1.323a88.066,88.066,0,0,1,5,7.776,51.648,51.648,0,0,1-12.339,1.643h-.134a13.688,13.688,0,0,1,7.478-9.419Zm-7.788,12.311c0-.112,0-.225.006-.337h.358a51.113,51.113,0,0,0,13.635-1.939c.368.72.718,1.45,1.044,2.18-.153.044-.3.087-.454.137a21.828,21.828,0,0,0-11.15,8.991,13.562,13.562,0,0,1-3.438-9.033Zm13.652,13.633a13.6,13.6,0,0,1-8.326-2.839c.39-.765,3.221-5.861,10.7-8.464l.015-.005a56.819,56.819,0,0,1,2.887,10.248,13.573,13.573,0,0,1-5.274,1.06Zm7.733-2.4a59.587,59.587,0,0,0-2.617-9.573,17.9,17.9,0,0,1,2.748-.206,20.271,20.271,0,0,1,5.6.784,13.659,13.659,0,0,1-5.735,9Z" transform="translate(-688.293 -698.473)" fill="#fff"/>
          <path id="Trazado_107272" data-name="Trazado 107272" d="M741.6,775.982a15.031,15.031,0,0,0,7.459-3.64" transform="translate(-702.418 -720.137)" fill="none" stroke="#000" stroke-miterlimit="10" stroke-width="0.5"/>
          <path id="Trazado_107273" data-name="Trazado 107273" d="M712.792,775.617c3.9,2.6,10.474,3.394,15.038,2.342" transform="translate(-691.843 -721.339)" fill="none" stroke="#000" stroke-miterlimit="10" stroke-width="0.5"/>
          <path id="Trazado_107274" data-name="Trazado 107274" d="M711.409,700a13.2,13.2,0,0,0-7.19,3.6" transform="translate(-688.696 -693.582)" fill="none" stroke="#000" stroke-miterlimit="10" stroke-width="0.5"/>
          <path id="Trazado_107275" data-name="Trazado 107275" d="M756.574,768.846a5.894,5.894,0,0,0,1.1-1.2" transform="translate(-707.914 -718.415)" fill="none" stroke="#000" stroke-miterlimit="10" stroke-width="0.5"/>
        </g>
        <g id="Grupo_60647" data-name="Grupo 60647" transform="translate(155.213)">
          <circle id="Elipse_4435" data-name="Elipse 4435" cx="29.48" cy="29.48" r="29.48" fill="#d89cc7" stroke="#000" stroke-miterlimit="10" stroke-width="0.5"/>
          <path id="Trazado_107276" data-name="Trazado 107276" d="M589.254,199.94q-.453.045-.908.046a9.851,9.851,0,0,1-8.243-4.455V210.7a11.211,11.211,0,1,1-11.211-11.211h0c.234,0,.463.021.693.035v5.525a5.709,5.709,0,1,0-.693,11.374,5.863,5.863,0,0,0,5.952-5.651l.056-25.762h5.285a9.846,9.846,0,0,0,9.074,8.79v6.14" transform="translate(-544.465 -173.857)" fill="#fff"/>
          <path id="Trazado_107277" data-name="Trazado 107277" d="M596.681,248.766a24.12,24.12,0,0,0,12.521-9.51" transform="translate(-558.78 -193.769)" fill="none" stroke="#000" stroke-miterlimit="10" stroke-width="0.5"/>
          <path id="Trazado_107278" data-name="Trazado 107278" d="M620.21,229.634a35.012,35.012,0,0,0,2.522-6.6" transform="translate(-567.417 -187.814)" fill="none" stroke="#000" stroke-miterlimit="10" stroke-width="0.5"/>
          <path id="Trazado_107279" data-name="Trazado 107279" d="M546.049,193.608a23.43,23.43,0,0,0-3.294,17.184" transform="translate(-538.825 -177.013)" fill="none" stroke="#000" stroke-miterlimit="10" stroke-width="0.5"/>
          <path id="Trazado_107280" data-name="Trazado 107280" d="M544.459,227.116a10.762,10.762,0,0,0,1.042,4.269" transform="translate(-539.611 -189.312)" fill="none" stroke="#000" stroke-miterlimit="10" stroke-width="0.5"/>
          <path id="Trazado_107281" data-name="Trazado 107281" d="M546.7,212.2a26.406,26.406,0,0,0,.487,4.853" transform="translate(-540.433 -183.837)" fill="none" stroke="#000" stroke-miterlimit="10" stroke-width="0.5"/>
        </g>
        <g id="Grupo_60649" data-name="Grupo 60649" transform="translate(334.779 20.821)">
          <circle id="Elipse_4436" data-name="Elipse 4436" cx="32.073" cy="32.073" r="32.073" fill="#a8dca4" stroke="#000" stroke-miterlimit="10" stroke-width="0.5"/>
          <g id="_2dqxSk.tif" data-name="2dqxSk.tif" transform="translate(15.216 15.259)">
            <g id="Grupo_60648" data-name="Grupo 60648">
              <path id="Trazado_107282" data-name="Trazado 107282" d="M848.834,224.393a.63.63,0,0,0,.134.041,4,4,0,0,1,3.677,3.392,3.965,3.965,0,0,1-1.359,3.73,3.889,3.889,0,0,1-1.911.909,4.07,4.07,0,0,1-1.118.049,4.015,4.015,0,0,1-3.5-2.87,3.686,3.686,0,0,1-.148-.845c0-.055.01-.121-.066-.146v-.35c.071-.027.061-.091.066-.147.012-.116.017-.232.036-.347a3.984,3.984,0,0,1,3.7-3.375.63.63,0,0,0,.136-.04Z" transform="translate(-844.545 -224.393)" fill="#fff"/>
              <path id="Trazado_107283" data-name="Trazado 107283" d="M870.178,244.685c.034-.045.07-.089.1-.135a7.974,7.974,0,0,1,1.18-1.385,7.325,7.325,0,0,1,3.266-1.752,9.979,9.979,0,0,1,1.816-.247,10.362,10.362,0,0,1,4.681.87,5.974,5.974,0,0,1,2.58,2.458,9.208,9.208,0,0,1,.855,2.163,11.737,11.737,0,0,1,.315,1.57c.035.265.051.532.067.8.031.494.056.989.083,1.484,0,.015,0,.029,0,.044.013.472.032.942.035,1.414q.016,2.37.022,4.74.006,3.581,0,7.163c0,.266-.011.278-.281.278h-3.034q-1.415,0-2.83,0c-.15,0-.3.013-.451.02a.7.7,0,0,1-.073,0c-.335-.017-.339-.095-.339-.345q0-2.969,0-5.938,0-2.947-.007-5.894a7.61,7.61,0,0,0-.288-2.2,4.341,4.341,0,0,0-.539-1.191,2.771,2.771,0,0,0-1.778-1.175,3.589,3.589,0,0,0-.838-.089c-.3.007-.6,0-.9.034a3.332,3.332,0,0,0-2.843,2.055,6.275,6.275,0,0,0-.449,1.668,13.228,13.228,0,0,0-.113,1.846v10.8c0,.082,0,.166,0,.248-.01.111-.058.154-.168.161-.063,0-.126,0-.189,0h-3.443c-.725,0-1.449,0-2.173,0-.214,0-.427.013-.641.02a.571.571,0,0,1-.087,0c-.284-.028-.306-.1-.3-.311,0-.107,0-.214,0-.321q0-7.112,0-14.224,0-3.588,0-7.177c0-.064,0-.127,0-.19.008-.158.064-.215.224-.225.039,0,.078,0,.117,0H869.8c.039,0,.078,0,.117,0,.154.009.213.06.214.216,0,.272-.011.544-.011.816,0,.4,0,.8.008,1.195,0,.19,0,.379.006.569,0,.051,0,.1.006.154Z" transform="translate(-851.471 -230.544)" fill="#fff"/>
              <path id="Trazado_107284" data-name="Trazado 107284" d="M845.488,253.253q0-5.441,0-10.883a1.333,1.333,0,0,1,.009-.189.127.127,0,0,1,.135-.124c.054,0,.107-.005.161-.005l6.374,0h.044c.245,0,.308.064.308.315q0,1.233,0,2.465,0,9.629,0,19.256a1.412,1.412,0,0,1-.016.232.17.17,0,0,1-.165.158c-.165.009-.329.013-.493.016-.063,0-.126-.011-.189-.011q-2.677,0-5.353,0c-.141,0-.281.013-.422.02a.452.452,0,0,1-.087,0c-.237-.026-.307-.053-.307-.32q0-5.464,0-10.927Z" transform="translate(-844.891 -230.875)" fill="#fff"/>
            </g>
          </g>
          <path id="Trazado_107285" data-name="Trazado 107285" d="M881.479,292.349a26.091,26.091,0,0,0,13.118-6.395" transform="translate(-842.886 -231.731)" fill="none" stroke="#000" stroke-miterlimit="10" stroke-width="0.5"/>
          <path id="Trazado_107286" data-name="Trazado 107286" d="M904.389,281.331l3.242-3.432" transform="translate(-851.295 -228.774)" fill="none" stroke="#000" stroke-miterlimit="10" stroke-width="0.5"/>
          <path id="Trazado_107287" data-name="Trazado 107287" d="M833.6,221.524a27.335,27.335,0,0,0-3.037,4.586" transform="translate(-824.196 -208.081)" fill="none" stroke="#000" stroke-miterlimit="10" stroke-width="0.5"/>
          <path id="Trazado_107288" data-name="Trazado 107288" d="M826.532,235.36a25,25,0,0,0-1.784,14.3" transform="translate(-821.932 -213.16)" fill="none" stroke="#000" stroke-miterlimit="10" stroke-width="0.5"/>
        </g>
        <g id="Grupo_60651" data-name="Grupo 60651" transform="translate(12.753 71.257)">
          <circle id="Elipse_4437" data-name="Elipse 4437" cx="30.915" cy="30.915" r="30.915" fill="#5f76e8" stroke="#000" stroke-miterlimit="10" stroke-width="0.5"/>
          <g id="Grupo_60650" data-name="Grupo 60650" transform="translate(14.035 17.342)">
            <path id="Trazado_107289" data-name="Trazado 107289" d="M333.895,335.452a17.25,17.25,0,0,0,11.138-3.433c-4.607-1.4-6.444-2.806-7.114-5.426l3.091-.152c-3.636-1.4-5.772-3.839-6.052-7.829l3.181.842c-3.337-4.2-4.012-7.452-2.02-10.491a22.984,22.984,0,0,0,16.339,8.171c-.03-.521-.059-.912-.075-1.3a7.512,7.512,0,0,1,4.377-7.557,7.6,7.6,0,0,1,8.681,1.048,1.594,1.594,0,0,0,1.752.358c1.241-.466,2.488-.915,3.856-1.416a7.917,7.917,0,0,1-3.032,3.889l.087.225,3.82-.981.153.152c-.987.994-1.933,2.034-2.977,2.963a2.04,2.04,0,0,0-.83,1.7,22.351,22.351,0,0,1-20.344,22.405,22.69,22.69,0,0,1-13.266-2.708C334.4,335.771,334.149,335.607,333.895,335.452Z" transform="translate(-333.895 -307.371)" fill="#fff"/>
          </g>
          <path id="Trazado_107290" data-name="Trazado 107290" d="M395.975,345.4a27.039,27.039,0,0,1-10.3,12.7" transform="translate(-338.866 -303.987)" fill="none" stroke="#000" stroke-miterlimit="10" stroke-width="0.5"/>
          <path id="Trazado_107291" data-name="Trazado 107291" d="M385.4,360.94l-3.094,1.987" transform="translate(-337.631 -309.692)" fill="none" stroke="#000" stroke-miterlimit="10" stroke-width="0.5"/>
          <path id="Trazado_107292" data-name="Trazado 107292" d="M403.82,320.452a16.462,16.462,0,0,1-.166,8.95" transform="translate(-345.466 -294.83)" fill="none" stroke="#000" stroke-miterlimit="10" stroke-width="0.5"/>
          <path id="Trazado_107293" data-name="Trazado 107293" d="M334.335,290.151a16.727,16.727,0,0,0-8.313,6.4" transform="translate(-316.97 -283.708)" fill="none" stroke="#000" stroke-miterlimit="10" stroke-width="0.5"/>
        </g>
      </g>
    </g>
    <g id="Grupo_60701" data-name="Grupo 60701" transform="translate(324.977 285.263)">
      <g id="Grupo_60679" data-name="Grupo 60679" transform="translate(155.234)">
        <g id="Grupo_60654" data-name="Grupo 60654" transform="translate(0 118.333)">
          <path id="Trazado_107294" data-name="Trazado 107294" d="M772.955,548.9l0,.01-34.72-5.936-44.094,13.045-18.833-6.948c-2.623.649-4.97,1.3-7.094,1.959h0S600.2,561.9,608.394,622.085L646.4,623c1.056,3.264,1.131,2.475,1.9,4.425l13.612,45H773.3l1.035-36.711,33.8,21.755a6.618,6.618,0,0,0,10.174-4.953c1.432-15.623,3.158-43.118,3.184-43.831C823.275,558.665,772.955,548.9,772.955,548.9Z" transform="translate(-607.709 -542.978)" fill="#986ad1"/>
          <path id="Trazado_107295" data-name="Trazado 107295" d="M670.211,670.446a.74.74,0,0,1-.716-.556l-6.772-26.385a.74.74,0,1,1,1.434-.368l6.772,26.385a.741.741,0,0,1-.532.9A.725.725,0,0,1,670.211,670.446Z" transform="translate(-627.894 -579.539)" fill="#1b1f38"/>
          <path id="Trazado_107296" data-name="Trazado 107296" d="M863.777,667.806a.739.739,0,0,1-.451-.153l-20.765-15.975a10.254,10.254,0,0,1-4.527-7.529l-2.14-20.969a.74.74,0,1,1,1.473-.151l2.14,20.97a8.811,8.811,0,0,0,3.915,6.476l20.807,16.006a.74.74,0,0,1-.451,1.327Z" transform="translate(-691.466 -572.118)" fill="#1b1f38"/>
        </g>
        <g id="Grupo_60677" data-name="Grupo 60677" transform="translate(42.882)">
          <g id="Grupo_60676" data-name="Grupo 60676">
            <g id="Grupo_60661" data-name="Grupo 60661" transform="translate(5.677 28.776)">
              <g id="Grupo_60660" data-name="Grupo 60660">
                <g id="Grupo_60659" data-name="Grupo 60659">
                  <g id="Grupo_60658" data-name="Grupo 60658">
                    <g id="Grupo_60657" data-name="Grupo 60657">
                      <g id="Grupo_60656" data-name="Grupo 60656">
                        <g id="Grupo_60655" data-name="Grupo 60655">
                          <path id="Trazado_107297" data-name="Trazado 107297" d="M751.395,426.884h0l-10.262-.356a12.3,12.3,0,0,0-11.5,7.024l1.987-29.133s-10.267,5.946-23.743-1.839c0,0-15.5-5.141-20.352,6.845-.011.12-.028.238-.036.358l-2.983,43.309c-1.091,15.842,9.731,29.661,24.6,32.144l3.465,17.2a23.8,23.8,0,0,0,28.092,18.35l.535-.108c12.894-2.6,23.912-12.344,21.356-25.034l-10.138-42.1,2.377.082a13.411,13.411,0,0,0,13.828-12.9l.034-.981a12.318,12.318,0,0,0-11.82-12.672Z" transform="translate(-684.429 -401.483)" fill="#e9a788"/>
                        </g>
                      </g>
                    </g>
                    <path id="Trazado_107298" data-name="Trazado 107298" d="M723.773,524.515s26.011-3.094,28.8-13h0s3.513,13.821-26.387,26.318Z" transform="translate(-698.871 -440.256)" fill="#e06a4b"/>
                  </g>
                  <path id="Trazado_107299" data-name="Trazado 107299" d="M801.441,461.9" transform="translate(-727.38 -423.659)" fill="none" stroke="#1b1f38" stroke-linecap="round" stroke-linejoin="round" stroke-width="5"/>
                </g>
              </g>
            </g>
            <g id="Grupo_60662" data-name="Grupo 60662">
              <path id="Trazado_107300" data-name="Trazado 107300" d="M789.637,492.02a21.619,21.619,0,0,1,1.966-8.206l-11.294-.392Z" transform="translate(-713.947 -402.784)" fill="#1b1f38"/>
              <path id="Trazado_107301" data-name="Trazado 107301" d="M748.86,379.761s7.038-12.276-11.785-21.141-25.753,7.769-25.753,7.769-2.246-15.235-25.026-7.855-2.567,35.613-2.567,35.613c.151-.5.321-.963.5-1.411,4.854-11.985,20.352-6.845,20.352-6.845,13.476,7.786,23.743,1.839,23.743,1.839L726.562,413.6c-.765,5.171-1.782,12.015-2.511,16.909a4.935,4.935,0,0,1-6.729,3.847l-16.3-6.567a4.934,4.934,0,0,0-2.455-.32l-12.881,1.6a4.939,4.939,0,0,0-4.315,4.515L680.4,445.93a23.186,23.186,0,0,0,23.633,25l7.189-.16a4.954,4.954,0,0,0,1.44-.249l1.806-.1a26.416,26.416,0,0,0,22.6-37.16h0a4.939,4.939,0,0,1-.918-3.058l.748-18.871a4.844,4.844,0,0,0-.166-1.466c.367-.02.737-.03,1.112-.017l10.262.356,5.444.189a12.182,12.182,0,0,1,7.949,3.337c3.259-8.183,6.107-16.253,6.936-21.265C770.678,378.9,748.86,379.761,748.86,379.761Z" transform="translate(-675.46 -356.019)" fill="#1b1f38"/>
            </g>
            <path id="Trazado_107302" data-name="Trazado 107302" d="M805.7,463.367" transform="translate(-723.268 -395.423)" fill="none" stroke="#df6969" stroke-linecap="round" stroke-linejoin="round" stroke-width="5"/>
            <g id="Grupo_60675" data-name="Grupo 60675" transform="translate(1.714 38.995)">
              <path id="Trazado_107303" data-name="Trazado 107303" d="M797.739,464.381a.736.736,0,0,1-.4-.12l-4.293-2.8a.741.741,0,0,1-.146-1.115l4.588-5.105a.74.74,0,1,1,1.1.99l-4.011,4.462,3.568,2.327a.74.74,0,0,1-.4,1.36Z" transform="translate(-720.212 -431.345)" fill="#e06a4b"/>
              <g id="Grupo_60664" data-name="Grupo 60664" transform="translate(8.192 17.423)">
                <path id="Trazado_107304" data-name="Trazado 107304" d="M692.036,447.363a2.788,2.788,0,1,0,3.308-2.145A2.787,2.787,0,0,0,692.036,447.363Z" transform="translate(-691.429 -445.156)" fill="#1b1f38"/>
                <path id="Trazado_107305" data-name="Trazado 107305" d="M723.7,447.971a2.788,2.788,0,1,0,2.762-2.815A2.789,2.789,0,0,0,723.7,447.971Z" transform="translate(-703.072 -445.156)" fill="#1b1f38"/>
                <g id="Grupo_60663" data-name="Grupo 60663" transform="translate(20.433 4.299)">
                  <path id="Trazado_107306" data-name="Trazado 107306" d="M729.482,453.97a3.972,3.972,0,0,0-4.917.021" transform="translate(-723.825 -452.374)" fill="#e8a185"/>
                  <path id="Trazado_107307" data-name="Trazado 107307" d="M724.136,454.3a.74.74,0,0,1-.453-1.325,4.681,4.681,0,0,1,5.84-.007.74.74,0,0,1-.938,1.146,3.227,3.227,0,0,0-4,.033A.739.739,0,0,1,724.136,454.3Z" transform="translate(-723.396 -451.948)" fill="#e06a4b"/>
                </g>
                <path id="Trazado_107308" data-name="Trazado 107308" d="M691.852,455.236a.74.74,0,0,1-.5-1.284,4.261,4.261,0,0,1,5.567-.363.74.74,0,0,1-.906,1.17,2.775,2.775,0,0,0-3.656.28A.737.737,0,0,1,691.852,455.236Z" transform="translate(-691.112 -447.933)" fill="#e06a4b"/>
              </g>
              <path id="Trazado_107309" data-name="Trazado 107309" d="M687.521,451.236c-5.157,0-9.352-4.8-9.352-10.71s4.2-10.709,9.352-10.709,9.352,4.8,9.352,10.709S692.678,451.236,687.521,451.236Zm0-19.939c-4.341,0-7.872,4.141-7.872,9.229s3.531,9.23,7.872,9.23,7.872-4.141,7.872-9.23S691.861,431.3,687.521,431.3Z" transform="translate(-678.169 -422.103)" fill="#fff"/>
              <g id="Grupo_60665" data-name="Grupo 60665" transform="translate(12.288 13.076)">
                <path id="Trazado_107310" data-name="Trazado 107310" d="M706.127,439.457v9.685h-5.033a2.341,2.341,0,0,0-2.341,2.341v1.059a4.585,4.585,0,0,0,4.586,4.585h4.585" transform="translate(-698.013 -438.717)" fill="#e9a788"/>
                <path id="Trazado_107311" data-name="Trazado 107311" d="M707.495,457.438h-4.585a5.332,5.332,0,0,1-5.326-5.326v-1.059a3.085,3.085,0,0,1,3.081-3.082h4.293v-8.944a.74.74,0,0,1,1.48,0v10.424h-5.774a1.6,1.6,0,0,0-1.6,1.6v1.059a3.85,3.85,0,0,0,3.846,3.845h4.585a.74.74,0,1,1,0,1.48Z" transform="translate(-697.584 -438.288)" fill="#e06a4b"/>
              </g>
              <path id="Trazado_107312" data-name="Trazado 107312" d="M723.172,450.171c-5.157,0-9.352-4.8-9.352-10.71s4.2-10.71,9.352-10.71,9.353,4.8,9.353,10.71S728.329,450.171,723.172,450.171Zm0-19.939c-4.34,0-7.872,4.14-7.872,9.229s3.532,9.229,7.872,9.229,7.872-4.141,7.872-9.229S727.514,430.231,723.172,430.231Z" transform="translate(-691.255 -421.711)" fill="#fff"/>
              <g id="Grupo_60674" data-name="Grupo 60674" transform="translate(4.678)">
                <g id="Grupo_60673" data-name="Grupo 60673">
                  <g id="Grupo_60672" data-name="Grupo 60672">
                    <g id="Grupo_60668" data-name="Grupo 60668" transform="translate(22.652 1.184)">
                      <g id="Grupo_60667" data-name="Grupo 60667">
                        <g id="Grupo_60666" data-name="Grupo 60666">
                          <path id="Trazado_107313" data-name="Trazado 107313" d="M733.449,426.066a7.152,7.152,0,0,1-2.92-.537c-1.005-.327-2.023-.63-2.917-.861s-1.932-.466-2.969-.671a7.1,7.1,0,0,1-2.805-.954c-.684-.525-.754-1.536.453-2.444,1.144-.891,3.693-1.521,6.657-.757s4.839,2.561,5.37,3.888C734.893,425.1,734.311,425.943,733.449,426.066Z" transform="translate(-721.348 -419.499)" fill="#1b1f38"/>
                        </g>
                      </g>
                    </g>
                    <g id="Grupo_60671" data-name="Grupo 60671">
                      <g id="Grupo_60670" data-name="Grupo 60670">
                        <g id="Grupo_60669" data-name="Grupo 60669">
                          <path id="Trazado_107314" data-name="Trazado 107314" d="M686.253,422.371a4.932,4.932,0,0,0,2.324.009c.819-.121,1.644-.22,2.365-.276s1.553-.091,2.38-.1a4.909,4.909,0,0,0,2.291-.376c.6-.347.785-1.223-.027-2.218a6.011,6.011,0,0,0-5.038-1.759,5.9,5.9,0,0,0-4.658,2.527C685.266,421.287,685.6,422.121,686.253,422.371Z" transform="translate(-685.559 -417.629)" fill="#1b1f38"/>
                        </g>
                      </g>
                    </g>
                  </g>
                </g>
              </g>
              <path id="Trazado_107315" data-name="Trazado 107315" d="M712.349,444.566h-3.815a.74.74,0,0,1,0-1.48h3.815a.74.74,0,0,1,0,1.48Z" transform="translate(-689.043 -426.973)" fill="#fff"/>
              <path id="Trazado_107316" data-name="Trazado 107316" d="M741.774,442.747a.74.74,0,0,1-.069-1.477l22.66-2.139a.74.74,0,0,1,.139,1.473l-22.66,2.139A.672.672,0,0,1,741.774,442.747Z" transform="translate(-701.245 -425.52)" fill="#fff"/>
              <path id="Trazado_107317" data-name="Trazado 107317" d="M717.088,485.963H717l-8.885-.113a.74.74,0,0,1,.01-1.48h.009l8.885.114a5.386,5.386,0,0,0,5.272-4.126l1.442.337A6.869,6.869,0,0,1,717.088,485.963Z" transform="translate(-688.893 -440.654)" fill="#e06a4b"/>
            </g>
          </g>
        </g>
        <g id="Grupo_60678" data-name="Grupo 60678" transform="translate(62.21 109.859)">
          <path id="Trazado_107318" data-name="Trazado 107318" d="M717.384,539.331,706,549.18l1.7,23.276a1.436,1.436,0,0,0,2.388.968l20.942-18.659Z" transform="translate(-705.998 -533.166)" fill="#fff"/>
          <path id="Trazado_107319" data-name="Trazado 107319" d="M781.3,529.59l-37.239,21.487,14.951,25.109a2.191,2.191,0,0,0,3.3.551l36.225-30.674Z" transform="translate(-719.968 -529.59)" fill="#fff"/>
          <path id="Trazado_107320" data-name="Trazado 107320" d="M716.943,580.138l9.851,20.034,21.343-12.71-13.662-22.944Z" transform="translate(-710.015 -542.411)" fill="#1b1f38"/>
        </g>
      </g>
      <g id="Grupo_60694" data-name="Grupo 60694" transform="translate(0 12.715)">
        <g id="Grupo_60692" data-name="Grupo 60692">
          <path id="Trazado_107321" data-name="Trazado 107321" d="M472.451,408.359l-23.045.161H419.319l.07-11.157a23.647,23.647,0,0,0-.38-4.387c-4.017-22.055-36.306-22.184-40.555-.173a23.652,23.652,0,0,0-.427,4.487V410.7h.013l.056,10c.058,10.571-6.765,19.61-15.619,21.575a14.143,14.143,0,0,0,2.131.1c1.626.043,2.919,0,2.919,0l85.947.112c10.585-.074,19.111-9.831,19.046-21.793Z" transform="translate(-362.449 -376.202)" fill="#bbb5c6"/>
          <g id="Grupo_60691" data-name="Grupo 60691" transform="translate(36.235)">
            <g id="Grupo_60681" data-name="Grupo 60681">
              <path id="Trazado_107322" data-name="Trazado 107322" d="M563.35,408.107a31.878,31.878,0,0,0-20.773-29.88,23.431,23.431,0,0,0-9.614-2.119l-71.448.082.005-.01H422.574c-.52,0-1.035.023-1.548.056H419.7v.044c.1.011.2.029.295.042a23.531,23.531,0,0,1,20.363,21.918h-.013V620.309a19.628,19.628,0,0,0,19.732,19.522H563.31v-89.6h.04Z" transform="translate(-419.699 -376.108)" fill="#f3eff9"/>
              <g id="Grupo_60680" data-name="Grupo 60680" transform="translate(41.204 106.495)">
                <path id="Trazado_107323" data-name="Trazado 107323" d="M569.369,564.554h-83.83a.74.74,0,0,1,0-1.48h83.83a.74.74,0,1,1,0,1.48Z" transform="translate(-484.799 -551.232)" fill="#1b1f38"/>
                <path id="Trazado_107324" data-name="Trazado 107324" d="M557.588,545.844H522.273a.74.74,0,0,1,0-1.48h35.315a.74.74,0,0,1,0,1.48Z" transform="translate(-498.283 -544.364)" fill="#1b1f38"/>
                <path id="Trazado_107325" data-name="Trazado 107325" d="M569.369,592.018h-83.83a.74.74,0,0,1,0-1.48h83.83a.74.74,0,1,1,0,1.48Z" transform="translate(-484.799 -561.313)" fill="#1b1f38"/>
                <path id="Trazado_107326" data-name="Trazado 107326" d="M569.369,619.481h-83.83a.74.74,0,0,1,0-1.48h83.83a.74.74,0,1,1,0,1.48Z" transform="translate(-484.799 -571.394)" fill="#1b1f38"/>
                <path id="Trazado_107327" data-name="Trazado 107327" d="M569.369,645.185h-83.83a.74.74,0,0,1,0-1.48h83.83a.74.74,0,1,1,0,1.48Z" transform="translate(-484.799 -580.829)" fill="#1b1f38"/>
              </g>
            </g>
            <g id="Grupo_60690" data-name="Grupo 60690" transform="translate(31.415 24.62)">
              <g id="Grupo_60689" data-name="Grupo 60689">
                <path id="Trazado_107328" data-name="Trazado 107328" d="M526.031,417h0a2.869,2.869,0,0,0-5.6.887h0a2.87,2.87,0,0,1-5.2,1.689h0a2.87,2.87,0,0,0-5.053,2.575h0a2.869,2.869,0,0,1-4.421,3.212h0a2.87,2.87,0,0,0-4.01,4.011h0a2.869,2.869,0,0,1-3.212,4.42h0a2.87,2.87,0,0,0-2.575,5.054h0a2.869,2.869,0,0,1-1.689,5.2h0a2.869,2.869,0,0,0-.887,5.6h0a2.87,2.87,0,0,1,0,5.465h0a2.869,2.869,0,0,0,.887,5.6h0a2.87,2.87,0,0,1,1.689,5.2h0a2.869,2.869,0,0,0,2.575,5.053h0a2.869,2.869,0,0,1,3.212,4.421h0a2.87,2.87,0,0,0,4.01,4.011h0a2.869,2.869,0,0,1,4.421,3.212h0a2.869,2.869,0,0,0,5.053,2.575h0a2.87,2.87,0,0,1,5.2,1.689h0a2.869,2.869,0,0,0,5.6.887h0a2.87,2.87,0,0,1,5.465,0h0a2.869,2.869,0,0,0,5.6-.887h0a2.869,2.869,0,0,1,5.2-1.689h0a2.869,2.869,0,0,0,5.053-2.575h0a2.869,2.869,0,0,1,4.421-3.212h0a2.87,2.87,0,0,0,4.01-4.011h0a2.87,2.87,0,0,1,3.212-4.421h0a2.869,2.869,0,0,0,2.575-5.053h0a2.87,2.87,0,0,1,1.689-5.2h0a2.869,2.869,0,0,0,.887-5.6h0a2.87,2.87,0,0,1,0-5.465h0a2.869,2.869,0,0,0-.887-5.6h0a2.869,2.869,0,0,1-1.689-5.2h0a2.87,2.87,0,0,0-2.575-5.054h0a2.869,2.869,0,0,1-3.212-4.42h0a2.87,2.87,0,0,0-4.01-4.011h0a2.87,2.87,0,0,1-4.421-3.212h0a2.87,2.87,0,0,0-5.053-2.575h0a2.869,2.869,0,0,1-5.2-1.689h0a2.869,2.869,0,0,0-5.6-.887h0A2.87,2.87,0,0,1,526.031,417Z" transform="translate(-477.429 -415.007)" fill="#f1ce6d"/>
                <g id="Grupo_60687" data-name="Grupo 60687" transform="translate(32.539 13.346)">
                  <path id="Trazado_107329" data-name="Trazado 107329" d="M552.731,491.087H526.344a5.608,5.608,0,0,1-5.6-5.6v-20.86a5.608,5.608,0,0,1,5.6-5.6h26.387a5.608,5.608,0,0,1,5.6,5.6v20.86A5.608,5.608,0,0,1,552.731,491.087Zm-26.387-29.844a3.385,3.385,0,0,0-3.381,3.381v20.86a3.385,3.385,0,0,0,3.381,3.381h26.387a3.385,3.385,0,0,0,3.381-3.381v-20.86a3.385,3.385,0,0,0-3.381-3.381Z" transform="translate(-520.742 -444.509)" fill="#1b1f38"/>
                  <path id="Trazado_107330" data-name="Trazado 107330" d="M555.061,452.826a1.11,1.11,0,0,1-1.11-1.11v-6.062c0-4.049-3.734-7.342-8.323-7.342h-6.212c-4.589,0-8.323,3.293-8.323,7.342v6.062a1.11,1.11,0,1,1-2.22,0v-6.062c0-5.273,4.73-9.562,10.543-9.562h6.212c5.814,0,10.543,4.289,10.543,9.562v6.062A1.11,1.11,0,0,1,555.061,452.826Z" transform="translate(-523.726 -436.092)" fill="#1b1f38"/>
                  <g id="Grupo_60686" data-name="Grupo 60686" transform="translate(12.506 21.093)">
                    <g id="Grupo_60685" data-name="Grupo 60685">
                      <path id="Trazado_107331" data-name="Trazado 107331" d="M553.488,475.6a6.508,6.508,0,0,0-12.982-.239,6.055,6.055,0,0,0,2.475,5.095,1.31,1.31,0,0,1,.544,1.044v1.694a1.35,1.35,0,0,0,1.382,1.315h4.174a1.35,1.35,0,0,0,1.382-1.315V481.5a1.309,1.309,0,0,1,.543-1.044A6.064,6.064,0,0,0,553.488,475.6Z" transform="translate(-540.502 -469.418)" fill="#1b1f38"/>
                      <g id="Grupo_60682" data-name="Grupo 60682" transform="translate(4.933 15.858)">
                        <path id="Trazado_107332" data-name="Trazado 107332" d="M551.339,496.14a1.375,1.375,0,1,1-1.375-1.375A1.376,1.376,0,0,1,551.339,496.14Z" transform="translate(-548.403 -494.58)" fill="#1b1f38"/>
                        <path id="Trazado_107333" data-name="Trazado 107333" d="M549.856,497.593a1.56,1.56,0,1,1,1.561-1.56A1.562,1.562,0,0,1,549.856,497.593Zm0-2.75a1.19,1.19,0,1,0,1.19,1.19A1.19,1.19,0,0,0,549.856,494.843Z" transform="translate(-548.296 -494.473)" fill="#f1ce6d"/>
                      </g>
                      <g id="Grupo_60683" data-name="Grupo 60683" transform="translate(3.761 15.263)">
                        <path id="Rectángulo_6010" data-name="Rectángulo 6010" d="M.573,0h3.95A.573.573,0,0,1,5.1.573v0a.573.573,0,0,1-.573.573H.573A.573.573,0,0,1,0,.573v0A.573.573,0,0,1,.573,0Z" transform="translate(0.185 0.185)" fill="#1b1f38"/>
                        <path id="Trazado_107334" data-name="Trazado 107334" d="M551.224,495.047h-4.1a.686.686,0,0,1-.685-.685v-.145a.686.686,0,0,1,.685-.685h4.1a.686.686,0,0,1,.685.685v.145A.686.686,0,0,1,551.224,495.047Zm-4.1-1.144a.315.315,0,0,0-.315.315v.145a.316.316,0,0,0,.315.315h4.1a.316.316,0,0,0,.315-.315v-.145a.315.315,0,0,0-.315-.315Z" transform="translate(-546.444 -493.532)" fill="#f1ce6d"/>
                      </g>
                      <g id="Grupo_60684" data-name="Grupo 60684" transform="translate(4.073 16.408)">
                        <rect id="Rectángulo_6011" data-name="Rectángulo 6011" width="4.471" height="1.001" rx="0.5" transform="translate(0.185 0.185)" fill="#1b1f38"/>
                        <path id="Trazado_107335" data-name="Trazado 107335" d="M551.155,496.712h-3.6a.623.623,0,0,1-.622-.622v-.127a.623.623,0,0,1,.622-.622h3.6a.623.623,0,0,1,.622.622v.127A.623.623,0,0,1,551.155,496.712Zm-3.6-1a.253.253,0,0,0-.252.253v.127a.252.252,0,0,0,.252.252h3.6a.252.252,0,0,0,.252-.252v-.127a.253.253,0,0,0-.252-.253Z" transform="translate(-546.936 -495.341)" fill="#f1ce6d"/>
                      </g>
                      <path id="Trazado_107336" data-name="Trazado 107336" d="M543.4,478.694a.276.276,0,0,1-.267-.2,4.372,4.372,0,0,1,1.558-4.646.278.278,0,0,1,.317.456,3.75,3.75,0,0,0-1.341,4.043.277.277,0,0,1-.194.341A.271.271,0,0,1,543.4,478.694Z" transform="translate(-541.403 -471.024)" fill="#f1ce6d"/>
                    </g>
                  </g>
                </g>
                <path id="Trazado_107337" data-name="Trazado 107337" d="M490.184,428.665a.74.74,0,0,1-.46-.161l-6.984-5.562a.74.74,0,0,1,.922-1.158l6.984,5.562a.74.74,0,0,1-.462,1.319Z" transform="translate(-474.152 -417.435)" fill="#1b1f38"/>
                <path id="Trazado_107338" data-name="Trazado 107338" d="M470.073,472.545a.74.74,0,0,1-.169-1.461l8.693-2.039a.74.74,0,0,1,.338,1.441l-8.692,2.039A.742.742,0,0,1,470.073,472.545Z" transform="translate(-469.333 -434.835)" fill="#1b1f38"/>
                <path id="Trazado_107339" data-name="Trazado 107339" d="M480.751,450.122a.739.739,0,0,1-.2-.027l-8.606-2.378a.74.74,0,0,1,.395-1.427l8.605,2.378a.74.74,0,0,1-.2,1.454Z" transform="translate(-470.093 -426.48)" fill="#1b1f38"/>
                <path id="Trazado_107340" data-name="Trazado 107340" d="M614.694,472.268a.74.74,0,0,1-.059-1.477l8.9-.721a.74.74,0,1,1,.12,1.475l-8.9.721Z" transform="translate(-522.419 -435.217)" fill="#1b1f38"/>
                <path id="Trazado_107341" data-name="Trazado 107341" d="M612.923,450.123a.74.74,0,0,1-.2-1.454l8.606-2.378a.74.74,0,0,1,.394,1.427l-8.605,2.378A.737.737,0,0,1,612.923,450.123Z" transform="translate(-521.768 -426.48)" fill="#1b1f38"/>
                <path id="Trazado_107342" data-name="Trazado 107342" d="M619.047,493.612a.731.731,0,0,1-.34-.084l-7.923-4.117a.74.74,0,1,1,.682-1.313l7.923,4.117a.74.74,0,0,1-.342,1.4Z" transform="translate(-521.108 -441.805)" fill="#1b1f38"/>
                <g id="Grupo_60688" data-name="Grupo 60688" transform="translate(66.799 1.196)">
                  <path id="Trazado_107343" data-name="Trazado 107343" d="M595.71,427.331a10.483,10.483,0,0,1-10.466,10.5,10.466,10.466,0,1,1,10.466-10.5Zm-18.672.066a8.187,8.187,0,0,0,8.2,8.269,8.3,8.3,0,1,0-8.2-8.269Zm11.7-2.154h0a1.4,1.4,0,0,1-1.844.308,2.382,2.382,0,0,0-1.312-.466,2.242,2.242,0,0,0,0,4.463,2.741,2.741,0,0,0,1.365-.446,1.335,1.335,0,0,1,1.664.238l.034.036a1.34,1.34,0,0,1-.215,2.037,5.728,5.728,0,0,1-3.032.936,4.893,4.893,0,0,1-5.141-4.986,4.955,4.955,0,0,1,5.264-4.956,5.857,5.857,0,0,1,2.924.844A1.334,1.334,0,0,1,588.739,425.243Z" transform="translate(-574.871 -416.896)" fill="#1b1f38"/>
                </g>
              </g>
            </g>
          </g>
        </g>
        <g id="Grupo_60693" data-name="Grupo 60693" transform="translate(56.831 185.899)">
          <path id="Trazado_107344" data-name="Trazado 107344" d="M578.749,689.829v32.706a23.442,23.442,0,0,0,23.441,23.441h4.352a28.167,28.167,0,0,0,28.167-28.167h0a19.827,19.827,0,0,1,19.827-19.827h8.153a16.835,16.835,0,0,1,5.336.867v-.867h.191v-12.3a15.866,15.866,0,0,0-15.866-15.866H559.632v.023A20.01,20.01,0,0,1,578.749,689.829Z" transform="translate(-491.659 -669.817)" fill="#f3eff9"/>
          <line id="Línea_214" data-name="Línea 214" transform="translate(302.769 77.825)" fill="none" stroke="#f8f7f2" stroke-linecap="round" stroke-linejoin="round" stroke-width="0"/>
          <path id="Trazado_107345" data-name="Trazado 107345" d="M839.643,742.813l-.171-12.63a15.867,15.867,0,0,0-15.866-15.866H730.887v.867a16.865,16.865,0,0,1,11.526,16v7.967a24.83,24.83,0,0,0,24.83,24.83H857.29A21.871,21.871,0,0,1,839.643,742.813Z" transform="translate(-554.521 -686.151)" fill="#f3eff9"/>
          <path id="Trazado_107346" data-name="Trazado 107346" d="M452.239,762.094a17.742,17.742,0,0,0,.4,3.729,20.556,20.556,0,0,1-.348-3.891Z" transform="translate(-452.239 -703.629)" fill="#1b1f38"/>
          <line id="Línea_215" data-name="Línea 215" transform="translate(212.723 77.825)" fill="none" stroke="#1b1f38" stroke-linecap="round" stroke-linejoin="round" stroke-width="0"/>
          <path id="Trazado_107347" data-name="Trazado 107347" d="M640.362,722.812v-7.967A16.864,16.864,0,0,0,623.5,697.982h-8.153a19.827,19.827,0,0,0-19.827,19.827h0a28.167,28.167,0,0,1-28.167,28.167H563a23.442,23.442,0,0,1-23.441-23.441V689.829a20.01,20.01,0,0,0-19.117-19.989c-.3-.013-.6-.023-.9-.023h0a24.459,24.459,0,0,0-24.459,24.459v26.777a24.924,24.924,0,0,1-24.924,24.924h0a17.7,17.7,0,0,1-17.3-13.966,19.155,19.155,0,0,0,19.253,15.631H665.192A24.83,24.83,0,0,1,640.362,722.812Z" transform="translate(-452.469 -669.817)" fill="#bbb5c6"/>
        </g>
      </g>
      <g id="Grupo_60700" data-name="Grupo 60700" transform="translate(34.159 116.922)">
        <g id="Grupo_60696" data-name="Grupo 60696" transform="translate(0 35.03)">
          <g id="Grupo_60695" data-name="Grupo 60695">
            <path id="Trazado_107348" data-name="Trazado 107348" d="M461.9,602.6c-3.506-7.512-11.523-1.994-16.751.665-2.366,1.445-4.548,2.735-6.6,3.927a24.418,24.418,0,0,0,.194-8.512,3.361,3.361,0,0,0-1.383-2.36,2.16,2.16,0,0,0-1.987.039,5.5,5.5,0,0,0-1.529,1.3c-4.224,4.663-13.7,20.654-13.7,20.654a43.041,43.041,0,0,0-3.567,12.4c-1.63,12.355,9.613,23.65,21.452,21.2a9.15,9.15,0,0,0,3.663-1.484l19.9-14.285c3.806-2.426,4.223-8.49.685-8.548,3.384-1.008,6.653-3.39,4.712-7.616-.815-2.443-2.706-2.8-4.72-2.489,3.066-1,5.825-2.6,4.467-6.217-.939-4.1-4.258-4.233-7.36-3.5C461.384,606.832,462.908,605.3,461.9,602.6Z" transform="translate(-416.419 -596.095)" fill="#e8a185"/>
          </g>
          <path id="Trazado_107349" data-name="Trazado 107349" d="M437.463,618.2a.74.74,0,0,1-.373-1.38l10.759-6.268a.74.74,0,0,1,.745,1.279L437.834,618.1A.734.734,0,0,1,437.463,618.2Z" transform="translate(-423.872 -601.364)" fill="#e06a4b"/>
          <path id="Trazado_107350" data-name="Trazado 107350" d="M471.6,619.085a.74.74,0,0,1-.383-1.374c.752-.453,7.383-4.437,8.788-4.82a.74.74,0,1,1,.389,1.428,87.21,87.21,0,0,0-8.413,4.66A.731.731,0,0,1,471.6,619.085Z" transform="translate(-436.401 -602.251)" fill="#e06a4b"/>
          <path id="Trazado_107351" data-name="Trazado 107351" d="M477.917,634.326a.74.74,0,0,1-.372-1.38l6.769-3.92a.74.74,0,1,1,.742,1.28l-6.769,3.92A.724.724,0,0,1,477.917,634.326Z" transform="translate(-438.721 -608.146)" fill="#e06a4b"/>
          <path id="Trazado_107352" data-name="Trazado 107352" d="M481.1,649.255a.74.74,0,0,1-.357-1.389l3.693-2.031a.74.74,0,0,1,.713,1.3l-3.693,2.031A.739.739,0,0,1,481.1,649.255Z" transform="translate(-439.89 -614.32)" fill="#e06a4b"/>
        </g>
        <g id="Grupo_60699" data-name="Grupo 60699" transform="translate(127.648)">
          <g id="Grupo_60697" data-name="Grupo 60697">
            <path id="Trazado_107353" data-name="Trazado 107353" d="M696.452,541.394l4.539,3.893a2.839,2.839,0,0,1,.214,4.007l-4.077,4.753a2.838,2.838,0,0,1-3.992.4l-4.539-3.893a2.838,2.838,0,0,1-.215-4.006l4.077-4.754A2.839,2.839,0,0,1,696.452,541.394Z" transform="translate(-643.629 -540.75)" fill="#e06a4b"/>
            <rect id="Rectángulo_6012" data-name="Rectángulo 6012" width="64.661" height="11.522" transform="translate(4.86 52.341) rotate(-49.382)" fill="#f1ce6d"/>
            <path id="Trazado_107354" data-name="Trazado 107354" d="M623.036,623.546l8.585,7.363c.037.032.17.146-.032.127l-13.494,6.958h0l4.82-14.4C622.934,623.542,623,623.515,623.036,623.546Z" transform="translate(-618.095 -571.137)" fill="#e9a788"/>
            <path id="Trazado_107355" data-name="Trazado 107355" d="M619.888,638.228l3.073,2.635c.013.011.061.052-.011.046l-4.829,2.49h0l1.725-5.153C619.852,638.226,619.875,638.217,619.888,638.228Z" transform="translate(-618.104 -576.529)" fill="#2e3b62"/>
            <path id="Trazado_107356" data-name="Trazado 107356" d="M687.153,567.533a.37.37,0,0,1-.282-.611l6.055-7.06a.37.37,0,0,1,.562.482l-6.055,7.059A.373.373,0,0,1,687.153,567.533Z" transform="translate(-643.308 -547.718)" fill="#fff"/>
            <path id="Trazado_107357" data-name="Trazado 107357" d="M663.654,576.125a.37.37,0,0,1-.281-.611l17.457-20.355a.37.37,0,0,1,.562.482L663.935,576A.369.369,0,0,1,663.654,576.125Z" transform="translate(-634.682 -545.992)" fill="#fff"/>
          </g>
          <g id="Grupo_60698" data-name="Grupo 60698" transform="translate(5.648 17.118)">
            <path id="Trazado_107358" data-name="Trazado 107358" d="M780.595,639.636l-74.688-49.4-17.313-13.566a32.606,32.606,0,0,0-16.787-6.77l-19.836-2.031a14.768,14.768,0,0,0-8.262,1.56l-9.416,4.846a4.231,4.231,0,0,0-2.284,4.047l.075,1.1-.724.345a5.675,5.675,0,0,0-3.234,5.141l.011,3.9-.649,1.522a5.86,5.86,0,0,0,1.016,6.2l14.62,16.4a2.306,2.306,0,0,0,3.384.065,6.586,6.586,0,0,0,.384-8.7l-4.522-5.615,15.146,8.965a18.281,18.281,0,0,0,8.188,2.514l9.34.573L684.7,621.76l57.926,69.887a40.76,40.76,0,0,0,24.983,12.8c18.447,2.273,35.989-8.714,42.779-26.017l5.3-11.6Z" transform="translate(-627.018 -567.794)" fill="#e9a788"/>
          </g>
          <path id="Trazado_107359" data-name="Trazado 107359" d="M634.981,584.951a.74.74,0,0,1-.225-1.446l11.254-3.591a.74.74,0,0,1,.449,1.411l-11.254,3.591A.728.728,0,0,1,634.981,584.951Z" transform="translate(-624.021 -555.113)" fill="#e06a4b"/>
          <path id="Trazado_107360" data-name="Trazado 107360" d="M629.057,599.074a.74.74,0,0,1-.182-1.457l13.987-3.559a.74.74,0,1,1,.366,1.434l-13.987,3.559A.734.734,0,0,1,629.057,599.074Z" transform="translate(-621.847 -560.309)" fill="#e06a4b"/>
          <path id="Trazado_107361" data-name="Trazado 107361" d="M649.2,615.081a.737.737,0,0,1-.552-.247l-2.818-3.15a.74.74,0,1,1,1.1-.987l2.819,3.151a.74.74,0,0,1-.551,1.234Z" transform="translate(-628.208 -566.334)" fill="#e06a4b"/>
          <path id="Trazado_107362" data-name="Trazado 107362" d="M702.461,635.7a.74.74,0,0,1-.028-1.479l11.029-.433a.74.74,0,1,1,.058,1.479l-11.029.433Z" transform="translate(-648.792 -574.9)" fill="#e06a4b"/>
        </g>
      </g>
    </g>
  </g>
</svg>
