<svg xmlns="http://www.w3.org/2000/svg" width="289.255" height="123.667" viewBox="0 0 289.255 123.667">
  <g id="Grupo_60880" data-name="Grupo 60880" transform="translate(-1050 -5240)">
    <g id="ebay" transform="translate(1050 5240)">
      <circle id="Elipse_4021" data-name="Elipse 4021" cx="61.833" cy="61.833" r="61.833" transform="translate(0 0)" fill="#fff"/>
      <path id="Trazado_103173" data-name="Trazado 103173" d="M68.566,196.159c-12.055,0-12.523,9.381-12.462,11.818,0,0-.59,10.97,12.167,10.97,10.96,0,11.5-6.883,11.5-6.883l-5.043.009s-.982,3.793-6.437,3.692c-7.012-.13-7.284-6.924-7.284-6.924H80.433S81.908,196.162,68.566,196.159Zm-7.4,9.354s.346-6.143,7.28-6.146c6.908,0,6.908,6.146,6.908,6.146Z" transform="translate(-41.462 -144.975)" fill="#ee3b3f"/>
      <path id="Trazado_103174" data-name="Trazado 103174" d="M162.387,171.989c-6.061-.034-8.669,3.588-8.669,3.588V163.456h-4.859l.082,25.62s-.029,2.984-.213,4.955h4.719l.2-2.877s2.2,3.623,8.635,3.623,11.514-3.961,11.65-11.309S168.449,172.022,162.387,171.989ZM161.273,191.5c-7.655.1-7.531-8.116-7.531-8.116s-.278-7.908,7.518-8.111,7.543,8.279,7.543,8.279S168.928,191.406,161.273,191.5Z" transform="translate(-109.92 -120.805)" fill="#0468b2"/>
      <path id="Trazado_103175" data-name="Trazado 103175" d="M266.5,212.855c.012-3.315.108-6.273,0-8.361-.128-2.42.1-8.261-10.362-8.694,0,0-10.031-.914-11.073,6.552h5.131s.4-3.42,5.6-3.322c4.927.094,5.825,2.509,5.8,5.48,0,0-4.224.014-5.632.02-2.54.013-11.426.295-12.256,5.708-.987,6.437,4.757,8.444,9.252,8.419s7.059-1.371,8.966-3.783l.2,3,4.471-.026S266.483,216.168,266.5,212.855Zm-12.7,2.7s-4.869.007-5.156-3.885c-.3-4.152,7.492-3.9,7.492-3.9l5.51-.007S262.534,215.672,253.8,215.559Z" transform="translate(-180.032 -144.684)" fill="#f7ab1b"/>
      <path id="Trazado_103176" data-name="Trazado 103176" d="M321.176,199.273h5.638l8.244,16.441,8.263-16.441h5.1L333.5,228.581H328.05l4.317-8.146Z" transform="translate(-237.371 -147.276)" fill="#6bb745"/>
      <g id="Grupo_58489" data-name="Grupo 58489" transform="translate(112.769 52.021)">
        <path id="Trazado_103177" data-name="Trazado 103177" d="M432.363,200.513v-.607h-.187v-.225h.187v-.316h.34v.316h.4v.225h-.4v.565c0,.1.066.145.182.145a.588.588,0,0,0,.212-.039v.217a.742.742,0,0,1-.306.059C432.538,200.853,432.363,200.768,432.363,200.513Z" transform="translate(-432.176 -199.364)" fill="#231f20"/>
        <path id="Trazado_103178" data-name="Trazado 103178" d="M437.035,200.508h.339v.175a.572.572,0,0,1,.452-.2.5.5,0,0,1,.442.2.658.658,0,0,1,.5-.2c.32,0,.517.159.517.441v.736h-.339v-.656a.264.264,0,0,0-.3-.282.281.281,0,0,0-.315.286v.652h-.34v-.657a.266.266,0,0,0-.3-.281.284.284,0,0,0-.316.286v.652h-.339v-1.154Z" transform="translate(-435.766 -200.193)" fill="#231f20"/>
      </g>
    </g>
    <g id="ebay-2" data-name="ebay" transform="translate(1215.589 5240)">
      <circle id="Elipse_4021-2" data-name="Elipse 4021" cx="61.833" cy="61.833" r="61.833" transform="translate(0 0)" fill="#fff"/>
      <g id="Grupo_58490" data-name="Grupo 58490" transform="translate(-8.494 1117.556)">
        <path id="Trazado_103179" data-name="Trazado 103179" d="M456.325-1055.6a5.452,5.452,0,0,1,1.733-2.328,4.738,4.738,0,0,1,2.775-.807,4.484,4.484,0,0,1,2.769.807,6.484,6.484,0,0,1,1.738,2.308c.166-.065.185-.193.235-.293a4.716,4.716,0,0,1,3.589-2.739,5.035,5.035,0,0,1,4.711,1.43,4.057,4.057,0,0,1,1.083,2.213,14.152,14.152,0,0,1,.128,3.629c-.017.174-.013.351-.013.526q0,5.313,0,10.626c0,.811-.126.935-.949.936-.981,0-1.962-.023-2.942.009a.767.767,0,0,1-.875-.873c.018-3.659.012-7.318.012-10.977a8.865,8.865,0,0,0-.088-1.531,1.8,1.8,0,0,0-1.8-1.587,2.352,2.352,0,0,0-2.489,2,10.361,10.361,0,0,0-.175,1.875c-.009,3.366,0,6.733,0,10.1,0,.863-.126.988-.993.988q-1.449,0-2.9,0c-.69,0-.865-.172-.865-.85q0-5.159,0-10.319a10.053,10.053,0,0,0-.076-1.664,5.711,5.711,0,0,0-.142-.687,2.079,2.079,0,0,0-3.34-1.034,2.269,2.269,0,0,0-.719,1.182,7.363,7.363,0,0,0-.279,2.08q-.01,5.094,0,10.187c0,.146,0,.293,0,.439a.608.608,0,0,1-.655.662c-.117.007-.234,0-.351,0h-2.81a2.992,2.992,0,0,1-.395-.012.563.563,0,0,1-.539-.582c-.008-.116,0-.234,0-.351q0-8.562,0-17.125c0-.882.124-1,1.022-1h2.5c.1,0,.205,0,.307,0,.468.026.662.217.67.683.009.542,0,1.083.005,1.625A.488.488,0,0,0,456.325-1055.6Z" transform="translate(-418.393 -3.761)" fill="#232f3e"/>
        <path id="Trazado_103180" data-name="Trazado 103180" d="M1068.437-1052.721c0,1.1.019,2.2-.006,3.292a3.963,3.963,0,0,0,.759,2.425c.176.251.369.492.533.751.277.438.255.653-.129,1q-1.209,1.082-2.44,2.141a.761.761,0,0,1-1.137.005,6.873,6.873,0,0,1-1.456-1.628c-.066-.1-.133-.193-.2-.291-.108-.167-.217-.155-.354-.024a14.511,14.511,0,0,1-1.194,1.032,6.118,6.118,0,0,1-3.671,1.259,8.863,8.863,0,0,1-1.75-.067,4.506,4.506,0,0,1-3.786-3.123,6.536,6.536,0,0,1,.241-5,5.861,5.861,0,0,1,3.18-2.94,12.309,12.309,0,0,1,3.181-.8c.984-.133,1.973-.232,2.959-.351.329-.04.346-.056.352-.374a9.084,9.084,0,0,0-.088-1.75,2.006,2.006,0,0,0-1.718-1.707,3.14,3.14,0,0,0-2.091.291,2.433,2.433,0,0,0-1.218,1.487c-.043.14-.071.285-.126.42a.633.633,0,0,1-.79.447c-.943-.109-1.887-.209-2.831-.311a1.469,1.469,0,0,1-.387-.067.524.524,0,0,1-.413-.593,3.953,3.953,0,0,1,.4-1.518,5.974,5.974,0,0,1,3.539-3.273,9.965,9.965,0,0,1,3.212-.629,10.472,10.472,0,0,1,3.423.377,5.9,5.9,0,0,1,2.564,1.459,4.58,4.58,0,0,1,1.264,2.5,12.9,12.9,0,0,1,.169,2.139C1068.448-1055,1068.436-1053.862,1068.437-1052.721Zm-4.912,1.7c0-.317.008-.6,0-.873-.01-.3-.05-.344-.325-.35a7,7,0,0,0-3.042.536,2.838,2.838,0,0,0-1.417,1.261,3.49,3.49,0,0,0-.165,2.931,1.825,1.825,0,0,0,1.569,1.238,2.4,2.4,0,0,0,1.981-.638,4,4,0,0,0,1.225-2.183A7.616,7.616,0,0,0,1063.525-1051.025Z" transform="translate(-993.519 -0.044)" fill="#232f3e"/>
        <path id="Trazado_103181" data-name="Trazado 103181" d="M29.259-1053.322c0,1.432.018,2.588-.006,3.744a4.248,4.248,0,0,0,.893,2.694c.157.211.317.422.456.645a.632.632,0,0,1-.13.935q-1.239,1.082-2.492,2.147a.755.755,0,0,1-1.165-.031,8.5,8.5,0,0,1-1.473-1.677c-.281-.441-.29-.433-.655-.082a8.432,8.432,0,0,1-1.959,1.467,6.216,6.216,0,0,1-2.7.674,8.106,8.106,0,0,1-1.967-.095,4.587,4.587,0,0,1-3.753-3.565,6.539,6.539,0,0,1,.469-4.7,5.8,5.8,0,0,1,2.863-2.672,11.629,11.629,0,0,1,3.422-.909c.971-.125,1.944-.229,2.915-.347.352-.043.372-.054.369-.4a9.619,9.619,0,0,0-.072-1.706,1.971,1.971,0,0,0-1.658-1.706,3.048,3.048,0,0,0-2.4.425,2.45,2.45,0,0,0-.96,1.322c-.046.139-.071.285-.124.42a.666.666,0,0,1-.79.466c-.972-.11-1.945-.221-2.918-.321-.613-.063-.848-.374-.708-.989a5.935,5.935,0,0,1,3.7-4.368,10.119,10.119,0,0,1,3.547-.721,9.609,9.609,0,0,1,3.789.543,5.3,5.3,0,0,1,2.427,1.669,5.123,5.123,0,0,1,1,2.72C29.34-1056.176,29.212-1054.61,29.259-1053.322Zm-4.91,2.488c0-.445.007-.766,0-1.088s-.043-.361-.35-.369a7.316,7.316,0,0,0-2.59.368,2.994,2.994,0,0,0-1.938,1.658,3.5,3.5,0,0,0-.1,2.568,1.893,1.893,0,0,0,1.521,1.361,2.4,2.4,0,0,0,1.831-.426A3.638,3.638,0,0,0,24-1048.5,5.95,5.95,0,0,0,24.348-1050.834Z" transform="translate(0)" fill="#232f3e"/>
        <path id="Trazado_103182" data-name="Trazado 103182" d="M2254.571-1055.679c.186-.359.362-.724.559-1.077a4.2,4.2,0,0,1,3.024-2.256,5.259,5.259,0,0,1,3.809.614,4.385,4.385,0,0,1,1.985,2.934,11.744,11.744,0,0,1,.282,2.48q.014,6.257.01,12.514c0,.627-.187.814-.81.817q-1.559.007-3.118,0c-.652,0-.827-.179-.827-.84,0-3.513.005-7.026-.006-10.538a7.376,7.376,0,0,0-.255-2.17,2.211,2.211,0,0,0-.745-1.161,2.145,2.145,0,0,0-2.56.21,3.623,3.623,0,0,0-.973,1.881,7.639,7.639,0,0,0-.2,1.783c0,3.249-.008,6.5.006,9.748,0,.8-.148,1.136-1.1,1.1s-1.9-.006-2.854-.009c-.65,0-.865-.215-.867-.871q-.007-3.073,0-6.147c0-3.674.01-7.347-.008-11.021,0-.782.251-1.066,1.031-1.041.892.028,1.786.028,2.678,0a.755.755,0,0,1,.863.883c-.036.714-.008,1.431-.008,2.147Z" transform="translate(-2137.662 -3.402)" fill="#232f3e"/>
        <path id="Trazado_103183" data-name="Trazado 103183" d="M1831.738-1049.1a12.706,12.706,0,0,1,.764-4.563,8.366,8.366,0,0,1,2.131-3.332,6.8,6.8,0,0,1,4.262-1.839,7.971,7.971,0,0,1,2.987.3,7.129,7.129,0,0,1,4.113,3.358,11.176,11.176,0,0,1,1.37,4.047,13.857,13.857,0,0,1,.179,2.664,11.425,11.425,0,0,1-1.872,6.212,7.067,7.067,0,0,1-4.823,3.141,7.049,7.049,0,0,1-6.494-2.065,8.305,8.305,0,0,1-1.746-2.817A13.311,13.311,0,0,1,1831.738-1049.1Zm10.626.314c0-.542.022-1.084-.006-1.624s-.1-1.077-.164-1.613a7.429,7.429,0,0,0-.463-1.825,2.277,2.277,0,0,0-3.653-.755,4.1,4.1,0,0,0-.878,1.7,12.579,12.579,0,0,0-.343,3.043,23.079,23.079,0,0,0,.168,3.59,6.242,6.242,0,0,0,.718,2.426,2.115,2.115,0,0,0,1.232,1.061,2.191,2.191,0,0,0,2.439-.856,4.655,4.655,0,0,0,.7-1.695A13.589,13.589,0,0,0,1842.365-1048.785Z" transform="translate(-1737.843 -3.651)" fill="#232f3e"/>
        <path id="Trazado_103184" data-name="Trazado 103184" d="M404.28-557.916a43.552,43.552,0,0,1-28.854-11.075,2.732,2.732,0,0,1-.369-.373.525.525,0,0,1-.047-.617.52.52,0,0,1,.579-.213,1.229,1.229,0,0,1,.438.2,57.6,57.6,0,0,0,14.724,5.923,60.1,60.1,0,0,0,7.281,1.364,58.112,58.112,0,0,0,7.881.46,58.431,58.431,0,0,0,17.418-2.886q2.255-.729,4.439-1.649a1.631,1.631,0,0,1,.718-.172.871.871,0,0,1,.832.543.8.8,0,0,1-.228.921,4.1,4.1,0,0,1-.479.383,35.558,35.558,0,0,1-8.753,4.5,45.261,45.261,0,0,1-10.184,2.382c-.509.058-1.018.113-1.528.158C406.967-557.974,405.782-557.94,404.28-557.916Z" transform="translate(-345.009 -470.85)" fill="#fd9800"/>
        <path id="Trazado_103185" data-name="Trazado 103185" d="M1487.105-1051.869h5.18c.117,0,.234,0,.351,0,.6.023.82.246.826.834.005.556-.014,1.113.006,1.668a1.974,1.974,0,0,1-.366,1.237q-.776,1.117-1.553,2.234-2.076,2.967-4.155,5.931c-.168.24-.344.474-.5.722-.116.187-.073.269.155.273.512.008,1.021.038,1.532.082a11.792,11.792,0,0,1,4.489,1.261,1.271,1.271,0,0,1,.742,1.2c.005.819,0,1.639,0,2.458a.85.85,0,0,1-.125.5.575.575,0,0,1-.805.186,18.165,18.165,0,0,0-1.952-.787,13.158,13.158,0,0,0-5.156-.574,12.23,12.23,0,0,0-4.618,1.3c-.718.363-1.115.108-1.119-.71,0-.834-.006-1.668,0-2.5a2.983,2.983,0,0,1,.53-1.733q2.994-4.28,5.975-8.568c.167-.24.334-.48.495-.725.068-.1.2-.208.123-.346-.066-.117-.211-.067-.324-.074s-.2,0-.307,0h-4.785c-.132,0-.264.005-.395,0a.588.588,0,0,1-.622-.644c-.015-.468-.005-.936-.006-1.4,0-.366-.006-.732,0-1.1a.651.651,0,0,1,.672-.7c.131-.011.263-.005.395-.005Z" transform="translate(-1401.586 -10.335)" fill="#232f3e"/>
        <path id="Trazado_103186" data-name="Trazado 103186" d="M1486.616-597.349a12.7,12.7,0,0,1,2.827.321c.183.049.362.115.543.17a1.03,1.03,0,0,1,.773,1.042,9.228,9.228,0,0,1-.181,2.312,14.167,14.167,0,0,1-1.842,4.759,9.2,9.2,0,0,1-1.77,2.112,1.188,1.188,0,0,1-.522.31c-.307.065-.478-.092-.456-.407a1.531,1.531,0,0,1,.145-.458,36.106,36.106,0,0,0,1.579-4.6,6.341,6.341,0,0,0,.246-1.863,1.029,1.029,0,0,0-.859-1.113,5.54,5.54,0,0,0-1.513-.231,28.445,28.445,0,0,0-4.117.209c-.451.047-.9.1-1.352.145-.19.018-.4.03-.5-.183a.467.467,0,0,1,.164-.551,2.821,2.821,0,0,1,.418-.317,10.373,10.373,0,0,1,3.751-1.415A16.865,16.865,0,0,1,1486.616-597.349Z" transform="translate(-1401.153 -444.897)" fill="#fd9800"/>
      </g>
    </g>
  </g>
</svg>
