<svg xmlns="http://www.w3.org/2000/svg" width="355.54" height="172.233" viewBox="0 0 355.54 172.233">
  <g id="Grupo_60881" data-name="Grupo 60881" transform="translate(-1004.159 -5539)">
    <g id="Grupo_58491" data-name="Grupo 58491" transform="translate(1004.159 5554.767)">
      <path id="Trazado_103187" data-name="Trazado 103187" d="M2196.7,1376.146v.518q0,11.945,0,23.891c0,.683.15.622-.627.71-1.877.212-3.746.489-5.614.77-.323.048-.646.093-.959.139a.753.753,0,0,1-.074-.5q0-2.836,0-5.671,0-19.827,0-39.655c0-.733-.095-.636.639-.638q2.835-.007,5.671,0c.575,0,.47-.044.649.463q4.434,12.56,8.864,25.121a1.323,1.323,0,0,0,.269.554v-.6q0-12.459,0-24.918c0-.688-.09-.615.62-.616q2.992,0,5.983,0c.089,0,.179,0,.268,0,.333.011.334.012.343.36,0,.1,0,.208,0,.313q0,21.078,0,42.155c0,.739.165.631-.685.766-2.028.324-4.078.471-6.116.714-.236.028-.475.044-.708.092-.262.053-.365-.055-.444-.3-.43-1.315-.878-2.623-1.319-3.934l-6.53-19.412c-.037-.111-.08-.22-.12-.33Z" transform="translate(-2189.416 -1355.707)" fill="#e42214"/>
      <path id="Trazado_103188" data-name="Trazado 103188" d="M3332.593,1402.139a10.436,10.436,0,0,1-1.5-.192c-2.025-.332-4.045-.692-6.072-1.014a.624.624,0,0,1-.552-.471q-2.361-6.191-4.738-12.375a1.384,1.384,0,0,0-.251-.524,1.01,1.01,0,0,0-.242.434q-2.371,5.586-4.737,11.174a2.271,2.271,0,0,0-.117.289c-.068.253-.219.31-.468.263-.877-.165-1.764-.268-2.651-.365q-1.885-.206-3.769-.421c-.237-.027-.472-.064-.708-.091-.163-.019-.2-.1-.142-.244.046-.11.095-.218.142-.328q4.394-10.156,8.795-20.31a1.068,1.068,0,0,0,.022-.886q-3.962-10.356-7.9-20.719a2.275,2.275,0,0,1-.2-.606.764.764,0,0,1,.434-.055q3.393,0,6.786,0c.485,0,.407-.026.568.392q2.141,5.558,4.279,11.118c.069.179.142.357.224.562.189-.115.215-.3.278-.453q1.984-4.829,3.962-9.66c.214-.523.424-1.048.644-1.568.175-.414.1-.391.576-.391h7.314c.076.208-.041.345-.1.488q-2.811,6.853-5.628,13.7c-1.029,2.5-2.052,5.01-3.091,7.51a1,1,0,0,0-.013.8q4.372,11.7,8.724,23.413A.93.93,0,0,1,3332.593,1402.139Z" transform="translate(-3163.181 -1355.692)" fill="#e42214"/>
      <path id="Trazado_103189" data-name="Trazado 103189" d="M2424.847,1377.167q0-10.425,0-20.85c0-.671-.068-.6.591-.6q9.33,0,18.66,0c.634,0,.569-.074.57.575q0,3.036,0,6.072c0,.06,0,.119,0,.179-.005.425-.005.426-.452.429-.238,0-.476,0-.714,0q-5.446,0-10.892,0c-.62,0-.592-.087-.592.609q0,4.264,0,8.528c0,.089,0,.179,0,.268.012.336.013.347.361.343q2.321-.023,4.643-.056c1.384-.019,2.767-.044,4.151-.061.418-.005.423,0,.423.411q0,3.215,0,6.429c0,.407-.005.413-.424.412-2.634-.007-5.268.016-7.9.089-.312.009-.625.021-.936.046s-.3.033-.317.352c0,.074,0,.149,0,.223v9.644c0,.06,0,.119,0,.178.009.393.01.4.4.374,2.107-.141,4.214-.3,6.323-.427,1.826-.113,3.654-.2,5.481-.3.074,0,.149,0,.223,0,.15-.008.218.066.218.212,0,.1,0,.208,0,.312q0,2.969,0,5.938c0,.089-.007.179,0,.268.016.192-.081.267-.259.28-.4.031-.8.068-1.2.1-1.661.131-3.322.259-4.983.392q-3.069.246-6.138.5-2.4.194-4.8.382c-.623.05-1.245.1-1.868.153-.119.01-.238.016-.356.023-.153.01-.214-.07-.212-.215s0-.3,0-.446Z" transform="translate(-2394.619 -1355.708)" fill="#e42214"/>
      <path id="Trazado_103190" data-name="Trazado 103190" d="M2822.482,1375.831q0-9.777,0-19.555c0-.6-.065-.554.546-.554h18.883c.059,0,.119,0,.178,0,.385.007.391.007.391.4q0,3.215,0,6.429c0,.422,0,.425-.457.425q-5.937,0-11.874,0c-.7,0-.636-.1-.637.649q0,4.04,0,8.081c0,.6,0,.536.53.536q4.33,0,8.66,0c.119,0,.238.006.357,0,.174-.008.241.076.233.241,0,.089,0,.179,0,.268v6.206c0,.074-.005.149,0,.223.017.217-.052.343-.3.317a3.445,3.445,0,0,0-.357,0h-8.526c-.119,0-.238.006-.357,0-.17-.007-.245.073-.242.24,0,.134,0,.268,0,.4q0,7.545,0,15.09c0,.119,0,.238,0,.357-.008.388-.009.4-.406.4q-3.058,0-6.116,0c-.57,0-.509,0-.509-.51Q2822.481,1385.653,2822.482,1375.831Z" transform="translate(-2741.202 -1355.717)" fill="#e42214"/>
      <path id="Trazado_103191" data-name="Trazado 103191" d="M2622.594,1379.666v-15.941c0-.1,0-.208,0-.313,0-.437,0-.441-.442-.441h-6.385c-.119,0-.239-.006-.357,0-.171.007-.244-.073-.237-.24,0-.089,0-.179,0-.268q0-3.126,0-6.251c0-.075,0-.149,0-.223-.013-.181.05-.286.25-.271.089.006.179,0,.268,0h20.985c.089,0,.179.006.268,0,.177-.009.238.083.23.245,0,.074,0,.149,0,.223q0,3.148,0,6.3c0,.534.01.488-.483.488h-6.34c-.1,0-.209.007-.312,0-.208-.016-.3.071-.289.284.009.133,0,.268,0,.4q0,16.031,0,32.062c0,.763.108.663-.661.661q-2.947-.007-5.893.077c-.119,0-.238,0-.357.008-.165.009-.251-.056-.244-.231.005-.134,0-.268,0-.4Q2622.594,1387.749,2622.594,1379.666Z" transform="translate(-2560.509 -1355.712)" fill="#e42214"/>
      <path id="Trazado_103192" data-name="Trazado 103192" d="M3013.067,1376.1q0-9.913,0-19.825c0-.6-.065-.553.547-.554q3.013,0,6.027,0c.652,0,.58-.062.58.565q0,16.343,0,32.685c0,.7-.12.652.629.672,3.407.091,6.807.328,10.207.543.327.021.655.023.981.046s.333.032.343.379c0,.089,0,.179,0,.268v5.939c0,.06,0,.119,0,.179,0,.45,0,.443-.446.414-1.722-.111-3.444-.226-5.167-.324-2.555-.145-5.11-.289-7.667-.409-1.828-.085-3.658-.129-5.488-.192-.1,0-.208-.011-.312-.008-.167,0-.245-.069-.238-.24.006-.134,0-.268,0-.4Z" transform="translate(-2907.318 -1355.713)" fill="#e42214"/>
      <path id="Trazado_103193" data-name="Trazado 103193" d="M3217.645,1377.087q0,10.382,0,20.764c0,.67.049.625-.6.557-2-.208-4-.34-6.008-.449-.419-.023-.419-.026-.425-.434,0-.074,0-.149,0-.223q0-20.473,0-40.947c0-.725-.1-.638.639-.639,1.92,0,3.84,0,5.76,0,.074,0,.149,0,.223,0,.4.006.4.006.409.43,0,.119,0,.238,0,.357Z" transform="translate(-3079.499 -1355.71)" fill="#e42214"/>
    </g>
    <g id="Grupo_58492" data-name="Grupo 58492" transform="translate(1103.159 5655.489)">
      <path id="Trazado_103194" data-name="Trazado 103194" d="M2589.056,913.794c-.011-.383-.323-.245-.5-.259a63.459,63.459,0,0,1-9.211-1.418,66.044,66.044,0,0,1-28.525-14.422c-1.111-.948-2.171-1.957-3.247-2.946a2.941,2.941,0,0,1-.5-.587.817.817,0,0,1,.055-1.046.789.789,0,0,1,1.027-.179c.441.221.869.471,1.292.726a88.227,88.227,0,0,0,29.614,11.238,85.035,85.035,0,0,0,21.117,1.361,87.828,87.828,0,0,0,25.119-5.409c1.766-.657,3.5-1.381,5.218-2.158a3.346,3.346,0,0,1,.936-.3,1.381,1.381,0,0,1,1.452.67,1.413,1.413,0,0,1-.125,1.654,3.872,3.872,0,0,1-.822.771,58.932,58.932,0,0,1-20.006,9.747,65.35,65.35,0,0,1-12.775,2.289c-.183.015-.381-.022-.538.118-.017.016-.047.048-.044.051a1.255,1.255,0,0,0,.094.1Z" transform="translate(-2502.859 -858.049)" fill="#00a6df"/>
      <path id="Trazado_103195" data-name="Trazado 103195" d="M3136.427,647.179a2.609,2.609,0,0,1,.435,1.722q-.019,11.354-.009,22.708c0,1.264-.063,1.329-1.307,1.333-.779,0-1.557,0-2.336,0a.847.847,0,0,1-.939-.684c-.139-.625-.412-.616-.877-.273a7.219,7.219,0,0,1-6.044,1.222,6.489,6.489,0,0,1-4.831-4.258,12.619,12.619,0,0,1,.044-9.652c1.7-4.19,6.155-5.716,10.223-3.618.99.511.991.511.991-.594,0-2,.014-4.009-.008-6.013a2.473,2.473,0,0,1,.554-1.888Zm-4.553,16.862h.007c0-1.25-.024-2.5.01-3.749a1.126,1.126,0,0,0-.83-1.226,7.415,7.415,0,0,0-2.916-.438,2.768,2.768,0,0,0-2.67,1.76,9.754,9.754,0,0,0-.128,7.048,3.067,3.067,0,0,0,2.719,2.067,5.651,5.651,0,0,0,3.1-.541,1.131,1.131,0,0,0,.719-1.173C3131.858,666.541,3131.875,665.291,3131.875,664.041Z" transform="translate(-2994.465 -647.179)" fill="#232e3d"/>
      <path id="Trazado_103196" data-name="Trazado 103196" d="M2235.771,701.731a18.732,18.732,0,0,1,3.189-.188,1.092,1.092,0,0,1,1.305.975c.092.532.254.552.667.235a7.954,7.954,0,0,1,5.038-1.75,6.431,6.431,0,0,1,6.333,4.239,12.543,12.543,0,0,1-.008,9.778,7.112,7.112,0,0,1-10.8,3.3l-.413-.27c-.249.142-.149.376-.149.572-.006,2.192,0,4.383-.01,6.575-.006,1.036-.113,1.128-1.143,1.136-.9.007-1.8-.049-2.686.021-.5.039-.854-.345-1.325-.292Zm5.129,8.54V713.1c0,2,.1,2.115,2.074,2.549.069.015.136.039.205.052,2.046.378,3.685-.251,4.288-1.844a9.82,9.82,0,0,0-.085-7.3,2.607,2.607,0,0,0-2.021-1.588,6.208,6.208,0,0,0-3.722.436,1.053,1.053,0,0,0-.745,1.128C2240.92,707.775,2240.9,709.023,2240.9,710.271Z" transform="translate(-2235.771 -693.383)" fill="#00a6df"/>
      <path id="Trazado_103197" data-name="Trazado 103197" d="M3409.633,713.029c-.33.087-.295.4-.368.629a7.8,7.8,0,0,1-7.75,5.747,11.791,11.791,0,0,1-3.632-.432,7.006,7.006,0,0,1-4.71-4.148,11.957,11.957,0,0,1-.1-9.353,7.12,7.12,0,0,1,5.118-4.462,11.109,11.109,0,0,1,5.321-.072,7.532,7.532,0,0,1,5.727,5.313c.082.249.044.59.4.694Zm-5.091-2.889a9.021,9.021,0,0,0-.167-2.4,3.932,3.932,0,0,0-1.643-2.691,3.353,3.353,0,0,0-4.981,2.024,9.93,9.93,0,0,0,.163,6.376,3.008,3.008,0,0,0,3.025,2.106,3.121,3.121,0,0,0,3.065-1.975A7.479,7.479,0,0,0,3404.542,710.14Z" transform="translate(-3228.464 -693.08)" fill="#232e3d"/>
      <path id="Trazado_103198" data-name="Trazado 103198" d="M2479.433,647.179c-.155.313.157.244.271.307a2.7,2.7,0,0,1,1.374,3.049,2.589,2.589,0,0,1-2.558,2.035c-2.439.12-3.862-1.684-3.007-3.8a2.78,2.78,0,0,1,1.564-1.443c.018-.008.04-.049.035-.057a.675.675,0,0,0-.084-.088Z" transform="translate(-2441.359 -647.179)" fill="#00a6df"/>
      <path id="Trazado_103199" data-name="Trazado 103199" d="M3062.964,647.179c0,.2.149.282.293.362a2.589,2.589,0,0,1,1.226,2.979,2.268,2.268,0,0,1-1.844,1.92,3.12,3.12,0,0,1-3.271-.751,2.793,2.793,0,0,1,.5-4.009c.2-.144.505-.181.546-.5Z" transform="translate(-2942.231 -647.179)" fill="#232e3d"/>
      <path id="Trazado_103200" data-name="Trazado 103200" d="M2543.8,710.4q0-3.819,0-7.638c0-1.039.165-1.2,1.173-1.2.66,0,1.323.035,1.98-.01a1.036,1.036,0,0,1,1.262.923c.125.711.425.63.933.306a10.121,10.121,0,0,1,5.721-1.759,4.7,4.7,0,0,1,4.072,1.858c.263.371.464.154.7.011a11.6,11.6,0,0,1,4.713-1.8,9.126,9.126,0,0,1,2.188-.027,4.334,4.334,0,0,1,4.133,4.4c.083,4.289.033,8.58.047,12.87,0,.589-.263.873-.846.876-1.014.006-2.028.026-3.042.016-.965-.009-1.129-.18-1.131-1.184-.007-3.489,0-6.978-.008-10.467a6.259,6.259,0,0,0-.1-1.122,1.662,1.662,0,0,0-1.755-1.5,8.283,8.283,0,0,0-3.319.559.939.939,0,0,0-.694,1.05c.021,3.677.012,7.355.01,11.033,0,1.659,0,1.659-1.634,1.66-.778,0-1.557.009-2.334,0-.9-.013-1.082-.185-1.084-1.081-.009-3.395,0-6.789-.009-10.184a11.1,11.1,0,0,0-.092-1.48,1.668,1.668,0,0,0-1.647-1.544,7.961,7.961,0,0,0-3.593.6.818.818,0,0,0-.586.9c.021,3.819.013,7.638.011,11.457,0,1.206-.134,1.339-1.333,1.342-.873,0-1.746.009-2.618,0-.912-.012-1.112-.214-1.114-1.143C2543.8,715.539,2543.8,712.969,2543.8,710.4Z" transform="translate(-2500.194 -693.388)" fill="#00a6df"/>
      <path id="Trazado_103201" data-name="Trazado 103201" d="M2763.592,720.524a12.259,12.259,0,0,1-3.148-.384,6.978,6.978,0,0,1-5.233-5.122,12.52,12.52,0,0,1,.014-7.375,7.766,7.766,0,0,1,7.126-5.719,10.382,10.382,0,0,1,4.122.4,5.405,5.405,0,0,1,3.45,7.258c-.764,1.861-2.409,2.557-4.219,2.937a14.236,14.236,0,0,1-5.619.043c-.719-.136-.783-.061-.681.663a3.848,3.848,0,0,0,3.577,3.414,14.828,14.828,0,0,0,5.315-.486c1.1-.258,1.26-.132,1.259.967,0,.141,0,.283,0,.424,0,1.857-.006,1.848-1.778,2.378A16.107,16.107,0,0,1,2763.592,720.524Zm-1.388-10.84a5,5,0,0,0,2.339-.3,1.868,1.868,0,0,0,1.16-1.985,1.806,1.806,0,0,0-1.3-1.813,3.712,3.712,0,0,0-4.946,3.418c-.02.394.151.5.474.525A16.687,16.687,0,0,0,2762.2,709.684Z" transform="translate(-2681.205 -694.129)" fill="#00a6df"/>
      <path id="Trazado_103202" data-name="Trazado 103202" d="M3274.471,720.644a8.934,8.934,0,0,1-6.429-1.95,6.039,6.039,0,0,1-1.735-2.458,12.511,12.511,0,0,1-.061-9.179,7.886,7.886,0,0,1,7.193-4.965,9.474,9.474,0,0,1,4.809.882,5.5,5.5,0,0,1,2.3,7.086,4.78,4.78,0,0,1-3.283,2.474,14.633,14.633,0,0,1-6.375.232c-.854-.134-.926-.069-.763.761a3.776,3.776,0,0,0,3.537,3.29,12.5,12.5,0,0,0,4.689-.343c.366-.087.732-.182,1.1-.237a.637.637,0,0,1,.824.7c.007.283.006.566.006.848,0,1.7-.02,1.736-1.674,2.254A11.948,11.948,0,0,1,3274.471,720.644Zm-1.614-10.745a6.446,6.446,0,0,0,2.228-.3,2.1,2.1,0,0,0,0-3.853,4.091,4.091,0,0,0-1.737-.182c-2.155.257-2.886,1.846-3.207,3.578-.081.432.213.532.538.566C3271.406,709.779,3272.132,709.835,3272.857,709.9Z" transform="translate(-3119.643 -694.309)" fill="#232e3d"/>
      <path id="Trazado_103203" data-name="Trazado 103203" d="M2930.123,716.946l1.555-5.2c.627-2.1,1.246-4.2,1.884-6.3.3-.992.438-1.079,1.448-1.082q1.38,0,2.76,0c1.2,0,1.336.179.9,1.339-.978,2.6-1.974,5.2-2.969,7.8-.952,2.488-1.926,4.967-2.858,7.462a1.428,1.428,0,0,1-1.544,1.071c-.824-.052-1.644-.035-2.468-.005a1.487,1.487,0,0,1-1.663-1.142q-2.921-7.628-5.833-15.258c-.4-1.056-.231-1.329.886-1.358.943-.024,1.888-.025,2.83,0,1,.029,1.206.214,1.488,1.18q1.6,5.463,3.193,10.927c.057.2.139.384.21.575Z" transform="translate(-2824.114 -696.169)" fill="#232e3d"/>
      <path id="Trazado_103204" data-name="Trazado 103204" d="M2386.881,706.121c.571-.5,1.048-.954,1.555-1.366a5.917,5.917,0,0,1,3.993-1.348c.864.021,1.041.206,1.055,1.046s.023,1.7.006,2.544c-.018.907-.2,1.1-1.1,1.055a12.671,12.671,0,0,0-4.536.5.879.879,0,0,0-.733,1c.017,3.534.01,7.068.006,10.6,0,1.007-.121,1.125-1.143,1.137-.9.01-1.791.007-2.687,0-1.078-.008-1.235-.157-1.237-1.224q-.009-4.982,0-9.965c0-1.79-.007-3.581.005-5.371.007-1.013.134-1.129,1.151-1.138.731-.007,1.461,0,2.192,0a.929.929,0,0,1,1.012.789C2386.554,704.926,2386.708,705.469,2386.881,706.121Z" transform="translate(-2361.35 -695.446)" fill="#00a6df"/>
      <path id="Trazado_103205" data-name="Trazado 103205" d="M3094.175,888.785a56.067,56.067,0,0,0-6.9.581c-.409.044-.9.217-1.09-.339s.19-.9.571-1.183a14.515,14.515,0,0,1,5.772-2.546,20.413,20.413,0,0,1,8.839-.058c.229.053.457.116.679.19,1.38.461,1.7.839,1.72,2.3a23.178,23.178,0,0,1-2.923,11.151,15.58,15.58,0,0,1-2.968,4.019,2.979,2.979,0,0,1-.255.245c-.335.254-.686.617-1.128.345-.472-.29-.25-.758-.109-1.147a74.285,74.285,0,0,0,2.479-7.649,13.418,13.418,0,0,0,.5-3.557,1.873,1.873,0,0,0-1.544-1.994A11.753,11.753,0,0,0,3094.175,888.785Z" transform="translate(-2965.755 -851.147)" fill="#00a6df"/>
      <path id="Trazado_103206" data-name="Trazado 103206" d="M3061.536,713.757q0-3.819,0-7.638c0-1.008.127-1.126,1.156-1.13.991,0,1.981.021,2.971-.007a.805.805,0,0,1,.944.874c.011.188.013.377.013.565q0,7.355,0,14.71c0,1.386-.152,1.534-1.545,1.539-.778,0-1.557.008-2.334,0-1.017-.015-1.2-.2-1.2-1.2Q3061.53,717.611,3061.536,713.757Z" transform="translate(-2944.635 -696.798)" fill="#232e3d"/>
      <path id="Trazado_103207" data-name="Trazado 103207" d="M2483.15,713.426c0,2.543.008,5.086,0,7.629,0,1.041-.108,1.126-1.145,1.13q-1.378.006-2.756,0c-.976-.005-1.159-.175-1.158-1.154,0-2.849.025-5.7.032-8.547.006-2.284,0-4.568,0-6.852,0-.929.146-1.08,1.051-1.093q1.483-.021,2.967,0c.885.013,1,.129,1.007,1.046.01,2.613,0,5.227,0,7.84Z" transform="translate(-2443.784 -696.41)" fill="#00a6df"/>
    </g>
    <g id="Grupo_58493" data-name="Grupo 58493" transform="translate(1233.788 5539)">
      <path id="Trazado_103208" data-name="Trazado 103208" d="M3706.759,1407.536a9.448,9.448,0,0,1,1.533.414.991.991,0,0,1,.457.675c.018.12-.358.3-.559.45a.189.189,0,0,1-.1.021c-.951.039-2.1.3-2.655-.615a2.071,2.071,0,0,1,.806-2.631,7.906,7.906,0,0,1,2.838-1.494,25.817,25.817,0,0,1,14.5.567,40.853,40.853,0,0,1,19.071,11.591,21.819,21.819,0,0,1,3.981,6.195c2.283,5.429-.288,11.637-5.967,14.314a21.515,21.515,0,0,1-13.752,1.566l-1.565-.316c-.053.308-.1.568-.143.829-.137.832-.514,1.392-1.455,1.436a1.776,1.776,0,0,1-1.963-1.139,2.766,2.766,0,0,1-.25-1.1c.07-1.362-.676-2-1.811-2.6a21.619,21.619,0,0,1-6.779-5.575,8.673,8.673,0,0,1-1.029-1.65,2.632,2.632,0,0,1,.614-3.369,11.4,11.4,0,0,1,3.012-1.9,39.328,39.328,0,0,1,5.1-1.542.927.927,0,0,0,.855-1.007c.186-2.112.427-4.22.7-6.323.046-.35.375-.662.573-.992.343.248.9.433.995.755.479,1.591.872,3.21,1.219,4.835a12.71,12.71,0,0,1,.12,2.016,43.681,43.681,0,0,1,5.06.488,27.56,27.56,0,0,1,5.248,1.666,3.778,3.778,0,0,1,2.278,2.985,3.2,3.2,0,0,1-4.015,3.528,5.532,5.532,0,0,1-.9-.512c.578-.4,1-.661,1.392-.97.772-.615.76-1.316-.128-1.657a25.235,25.235,0,0,0-8.8-1.615v10.26c5.221.808,10.221.869,14.782-2.077,3.391-2.191,4.292-6.265,2.43-10.178a23.834,23.834,0,0,0-9.087-9.688,39.129,39.129,0,0,0-20.093-6.5,41.593,41.593,0,0,0-5.8.551A3.278,3.278,0,0,0,3706.759,1407.536Zm14.5,17.5a24.931,24.931,0,0,0-7.452,1.345c-1.316.482-1.471,1.155-.507,2.222a20.078,20.078,0,0,0,7.48,5.087,1.59,1.59,0,0,0,.479.035Z" transform="translate(-3705.203 -1376.667)" fill="#232e3d"/>
      <path id="Trazado_103209" data-name="Trazado 103209" d="M3855.079,1272.926c14.081.2,25.424,4.663,35.156,13.277a55.967,55.967,0,0,1,14.831,21.316c.573,1.416.423,1.574-1.06,1.636a1.71,1.71,0,0,1-1.874-1.3,51.759,51.759,0,0,0-21-24.836,46.553,46.553,0,0,0-32.144-6.574c-12.129,1.832-22.068,7.658-30.044,16.889-1.583,1.833-2.946,3.857-4.392,5.807-.55.741-1.429.793-2.508.047-.729-.5-.251-1.027.058-1.5,8.747-13.257,20.75-21.613,36.56-24.16C3851.123,1273.138,3853.636,1273.057,3855.079,1272.926Z" transform="translate(-3789.739 -1272.926)" fill="#232e3d"/>
      <path id="Trazado_103210" data-name="Trazado 103210" d="M4135.022,1483.452a15.666,15.666,0,0,1-.631,2.588c-.682,1.6-1.56,3.118-2.245,4.718a11.081,11.081,0,0,0-.46,2.273l.245.107c.146-.187.29-.377.44-.561,1.719-2.113,3.371-4.285,5.186-6.312.947-1.056,2.271-1.893,3.757-1.224s1.725,2.2,1.84,3.663c.326,4.117-1.586,7.178-4.669,9.631a5.489,5.489,0,0,1-4.152,1.167c-.541-.063-.751.115-.948.631a50.981,50.981,0,0,0-2.861,11.211,6.34,6.34,0,0,1-.566,1.429,5.6,5.6,0,0,1-1.544-.817,5.99,5.99,0,0,1-1.237-5.881c.681-2.781,1.664-5.486,2.454-8.242a3.348,3.348,0,0,0,.021-1.823,9.091,9.091,0,0,1,.671-7.178,44.129,44.129,0,0,1,3.415-4.957,3.575,3.575,0,0,1,.853-.637Zm.515,12.093c.571-.187,1.152-.346,1.71-.565a6.672,6.672,0,0,0,4.045-6.218,1.125,1.125,0,0,0-.364-.742c-.115-.082-.529.093-.69.264A23.106,23.106,0,0,0,4135.537,1495.544Z" transform="translate(-4040.081 -1439.933)" fill="#232e3d"/>
      <path id="Trazado_103211" data-name="Trazado 103211" d="M3941.492,1489.773a9.8,9.8,0,0,0,1.2.324c2.17.31,4.354.533,6.514.906,2.637.454,3.87,1.764,4.023,4.06a4.794,4.794,0,0,1-3.455,5.21,8.9,8.9,0,0,1-9.189-1.882,2.784,2.784,0,0,1,1.563-5.043,11.183,11.183,0,0,1,6.5,1.068c.818.377.831.9.06,1.348a4.062,4.062,0,0,1-3.642.392c-.765-.293-1.505-.666-2.289-.894a2.616,2.616,0,0,0-1.4-.009.787.787,0,0,0-.194,1.479,3.522,3.522,0,0,0,1.41.57,11.048,11.048,0,0,0,6.788-1.12,6.677,6.677,0,0,0,1.363-1.377c-.525-.429-.992-1.1-1.586-1.241-1.724-.417-3.5-.643-5.254-.907-1.117-.167-2.251-.219-3.363-.413a2.04,2.04,0,0,1-1.817-2.6,3.747,3.747,0,0,1,1.95-2.871,14.707,14.707,0,0,1,11.834-1c.418.135,1.053.814.979,1.023-.18.5-.667,1.165-1.126,1.251-1.506.283-3.055.328-4.585.484-1.769.179-3.537.366-5.3.583a4.4,4.4,0,0,0-.98.365Z" transform="translate(-3890.597 -1441.32)" fill="#232e3d"/>
      <path id="Trazado_103212" data-name="Trazado 103212" d="M4082.225,1490.216a22.6,22.6,0,0,1-2.188-1.906c-.437-.492-.321-1.032.447-1.214a34.456,34.456,0,0,1,9.156-1.053,3.239,3.239,0,0,1,2.385,2.638,1.221,1.221,0,0,1-.858.752c-1.59.239-3.195.375-4.795.542-.373.039-.748.058-1.179.09-.156.592-.307,1.164-.486,1.842,1.252,0,2.373.007,3.493,0,.744-.006,1.069.371,1.026,1.086s.091,1.527-.976,1.6c-1.3.087-2.6.156-3.9.239-.269.017-.535.062-.805.094l-.745,2.864c1.335-.238,2.528-.457,3.724-.663a5.853,5.853,0,0,1,1.82-.234,2.279,2.279,0,0,1,1.433.848,1.521,1.521,0,0,1-.117,1.449,10.462,10.462,0,0,1-6.725,3.37,3.282,3.282,0,0,1-3.439-3.087,29.291,29.291,0,0,1,.4-3.644,8.858,8.858,0,0,0,.057-1.782c-.085-.859-.16-1.467.935-1.923C4081.568,1491.839,4081.893,1490.725,4082.225,1490.216Z" transform="translate(-4002.428 -1442.148)" fill="#232e3d"/>
      <path id="Trazado_103213" data-name="Trazado 103213" d="M4017.985,1484.331c-.057.7-.13,1.393-.168,2.091-.089,1.644-.131,3.29-.255,4.931-.064.847-.305,1.672-1.37,1.763-.78.066-1.467-.619-1.586-1.721a26.619,26.619,0,0,1,1.232-11.158,3.21,3.21,0,0,1,.381-.727c.626-.968,1.352-1.1,2.047-.2,1.163,1.515,2.208,3.122,3.26,4.719.545.828.986,1.725,1.5,2.574a6.941,6.941,0,0,0,.661.8l.322-.122c-.106-.926-.141-1.868-.333-2.776-.5-2.38-1.115-4.736-1.6-7.12a7.167,7.167,0,0,1,.132-1.914,6.4,6.4,0,0,1,1.607.9c2.386,2.466,3.1,5.593,3.181,8.875a22.893,22.893,0,0,1-.5,4.479,3.858,3.858,0,0,1-.874,1.7,1.855,1.855,0,0,1-3.145-.015c-1.239-1.791-2.26-3.733-3.363-5.616-.291-.5-.544-1.011-.815-1.518Z" transform="translate(-3950.781 -1433.768)" fill="#232e3d"/>
      <path id="Trazado_103214" data-name="Trazado 103214" d="M4231.7,1476.043c-2.282,0-4.435.026-6.586-.02-.489-.01-1.332-.187-1.39-.434a6.254,6.254,0,0,1,.027-2.313c.021-.143.648-.273,1-.276,2.225-.025,4.45-.013,6.888-.013-.168-1.729-.3-3.381-.5-5.027-.109-.951-.3-1.892-.463-2.837-.115-.68.093-1.064.857-1a7.491,7.491,0,0,0,1.028,0c.635-.034.933.258,1.006.888.26,2.245.548,4.486.819,6.73.044.368.056.741.094,1.25h3.51c1.063,0,2.128-.033,3.188.014.518.023,1.408.091,1.471.32a5.865,5.865,0,0,1,.048,2.313c-.025.181-.669.384-1.032.391-1.954.038-3.909.018-5.862.018h-1.129c-.109,2.41-.2,4.7-.321,6.98-.083,1.564-.818,2.1-2.338,1.59-.283-.094-.552-.726-.547-1.105.029-2.089.146-4.176.229-6.263C4231.713,1476.906,4231.7,1476.564,4231.7,1476.043Z" transform="translate(-4116.879 -1424.749)" fill="#232e3d"/>
      <path id="Trazado_103215" data-name="Trazado 103215" d="M3908.877,1417.9a3.464,3.464,0,0,1,2.852,1.148,1.562,1.562,0,0,0,.675.438c2.857.929,2.876,3.483,1.655,5.28a11.11,11.11,0,0,1-7.3,4.9,4.434,4.434,0,0,1-1.532,0c-.8-.136-1.587-.492-2,.637-.043.116-.69.061-1.037-.012-.145-.031-.287-.3-.345-.485a39.766,39.766,0,0,1-1.277-4.352,4.945,4.945,0,0,1,1.6-4.269A9.245,9.245,0,0,1,3908.877,1417.9Zm-3.654,8.8c2.627.6,6.066-.805,7.208-2.807a1.645,1.645,0,0,0,.056-2.011,1.479,1.479,0,0,0-1.892-.221A13.535,13.535,0,0,0,3905.224,1426.7Zm-2.578-1.291,3.508-4.127C3904.048,1421.48,3902.134,1423.735,3902.646,1425.409Z" transform="translate(-3860.283 -1388.05)" fill="#232e3d"/>
      <path id="Trazado_103216" data-name="Trazado 103216" d="M3920.786,1497.913c0,1.437.031,2.875-.013,4.31-.024.781-.218,1.508-1.231,1.585-1.143.087-1.723-.243-2.036-1.265a4.925,4.925,0,0,1-.2-1.106,47.979,47.979,0,0,1,.421-11.156,2.258,2.258,0,0,1,.184-.794,11.5,11.5,0,0,1,.873-1.113c.375.359.991.666,1.083,1.087a38.431,38.431,0,0,1,.653,4.455c.13,1.326.14,2.664.2,4Z" transform="translate(-3873.519 -1444.012)" fill="#232e3d"/>
    </g>
  </g>
</svg>
