<svg xmlns="http://www.w3.org/2000/svg" xmlns:xlink="http://www.w3.org/1999/xlink" width="446.187" height="397.94" viewBox="0 0 446.187 397.94">
  <defs>
    <linearGradient id="linear-gradient" x1="0.5" x2="0.5" y2="1" gradientUnits="objectBoundingBox">
      <stop offset="0" stop-color="#51eef2"/>
      <stop offset="1" stop-color="#0082af"/>
    </linearGradient>
  </defs>
  <g id="Grupo_56619" data-name="Grupo 56619" transform="translate(-1746.671 576.113)">
    <g id="Grupo_56588" data-name="Grupo 56588">
      <g id="Grupo_56029" data-name="Grupo 56029">
        <path id="Trazado_101095" data-name="Trazado 101095" d="M1821.583-463.462c22.5-17.829,53.222-21.089,79.463-11.179,34.862,13.17,60.521,46.521,94.381,62.537a105.837,105.837,0,0,0,76.022,5.605c12.134-3.724,23.933-9.7,36.527-10.1,11.154-.353,22.172,3.787,31.653,10.244,27.9,19,41.908,59.518,32.5,94.042-5.034,18.485-15.843,34.539-28.435,48-26.012,27.817-60.521,45.9-96.588,50.607-20.131,2.627-40.552,1.2-60.609-2.028-43.709-7.035-86.772-22.973-122.763-51.08-43.085-33.65-85.787-92.346-69.655-153.532C1798.595-437.467,1808.4-453.012,1821.583-463.462Z" fill="#dcbfff"/>
        <path id="Trazado_101096" data-name="Trazado 101096" d="M2159.341-414.037c-1.417-3.623-2.594-8.222-.206-11.169a6.613,6.613,0,0,1,3.48-2.117c6.308-1.7,12.493,3.148,16.892,8.392a74.654,74.654,0,0,1,10.344,16.257,28.6,28.6,0,0,1,2.945,9.551c.3,3.365-.46,6.972-2.6,9.408C2175.8-367.331,2163.272-404,2159.341-414.037Z" fill="#dcbfff"/>
      </g>
      <g id="Grupo_56587" data-name="Grupo 56587">
        <g id="Grupo_56030" data-name="Grupo 56030">
          <path id="Trazado_101097" data-name="Trazado 101097" d="M2122.2-329.729c3-5.9,11.323-9.151,17.05-4.14,1.6,1.4,2.467,2.9,3.884,4.3a2.786,2.786,0,0,0,4.446-.611,8.539,8.539,0,0,1,7.508-4.186c3.775-.228,6.557,1.461,7.75,3.461,3.174,5.318.724,8.959,4.376,11.754,4.259,2.286,6.778-1.807,12.814-1.514,4.688.228,7.368,5.363,6,9.291a2.62,2.62,0,0,1-2.571,1.847h-69.427c-3.7,0-7.768-.361-7.953-4.986a6.614,6.614,0,0,1,5.271-6.857c4.884-.743,5.266,1.472,8.1.9C2122.329-321.037,2120.028-326.621,2122.2-329.729Z" fill="#a271dc"/>
        </g>
        <g id="Grupo_56063" data-name="Grupo 56063">
          <path id="Trazado_101118" data-name="Trazado 101118" d="M1823.254-401.014c-3.586-7.047-13.512-10.919-20.345-4.939-1.906,1.669-2.943,3.457-4.63,5.135-1.824,1.62-3.92,1.234-5.3-.729-2.415-3.424-4.637-4.731-8.96-4.994-4.5-.273-7.825,1.742-9.248,4.13-3.787,6.345-.86,10.69-5.221,14.023-5.082,2.728-8.088-2.156-15.291-1.8-5.593.271-8.792,6.4-7.163,11.085a3.124,3.124,0,0,0,3.067,2.2H1833c4.41,0,9.269-.431,9.487-5.95a7.893,7.893,0,0,0-6.286-8.182c-5.828-.887-6.284,1.757-9.67,1.078C1823.1-390.644,1825.85-397.306,1823.254-401.014Z" fill="#a271dc"/>
        </g>
      </g>
      <g id="Grupo_56608" data-name="Grupo 56608">
        <g id="Grupo_56597" data-name="Grupo 56597">
          <path id="Trazado_102575" data-name="Trazado 102575" d="M1876.2-448.541l5.174-1.221,119.729-7.561s8.021-1.173,12.163,5.98l1.725,4.829,73.886,234.183s1.367,2.289.622,6.6-3.846,8.68-10.667,9.959l-130.612,12.258s-18.89-.6-23.346-17.148l-61.205-226.3s-2.18-8.331,2.7-14.319C1866.371-441.279,1870.189-447.268,1876.2-448.541Z" fill="#6a6a8a"/>
          <g id="Grupo_56593" data-name="Grupo 56593">
            <path id="Trazado_102576" data-name="Trazado 102576" d="M2088.352-213.993,2014.99-446.514l-1.725-4.829c-4.142-7.153-12.163-5.98-12.163-5.98l-108.757,6.868,111.81-2.722s5.024-1.022,8.672,9.943,75.525,229.242,75.525,229.242Z" fill="#babaf5"/>
            <path id="Trazado_102577" data-name="Trazado 102577" d="M2071.659-266.9l-.021-.013s14.769,51.508,11.943,57.018c-2.7,5.257-95.688,13.757-95.688,13.757s81.879-5.86,101.272-8.195a12.108,12.108,0,0,0,.333-1.4c.745-4.31-.622-6.6-.622-6.6Z" fill="#babaf5"/>
            <path id="Trazado_102578" data-name="Trazado 102578" d="M1892.343-450.455l-10.97.693-5.174,1.221c-6.01,1.273-9.828,7.262-9.828,7.262a12.819,12.819,0,0,0-1.086,1.582c-.182,3.56,18.756,56.346,18.756,56.346s-11.526-50.249-8.967-58.214S1892.3-450.452,1892.343-450.455Z" fill="#babaf5"/>
          </g>
          <path id="Trazado_102579" data-name="Trazado 102579" d="M1889.661-439.826l105.223-6.794s8.509-1.166,12.537,5.971l1.947,4.649,67.208,211.821s1.835,7.36-5.312,10.475l-4.224.661L1958-202.923a15.655,15.655,0,0,1-15.093-10.773l-21.3-73.436-19.951-68.535-20.959-72.369s-1.792-4.984,1.677-8.884S1889.661-439.826,1889.661-439.826Z" fill="#f2fbfb"/>
          <path id="Trazado_102580" data-name="Trazado 102580" d="M1877.922-449.129s-6.851,2.392-8.082,9.431l-.162,5.2,1.366,5.106,62.734,222.2s.7,8.64,11.127,12.967c0,0,1.512,1.624,9.269,1.749l131.833-11.641s2.923-.233,3.491-1.624a10.8,10.8,0,0,1-8.768,9.548l-3.454.318-129.387,12.038a27.431,27.431,0,0,1-22.725-15.73l-26.771-99.1-14.441-52.951-20.65-77.555s-2.1-7.895,5.83-15.512C1869.132-444.68,1873.426-448.426,1877.922-449.129Z" fill="#a2c1d4"/>
          <path id="Trazado_102581" data-name="Trazado 102581" d="M1942.4-194.393l-.409-1.3c-7.629-4.556-8.212-11.49-8.212-11.49l-39.923-141.408-.334-1.061s36.017,140.6,39.409,147.869S1942.4-194.393,1942.4-194.393Z" fill="#f2fbfb"/>
          <path id="Trazado_102582" data-name="Trazado 102582" d="M2009.368-436l-1.947-4.649c-4.028-7.137-12.537-5.971-12.537-5.971l-105.223,6.794s-3.821-1-7.29,2.906-1.677,8.884-1.677,8.884l.321,1.108L2009.4-435.9Z" fill="#607d88"/>
          <path id="Trazado_102583" data-name="Trazado 102583" d="M2080.73-196.184a10.8,10.8,0,0,0,8.768-9.548c-.568,1.391-3.491,1.624-3.491,1.624l-131.833,11.641c-7.757-.125-9.269-1.749-9.269-1.749a21.939,21.939,0,0,1-3.661-1.932c1.53,2.146,2.988,4.745,2.96,6.851a8.165,8.165,0,0,1-1.754,4.485,23.91,23.91,0,0,0,5.439.984l129.387-12.038Z" fill="#5c7f94" opacity="0.47"/>
          <g id="Grupo_56594" data-name="Grupo 56594">
            <path id="Trazado_102584" data-name="Trazado 102584" d="M2089.9-211.731l-75.3-238.056a12.09,12.09,0,0,0-11.329-8.462v-.006l-.144.009c-.285,0-.571,0-.86.019l-37.578,2.419-82.658,5.244a14.54,14.54,0,0,0-1.653.2,19.3,19.3,0,0,0-14.265,8.031,19.311,19.311,0,0,0-2.948,16.34l60.589,224.023a25.605,25.605,0,0,0,19.976,18.522,25.766,25.766,0,0,0,7.2.331l127.972-12.022a12.729,12.729,0,0,0,9.464-5.666A12.731,12.731,0,0,0,2089.9-211.731ZM2013.186-449.34l75.3,238.057a11.4,11.4,0,0,1,.443,2.147h-.014a5.761,5.761,0,0,1-.477,2.453,3.169,3.169,0,0,1-2.612,1.781l-131.31,11.751a18.787,18.787,0,0,1-19.9-13.455l-63.83-227.078a11.937,11.937,0,0,1,1.789-10.183,12.494,12.494,0,0,1,7.88-5.014c.09-.007.177-.026.267-.032l104.108-6.7,17.8-1.129a10.7,10.7,0,0,1,2.4.163A10.61,10.61,0,0,1,2013.186-449.34Zm65.58,252.72L1950.794-184.6a24.134,24.134,0,0,1-25.6-17.763L1864.6-426.383a17.832,17.832,0,0,1,2.722-15.087,17.882,17.882,0,0,1,5.717-5.145,13.918,13.918,0,0,0-1.656,1.9,13.4,13.4,0,0,0-2.007,11.429l63.831,227.079a20.093,20.093,0,0,0,15.712,14.245,20.9,20.9,0,0,0,5.726.276l131.311-11.752a4.745,4.745,0,0,0,2.506-1,11.343,11.343,0,0,1-1.333,2.811A11.261,11.261,0,0,1,2078.766-196.62Z" fill="#272132"/>
            <path id="Trazado_102585" data-name="Trazado 102585" d="M1954.541-202.432a15.982,15.982,0,0,1-12.445-11.177l-62.375-215.068a9.153,9.153,0,0,1,1.31-7.844,9.539,9.539,0,0,1,7.242-4.029l107.873-6.969a12.761,12.761,0,0,1,13.076,8.789l67.894,213.938a9.281,9.281,0,0,1-1.116,7.965,9.659,9.659,0,0,1-7.2,4.275l-109.66,10.331A16.481,16.481,0,0,1,1954.541-202.432Zm44.616-243.382a11.632,11.632,0,0,0-2.912-.176l-107.873,6.968a8.014,8.014,0,0,0-6.087,3.381,7.63,7.63,0,0,0-1.093,6.537l62.375,215.067A14.564,14.564,0,0,0,1959-203.747l109.659-10.33a8.136,8.136,0,0,0,6.063-3.6,7.751,7.751,0,0,0,.934-6.655l-67.894-213.939A11.144,11.144,0,0,0,1999.157-445.814Z" fill="#272132"/>
          </g>
          <path id="Trazado_102586" data-name="Trazado 102586" d="M1906.779-383.117l35.5,120.9a4.208,4.208,0,0,0,4.521,2.995l98.816-8.56a4.208,4.208,0,0,0,3.536-5.426l-36.7-118.53a4.207,4.207,0,0,0-4.235-2.956l-97.613,6.187A4.207,4.207,0,0,0,1906.779-383.117Z" fill="url(#linear-gradient)"/>
          <path id="Trazado_102587" data-name="Trazado 102587" d="M1920.973-402.51c-.376,4.834-4.962,8.421-10.245,8.011s-9.26-4.663-8.884-9.5,4.962-8.421,10.245-8.011S1921.349-407.345,1920.973-402.51Z" fill="#91a9b8"/>
          <path id="Trazado_102588" data-name="Trazado 102588" d="M1926.638-407.139l1.7,5.623a2.658,2.658,0,0,0,2.686,1.887l60.868-3.234a2.659,2.659,0,0,0,2.379-3.5l-1.959-5.823a2.659,2.659,0,0,0-2.671-1.806l-60.606,3.433A2.659,2.659,0,0,0,1926.638-407.139Z" fill="#91a9b8"/>
          <path id="Trazado_102589" data-name="Trazado 102589" d="M1946.255-252.99l66.368-5.813,1.231,4.2-66.522,5.671Z" fill="#91a9b8"/>
          <path id="Trazado_102590" data-name="Trazado 102590" d="M1948.789-244.7l49.5-4.605,1.231,4.2-49.655,4.463Z" fill="#91a9b8"/>
          <path id="Trazado_102591" data-name="Trazado 102591" d="M2048.6-255.117a3.676,3.676,0,0,0,1.072-2.2,3.949,3.949,0,0,0-3.6-4.263,4.036,4.036,0,0,0-4.148,2.246,4.157,4.157,0,0,0-2.784-1.513,3.947,3.947,0,0,0-4.456,3.358,3.844,3.844,0,0,0,2.176,3.839l5.708,3.645a1.793,1.793,0,0,0,2.409-.494Z" fill="#ff6279"/>
          <path id="Trazado_102592" data-name="Trazado 102592" d="M2006.787-194.466l19.22-1.748a1.439,1.439,0,0,1,1.544,1.7l-.013.072a1.441,1.441,0,0,1-1.289,1.167l-19.207,1.675a1.438,1.438,0,0,1-1.538-1.7h0A1.438,1.438,0,0,1,2006.787-194.466Z" fill="#55556e"/>
          <path id="Trazado_102593" data-name="Trazado 102593" d="M1955.252-188.442c.084,1.176,1.589,2.027,3.362,1.9s3.142-1.182,3.059-2.358-1.589-2.027-3.362-1.9S1955.168-189.617,1955.252-188.442Z" fill="#55556e"/>
          <path id="Trazado_102594" data-name="Trazado 102594" d="M1882.261-380.585l7.948,27.956h0a3.633,3.633,0,0,1-4.5-2.549l-5.716-21.2a3.633,3.633,0,0,1,2.092-4.292h0A.132.132,0,0,1,1882.261-380.585Z" fill="#5c7f94"/>
          <g id="Grupo_56595" data-name="Grupo 56595">
            <path id="Trazado_102595" data-name="Trazado 102595" d="M1881.53-384.01l-7.564-26.6a.129.129,0,0,0-.176-.086,3.635,3.635,0,0,0-2.094,4.293l5.716,21.2a3.583,3.583,0,0,0,.922,1.6,1.818,1.818,0,0,0,2.281.2Z" fill="#5c7f94"/>
            <path id="Trazado_102596" data-name="Trazado 102596" d="M1881.53-384.01l-7.564-26.6a.129.129,0,0,0-.176-.086c-.058.025-.107.06-.163.087a3.968,3.968,0,0,0-.827,3.228c.434,2.053,6.148,22.14,6.148,22.14A2.185,2.185,0,0,0,1881.53-384.01Z" fill="#375767"/>
          </g>
          <g id="Grupo_56596" data-name="Grupo 56596">
            <path id="Trazado_102597" data-name="Trazado 102597" d="M1889.871-354.224l-7.565-26.6a.129.129,0,0,0-.176-.086,3.635,3.635,0,0,0-2.094,4.293l5.716,21.2a3.586,3.586,0,0,0,.922,1.6,1.818,1.818,0,0,0,2.281.2Z" fill="#5c7f94"/>
            <path id="Trazado_102598" data-name="Trazado 102598" d="M1889.871-354.224l-7.565-26.6a.129.129,0,0,0-.176-.086c-.058.025-.107.06-.163.088a3.963,3.963,0,0,0-.826,3.228c.433,2.052,6.147,22.139,6.147,22.139A2.185,2.185,0,0,0,1889.871-354.224Z" fill="#375767"/>
          </g>
          <path id="Trazado_102599" data-name="Trazado 102599" d="M1912.089-412.008a10.265,10.265,0,0,0-4.431.629,11.51,11.51,0,0,1,9.686,3.613c2.985,3.134,1.832,8.6-.507,11.816a8.511,8.511,0,0,0,4.136-6.56C1921.349-407.345,1917.371-411.6,1912.089-412.008Z" fill="#647f8f" opacity="0.34"/>
          <path id="Trazado_102600" data-name="Trazado 102600" d="M1931.4-402.469c-1.946-1.239-3.2-4.242-4.554-6.668a2.622,2.622,0,0,0-.205,2l1.7,5.623a2.658,2.658,0,0,0,2.686,1.887l60.868-3.234a2.643,2.643,0,0,0,2.389-1.884C1973.252-403.864,1933.358-401.22,1931.4-402.469Z" fill="#647f8f" opacity="0.55"/>
          <path id="Trazado_102601" data-name="Trazado 102601" d="M1891.548-444.358a3.071,3.071,0,0,1-3.692,2.268,3.071,3.071,0,0,1-2.612-3.458,3.07,3.07,0,0,1,3.692-2.267A3.07,3.07,0,0,1,1891.548-444.358Z" fill="#3d3d51"/>
          <path id="Trazado_102602" data-name="Trazado 102602" d="M1955.438-446.809l-28.494,1.4a1.8,1.8,0,0,1-1.888-1.711h0a1.8,1.8,0,0,1,1.711-1.888l28.494-1.4a1.8,1.8,0,0,1,1.888,1.711h0A1.8,1.8,0,0,1,1955.438-446.809Z" fill="#3d3d51"/>
          <path id="Trazado_102603" data-name="Trazado 102603" d="M1995.2-314.75c-4.2-9.268-6.737-11.719-7.212-15.614-.209-1.708-2.919-9.184-4.084-10.4a42.237,42.237,0,0,1-4.34-5.189,7.314,7.314,0,0,0-6.977-3.177c-4.959.376-5.238,5.192-8.3,16.989-2.611,10.071,4.117,20.37,9.934,24.419,5.056,3.519,8.277,3.064,14.989,7.827S1999.4-305.482,1995.2-314.75Zm-21.139,1.911a18.4,18.4,0,0,1-5.919-14.433.723.723,0,0,1,1.417-.168,57.61,57.61,0,0,0,5.6,13.689A.719.719,0,0,1,1974.058-312.839Z" fill="#371666"/>
        </g>
        <g id="Grupo_56607" data-name="Grupo 56607">
          <g id="Grupo_56601" data-name="Grupo 56601">
            <g id="Grupo_56599" data-name="Grupo 56599">
              <path id="Trazado_102604" data-name="Trazado 102604" d="M2014.546-410.308s-12.012,6.815-13.167,6.791-4.157-2.041-4.157-2.041-3.811,3.688-7.772,2.785-5.41-2.374-5.41-2.374-2.979,1.826-5.79.264-6.647-6.339-10.153-13.258-4.175-11.674-3.578-13.3a13.7,13.7,0,0,1,2.2-3.45s-1.084-4.649.4-7.074,5.373-5.18,5.373-5.18-.472-3.923,1.09-5.776l51.879-29.053s3.1-2.583,5.62-2.128,4.79,3.8,4.79,3.8l4.353-2.077s-2.646-4.92-.624-8.978,15.04-18.256,20.31-25.185l4.417-6.51.282-1.493s-2.649-14.124,4.136-15.259c0,0,4.894-.333,15.321,11.491S2106.5-493.06,2106.5-493.06s9.919,20.5,13.328,33.822,5.251,23.892-.689,25.67c0,0-4.3,1.288-13.528-8.7l-1.33.39-10.767-.293-11.418,1.109-6.976,1.121-8.559,2.346-2.174-.314-4.011-3.269-3.514,2.236s2.826,2.276,1.9,5.287-12.861,9.264-12.861,9.264l-1.239,1.447,1.507,10.366,10.454,39.008s3.576,9.393,2.3,11.74-11.479,8.165-13.506,8.08-9.756-16.915-9.756-16.915Z" fill="#fffaf7"/>
              <g id="Grupo_56598" data-name="Grupo 56598">
                <path id="Trazado_102605" data-name="Trazado 102605" d="M2046.17-412.58l-1.507-10.366.1-.112.052-2.322,4.024-4.462-.826-.729-5.449-4.265-1.775.578-29.428,17.02,1.205,2.617c.3-.322,25.588-15.055,25.588-15.055s-1.633,1.914.242,10.832,15.54,54.218,15.693,55.878-10.1,7.57-10.1,7.57-.011.134-.008.336c.6.8,1.1,1.294,1.443,1.308,2.027.085,12.235-5.733,13.506-8.08s-2.3-11.74-2.3-11.74Z" fill="#b3a4c8"/>
                <path id="Trazado_102606" data-name="Trazado 102606" d="M1997.012-405.368l-.769-1.162a73.711,73.711,0,0,1-15.527-18.035,63.381,63.381,0,0,1-8.3-22.144s.78,12.5,2.34,17.229,12.145,17.1,12.145,17.1-1.733,2.691-3.141,1.877-13.983-14.582-13.983-14.582,5.617,11.9,4.31,12.645c-1.021.583-4.381-3.526-5.808-5.359,3.458,6.732,7.212,11.381,9.976,12.917,2.811,1.562,5.79-.264,5.79-.264s1.449,1.471,5.41,2.374C1992.869-401.994,1996.172-404.631,1997.012-405.368Z" fill="#b3a4c8"/>
              </g>
            </g>
            <g id="Grupo_56600" data-name="Grupo 56600">
              <path id="Trazado_102607" data-name="Trazado 102607" d="M2039.6-491.355s-.769,1.062-.747,3.958,8.47,27.518,18.763,41.713c0,0,5.68,7.792,6.769,7.773a22.3,22.3,0,0,0,2.777-.321s12.269-3.018,18.489-3.177,14.538-.61,14.538-.61l5.106.109L2092.853-458.7l-8.561-14.728-6.528-12.742-5.273-12.8-4.295-12.229-1.929-7.587-1.812-4.692-11.933,16.312-6.564,7.616Z" fill="#f9e478"/>
              <path id="Trazado_102608" data-name="Trazado 102608" d="M2084.292-473.433l-6.528-12.742-5.273-12.8-4.295-12.229-1.929-7.588-1.812-4.691-3.224,4.407c.232,8.542,1.051,24.689,6.744,36.578,9.72,20.294,16.931,28.087,16.931,28.087s-16.215,3.073-19.114,3.248c-2.423.146-18.458-19.087-23.679-25.433,3.388,9.164,9.087,22.065,15.5,30.914,0,0,5.68,7.792,6.769,7.773a22.3,22.3,0,0,0,2.777-.321s12.269-3.018,18.489-3.177,14.538-.61,14.538-.61l5.106.109L2092.853-458.7Z" fill="#d8bc45"/>
              <path id="Trazado_102609" data-name="Trazado 102609" d="M2035.872-480.3s-2.883,1.246-3.234,2.336.856,13.45,8.463,25.574,12.839,14.629,12.839,14.629l2.921-1.183s2.029,1.808,2.078,3.813-1.315,3.492-2.179,4.619-11.25,6.037-11.25,6.037-1.42-1.279.653-2.693a7.9,7.9,0,0,0,2.671-2.674l-2.6-2.3-3.341-2.58-2.109.46-23.908,13.407-5.52,3.613,3.19,6.93s-10.669,7.616-13.585,6.82-12.021-9.1-16.6-15.005-10.3-21.56-10.3-21.56l-1.8-9.223a6.941,6.941,0,0,1,3.315-4.935c2.879-1.479,25.084-13.9,25.084-13.9l20.643-11.416s6.869-5.356,9.777-4.577S2035.872-480.3,2035.872-480.3Z" fill="#f9e478"/>
              <path id="Trazado_102610" data-name="Trazado 102610" d="M2056.861-438.944l-2.921,1.183s-5.233-2.505-12.839-14.629a58.174,58.174,0,0,1-8.432-23.516c-5.633,4.1,8.262,30.486,8.11,33.44-.156,3.047-35.12,19.736-40.428,19.924-4.111.146-19.216-11.166-25.827-16.281,1.447,3.8,6.04,15.426,9.841,20.33,4.575,5.9,13.68,14.209,16.6,15.005s13.585-6.82,13.585-6.82l-3.19-6.93,5.52-3.613,23.908-13.407,2.109-.46,3.341,2.58,2.6,2.3a7.9,7.9,0,0,1-2.671,2.674c-2.073,1.414-.653,2.693-.653,2.693s10.387-4.91,11.25-6.037,2.227-2.613,2.179-4.619S2056.861-438.944,2056.861-438.944Z" fill="#d8bc45"/>
              <path id="Trazado_102611" data-name="Trazado 102611" d="M2071.022-534.087s4.106-.908,13.438,12.372,16.137,26.7,23.2,41.415a154.066,154.066,0,0,1,10.863,32.354c-.055.522.535,7.083-1.9,7s-12.476-7.139-23.341-27.975-16.614-34.059-16.614-34.059S2064.589-530.516,2071.022-534.087Z" fill="#d8bc45"/>
            </g>
            <path id="Trazado_102612" data-name="Trazado 102612" d="M2082.413-490.592s2.851-.829,4.544.424,6.779,10.952,6.974,12.828-2.8,4.262-2.8,4.262l-5.428-10.109S2082.047-490.2,2082.413-490.592Z" fill="#9e948f"/>
          </g>
          <g id="Grupo_56604" data-name="Grupo 56604">
            <path id="Trazado_102613" data-name="Trazado 102613" d="M1988.455-306.509,2006.8-330.6s1.471-2.1,2.9-2.449a8.675,8.675,0,0,0,4.328-3.117c.876-1.333,1.16-2.841,2.42-4.226s14.76-14.686,14.76-14.686l7.562-8.637s5.7-6.546,6.952-8.053,11.923-4.618,12.548-6.936a11.425,11.425,0,0,0-.595-6.776,22.793,22.793,0,0,0-1.648-2.513l-1.809-.341-3.787,1.869-4.29,1.227,2.427-2.6,3.609-2.253,1.086,2.85s3.651-2.144,3.689-5.321a22.947,22.947,0,0,0-1.424-7.012l-1.068-1.95a18.487,18.487,0,0,0,.062-4.3,5.6,5.6,0,0,0-3.448-3.9c-1.134-.276-4.038.549-4.038.549l-18.371,7.023-1.1-.145,9.228-7.873s6.594-4.5,7.687-4.669a3.98,3.98,0,0,1,1.448-.063l.234,2.316s3.313-2.365,3.783-4.082-1.25-5.617-2.8-6.346a21.177,21.177,0,0,0-3.093-1.146s-2.6-.186-7.465,1.838-16.5,11-16.5,11-5.6,3.876-8.4,8.094-6.638,11.349-6.638,11.349l-6.532,14.762L1992.39-362.1l-2.377,5.983-11.951,8.733s-6.706,4.545-7.257,7.684,2.359,13.308,2.359,13.308l6.244,13.229s3.489,5.211,5.594,6.425S1988.455-306.509,1988.455-306.509Z" fill="#ffcaa6"/>
            <g id="Grupo_56602" data-name="Grupo 56602">
              <path id="Trazado_102614" data-name="Trazado 102614" d="M1974.577-344.48s17.35-8.361,18.7-10.045,19.166-45.38,23.425-50.135,22.312-17.366,25.777-17.63a32.383,32.383,0,0,1,5.974.06,11.3,11.3,0,0,0-9.227-1.049c-5.31,1.64-24.372,15.271-27.525,20.054s-18.684,39.587-18.684,39.587l-3.006,7.519Z" fill="#fff4ca"/>
              <path id="Trazado_102615" data-name="Trazado 102615" d="M2023.2-398.941s9.485-1.108,11.03-1.614,15.4-6.732,16.956-6.511a11.375,11.375,0,0,1,3.341,1.246s-1.76-4.01-3.752-3.942-6.54,1.891-6.54,1.891l-16.889,6.544Z" fill="#fff4ca"/>
              <path id="Trazado_102616" data-name="Trazado 102616" d="M2055.749-397.955s-5.468,1.174-6.266,1.439-14.027,4.926-14.027,4.926l2.885-3.09s10.428-6.232,13.422-6.291S2055.6-401.113,2055.749-397.955Z" fill="#fff4ca"/>
            </g>
            <g id="Grupo_56603" data-name="Grupo 56603">
              <path id="Trazado_102617" data-name="Trazado 102617" d="M2054.406-400.962a8.639,8.639,0,0,0-2.643-.009c-1.414.223-3.015.656-3.015.656l-10.407,5.635-1.882,2.515-3.1,1.78-1.706,2.029-.369,1.427s-.819-4.558.537-6.253a24.628,24.628,0,0,1,3.858-3.526s8.92-6.252,16.7-8.263C2057.879-406.395,2054.406-400.962,2054.406-400.962Z" fill="#de9268"/>
              <path id="Trazado_102618" data-name="Trazado 102618" d="M2022.77-398.767s2.136-7.681,2.936-8.608,15.061-11.323,17.54-11.554,6.156.462,6.329.87a7.971,7.971,0,0,1,.153,1.839l-1.265,2.072-2.293,1.568-.65-2.186-2.385.559-3.984,2.048-6.462,4.837-4.147,3.775-1.773,1.788Z" fill="#de9268"/>
              <path id="Trazado_102619" data-name="Trazado 102619" d="M2057.679-385.478c-.116-.215-.244-.432-.375-.646l.882,4.273s-.633-1.48-1.7-1.695-17.092,3.1-17.092,3.1l3.473-2.894s3.249-1.477,6.339-2.777l-3.06.876,2.427-2.6,3.609-2.253.887,2.328-.978.483a15.868,15.868,0,0,1,2.258-.745,2.619,2.619,0,0,1,2.483,1.162c-.433-.645-.8-1.128-.8-1.128l-1.413-.267a6.169,6.169,0,0,0,2.338-4.3,15.765,15.765,0,0,0-.357-3.244c-5.208.158-13.5,5.679-18.041,9.011a9.424,9.424,0,0,0-3.747,6.171,50.661,50.661,0,0,1-1.571,7.3c-1.04,3.146-12.54,19.494-16.718,25.377a8.549,8.549,0,0,1-3.815,2.986,18.61,18.61,0,0,0-4.318,2.166,13.9,13.9,0,0,0-1.952,3.87,17,17,0,0,1-4.425,6.46c-5.392,4.906-15.945,14.084-18.121,12.828-2.351-1.356-9.338-16.143-12.084-22.106a5.237,5.237,0,0,0-1,2.043c-.551,3.14,2.359,13.308,2.359,13.308l6.244,13.229s3.489,5.211,5.594,6.425,3.453.231,3.453.231L2006.8-330.6s1.471-2.1,2.9-2.449a8.675,8.675,0,0,0,4.328-3.117c.876-1.333,1.16-2.841,2.42-4.226s14.76-14.686,14.76-14.686l7.562-8.637s5.7-6.546,6.952-8.053,11.923-4.618,12.548-6.936A11.425,11.425,0,0,0,2057.679-385.478Z" fill="#de9268"/>
            </g>
          </g>
          <g id="Grupo_56605" data-name="Grupo 56605">
            <path id="Trazado_102620" data-name="Trazado 102620" d="M2071.864-539.789c-.02.05-.065.137-.054.144a2.483,2.483,0,0,0,.376.235,23.352,23.352,0,0,1,5.089,3.4,63.479,63.479,0,0,1,7.647,7.82,134.164,134.164,0,0,1,9.42,12.745,218.072,218.072,0,0,1,14.448,25.69,202.052,202.052,0,0,1,9.651,23.564,113.131,113.131,0,0,1,4.074,15.3,48.3,48.3,0,0,1,.917,8.751,13.037,13.037,0,0,1-.322,3.359c-.037.139-.088.287.035.416l-.5,1.9c-.236.093-.227.331-.293.516a4.221,4.221,0,0,1-4.977,2.889,11.525,11.525,0,0,1-3.794-1.483,29.851,29.851,0,0,1-5.027-3.807c-.809-.741-1.593-1.51-2.367-2.288a1.121,1.121,0,0,0-.928-.4,24.353,24.353,0,0,1-2.93-.16,80.044,80.044,0,0,0-12.082.3c-6.15.563-12.24,1.518-18.3,2.688-1.543.3-3.1.547-4.647.8a10.2,10.2,0,0,1-2.125.152,2.567,2.567,0,0,1-1.258-.378,14.768,14.768,0,0,1-2.865-2.242c-.144-.147-.292-.29-.458-.454l-2.667,1.452c.037.275.247.356.388.478a5.035,5.035,0,0,1-.473,7.764c-.636.436-1.277.87-1.941,1.262q-2.8,1.65-5.632,3.259c-.982.555-2,1.054-2.994,1.579a2.379,2.379,0,0,0-.671.4c-.023.235.169.221.282.287a2.485,2.485,0,0,0,.318.159,4.233,4.233,0,0,1,2.417,2.585,15.98,15.98,0,0,1,.952,3.607,3.817,3.817,0,0,1-1.672,3.863,9.541,9.541,0,0,1-1.455.86,1.431,1.431,0,0,0-.642.379l.425,2.377c.252.146.443.011.632-.031a15.77,15.77,0,0,1,2.012-.365,4.48,4.48,0,0,1,4.471,2.155,5.147,5.147,0,0,1,.57,1.106,9.261,9.261,0,0,1,.325,5.513,1.547,1.547,0,0,0-.02.235,7.878,7.878,0,0,1,1.608,3.472,19.463,19.463,0,0,1,.825,5.17,4.129,4.129,0,0,1-.469,1.971,12.869,12.869,0,0,1-.65,1.162c-.247.364-.554.687-.849,1.046a10.425,10.425,0,0,1,1,.581,3.828,3.828,0,0,1,1.036,1.21,10.867,10.867,0,0,1,1.523,7.089,8.031,8.031,0,0,1-.2.959,2.735,2.735,0,0,1-1.532,1.861,3.358,3.358,0,0,0-.951.548c.192.642.379,1.3.583,1.947.943,3,1.75,6.045,2.539,9.092.141.545.244,1.1.345,1.655a3.053,3.053,0,0,1-.751,2.645,8.038,8.038,0,0,1-.8.832c-.629.543-1.252,1.1-1.927,1.582a46.9,46.9,0,0,1-9.244,5.152,3.989,3.989,0,0,1-1.457.375,1.985,1.985,0,0,1-1.524-.558,13.583,13.583,0,0,1-2.251-2.859c-1.047-1.729-2.016-3.5-2.972-5.281-.124-.23-.257-.456-.413-.733-.4.247-.564.644-.858.915a7.54,7.54,0,0,0-.849.91,119.59,119.59,0,0,1-12.858,13.793c-1.622,1.525-3.269,3.024-4.9,4.544-.8.75-1.582,1.524-2.377,2.282a6.241,6.241,0,0,0-1.527,2.375,16.523,16.523,0,0,1-.945,2.3,5.166,5.166,0,0,1-1.818,1.913,20.955,20.955,0,0,1-3.927,1.889,1.822,1.822,0,0,0-.854.6c-.623.794-1.267,1.571-1.863,2.384-2.9,3.947-5.764,7.914-8.672,11.852-2.255,3.055-4.553,6.079-6.834,9.115a11.886,11.886,0,0,1-1.224,1.411,2.13,2.13,0,0,1-1.749.709,1.681,1.681,0,0,0-.949.1l-1.55-.411a.15.15,0,0,0-.08-.2,12.75,12.75,0,0,1-3.965-3.649,36.232,36.232,0,0,1-4.083-6.886c-2.742-5.977-5.568-12.411-6.425-18.937-.119-.91-.191-1.829-.249-2.746a3.843,3.843,0,0,1,.255-1.835.646.646,0,0,0,.061-.167,4.99,4.99,0,0,1,1.645-2.681c2.944-3.115,7.19-5.7,10.493-8.417,2.088-1.718,4.239-3.354,6.393-4.987a3.2,3.2,0,0,0,1.11-1.547c.886-2.427,1.819-4.837,2.749-7.248q.961-2.494,1.964-4.972c.743-1.846,1.488-3.691,2.263-5.523.856-2.024,1.738-4.037,2.626-6.047q2.141-4.847,4.48-9.6c.947-1.916,1.841-3.859,2.911-5.71,1.127-1.952,2.179-3.948,3.5-5.787a27.882,27.882,0,0,1,4.26-5,1.936,1.936,0,0,0,.2-.244,8.6,8.6,0,0,0-.7-1.193c-.244-.036-.392.13-.559.232-1.6.979-3.238,1.875-4.889,2.759-1.2.645-2.386,1.331-3.592,1.974-.917.488-1.834.984-2.788,1.391a2.991,2.991,0,0,1-2.728-.342c-.592-.335-1.15-.732-1.727-1.1-.148-.093-.309-.166-.487-.259-1.176.5-2.346,1.01-3.52,1.506-.492.208-.988.407-1.491.585a6.7,6.7,0,0,1-4.95-.182,18.424,18.424,0,0,1-3.236-1.743,12.664,12.664,0,0,1-2.14.536,7.065,7.065,0,0,1-3.764-.352,6.957,6.957,0,0,1-2.212-1.464,30.387,30.387,0,0,1-3-3.281,56.608,56.608,0,0,1-6.518-10.3,26.832,26.832,0,0,1-1.853-4.815c-.375-1.375-.792-2.738-1.074-4.136a8.873,8.873,0,0,1-.136-2.745,5.7,5.7,0,0,1,1.153-2.852c.374-.5.784-.966,1.181-1.451a1.857,1.857,0,0,0-.11-.781,16.285,16.285,0,0,1-.371-3.355,5.126,5.126,0,0,1,.9-2.933,14.85,14.85,0,0,1,1.787-2.1,37.607,37.607,0,0,1,3.46-3.151c-.01-.478-.021-.979-.03-1.479-.005-.237-.016-.474-.007-.71a5.54,5.54,0,0,1,1.587-3.491,7.345,7.345,0,0,1,1.933-1.544q12.111-6.738,24.2-13.512,14.04-7.851,28.077-15.708a9.993,9.993,0,0,1,2.264-1.029,1.828,1.828,0,0,1,.783-.037,6.6,6.6,0,0,1,3.128,1.412,13.693,13.693,0,0,1,1.5,1.389,2.607,2.607,0,0,1,.8,1.3l3.339-1.539a1.054,1.054,0,0,0-.072-.63,47.991,47.991,0,0,1-.89-5.263,5.164,5.164,0,0,1,.583-3.006,15.118,15.118,0,0,1,1.278-2.032c1.387-1.93,2.889-3.767,4.429-5.574,2.714-3.184,5.463-6.337,8.12-9.571a151.643,151.643,0,0,0,10.44-14.295c.335-.523.7-1.026,1.057-1.543-.126-1.113-.267-2.231-.376-3.353a28.1,28.1,0,0,1,.016-6.4,10.5,10.5,0,0,1,1.065-3.66,4.219,4.219,0,0,1,3.925-2.465c.148,0,.426.161.465-.184Zm-32.471,159.348a.613.613,0,0,1,.166-.421,5.862,5.862,0,0,1,1.024-1.109c1.216-1.091,2.426-2.188,3.669-3.247a32.349,32.349,0,0,1,3.224-2.528,61.813,61.813,0,0,1,6.512-3.86c.14-.069.268-.223.467-.129a21.793,21.793,0,0,1-1.793,1.642c.227.571.455,1.147.689,1.72.017.042.088.062.168.115.26-.34.506-.7.79-1.021s.616-.644.938-.951a2.966,2.966,0,0,0,.854-2.089,5.458,5.458,0,0,0-.005-.712,23.374,23.374,0,0,0-1.245-6,4.656,4.656,0,0,0-.465-.959,1.315,1.315,0,0,0-1.025-.621,3.711,3.711,0,0,0-1.319.15,17.682,17.682,0,0,0-3.5,1.312c-1.338.647-2.642,1.358-3.928,2.1a5.359,5.359,0,0,1-.875.434c-1.682.59-3.347,1.22-4.989,1.914-.113.048-.244.187-.413.016.214-.173.411-.354.629-.5a72.181,72.181,0,0,1,9.54-5.557,15.171,15.171,0,0,1,2.829-1.068,6.7,6.7,0,0,1,1.929-.3.5.5,0,0,0,.432-.107.151.151,0,0,0,.042-.05,1.227,1.227,0,0,0,.08-.252,8.845,8.845,0,0,0-.341-3.958,4.388,4.388,0,0,0-.566-1.107,2.858,2.858,0,0,0-2.66-1.318,7.6,7.6,0,0,0-1.4.207c-.925.214-1.847.443-2.759.707a89.988,89.988,0,0,0-11.585,4.341,54.355,54.355,0,0,1-5.264,2.186,26.822,26.822,0,0,0-3.447,1.425,10.271,10.271,0,0,0-1.161.659,11.9,11.9,0,0,0-2.689,2.578c-.1.121-.158.327-.407.256a9.764,9.764,0,0,1,1.05-2.643,4.507,4.507,0,0,1,1.758-1.728,6.1,6.1,0,0,1,.881-.425,2.079,2.079,0,0,0,.8-.54,58.61,58.61,0,0,1,5.861-5.2,99.365,99.365,0,0,1,9.316-6.726,12.652,12.652,0,0,1,5.061-1.848,2.354,2.354,0,0,1,2.047.408,2.169,2.169,0,0,0,.7-2.046,16.249,16.249,0,0,0-.654-2.768,3.572,3.572,0,0,0-2.416-2.5,9.677,9.677,0,0,0-7.937.395c-.556.282-1.1.6-1.636.908-3.922,2.25-7.642,4.809-11.32,7.432-3.218,2.3-6.366,4.68-9.355,7.271a18.211,18.211,0,0,0-2.448,2.577c-.713.916-1.318,1.9-1.939,2.877a123.719,123.719,0,0,0-6.989,13.114c-1.1,2.3-2.178,4.619-3.2,6.96-1.032,2.368-2.076,4.731-3.095,7.1q-1.652,3.848-3.262,7.712-.991,2.387-1.914,4.8a53.987,53.987,0,0,1-2.093,5.108,1.894,1.894,0,0,1-.543.687c-.66.507-1.305,1.032-1.967,1.535-3.813,2.89-8.492,5.747-12.046,8.95-1.036.934-2.048,1.9-3.038,2.879a4.863,4.863,0,0,0-1.55,4.186c.069.589.1,1.182.167,1.772a68.013,68.013,0,0,0,2.619,10.87c1.175,4,3.173,7.469,5.163,11.141a26.326,26.326,0,0,0,3.412,4.991,10.015,10.015,0,0,0,2.379,1.991,2.874,2.874,0,0,0,.815.35,1.954,1.954,0,0,0,2.229-.665c.336-.453.715-.873,1.056-1.321,3.662-4.821,7.252-9.694,10.828-14.578,2.1-2.874,4.253-5.711,6.587-8.406a5,5,0,0,1,1.9-1.421c.934-.386,1.839-.833,2.733-1.3a3.845,3.845,0,0,0,1.663-1.68,6.831,6.831,0,0,0,.428-1.072,9.3,9.3,0,0,1,2.352-4.034c.259-.245.489-.52.748-.764,1.579-1.484,3.152-2.975,4.747-4.443a145.618,145.618,0,0,0,11.071-11.21c1.973-2.256,3.889-4.562,5.823-6.851,1.437-1.7,2.883-3.392,4.286-5.119a12.485,12.485,0,0,1,4.354-3.462c1.714-.821,3.4-1.7,5.117-2.517a31.81,31.81,0,0,1,3.417-1.521,4.7,4.7,0,0,0,1.429-.893,2.277,2.277,0,0,0,.858-1.687,11.229,11.229,0,0,0-1.073-5.8,4.8,4.8,0,0,0-.6-.985,1.264,1.264,0,0,0-1.338-.494c-.462.108-.925.216-1.375.364a76.488,76.488,0,0,0-8.138,3.146c-.432.2-.862.4-1.308.564a4.874,4.874,0,0,0-1.164.642q-1.128.8-2.278,1.561A2.374,2.374,0,0,1,2039.393-380.441Zm-4.51-100.085c-.592-.538-1.181-1.079-1.777-1.613a7.816,7.816,0,0,0-1.6-1.117,2.11,2.11,0,0,0-2.351.064c-.365.253-.769.449-1.158.667l-28.467,15.914q-8.907,4.979-17.815,9.953c-2.126,1.188-4.246,2.387-6.381,3.56a4.893,4.893,0,0,0-1.854,1.747,2.669,2.669,0,0,0-.413,1.346,14.679,14.679,0,0,0,.163,3.106c.188,1.021.373,2.044.607,3.055a65.926,65.926,0,0,0,3.217,9.8,82.045,82.045,0,0,0,5.654,11.5,48.7,48.7,0,0,0,10.2,12.266c2.216,1.882,4.505,3.67,6.9,5.326.244.169.489.337.744.488a1.974,1.974,0,0,0,1.543.214,5.88,5.88,0,0,0,1.477-.607q2.823-1.614,5.65-3.222c1.266-.719,2.538-1.425,3.8-2.144.174-.1.383-.159.49-.366a1.942,1.942,0,0,0-.314-.721c-.735-1.492-1.481-2.979-2.209-4.474a6.29,6.29,0,0,1-.371-1,.763.763,0,0,1,.334-.927c.37-.247.709-.541,1.082-.782,2.243-1.454,4.479-2.921,6.742-4.342,4.933-3.1,10.048-5.881,15.155-8.677,1.928-1.056,3.889-2.049,5.87-3,.534-.257,1.085-.483,1.637-.7a2.4,2.4,0,0,1,2.294.244c.1.064.205.12.3.185a39.224,39.224,0,0,1,4.535,3.579,4.222,4.222,0,0,1,.589.664,1.245,1.245,0,0,1,.082,1.423,3.567,3.567,0,0,1-.709.909c-.524.483-1.055.958-1.587,1.431a6.193,6.193,0,0,0-1.148,1.234c-.061.1-.13.2-.005.3a.486.486,0,0,0,.332-.084c.572-.314,1.154-.613,1.721-.937q4.177-2.386,8.35-4.784a1.842,1.842,0,0,0,.567-.421c.24-.3.5-.588.741-.888a3.773,3.773,0,0,0,.607-3.7,24.734,24.734,0,0,0-1.046-2.417c-.83.482-1.7.778-2.523,1.191a.954.954,0,0,1-.843.064,5.862,5.862,0,0,1-.641-.3,12.147,12.147,0,0,1-2.541-1.935,53.745,53.745,0,0,1-8.87-10.872,101.065,101.065,0,0,1-5.41-10.236,51.44,51.44,0,0,1-2.964-7.725,32.9,32.9,0,0,1-1.348-8.945c0-.089-.005-.178,0-.267a2.083,2.083,0,0,1,1.214-2.005c.486-.216.936-.514,1.4-.775C2034.667-480.34,2034.811-480.386,2034.883-480.526Zm69.159,37.836a.747.747,0,0,0-.284-.533,119.312,119.312,0,0,1-8.443-10.805,197.009,197.009,0,0,1-11.953-19.524,222.953,222.953,0,0,1-12.065-26.114,132.725,132.725,0,0,1-6.631-22.159c-.025-.124-.014-.295-.2-.326-.625,1.013-1.228,2.035-1.875,3.029a122.013,122.013,0,0,1-9.076,11.987c-2.353,2.791-4.768,5.529-7.155,8.291a84.992,84.992,0,0,0-5.55,7.067,8.984,8.984,0,0,0-.972,1.7,1.978,1.978,0,0,0-.157,1.04c.087.647.172,1.294.272,1.939a55.169,55.169,0,0,0,2.351,9.039c1.811,5.418,4.175,10.611,6.45,15.84q.816,1.879,1.632,3.759a.222.222,0,0,1-.006.274,3.781,3.781,0,0,1-.909-1.048c-.792-1.291-1.574-2.589-2.372-3.877a39.34,39.34,0,0,1-2.311-4.32,102.771,102.771,0,0,1-4.89-13,2.3,2.3,0,0,0-.338-.878c-2.17.936-4.24,2.08-6.329,3.161.006.682-.019,1.307.026,1.926.054.738.148,1.476.261,2.208a45.069,45.069,0,0,0,3.016,10.6,98.44,98.44,0,0,0,4.561,9.372,57.413,57.413,0,0,0,6.115,9.076,46.676,46.676,0,0,0,4.622,4.934A12.618,12.618,0,0,0,2054-438.4a56.055,56.055,0,0,0,5.615-2.929,1.986,1.986,0,0,0-.516-.708,35.906,35.906,0,0,1-4.02-5.873,9.028,9.028,0,0,1-.8-1.978c-.031-.122-.146-.279.066-.373a9.444,9.444,0,0,1,1.561,1.7q1.172,1.572,2.338,3.147c.992,1.336,2.029,2.635,3.149,3.866a13.3,13.3,0,0,0,1.874,1.77c1.611,1.2,1.222,1.147,3.24.9,1.558-.191,3.108-.48,4.646-.8,5.492-1.149,11.028-2.013,16.6-2.65a84.488,84.488,0,0,1,11.982-.647C2101.165-442.94,2102.585-442.846,2104.042-442.69Zm17.638,4.847c.025-.133.084-.423.137-.716a22.742,22.742,0,0,0,.247-5.148,58.1,58.1,0,0,0-1.356-9.417,126.372,126.372,0,0,0-4.951-16.727,222.143,222.143,0,0,0-20.615-41.9,140.551,140.551,0,0,0-10.4-14.568,68.87,68.87,0,0,0-7.634-8.083,24.739,24.739,0,0,0-5.066-3.594,7.5,7.5,0,0,0-3.036-.948,2.857,2.857,0,0,0-2.762,1.442,7.128,7.128,0,0,0-.935,2.487,20.831,20.831,0,0,0-.336,3.453,43.367,43.367,0,0,0,.623,7.347c.251,1.643.586,3.272.953,4.893a134.643,134.643,0,0,0,5.492,17.865,223.526,223.526,0,0,0,19.155,38.768c6.464,9.487,7.06,10.784,11.16,15.771a68.4,68.4,0,0,0,7.706,8.137,24.17,24.17,0,0,0,5.007,3.524,7.437,7.437,0,0,0,3.039.936,2.825,2.825,0,0,0,2.6-1.255A6.914,6.914,0,0,0,2121.68-437.843Zm-149.755-7.622a.756.756,0,0,0-.475.285c-.792.761-1.591,1.513-2.362,2.295-.436.442-.832.926-1.228,1.407a3.233,3.233,0,0,0-.714,2.15,14.309,14.309,0,0,0,.266,2.563q.437,2.318,1.064,4.593a63.1,63.1,0,0,0,5.457,13.795,37.128,37.128,0,0,0,10,11.8,19.949,19.949,0,0,0,3.687,2.3,5.944,5.944,0,0,0,4.659.37c1.2-.429,2.375-.932,3.547-1.435.074-.031.129-.109.234-.2-.484-.367-.958-.7-1.405-1.071-1.467-1.2-2.875-2.475-4.246-3.789a54.049,54.049,0,0,1-8.881-10.969,82.006,82.006,0,0,1-5.444-10.808,62.837,62.837,0,0,1-4.04-12.887C1972.014-445.2,1971.962-445.336,1971.925-445.465Zm75.937,15.654a43.565,43.565,0,0,0-4.418-3.6c-.947-.656-1.048-.689-2.118-.193-1.347.625-2.69,1.263-4,1.956-8.491,4.48-16.816,9.248-24.843,14.525-.095.063-.182.139-.265.2a1.924,1.924,0,0,0,.308.759c.134.247.172.569.456.7.452-.333.867-.672,1.314-.964,1.692-1.1,3.371-2.23,5.1-3.278,5-3.04,10.144-5.842,15.213-8.768a17.64,17.64,0,0,1,2.835-1.293c.376-.136.689-.09.711.089.037.29-.2.41-.387.548a26.415,26.415,0,0,1-2.666,1.782q-2.7,1.569-5.4,3.123c-3.785,2.179-7.578,4.346-11.289,6.651-1.64,1.018-3.287,2.026-4.928,3.042-.039.024-.048.1-.078.16.813,1.676,1.7,3.323,2.632,4.947.068.119.116.275.329.278.649-.532,1.305-1.088,1.98-1.621,3.547-2.8,7.232-5.41,10.972-7.941,2.413-1.633,4.9-3.148,7.435-4.581a11.209,11.209,0,0,1,6.5-1.439,1.171,1.171,0,0,0,.644-.052,4.182,4.182,0,0,1,1.059-2.093c.3-.329.622-.636.95-.935.5-.461,1.029-.9,1.531-1.361A.952.952,0,0,0,2047.862-429.811Zm-8.112,66.047c.035.081.085.218.152.346,1.1,2.106,2.242,4.188,3.46,6.227.35.585.751,1.14,1.144,1.7a7.543,7.543,0,0,0,.574.678.877.877,0,0,0,.889.271,6.168,6.168,0,0,0,1.169-.42,46.979,46.979,0,0,0,7.953-4.358,18.368,18.368,0,0,0,2.569-2.057c1.061-1.028,1.2-1.347.872-2.757-.341-1.474-.72-2.938-1.094-4.4-.615-2.41-1.361-4.783-2.071-7.155a.788.788,0,0,0-.521.159c-2.495,1.249-4.985,2.508-7.483,3.75a9.973,9.973,0,0,0-3.39,2.688c-.205.254-.413.505-.618.759q-1.655,2.035-3.308,4.074A.884.884,0,0,0,2039.75-363.764Zm-56.964-41.6a1.214,1.214,0,0,0-.531-.574,37.456,37.456,0,0,1-8.479-9.654,56.825,56.825,0,0,1-5.307-11.361c-.645-1.852-1.24-3.718-1.763-5.608-.06-.219-.046-.484-.285-.626a4.5,4.5,0,0,0-1.114,2.372,6.244,6.244,0,0,0,.152,2.561c.349,1.442.734,2.876,1.108,4.312a21.1,21.1,0,0,0,1.529,3.987,54.716,54.716,0,0,0,6.956,10.749c.6.731,1.269,1.414,1.923,2.1a9.237,9.237,0,0,0,1.414,1.217,3.916,3.916,0,0,0,1.634.659A7.348,7.348,0,0,0,1982.786-405.369Zm46.622,2.443c.9-.419,1.756-.814,2.611-1.222a90.147,90.147,0,0,1,13.672-5.332c.19-.055.422-.052.54-.261a14.4,14.4,0,0,0-1-4.33c-.3.082-.621.15-.925.257a8.176,8.176,0,0,0-1.068.443c-.553.288-1.1.593-1.626.923a94.482,94.482,0,0,0-12.072,9.112C2029.461-403.265,2029.338-403.21,2029.408-402.926Zm22.471,13.53a31.158,31.158,0,0,0-3.856,3.058,35.088,35.088,0,0,0,4.4-1.587A12.554,12.554,0,0,0,2051.879-389.4Zm-4.4-25.208-.988.32c.042.261.076.467.119.733A2.155,2.155,0,0,0,2047.48-414.6Z" fill="#492a34"/>
            <path id="Trazado_102621" data-name="Trazado 102621" d="M2036.754-391.945a21.59,21.59,0,0,0-3.117,2.171,8.5,8.5,0,0,0-2.358,2.845.545.545,0,0,1-.164-.571,4.865,4.865,0,0,1,2.436-3.716,15.8,15.8,0,0,1,2.179-.988C2036.19-392.381,2036.216-392.359,2036.754-391.945Z" fill="#492a34"/>
            <path id="Trazado_102622" data-name="Trazado 102622" d="M2072.077-534.745a6.856,6.856,0,0,1,2.075,1,21.423,21.423,0,0,1,3.148,2.607,63.6,63.6,0,0,1,6.057,7,153.261,153.261,0,0,1,9.535,14.2,261.7,261.7,0,0,1,19.916,40.593,133.04,133.04,0,0,1,4.611,14.042,52.61,52.61,0,0,1,1.558,8.034,16.529,16.529,0,0,1-.018,4.174,5.006,5.006,0,0,1-.47,1.525,2.141,2.141,0,0,1-2.4,1.278,5.3,5.3,0,0,1-1.9-.738,15.333,15.333,0,0,1-2.648-1.945,41.653,41.653,0,0,1-3.735-3.814,106.984,106.984,0,0,1-8.237-10.962,230.281,230.281,0,0,1-13.271-22.782,248.552,248.552,0,0,1-11.91-26.674,129.271,129.271,0,0,1-4.164-12.971,49.994,49.994,0,0,1-1.5-8.044,16.735,16.735,0,0,1,.021-3.643,5.469,5.469,0,0,1,.5-1.7,2.169,2.169,0,0,1,2.576-1.241C2071.905-534.794,2071.991-534.768,2072.077-534.745Zm19.821,61.8c.088.166.168.324.254.479q2.109,3.774,4.367,7.462a148.418,148.418,0,0,0,9.757,14.262,54.035,54.035,0,0,0,5.772,6.417,17.254,17.254,0,0,0,2.446,1.921,5.116,5.116,0,0,0,1.615.73c.68.151,1.011-.008,1.259-.65a5.654,5.654,0,0,0,.358-1.649,18.4,18.4,0,0,0-.079-3.2,49.362,49.362,0,0,0-1.291-6.908A126.758,126.758,0,0,0,2112-467.736a242.29,242.29,0,0,0-10.339-23.482,242.021,242.021,0,0,0-13.072-23.108,124.1,124.1,0,0,0-8.211-11.43,46.054,46.054,0,0,0-5.181-5.508,12.749,12.749,0,0,0-2.3-1.676,6.577,6.577,0,0,0-1.134-.509c-.78-.245-1.171-.035-1.439.738a6.421,6.421,0,0,0-.332,1.745,23.6,23.6,0,0,0,.411,5.315,78.749,78.749,0,0,0,2.716,10.7,201.011,201.011,0,0,0,9.3,23.426,1.008,1.008,0,0,0,.361.542c.254-.052.541-.107.825-.173a8.874,8.874,0,0,1,1.853-.2,3.156,3.156,0,0,1,1.985.671,8.816,8.816,0,0,1,.874.754,14.126,14.126,0,0,1,1.526,1.855,35.073,35.073,0,0,1,3.621,6.839c.305.708.556,1.441.806,2.171a6.6,6.6,0,0,1,.339,1.563,3.192,3.192,0,0,1-.481,2.04A8.793,8.793,0,0,1,2091.9-472.941Zm-.621-1.344a12.8,12.8,0,0,0,1.375-1.68,1.94,1.94,0,0,0,.35-1.759c-.139-.485-.255-.977-.424-1.451a49,49,0,0,0-2.26-5.132,25.442,25.442,0,0,0-1.943-3.3,10.382,10.382,0,0,0-1.437-1.694,2.112,2.112,0,0,0-1.23-.666,5.521,5.521,0,0,0-2.351.288c.475,1.419,4.621,9.646,7.46,14.8C2090.927-474.671,2090.981-474.421,2091.277-474.285Z" fill="#492a34"/>
          </g>
          <g id="Grupo_56606" data-name="Grupo 56606">
            <path id="Trazado_102623" data-name="Trazado 102623" d="M2106.808-518.877l13.4-57.236,18.947,8.894Z" fill="#ff6279"/>
            <path id="Trazado_102624" data-name="Trazado 102624" d="M2119.04-496.414,2148.3-532.42l17.566,27.514Z" fill="#ff6279"/>
            <path id="Trazado_102625" data-name="Trazado 102625" d="M2132.513-473.582l32.051.658-1.965,10.411Z" fill="#ff6279"/>
          </g>
        </g>
        <path id="Trazado_102626" data-name="Trazado 102626" d="M1965.831-229.79l-.813-1.006a4.169,4.169,0,0,0,.262-1.449c0-2.632-2.471-4.765-5.519-4.765s-5.519,2.133-5.519,4.765,2.471,4.764,5.519,4.764a5.968,5.968,0,0,0,3.912-1.4l1.416.3A.752.752,0,0,0,1965.831-229.79Z" fill="#91a9b8"/>
      </g>
      <g id="Grupo_56618" data-name="Grupo 56618">
        <g id="Grupo_56609" data-name="Grupo 56609">
          <path id="Trazado_102627" data-name="Trazado 102627" d="M2131.94-342.828c-2.2-.7-4.4-1.392-6.6-2.1a6.954,6.954,0,0,1-4.881-7.8,7.09,7.09,0,0,1,.278-1.119q2.088-6.6,4.187-13.207a6.971,6.971,0,0,1,7.8-4.946,7.364,7.364,0,0,1,1.2.3q6.584,2.086,13.167,4.176a6.935,6.935,0,0,1,4.663,8.851q-2.085,6.714-4.251,13.4a6.938,6.938,0,0,1-8.915,4.541Q2135.26-341.772,2131.94-342.828Zm15.809-9.732c.706-2.227,1.423-4.451,2.117-6.683a4.966,4.966,0,0,0-3.263-6.344q-6.711-2.162-13.442-4.264a4.958,4.958,0,0,0-6.321,3.3q-2.133,6.676-4.242,13.363a4.84,4.84,0,0,0-.117,2.72,4.866,4.866,0,0,0,3.378,3.627q6.714,2.154,13.442,4.265a4.819,4.819,0,0,0,.924.206,4.985,4.985,0,0,0,5.4-3.512C2146.346-348.1,2147.042-350.332,2147.749-352.56Z" fill="#fff"/>
          <path id="Trazado_102628" data-name="Trazado 102628" d="M2133.979-349.1a7.436,7.436,0,0,1-4.85-9.371,7.435,7.435,0,0,1,9.375-4.841,7.442,7.442,0,0,1,4.84,9.346A7.442,7.442,0,0,1,2133.979-349.1Zm3.905-12.334a5.48,5.48,0,0,0-6.876,3.562A5.477,5.477,0,0,0,2134.56-351a5.47,5.47,0,0,0,6.9-3.575A5.473,5.473,0,0,0,2137.884-361.438Z" fill="#fff"/>
          <path id="Trazado_102629" data-name="Trazado 102629" d="M2145.705-359.762a1.7,1.7,0,0,1-1.095-2.177,1.693,1.693,0,0,1,2.152-1.078,1.7,1.7,0,0,1,1.1,2.176A1.7,1.7,0,0,1,2145.705-359.762Z" fill="#fff"/>
        </g>
        <g id="Grupo_56610" data-name="Grupo 56610" opacity="0.8">
          <path id="Trazado_102630" data-name="Trazado 102630" d="M2155.746-271.491c1.1-5.2,2.2-10.352,3.3-15.568l-3.233-.685c.377-1.777.741-3.494,1.121-5.284l3.234.686c.209-.987.393-1.9.6-2.818a19.592,19.592,0,0,1,.712-2.855,4.9,4.9,0,0,1,4.6-3.361c2.506-.139,4.842.758,7.3,1.149-.391,1.843-.763,3.6-1.153,5.435-.836-.178-1.654-.355-2.474-.523-.411-.085-.824-.176-1.241-.222-.735-.081-1.123.147-1.295.855-.288,1.184-.515,2.383-.782,3.642l4.8,1.018c-.53,1.726-1.038,3.385-1.567,5.107l-4.35-.923-3.324,15.672Z" fill="#371666"/>
        </g>
        <g id="Grupo_56611" data-name="Grupo 56611">
          <path id="Trazado_102631" data-name="Trazado 102631" d="M2106.62-274.817a11.683,11.683,0,0,0,7.872-3.936,5.8,5.8,0,0,1-3.474-.519,5.743,5.743,0,0,1-2.543-2.429,5.919,5.919,0,0,0,1.289-.144,5.435,5.435,0,0,0,1.217-.429,5.777,5.777,0,0,1-3.632-1.387,5.715,5.715,0,0,1-1.946-3.388,5.808,5.808,0,0,0,2.695.224,5.729,5.729,0,0,1-3.018-3,5.707,5.707,0,0,1-.165-4.224,16.489,16.489,0,0,0,12.81,3.71c-.093-.227-.174-.431-.237-.642a5.63,5.63,0,0,1,.118-3.743,5.558,5.558,0,0,1,3.343-3.344,5.632,5.632,0,0,1,5.376.673.144.144,0,0,0,.158.02,11.6,11.6,0,0,0,3.2-1.975l.053-.045a5.693,5.693,0,0,1-.615,1.963,6.054,6.054,0,0,1-1.244,1.616,10.232,10.232,0,0,0,1.572-.621,11.51,11.51,0,0,0,1.472-.861c-.109.265-.222.5-.34.732a11.669,11.669,0,0,1-1.871,2.67.141.141,0,0,0-.041.148,14.293,14.293,0,0,1,.344,2.128,16.59,16.59,0,0,1-.059,3.524,16.86,16.86,0,0,1-2.238,6.629,15.382,15.382,0,0,1-6.8,6.191,17.069,17.069,0,0,1-4.859,1.452,16.238,16.238,0,0,1-8.375-.968Z" fill="#fff"/>
        </g>
        <g id="Grupo_56612" data-name="Grupo 56612" opacity="0.8">
          <path id="Trazado_102632" data-name="Trazado 102632" d="M2078.7-307.825a2.82,2.82,0,0,1,1.5.4,2.951,2.951,0,0,1,1.209,1.541,6.17,6.17,0,0,1,.177,3.9,4.149,4.149,0,0,1-2.371,2.665,6.617,6.617,0,0,1-2.609.6q-4.156.162-8.313.331l-.191.007q-.332-8.292-.661-16.587a.491.491,0,0,1,.074-.014c2.954-.116,5.907-.245,8.861-.34a4.633,4.633,0,0,1,2.879.829,3.9,3.9,0,0,1,1.594,2.627,4.193,4.193,0,0,1-.156,2.332,2.725,2.725,0,0,1-1.836,1.626C2078.808-307.892,2078.752-307.9,2078.7-307.825Zm-6.914,6.347.666-.027c1.294-.052,2.589-.1,3.883-.156a1.787,1.787,0,0,0,1.905-1.6,3.4,3.4,0,0,0-.046-1.244,1.809,1.809,0,0,0-2.044-1.588q-2.149.086-4.3.173a.474.474,0,0,0-.241.031C2071.667-304.433,2071.725-302.972,2071.784-301.478Zm-.419-10.705c.05,1.249.1,2.472.148,3.694,1.587-.064,3.159-.118,4.73-.194a1.063,1.063,0,0,0,1.03-.779,3.335,3.335,0,0,0,.051-1.86,1.262,1.262,0,0,0-1.424-1.046c-.466.045-.936.042-1.4.06Z" fill="#371666"/>
          <path id="Trazado_102633" data-name="Trazado 102633" d="M2091.631-303.376l2.909-.116a3.948,3.948,0,0,1-.847,2.79,4.909,4.909,0,0,1-2.677,1.566,8.943,8.943,0,0,1-4.28.065,5.229,5.229,0,0,1-3.957-3.69,7.337,7.337,0,0,1,.077-4.844,5.485,5.485,0,0,1,3.062-3.426,7.557,7.557,0,0,1,3.5-.542,5.516,5.516,0,0,1,2.6.765,4.913,4.913,0,0,1,1.973,2.4,8.444,8.444,0,0,1,.609,3.691c0,.028-.009.055-.016.1l-8.571.342a3.051,3.051,0,0,0,.36,1.483,2.557,2.557,0,0,0,2.271,1.294,4.216,4.216,0,0,0,1.624-.207A1.777,1.777,0,0,0,2091.631-303.376Zm-.325-3.333a2.543,2.543,0,0,0-1.088-2.087,2.763,2.763,0,0,0-1.9-.325,2.866,2.866,0,0,0-2.414,2.627Z" fill="#371666"/>
          <path id="Trazado_102634" data-name="Trazado 102634" d="M2084.923-312.663c-.027-.677-.054-1.34-.081-2.017l6.828-.272c.027.673.053,1.336.081,2.017Z" fill="#371666"/>
        </g>
        <path id="Trazado_102635" data-name="Trazado 102635" d="M2094.931-352.821l-4.534-13.922a.466.466,0,0,0-.259-.288,3.144,3.144,0,0,0-2.915.186q-1.684.961-3.36,1.934l-1.856,1.074-.142-.347c-.194-.482-.359-.9-.508-1.316a7.426,7.426,0,0,0-1.715-2.9,7.5,7.5,0,0,0-1.779-1.343,3.814,3.814,0,0,0-4.77,1.033c-.338.446-.278.664-.162.833l2.118,3.067a2.681,2.681,0,0,1,.517,1.543c.022,1.413.062,2.717.1,4.059l.055,1.823-.3.166c-.29.16-.7.383-1.035.576h0l0,0c-.124.07-.24.137-.337.2l-.137.08h0l-.248.144q-1.553.906-3.108,1.8l-2.021,1.167a1.437,1.437,0,0,0-.674.878,1.441,1.441,0,0,0,.144,1.1l6.193,10.725a1.456,1.456,0,0,0,.878.7,1.5,1.5,0,0,0,.94-.088,1.857,1.857,0,0,0,.177-.088l5.531-3.2a.957.957,0,0,0,.11-.07l.487-.288a.828.828,0,0,0,.4-.883l-.047-.231,8.17-4.713c.975-.559,1.95-1.119,2.913-1.7a2.649,2.649,0,0,0,1.178-1.471Zm-15.433,9.215c-1.234.711-2.468,1.423-3.732,2.159l-.281.162-.165-.279c-1.436-2.42-2.842-4.859-4.249-7.3l-1.793-3.105.269-.166c1.188-.739,2.421-1.446,3.612-2.129l1.231-.707.4-.243.83,1.36,5.406,9.364Zm13.577-8.771-.117.1q-1.2.656-2.384,1.336l-6.118,3.545c-.081.048-.165.092-.285.152l-2.256,1.3-1.386-2.4c-1.226-2.144-2.433-4.229-3.65-6.324l-.757-1.311.953-.55a.322.322,0,0,0,.136-.312c-.075-2.045-.153-4.162-.176-6.253a4.614,4.614,0,0,0-.893-2.7c-.359-.488-.7-.989-1.041-1.491l-.661-.968.188-.193a1.679,1.679,0,0,1,1.771-.333,5.482,5.482,0,0,1,3.447,3.419c.3.8.615,1.6.929,2.4l.345.877a.335.335,0,0,0,.215.2.375.375,0,0,0,.346-.081q3.072-1.771,6.108-3.528a2.563,2.563,0,0,1,.8-.318l.282-.053,3.325,10.338a.165.165,0,0,0,.036.122l.069.119.872,2.691Z" fill="#fff"/>
        <path id="Trazado_102636" data-name="Trazado 102636" d="M1862.822-309.144l4.965-15.27a.509.509,0,0,0-.045-.423,3.45,3.45,0,0,0-2.7-1.717q-2.115-.233-4.227-.453l-2.339-.245.1-.4c.139-.553.261-1.027.4-1.495a8.118,8.118,0,0,0,.348-3.675,8.237,8.237,0,0,0-.709-2.339,4.186,4.186,0,0,0-4.9-2.163c-.588.177-.676.409-.682.634l-.1,4.087a2.927,2.927,0,0,1-.537,1.7c-.892,1.268-1.7,2.449-2.528,3.667l-1.128,1.652-.373-.047c-.359-.046-.863-.11-1.289-.158h0c-.156-.018-.3-.033-.425-.045l-.173-.018h0l-.313-.033c-1.308-.132-2.613-.271-3.918-.409l-2.546-.269a1.576,1.576,0,0,0-1.163.343,1.574,1.574,0,0,0-.58,1.066l-1.432,13.506a1.6,1.6,0,0,0,.325,1.191,1.656,1.656,0,0,0,.891.528,1.858,1.858,0,0,0,.213.035l6.966.738a.939.939,0,0,0,.143.009l.618.059a.906.906,0,0,0,.923-.526l.107-.235,10.286,1.094c1.226.134,2.452.267,3.68.373a2.9,2.9,0,0,0,1.994-.543Zm-19.632-1.791c-1.552-.165-3.107-.33-4.7-.493l-.355-.038.034-.353c.289-3.074.616-6.144.943-9.214l.413-3.91.347.026c1.53.112,3.079.281,4.576.444l1.548.167.511.042-.142,1.742-1.251,11.791Zm17.7.987-.169.014c-.99-.127-1.982-.243-2.977-.354l-7.712-.806c-.1-.009-.206-.025-.351-.049l-2.841-.3.321-3.023c.3-2.692.572-5.32.845-7.963l.175-1.65,1.2.127a.351.351,0,0,0,.322-.19c1.253-1.861,2.551-3.788,3.88-5.657a5.064,5.064,0,0,0,.952-2.971c0-.665.016-1.329.039-1.994l.039-1.285.291-.049a1.839,1.839,0,0,1,1.785.847,6.01,6.01,0,0,1,.85,5.256c-.253.907-.49,1.818-.726,2.728l-.26,1a.371.371,0,0,0,.063.313.411.411,0,0,0,.36.151c2.578.275,5.135.548,7.693.815a2.8,2.8,0,0,1,.911.232l.284.135-3.724,11.312a.184.184,0,0,0-.046.132l-.016.15-.964,2.949Z" fill="#fff"/>
        <g id="Grupo_56613" data-name="Grupo 56613" opacity="0.9">
          <path id="Trazado_102637" data-name="Trazado 102637" d="M2096.91-383.819c-2.871.6-5.563,1.128-8.277,1.526a23.956,23.956,0,0,1-3.228.328,4.214,4.214,0,0,1-4.263-2.929,36.021,36.021,0,0,1-1.35-4.691,60.547,60.547,0,0,1-1.087-5.993,15.273,15.273,0,0,1-.168-2.743,4.038,4.038,0,0,1,2.675-3.648,27.326,27.326,0,0,1,4.2-1.261c2.12-.537,4.258-.994,6.4-1.438,3.029-.629,6.068-1.2,9.129-1.649a26.592,26.592,0,0,1,2.859-.3,3.925,3.925,0,0,1,4.173,2.71,37.518,37.518,0,0,1,1.677,5.688,47.348,47.348,0,0,1,.973,6.072,11.714,11.714,0,0,1,.064,1.945,4.027,4.027,0,0,1-2.662,3.591,28.06,28.06,0,0,1-4.144,1.241C2101.511-384.771,2099.121-384.257,2096.91-383.819Zm-4.223-5.213,6.631-6.224-8.542-3.119Z" fill="#371666"/>
        </g>
        <g id="Grupo_56614" data-name="Grupo 56614">
          <path id="Trazado_102638" data-name="Trazado 102638" d="M1881.519-483.338c.268-.284.507-.551.76-.8a7.064,7.064,0,0,1,6.18-2.189,7.428,7.428,0,0,1,6.263,6,7,7,0,0,1-1.858,6.142c-2.424,2.654-4.922,5.241-7.389,7.857l-3.72,3.943c-.07.074-.134.155-.189.22a.58.58,0,0,1-.273-.213q-5.427-5.748-10.855-11.494a7.513,7.513,0,0,1-2.2-5.819,7.052,7.052,0,0,1,5.9-6.557,7.446,7.446,0,0,1,5.726,1.289,6.117,6.117,0,0,1,.859.782Z" fill="#fff"/>
        </g>
        <g id="Grupo_56615" data-name="Grupo 56615">
          <path id="Trazado_102639" data-name="Trazado 102639" d="M1813.82-368.03c.168-.393.314-.758.479-1.114a7.749,7.749,0,0,1,5.537-4.587,8.145,8.145,0,0,1,8.713,3.813,7.67,7.67,0,0,1,.406,7.025c-1.494,3.648-3.089,7.255-4.642,10.879q-1.17,2.733-2.342,5.465c-.044.1-.079.21-.111.3a.629.629,0,0,1-.361-.117q-7.759-3.868-15.516-7.736a8.241,8.241,0,0,1-4.462-5.161,7.735,7.735,0,0,1,3.6-8.979,8.164,8.164,0,0,1,6.382-.835,6.716,6.716,0,0,1,1.18.481Z" fill="#371666"/>
        </g>
        <g id="Grupo_56617" data-name="Grupo 56617">
          <path id="Trazado_102640" data-name="Trazado 102640" d="M1871.013-290.77l-15.869,9.385a5.793,5.793,0,0,0-2.037,7.934l4.393,7.428a5.793,5.793,0,0,0,7.934,2.037l8.684-5.136,6.036.942a1.851,1.851,0,0,0,1.878-2.771l-1.249-2.112.52-.308a5.793,5.793,0,0,0,2.037-7.934l-4.393-7.427A5.792,5.792,0,0,0,1871.013-290.77Z" fill="#371666" opacity="0.8"/>
          <g id="Grupo_56616" data-name="Grupo 56616">
            <path id="Trazado_102641" data-name="Trazado 102641" d="M1863.342-276.12a1.475,1.475,0,0,1,1.8,1.061,1.476,1.476,0,0,1-1.061,1.8,1.477,1.477,0,0,1-1.8-1.061A1.477,1.477,0,0,1,1863.342-276.12Z" fill="#fff"/>
            <path id="Trazado_102642" data-name="Trazado 102642" d="M1867.855-278.807a1.475,1.475,0,0,1,1.8,1.061,1.475,1.475,0,0,1-1.061,1.8,1.477,1.477,0,0,1-1.8-1.061A1.477,1.477,0,0,1,1867.855-278.807Z" fill="#fff"/>
            <path id="Trazado_102643" data-name="Trazado 102643" d="M1872.368-281.495a1.476,1.476,0,0,1,1.8,1.062,1.476,1.476,0,0,1-1.061,1.8,1.476,1.476,0,0,1-1.8-1.062A1.477,1.477,0,0,1,1872.368-281.495Z" fill="#fff"/>
          </g>
        </g>
      </g>
    </g>
    <g id="Grupo_56586" data-name="Grupo 56586">
      <g id="Grupo_56585" data-name="Grupo 56585">
        <g id="Grupo_56071" data-name="Grupo 56071">
          <g id="Grupo_56068" data-name="Grupo 56068">
            <path id="Trazado_101122" data-name="Trazado 101122" d="M1951.024-470.921h-13.887a.806.806,0,0,1-.8-.807.806.806,0,0,1,.8-.8h13.887a.806.806,0,0,1,.806.807.807.807,0,0,1-.806.805Z" fill="#495abf"/>
          </g>
          <g id="Grupo_56069" data-name="Grupo 56069">
            <path id="Trazado_101123" data-name="Trazado 101123" d="M1956.576-470.921h-3.47a.805.805,0,0,1-.806-.805.8.8,0,0,1,.8-.807h3.471a.807.807,0,0,1,.807.8.806.806,0,0,1-.806.807Z" fill="#495abf"/>
          </g>
          <g id="Grupo_56070" data-name="Grupo 56070">
            <path id="Trazado_101124" data-name="Trazado 101124" d="M1935.027-470.921h-1.911a.805.805,0,0,1-.806-.805.8.8,0,0,1,.8-.807h1.912a.806.806,0,0,1,.806.807A.807.807,0,0,1,1935.027-470.921Z" fill="#495abf"/>
          </g>
        </g>
        <g id="Grupo_56074" data-name="Grupo 56074">
          <g id="Grupo_56072" data-name="Grupo 56072">
            <path id="Trazado_101125" data-name="Trazado 101125" d="M1808.151-420.346h-14.072a.806.806,0,0,1-.807-.8.808.808,0,0,1,.806-.807h14.073a.806.806,0,0,1,.806.806.8.8,0,0,1-.805.806Z" fill="#495abf"/>
          </g>
          <g id="Grupo_56073" data-name="Grupo 56073">
            <path id="Trazado_101126" data-name="Trazado 101126" d="M1820.349-420.346h-7.625a.806.806,0,0,1-.806-.806.808.808,0,0,1,.806-.806h7.625a.806.806,0,0,1,.805.807A.8.8,0,0,1,1820.349-420.346Z" fill="#495abf"/>
          </g>
        </g>
        <g id="Grupo_56078" data-name="Grupo 56078">
          <g id="Grupo_56075" data-name="Grupo 56075">
            <path id="Trazado_101127" data-name="Trazado 101127" d="M1871.411-185.468h-37.256a.808.808,0,0,1-.807-.806.806.806,0,0,1,.806-.806h37.257a.806.806,0,0,1,.807.805.808.808,0,0,1-.806.807Z" fill="#495abf"/>
          </g>
          <g id="Grupo_56076" data-name="Grupo 56076">
            <path id="Trazado_101128" data-name="Trazado 101128" d="M1864.811-190.26h-3.661a.806.806,0,0,1-.805-.807.8.8,0,0,1,.805-.8h3.661a.806.806,0,0,1,.807.8.808.808,0,0,1-.806.807Z" fill="#495abf"/>
          </g>
          <g id="Grupo_56077" data-name="Grupo 56077">
            <path id="Trazado_101129" data-name="Trazado 101129" d="M1876.073-190.26h-8.14a.808.808,0,0,1-.807-.806.806.806,0,0,1,.806-.806h8.141a.806.806,0,0,1,.807.8.808.808,0,0,1-.806.807Z" fill="#495abf"/>
          </g>
        </g>
        <g id="Grupo_56079" data-name="Grupo 56079">
          <path id="Trazado_101130" data-name="Trazado 101130" d="M1845.524-347.442h-6.408a.806.806,0,0,1-.808-.805.807.807,0,0,1,.806-.809h6.41a.807.807,0,0,1,.808.806.806.806,0,0,1-.806.808Z" fill="#495abf"/>
        </g>
        <g id="Grupo_56080" data-name="Grupo 56080">
          <path id="Trazado_101131" data-name="Trazado 101131" d="M1786.941-260.8h-5.986a.807.807,0,0,1-.808-.806.806.806,0,0,1,.806-.808h5.988a.807.807,0,0,1,.808.806.807.807,0,0,1-.806.808Z" fill="#495abf"/>
        </g>
        <g id="Grupo_56081" data-name="Grupo 56081">
          <path id="Trazado_101132" data-name="Trazado 101132" d="M1822.789-261.636a.805.805,0,0,1-.57-.235l-3.909-3.909a.809.809,0,0,1,0-1.141l3.909-3.907a.807.807,0,0,1,.57-.237h0a.809.809,0,0,1,.572.237l3.907,3.907a.807.807,0,0,1,0,1.141l-3.907,3.909A.811.811,0,0,1,1822.789-261.636Zm-2.769-4.714,2.768,2.768,2.768-2.768-2.768-2.768Z" fill="#495abf"/>
        </g>
        <g id="Grupo_56082" data-name="Grupo 56082">
          <path id="Trazado_101133" data-name="Trazado 101133" d="M1855.222-478.108a5.347,5.347,0,0,1-5.347-5.347,5.347,5.347,0,0,1,5.347-5.347,5.347,5.347,0,0,1,5.347,5.347A5.351,5.351,0,0,1,1855.222-478.108Zm0-9.08a3.734,3.734,0,0,0-3.733,3.733,3.733,3.733,0,0,0,3.733,3.733,3.733,3.733,0,0,0,3.733-3.733,3.738,3.738,0,0,0-3.733-3.733Z" fill="#495abf"/>
        </g>
        <g id="Grupo_56083" data-name="Grupo 56083">
          <path id="Trazado_101134" data-name="Trazado 101134" d="M2072.073-413.629a5.347,5.347,0,0,1-5.345-5.347,5.346,5.346,0,0,1,5.347-5.345,5.345,5.345,0,0,1,5.345,5.345A5.353,5.353,0,0,1,2072.073-413.629Zm0-9.08a3.734,3.734,0,0,0-3.735,3.733,3.735,3.735,0,0,0,3.733,3.735,3.734,3.734,0,0,0,3.735-3.733v0A3.736,3.736,0,0,0,2072.073-422.709Z" fill="#495abf"/>
        </g>
        <g id="Grupo_56084" data-name="Grupo 56084">
          <path id="Trazado_101135" data-name="Trazado 101135" d="M1992.507-492.153a3.5,3.5,0,0,1-3.5-3.5,3.5,3.5,0,0,1,3.5-3.5,3.5,3.5,0,0,1,3.5,3.5,3.5,3.5,0,0,1-3.5,3.5Zm0-5.383a1.885,1.885,0,0,0-1.887,1.883,1.885,1.885,0,0,0,1.883,1.887,1.885,1.885,0,0,0,1.887-1.883v0a1.886,1.886,0,0,0-1.883-1.882Z" fill="#495abf"/>
        </g>
        <g id="Grupo_56096" data-name="Grupo 56096">
          <g id="Grupo_56090" data-name="Grupo 56090">
            <g id="Grupo_56085" data-name="Grupo 56085">
              <path id="Trazado_101136" data-name="Trazado 101136" d="M2123-235.155h-22.908a.807.807,0,0,1-.808-.806.808.808,0,0,1,.806-.808H2123a.807.807,0,0,1,.806.808.806.806,0,0,1-.806.806Z" fill="#855db5"/>
            </g>
            <g id="Grupo_56086" data-name="Grupo 56086">
              <path id="Trazado_101137" data-name="Trazado 101137" d="M2122.714-247.171h-16.159a.807.807,0,0,1-.806-.808.807.807,0,0,1,.806-.806h16.159a.807.807,0,0,1,.806.808A.806.806,0,0,1,2122.714-247.171Z" fill="#f9e478"/>
            </g>
            <g id="Grupo_56087" data-name="Grupo 56087">
              <path id="Trazado_101138" data-name="Trazado 101138" d="M2122.714-240.731h-5.979a.8.8,0,0,1-.806-.8.806.806,0,0,1,.8-.807h5.983a.808.808,0,0,1,.806.807.806.806,0,0,1-.806.8Z" fill="#855db5"/>
            </g>
            <g id="Grupo_56088" data-name="Grupo 56088">
              <path id="Trazado_101139" data-name="Trazado 101139" d="M2113.386-240.731h-23.263a.8.8,0,0,1-.806-.8.806.806,0,0,1,.805-.807h23.264a.806.806,0,0,1,.807.806.805.805,0,0,1-.805.806Z" fill="#495abf"/>
            </g>
            <g id="Grupo_56089" data-name="Grupo 56089">
              <path id="Trazado_101140" data-name="Trazado 101140" d="M2122.714-252.938h-26.607a.8.8,0,0,1-.806-.8.806.806,0,0,1,.8-.807h26.608a.808.808,0,0,1,.806.807A.807.807,0,0,1,2122.714-252.938Z" fill="#495abf"/>
            </g>
          </g>
          <g id="Grupo_56092" data-name="Grupo 56092">
            <g id="Grupo_56091" data-name="Grupo 56091">
              <path id="Trazado_101141" data-name="Trazado 101141" d="M2156.176-237.375a2.788,2.788,0,0,1-2.76,2.81h-27.037a2.79,2.79,0,0,1-2.76-2.81v-15.2a2.79,2.79,0,0,1,2.76-2.81h27.037a2.788,2.788,0,0,1,2.76,2.81Z" fill="#f3f3ff"/>
            </g>
          </g>
          <g id="Grupo_56095" data-name="Grupo 56095">
            <g id="Grupo_56093" data-name="Grupo 56093">
              <path id="Trazado_101142" data-name="Trazado 101142" d="M2153.416-256.755h-27.037a4.159,4.159,0,0,0-4.13,4.18v15.2a4.159,4.159,0,0,0,4.13,4.18h27.037a4.16,4.16,0,0,0,4.13-4.18v-15.2A4.16,4.16,0,0,0,2153.416-256.755Zm2.76,19.381a2.788,2.788,0,0,1-2.76,2.81h-27.037a2.79,2.79,0,0,1-2.76-2.81v-15.2a2.79,2.79,0,0,1,2.76-2.81h27.037a2.788,2.788,0,0,1,2.76,2.81Z" fill="#495abf"/>
            </g>
            <g id="Grupo_56094" data-name="Grupo 56094">
              <path id="Trazado_101143" data-name="Trazado 101143" d="M2153.1-251.8a.686.686,0,0,0-.961-.127h0L2139.9-242.5l-12.327-9.427a.685.685,0,0,0-.96.129.685.685,0,0,0,.128.96l8.195,6.265-8.195,6.3a.686.686,0,0,0-.126.962.686.686,0,0,0,.544.268.673.673,0,0,0,.416-.143l8.487-6.528,3.424,2.617a.675.675,0,0,0,.416.141.686.686,0,0,0,.418-.141l3.394-2.615,8.426,6.524a.678.678,0,0,0,.418.145.687.687,0,0,0,.685-.688.687.687,0,0,0-.265-.539l-8.142-6.3,8.14-6.265A.686.686,0,0,0,2153.1-251.8Z" fill="#855db5"/>
            </g>
          </g>
        </g>
        <g id="Grupo_56099" data-name="Grupo 56099">
          <g id="Grupo_56097" data-name="Grupo 56097">
            <path id="Trazado_101144" data-name="Trazado 101144" d="M1854.308-299.335a.807.807,0,0,1-.572-.235l-4.056-4.056a.807.807,0,0,1,.025-1.141.806.806,0,0,1,1.116,0l4.056,4.056a.807.807,0,0,1,0,1.14.808.808,0,0,1-.572.237Z" fill="#495abf"/>
          </g>
          <g id="Grupo_56098" data-name="Grupo 56098">
            <path id="Trazado_101145" data-name="Trazado 101145" d="M1850.252-299.335a.8.8,0,0,1-.57-.235.809.809,0,0,1,0-1.141l4.056-4.056a.807.807,0,0,1,1.141.025.806.806,0,0,1,0,1.116l-4.056,4.056A.8.8,0,0,1,1850.252-299.335Z" fill="#495abf"/>
          </g>
        </g>
        <g id="Grupo_56102" data-name="Grupo 56102">
          <g id="Grupo_56100" data-name="Grupo 56100">
            <path id="Trazado_101146" data-name="Trazado 101146" d="M1923.209-469.631a.8.8,0,0,1-.572-.235l-4.056-4.056a.806.806,0,0,1,.024-1.141.808.808,0,0,1,1.117,0l4.056,4.056a.807.807,0,0,1,0,1.14.809.809,0,0,1-.572.237Z" fill="#495abf"/>
          </g>
          <g id="Grupo_56101" data-name="Grupo 56101">
            <path id="Trazado_101147" data-name="Trazado 101147" d="M1919.153-469.631a.807.807,0,0,1-.81-.8.809.809,0,0,1,.238-.574l4.056-4.056a.807.807,0,0,1,1.141-.025.808.808,0,0,1,.024,1.141l-.024.025-4.056,4.056A.806.806,0,0,1,1919.153-469.631Z" fill="#495abf"/>
          </g>
        </g>
        <g id="Grupo_56105" data-name="Grupo 56105">
          <g id="Grupo_56103" data-name="Grupo 56103">
            <path id="Trazado_101148" data-name="Trazado 101148" d="M1832.89-489.608a.8.8,0,0,1-.57-.235l-4.056-4.056a.807.807,0,0,1,.025-1.141.807.807,0,0,1,1.116,0l4.056,4.056a.8.8,0,0,1,0,1.14.8.8,0,0,1-.574.237Z" fill="#495abf"/>
          </g>
          <g id="Grupo_56104" data-name="Grupo 56104">
            <path id="Trazado_101149" data-name="Trazado 101149" d="M1828.834-489.608a.806.806,0,0,1-.807-.8.809.809,0,0,1,.237-.572l4.056-4.056a.807.807,0,0,1,1.141.025.806.806,0,0,1,0,1.116l-4.056,4.056A.8.8,0,0,1,1828.834-489.608Z" fill="#495abf"/>
          </g>
        </g>
        <g id="Grupo_56108" data-name="Grupo 56108">
          <g id="Grupo_56106" data-name="Grupo 56106">
            <path id="Trazado_101150" data-name="Trazado 101150" d="M2141.185-421.834a.8.8,0,0,1-.57-.238l-4.056-4.056a.805.805,0,0,1,0-1.14.806.806,0,0,1,1.14,0l4.056,4.056a.807.807,0,0,1,0,1.142.81.81,0,0,1-.569.237Z" fill="#495abf"/>
          </g>
          <g id="Grupo_56107" data-name="Grupo 56107">
            <path id="Trazado_101151" data-name="Trazado 101151" d="M2137.129-421.834a.808.808,0,0,1-.807-.81.808.808,0,0,1,.237-.569l4.056-4.056a.806.806,0,0,1,1.14,0,.806.806,0,0,1,0,1.14h0l-4.056,4.056A.8.8,0,0,1,2137.129-421.834Z" fill="#495abf"/>
          </g>
        </g>
        <g id="Grupo_56109" data-name="Grupo 56109">
          <path id="Trazado_101152" data-name="Trazado 101152" d="M1942.475-505.246a.816.816,0,0,1-.571-.238L1938-509.391a.809.809,0,0,1,0-1.141l3.908-3.909a.812.812,0,0,1,1.142,0l3.907,3.909a.809.809,0,0,1,0,1.141l-3.907,3.907A.816.816,0,0,1,1942.475-505.246Zm-2.766-4.716,2.766,2.768,2.768-2.768-2.768-2.768Z" fill="#495abf"/>
        </g>
        <g id="Grupo_56117" data-name="Grupo 56117">
          <g id="Grupo_56112" data-name="Grupo 56112">
            <g id="Grupo_56110" data-name="Grupo 56110">
              <path id="Trazado_101153" data-name="Trazado 101153" d="M1978.428-492.761c0,6.49-5.107,9.372-6.995,9.372-1.85,0-6.995-2.919-6.995-9.372a7,7,0,0,1,6.717-7.272,7,7,0,0,1,7.272,6.717q.01.277,0,.555Z" fill="#31d9e7"/>
            </g>
            <g id="Grupo_56111" data-name="Grupo 56111">
              <path id="Trazado_101154" data-name="Trazado 101154" d="M1971.436-482.582c-2.15,0-7.8-3.13-7.8-10.179a7.8,7.8,0,0,1,7.8-7.8,7.8,7.8,0,0,1,7.8,7.8C1979.236-485.711,1973.581-482.582,1971.436-482.582Zm0-16.518a6.349,6.349,0,0,0-6.19,6.339c0,5.988,4.7,8.567,6.19,8.567s6.188-2.579,6.188-8.567a6.348,6.348,0,0,0-6.188-6.336Z" fill="#495abf"/>
            </g>
          </g>
          <g id="Grupo_56113" data-name="Grupo 56113">
            <path id="Trazado_101155" data-name="Trazado 101155" d="M1971.433-469.938a.807.807,0,0,1-.807-.807h0v-12.43a.806.806,0,0,1,.805-.807.807.807,0,0,1,.807.806h0v12.43a.807.807,0,0,1-.805.807Z" fill="#495abf"/>
          </g>
          <g id="Grupo_56116" data-name="Grupo 56116">
            <g id="Grupo_56114" data-name="Grupo 56114">
              <path id="Trazado_101156" data-name="Trazado 101156" d="M1972.637-482.075h-2.52l1.312-1.312Z" fill="#c595ff"/>
            </g>
            <g id="Grupo_56115" data-name="Grupo 56115">
              <path id="Trazado_101157" data-name="Trazado 101157" d="M1972.64-481.27h-2.525a.807.807,0,0,1-.806-.809.8.8,0,0,1,.236-.568l1.312-1.311a.808.808,0,0,1,1.145,0l.019.019,1.209,1.314a.806.806,0,0,1-.049,1.139.811.811,0,0,1-.546.212Z" fill="#495abf"/>
            </g>
          </g>
        </g>
        <g id="Grupo_56125" data-name="Grupo 56125">
          <g id="Grupo_56120" data-name="Grupo 56120">
            <g id="Grupo_56118" data-name="Grupo 56118">
              <path id="Trazado_101158" data-name="Trazado 101158" d="M1813.059-301.375c0,6.49-5.107,9.372-6.993,9.372-1.85,0-7-2.919-7-9.372a7,7,0,0,1,6.717-7.272,7,7,0,0,1,7.272,6.717q.01.277,0,.555Z" fill="#f9e478"/>
            </g>
            <g id="Grupo_56119" data-name="Grupo 56119">
              <path id="Trazado_101159" data-name="Trazado 101159" d="M1806.07-291.2c-2.15,0-7.8-3.13-7.8-10.179a7.8,7.8,0,0,1,7.8-7.8,7.8,7.8,0,0,1,7.8,7.8v.008C1813.87-294.325,1808.218-291.2,1806.07-291.2Zm0-16.518a6.35,6.35,0,0,0-6.19,6.339c0,5.988,4.7,8.565,6.19,8.565s6.188-2.577,6.188-8.565A6.35,6.35,0,0,0,1806.07-307.714Z" fill="#495abf"/>
            </g>
          </g>
          <g id="Grupo_56121" data-name="Grupo 56121">
            <path id="Trazado_101160" data-name="Trazado 101160" d="M1806.07-278.554a.806.806,0,0,1-.807-.8v-12.43a.806.806,0,0,1,.805-.807.807.807,0,0,1,.807.806h0v12.43A.806.806,0,0,1,1806.07-278.554Z" fill="#495abf"/>
          </g>
          <g id="Grupo_56124" data-name="Grupo 56124">
            <g id="Grupo_56122" data-name="Grupo 56122">
              <path id="Trazado_101161" data-name="Trazado 101161" d="M1807.277-290.69h-2.52l1.312-1.312Z" fill="#c595ff"/>
            </g>
            <g id="Grupo_56123" data-name="Grupo 56123">
              <path id="Trazado_101162" data-name="Trazado 101162" d="M1807.277-289.884h-2.52a.807.807,0,0,1-.806-.808.8.8,0,0,1,.236-.569l1.312-1.312a.8.8,0,0,1,1.138,0l.026.027,1.209,1.314a.806.806,0,0,1-.049,1.139.811.811,0,0,1-.546.212Z" fill="#495abf"/>
            </g>
          </g>
        </g>
      </g>
    </g>
    <g id="Grupo_56062" data-name="Grupo 56062">
      <g id="Grupo_56049" data-name="Grupo 56049">
        <g id="Grupo_56047" data-name="Grupo 56047">
          <path id="Trazado_101108" data-name="Trazado 101108" d="M1920.662-180.13a2.117,2.117,0,0,1-1.19-.891,4.767,4.767,0,0,1-.471-.847c-.071-.164-.141-.338-.206-.521s-.118-.378-.172-.582a13.455,13.455,0,0,1-.273-1.347l-.029-.187c-.008-.061-.015-.124-.021-.187-.015-.126-.027-.254-.04-.387-.025-.261-.044-.532-.061-.813-.008-.141-.017-.284-.023-.429,0-.074-.006-.147-.008-.221v-.221c0-.3,0-.6.008-.916l.013-.479c.006-.16.01-.326.023-.49q.036-.492.082-1.009l.048-.523.027-.267.036-.265q.073-.535.158-1.093l.088-.563.107-.567q.111-.571.235-1.164c.038-.2.088-.393.137-.591l.147-.6.153-.609c.025-.1.05-.2.08-.307l.086-.3q.177-.615.368-1.244l.095-.315.1-.313.212-.633c.28-.855.61-1.7.946-2.577.04-.109.086-.216.13-.324l.137-.324.273-.654c.095-.219.187-.437.282-.656l.3-.654.3-.658c.1-.219.2-.441.315-.658q.324-.652.66-1.314c.109-.221.229-.435.345-.654l.353-.656c.12-.219.24-.437.362-.656l.374-.649.378-.652.191-.326.2-.322q.4-.644.8-1.291c.273-.425.553-.847.832-1.272s.57-.841.86-1.259.582-.837.883-1.242.6-.82.908-1.225l.929-1.2.235-.3.238-.292.477-.586.477-.584.486-.572.485-.567c.164-.189.324-.38.49-.563l.988-1.1c.164-.183.33-.362.5-.54l.5-.532.5-.53.5-.517c.334-.34.666-.685,1-1.017l1-.984.25-.242.252-.238.5-.471c.662-.631,1.328-1.223,1.982-1.81.162-.147.328-.288.49-.429l.488-.422c.326-.277.643-.555.965-.82.639-.53,1.263-1.047,1.879-1.528l.456-.361.227-.179.114-.088c.036-.029.074-.059.116-.088l.479-.364c.16-.12.315-.238.477-.353,1.269-.933,2.516-1.77,3.695-2.491l.439-.265c.145-.086.288-.172.433-.254.286-.164.567-.322.839-.473.555-.3,1.072-.574,1.57-.811a31.456,31.456,0,0,1,6.221-2.262c.271-.063.54-.124.809-.183l.4-.086c.134-.027.271-.053.406-.078.271-.05.542-.1.811-.141s.538-.076.8-.111.534-.065.8-.1.525-.042.784-.059.519-.034.773-.046.509-.01.759-.013a24.548,24.548,0,0,1,5.526.563c.206.046.412.1.616.145s.4.1.6.16q.591.17,1.148.355t1.076.408l.259.107c.086.036.168.074.252.111.168.076.332.153.494.229s.322.158.479.238.309.164.46.248q.448.252.868.515c.277.179.542.364.8.549s.5.374.731.572a12.273,12.273,0,0,1,1.261,1.206,10.311,10.311,0,0,1,1,1.274,9.375,9.375,0,0,1,.734,1.318,8.023,8.023,0,0,1,.473,1.358,7.413,7.413,0,0,1,.174,2.755,8.206,8.206,0,0,1-.8,2.644,10.16,10.16,0,0,1-.71,1.219,11.946,11.946,0,0,1-.885,1.156c-.322.372-.666.74-1.034,1.093s-.75.7-1.154,1.03c-.2.164-.408.332-.616.5s-.42.322-.635.479-.431.317-.652.471c-.109.078-.221.149-.33.227s-.223.156-.334.229-.223.151-.336.225l-.168.109-.168.111c-.225.149-.452.294-.679.435s-.452.288-.679.427c-.116.067-.227.141-.34.21l-.338.208c-.9.549-1.784,1.074-2.625,1.574q-.157.094-.315.183c-.1.063-.2.126-.307.187s-.2.12-.309.179-.2.124-.3.183-.2.113-.3.172-.2.12-.3.177l-.151.086-.153.09c-.1.059-.208.116-.311.172-.841.477-1.757.944-2.787,1.45-.256.12-.542.265-.851.408l-1.013.5c-.729.359-1.566.784-2.5,1.286-.116.059-.235.126-.355.191l-.366.2-.809.454c-.555.307-1.116.633-1.7.961-.292.164-.582.336-.879.507l-.448.259c-.149.086-.3.172-.452.263-.6.357-1.221.717-1.839,1.1l-.469.282-.238.141-.233.145-.95.586c-.319.2-.635.4-.956.6l-.483.3-.479.313-.486.311c-.162.105-.326.208-.486.317l-.969.643c-.166.1-.324.216-.485.326l-.483.332-.49.33-.481.338-.483.34-.244.168-.24.174-.965.691-.954.708c-.322.233-.633.475-.948.715s-.633.479-.939.725l-.931.734-.916.744-.229.185-.223.189-.45.376-.45.374-.439.38-.439.378c-.147.126-.3.25-.437.38l-.858.763c-.145.126-.282.256-.42.385l-.418.383-.418.383-.4.385-.406.385-.2.189c-.067.063-.137.126-.2.191-.521.515-1.053,1.017-1.547,1.528l-.376.378-.189.187-.181.189q-.363.378-.725.748l-.181.185-.174.187-.347.368-.347.366c-.113.122-.231.24-.34.362q-.33.363-.66.717l-.328.349-.315.351q-.312.344-.624.679l-.156.168-.149.166-.294.328c-.2.219-.393.431-.589.639-.1.1-.189.206-.284.309l-.277.3c-.183.2-.366.4-.549.584l-.137.139-.13.141-.259.275c-.172.179-.343.353-.511.519q-.126.126-.252.246l-.124.12-.122.118c-.317.311-.631.6-.937.845-.151.128-.3.244-.45.355s-.288.214-.429.309a5.193,5.193,0,0,1-.822.458A2.3,2.3,0,0,1,1920.662-180.13Z" fill="#31d9e7"/>
        </g>
        <g id="Grupo_56048" data-name="Grupo 56048">
          <path id="Trazado_101109" data-name="Trazado 101109" d="M1983.946-229.247c-1.789-.212-3.584-.37-5.381-.437a47.469,47.469,0,0,0-5.387.1,36.465,36.465,0,0,0-5.307.815l-.652.166-.326.082c-.107.029-.214.061-.322.092l-.324.092c-.107.032-.214.059-.322.1l-.639.2c-.849.284-1.69.6-2.518.94s-1.642.723-2.446,1.122-1.593.828-2.375,1.274-1.547.914-2.308,1.4-1.507.984-2.253,1.5l-.559.38c-.185.128-.368.259-.553.389l-.553.389c-.185.13-.372.259-.553.393l-1.1.794c-.183.13-.362.269-.542.4l-.542.406c-.179.137-.362.271-.54.408l-.534.414-.534.416-.267.208-.265.21-1.055.847-1.04.864-.261.216c-.086.071-.172.147-.256.219l-.513.441-.513.441c-.172.147-.338.3-.507.45l-.5.45c-.168.151-.338.3-.5.452l-.992.919q-1.967,1.857-3.827,3.821t-3.565,4.063l-.847,1.051-.823,1.067c-.28.355-.538.723-.8,1.087l-.4.544c-.13.183-.256.37-.387.555l-.385.555c-.126.185-.256.368-.378.557l-.742,1.129c-.063.1-.12.191-.181.286l-.177.288-.355.574c-.242.378-.464.771-.691,1.158l-.34.584c-.057.1-.111.2-.164.294l-.164.3-.324.591-.162.3c-.027.05-.055.1-.08.149l-.078.149-.614,1.2-.078.149-.071.153-.145.3-.29.607-.145.3-.074.153-.067.153-.271.618-.273.618-.067.153-.065.156-.126.313-.254.624-.126.313c-.042.1-.086.208-.124.315l-.469,1.263q-.9,2.544-1.574,5.16l-.679-.172q.678-2.645,1.6-5.223l.475-1.28c.038-.107.08-.212.124-.319l.128-.315.256-.633.128-.317.065-.158.069-.156.275-.624.275-.626.069-.156.074-.153.147-.309.292-.616.147-.309.074-.153.078-.151.622-1.217.078-.151c.025-.05.053-.1.08-.149l.164-.3.328-.6.164-.3c.055-.1.109-.2.168-.3l.343-.588c.231-.393.454-.788.7-1.173l.359-.58.179-.29c.061-.1.12-.193.183-.288l.748-1.141c.124-.191.254-.376.385-.563l.389-.561c.13-.187.256-.376.389-.559l.4-.551c.269-.368.532-.74.811-1.1s.553-.721.832-1.08l.855-1.061q1.731-2.109,3.6-4.1t3.859-3.853l1-.925c.164-.156.336-.3.5-.456l.509-.454c.17-.149.338-.3.511-.452l.515-.443.517-.443.259-.223.263-.216,1.049-.87,1.061-.851.265-.214.269-.208.538-.418.538-.416c.181-.139.364-.273.544-.41l.544-.41c.183-.135.361-.273.546-.406l1.1-.8c.183-.135.37-.263.555-.393l.557-.393c.185-.13.37-.263.557-.391l.563-.383q1.119-.772,2.27-1.509t2.337-1.412q1.189-.678,2.411-1.293t2.489-1.141q1.265-.526,2.568-.958l.654-.208c.107-.036.219-.065.328-.1l.33-.1.33-.1.332-.084.666-.168a36.96,36.96,0,0,1,5.414-.832,47.72,47.72,0,0,1,5.467-.1c1.82.067,3.634.227,5.439.441Z" fill="#fff"/>
        </g>
      </g>
      <g id="Grupo_56052" data-name="Grupo 56052">
        <g id="Grupo_56050" data-name="Grupo 56050">
          <path id="Trazado_101110" data-name="Trazado 101110" d="M1922.453-181.89a2.09,2.09,0,0,1-1.541-.246,4.664,4.664,0,0,1-1.646-1.665c-.13-.2-.256-.4-.378-.605s-.244-.4-.366-.618c-.242-.429-.49-.893-.725-1.4-.12-.252-.24-.515-.357-.784s-.233-.551-.351-.841-.233-.584-.347-.891-.223-.62-.336-.942a56.9,56.9,0,0,1-2.249-9.206,68.663,68.663,0,0,1-.866-11.526c.019-2.058.13-4.168.351-6.3a64.655,64.655,0,0,1,.992-6.419,60.835,60.835,0,0,1,1.663-6.316c.332-1.03.687-2.047,1.07-3.041l.141-.374c.048-.124.1-.246.149-.37l.3-.731.149-.364c.05-.122.1-.244.151-.362l.313-.708.313-.7c.1-.233.214-.458.322-.685l.326-.679.162-.336.166-.328c.223-.437.443-.87.666-1.295l.677-1.24c.111-.206.225-.4.34-.6l.34-.589.34-.578.343-.559.338-.551c.114-.183.225-.364.34-.536l.673-1.032c.109-.17.223-.334.332-.5l.332-.479c.219-.317.433-.631.649-.925l.635-.866.153-.21.156-.2.3-.4.591-.759c.2-.24.385-.473.57-.7s.364-.439.538-.645.347-.4.511-.582a38.7,38.7,0,0,1,4.1-3.989,37.626,37.626,0,0,1,4.756-3.413,30.8,30.8,0,0,1,2.737-1.459c.24-.109.477-.217.713-.322s.486-.2.725-.3.49-.189.734-.277l.366-.13.183-.063.187-.061a22.171,22.171,0,0,1,2.966-.75c.244-.04.486-.078.723-.114s.469-.053.7-.076.454-.034.675-.044l.33-.015h.322c.212,0,.422,0,.628.008s.406.023.6.038.389.034.578.057.376.048.555.078c.359.063.712.128,1.042.214.166.042.328.084.49.13s.313.1.464.147a10.526,10.526,0,0,1,3.056,1.6c.1.078.206.16.307.242s.2.166.288.25c.189.17.368.343.536.521a8.571,8.571,0,0,1,.891,1.127,7.514,7.514,0,0,1,1.166,5.311,9.106,9.106,0,0,1-.313,1.393c-.066.231-.144.463-.233.694-.042.116-.086.231-.135.347s-.092.231-.143.347a26.053,26.053,0,0,1-1.421,2.715c-.065.111-.13.221-.2.33s-.128.221-.191.33c-.135.216-.252.437-.38.649-.063.107-.12.214-.181.319s-.122.21-.177.317-.114.208-.17.311l-.156.307c-.025.05-.053.1-.076.151l-.069.151c-.046.1-.1.2-.135.3l-.124.288-.1.282-.2.555c-.034.1-.067.185-.1.275s-.071.191-.107.284l-.116.284c-.04.1-.08.185-.122.286s-.086.2-.132.292-.092.2-.141.3c-.2.4-.42.824-.681,1.272a30.106,30.106,0,0,1-2.045,3.047q-1.314,1.724-2.785,3.382l-.8.885c-.143.158-.292.319-.446.486s-.3.338-.467.515l-.246.265-.124.137-.124.139q-.249.277-.515.567c-.177.193-.349.391-.532.593l-.273.3c-.092.1-.187.206-.277.313-.183.21-.37.425-.563.641-.1.109-.191.219-.286.33l-.286.336-.294.343-.29.347-.294.355c-.1.118-.2.235-.3.357-.2.242-.393.488-.595.734l-.593.759-.151.191-.145.193-.3.393q-.15.2-.3.4l-.292.4-.3.406c-.05.067-.1.137-.145.2l-.143.208-.29.416c-.048.069-.1.139-.147.21l-.141.214q-.576.851-1.139,1.763c-.75,1.217-1.482,2.512-2.182,3.872s-1.366,2.785-1.995,4.254-1.221,2.982-1.774,4.515c-1.106,3.062-2.058,6.2-2.9,9.176s-1.593,5.795-2.325,8.231c-.09.3-.181.6-.273.893s-.181.578-.273.858-.185.551-.273.815-.183.523-.275.773c-.187.5-.368.971-.557,1.408-.1.216-.189.429-.286.62s-.191.362-.286.523-.189.3-.284.439-.183.284-.271.416c-.179.267-.349.511-.521.723A2.267,2.267,0,0,1,1922.453-181.89Z" fill="#95f7ff"/>
        </g>
        <g id="Grupo_56051" data-name="Grupo 56051">
          <path id="Trazado_101111" data-name="Trazado 101111" d="M1959.314-255.243c-1.829.4-3.649.807-5.412,1.377a24.36,24.36,0,0,0-2.581.994,20.2,20.2,0,0,0-2.419,1.326,30.782,30.782,0,0,0-4.344,3.449c-.681.635-1.343,1.29-2,1.955l-.975,1c-.322.336-.641.677-.961,1.017a81.431,81.431,0,0,0-7.085,8.649,59.5,59.5,0,0,0-5.582,9.66,61.414,61.414,0,0,0-3.64,10.549,77.993,77.993,0,0,0-1.879,11.018,104.145,104.145,0,0,0-.49,11.184q.023,2.8.164,5.6c.027.467.048.933.078,1.4l.088,1.4c.017.233.034.462.057.689s.053.452.09.677a5.909,5.909,0,0,0,.368,1.316l-.675.181a6.25,6.25,0,0,1-.383-1.387c-.04-.235-.071-.475-.1-.715s-.042-.475-.059-.71l-.09-1.406c-.027-.469-.05-.937-.076-1.406q-.141-2.812-.166-5.631a105.289,105.289,0,0,1,.492-11.259,78.8,78.8,0,0,1,1.9-11.118,62.039,62.039,0,0,1,3.689-10.668,60.432,60.432,0,0,1,5.645-9.771,82.634,82.634,0,0,1,7.146-8.725c.324-.343.643-.685.969-1.026l.982-1.011c.66-.668,1.33-1.33,2.02-1.974a31.271,31.271,0,0,1,4.445-3.527,20.8,20.8,0,0,1,2.5-1.375,24.809,24.809,0,0,1,2.659-1.024c1.8-.582,3.647-.994,5.475-1.394Z" fill="#fff"/>
        </g>
      </g>
      <g id="Grupo_56055" data-name="Grupo 56055">
        <g id="Grupo_56053" data-name="Grupo 56053">
          <path id="Trazado_101112" data-name="Trazado 101112" d="M1920.806-180.7c-.683.626-2.1.45-4.052-.488a23.181,23.181,0,0,1-3.3-1.984,39.74,39.74,0,0,1-3.882-3.161c-.343-.313-.685-.643-1.034-.984s-.7-.7-1.051-1.066c-.7-.74-1.419-1.534-2.131-2.4s-1.425-1.791-2.125-2.8a36.433,36.433,0,0,1-2.039-3.279,30.455,30.455,0,0,1-1.818-3.939l-.053-.135-.046-.128-.092-.252-.183-.511c-.063-.172-.12-.343-.174-.515l-.17-.519q-.33-1.044-.607-2.114a43.887,43.887,0,0,1-.883-4.351c-.223-1.467-.374-2.945-.467-4.418a66.637,66.637,0,0,1,.071-8.7c.2-2.833.534-5.576.916-8.195.189-1.312.393-2.594.6-3.836l.586-3.588c.378-2.318.715-4.489.967-6.5s.425-3.842.507-5.5c.042-.828.057-1.608.057-2.343,0-.37-.006-.723-.013-1.07l-.019-.509v-.126l-.006-.122-.013-.244-.013-.24-.017-.235c-.013-.153-.021-.309-.034-.458l-.04-.441-.011-.109-.011-.105-.023-.21c-.027-.282-.067-.546-.1-.807-.017-.128-.038-.254-.055-.378s-.034-.248-.057-.366l-.059-.351-.013-.086-.017-.082-.029-.162c-.021-.107-.038-.212-.059-.315s-.044-.206-.063-.307l-.029-.149-.034-.147c-.021-.1-.042-.191-.061-.286-.042-.187-.086-.368-.122-.54-.324-1.385-.694-2.751-1.1-4.092s-.843-2.657-1.3-3.941q-.344-.965-.7-1.906c-.238-.626-.481-1.242-.723-1.854s-.488-1.213-.729-1.808l-.364-.887c-.029-.074-.061-.147-.09-.219l-.092-.219c-.061-.145-.116-.29-.187-.441-.259-.6-.578-1.236-.921-1.9l-.061-.124c-.019-.04-.042-.084-.065-.126l-.128-.254-.126-.252-.13-.259-.126-.256-.124-.259c-.086-.174-.17-.349-.248-.521a22.19,22.19,0,0,1-.864-2.108c-.032-.086-.061-.174-.088-.261l-.082-.259c-.055-.177-.1-.349-.149-.519-.023-.086-.044-.17-.065-.254s-.042-.172-.061-.256c-.038-.17-.069-.338-.1-.5-.015-.082-.027-.162-.04-.244s-.023-.166-.034-.248c-.021-.162-.036-.322-.046-.479s-.019-.307-.021-.462,0-.3.008-.452.019-.29.034-.429.036-.282.061-.416a5.784,5.784,0,0,1,.2-.769,3.78,3.78,0,0,1,.137-.355c.051-.113.1-.229.158-.336a4.642,4.642,0,0,1,.38-.607,4.784,4.784,0,0,1,.982-.982,8.25,8.25,0,0,1,2.51-1.213c.229-.071.46-.139.691-.2l.349-.088c.12-.029.238-.059.357-.086s.24-.053.359-.078l.364-.074.37-.069.185-.032.191-.029.383-.057.193-.025.2-.023c.132-.015.267-.027.4-.04.065-.006.135-.013.2-.017l.208-.015a14.685,14.685,0,0,1,1.78-.006c.162.011.324.021.488.036h.063l.063.006.128.015.259.032c.088.011.172.021.263.034l.273.042.275.048c.046.008.09.015.139.025l.145.029a15.9,15.9,0,0,1,2.541.731c.229.082.471.185.712.286l.364.156c.122.053.244.105.364.164.244.111.488.229.734.349.124.059.246.124.368.187l.37.193a28.68,28.68,0,0,1,2.968,1.831,31.923,31.923,0,0,1,2.93,2.331,34.016,34.016,0,0,1,2.8,2.833,35.773,35.773,0,0,1,4.851,7.094,37.239,37.239,0,0,1,3.243,8.758c.088.4.181.8.267,1.234l.122.658.063.338.057.347.109.71c.038.242.067.488.1.738l.048.376.023.191.019.189.078.771c.025.261.044.523.063.79s.038.536.053.807c.023.542.053,1.1.059,1.665l.006.425v.428l-.006.866c0,.29-.017.58-.025.876l-.015.443-.025.443-.023.448-.013.225-.017.225-.071.9c-.055.6-.113,1.215-.189,1.824-.149,1.223-.334,2.461-.561,3.7-.454,2.474-1.055,4.952-1.749,7.39s-1.482,4.832-2.293,7.169c-.406,1.169-.818,2.322-1.225,3.462s-.8,2.232-1.194,3.329c-.778,2.192-1.507,4.334-2.135,6.415s-1.156,4.1-1.541,6.038a38.224,38.224,0,0,0-.717,5.6c-.021.45-.032.891-.034,1.333v.656l.017.639a17.575,17.575,0,0,0,.229,2.423c.135.845.322,1.711.538,2.573s.462,1.723.725,2.57.544,1.673.826,2.482c.139.4.284.8.425,1.194s.284.778.427,1.156c.561,1.52,1.106,2.926,1.568,4.2s.855,2.419,1.124,3.413C1921.432-182.729,1921.5-181.331,1920.806-180.7Z" fill="#31d9e7"/>
        </g>
        <g id="Grupo_56054" data-name="Grupo 56054">
          <path id="Trazado_101113" data-name="Trazado 101113" d="M1893.133-289.522l.143.181.071.09.076.086.3.349c.1.113.21.225.315.338.053.055.1.111.16.166l.166.164.164.162.082.082.086.078.34.317c.116.1.235.2.351.307s.235.2.355.3c.237.2.483.4.727.591s.492.385.744.574c.5.378,1.007.752,1.513,1.129s1.013.757,1.511,1.152c.252.193.5.4.742.6l.185.151.181.158.361.311a34.424,34.424,0,0,1,2.728,2.673,36.024,36.024,0,0,1,4.523,6.137,36.374,36.374,0,0,1,1.755,3.39c.069.143.132.29.2.435l.189.439c.122.292.24.589.359.883l.17.448.084.223c.027.074.055.149.082.225l.158.45.08.225.074.227a35.567,35.567,0,0,1,1,3.684l.05.233.046.233.09.469c.017.078.032.158.044.235l.04.235.08.471c.046.315.095.631.134.946l.057.475c.019.158.04.315.055.473a43.056,43.056,0,0,1,.069,7.617,65.849,65.849,0,0,1-1.038,7.529c-.477,2.486-1.059,4.948-1.673,7.4s-1.263,4.887-1.868,7.331-1.166,4.9-1.618,7.365a63.435,63.435,0,0,0-.95,7.459,41.366,41.366,0,0,0,.181,7.489,34.027,34.027,0,0,0,.656,3.682c.019.076.034.151.055.227l.059.225.118.452.132.446c.044.149.086.3.137.446l.145.443.038.111.038.111.08.219c.053.147.1.294.158.439l.168.437.086.219c.027.071.059.143.088.216l.179.431c.059.145.124.288.187.431l.189.429.2.425c.067.141.13.284.2.422l.208.42.1.212.107.208q.855,1.671,1.833,3.277a70.381,70.381,0,0,0,4.262,6.2c1.524,1.995,3.142,3.922,4.832,5.778l-.515.471q-2.559-2.806-4.872-5.824a70.416,70.416,0,0,1-4.3-6.261c-.658-1.085-1.282-2.192-1.86-3.323l-.107-.212-.1-.212-.21-.429c-.071-.143-.137-.288-.2-.431l-.2-.433-.193-.437c-.063-.145-.13-.29-.189-.437l-.183-.441c-.032-.074-.063-.147-.092-.221l-.086-.223-.172-.446c-.055-.149-.107-.3-.162-.45l-.08-.225-.04-.113-.038-.114-.149-.454c-.05-.151-.1-.3-.141-.458l-.137-.46-.122-.465-.061-.231c-.019-.078-.036-.156-.055-.233a34.439,34.439,0,0,1-.668-3.76,41.88,41.88,0,0,1-.185-7.617,64.177,64.177,0,0,1,.958-7.541c.456-2.491,1.021-4.956,1.629-7.407s1.257-4.889,1.868-7.333,1.19-4.891,1.665-7.358a64.885,64.885,0,0,0,1.028-7.449,42.239,42.239,0,0,0-.067-7.493c-.015-.156-.036-.309-.053-.464l-.057-.465c-.04-.309-.088-.618-.132-.927l-.078-.46-.04-.231c-.013-.078-.025-.153-.042-.231l-.09-.458-.044-.229-.05-.229a34.981,34.981,0,0,0-.984-3.611l-.074-.223-.078-.221-.156-.441c-.025-.074-.05-.147-.08-.221l-.082-.219-.166-.437c-.118-.29-.231-.58-.353-.868l-.185-.429c-.063-.145-.124-.288-.191-.429a35.811,35.811,0,0,0-1.721-3.325,35.3,35.3,0,0,0-4.437-6.017,33.873,33.873,0,0,0-2.671-2.621q-.7-.615-1.442-1.2c-.49-.387-.992-.763-1.5-1.139s-1.017-.749-1.517-1.135c-.254-.189-.5-.387-.755-.58s-.5-.4-.742-.6c-.122-.1-.246-.2-.366-.309s-.242-.21-.359-.317l-.353-.326-.088-.082-.086-.084-.172-.17-.17-.168c-.059-.057-.111-.118-.168-.174-.109-.118-.221-.233-.33-.353l-.317-.366c-.025-.031-.053-.061-.078-.092l-.076-.1-.151-.189Z" fill="#fff"/>
        </g>
      </g>
      <g id="Grupo_56058" data-name="Grupo 56058">
        <g id="Grupo_56056" data-name="Grupo 56056">
          <path id="Trazado_101114" data-name="Trazado 101114" d="M1920.214-180.131A1.96,1.96,0,0,1,1919.2-179a5.227,5.227,0,0,1-.977.408c-.092.029-.191.059-.29.086s-.2.048-.307.069q-.318.066-.67.12a12.138,12.138,0,0,1-1.547.135c-.28.008-.572.011-.872.008-.151,0-.3,0-.462-.008s-.311-.015-.473-.025c-.319-.021-.649-.046-.99-.08-.17-.015-.343-.032-.519-.05l-.528-.074c-.355-.053-.721-.109-1.1-.172l-.284-.048-.284-.057-.576-.12-.588-.13-.3-.067-.151-.034-.149-.04c-.4-.1-.809-.212-1.225-.328l-.313-.088c-.107-.029-.212-.059-.315-.092l-.633-.2L1905-180c-.216-.071-.437-.141-.652-.221-.433-.158-.874-.319-1.32-.49-.111-.042-.225-.082-.336-.126l-.332-.137-.675-.28-.681-.288c-.227-.1-.452-.2-.681-.307l-.687-.317-.347-.162-.172-.082-.172-.084q-.687-.344-1.387-.7l-.177-.09-.172-.092-.347-.189-.7-.383-.353-.193-.174-.1-.174-.1-.7-.41-.7-.418c-.12-.069-.235-.141-.351-.214l-.348-.222-.7-.443-.351-.225c-.118-.074-.231-.153-.347-.229-.462-.311-.927-.624-1.393-.944s-.918-.656-1.381-.99c-.233-.166-.458-.34-.685-.513l-.685-.519a78.762,78.762,0,0,1-10.246-9.5c-1.568-1.732-3.052-3.518-4.439-5.332l-.513-.681-.256-.34c-.084-.113-.17-.227-.252-.343l-.982-1.372c-.319-.46-.631-.923-.942-1.381l-.231-.343-.225-.347-.443-.691-.221-.343c-.074-.116-.149-.231-.214-.336l-.4-.645-.4-.637-.38-.624L1867.3-213l-.359-.6-.355-.6-.343-.578-.662-1.127-.626-1.078-1.156-2-3.407-5.883q-.6-1.056-1.137-2.047c-.09-.164-.179-.328-.265-.492l-.128-.246-.128-.237c-.084-.158-.168-.317-.25-.475l-.12-.24-.118-.227q-.921-1.806-1.7-3.478c-1.04-2.228-1.883-4.269-2.606-6.244l-.265-.738-.13-.366c-.042-.122-.084-.244-.126-.368l-.124-.362-.12-.366c-.04-.12-.08-.242-.118-.362l-.116-.364c-.3-.963-.58-1.925-.8-2.877-.055-.24-.107-.473-.153-.712s-.088-.477-.126-.713-.069-.471-.1-.706c-.013-.12-.023-.238-.034-.355s-.017-.233-.023-.351a8.3,8.3,0,0,1,.271-2.758,5.93,5.93,0,0,1,1.36-2.428c.082-.091.169-.179.259-.265s.181-.168.277-.248a6.493,6.493,0,0,1,.618-.467,7.05,7.05,0,0,1,.7-.416c.246-.126.509-.25.782-.359a11.469,11.469,0,0,1,3.893-.746c.187-.006.372-.006.563,0s.383.006.578.015.391.023.591.04.4.034.6.059.408.055.614.084c.1.017.21.032.313.05l.313.057c.21.04.422.084.637.13s.425.1.641.156l.326.084.326.092c.216.063.437.13.658.2.435.143.885.3,1.326.475s.889.366,1.339.57.9.427,1.341.664a30.164,30.164,0,0,1,5.238,3.548,35.046,35.046,0,0,1,4.729,4.815c.09.111.183.225.269.336l.261.334c.172.223.343.448.515.677l.254.343.244.343c.164.231.326.462.486.7q.958,1.4,1.789,2.865c.071.122.145.246.214.372l.21.387q.214.395.441.82c.076.143.147.284.223.429l.223.443.231.456.116.233.114.235.462.969.118.25.116.25.233.511.235.521.233.528.235.536c.08.181.16.366.235.546l.471,1.11.469,1.131.471,1.15.469,1.166.942,2.358.238.6.237.591.238.593.229.561.227.559.113.284.122.282.486,1.139.515,1.156c.042.1.088.193.132.29l.137.29.271.584c.738,1.562,1.539,3.146,2.4,4.731a95.634,95.634,0,0,0,5.75,9.288l.391.555c.13.183.259.372.393.551l.792,1.085.8,1.061c.067.088.132.179.2.265l.2.259.406.517.2.259c.067.086.132.172.2.254l.41.5.406.5.1.126.1.122.206.244.41.488.2.242.1.122.1.118q.414.47.815.939l.1.118.1.114.206.227.406.452c.134.149.267.3.4.45l.406.435.4.433.2.216c.067.071.135.139.2.208q.4.415.788.828c.13.139.263.269.391.4l.387.4.383.391c.061.067.126.13.189.191l.189.187q.378.372.742.742l.092.092.09.088.183.177.359.351.351.347.174.174.172.164c.231.221.456.437.675.654l.324.324.322.3q.315.3.612.6c.1.1.193.2.29.294s.193.189.286.282c.187.185.366.37.538.553.34.37.662.7.944,1.032.141.166.275.33.4.49.061.08.122.16.179.237s.114.151.168.225a5.661,5.661,0,0,1,.517.866A2.146,2.146,0,0,1,1920.214-180.131Z" fill="#95f7ff"/>
        </g>
        <g id="Grupo_56057" data-name="Grupo 56057">
          <path id="Trazado_101115" data-name="Trazado 101115" d="M1852.289-250.213a24.244,24.244,0,0,1,2.982,1.108c.122.053.242.109.361.166l.359.17c.24.116.475.238.71.357s.469.25.7.38l.345.2.172.1.17.1a31.7,31.7,0,0,1,5.061,3.813,40.865,40.865,0,0,1,4.3,4.639q.984,1.236,1.883,2.537l.225.326c.076.109.147.219.221.328l.435.658c.147.219.286.441.427.664l.42.666c1.11,1.789,2.127,3.628,3.1,5.484s1.9,3.737,2.829,5.614,1.843,3.756,2.8,5.612c.24.462.475.929.725,1.387l.37.687.185.345.191.34.385.679c.128.227.254.456.389.679.267.448.53.9.8,1.343q1.62,2.673,3.443,5.215t3.817,4.95l.5.6c.168.2.332.4.507.6l1.032,1.173,1.055,1.154c.086.1.179.189.267.284l.271.282.54.565q2.175,2.238,4.527,4.3c1.568,1.37,3.191,2.678,4.874,3.9a61.9,61.9,0,0,0,5.227,3.407,50.534,50.534,0,0,0,11.413,4.939l-.193.673a51.349,51.349,0,0,1-11.57-5.006,62.928,62.928,0,0,1-5.286-3.447c-1.7-1.236-3.342-2.556-4.924-3.941s-3.1-2.833-4.569-4.34l-.544-.57-.273-.286c-.09-.1-.183-.189-.271-.286l-1.064-1.162-1.042-1.186c-.174-.2-.34-.4-.511-.6l-.507-.6q-2.015-2.424-3.848-4.99t-3.472-5.259c-.271-.45-.536-.9-.8-1.356-.137-.225-.261-.454-.391-.683l-.389-.685-.193-.345-.185-.347-.374-.694c-.252-.462-.488-.929-.729-1.394-.963-1.864-1.881-3.747-2.806-5.624s-1.85-3.75-2.821-5.6-1.98-3.672-3.077-5.442l-.416-.66c-.139-.219-.275-.441-.422-.656l-.431-.649c-.071-.109-.143-.216-.216-.324l-.221-.322q-.888-1.281-1.858-2.5a40.237,40.237,0,0,0-4.227-4.557,30.823,30.823,0,0,0-4.948-3.729l-.166-.1-.168-.1-.336-.193c-.225-.126-.454-.246-.679-.37s-.46-.235-.691-.347l-.351-.166c-.116-.055-.233-.111-.351-.162a23.577,23.577,0,0,0-2.9-1.076Z" fill="#fff"/>
        </g>
      </g>
      <g id="Grupo_56061" data-name="Grupo 56061">
        <g id="Grupo_56059" data-name="Grupo 56059">
          <path id="Trazado_101116" data-name="Trazado 101116" d="M1920.661-180.131a1.886,1.886,0,0,1-.614-.914,3.2,3.2,0,0,1-.088-1.429,5.133,5.133,0,0,1,.214-.881,6.787,6.787,0,0,1,.427-.967,13.542,13.542,0,0,1,1.318-1.974c.5-.643,1.036-1.261,1.494-1.845.231-.292.441-.576.62-.849l.126-.2.059-.1.015-.023.006-.013.015-.017.059-.067c.153-.183.313-.364.475-.549a36.461,36.461,0,0,1,4.563-4.309,44.385,44.385,0,0,1,5.561-3.766c.244-.143.49-.275.736-.41l.736-.4.742-.378.368-.185.185-.092.187-.086.74-.347.368-.17.368-.16c.492-.212.977-.422,1.461-.61a43.658,43.658,0,0,1,5.416-1.763l.6-.147.292-.071.288-.061c.378-.08.742-.153,1.087-.221s.675-.111.982-.158c.156-.023.3-.044.448-.063s.282-.032.414-.046a16.73,16.73,0,0,1,6.036.46c.229.063.456.13.679.2s.441.149.658.231a13.314,13.314,0,0,1,1.24.534,12.566,12.566,0,0,1,1.135.631,12.257,12.257,0,0,1,1.017.717c.16.124.313.254.462.387s.294.267.431.406a8.732,8.732,0,0,1,1.391,1.759,7.438,7.438,0,0,1,.49.946,7.425,7.425,0,0,1,.534,4.044,9.108,9.108,0,0,1-1.5,3.773c-.187.28-.391.555-.6.82s-.437.521-.673.767-.481.486-.736.715c-.128.113-.256.227-.389.334l-.4.324c-.271.212-.549.414-.834.6s-.578.378-.876.546-.6.338-.914.488c-.156.076-.313.145-.471.216s-.317.143-.479.208a14.972,14.972,0,0,1-4.119,1.024l-.595.053c-.214.017-.441.029-.685.042s-.5.034-.765.044l-.2.011-.208.013-.431.023c-1.171.061-2.531.135-4.01.256-.37.025-.746.065-1.131.1l-.29.025-.29.032-.591.061-.147.015-.149.019-.3.036-.6.069-.61.08c-.2.027-.412.048-.616.08-1.648.229-3.346.515-5.021.839s-3.323.7-4.885,1.055l-.582.132-.074.015h-.017l-.025.008-.05.017-.2.069c-.135.044-.263.082-.391.122a13.993,13.993,0,0,1-1.419.336,14.791,14.791,0,0,1-2.232.229c-.631.017-1.164,0-1.656-.032-.244-.013-.473-.032-.71-.038l-.686-.023A3.683,3.683,0,0,1,1920.661-180.131Z" fill="#a271dc"/>
        </g>
        <g id="Grupo_56060" data-name="Grupo 56060">
          <path id="Trazado_101117" data-name="Trazado 101117" d="M1964.268-192.847a52.624,52.624,0,0,0-11.652-.345,53.164,53.164,0,0,0-5.784.778c-.958.177-1.908.391-2.854.618l-.708.181c-.235.063-.471.118-.7.187-.469.135-.94.259-1.4.406l-.7.214-.694.229c-.462.147-.921.315-1.379.477-.231.08-.456.17-.685.256l-.681.259-.677.275c-.225.092-.452.181-.675.28a54.071,54.071,0,0,0-5.238,2.577c-.845.483-1.684.975-2.5,1.5l-.616.4c-.208.135-.418.265-.631.393-.425.254-.855.492-1.286.727a27.089,27.089,0,0,0-2.5,1.48,9.122,9.122,0,0,0-1.11.9c-.172.164-.334.338-.492.517a6.326,6.326,0,0,0-.435.565l-.41-.326c.145-.2.3-.406.46-.6a6.976,6.976,0,0,1,.517-.544,9.934,9.934,0,0,1,1.169-.948,27.748,27.748,0,0,1,2.547-1.509q.643-.35,1.269-.717c.206-.126.412-.252.612-.385l.62-.4c.826-.534,1.675-1.032,2.528-1.52a54.206,54.206,0,0,1,5.29-2.6c.223-.1.452-.191.679-.284l.683-.277.689-.263c.229-.086.458-.177.691-.256.462-.164.925-.334,1.391-.483l.7-.231.706-.216c.469-.147.944-.273,1.417-.41.235-.069.475-.126.712-.189l.713-.183c.956-.227,1.915-.446,2.882-.622a53.478,53.478,0,0,1,5.843-.786,53.349,53.349,0,0,1,11.766.349Z" fill="#fff"/>
        </g>
      </g>
    </g>
  </g>
</svg>
