<svg xmlns="http://www.w3.org/2000/svg" width="426.823" height="433.781" viewBox="0 0 426.823 433.781">
  <g id="Grupo_58581" data-name="Grupo 58581" transform="translate(-267 -4705.755)">
    <ellipse id="Floor" cx="213.047" cy="130.376" rx="213.047" ry="130.376" transform="translate(267.728 4878.783)" fill="#f5f5f5"/>
    <path id="Shadow" d="M365.158,401.421a6.43,6.43,0,0,1-3.183-.8l-37.664-21.747a3.9,3.9,0,0,1,0-6.972l62.369-36.008a6.712,6.712,0,0,1,6.367,0l37.663,21.746a3.9,3.9,0,0,1,0,6.972l-62.368,36.008A6.417,6.417,0,0,1,365.158,401.421Z" transform="translate(223.42 4661.838)" fill="#e0e0e0"/>
    <path id="Shadow-2" data-name="Shadow" d="M281.695,451.666a60.907,60.907,0,0,1-14.109-1.6,51.926,51.926,0,0,1-12.456-4.6l-.093-.051c-.754-.423-1.73-1.009-2.981-1.789q-1.764-1.1-3.624-2.322t-3.5-2.347c-1.136-.776-2.009-1.4-2.656-1.905a25.389,25.389,0,0,1-7.245-8.59,16.954,16.954,0,0,1-1.528-11,22.673,22.673,0,0,1,5.723-10.656c2.934-3.282,7.041-6.3,12.556-9.223a82.576,82.576,0,0,1,17.6-7.074,65.687,65.687,0,0,1,15.968-2.263l.474,0a51.745,51.745,0,0,1,13.851,1.805,59.468,59.468,0,0,1,12.247,4.888q2.248,1.245,4.831,2.94c1.746,1.145,3.209,2.172,4.466,3.138a14.658,14.658,0,0,1,4.9,5.74,10.82,10.82,0,0,1,.851,6.064c.139-.009.279-.015.42-.019l.263,0a7.887,7.887,0,0,1,4.755,1.52,5.726,5.726,0,0,1,2.387,5.6,33.689,33.689,0,0,1-1.162,4.859,19.762,19.762,0,0,1-3.461,6.223,37.847,37.847,0,0,1-6.311,6.078A75.746,75.746,0,0,1,297.562,449.7a67.843,67.843,0,0,1-15.542,1.968Zm-3.338-32.253q.255.186.578.4a11.472,11.472,0,0,0,4.961,1.936,7.988,7.988,0,0,0,.875.051,6.117,6.117,0,0,0,2.039-.336q-.234-.166-.518-.353a11.98,11.98,0,0,0-5.019-1.988,7.138,7.138,0,0,0-.869-.055A6.127,6.127,0,0,0,278.356,419.413Z" transform="translate(227.723 4659.269)" fill="#e0e0e0"/>
    <path id="Shadow-3" data-name="Shadow" d="M160.508,425.447l-122.5-70.564c-2.584-1.492-2.584-3.911,0-5.4L286.62,206a10.34,10.34,0,0,1,9.358,0l122.5,70.566c2.585,1.491,2.585,3.91,0,5.4L169.865,425.447A10.34,10.34,0,0,1,160.508,425.447Z" transform="translate(237.254 4668.135)" fill="#e0e0e0"/>
    <g id="Clouds" transform="translate(305.078 4705.755)">
      <g id="Grupo_58536" data-name="Grupo 58536" transform="translate(47.891 25.371)">
        <path id="Trazado_103599" data-name="Trazado 103599" d="M156.345,59.187l-6.235,3.6a7.4,7.4,0,0,0,.052-.825V60.155c0-3.214-2.256-4.516-5.04-2.91a9.747,9.747,0,0,0-3,2.889c-.456-4.042-3.628-5.547-7.479-3.324A16.67,16.67,0,0,0,127.1,69.871v2.7a7.116,7.116,0,0,0,.639,3.131l-5.179,2.99a6.18,6.18,0,0,0-2.8,4.842c0,1.783,1.252,2.507,2.8,1.615l33.787-19.508a6.179,6.179,0,0,0,2.8-4.843C159.141,59.019,157.89,58.3,156.345,59.187Z" transform="translate(-119.761 -55.782)" fill="#ebebeb"/>
      </g>
      <g id="Grupo_58537" data-name="Grupo 58537" transform="translate(0 0)">
        <path id="Trazado_103600" data-name="Trazado 103600" d="M112.7,41.336l-3.439,1.323V35.082c0-6.006-4.792-7.447-9.993-4.443h0c-5.2,3-9.418,10.307-9.418,16.313v1.1a5.05,5.05,0,0,0-4.371.673h0A14.981,14.981,0,0,0,78.7,60.465v.5l-4.8,2.768a9.866,9.866,0,0,0-4.464,7.731c0,2.846,2,4,4.464,2.577l38.795-22.4a9.864,9.864,0,0,0,4.463-7.73C117.159,41.067,115.161,39.913,112.7,41.336Z" transform="translate(-69.437 -29.121)" fill="#ebebeb"/>
      </g>
    </g>
    <g id="Plants" transform="translate(267 4934.908)">
      <g id="Grupo_58541" data-name="Grupo 58541" transform="translate(14.086 0)">
        <g id="Grupo_58538" data-name="Grupo 58538">
          <path id="Trazado_103601" data-name="Trazado 103601" d="M60.126,330.477l6.477-3.743s3.855-16.019,2.319-30.433c-2.16-20.264-15.5-27.89-20.572-26.142S41.809,277.8,50.2,289.873C55.154,297,61.237,311.827,60.126,330.477Z" transform="translate(-44.226 -269.918)" fill="#bb83ff"/>
        </g>
        <g id="Grupo_58540" data-name="Grupo 58540" transform="translate(6.981 2.969)">
          <path id="Trazado_103603" data-name="Trazado 103603" d="M63.164,322.759c-.021,0-.041,0-.062-.008a.45.45,0,0,1-.358-.525c3.551-18.691-2.979-39.695-11.064-48.435a.449.449,0,1,1,.659-.61c8.233,8.9,14.89,30.246,11.287,49.212A.451.451,0,0,1,63.164,322.759Z" transform="translate(-51.561 -273.037)" fill="#fff"/>
        </g>
      </g>
      <g id="Grupo_58545" data-name="Grupo 58545" transform="translate(0 19.206)">
        <g id="Grupo_58542" data-name="Grupo 58542">
          <path id="Trazado_103604" data-name="Trazado 103604" d="M41.514,344.09c-1.023.521-3.745-1.808-4.5-2.375a9.505,9.505,0,0,1-2.974-3.782,8.91,8.91,0,0,1-.521-5.382,21.164,21.164,0,0,1,.818-2.806q.467-1.357.932-2.717a7,7,0,0,0,.545-2.76c-.147-1.9-1.754-3.3-3.218-4.519-1.62-1.345-3.288-3.1-3.163-5.366a8,8,0,0,1,2.239-4.652c1.155-1.32,2.5-2.47,3.558-3.871a5.576,5.576,0,0,0,1.32-3.469,5.81,5.81,0,0,0-.657-2.243,31.256,31.256,0,0,1-2.189-4.541c-.473-1.616-.3-3.587,1-4.66a5.206,5.206,0,0,1,3.955-.775,8.976,8.976,0,0,1,3.568,1.462c3.5,2.185,5.344,6.558,9.091,8.293a38.434,38.434,0,0,0,4.572,1.365,5.72,5.72,0,0,1,3.686,2.806c1.262,2.874-1.517,6.2-.68,9.224.74,2.678,3.249,3.815,4.566,6.261a5.64,5.64,0,0,1,.5,3.482,16.561,16.561,0,0,1-1.748,5.754,51.858,51.858,0,0,1-3.459,5.319S41.671,344.01,41.514,344.09Z" transform="translate(-29.424 -290.1)" fill="#31d9e7"/>
        </g>
        <g id="Grupo_58543" data-name="Grupo 58543" transform="translate(9.875 3.679)">
          <path id="Trazado_103605" data-name="Trazado 103605" d="M51.93,339.109h-.012a.451.451,0,0,1-.412-.489c1.64-17.778-5.763-37.87-11.579-43.892a.45.45,0,0,1,.647-.624c5.933,6.143,13.49,26.57,11.827,44.6A.45.45,0,0,1,51.93,339.109Z" transform="translate(-39.801 -293.966)" fill="#fff"/>
        </g>
        <g id="Grupo_58544" data-name="Grupo 58544" transform="translate(6.875 23.24)">
          <path id="Trazado_103606" data-name="Trazado 103606" d="M50.012,318.182a.425.425,0,0,1-.131-.027,60.271,60.271,0,0,0-12.823-2.736.45.45,0,0,1-.407-.489.437.437,0,0,1,.489-.406,61.406,61.406,0,0,1,13.049,2.788.449.449,0,0,1-.176.87Z" transform="translate(-36.648 -314.521)" fill="#fff"/>
        </g>
      </g>
    </g>
    <g id="Device" transform="translate(276.819 4864.174)">
      <g id="Mobile" transform="translate(0 0)">
        <path id="Trazado_103607" data-name="Trazado 103607" d="M46.283,349.928l113.9,65.746a12.267,12.267,0,0,0,11.883.223l229.3-132.4c3.612-2.085,6.542-6.75,6.542-10.419s-2.926-8.334-6.539-10.42L287.894,197.147a14.512,14.512,0,0,0-13.082,0L46.283,329.09c-3.612,2.085-6.541,6.75-6.541,10.419S42.67,347.843,46.283,349.928Z" transform="translate(-39.742 -195.59)" fill="#37474f"/>
        <path id="Trazado_103608" data-name="Trazado 103608" d="M160.179,418.934l-113.9-65.746c-3.612-2.086-6.541-6.75-6.541-10.419s2.928-8.334,6.541-10.419l120.1-69.338V420.566A12.11,12.11,0,0,1,160.179,418.934Z" transform="translate(-39.742 -198.85)" fill="#263238"/>
        <path id="Trazado_103609" data-name="Trazado 103609" d="M163.084,403.959a12.8,12.8,0,0,0,11.535,0L401.592,272.918c4.88-2.818,4.88-7.428,0-10.245L288.1,197.147a14.511,14.511,0,0,0-13.081,0L46.489,329.09c-3.6,2.076-3.6,5.476,0,7.552Z" transform="translate(-39.938 -195.59)" fill="#455a64"/>
        <path id="Trazado_103610" data-name="Trazado 103610" d="M175.174,391.381a13.737,13.737,0,0,0,12.431,0l195.3-112.759c3.433-1.981,3.433-5.2,0-7.177L276.143,209.81a13.792,13.792,0,0,0-12.432,0L68.408,322.569c-3.418,1.975-3.418,5.2,0,7.178Z" transform="translate(-41.004 -196.206)" fill="#37474f"/>
        <path id="Trazado_103611" data-name="Trazado 103611" d="M280.695,208.352a12.535,12.535,0,0,1,5.837,1.459L393.3,271.445c3.433,1.982,3.433,5.2,0,7.177l-21.163,12.219-91.44-58.391Z" transform="translate(-51.394 -196.207)" fill="#263238"/>
        <path id="Trazado_103612" data-name="Trazado 103612" d="M263.686,214.714a13.79,13.79,0,0,1,12.431,0l106.766,61.634a6.31,6.31,0,0,1,1.623,1.3,6.494,6.494,0,0,1-1.549,1.209l-195.3,112.759a13.737,13.737,0,0,1-12.431,0L68.456,329.984a6.327,6.327,0,0,1-1.611-1.289,6.276,6.276,0,0,1,1.538-1.223Z" transform="translate(-41.053 -196.443)" fill="#fafafa"/>
        <g id="Grupo_58547" data-name="Grupo 58547" transform="translate(261.922 20.573)">
          <path id="Trazado_103613" data-name="Trazado 103613" d="M357,243.665l-18.922-10.925c-1.129-.652-1.186-1.676-.127-2.287a4.384,4.384,0,0,1,3.962.072l18.922,10.925c1.13.652,1.186,1.676.127,2.287A4.381,4.381,0,0,1,357,243.665Z" transform="translate(-316.048 -217.827)" fill="#263238"/>
          <g id="Grupo_58546" data-name="Grupo 58546">
            <path id="Trazado_103614" data-name="Trazado 103614" d="M323.827,224.54a1.169,1.169,0,0,1,0-2.214,4.236,4.236,0,0,1,3.835,0,1.168,1.168,0,0,1,0,2.214A4.239,4.239,0,0,1,323.827,224.54Z" transform="translate(-315.363 -217.433)" fill="#263238"/>
            <path id="Trazado_103615" data-name="Trazado 103615" d="M315.768,219.88a1.169,1.169,0,0,1,0-2.214,4.24,4.24,0,0,1,3.834,0,1.169,1.169,0,0,1,0,2.214A4.24,4.24,0,0,1,315.768,219.88Z" transform="translate(-314.973 -217.208)" fill="#263238"/>
            <path id="Trazado_103616" data-name="Trazado 103616" d="M380.249,257.11a1.169,1.169,0,0,1,0-2.214,4.241,4.241,0,0,1,3.835,0,1.169,1.169,0,0,1,0,2.214A4.241,4.241,0,0,1,380.249,257.11Z" transform="translate(-318.091 -219.008)" fill="#263238"/>
            <path id="Trazado_103617" data-name="Trazado 103617" d="M372.189,252.45a1.169,1.169,0,0,1,0-2.214,4.236,4.236,0,0,1,3.835,0,1.168,1.168,0,0,1,0,2.214A4.236,4.236,0,0,1,372.189,252.45Z" transform="translate(-317.702 -218.782)" fill="#263238"/>
          </g>
        </g>
      </g>
      <g id="Mail_Notification" data-name="Mail Notification" transform="translate(129.399 136.599)">
        <path id="Trazado_103618" data-name="Trazado 103618" d="M175.716,366.4v.413a2.288,2.288,0,0,0,1.036,1.794l22.216,12.827a2.29,2.29,0,0,0,2.072,0L237.83,360.2a2.289,2.289,0,0,0,1.035-1.794v-.413a2.289,2.289,0,0,0-1.035-1.794L215.613,343.37a2.288,2.288,0,0,0-2.071,0l-36.79,21.241A2.288,2.288,0,0,0,175.716,366.4Z" transform="translate(-175.716 -339.323)" fill="#27debf"/>
        <path id="Trazado_103619" data-name="Trazado 103619" d="M175.716,366.4v.413a2.288,2.288,0,0,0,1.036,1.794l22.216,12.827a2.29,2.29,0,0,0,2.072,0L237.83,360.2a2.289,2.289,0,0,0,1.035-1.794v-.413a2.289,2.289,0,0,0-1.035-1.794L215.613,343.37a2.288,2.288,0,0,0-2.071,0l-36.79,21.241A2.288,2.288,0,0,0,175.716,366.4Z" transform="translate(-175.716 -339.323)" fill="#c7b0e3"/>
        <path id="Trazado_103621" data-name="Trazado 103621" d="M239.064,356.2,216.847,343.37a2.288,2.288,0,0,0-2.071,0l-13.537,7.816v30.5h0a2.126,2.126,0,0,0,1.036-.247l36.79-21.241A2.29,2.29,0,0,0,240.1,358.4v-.413A2.29,2.29,0,0,0,239.064,356.2Z" transform="translate(-176.95 -339.323)" opacity="0.15"/>
        <path id="Trazado_103622" data-name="Trazado 103622" d="M200,351.6l-23.253,13.425a2.289,2.289,0,0,0-1.035,1.794v.413a2.289,2.289,0,0,0,1.035,1.794l22.217,12.827A2.125,2.125,0,0,0,200,382.1h0Z" transform="translate(-175.716 -339.732)" fill="#fff" opacity="0.3"/>
        <path id="Trazado_103623" data-name="Trazado 103623" d="M200,351.6l-23.253,13.425a2.289,2.289,0,0,0-1.035,1.794v.413a2.289,2.289,0,0,0,1.035,1.794l22.217,12.827A2.125,2.125,0,0,0,200,382.1h0Z" transform="translate(-175.716 -339.732)" opacity="0.2"/>
        <path id="Trazado_103624" data-name="Trazado 103624" d="M195.442,376.58l-18.659-10.773a.631.631,0,0,1,0-1.2l36.79-21.241a2.288,2.288,0,0,1,2.071,0L237.861,356.2a.631.631,0,0,1,0,1.2l-6.1,3.523-2.136,1.234-28.55,16.483a2.29,2.29,0,0,1-2.072,0l-1.809-1.045Z" transform="translate(-175.747 -339.323)" fill="#c7b0e3"/>
        <path id="Trazado_103625" data-name="Trazado 103625" d="M195.442,376.58l-18.659-10.773a.631.631,0,0,1,0-1.2l36.79-21.241a2.288,2.288,0,0,1,2.071,0L237.861,356.2a.631.631,0,0,1,0,1.2l-6.1,3.523-2.136,1.234-28.55,16.483a2.29,2.29,0,0,1-2.072,0l-1.809-1.045Z" transform="translate(-175.747 -339.323)" fill="#fff" opacity="0.3"/>
        <path id="Trazado_103626" data-name="Trazado 103626" d="M212.382,358.684l25.479-2.486-25.255,1.429,3.038-14.257a2.151,2.151,0,0,0-1.129-.237L209.751,362.4l-33.388,2.754a.692.692,0,0,0,.42.649l26.965-1.565-3.711,14.64,4.746-14.7h0l4.605-.267a2.49,2.49,0,0,0,1.52-.635h0v0a2.494,2.494,0,0,0,.777-1.336Z" transform="translate(-175.747 -339.323)" opacity="0.15"/>
        <path id="Trazado_103627" data-name="Trazado 103627" d="M184.329,364.5l25.422-2.1.91-3.643.5-2.027,3.355-13.6a2.08,2.08,0,0,0-.946.238l-18.4,10.62-18.394,10.62a.749.749,0,0,0-.421.547l5.1-.421Z" transform="translate(-175.747 -339.323)" fill="#fff" opacity="0.3"/>
        <path id="Trazado_103628" data-name="Trazado 103628" d="M212.042,340.136a9.3,9.3,0,0,1,8.414,0c2.323,1.341,2.323,3.516,0,4.858a9.3,9.3,0,0,1-8.414,0C209.719,343.652,209.719,341.477,212.042,340.136Z" transform="translate(-177.388 -339.13)" fill="#f17781"/>
        <g id="Grupo_58548" data-name="Grupo 58548" transform="translate(35.697 1.718)">
          <path id="Trazado_103629" data-name="Trazado 103629" d="M213.453,343.451a.305.305,0,0,1-.175-.06.117.117,0,0,1-.048-.118l.348-1.529c.01-.037.022-.083.039-.135a.258.258,0,0,1,.128-.139l.852-.491a.428.428,0,0,1,.377,0l4.505,2.6a.115.115,0,0,1,0,.217l-.914.527a.364.364,0,0,1-.188.045.37.37,0,0,1-.188-.045l-3.048-1.76-.2.841a.15.15,0,0,1-.1.1.409.409,0,0,1-.2.03Z" transform="translate(-213.227 -340.935)" fill="#fafafa"/>
        </g>
      </g>
      <g id="Notification" transform="translate(181.36 79.228)">
        <path id="Trazado_103630" data-name="Trazado 103630" d="M255.741,347.086l-25-14.433a.628.628,0,0,1,0-1.19l90.711-52.375a2.278,2.278,0,0,1,2.06,0l25,14.434a.628.628,0,0,1,0,1.19L257.8,347.086A2.278,2.278,0,0,1,255.741,347.086Z" transform="translate(-230.317 -278.843)" fill="#47286d"/>
        <g id="Grupo_58549" data-name="Grupo 58549" transform="translate(12.12 30.399)">
          <path id="Trazado_103631" data-name="Trazado 103631" d="M251.552,333.246a.513.513,0,0,1-.263.073c-.088,0-.156,0-.2,0l-5.2-.586,3.076,1.776a.124.124,0,0,1,0,.233l-.605.349a.411.411,0,0,1-.2.049.4.4,0,0,1-.2-.049l-4.824-2.785a.123.123,0,0,1,0-.232l.522-.3a.522.522,0,0,1,.261-.074c.09,0,.157,0,.2,0l5.2.586-3.078-1.777a.123.123,0,0,1,0-.232l.606-.349a.391.391,0,0,1,.2-.048.4.4,0,0,1,.2.048l4.824,2.785a.123.123,0,0,1,0,.232Z" transform="translate(-243.053 -311.71)" fill="#fafafa"/>
          <path id="Trazado_103632" data-name="Trazado 103632" d="M251.606,331.116a2.51,2.51,0,0,1-.661-.527,1.1,1.1,0,0,1-.276-.583.874.874,0,0,1,.15-.581,1.7,1.7,0,0,1,.6-.529,3.168,3.168,0,0,1,.911-.349,4.188,4.188,0,0,1,1.963.039,3.452,3.452,0,0,1,.859.345l.337.193a.124.124,0,0,1,0,.234L253,330.8a1.1,1.1,0,0,0,.373.134,1.65,1.65,0,0,0,.412.017,1.867,1.867,0,0,0,.41-.082,1.9,1.9,0,0,0,.364-.159,1.405,1.405,0,0,0,.341-.252.5.5,0,0,0,.123-.214.422.422,0,0,1,.052-.125.364.364,0,0,1,.12-.1l.6-.344a.406.406,0,0,1,.2-.049.327.327,0,0,1,.2.049.416.416,0,0,1,.153.222.623.623,0,0,1,0,.373,1.3,1.3,0,0,1-.266.463,2.268,2.268,0,0,1-.623.489,3.3,3.3,0,0,1-.9.354,3.8,3.8,0,0,1-.993.094,4.164,4.164,0,0,1-1-.157A4.065,4.065,0,0,1,251.606,331.116Zm.71-1.7a.971.971,0,0,0-.306.25.439.439,0,0,0-.093.244.367.367,0,0,0,.064.222.689.689,0,0,0,.163.177l1.688-.974a2.313,2.313,0,0,0-.29-.1,1.41,1.41,0,0,0-.359-.052,1.624,1.624,0,0,0-.411.048A1.7,1.7,0,0,0,252.316,329.413Z" transform="translate(-243.421 -311.641)" fill="#fafafa"/>
          <path id="Trazado_103633" data-name="Trazado 103633" d="M260.3,326.414l-1.462-1.622a.323.323,0,0,1-.056-.106c-.013-.039.015-.079.086-.119l.566-.327a.462.462,0,0,1,.4,0,.146.146,0,0,1,.044.034l2.316,2.639a.264.264,0,0,1,.06.112c.009.04-.02.08-.09.121l-.567.327a.344.344,0,0,1-.206.05,1.983,1.983,0,0,1-.2-.033l-2.718-.733,1.269,1.569a.427.427,0,0,1,.057.114c.012.038-.017.078-.087.118l-.567.328a.359.359,0,0,1-.208.052,1.07,1.07,0,0,1-.194-.035l-4.572-1.337a.236.236,0,0,1-.059-.025.124.124,0,0,1,0-.233l.568-.328a.334.334,0,0,1,.206-.049,1.094,1.094,0,0,1,.184.032l2.807.844-1.419-1.646a.154.154,0,0,1-.048-.11.125.125,0,0,1,.077-.114l.567-.327a.387.387,0,0,1,.2-.046.65.65,0,0,1,.19.029Z" transform="translate(-243.584 -311.435)" fill="#fafafa"/>
          <path id="Trazado_103634" data-name="Trazado 103634" d="M264.121,323.89a2.511,2.511,0,0,1-.659-.528,1.087,1.087,0,0,1-.276-.582.878.878,0,0,1,.149-.582,1.7,1.7,0,0,1,.6-.528,3.209,3.209,0,0,1,.911-.35,4.2,4.2,0,0,1,.991-.1,4.3,4.3,0,0,1,.974.135,3.439,3.439,0,0,1,.858.346l.336.194a.123.123,0,0,1,0,.232l-2.494,1.44a1.084,1.084,0,0,0,.374.133,1.594,1.594,0,0,0,.41.018,1.841,1.841,0,0,0,.411-.082,1.914,1.914,0,0,0,.365-.16,1.378,1.378,0,0,0,.34-.252.485.485,0,0,0,.123-.213.378.378,0,0,1,.053-.125.358.358,0,0,1,.119-.1l.6-.345a.422.422,0,0,1,.2-.049.349.349,0,0,1,.2.049.437.437,0,0,1,.152.223.623.623,0,0,1,0,.373,1.318,1.318,0,0,1-.265.463,2.326,2.326,0,0,1-.624.489,3.251,3.251,0,0,1-.9.353,3.808,3.808,0,0,1-.994.1,4.238,4.238,0,0,1-1.951-.556Zm.711-1.7a.938.938,0,0,0-.305.249.436.436,0,0,0-.094.244.377.377,0,0,0,.065.222.688.688,0,0,0,.163.177l1.687-.974a2.2,2.2,0,0,0-.29-.1,1.377,1.377,0,0,0-.357-.051,1.621,1.621,0,0,0-.412.047A1.715,1.715,0,0,0,264.832,322.188Z" transform="translate(-244.026 -311.292)" fill="#fafafa"/>
          <path id="Trazado_103635" data-name="Trazado 103635" d="M268.189,319.634a.612.612,0,0,1,.1-.443,1.186,1.186,0,0,1,.413-.373,2.694,2.694,0,0,1,.946-.343,3.2,3.2,0,0,1,.929-.007.587.587,0,0,1-.03-.292.854.854,0,0,1,.1-.292,1.11,1.11,0,0,1,.208-.263,1.565,1.565,0,0,1,.3-.218,2.721,2.721,0,0,1,.851-.327,3.041,3.041,0,0,1,1.644.134,4.743,4.743,0,0,1,.738.344l2.009,1.16a.123.123,0,0,1,0,.233l-.567.328a.4.4,0,0,1-.2.048.406.406,0,0,1-.2-.048l-1.97-1.139a1.913,1.913,0,0,0-.906-.3,1.433,1.433,0,0,0-.746.2.539.539,0,0,0-.317.408q-.019.234.451.523l2.009,1.159a.14.14,0,0,1,.083.117.138.138,0,0,1-.083.116l-.568.328a.443.443,0,0,1-.4,0L271,319.552a1.908,1.908,0,0,0-.9-.3,1.447,1.447,0,0,0-.747.2.534.534,0,0,0-.317.421c-.008.163.154.34.489.532l1.972,1.139a.124.124,0,0,1,0,.233l-.568.327a.4.4,0,0,1-.2.047.385.385,0,0,1-.2-.047l-3.48-2.009a.124.124,0,0,1,0-.233l.567-.328a.464.464,0,0,1,.405,0Z" transform="translate(-244.209 -311.088)" fill="#fafafa"/>
          <path id="Trazado_103636" data-name="Trazado 103636" d="M275.043,316.444a.726.726,0,0,1-.2-.273.614.614,0,0,1-.029-.371,1,1,0,0,1,.226-.429,2.119,2.119,0,0,1,.569-.444,3.556,3.556,0,0,1,.786-.338,3.4,3.4,0,0,1,.822-.134,3.028,3.028,0,0,1,1.624.407l2.2,1.268a.124.124,0,0,1,0,.233l-.568.328a.4.4,0,0,1-.2.048.391.391,0,0,1-.2-.049l-.246-.142a.633.633,0,0,1-.082.475,1.553,1.553,0,0,1-.6.521,2.911,2.911,0,0,1-.662.283,2.684,2.684,0,0,1-.668.107,2.6,2.6,0,0,1-.635-.061,2.023,2.023,0,0,1-.561-.215c-.344-.2-.489-.424-.441-.678a1.488,1.488,0,0,1,.583-.793l1.008-.824a.985.985,0,0,0-.635-.133,1.674,1.674,0,0,0-.627.215.635.635,0,0,0-.239.2.458.458,0,0,0-.06.2.223.223,0,0,1-.041.118.315.315,0,0,1-.1.085l-.695.4a.371.371,0,0,1-.171.048A.212.212,0,0,1,275.043,316.444Zm3.353.5a1.4,1.4,0,0,0,.382-.3.561.561,0,0,0,.141-.3.4.4,0,0,0-.066-.271.71.71,0,0,0-.24-.216l-.074-.044-.836.691a.786.786,0,0,0-.288.343c-.022.09.025.169.139.235a.542.542,0,0,0,.392.041A1.56,1.56,0,0,0,278.4,316.941Z" transform="translate(-244.588 -310.964)" fill="#fafafa"/>
          <path id="Trazado_103637" data-name="Trazado 103637" d="M277.851,312.027a.452.452,0,0,1,.4,0l.581.335a.138.138,0,0,1,.083.117.135.135,0,0,1-.082.116l-.642.371a.451.451,0,0,1-.4,0l-.582-.337a.123.123,0,0,1,0-.232Zm5.265,2.849a.123.123,0,0,1,0,.233l-.567.327a.412.412,0,0,1-.2.048.4.4,0,0,1-.2-.048l-3.479-2.009a.135.135,0,0,1-.082-.117.132.132,0,0,1,.081-.116l.567-.328a.458.458,0,0,1,.4,0Z" transform="translate(-244.701 -310.845)" fill="#fafafa"/>
          <path id="Trazado_103638" data-name="Trazado 103638" d="M285.221,313.663a.136.136,0,0,1,.083.117.138.138,0,0,1-.083.116l-.567.327a.4.4,0,0,1-.2.048.389.389,0,0,1-.2-.048l-4.9-2.828a.124.124,0,0,1,0-.233l.568-.327a.45.45,0,0,1,.4,0Z" transform="translate(-244.804 -310.787)" fill="#fafafa"/>
        </g>
        <path id="Trazado_103639" data-name="Trazado 103639" d="M254.354,335.45l74.011-42.73a3.333,3.333,0,0,1,2.977-.185c.734.423.59,1.192-.32,1.719L257,336.989a3.318,3.318,0,0,1-2.973.182C253.3,336.746,253.443,335.975,254.354,335.45Z" transform="translate(-231.442 -279.492)" fill="#fafafa"/>
        <path id="Trazado_103640" data-name="Trazado 103640" d="M259.814,338.6l74.011-42.73a3.331,3.331,0,0,1,2.977-.186c.734.423.591,1.193-.32,1.719l-74.02,42.736a3.319,3.319,0,0,1-2.972.182C258.758,339.9,258.9,339.128,259.814,338.6Z" transform="translate(-231.706 -279.645)" fill="#fafafa"/>
      </g>
    </g>
    <path id="Shadow-4" data-name="Shadow" d="M142.414,363.727l-38.655-22.318,173.163-99.977L316.366,263.3Z" transform="translate(233.981 4666.367)" fill="#e0e0e0"/>
    <path id="Trazado_103641" data-name="Trazado 103641" d="M133.391,218.9l164.69-95.084,6.589,3.8a6.871,6.871,0,0,1,3.1,5.365V254.472a6.874,6.874,0,0,1-3.1,5.366L146.177,351.343a6.872,6.872,0,0,1-6.2,0l-3.492-2.016a6.874,6.874,0,0,1-3.1-5.366Z" transform="translate(232.548 4672.055)" fill="#c7b0e3"/>
    <path id="Trazado_103642" data-name="Trazado 103642" d="M133.391,218.9l164.69-95.084,6.589,3.8a6.871,6.871,0,0,1,3.1,5.365V254.472a6.874,6.874,0,0,1-3.1,5.366L146.177,351.343a6.872,6.872,0,0,1-6.2,0l-3.492-2.016a6.874,6.874,0,0,1-3.1-5.366Z" transform="translate(232.548 4672.055)" opacity="0.2"/>
    <path id="Trazado_103643" data-name="Trazado 103643" d="M297.172,111.1l.674-.366-2.56-1.487v0a4.345,4.345,0,0,0-.678-.325l-72.48-26.857a4.991,4.991,0,0,0-5.566,1.77l-81.077,118.4a14.02,14.02,0,0,0-2.093,6.76v7.863l2.513,1.46,162.176-96.541v-7.865A5.309,5.309,0,0,0,297.172,111.1Z" transform="translate(232.548 4674.086)" fill="#c7b0e3"/>
    <path id="Trazado_103644" data-name="Trazado 103644" d="M219.948,84.471a4.1,4.1,0,0,0-.84.889l-81.084,118.4a12.574,12.574,0,0,0-1.506,3.383L134,205.684a16.152,16.152,0,0,1,.655-1.791c.012-.025.012-.037.025-.049.111-.246.222-.482.345-.716.025-.037.037-.074.062-.111a6.443,6.443,0,0,1,.432-.716L216.588,83.9a3.934,3.934,0,0,1,.408-.494c.135-.136.284-.271.432-.395Z" transform="translate(232.519 4674.028)" opacity="0.1"/>
    <g id="Grupo_58550" data-name="Grupo 58550" transform="translate(366.513 4757.042)">
      <path id="Trazado_103646" data-name="Trazado 103646" d="M135.135,209.073c.14-.256.285-.5.433-.713C135.42,208.577,135.275,208.818,135.135,209.073Z" transform="translate(-134.049 -89.075)" fill="#27debf"/>
      <path id="Trazado_103647" data-name="Trazado 103647" d="M221.215,83.409a5.2,5.2,0,0,1,.435-.395A4.285,4.285,0,0,0,221.215,83.409Z" transform="translate(-138.211 -83.014)" fill="#27debf"/>
      <path id="Trazado_103648" data-name="Trazado 103648" d="M133.994,211.829a15.552,15.552,0,0,1,.659-1.8A15.315,15.315,0,0,0,133.994,211.829Z" transform="translate(-133.994 -89.156)" fill="#27debf"/>
      <path id="Trazado_103649" data-name="Trazado 103649" d="M134.708,209.943c.11-.248.228-.482.348-.709C134.936,209.46,134.819,209.695,134.708,209.943Z" transform="translate(-134.028 -89.117)" fill="#27debf"/>
      <path id="Trazado_103650" data-name="Trazado 103650" d="M134.686,210.029c.008-.016.013-.034.021-.05C134.7,210,134.694,210.013,134.686,210.029Z" transform="translate(-134.027 -89.153)" opacity="0.2"/>
      <path id="Trazado_103651" data-name="Trazado 103651" d="M133.994,211.92Z" transform="translate(-133.994 -89.247)" opacity="0.2"/>
      <path id="Trazado_103652" data-name="Trazado 103652" d="M221.672,83.014h0Z" transform="translate(-138.233 -83.014)" opacity="0.2"/>
      <path id="Trazado_103653" data-name="Trazado 103653" d="M135.074,209.228c.02-.038.038-.081.058-.119C135.112,209.147,135.094,209.19,135.074,209.228Z" transform="translate(-134.046 -89.111)" opacity="0.2"/>
      <path id="Trazado_103654" data-name="Trazado 103654" d="M220.787,83.917a4.072,4.072,0,0,1,.407-.488A3.633,3.633,0,0,0,220.787,83.917Z" transform="translate(-138.191 -83.034)" opacity="0.2"/>
    </g>
    <path id="Trazado_103655" data-name="Trazado 103655" d="M219.2,85.372l-81.078,118.4a14.029,14.029,0,0,0-2.092,6.76V218.4l164.691-95.09,0-7.857a5.712,5.712,0,0,0-3.473-4.991L224.768,83.6A4.99,4.99,0,0,0,219.2,85.372Z" transform="translate(232.421 4674.012)" fill="#c7b0e3"/>
    <path id="Trazado_103656" data-name="Trazado 103656" d="M300.721,116.942a5.289,5.289,0,0,0-.88-2.768L136.615,208.647l-.016.026a12.374,12.374,0,0,0-.567,3.353v7.863L300.723,124.8Z" transform="translate(232.421 4672.521)" opacity="0.05"/>
    <g id="Paper" transform="translate(380.659 4751.286)">
      <path id="Trazado_103657" data-name="Trazado 103657" d="M294.307,81.77a1.885,1.885,0,0,0-.773-1.724c-.484-.286-4.543-2.623-5.027-2.9a1.877,1.877,0,0,0-1.89.187L151.534,155.319a5.905,5.905,0,0,0-2.673,4.631V321.726a1.879,1.879,0,0,0,.782,1.73l5.017,2.9a1.877,1.877,0,0,0,1.89-.187l135.085-77.987a5.91,5.91,0,0,0,2.673-4.63Z" transform="translate(-148.859 -76.966)" fill="#27debf"/>
      <path id="Trazado_103658" data-name="Trazado 103658" d="M294.307,81.77a1.885,1.885,0,0,0-.773-1.724c-.484-.286-4.543-2.623-5.027-2.9a1.877,1.877,0,0,0-1.89.187L151.534,155.319a5.905,5.905,0,0,0-2.673,4.631V321.726a1.879,1.879,0,0,0,.782,1.73l5.017,2.9a1.877,1.877,0,0,0,1.89-.187l135.085-77.987a5.91,5.91,0,0,0,2.673-4.63Z" transform="translate(-148.859 -76.966)" fill="#fff" opacity="0.95"/>
      <path id="Trazado_103659" data-name="Trazado 103659" d="M156.805,326.312,291.89,248.324a5.91,5.91,0,0,0,2.673-4.63V81.917c0-1.7-1.2-2.4-2.673-1.544L156.8,158.362a5.91,5.91,0,0,0-2.673,4.63V324.769C154.132,326.473,155.329,327.164,156.805,326.312Z" transform="translate(-149.114 -77.113)" fill="#27debf"/>
      <path id="Trazado_103660" data-name="Trazado 103660" d="M156.805,326.312,291.89,248.324a5.91,5.91,0,0,0,2.673-4.63V81.917c0-1.7-1.2-2.4-2.673-1.544L156.8,158.362a5.91,5.91,0,0,0-2.673,4.63V324.769C154.132,326.473,155.329,327.164,156.805,326.312Z" transform="translate(-149.114 -77.113)" fill="#fff" opacity="0.8"/>
      <path id="Trazado_103661" data-name="Trazado 103661" d="M153.872,328.7a2.016,2.016,0,0,0,.63,1.63c-.9-.506-4.408-2.544-4.852-2.79a1.865,1.865,0,0,1-.791-1.729V164.028a5.357,5.357,0,0,1,.791-2.63l5.012,2.889a5.4,5.4,0,0,0-.79,2.643Z" transform="translate(-148.859 -81.049)" fill="#27debf"/>
      <path id="Trazado_103662" data-name="Trazado 103662" d="M153.872,328.7a2.016,2.016,0,0,0,.63,1.63c-.9-.506-4.408-2.544-4.852-2.79a1.865,1.865,0,0,1-.791-1.729V164.028a5.357,5.357,0,0,1,.791-2.63l5.012,2.889a5.4,5.4,0,0,0-.79,2.643Z" transform="translate(-148.859 -81.049)" fill="#fff" opacity="0.7"/>
      <path id="Trazado_103663" data-name="Trazado 103663" d="M153.872,328.7a2.016,2.016,0,0,0,.63,1.63c-.9-.506-4.408-2.544-4.852-2.79a1.865,1.865,0,0,1-.791-1.729V164.028a5.357,5.357,0,0,1,.791-2.63l5.012,2.889a5.4,5.4,0,0,0-.79,2.643Z" transform="translate(-148.859 -81.049)" opacity="0.05"/>
    </g>
    <g id="Character" transform="translate(434.38 4737.248)">
      <path id="Trazado_103664" data-name="Trazado 103664" d="M205.923,208.581c-.595,15.048.418,47.3.418,47.3s15.952,4.821,26.8,3.023,34.038-18.226,34.038-18.226l-3.866-34.9Z" transform="translate(-205.33 -69.156)" fill="#37474f"/>
      <path id="Trazado_103665" data-name="Trazado 103665" d="M244.707,255.868l2.591-24.583c10.167-6.062,13.476-14.455,13.476-14.455-9.254,12.117-18.907,10.156-18.907,10.156v30.182Q243.256,256.571,244.707,255.868Z" transform="translate(-207.077 -69.691)" fill="#263238"/>
      <path id="Trazado_103666" data-name="Trazado 103666" d="M269.662,159.34c2.583-13.1,3.755-30.5-7.641-33.7-2.968-.833-10.525-.254-10.525-.254l-12.288.61c-6.841.873-16.439,2.233-18.952,2.851-6.6,1.624-8.56,12.4-11.519,36.3-1.853,14.961-3.429,26.638-3.429,41.2,12.071,10.822,49.8,6.561,58.382-.479C264.048,189.361,264.949,183.239,269.662,159.34Z" transform="translate(-205.309 -65.259)" fill="#455a64"/>
      <g id="Grupo_58551" data-name="Grupo 58551" transform="translate(26.204 54.579)">
        <path id="Trazado_103667" data-name="Trazado 103667" d="M238.458,121.262c-.118,2.391,2.635,6.429,6.847,9.263s7.842,3.982,8.3,5.165c-2,.375-3.806,1.366-5.293,4.8-1.421,3.277-1.407,3.383-6.269,0s-9.211-11.146-9.2-13.731,3.822-7.588,5.693-7.164Z" transform="translate(-232.845 -119.566)" fill="#37474f"/>
        <path id="Trazado_103668" data-name="Trazado 103668" d="M254.663,135.834c1.424-1.555,2.772-5.466,2.945-7.156s.623-6.132.623-6.132a3.245,3.245,0,0,1,1.682,1.092c.524.793,3.112,6.141,3.027,9.127s-.783,7.024-1.793,8.727-1.686-1.3-2.345-2.466C257.947,137.514,256.772,135.875,254.663,135.834Z" transform="translate(-233.9 -119.71)" fill="#37474f"/>
        <path id="Trazado_103669" data-name="Trazado 103669" d="M252.538,140.109s.234,10.787-.758,16.522a17.5,17.5,0,0,0,6.416-.173s-1.645,2.028-7.677,1.1A174.783,174.783,0,0,0,252.538,140.109Z" transform="translate(-233.7 -120.56)" fill="#37474f"/>
      </g>
      <g id="Grupo_58554" data-name="Grupo 58554" transform="translate(20.489 0)">
        <g id="Grupo_58552" data-name="Grupo 58552">
          <path id="Trazado_103670" data-name="Trazado 103670" d="M277.034,86.917a17.116,17.116,0,0,0-34.16-1.3l-7.774-5.53a6.075,6.075,0,0,0-5,1.843c-2.129,2.241-.819,9.14,1.972,15.873,0,0,2.807,12.294,3.89,14.305a5.584,5.584,0,0,0,3.266,2.555l-.268-7.481,31.094-2.233-3.077-2.189A17.115,17.115,0,0,0,277.034,86.917Z" transform="translate(-226.946 -62.593)" fill="#263238"/>
          <path id="Trazado_103671" data-name="Trazado 103671" d="M238.4,98.388c-.983.607-1.88-1.472-3.668-2.539-1.52-.906-4.935-2.5-7.188,1.275-2.428,4.064,1.978,9.682,5.062,10.84,4.567,1.715,6.2-1.866,6.2-1.866l-.942,19.035c6.219,11.328,24.677,10.6,18.4,1.112l.755-7.341s4.918.673,7.307.267c3.973-.675,6.432-3.854,7.577-8.183,1.839-6.954,2.492-12.556.644-26.15-2.025-14.9-19.389-14.8-28.677-8.759S238.4,98.388,238.4,98.388Z" transform="translate(-226.839 -62.7)" fill="#ffa8a7"/>
          <path id="Trazado_103672" data-name="Trazado 103672" d="M276.446,70.442a6.414,6.414,0,0,0-4.2-.482,5.078,5.078,0,0,0-3.042-5.11,5.885,5.885,0,0,0-6.433.859c.422-1.513-.955-3.055-2.49-3.39a8.192,8.192,0,0,0-4.581.754c-2.183.835-4.333,1.762-6.549,2.5-3.908,1.306-8.066,2.051-11.6,4.168a7.2,7.2,0,0,0-2.209,1.875,6.14,6.14,0,0,0-1,3.878,8.328,8.328,0,0,0,.188,1.334,3.355,3.355,0,0,0-.927-.724,3.3,3.3,0,0,0-4.516,1.567l5.887,3.049c-.147,1.186-.293,2.371-.414,3.56-.317,3.14-.925,6.8-.217,9.921a2.359,2.359,0,0,0,.383,1.047,18.5,18.5,0,0,1,3.062,2.979c.456.555,1.006,1.45,1.743,1.668a1.769,1.769,0,0,0,2.035-.929,3.2,3.2,0,0,0,.067-1.386l-.571-5.8a3.284,3.284,0,0,1,.094-1.538,4.372,4.372,0,0,1,1.419-1.506,6.71,6.71,0,0,0,2.311-4.649,7.352,7.352,0,0,1,.156-1.664c.121-.409.444-1.048.912-1.05.908,0,5.836,1.07,7.075,1.239,6.449.884,13.377,1.055,19.066-2.109,2.214-1.232,5.949-3.788,6.335-6.527A3.651,3.651,0,0,0,276.446,70.442Z" transform="translate(-226.948 -62.214)" fill="#263238"/>
          <path id="Trazado_103673" data-name="Trazado 103673" d="M257.717,120.9s-8.917-1.66-12.05-3.266a10.239,10.239,0,0,1-4.36-4.187,14.025,14.025,0,0,0,2.515,4.978c2.316,2.873,13.651,4.841,13.651,4.841Z" transform="translate(-227.539 -64.691)" fill="#f28f8f"/>
        </g>
        <g id="Grupo_58553" data-name="Grupo 58553" transform="translate(22.431 26.046)">
          <path id="Trazado_103674" data-name="Trazado 103674" d="M257.981,97.947a1.671,1.671,0,1,1-1.7-1.715A1.7,1.7,0,0,1,257.981,97.947Z" transform="translate(-250.614 -89.905)" fill="#263238"/>
          <path id="Trazado_103675" data-name="Trazado 103675" d="M254.529,91.425l-3.916,1.9a2.285,2.285,0,0,1,1.045-2.984A2.123,2.123,0,0,1,254.529,91.425Z" transform="translate(-250.41 -89.61)" fill="#263238"/>
          <path id="Trazado_103676" data-name="Trazado 103676" d="M254.776,109l7.076,2.537a3.693,3.693,0,0,1-4.746,2.4A3.936,3.936,0,0,1,254.776,109Z" transform="translate(-250.611 -90.522)" fill="#b16668"/>
          <path id="Trazado_103677" data-name="Trazado 103677" d="M259.248,114.12a3.69,3.69,0,0,0-4.132-3.151,3.735,3.735,0,0,0-.453.107,3.846,3.846,0,0,0,2.448,2.954A3.588,3.588,0,0,0,259.248,114.12Z" transform="translate(-250.615 -90.616)" fill="#f28f8f"/>
          <path id="Trazado_103678" data-name="Trazado 103678" d="M274.052,92.692l-3.781-1.974a2.059,2.059,0,0,1,2.819-.892A2.171,2.171,0,0,1,274.052,92.692Z" transform="translate(-251.37 -89.583)" fill="#263238"/>
          <path id="Trazado_103679" data-name="Trazado 103679" d="M272.053,97.65a1.671,1.671,0,1,1-1.7-1.715A1.7,1.7,0,0,1,272.053,97.65Z" transform="translate(-251.295 -89.89)" fill="#263238"/>
          <path id="Trazado_103680" data-name="Trazado 103680" d="M263.271,96.646l.334,10.8,6.37-1.482Z" transform="translate(-251.032 -89.925)" fill="#f28f8f"/>
        </g>
      </g>
    </g>
    <path id="Trazado_103681" data-name="Trazado 103681" d="M304.015,261.588a1.5,1.5,0,0,1-.171.246l-68.63-21.761a11.822,11.822,0,0,0-14.83,4.566L147.015,353.686l-2.713,1.566-.025.012a2.213,2.213,0,0,1-2.1.235l75.455-112.4a11.856,11.856,0,0,1,14.843-4.578Z" transform="translate(232.123 4666.557)" fill="#c7b0e3"/>
    <path id="Trazado_103682" data-name="Trazado 103682" d="M213.625,256.169l.173-.148-66.786,98.5-2.716,1.568-.025.012a2.243,2.243,0,0,1-2.1.234l68.811-101.743Z" transform="translate(232.124 4665.731)" fill="#fff" opacity="0.4"/>
    <path id="Trazado_103683" data-name="Trazado 103683" d="M307.856,261.592a1.5,1.5,0,0,1-.173.247l-68.638-21.77a11.817,11.817,0,0,0-14.829,4.568l-2.717-1.58a11.848,11.848,0,0,1,14.817-4.544Z" transform="translate(228.288 4666.557)" fill="#fff" opacity="0.4"/>
    <path id="Trazado_103684" data-name="Trazado 103684" d="M308.286,132.281h-.012c-.148-.889-.618-1.135-1.223-.716a3.575,3.575,0,0,0-.79.815l-.346.482L238.191,235.824l-10.113,14.088A5.767,5.767,0,0,1,222.51,252l-8.729-2.075-66.638-24.532a3.39,3.39,0,0,0-1.358-.049,2.4,2.4,0,0,0-.506.161l2.511-1.452,63.889,23.414,8.412,3a5.737,5.737,0,0,0,5.569-2.087l10.112-14.076,68.058-103.444a2.714,2.714,0,0,1,.765-.7l-5.89-3.4,2.47-1.42,4.075,2.346A7.066,7.066,0,0,1,308.286,132.281Z" transform="translate(231.973 4671.981)" fill="#c7b0e3"/>
    <path id="Trazado_103685" data-name="Trazado 103685" d="M241.667,241.362,231.554,255.45a5.769,5.769,0,0,1-5.569,2.087l-8.729-2.075.173-.148.42-.666,5.717,1.358a5.737,5.737,0,0,0,5.569-2.087l10.013-13.927Z" transform="translate(228.493 4666.437)" fill="#fff" opacity="0.4"/>
    <path id="Trazado_103686" data-name="Trazado 103686" d="M309.837,127.683l-4.074-2.346-2.47,1.42,5.89,3.4.014.011-.01-.006a2.707,2.707,0,0,0-.765.7L240.359,234.3l-.1.136v.012l2.519,1.37L310.5,132.857l.345-.482a3.563,3.563,0,0,1,.791-.816c.6-.42,1.074-.173,1.222.717h.012A7.063,7.063,0,0,0,309.837,127.683Z" transform="translate(227.38 4671.981)" opacity="0.1"/>
    <path id="Trazado_103687" data-name="Trazado 103687" d="M147.921,232.121l-14.53-8.392V348.793a6.874,6.874,0,0,0,3.1,5.366l3.492,2.016a6.872,6.872,0,0,0,6.2,0l1.743-1.006Z" transform="translate(232.548 4667.223)" fill="#c7b0e3"/>
    <path id="Trazado_103688" data-name="Trazado 103688" d="M147.921,232.121l-14.53-8.392V348.793a6.874,6.874,0,0,0,3.1,5.366l3.492,2.016a6.872,6.872,0,0,0,6.2,0l1.743-1.006Z" transform="translate(232.548 4667.223)" opacity="0.15"/>
    <path id="Trazado_103689" data-name="Trazado 103689" d="M308.265,133.365V254.849a6.315,6.315,0,0,1-.963,3.137,6.764,6.764,0,0,1-1.815,2.037l-.123.061a1.892,1.892,0,0,1-.2.136L146.678,351.714l-.025.012a2.208,2.208,0,0,1-2.112.246,1.88,1.88,0,0,1-.926-1.482,3.915,3.915,0,0,1-.037-.555v-121.5a2.692,2.692,0,0,1,3.482-2.741L213.7,250.23l8.729,2.075A5.767,5.767,0,0,0,228,250.218l10.113-14.088,67.724-102.962.346-.482C307.326,131.094,308.265,131.39,308.265,133.365Z" transform="translate(232.056 4671.675)" fill="#c7b0e3"/>
    <path id="Trazado_103690" data-name="Trazado 103690" d="M309.968,265.53a1.748,1.748,0,0,0,.2-.131l.118-.071A6.631,6.631,0,0,0,312.1,263.3a6.347,6.347,0,0,0,.961-3.084L242.916,241.44l46.975,35.681Z" transform="translate(227.252 4666.367)" fill="#c7b0e3"/>
    <path id="Trazado_103691" data-name="Trazado 103691" d="M309.968,265.53a1.748,1.748,0,0,0,.2-.131l.118-.071A6.631,6.631,0,0,0,312.1,263.3a6.347,6.347,0,0,0,.961-3.084L242.916,241.44l46.975,35.681Z" transform="translate(227.252 4666.367)" opacity="0.2"/>
    <path id="Trazado_103692" data-name="Trazado 103692" d="M143.575,355.955a2.137,2.137,0,0,0,.966,2.039,2.205,2.205,0,0,0,2.111-.239l.024-.011,54.566-31.5L213.7,256.251l-70.126,97.685Z" transform="translate(232.056 4665.651)" fill="#c7b0e3"/>
    <path id="Trazado_103693" data-name="Trazado 103693" d="M220.423,244.907,144.537,357.368a2.139,2.139,0,0,1-.963-2.037l0-2.018,74.128-109.936c0-.012.012-.025.025-.036Z" transform="translate(232.056 4666.275)" opacity="0.15"/>
    <path id="Trazado_103694" data-name="Trazado 103694" d="M307.348,263.186a6.631,6.631,0,0,1-1.813,2.027l-.118.071L146.725,356.914l-.024.011a2.205,2.205,0,0,1-2.111.239l75.894-112.481a11.925,11.925,0,0,1,14.922-4.579Z" transform="translate(232.007 4666.48)" fill="#c7b0e3"/>
    <path id="Trazado_103695" data-name="Trazado 103695" d="M133.969,211.917l2.519,1.457a12.32,12.32,0,0,0-.581,3.383v7.853l-2.519-1.457v-7.865A12.315,12.315,0,0,1,133.969,211.917Z" transform="translate(232.548 4667.794)" opacity="0.15"/>
    <path id="Trazado_103696" data-name="Trazado 103696" d="M147.342,228.81l-2.512,1.452-2.544-1.469-6.26-3.605,2.432-1.445Z" transform="translate(232.421 4667.223)" fill="#c7b0e3"/>
    <path id="Trazado_103697" data-name="Trazado 103697" d="M147.453,228.857l-8.994-5.115-2.432,1.445,6.26,3.606,2.544,1.469.027-.015a2.531,2.531,0,0,1,.475-.151,3.425,3.425,0,0,1,1.358.049l5.065,1.868,58.17,21.415.91-1.348Z" transform="translate(232.421 4667.223)" opacity="0.1"/>
    <g id="Arm" transform="translate(407.814 4800.457)">
      <path id="Trazado_103698" data-name="Trazado 103698" d="M218.907,129.033c-8.073.58-13.61,2.5-18.814,15-3.365,8.082-16.551,37.126-17.828,41.926-1.5,5.639-4.87,48.489-4.87,48.489l7.705,2.891s-2.641,9.221-4.87,14.491c-2.569,6.075,9.98,4.8,14.01-.722,4.043-5.54,6.778-12.912,4.576-15.5a36.217,36.217,0,0,0-6.117-5.658l8.436-38.23,17.689-37.606S227.7,135.63,218.907,129.033Z" transform="translate(-177.394 -128.655)" fill="#ffa8a7"/>
      <path id="Trazado_103699" data-name="Trazado 103699" d="M193.079,234.935a16.618,16.618,0,0,0-7.818-2.232,15.042,15.042,0,0,1,8.184,0Z" transform="translate(-177.774 -133.64)" fill="#f28f8f"/>
      <path id="Trazado_103700" data-name="Trazado 103700" d="M221.331,128.643c-4.536-.038-12.995-.241-18.474,9.657s-13.23,28.707-13.23,28.707,3.221,7.924,20.464,9.579l13.208-28.1S226.516,135.586,221.331,128.643Z" transform="translate(-177.986 -128.636)" fill="#37474f"/>
    </g>
    <path id="Trazado_103701" data-name="Trazado 103701" d="M283.516,134.985c6.811,5.369,17.875,13.816,23.252,17.2,4.065-4.918,11.542-14.868,13.356-17.046,2.308-2.77,9.593-7.3,9.593-7.3l2.751,11.034s-13.813,25.48-18.818,30.2c-5.274,4.969-9.091,2.91-19.4-1.815-9.736-4.463-20.307-10-20.307-10,2.1-18.52.676-28.551-8.173-31.675C271.722,126.325,277.8,130.48,283.516,134.985Z" transform="translate(226.147 4671.969)" fill="#ffa8a7"/>
    <path id="Trazado_103702" data-name="Trazado 103702" d="M301.1,148.427c-3.561.978-10.92,11.45-9.576,18.075l-18.749-9.268c2.27-12.784,2.757-28.577-8.036-31.6a14.9,14.9,0,0,0-3.159-.4h0c5.377-.534,8.885-.377,14.519,3.858S301.1,148.427,301.1,148.427Z" transform="translate(226.349 4671.997)" fill="#37474f"/>
    <path id="Trazado_103703" data-name="Trazado 103703" d="M308.642,153.483c-2.686,2.354-3.555,6.6-4.076,8.284a14.782,14.782,0,0,1,2.523-9.295Z" transform="translate(224.273 4670.669)" fill="#f28f8f"/>
    <g id="Grupo_58555" data-name="Grupo 58555" transform="translate(551.11 4783.564)">
      <path id="Trazado_103704" data-name="Trazado 103704" d="M336.284,114.783l6.426-3.9s.739,34.682.763,35.81a3.821,3.821,0,0,0,1.348,2.228l-6.426,3.894a3.816,3.816,0,0,1-1.349-2.227C337.022,149.463,336.284,114.783,336.284,114.783Z" transform="translate(-328.373 -110.884)" fill="#37474f"/>
      <path id="Trazado_103705" data-name="Trazado 103705" d="M343.1,126.073s1.846.439,2.552,3.3,1.06,8.334-.583,10.136-3.891,2.588-5.384,1.94c-2.792-1.213-1.942-6.877.295-8.183,3.575-2.088,3.147-4.388,3.147-4.388Z" transform="translate(-328.452 -111.618)" fill="#ffa8a7"/>
      <path id="Trazado_103706" data-name="Trazado 103706" d="M327.971,115.091l2.817,3.435.506,24.458-2.861,4.781,9.56,5.254a3.5,3.5,0,0,1-1.349-2.227l-.666-31.3Z" transform="translate(-327.971 -111.087)" fill="#455a64"/>
      <path id="Trazado_103707" data-name="Trazado 103707" d="M328.457,149.426l.032,1.5,9.56,5.253-.032-1.5Z" transform="translate(-327.994 -112.748)" fill="#31d9e7"/>
      <path id="Trazado_103708" data-name="Trazado 103708" d="M338.534,156.251l6.426-3.894-.032-1.5-6.426,3.894Z" transform="translate(-328.48 -112.817)" fill="#31d9e7"/>
      <path id="Trazado_103709" data-name="Trazado 103709" d="M338.534,156.251l6.426-3.894-.032-1.5-6.426,3.894Z" transform="translate(-328.48 -112.817)" opacity="0.1"/>
    </g>
    <path id="Trazado_103710" data-name="Trazado 103710" d="M329.567,97.252h0c-1.25-.31-2.7.216-4.039,1.652l-.049.052a13.467,13.467,0,0,0-2.75,11.869l.021.069c.587,1.925,1.694,3.041,2.992,3.277h0l5.558,1.338,3.406-17.019Z" transform="translate(223.413 4673.343)" fill="#31d9e7"/>
    <path id="Trazado_103711" data-name="Trazado 103711" d="M329.567,97.252h0c-1.25-.31-2.7.216-4.039,1.652l-.049.052a13.467,13.467,0,0,0-2.75,11.869l.021.069c.587,1.925,1.694,3.041,2.992,3.277h0l5.558,1.338,3.406-17.019Z" transform="translate(223.413 4673.343)" fill="#fff" opacity="0.7"/>
    <path id="Trazado_103712" data-name="Trazado 103712" d="M325.742,114.7h0l5.558,1.338,1.13-5.641-10.113-2.344a10.719,10.719,0,0,0,.413,3.3l.021.069C323.337,113.346,324.444,114.462,325.742,114.7Z" transform="translate(223.413 4672.817)" opacity="0.05"/>
    <path id="Trazado_103713" data-name="Trazado 103713" d="M341.013,97.689l0,0a5.058,5.058,0,0,0-4.526,1.614c-.16.146-.32.3-.479.474-.187.2-.365.406-.54.627a11.906,11.906,0,0,0-.816,1.147,15.434,15.434,0,0,0-1.232,2.385,18.379,18.379,0,0,0-1.385,7.272,12.967,12.967,0,0,0,.525,3.457c.692,2.272,1.963,3.65,3.468,4.048l-5.289-1.222,0-.01a6.083,6.083,0,0,1-4.183-4.208,12.8,12.8,0,0,1-.519-3.3,18.312,18.312,0,0,1,1.379-7.431,15.19,15.19,0,0,1,1.232-2.386,11.512,11.512,0,0,1,.816-1.147c.174-.22.355-.429.54-.626.156-.168.32-.325.485-.473a6.026,6.026,0,0,1,5.124-1.468l0,0,.147.032c.062.014.127.029.188.047Z" transform="translate(223.233 4673.383)" fill="#31d9e7"/>
    <path id="Trazado_103714" data-name="Trazado 103714" d="M330.738,118.188l0-.01a6.083,6.083,0,0,1-4.183-4.208,12.8,12.8,0,0,1-.519-3.3l6,1.23a12.967,12.967,0,0,0,.525,3.457c.692,2.272,1.963,3.65,3.468,4.048Z" transform="translate(223.233 4672.69)" opacity="0.1"/>
    <path id="Trazado_103715" data-name="Trazado 103715" d="M344.907,101.836a16.884,16.884,0,0,1-3.448,14.886c-1.671,1.793-3.478,2.457-5.04,2.079-.029,0-.058-.012-.088-.02-1.5-.4-2.776-1.777-3.468-4.048a16.889,16.889,0,0,1,3.447-14.888c1.66-1.776,3.452-2.446,5-2.088S344.2,99.5,344.907,101.836Z" transform="translate(222.928 4673.319)" fill="#31d9e7"/>
    <path id="Trazado_103716" data-name="Trazado 103716" d="M344.907,101.836a16.884,16.884,0,0,1-3.448,14.886c-1.671,1.793-3.478,2.457-5.04,2.079-.029,0-.058-.012-.088-.02-1.5-.4-2.776-1.777-3.468-4.048a16.889,16.889,0,0,1,3.447-14.888c1.66-1.776,3.452-2.446,5-2.088S344.2,99.5,344.907,101.836Z" transform="translate(222.928 4673.319)" opacity="0.2"/>
    <path id="Trazado_103717" data-name="Trazado 103717" d="M366.972,93.6s-6.219,6.032-9.191,18.858a51.827,51.827,0,0,0-1.133,6.993c-.8,8.722,1.094,13.985,1.094,13.985-3.839-4.712-8.269-9.452-14.128-12.329a72.61,72.61,0,0,0-7.033-2.978l0-.007c-1.42-.332-2.588-1.639-3.227-3.733a13.26,13.26,0,0,1-.482-4.546,17.562,17.562,0,0,1,.432-3.058,15.136,15.136,0,0,1,3.389-6.805c1.5-1.6,3.119-2.261,4.54-1.935l0-.007a72.507,72.507,0,0,0,7.626.419C355.389,98.454,361.453,96.146,366.972,93.6Z" transform="translate(222.903 4673.516)" fill="#31d9e7"/>
    <path id="Trazado_103718" data-name="Trazado 103718" d="M366.972,93.6s-6.219,6.032-9.191,18.858a51.827,51.827,0,0,0-1.133,6.993c-.8,8.722,1.094,13.985,1.094,13.985-3.839-4.712-8.269-9.452-14.128-12.329a72.61,72.61,0,0,0-7.033-2.978l0-.007c-1.42-.332-2.588-1.639-3.227-3.733a13.26,13.26,0,0,1-.482-4.546,17.562,17.562,0,0,1,.432-3.058,15.136,15.136,0,0,1,3.389-6.805c1.5-1.6,3.119-2.261,4.54-1.935l0-.007a72.507,72.507,0,0,0,7.626.419C355.389,98.454,361.453,96.146,366.972,93.6Z" transform="translate(222.903 4673.516)" fill="#fff" opacity="0.7"/>
    <path id="Trazado_103719" data-name="Trazado 103719" d="M356.648,120.279c-.8,8.722,1.094,13.985,1.094,13.985-3.839-4.712-8.269-9.452-14.128-12.329a72.61,72.61,0,0,0-7.033-2.978l0-.007c-1.42-.332-2.588-1.639-3.227-3.733a13.26,13.26,0,0,1-.482-4.546C339.314,111.766,349.926,114.169,356.648,120.279Z" transform="translate(222.903 4672.69)" opacity="0.05"/>
    <path id="Trazado_103720" data-name="Trazado 103720" d="M385.152,99.7a35.881,35.881,0,0,1,.614,16.31v0c-1.275,7.266-4.38,14.353-8.826,19.111-7.915,8.472-17.071,6.35-20.451-4.739a30.862,30.862,0,0,1-1.248-8.212,43.33,43.33,0,0,1,5.092-21.071q.717-1.313,1.523-2.524c.222-.336.453-.668.686-.99h0c.332-.46.672-.905,1.024-1.334.366-.446.74-.878,1.127-1.291C372.613,86.493,381.77,88.611,385.152,99.7Z" transform="translate(221.821 4673.701)" fill="#31d9e7"/>
    <path id="Trazado_103721" data-name="Trazado 103721" d="M385.767,117.35c-1.275,7.266-4.38,14.353-8.826,19.111-7.915,8.472-17.071,6.35-20.451-4.739a30.862,30.862,0,0,1-1.248-8.212h0c1.088,1.236,4.047,2.571,4.655.818a27.827,27.827,0,0,0,1.116,7.28c.973,3.188,2.468,5.542,4.322,6.816a5.95,5.95,0,0,0,5.339.735,13.856,13.856,0,0,0,5.786-3.965c3.781-4.047,6.547-10.093,7.895-16.4C384.359,118.8,385.111,119.121,385.767,117.35Z" transform="translate(221.82 4672.367)" opacity="0.1"/>
    <path id="Trazado_103722" data-name="Trazado 103722" d="M384.388,100.84c1.492,4.9,1.459,10.952.207,16.779-1.348,6.3-4.114,12.349-7.895,16.4a13.856,13.856,0,0,1-5.786,3.965,5.95,5.95,0,0,1-5.339-.735c-1.855-1.273-3.35-3.628-4.322-6.816a27.827,27.827,0,0,1-1.116-7.28c-.03-.975-.017-1.967.035-2.968a40.567,40.567,0,0,1,.632-5.281q.1-.544.213-1.08c.123-.6.259-1.194.411-1.783a40.875,40.875,0,0,1,1.958-5.87.711.711,0,0,0,.028-.066,36.216,36.216,0,0,1,1.746-3.577q.687-1.225,1.453-2.342c.213-.313.432-.618.655-.916q.405-.535.827-1.046.413-.492.842-.954a13.869,13.869,0,0,1,5.79-3.973C378.945,92.008,382.556,94.833,384.388,100.84Z" transform="translate(221.584 4673.545)" fill="#31d9e7"/>
    <path id="Trazado_103723" data-name="Trazado 103723" d="M384.388,100.84c1.492,4.9,1.459,10.952.207,16.779-1.348,6.3-4.114,12.349-7.895,16.4a13.856,13.856,0,0,1-5.786,3.965,5.95,5.95,0,0,1-5.339-.735c-1.855-1.273-3.35-3.628-4.322-6.816a27.827,27.827,0,0,1-1.116-7.28c-.03-.975-.017-1.967.035-2.968a40.567,40.567,0,0,1,.632-5.281q.1-.544.213-1.08c.123-.6.259-1.194.411-1.783a40.875,40.875,0,0,1,1.958-5.87.711.711,0,0,0,.028-.066,36.216,36.216,0,0,1,1.746-3.577q.687-1.225,1.453-2.342c.213-.313.432-.618.655-.916q.405-.535.827-1.046.413-.492.842-.954a13.869,13.869,0,0,1,5.79-3.973C378.945,92.008,382.556,94.833,384.388,100.84Z" transform="translate(221.584 4673.545)" opacity="0.3"/>
    <g id="Grupo_58557" data-name="Grupo 58557" transform="translate(581.721 4778.833)">
      <path id="Trazado_103724" data-name="Trazado 103724" d="M370.439,108.7l-2.629,13.253c-1.909-.122-5.126-.266-7.672-.149.006-.33.02-.659.038-.994a40.564,40.564,0,0,1,.631-5.281q.1-.544.214-1.08c.123-.6.259-1.194.41-1.783a40.877,40.877,0,0,1,1.959-5.87c.008-.019.02-.043.027-.066.118-.273.235-.547.358-.816A41.445,41.445,0,0,0,370.439,108.7Z" transform="translate(-360.137 -105.912)" fill="#31d9e7"/>
    </g>
    <g id="Grupo_58558" data-name="Grupo 58558" transform="translate(581.721 4778.833)" opacity="0.4">
      <path id="Trazado_103725" data-name="Trazado 103725" d="M370.439,108.7l-2.629,13.253c-1.909-.122-5.126-.266-7.672-.149.006-.33.02-.659.038-.994a40.564,40.564,0,0,1,.631-5.281q.1-.544.214-1.08c.123-.6.259-1.194.41-1.783a40.877,40.877,0,0,1,1.959-5.87c.008-.019.02-.043.027-.066.118-.273.235-.547.358-.816A41.445,41.445,0,0,0,370.439,108.7Z" transform="translate(-360.137 -105.912)" fill="#fff"/>
    </g>
    <g id="Grupo_58559" data-name="Grupo 58559" transform="translate(586.433 4781.603)">
      <path id="Trazado_103726" data-name="Trazado 103726" d="M368.55,121.906c-1.38.42-2.543-.443-3.112-2.31l-.017-.057a10.657,10.657,0,0,1,2.175-9.383l.041-.044a4.144,4.144,0,0,1,1.742-1.185c1.379-.421,2.542.443,3.111,2.31l.017.057a10.657,10.657,0,0,1-2.174,9.383l-.04.044a4.156,4.156,0,0,1-1.742,1.185Z" transform="translate(-365.089 -108.823)" fill="#27debf"/>
    </g>
    <g id="Grupo_58560" data-name="Grupo 58560" transform="translate(586.433 4781.603)" opacity="0.7">
      <path id="Trazado_103727" data-name="Trazado 103727" d="M368.55,121.906c-1.38.42-2.543-.443-3.112-2.31l-.017-.057a10.657,10.657,0,0,1,2.175-9.383l.041-.044a4.144,4.144,0,0,1,1.742-1.185c1.379-.421,2.542.443,3.111,2.31l.017.057a10.657,10.657,0,0,1-2.174,9.383l-.04.044a4.156,4.156,0,0,1-1.742,1.185Z" transform="translate(-365.089 -108.823)" fill="#fff"/>
    </g>
    <g id="Grupo_58571" data-name="Grupo 58571" transform="translate(563.614 4743.825)">
      <g id="Grupo_58562" data-name="Grupo 58562" transform="translate(17.18 0.69)">
        <path id="Trazado_103728" data-name="Trazado 103728" d="M365.061,85.927a1.433,1.433,0,0,1-1.79-.955L359.226,71.7a1.435,1.435,0,1,1,2.745-.837l4.045,13.269A1.435,1.435,0,0,1,365.061,85.927Z" transform="translate(-359.163 -69.851)" fill="#e0e0e0"/>
      </g>
      <g id="Grupo_58563" data-name="Grupo 58563" transform="translate(0 11.408)">
        <path id="Trazado_103729" data-name="Trazado 103729" d="M353.1,93.388a1.434,1.434,0,0,1-1.4-.324L341.566,83.6a1.435,1.435,0,1,1,1.959-2.1l10.136,9.468a1.434,1.434,0,0,1-.56,2.421Z" transform="translate(-341.11 -81.113)" fill="#e0e0e0"/>
      </g>
      <g id="Grupo_58564" data-name="Grupo 58564" transform="translate(17.073 75.136)">
        <path id="Trazado_103730" data-name="Trazado 103730" d="M360.9,164.4a1.434,1.434,0,0,1-1.815-1.7l3.13-13.512a1.435,1.435,0,0,1,2.8.647l-3.131,13.513A1.434,1.434,0,0,1,360.9,164.4Z" transform="translate(-359.05 -148.079)" fill="#e0e0e0"/>
      </g>
      <g id="Grupo_58565" data-name="Grupo 58565" transform="translate(38.202 69.649)">
        <path id="Trazado_103731" data-name="Trazado 103731" d="M387.152,158.39a1.435,1.435,0,0,1-1.79-.954l-4.045-13.269a1.435,1.435,0,0,1,2.745-.836l4.045,13.269A1.436,1.436,0,0,1,387.152,158.39Z" transform="translate(-381.254 -142.314)" fill="#e0e0e0"/>
      </g>
      <g id="Grupo_58566" data-name="Grupo 58566" transform="translate(47.037 55.34)">
        <path id="Trazado_103732" data-name="Trazado 103732" d="M402.531,139.553a1.434,1.434,0,0,1-1.4-.324l-10.139-9.468a1.435,1.435,0,0,1,1.959-2.1l10.138,9.469a1.434,1.434,0,0,1-.56,2.42Z" transform="translate(-390.538 -127.278)" fill="#e0e0e0"/>
      </g>
      <g id="Grupo_58567" data-name="Grupo 58567" transform="translate(53.182 43.807)">
        <path id="Trazado_103733" data-name="Trazado 103733" d="M412.36,121.1a1.424,1.424,0,0,1-.741.026l-13.512-3.132a1.434,1.434,0,1,1,.647-2.795l13.512,3.131a1.435,1.435,0,0,1,.094,2.77Z" transform="translate(-396.994 -115.159)" fill="#e0e0e0"/>
      </g>
      <g id="Grupo_58568" data-name="Grupo 58568" transform="translate(52.736 26.701)">
        <path id="Trazado_103734" data-name="Trazado 103734" d="M411.649,99.99l-13.269,4.045a1.435,1.435,0,0,1-.837-2.745l13.27-4.045a1.435,1.435,0,0,1,.837,2.745Z" transform="translate(-396.526 -97.183)" fill="#e0e0e0"/>
      </g>
      <g id="Grupo_58569" data-name="Grupo 58569" transform="translate(45.82 9.521)">
        <path id="Trazado_103735" data-name="Trazado 103735" d="M391.114,92.074a1.435,1.435,0,0,1-1.468-2.352l9.468-10.137a1.434,1.434,0,1,1,2.1,1.958l-9.468,10.137A1.417,1.417,0,0,1,391.114,92.074Z" transform="translate(-389.259 -79.13)" fill="#e0e0e0"/>
      </g>
      <g id="Grupo_58570" data-name="Grupo 58570" transform="translate(34.285 0)">
        <path id="Trazado_103736" data-name="Trazado 103736" d="M378.991,85.447a1.434,1.434,0,0,1-1.816-1.7l3.132-13.514a1.435,1.435,0,0,1,2.8.648L379.971,84.4A1.434,1.434,0,0,1,378.991,85.447Z" transform="translate(-377.138 -69.126)" fill="#e0e0e0"/>
      </g>
    </g>
    <path id="Trazado_103737" data-name="Trazado 103737" d="M322.886,135.174c2.736-3.471,2.842-5.643,4.974-7.344s4.28-1.812,7.455-.9c2.393.687,5.2.344,6.17,1.232.274.184-.155,1.723-1.279,2.274-1.351.663-3.536.5-5.146.51-3.669.02-.66,3.618-4.192,7.269C329.366,140.834,322.886,135.174,322.886,135.174Z" transform="translate(223.385 4671.932)" fill="#ffa8a7"/>
    <g id="Paper_Plane" data-name="Paper Plane" transform="translate(545.529 4714.786)">
      <g id="Grupo_58574" data-name="Grupo 58574" transform="translate(84.785 115.652)">
        <path id="Trazado_103738" data-name="Trazado 103738" d="M411.2,192.389l33.666-21.561,14.83,4.761Z" transform="translate(-411.2 -160.657)" fill="#31d9e7"/>
        <path id="Trazado_103739" data-name="Trazado 103739" d="M411.2,191.872l29.1-24.266-6.466-7.467Z" transform="translate(-411.2 -160.14)" fill="#31d9e7"/>
        <path id="Trazado_103740" data-name="Trazado 103740" d="M440.3,167.986v5.631l-29.1,18.635Z" transform="translate(-411.2 -160.519)" fill="#31d9e7"/>
        <path id="Trazado_103741" data-name="Trazado 103741" d="M440.3,167.986v5.631l-29.1,18.635Z" transform="translate(-411.2 -160.519)" opacity="0.25"/>
      </g>
      <g id="Grupo_58578" data-name="Grupo 58578" transform="translate(0 0)">
        <g id="Grupo_58575" data-name="Grupo 58575" transform="translate(119.835 116.357)">
          <path id="Trazado_103742" data-name="Trazado 103742" d="M448.983,164.384a.953.953,0,0,1-.623-1.672q.881-.761,1.726-1.568a.952.952,0,0,1,1.314,1.377q-.881.839-1.795,1.632A.95.95,0,0,1,448.983,164.384Z" transform="translate(-448.031 -160.88)" fill="#e0e0e0"/>
        </g>
        <g id="Grupo_58576" data-name="Grupo 58576" transform="translate(6.688)">
          <path id="Trazado_103743" data-name="Trazado 103743" d="M448.241,153.481a.953.953,0,0,1-.716-1.58c1-1.136,1.969-2.345,2.89-3.592a.952.952,0,0,1,1.532,1.13c-.954,1.291-1.96,2.542-2.991,3.718A.95.95,0,0,1,448.241,153.481Zm5.579-7.535a.952.952,0,0,1-.806-1.457c.8-1.284,1.578-2.632,2.3-4.008a.952.952,0,1,1,1.683.889c-.748,1.416-1.546,2.8-2.374,4.129A.948.948,0,0,1,453.819,145.946Zm4.381-8.293a.951.951,0,0,1-.869-1.336c.618-1.4,1.2-2.843,1.729-4.3a.951.951,0,1,1,1.787.652c-.543,1.493-1.141,2.977-1.777,4.413A.951.951,0,0,1,458.2,137.653Zm3.218-8.815a.965.965,0,0,1-.267-.038.952.952,0,0,1-.646-1.181c.431-1.471.821-2.981,1.161-4.487a.952.952,0,1,1,1.857.418c-.348,1.545-.749,3.094-1.191,4.6A.953.953,0,0,1,461.418,128.838Zm2.062-9.156a.9.9,0,0,1-.15-.012.95.95,0,0,1-.79-1.089c.242-1.517.439-3.063.586-4.6a.951.951,0,1,1,1.894.182c-.15,1.574-.353,3.161-.6,4.716A.952.952,0,0,1,463.48,119.682Zm.891-9.344h-.031a.954.954,0,0,1-.921-.982c.023-.732.034-1.466.034-2.2q0-1.218-.042-2.433a.95.95,0,0,1,.917-.984.926.926,0,0,1,.984.917q.044,1.249.044,2.5,0,1.129-.034,2.258A.953.953,0,0,1,464.371,110.338Zm-.333-9.379a.952.952,0,0,1-.946-.854c-.158-1.541-.372-3.082-.636-4.584a.952.952,0,1,1,1.876-.328c.27,1.546.49,3.134.654,4.717a.951.951,0,0,1-.85,1.044C464.1,100.957,464.07,100.959,464.038,100.959Zm-1.625-9.244a.954.954,0,0,1-.922-.718c-.379-1.5-.817-2.989-1.3-4.434a.951.951,0,0,1,1.8-.607c.5,1.489.955,3.029,1.347,4.575a.954.954,0,0,1-.69,1.156A.944.944,0,0,1,462.413,91.715Zm-3-8.888a.95.95,0,0,1-.874-.574c-.612-1.417-1.287-2.815-2.007-4.153a.952.952,0,0,1,1.677-.9c.745,1.387,1.445,2.834,2.077,4.3a.952.952,0,0,1-.874,1.328Zm-4.446-8.256a.952.952,0,0,1-.8-.428c-.845-1.282-1.756-2.535-2.708-3.724a.952.952,0,0,1,1.486-1.19c.99,1.234,1.936,2.535,2.812,3.867a.952.952,0,0,1-.794,1.475Zm-5.856-7.324a.948.948,0,0,1-.689-.294c-1.042-1.093-2.157-2.177-3.315-3.224a.952.952,0,1,1,1.276-1.412c1.192,1.078,2.341,2.2,3.415,3.322a.951.951,0,0,1-.688,1.608Zm-6.956-6.3a.943.943,0,0,1-.588-.2c-1.191-.938-2.447-1.864-3.729-2.754a.952.952,0,0,1,1.084-1.565c1.315.912,2.6,1.862,3.824,2.825a.952.952,0,0,1-.59,1.7Zm-7.712-5.35a.952.952,0,0,1-.5-.139c-1.3-.794-2.654-1.572-4.027-2.313a.951.951,0,1,1,.9-1.675c1.4.758,2.788,1.552,4.117,2.364a.951.951,0,0,1-.5,1.763Zm-8.26-4.462a.936.936,0,0,1-.408-.093c-1.39-.661-2.819-1.3-4.245-1.9a.952.952,0,0,1,.735-1.757c1.454.609,2.911,1.259,4.329,1.935a.952.952,0,0,1-.41,1.811Zm-96.092-2.365a.951.951,0,0,1-.321-1.847c1.49-.533,3-1.045,4.474-1.521a.952.952,0,0,1,.584,1.813c-1.46.469-2.946.974-4.417,1.5A.944.944,0,0,1,330.086,48.769ZM417.521,47.5a.965.965,0,0,1-.327-.057c-1.43-.524-2.912-1.03-4.405-1.5a.952.952,0,1,1,.576-1.815c1.519.482,3.028,1,4.484,1.53a.951.951,0,0,1-.327,1.845Zm-78.5-1.609a.952.952,0,0,1-.264-1.866c1.5-.429,3.033-.843,4.565-1.229a.952.952,0,0,1,.465,1.845c-1.513.381-3.028.788-4.5,1.212A.972.972,0,0,1,339.023,45.894Zm69.548-1.23a.948.948,0,0,1-.25-.033c-1.467-.4-2.986-.777-4.519-1.127a.951.951,0,1,1,.423-1.855c1.557.355,3.1.739,4.595,1.145a.952.952,0,0,1-.248,1.87ZM348.131,43.6a.952.952,0,0,1-.2-1.882c1.539-.333,3.1-.642,4.632-.921a.952.952,0,0,1,.341,1.874c-1.515.274-3.052.58-4.571.908A.916.916,0,0,1,348.131,43.6Zm51.286-1.024a.914.914,0,0,1-.175-.015c-1.5-.279-3.044-.535-4.6-.762a.952.952,0,0,1,.275-1.883c1.576.231,3.148.491,4.669.774a.952.952,0,0,1-.172,1.887Zm-42.056-.649a.951.951,0,0,1-.136-1.893c1.562-.229,3.139-.432,4.686-.6a.952.952,0,0,1,.209,1.892c-1.525.17-3.079.37-4.62.595A.862.862,0,0,1,357.361,41.931Zm32.764-.7a.926.926,0,0,1-.1-.006c-1.516-.162-3.079-.3-4.642-.407A.953.953,0,0,1,384.5,39.8a.968.968,0,0,1,1.015-.884c1.588.11,3.174.25,4.713.414a.952.952,0,0,1-.1,1.9Zm-23.439-.332a.952.952,0,0,1-.07-1.9c1.575-.119,3.161-.212,4.716-.275a.928.928,0,0,1,.99.912.951.951,0,0,1-.912.99c-1.533.062-3.1.154-4.652.271Zm14.071-.315h-.03c-1.361-.043-2.729-.065-4.07-.065l-.588,0h0a.952.952,0,0,1,0-1.9l.6,0c1.36,0,2.749.023,4.13.067a.951.951,0,0,1-.03,1.9Z" transform="translate(-329.134 -38.611)" fill="#e0e0e0"/>
        </g>
        <g id="Grupo_58577" data-name="Grupo 58577" transform="translate(0 9.94)">
          <path id="Trazado_103744" data-name="Trazado 103744" d="M323.059,51.848a.951.951,0,0,1-.363-1.831c.74-.305,1.483-.6,2.221-.9a.952.952,0,0,1,.7,1.772q-1.1.431-2.194.884A.957.957,0,0,1,323.059,51.848Z" transform="translate(-322.107 -49.056)" fill="#e0e0e0"/>
        </g>
      </g>
    </g>
    <g id="Paper_Plane-2" data-name="Paper Plane" transform="translate(283.586 4792.829)">
      <g id="Grupo_58579" data-name="Grupo 58579" transform="translate(34.308 0)">
        <path id="Trazado_103745" data-name="Trazado 103745" d="M100.444,142.07,144.2,120.62l-31.56,30.01Z" transform="translate(-83.753 -120.62)" fill="#bb83ff"/>
        <path id="Trazado_103746" data-name="Trazado 103746" d="M143.357,120.62,95.105,136.493l-12.2-8.56Z" transform="translate(-82.905 -120.62)" fill="#bb83ff"/>
        <path id="Trazado_103747" data-name="Trazado 103747" d="M95.725,136.493l1.906,12.254,2.584-6.677,43.761-21.45Z" transform="translate(-83.525 -120.62)" fill="#bb83ff"/>
        <path id="Trazado_103748" data-name="Trazado 103748" d="M95.725,136.493l1.906,12.254,2.584-6.677,43.761-21.45Z" transform="translate(-83.525 -120.62)" opacity="0.25"/>
        <path id="Trazado_103749" data-name="Trazado 103749" d="M97.729,149.837l6.651-3.824-4.067-2.853Z" transform="translate(-83.621 -121.71)" fill="#bb83ff"/>
        <path id="Trazado_103750" data-name="Trazado 103750" d="M100.444,143.16l4.067,2.853-1.061.61Z" transform="translate(-83.753 -121.71)" opacity="0.25"/>
      </g>
      <g id="Grupo_58580" data-name="Grupo 58580" transform="translate(0 23.352)">
        <path id="Trazado_103751" data-name="Trazado 103751" d="M101.14,271.7a.949.949,0,0,1-.322-.055c-1.544-.555-3.05-1.123-4.478-1.689a.951.951,0,1,1,.7-1.769c1.41.559,2.9,1.119,4.421,1.666a.952.952,0,0,1-.322,1.847ZM92.3,268.191a.96.96,0,0,1-.383-.081c-1.481-.652-2.943-1.33-4.348-2.017a.952.952,0,0,1,.836-1.71c1.382.677,2.821,1.345,4.278,1.986a.951.951,0,0,1-.384,1.822ZM83.769,264a.94.94,0,0,1-.456-.117c-1.416-.775-2.814-1.587-4.153-2.412a.952.952,0,1,1,1-1.621c1.312.81,2.681,1.6,4.068,2.364A.951.951,0,0,1,83.769,264Zm-8.085-5a.95.95,0,0,1-.543-.17c-1.33-.928-2.628-1.9-3.86-2.875a.951.951,0,1,1,1.184-1.488c1.2.954,2.468,1.9,3.765,2.8a.951.951,0,0,1-.545,1.732Zm-7.429-5.92a.951.951,0,0,1-.642-.248c-1.193-1.092-2.35-2.23-3.437-3.382a.952.952,0,1,1,1.385-1.307c1.055,1.119,2.177,2.223,3.337,3.283a.951.951,0,0,1-.642,1.654Zm-6.51-6.912a.945.945,0,0,1-.741-.355c-1.007-1.25-1.974-2.556-2.874-3.883a.952.952,0,0,1,1.576-1.069c.871,1.284,1.805,2.549,2.78,3.758a.95.95,0,0,1-.145,1.337A.939.939,0,0,1,61.744,246.173Zm-5.329-7.862a.947.947,0,0,1-.83-.484c-.782-1.387-1.523-2.834-2.2-4.3a.952.952,0,0,1,1.729-.8c.654,1.42,1.369,2.821,2.127,4.162a.952.952,0,0,1-.828,1.419Zm-3.982-8.624a.95.95,0,0,1-.892-.622c-.549-1.481-1.054-3.022-1.5-4.583a.951.951,0,1,1,1.828-.528c.439,1.516.929,3.013,1.461,4.452a.949.949,0,0,1-.562,1.222A.932.932,0,0,1,52.433,229.688Zm-2.648-9.127a.952.952,0,0,1-.929-.749c-.334-1.535-.632-3.127-.884-4.733a.952.952,0,1,1,1.88-.3c.246,1.569.537,3.124.864,4.622a.952.952,0,0,1-.728,1.132A.934.934,0,0,1,49.785,220.561ZM48.3,211.166a.952.952,0,0,1-.946-.853c-.162-1.536-.291-3.146-.388-4.786a.951.951,0,0,1,.895-1.006.966.966,0,0,1,1,.895c.1,1.61.224,3.191.382,4.7a.952.952,0,0,1-.847,1.046A.907.907,0,0,1,48.3,211.166Zm-.495-9.5h-.017a.952.952,0,0,1-.935-.968c.029-1.6.125-3.226.286-4.828a.952.952,0,0,1,1.894.192c-.157,1.548-.25,3.119-.277,4.669A.952.952,0,0,1,47.8,201.668Zm.95-9.459a.9.9,0,0,1-.173-.016.95.95,0,0,1-.763-1.108c.288-1.575.645-3.161,1.061-4.715a.952.952,0,0,1,1.839.491c-.4,1.506-.749,3.042-1.029,4.568A.95.95,0,0,1,48.754,192.208Zm2.452-9.187a.951.951,0,0,1-.9-1.268c.533-1.51,1.135-3.021,1.791-4.49a.951.951,0,1,1,1.738.775c-.634,1.423-1.218,2.886-1.736,4.349A.948.948,0,0,1,51.207,183.021Zm3.869-8.685a.951.951,0,0,1-.836-1.406c.768-1.412,1.6-2.809,2.475-4.151a.952.952,0,0,1,1.595,1.039c-.848,1.3-1.654,2.653-2.4,4.021A.95.95,0,0,1,55.076,174.336Zm5.191-7.965a.951.951,0,0,1-.752-1.533c.983-1.271,2.029-2.517,3.107-3.7a.952.952,0,0,1,1.407,1.282c-1.045,1.147-2.057,2.353-3.009,3.584A.951.951,0,0,1,60.267,166.371Zm6.4-7.023a.952.952,0,0,1-.648-1.648c1.176-1.1,2.411-2.157,3.667-3.149a.951.951,0,1,1,1.18,1.492c-1.216.961-2.411,1.987-3.55,3.049A.949.949,0,0,1,66.671,159.348Zm7.458-5.893a.952.952,0,0,1-.528-1.744c1.334-.886,2.724-1.73,4.13-2.509a.952.952,0,1,1,.922,1.665c-1.363.754-2.707,1.572-4,2.43A.947.947,0,0,1,74.129,153.455Zm8.315-4.6a.952.952,0,0,1-.393-1.819c1.457-.659,2.962-1.27,4.475-1.817a.952.952,0,1,1,.646,1.79c-1.466.53-2.924,1.122-4.336,1.761A.943.943,0,0,1,82.444,148.851Z" transform="translate(-46.853 -145.159)" fill="#e0e0e0"/>
      </g>
    </g>
    <g id="At" transform="translate(465.66 5047.317)">
      <path id="Trazado_103752" data-name="Trazado 103752" d="M330.342,414.059a.958.958,0,0,0-.486-.85,3.161,3.161,0,0,0-2.1-.617,4.936,4.936,0,0,0-2.2.533l-3.831,2.031a6.913,6.913,0,0,0,.693-1.744,5.562,5.562,0,0,0,.151-1.427c-.018-.8,0-5.238,0-5.658A6.4,6.4,0,0,0,322,403.7a10.026,10.026,0,0,0-3.4-3.85q-1.754-1.35-4.211-2.959t-4.48-2.732a54.565,54.565,0,0,0-11.266-4.492,47.007,47.007,0,0,0-13.012-1.629,60.657,60.657,0,0,0-14.8,2.109,77.522,77.522,0,0,0-16.571,6.674,40.292,40.292,0,0,0-11.238,8.192,17.959,17.959,0,0,0-4.6,8.387,12.489,12.489,0,0,0-.231,2.529c.011.935-.006,4.94,0,5.743a12.32,12.32,0,0,0,1.349,5.539,20.576,20.576,0,0,0,5.9,6.957q.839.651,2.44,1.747t3.409,2.284q1.817,1.191,3.532,2.263t2.8,1.682a47.084,47.084,0,0,0,11.32,4.169,56.023,56.023,0,0,0,13.31,1.471,62.707,62.707,0,0,0,14.447-1.834,71.054,71.054,0,0,0,24.46-11.741,33.661,33.661,0,0,0,5.529-5.294,15.058,15.058,0,0,0,2.652-4.7,28.773,28.773,0,0,0,1-4.16,1.186,1.186,0,0,0,.014-.18C330.344,419.537,330.341,414.112,330.342,414.059ZM316.07,420.9a15.85,15.85,0,0,1-2.186,2.468,30.5,30.5,0,0,1-3.706,2.893,63.886,63.886,0,0,1-5.788,3.4,45.9,45.9,0,0,1-10.068,3.944,44.417,44.417,0,0,1-10.032,1.434,40.916,40.916,0,0,1-9.481-.839,34.921,34.921,0,0,1-8.49-2.927,29.684,29.684,0,0,1-2.777-1.564q-1.607-1-3.285-2.1t-3.161-2.121a20.866,20.866,0,0,1-2.243-1.722,14.976,14.976,0,0,1-4.118-5.33c-.092-.215-.173-.429-.248-.644a13.778,13.778,0,0,1,3.239-4.934,30.655,30.655,0,0,1,7.715-5.482,64.846,64.846,0,0,1,11.217-4.763,45.524,45.524,0,0,1,5.738-1.368l-.981.52A1.767,1.767,0,0,0,276.36,403a1.228,1.228,0,0,0,.671,1.247l.641.421a20.926,20.926,0,0,0-5.068.027,18.372,18.372,0,0,0-6.1,2.18,13.057,13.057,0,0,0-4.619,3.715,6.2,6.2,0,0,0-1.268,3.663c0,.179,0,4.876,0,5.842a5.329,5.329,0,0,0,.027.535,8.681,8.681,0,0,0,1.942,4.413,20.2,20.2,0,0,0,5.008,4.393,30.418,30.418,0,0,0,14.345,4.887,27.916,27.916,0,0,0,7.357-.4,23.817,23.817,0,0,0,6.763-2.36,25.026,25.026,0,0,0,4.092-2.59,9.536,9.536,0,0,0,2.064-2.192,4.147,4.147,0,0,0,.682-1.882,16.034,16.034,0,0,0,.03-1.7,25.473,25.473,0,0,0,5.8-.412,26.049,26.049,0,0,0,7.657-2.835c.151-.081.289-.168.437-.252C316.594,420.084,316.349,420.482,316.07,420.9Zm-33.963-5.615a16.6,16.6,0,0,1,7.033,2.729,15.643,15.643,0,0,1,2.121,1.633,9.969,9.969,0,0,1-1.115.688,11.011,11.011,0,0,1-6.539,1.188,16.1,16.1,0,0,1-7.037-2.684,14.8,14.8,0,0,1-2.174-1.694,8.688,8.688,0,0,1,1.008-.627A11.069,11.069,0,0,1,282.107,415.281Zm26.527-5.634a9.462,9.462,0,0,1-3.41.752,6.542,6.542,0,0,1-3.964-1.024l-12.881-8.435a33.206,33.206,0,0,1,3.858.66,39.653,39.653,0,0,1,9.043,3.392,45.282,45.282,0,0,1,4.207,2.453C306.619,408.185,307.655,408.918,308.634,409.647Z" transform="translate(-238.179 -388.039)" fill="#31d9e7"/>
      <path id="Trazado_103753" data-name="Trazado 103753" d="M330.342,414.059a.958.958,0,0,0-.486-.85,3.161,3.161,0,0,0-2.1-.617,4.936,4.936,0,0,0-2.2.533l-3.831,2.031a6.913,6.913,0,0,0,.693-1.744,5.562,5.562,0,0,0,.151-1.427c-.018-.8,0-5.238,0-5.658A6.4,6.4,0,0,0,322,403.7a10.026,10.026,0,0,0-3.4-3.85q-1.754-1.35-4.211-2.959t-4.48-2.732a54.565,54.565,0,0,0-11.266-4.492,47.007,47.007,0,0,0-13.012-1.629,60.657,60.657,0,0,0-14.8,2.109,77.522,77.522,0,0,0-16.571,6.674,40.292,40.292,0,0,0-11.238,8.192,17.959,17.959,0,0,0-4.6,8.387,12.489,12.489,0,0,0-.231,2.529c.011.935-.006,4.94,0,5.743a12.32,12.32,0,0,0,1.349,5.539,20.576,20.576,0,0,0,5.9,6.957q.839.651,2.44,1.747t3.409,2.284q1.817,1.191,3.532,2.263t2.8,1.682a47.084,47.084,0,0,0,11.32,4.169,56.023,56.023,0,0,0,13.31,1.471,62.707,62.707,0,0,0,14.447-1.834,71.054,71.054,0,0,0,24.46-11.741,33.661,33.661,0,0,0,5.529-5.294,15.058,15.058,0,0,0,2.652-4.7,28.773,28.773,0,0,0,1-4.16,1.186,1.186,0,0,0,.014-.18C330.344,419.537,330.341,414.112,330.342,414.059ZM316.07,420.9a15.85,15.85,0,0,1-2.186,2.468,30.5,30.5,0,0,1-3.706,2.893,63.886,63.886,0,0,1-5.788,3.4,45.9,45.9,0,0,1-10.068,3.944,44.417,44.417,0,0,1-10.032,1.434,40.916,40.916,0,0,1-9.481-.839,34.921,34.921,0,0,1-8.49-2.927,29.684,29.684,0,0,1-2.777-1.564q-1.607-1-3.285-2.1t-3.161-2.121a20.866,20.866,0,0,1-2.243-1.722,14.976,14.976,0,0,1-4.118-5.33c-.092-.215-.173-.429-.248-.644a13.778,13.778,0,0,1,3.239-4.934,30.655,30.655,0,0,1,7.715-5.482,64.846,64.846,0,0,1,11.217-4.763,45.524,45.524,0,0,1,5.738-1.368l-.981.52A1.767,1.767,0,0,0,276.36,403a1.228,1.228,0,0,0,.671,1.247l.641.421a20.926,20.926,0,0,0-5.068.027,18.372,18.372,0,0,0-6.1,2.18,13.057,13.057,0,0,0-4.619,3.715,6.2,6.2,0,0,0-1.268,3.663c0,.179,0,4.876,0,5.842a5.329,5.329,0,0,0,.027.535,8.681,8.681,0,0,0,1.942,4.413,20.2,20.2,0,0,0,5.008,4.393,30.418,30.418,0,0,0,14.345,4.887,27.916,27.916,0,0,0,7.357-.4,23.817,23.817,0,0,0,6.763-2.36,25.026,25.026,0,0,0,4.092-2.59,9.536,9.536,0,0,0,2.064-2.192,4.147,4.147,0,0,0,.682-1.882,16.034,16.034,0,0,0,.03-1.7,25.473,25.473,0,0,0,5.8-.412,26.049,26.049,0,0,0,7.657-2.835c.151-.081.289-.168.437-.252C316.594,420.084,316.349,420.482,316.07,420.9Zm-33.963-5.615a16.6,16.6,0,0,1,7.033,2.729,15.643,15.643,0,0,1,2.121,1.633,9.969,9.969,0,0,1-1.115.688,11.011,11.011,0,0,1-6.539,1.188,16.1,16.1,0,0,1-7.037-2.684,14.8,14.8,0,0,1-2.174-1.694,8.688,8.688,0,0,1,1.008-.627A11.069,11.069,0,0,1,282.107,415.281Zm26.527-5.634a9.462,9.462,0,0,1-3.41.752,6.542,6.542,0,0,1-3.964-1.024l-12.881-8.435a33.206,33.206,0,0,1,3.858.66,39.653,39.653,0,0,1,9.043,3.392,45.282,45.282,0,0,1,4.207,2.453C306.619,408.185,307.655,408.918,308.634,409.647Z" transform="translate(-238.179 -388.039)" opacity="0.2"/>
      <path id="Trazado_103754" data-name="Trazado 103754" d="M251.086,418.135a13.791,13.791,0,0,1,3.239-4.934,30.655,30.655,0,0,1,7.715-5.482,64.846,64.846,0,0,1,11.217-4.763A45.524,45.524,0,0,1,279,401.588l3.466-1.837a4.531,4.531,0,0,1,2.2-.488,3.726,3.726,0,0,1,2.033.524l2.288,1.5a33.172,33.172,0,0,1,3.858.66,39.653,39.653,0,0,1,9.043,3.392,45.418,45.418,0,0,1,4.208,2.453c1.131.74,2.165,1.473,3.145,2.2.186-.081.375-.156.552-.249a3.465,3.465,0,0,0,1.989-2.194q.277-1.286-1.83-2.87-1.754-1.35-3.856-2.726a45.425,45.425,0,0,0-4.208-2.453,39.653,39.653,0,0,0-9.043-3.392,33.587,33.587,0,0,0-9.439-.862,41.429,41.429,0,0,0-10.14,1.871,64.845,64.845,0,0,0-11.217,4.763,30.655,30.655,0,0,0-7.715,5.482,13,13,0,0,0-3.481,5.726,8.713,8.713,0,0,0,.49,5.69,12.717,12.717,0,0,0,1.636,2.743,12.717,12.717,0,0,1-1.636-2.743C251.242,418.564,251.161,418.35,251.086,418.135Z" transform="translate(-238.778 -388.386)" opacity="0.1"/>
      <path id="Trazado_103755" data-name="Trazado 103755" d="M290.894,413.256a16.6,16.6,0,0,0-7.032-2.729,11.072,11.072,0,0,0-6.7,1.233q-3,1.587-2.658,3.729a5.048,5.048,0,0,0,1.659,2.744l-.009-.008a8.688,8.688,0,0,1,1.008-.627,11.069,11.069,0,0,1,6.7-1.233,16.6,16.6,0,0,1,7.033,2.729,15.643,15.643,0,0,1,2.121,1.633q-.24.17-.506.337c1.676-1.026,2.433-2.159,2.252-3.4C294.553,416.281,293.27,414.811,290.894,413.256Z" transform="translate(-239.933 -389.122)" opacity="0.1"/>
      <path id="Trazado_103756" data-name="Trazado 103756" d="M283.077,429.8a30.419,30.419,0,0,1-14.345-4.887,20.2,20.2,0,0,1-5.008-4.393,8.681,8.681,0,0,1-1.942-4.413,5.569,5.569,0,0,1,0-.845c-.006.1-.026.2-.026.305,0,.179,0,4.876,0,5.842a5.329,5.329,0,0,0,.027.535,8.681,8.681,0,0,0,1.942,4.413,20.2,20.2,0,0,0,5.008,4.393,30.418,30.418,0,0,0,14.345,4.887Z" transform="translate(-239.319 -389.355)" opacity="0.1"/>
      <path id="Trazado_103757" data-name="Trazado 103757" d="M306.214,418.823a16.288,16.288,0,0,1-.03,1.7l.03,4.134a25.476,25.476,0,0,0,5.8-.412v-5.837A25.477,25.477,0,0,1,306.214,418.823Z" transform="translate(-241.467 -389.508)" opacity="0.1"/>
      <path id="Trazado_103758" data-name="Trazado 103758" d="M268.93,441.889a47.1,47.1,0,0,1-11.32-4.169q-1.079-.607-2.8-1.682t-3.531-2.263q-1.817-1.189-3.41-2.284t-2.44-1.747a20.576,20.576,0,0,1-5.9-6.957,12.314,12.314,0,0,1-1.34-5.579c0,.045-.006.089-.006.134.011.935-.006,4.94,0,5.743a12.345,12.345,0,0,0,1.349,5.539,20.576,20.576,0,0,0,5.9,6.957q.839.651,2.44,1.747t3.409,2.284q1.817,1.191,3.532,2.263t2.8,1.682a47.091,47.091,0,0,0,11.321,4.169,56.008,56.008,0,0,0,13.308,1.471V443.36A56.019,56.019,0,0,1,268.93,441.889Z" transform="translate(-238.179 -389.45)" opacity="0.1"/>
      <path id="Trazado_103759" data-name="Trazado 103759" d="M318.593,399.853a10.026,10.026,0,0,1,3.4,3.85,6.007,6.007,0,0,1,.418,3.871,7.9,7.9,0,0,1-2.045,3.573,15.248,15.248,0,0,1-3.991,2.96,26.051,26.051,0,0,1-7.657,2.835,25.477,25.477,0,0,1-5.8.412,16.033,16.033,0,0,1-.03,1.7,4.146,4.146,0,0,1-.682,1.882,9.536,9.536,0,0,1-2.064,2.192,25.065,25.065,0,0,1-4.092,2.59,23.817,23.817,0,0,1-6.763,2.36,27.915,27.915,0,0,1-7.357.4,30.419,30.419,0,0,1-14.345-4.887,20.2,20.2,0,0,1-5.008-4.393,8.681,8.681,0,0,1-1.942-4.413,6.054,6.054,0,0,1,1.241-4.2,13.043,13.043,0,0,1,4.618-3.715,18.372,18.372,0,0,1,6.1-2.18,20.926,20.926,0,0,1,5.068-.027l-.641-.421A1.228,1.228,0,0,1,276.36,403a1.767,1.767,0,0,1,1.055-1.235l4.447-2.356a4.531,4.531,0,0,1,2.2-.488,3.726,3.726,0,0,1,2.033.524l15.169,9.934a6.542,6.542,0,0,0,3.964,1.024,9.193,9.193,0,0,0,3.962-1,3.465,3.465,0,0,0,1.989-2.194q.275-1.286-1.83-2.87-1.754-1.35-3.857-2.726a45.288,45.288,0,0,0-4.207-2.453,39.653,39.653,0,0,0-9.043-3.392,33.587,33.587,0,0,0-9.439-.862,41.429,41.429,0,0,0-10.14,1.871,64.845,64.845,0,0,0-11.217,4.763,30.656,30.656,0,0,0-7.715,5.482,13,13,0,0,0-3.481,5.726,8.713,8.713,0,0,0,.49,5.69,14.976,14.976,0,0,0,4.118,5.33,20.868,20.868,0,0,0,2.243,1.722q1.49,1.025,3.161,2.121t3.285,2.1a29.68,29.68,0,0,0,2.777,1.564,34.921,34.921,0,0,0,8.49,2.927,40.916,40.916,0,0,0,9.481.839,44.417,44.417,0,0,0,10.032-1.434,45.913,45.913,0,0,0,10.068-3.944,64.023,64.023,0,0,0,5.788-3.4,30.5,30.5,0,0,0,3.706-2.893,14.4,14.4,0,0,0,3.419-4.6,8.759,8.759,0,0,1,.677-1.328,3.43,3.43,0,0,1,1.249-.957l6.326-3.354a4.949,4.949,0,0,1,2.2-.533,3.161,3.161,0,0,1,2.1.617.96.96,0,0,1,.472,1.015,28.662,28.662,0,0,1-1,4.16,15.035,15.035,0,0,1-2.651,4.7,33.661,33.661,0,0,1-5.529,5.294,71.054,71.054,0,0,1-24.46,11.741,62.711,62.711,0,0,1-14.447,1.834,56.022,56.022,0,0,1-13.31-1.471,47.1,47.1,0,0,1-11.32-4.169q-1.079-.607-2.8-1.682t-3.532-2.263q-1.816-1.189-3.409-2.284t-2.44-1.747a20.576,20.576,0,0,1-5.9-6.957,12.226,12.226,0,0,1-1.114-7.975,17.959,17.959,0,0,1,4.6-8.387,40.292,40.292,0,0,1,11.238-8.192,77.542,77.542,0,0,1,16.571-6.674,60.658,60.658,0,0,1,14.8-2.109,47.009,47.009,0,0,1,13.011,1.629,54.565,54.565,0,0,1,11.266,4.492q2.023,1.123,4.48,2.732T318.593,399.853Zm-42.024,18.982a16.1,16.1,0,0,0,7.037,2.684,11.011,11.011,0,0,0,6.539-1.188q3.162-1.674,2.861-3.751c-.207-1.382-1.491-2.852-3.867-4.408a16.611,16.611,0,0,0-7.032-2.728,11.071,11.071,0,0,0-6.7,1.233q-3,1.587-2.658,3.729T276.569,418.835Z" transform="translate(-238.179 -388.039)" fill="#31d9e7"/>
    </g>
    <g id="Mail" transform="translate(547.403 4993.732)">
      <path id="Trazado_103760" data-name="Trazado 103760" d="M324.076,371.2v.7a3.882,3.882,0,0,0,1.756,3.041L363.5,396.686a3.88,3.88,0,0,0,3.511,0l62.37-36.008a3.882,3.882,0,0,0,1.756-3.041v-.7a3.881,3.881,0,0,0-1.757-3.041l-37.663-21.745a3.883,3.883,0,0,0-3.512,0L325.832,368.16A3.879,3.879,0,0,0,324.076,371.2Z" transform="translate(-324.076 -331.731)" fill="#27debf"/>
      <path id="Trazado_103761" data-name="Trazado 103761" d="M324.076,371.2v.7a3.882,3.882,0,0,0,1.756,3.041L363.5,396.686a3.88,3.88,0,0,0,3.511,0l62.37-36.008a3.882,3.882,0,0,0,1.756-3.041v-.7a3.881,3.881,0,0,0-1.757-3.041l-37.663-21.745a3.883,3.883,0,0,0-3.512,0L325.832,368.16A3.879,3.879,0,0,0,324.076,371.2Z" transform="translate(-324.076 -331.731)" fill="#c7b0e3"/>
      <path id="Trazado_103762" data-name="Trazado 103762" d="M365.252,346.1l-39.42,22.759a3.879,3.879,0,0,0-1.756,3.041v.7a3.882,3.882,0,0,0,1.756,3.041l37.663,21.745a3.591,3.591,0,0,0,1.756.42h0Z" transform="translate(-324.076 -332.426)" opacity="0.2"/>
      <path id="Trazado_103763" data-name="Trazado 103763" d="M365.252,346.1l-39.42,22.759a3.879,3.879,0,0,0-1.756,3.041v.7a3.882,3.882,0,0,0,1.756,3.041l37.663,21.745a3.591,3.591,0,0,0,1.756.42h0Z" transform="translate(-324.076 -332.426)" opacity="0.15"/>
      <path id="Trazado_103764" data-name="Trazado 103764" d="M431.468,353.9,393.8,332.151a3.883,3.883,0,0,0-3.512,0L367.344,345.4v51.706h0a3.568,3.568,0,0,0,1.756-.42l62.37-36.008a3.882,3.882,0,0,0,1.756-3.041v-.7A3.881,3.881,0,0,0,431.468,353.9Z" transform="translate(-326.168 -331.731)" opacity="0.2"/>
      <path id="Trazado_103765" data-name="Trazado 103765" d="M357.518,388.451l-31.634-18.264a1.07,1.07,0,0,1,0-2.027l62.369-36.009a3.883,3.883,0,0,1,3.512,0L429.428,353.9a1.07,1.07,0,0,1,0,2.028L419.081,361.9l-3.622,2.091-48.4,27.944a3.883,3.883,0,0,1-3.512,0l-3.068-1.771Z" transform="translate(-324.128 -331.731)" fill="#c7b0e3"/>
      <path id="Trazado_103766" data-name="Trazado 103766" d="M386.234,358.11l43.194-4.214-42.814,2.424,5.15-24.169a3.647,3.647,0,0,0-1.913-.4l-8.079,32.671-56.6,4.668a1.176,1.176,0,0,0,.714,1.1l45.711-2.653L365.3,392.352l8.045-24.92h0l7.807-.453a4.222,4.222,0,0,0,2.576-1.077h0l0-.006a4.231,4.231,0,0,0,1.318-2.266Z" transform="translate(-324.129 -331.732)" opacity="0.15"/>
      <path id="Trazado_103767" data-name="Trazado 103767" d="M338.677,367.974l43.1-3.554,1.544-6.176.851-3.438,5.69-23.056a3.52,3.52,0,0,0-1.6.4l-31.184,18-31.184,18.005a1.272,1.272,0,0,0-.714.927l8.645-.713Z" transform="translate(-324.129 -331.732)" fill="#fff" opacity="0.3"/>
    </g>
  </g>
</svg>
