<svg xmlns="http://www.w3.org/2000/svg" width="61.194" height="58.169" viewBox="0 0 61.194 58.169">
  <g id="Grupo_58500" data-name="Grupo 58500" transform="translate(-808.992 -192.736)">
    <g id="Grupo_58499" data-name="Grupo 58499" transform="translate(818.647 227.639)">
      <path id="Trazado_103455" data-name="Trazado 103455" d="M812.209,222.928a4.7,4.7,0,0,0,4.7,4.7h0a4.7,4.7,0,0,0,4.7-4.7V204.365h-9.4Z" transform="translate(-812.209 -204.365)" fill="#fff"/>
      <g id="Grupo_58498" data-name="Grupo 58498" transform="translate(6.072 1.855)">
        <path id="Trazado_103456" data-name="Trazado 103456" d="M816.09,204.983a1.858,1.858,0,1,0,0,3.716h1.474v-3.716Z" transform="translate(-814.232 -204.983)" fill="#e6e5e5"/>
        <path id="Trazado_103457" data-name="Trazado 103457" d="M816.09,206.839a1.856,1.856,0,1,0,0,3.713h1.474v-3.713Z" transform="translate(-814.232 -201.268)" fill="#e6e5e5"/>
        <path id="Trazado_103458" data-name="Trazado 103458" d="M816.09,208.694a1.858,1.858,0,1,0,0,3.716h1.474v-3.716Z" transform="translate(-814.232 -197.556)" fill="#e6e5e5"/>
      </g>
      <rect id="Rectángulo_5651" data-name="Rectángulo 5651" width="1.568" height="3.714" transform="translate(9.403 1.856)" fill="#343b43"/>
    </g>
    <path id="Trazado_103459" data-name="Trazado 103459" d="M827.525,198.386v11.138a5.569,5.569,0,1,0,0-11.138Z" transform="translate(37.091 11.308)" fill="#fff"/>
    <path id="Trazado_103460" data-name="Trazado 103460" d="M813.944,214.68H811.18a2.188,2.188,0,0,1-2.188-2.188V199.538a2.178,2.178,0,0,1,2.188-2.182h2.764Z" transform="translate(0 9.246)" fill="#343b43"/>
    <path id="Trazado_103461" data-name="Trazado 103461" d="M829.451,220.87H812.824a2.183,2.183,0,0,1-2.182-2.185V198.3a2.177,2.177,0,0,1,2.182-2.185h16.627Z" transform="translate(3.302 6.769)" fill="#fd8369"/>
    <path id="Trazado_103462" data-name="Trazado 103462" d="M829.451,212.619H812.824a2.183,2.183,0,0,1-2.182-2.185V200.241h18.809Z" transform="translate(3.302 15.02)" fill="#ea6552"/>
    <path id="Trazado_103463" data-name="Trazado 103463" d="M816.909,202.886v24.752l27.64,10.147V192.736Z" transform="translate(15.845 0.001)" fill="#fff"/>
    <path id="Trazado_103464" data-name="Trazado 103464" d="M816.909,200.241v12.378l27.64,10.147V200.241Z" transform="translate(15.845 15.021)" fill="#f2f2f2"/>
    <path id="Trazado_103465" data-name="Trazado 103465" d="M831.07,235.6a2.183,2.183,0,0,1-2.188,2.185h-2.764v-45.05h2.764a2.188,2.188,0,0,1,2.188,2.188Z" transform="translate(34.275)" fill="#343b43"/>
  </g>
</svg>
