<svg xmlns="http://www.w3.org/2000/svg" width="543.894" height="337.203" viewBox="0 0 543.894 337.203">
  <g id="Grupo_58893" data-name="Grupo 58893" transform="translate(-184 -5235.5)">
    <g id="Grupo_58597" data-name="Grupo 58597" transform="translate(668.321 5368.357)" opacity="0.6">
      <g id="Grupo_58582" data-name="Grupo 58582">
        <path id="Trazado_103768" data-name="Trazado 103768" d="M679.855,209.373s-6.563-.472-5.959,14.25A170.583,170.583,0,0,0,676,246.187s-.193,3.264-2.721,2.624-7.284-3.817-9.633-1.443c-2.436,2.463-1.57,6.241,1.662,10.69s9.953,14.458,10.557,15.366c.593.891.832,2.561-.961,2.4s-13.889-4.261-15.491,1.6,9.437,16.774,10.621,17.99,1.248,1.984.767,2.72-4.417-1.025-7.9-2.05-7.713-1.6-8.354,1.853,4.221,13.571,22.43,24.2l8.759,4.373,8.291-5.288c17.054-12.4,20.88-22.949,19.9-26.324s-5.129-2.378-8.5-1.009-7.109,3.515-7.66,2.831-.565-1.454.492-2.784,10.948-13.295,8.768-18.962-13.806-.377-15.573-.039-1.7-1.346-1.2-2.291c.51-.964,6.2-11.594,8.968-16.344s3.254-8.6.583-10.8c-2.574-2.128-6.988,1.509-9.441,2.4s-2.969-2.338-2.969-2.338a170.637,170.637,0,0,0-.161-22.662c-.872-14.71-7.512-13.522-7.512-13.522" transform="translate(-654.491 -209.35)" fill="#31d9e7"/>
      </g>
      <g id="Grupo_58584" data-name="Grupo 58584" transform="translate(25.881 13.208)">
        <g id="Grupo_58583" data-name="Grupo 58583">
          <path id="Trazado_103769" data-name="Trazado 103769" d="M687.824,226.361s.017.1.035.307l.07.9c.055.81.134,1.978.236,3.476.2,3.02.459,7.391.757,12.793.6,10.8,1.3,25.738,2.023,42.232s1.385,31.434,1.925,42.241c.274,5.392.5,9.76.651,12.8l.173,3.479c.016.387.028.687.037.905s0,.309,0,.309-.017-.1-.035-.307-.04-.518-.07-.9c-.055-.81-.134-1.978-.235-3.476-.2-3.02-.46-7.391-.758-12.793-.6-10.805-1.3-25.74-2.023-42.239s-1.385-31.427-1.925-42.234l-.651-12.8c-.075-1.5-.133-2.669-.173-3.48-.016-.387-.028-.687-.036-.905S687.824,226.361,687.824,226.361Z" transform="translate(-687.822 -226.361)" fill="#31d9e7"/>
        </g>
      </g>
      <g id="Grupo_58586" data-name="Grupo 58586" transform="translate(15.631 42.729)">
        <g id="Grupo_58585" data-name="Grupo 58585">
          <path id="Trazado_103770" data-name="Trazado 103770" d="M674.623,264.381a2.82,2.82,0,0,1,.545.453c.337.306.81.763,1.389,1.335,1.156,1.145,2.711,2.769,4.393,4.592l4.284,4.688,1.3,1.414a2.869,2.869,0,0,1,.456.542,2.852,2.852,0,0,1-.548-.45c-.336-.307-.81-.765-1.384-1.343-1.144-1.157-2.677-2.8-4.358-4.624l-4.316-4.654-1.311-1.409A2.867,2.867,0,0,1,674.623,264.381Z" transform="translate(-674.622 -264.379)" fill="#31d9e7"/>
        </g>
      </g>
      <g id="Grupo_58588" data-name="Grupo 58588" transform="translate(28.872 40.715)">
        <g id="Grupo_58587" data-name="Grupo 58587">
          <path id="Trazado_103771" data-name="Trazado 103771" d="M691.675,276.536c-.066-.065,3.137-3.42,7.154-7.492s7.328-7.322,7.394-7.257-3.136,3.419-7.154,7.492S691.74,276.6,691.675,276.536Z" transform="translate(-691.674 -261.786)" fill="#31d9e7"/>
        </g>
      </g>
      <g id="Grupo_58590" data-name="Grupo 58590" transform="translate(28.836 71.27)">
        <g id="Grupo_58589" data-name="Grupo 58589">
          <path id="Trazado_103772" data-name="Trazado 103772" d="M691.628,310.715a3.064,3.064,0,0,1,.61-.388l1.714-.961c1.446-.812,3.438-1.941,5.592-3.265s4.07-2.581,5.448-3.5l1.635-1.09a2.989,2.989,0,0,1,.623-.368,2.994,2.994,0,0,1-.547.474c-.365.288-.9.693-1.575,1.179-1.346.974-3.243,2.27-5.408,3.594s-4.178,2.428-5.656,3.188c-.74.377-1.343.676-1.766.869A2.955,2.955,0,0,1,691.628,310.715Z" transform="translate(-691.628 -301.137)" fill="#31d9e7"/>
        </g>
      </g>
      <g id="Grupo_58592" data-name="Grupo 58592" transform="translate(14.324 71.963)">
        <g id="Grupo_58591" data-name="Grupo 58591">
          <path id="Trazado_103773" data-name="Trazado 103773" d="M672.939,302.031a2.55,2.55,0,0,1,.606.284c.378.2.921.5,1.588.883,1.333.758,3.163,1.824,5.174,3.021s3.823,2.3,5.126,3.105c.651.4,1.176.738,1.534.974a2.566,2.566,0,0,1,.539.4,2.606,2.606,0,0,1-.606-.284c-.379-.2-.921-.5-1.588-.883-1.333-.758-3.164-1.824-5.175-3.021s-3.823-2.3-5.125-3.105c-.651-.4-1.176-.738-1.534-.974A2.583,2.583,0,0,1,672.939,302.031Z" transform="translate(-672.938 -302.029)" fill="#31d9e7"/>
        </g>
      </g>
      <g id="Grupo_58594" data-name="Grupo 58594" transform="translate(11.446 94.369)">
        <g id="Grupo_58593" data-name="Grupo 58593">
          <path id="Trazado_103774" data-name="Trazado 103774" d="M669.232,330.886a4.151,4.151,0,0,1,.77.373l2.039,1.124c1.714.962,4.07,2.312,6.662,3.82s4.931,2.891,6.614,3.906l1.985,1.216a4.191,4.191,0,0,1,.705.486,4.2,4.2,0,0,1-.77-.373l-2.039-1.124c-1.714-.963-4.07-2.312-6.663-3.82s-4.93-2.89-6.613-3.9l-1.985-1.217A4.23,4.23,0,0,1,669.232,330.886Z" transform="translate(-669.232 -330.884)" fill="#31d9e7"/>
        </g>
      </g>
      <g id="Grupo_58596" data-name="Grupo 58596" transform="translate(29.845 92.218)">
        <g id="Grupo_58595" data-name="Grupo 58595">
          <path id="Trazado_103775" data-name="Trazado 103775" d="M692.928,340.8a4.834,4.834,0,0,1,.762-.51l2.129-1.3c1.8-1.095,4.275-2.615,6.962-4.369s5.087-3.4,6.813-4.6l2.048-1.423a4.783,4.783,0,0,1,.774-.49,4.854,4.854,0,0,1-.7.6c-.462.366-1.139.884-1.986,1.509-1.694,1.254-4.072,2.934-6.769,4.688s-5.195,3.249-7.025,4.292c-.916.52-1.662.933-2.184,1.206A4.845,4.845,0,0,1,692.928,340.8Z" transform="translate(-692.928 -328.114)" fill="#31d9e7"/>
        </g>
      </g>
    </g>
    <g id="Grupo_58618" data-name="Grupo 58618" transform="translate(687.099 5488.382)">
      <g id="Grupo_58599" data-name="Grupo 58599">
        <g id="Grupo_58598" data-name="Grupo 58598">
          <path id="Trazado_103776" data-name="Trazado 103776" d="M702.907,363.925H678.674l7.909,59.872H695Z" transform="translate(-678.674 -363.925)" fill="#e0e0e0"/>
        </g>
      </g>
      <g id="Grupo_58602" data-name="Grupo 58602" transform="translate(1.256 4.891)">
        <g id="Grupo_58601" data-name="Grupo 58601">
          <g id="Grupo_58600" data-name="Grupo 58600">
            <path id="Trazado_103777" data-name="Trazado 103777" d="M680.293,372.693c-.009.005.027.085.13.213a1.534,1.534,0,0,0,.585.419,2.935,2.935,0,0,0,2.559-.314c.978-.54,1.831-1.6,3.142-2.069a6.875,6.875,0,0,1,4.456.089,19.1,19.1,0,0,1,4.149,2.01,28.646,28.646,0,0,0,3.375,1.811,9.34,9.34,0,0,0,2.489.72,4.678,4.678,0,0,0,.7.047c.161,0,.245-.007.245-.02a12.634,12.634,0,0,1-3.324-1,33.018,33.018,0,0,1-3.3-1.867,18.405,18.405,0,0,0-4.22-2.076,7.109,7.109,0,0,0-4.7-.051,6.191,6.191,0,0,0-1.77,1.095,13.879,13.879,0,0,1-1.387,1.075,2.847,2.847,0,0,1-2.361.409A2.453,2.453,0,0,1,680.293,372.693Z" transform="translate(-680.291 -370.225)" fill="#f5f5f5"/>
          </g>
        </g>
      </g>
      <g id="Grupo_58605" data-name="Grupo 58605" transform="translate(2.139 13.992)">
        <g id="Grupo_58604" data-name="Grupo 58604">
          <g id="Grupo_58603" data-name="Grupo 58603">
            <path id="Trazado_103778" data-name="Trazado 103778" d="M681.431,386.34c.033.02.192-.246.571-.642a5.392,5.392,0,0,1,1.936-1.228,8.626,8.626,0,0,1,3.37-.508,35.531,35.531,0,0,1,4.217.575,14.525,14.525,0,0,0,4.317.179,11.9,11.9,0,0,0,3.4-.971,10.83,10.83,0,0,0,2.043-1.214,2.893,2.893,0,0,0,.647-.582,21.511,21.511,0,0,1-2.8,1.541,12.416,12.416,0,0,1-3.33.865,14.889,14.889,0,0,1-4.212-.208,31.833,31.833,0,0,0-4.268-.548,8.533,8.533,0,0,0-3.486.613,5.085,5.085,0,0,0-1.944,1.384,3.429,3.429,0,0,0-.367.537C681.451,386.262,681.42,386.333,681.431,386.34Z" transform="translate(-681.429 -381.945)" fill="#f5f5f5"/>
          </g>
        </g>
      </g>
      <g id="Grupo_58608" data-name="Grupo 58608" transform="translate(3.513 22.619)">
        <g id="Grupo_58607" data-name="Grupo 58607">
          <g id="Grupo_58606" data-name="Grupo 58606">
            <path id="Trazado_103779" data-name="Trazado 103779" d="M701.174,394.727a2.034,2.034,0,0,0-.668-.347,7.131,7.131,0,0,0-2.009-.43,12.821,12.821,0,0,0-3.036.173c-1.131.183-2.342.5-3.614.766a15.281,15.281,0,0,1-3.609.408,7.884,7.884,0,0,1-2.865-.62,6.626,6.626,0,0,1-2.173-1.618,1.886,1.886,0,0,0,.411.633,5.114,5.114,0,0,0,1.645,1.238,7.72,7.72,0,0,0,2.966.73,14.548,14.548,0,0,0,3.706-.384c1.287-.273,2.489-.594,3.6-.794a13.864,13.864,0,0,1,2.958-.253A11.123,11.123,0,0,1,701.174,394.727Z" transform="translate(-683.198 -393.055)" fill="#f5f5f5"/>
          </g>
        </g>
      </g>
      <g id="Grupo_58611" data-name="Grupo 58611" transform="translate(4.283 31.185)">
        <g id="Grupo_58610" data-name="Grupo 58610">
          <g id="Grupo_58609" data-name="Grupo 58609">
            <path id="Trazado_103780" data-name="Trazado 103780" d="M684.19,405.5a3.93,3.93,0,0,1,2.353-.238,11.394,11.394,0,0,1,2.461.918,9.34,9.34,0,0,0,3.2.881,9.586,9.586,0,0,0,5.8-1.343,8.227,8.227,0,0,0,1.443-1.11c.3-.314.446-.495.427-.513a21.372,21.372,0,0,1-2.01,1.381,9.932,9.932,0,0,1-5.622,1.191c-2.294-.131-4.055-1.5-5.646-1.68a3.612,3.612,0,0,0-1.828.158C684.351,405.3,684.177,405.482,684.19,405.5Z" transform="translate(-684.189 -404.088)" fill="#f5f5f5"/>
          </g>
        </g>
      </g>
      <g id="Grupo_58614" data-name="Grupo 58614" transform="translate(5.633 40.738)">
        <g id="Grupo_58613" data-name="Grupo 58613">
          <g id="Grupo_58612" data-name="Grupo 58612">
            <path id="Trazado_103781" data-name="Trazado 103781" d="M685.928,419.738a4.652,4.652,0,0,0,2.02-.4c1.218-.407,2.726-1.341,4.487-2.04a7.286,7.286,0,0,1,2.575-.54,4.742,4.742,0,0,1,2.07.472,4.586,4.586,0,0,1,1.5,1.292,1.1,1.1,0,0,0-.23-.511,3.326,3.326,0,0,0-1.135-1.027,4.742,4.742,0,0,0-2.2-.59,7.213,7.213,0,0,0-2.722.534c-1.825.727-3.285,1.688-4.448,2.149C686.7,419.572,685.919,419.675,685.928,419.738Z" transform="translate(-685.928 -416.39)" fill="#f5f5f5"/>
          </g>
        </g>
      </g>
      <g id="Grupo_58617" data-name="Grupo 58617" transform="translate(6.821 49.417)">
        <g id="Grupo_58616" data-name="Grupo 58616">
          <g id="Grupo_58615" data-name="Grupo 58615">
            <path id="Trazado_103782" data-name="Trazado 103782" d="M687.458,427.583a5.657,5.657,0,0,0,1.534.5,28.225,28.225,0,0,0,7.724.759,5.645,5.645,0,0,0,1.6-.189c-.006-.12-2.456-.015-5.452-.316S687.487,427.467,687.458,427.583Z" transform="translate(-687.458 -427.568)" fill="#f5f5f5"/>
          </g>
        </g>
      </g>
    </g>
    <g id="Grupo_58623" data-name="Grupo 58623" transform="translate(622.754 5271.261)">
      <g id="Grupo_58620" data-name="Grupo 58620">
        <rect id="Rectángulo_5655" data-name="Rectángulo 5655" width="74.824" height="49.194" fill="#e0e0e0"/>
      </g>
      <g id="Grupo_58621" data-name="Grupo 58621" transform="translate(2.603 2.011)">
        <rect id="Rectángulo_5656" data-name="Rectángulo 5656" width="69.58" height="44.983" fill="#fafafa"/>
      </g>
      <g id="Grupo_58622" data-name="Grupo 58622" transform="translate(26.043 18.408)">
        <rect id="Rectángulo_5657" data-name="Rectángulo 5657" width="22.699" height="12.378" fill="#e0e0e0"/>
      </g>
    </g>
    <g id="Grupo_58625" data-name="Grupo 58625" transform="translate(184 5548.845)">
      <g id="Grupo_58624" data-name="Grupo 58624">
        <path id="Trazado_103783" data-name="Trazado 103783" d="M565.356,442c0,.112-119.684.2-267.289.2-147.655,0-267.314-.09-267.314-.2s119.659-.2,267.314-.2C445.671,441.793,565.356,441.884,565.356,442Z" transform="translate(-30.752 -441.793)" fill="#263238"/>
      </g>
    </g>
    <g id="Grupo_58644" data-name="Grupo 58644" transform="translate(385.375 5235.5)">
      <g id="Grupo_58626" data-name="Grupo 58626">
        <path id="Rectángulo_5658" data-name="Rectángulo 5658" d="M0,0H160.233a0,0,0,0,1,0,0V148.981a16.22,16.22,0,0,1-16.22,16.22H0a0,0,0,0,1,0,0V0A0,0,0,0,1,0,0Z" fill="#ebebeb"/>
      </g>
      <g id="Grupo_58641" data-name="Grupo 58641" transform="translate(17.639 48.561)">
        <g id="Grupo_58628" data-name="Grupo 58628">
          <g id="Grupo_58627" data-name="Grupo 58627">
            <path id="Trazado_103784" data-name="Trazado 103784" d="M442.175,101.394c0,.335-28.961.606-64.678.606s-64.684-.272-64.684-.606,28.955-.606,64.684-.606S442.175,101.06,442.175,101.394Z" transform="translate(-312.813 -100.788)" fill="#455a64"/>
          </g>
        </g>
        <g id="Grupo_58630" data-name="Grupo 58630" transform="translate(1.537 11.191)">
          <g id="Grupo_58629" data-name="Grupo 58629">
            <path id="Trazado_103785" data-name="Trazado 103785" d="M378.705,115.806c0,.335-14.309.607-31.954.607s-31.958-.272-31.958-.607,14.305-.606,31.958-.606S378.705,115.472,378.705,115.806Z" transform="translate(-314.793 -115.2)" fill="#455a64"/>
          </g>
        </g>
        <g id="Grupo_58632" data-name="Grupo 58632" transform="translate(74.086 10.154)">
          <g id="Grupo_58631" data-name="Grupo 58631">
            <path id="Trazado_103786" data-name="Trazado 103786" d="M425.154,114.471c0,.335-3.79.607-8.464.607s-8.464-.272-8.464-.607,3.788-.606,8.464-.606S425.154,114.137,425.154,114.471Z" transform="translate(-408.226 -113.865)" fill="#455a64"/>
          </g>
        </g>
        <g id="Grupo_58634" data-name="Grupo 58634" transform="translate(99.306 9.464)">
          <g id="Grupo_58633" data-name="Grupo 58633">
            <path id="Trazado_103787" data-name="Trazado 103787" d="M474.216,113.582c0,.335-7.5.606-16.755.606s-16.756-.272-16.756-.606,7.5-.606,16.756-.606S474.216,113.247,474.216,113.582Z" transform="translate(-440.705 -112.976)" fill="#455a64"/>
          </g>
        </g>
        <g id="Grupo_58636" data-name="Grupo 58636" transform="translate(0 21.901)">
          <g id="Grupo_58635" data-name="Grupo 58635">
            <path id="Trazado_103788" data-name="Trazado 103788" d="M372.925,129.6c0,.335-13.458.606-30.054.606s-30.058-.272-30.058-.606,13.455-.606,30.058-.606S372.925,129.264,372.925,129.6Z" transform="translate(-312.813 -128.993)" fill="#455a64"/>
          </g>
        </g>
        <g id="Grupo_58638" data-name="Grupo 58638" transform="translate(67.176 21.592)">
          <g id="Grupo_58637" data-name="Grupo 58637">
            <path id="Trazado_103789" data-name="Trazado 103789" d="M464.967,129.2c0,.335-14.695.606-32.818.606s-32.822-.271-32.822-.606,14.692-.606,32.822-.606S464.967,128.867,464.967,129.2Z" transform="translate(-399.327 -128.595)" fill="#455a64"/>
          </g>
        </g>
        <g id="Grupo_58640" data-name="Grupo 58640" transform="translate(103.59 32.368)">
          <g id="Grupo_58639" data-name="Grupo 58639">
            <path id="Trazado_103790" data-name="Trazado 103790" d="M475.449,143.08c0,.335-6.543.607-14.612.607s-14.614-.272-14.614-.607,6.542-.606,14.614-.606S475.449,142.746,475.449,143.08Z" transform="translate(-446.223 -142.474)" fill="#455a64"/>
          </g>
        </g>
      </g>
      <g id="Grupo_58643" data-name="Grupo 58643" transform="translate(19.177 36.565)">
        <g id="Grupo_58642" data-name="Grupo 58642">
          <path id="Trazado_103791" data-name="Trazado 103791" d="M385.613,85.945c0,.335-15.855.606-35.408.606s-35.411-.271-35.411-.606,15.851-.606,35.411-.606S385.613,85.611,385.613,85.945Z" transform="translate(-314.793 -85.339)" fill="#e8505b"/>
        </g>
      </g>
    </g>
    <g id="Grupo_58665" data-name="Grupo 58665" transform="translate(238.887 5328.032)">
      <g id="Grupo_58660" data-name="Grupo 58660">
        <g id="Grupo_58659" data-name="Grupo 58659">
          <g id="Grupo_58658" data-name="Grupo 58658">
            <g id="Grupo_58647" data-name="Grupo 58647" transform="translate(13.454)">
              <g id="Grupo_58646" data-name="Grupo 58646">
                <g id="Grupo_58645" data-name="Grupo 58645">
                  <rect id="Rectángulo_5659" data-name="Rectángulo 5659" width="332.85" height="220.111" rx="14.567" fill="#263238"/>
                </g>
              </g>
            </g>
            <g id="Grupo_58650" data-name="Grupo 58650" transform="translate(0 203.831)">
              <g id="Grupo_58649" data-name="Grupo 58649">
                <g id="Grupo_58648" data-name="Grupo 58648">
                  <path id="Rectángulo_5660" data-name="Rectángulo 5660" d="M0,0H360.618a0,0,0,0,1,0,0V1.462a17.8,17.8,0,0,1-17.8,17.8H17.8A17.8,17.8,0,0,1,0,1.462V0A0,0,0,0,1,0,0Z" fill="#263238"/>
                </g>
              </g>
            </g>
            <g id="Grupo_58653" data-name="Grupo 58653" transform="translate(22.854 8.745)">
              <g id="Grupo_58652" data-name="Grupo 58652">
                <g id="Grupo_58651" data-name="Grupo 58651">
                  <rect id="Rectángulo_5661" data-name="Rectángulo 5661" width="314.05" height="185.88" fill="#929da2"/>
                </g>
              </g>
            </g>
            <g id="Grupo_58657" data-name="Grupo 58657" transform="translate(147.532 203.615)">
              <g id="Grupo_58656" data-name="Grupo 58656">
                <g id="Grupo_58655" data-name="Grupo 58655">
                  <g id="Grupo_58654" data-name="Grupo 58654">
                    <path id="Trazado_103792" data-name="Trazado 103792" d="M291.44,419.861c-.006,0,.111-.007.347-.01l1.055-.011,4.1-.023,15.217-.061,50.878-.109h.376l-.19.325-2.019,3.46-2.136,3.658-.062.107h-.123l-62.969-.117h-.054l-.028-.045-3.3-5.362-.828-1.359c-.184-.3-.266-.449-.266-.449s.113.164.313.471.5.774.881,1.361L296,426.927l-.082-.045,62.969-.118-.186.106,2.135-3.658,2.02-3.46.186.324-50.67-.109-15.289-.062-4.164-.023-1.091-.01C291.576,419.868,291.44,419.861,291.44,419.861Z" transform="translate(-291.44 -419.645)" fill="#455a64"/>
                  </g>
                </g>
              </g>
            </g>
          </g>
        </g>
      </g>
      <g id="Grupo_58664" data-name="Grupo 58664" transform="translate(13.454 203.629)">
        <g id="Grupo_58661" data-name="Grupo 58661" transform="translate(0 0.202)">
          <line id="Línea_160" data-name="Línea 160" x2="332.85" fill="#263238"/>
        </g>
        <g id="Grupo_58663" data-name="Grupo 58663" transform="translate(0)">
          <g id="Grupo_58662" data-name="Grupo 58662">
            <path id="Trazado_103793" data-name="Trazado 103793" d="M451.616,419.865c0,.112-74.517.2-166.417.2-91.932,0-166.433-.091-166.433-.2s74.5-.2,166.433-.2C377.1,419.663,451.616,419.753,451.616,419.865Z" transform="translate(-118.766 -419.663)" fill="#455a64"/>
          </g>
        </g>
      </g>
    </g>
    <g id="Grupo_58726" data-name="Grupo 58726" transform="translate(305.663 5299.395)">
      <g id="Grupo_58666" data-name="Grupo 58666" transform="translate(176.076 0.26)">
        <path id="Trazado_103794" data-name="Trazado 103794" d="M432.7,120.871h0a9.3,9.3,0,0,1,9.3,9.3v19.08H414.2v-17.6a10.776,10.776,0,0,1,10.776-10.776Z" transform="translate(-414.199 -120.871)" fill="#263238"/>
      </g>
      <g id="Grupo_58668" data-name="Grupo 58668" transform="translate(77.407 0)">
        <g id="Grupo_58667" data-name="Grupo 58667">
          <path id="Trazado_103795" data-name="Trazado 103795" d="M404.3,120.8c0,.112-26.233.179-58.585.151s-58.589-.141-58.589-.253,26.226-.179,58.59-.151S404.3,120.684,404.3,120.8Z" transform="translate(-287.127 -120.536)" fill="#263238"/>
        </g>
      </g>
      <g id="Grupo_58669" data-name="Grupo 58669" transform="translate(23.152 0.158)">
        <path id="Trazado_103796" data-name="Trazado 103796" d="M388.438,120.819l-11.594-.08-16.842.1H236.277a19.023,19.023,0,0,0-19.023,19.023V344.29H377.486V131.271C377.956,120.841,388.438,120.819,388.438,120.819Z" transform="translate(-217.254 -120.739)" fill="#fafafa"/>
      </g>
      <g id="Grupo_58670" data-name="Grupo 58670" transform="translate(22.765 0.028)">
        <path id="Trazado_103797" data-name="Trazado 103797" d="M388.327,120.782l-96.614.21-48.307.036-6.039,0c-1.012-.019-2,.04-3,.093a19.518,19.518,0,0,0-2.93.534,18.667,18.667,0,0,0-12.81,11.49c-.156.471-.372.923-.481,1.409l-.37,1.443a20.479,20.479,0,0,0-.346,2.956c-.085,4-.019,8.044-.036,12.064l.129,193.231-.386-.387,160.232.1-.282.283.078-114.922.092-57.46.056-28.73.014-7.182.007-3.591a11.725,11.725,0,0,1,.075-1.794,9.629,9.629,0,0,1,.282-1.774,9.507,9.507,0,0,1,3.88-5.85,11.246,11.246,0,0,1,3.222-1.556A13.557,13.557,0,0,1,388.327,120.782Zm0,0a13.561,13.561,0,0,0-3.524.626,11.235,11.235,0,0,0-3.21,1.566,9.466,9.466,0,0,0-3.842,5.84,9.671,9.671,0,0,0-.273,1.766,11.758,11.758,0,0,0-.068,1.79l.007,3.591.014,7.183.056,28.731.092,57.46.078,114.918v.282h-.283l-160.232.1h-.387v-.386l.129-193.231c.023-4.03-.039-8.04.053-12.087a20.99,20.99,0,0,1,.36-3.034l.381-1.481a15.25,15.25,0,0,1,.495-1.446,19.152,19.152,0,0,1,13.15-11.765,20.085,20.085,0,0,1,3-.543c1.018-.054,2.037-.112,3.039-.091l6.038,0,48.308.036Z" transform="translate(-216.756 -120.571)" fill="#263238"/>
      </g>
      <g id="Grupo_58671" data-name="Grupo 58671" transform="translate(47.243 37.041)">
        <path id="Trazado_103798" data-name="Trazado 103798" d="M248.325,168.24h27.961l.045,9.365h-1.338q-.658-5.026-3.764-6.8a11.6,11.6,0,0,0-5.216-1.069V194.2q0,2.565.9,3.4t3.73.84v1.179H254.085v-1.179q2.721,0,3.618-.851t.9-3.393V169.736a11.9,11.9,0,0,0-5.216,1.069q-3.333,1.82-3.764,6.8H248.28Z" transform="translate(-248.28 -168.24)" fill="#bb83ff"/>
      </g>
      <g id="Grupo_58673" data-name="Grupo 58673" transform="translate(92.502 38.546)">
        <g id="Grupo_58672" data-name="Grupo 58672">
          <path id="Trazado_103799" data-name="Trazado 103799" d="M375.463,170.784c0,.335-15.424.606-34.446.606s-34.449-.271-34.449-.606,15.42-.606,34.449-.606S375.463,170.45,375.463,170.784Z" transform="translate(-306.567 -170.178)" fill="#e8505b"/>
        </g>
      </g>
      <g id="Grupo_58675" data-name="Grupo 58675" transform="translate(93.884 49.554)">
        <g id="Grupo_58674" data-name="Grupo 58674">
          <path id="Trazado_103800" data-name="Trazado 103800" d="M334.985,184.96c0,.335-5.963.606-13.318.606s-13.32-.272-13.32-.606,5.962-.606,13.32-.606S334.985,184.626,334.985,184.96Z" transform="translate(-308.347 -184.354)" fill="#455a64"/>
        </g>
      </g>
      <g id="Grupo_58677" data-name="Grupo 58677" transform="translate(36.358 83.131)">
        <g id="Grupo_58676" data-name="Grupo 58676">
          <path id="Trazado_103801" data-name="Trazado 103801" d="M284.85,228.2c0,.335-11.326.606-25.294.606s-25.3-.272-25.3-.606,11.323-.607,25.3-.607S284.85,227.869,284.85,228.2Z" transform="translate(-234.261 -227.597)" fill="#455a64"/>
        </g>
      </g>
      <g id="Grupo_58679" data-name="Grupo 58679" transform="translate(93.644 83.131)">
        <g id="Grupo_58678" data-name="Grupo 58678">
          <path id="Trazado_103802" data-name="Trazado 103802" d="M358.627,228.2c0,.335-11.325.606-25.293.606s-25.3-.272-25.3-.606,11.323-.607,25.3-.607S358.627,227.869,358.627,228.2Z" transform="translate(-308.038 -227.597)" fill="#e8505b"/>
        </g>
      </g>
      <g id="Grupo_58681" data-name="Grupo 58681" transform="translate(36.358 92.098)">
        <g id="Grupo_58680" data-name="Grupo 58680">
          <path id="Trazado_103803" data-name="Trazado 103803" d="M284.85,239.752c0,.335-11.326.606-25.294.606s-25.3-.271-25.3-.606,11.323-.606,25.3-.606S284.85,239.418,284.85,239.752Z" transform="translate(-234.261 -239.146)" fill="#455a64"/>
        </g>
      </g>
      <g id="Grupo_58683" data-name="Grupo 58683" transform="translate(36.358 101.066)">
        <g id="Grupo_58682" data-name="Grupo 58682">
          <path id="Trazado_103804" data-name="Trazado 103804" d="M284.85,251.3c0,.335-11.326.606-25.294.606s-25.3-.272-25.3-.606,11.323-.606,25.3-.606S284.85,250.966,284.85,251.3Z" transform="translate(-234.261 -250.695)" fill="#e8505b"/>
        </g>
      </g>
      <g id="Grupo_58685" data-name="Grupo 58685" transform="translate(93.884 67.819)">
        <g id="Grupo_58684" data-name="Grupo 58684">
          <path id="Trazado_103805" data-name="Trazado 103805" d="M334.985,208.483c0,.335-5.963.607-13.318.607s-13.32-.272-13.32-.607,5.962-.606,13.32-.606S334.985,208.149,334.985,208.483Z" transform="translate(-308.347 -207.877)" fill="#455a64"/>
        </g>
      </g>
      <g id="Grupo_58687" data-name="Grupo 58687" transform="translate(148.962 83.131)">
        <g id="Grupo_58686" data-name="Grupo 58686">
          <path id="Trazado_103806" data-name="Trazado 103806" d="M397.039,228.2c0,.335-3.976.606-8.879.606s-8.88-.272-8.88-.606,3.975-.607,8.88-.607S397.039,227.869,397.039,228.2Z" transform="translate(-379.28 -227.597)" fill="#455a64"/>
        </g>
      </g>
      <g id="Grupo_58689" data-name="Grupo 58689" transform="translate(125.765 49.554)">
        <g id="Grupo_58688" data-name="Grupo 58688">
          <path id="Trazado_103807" data-name="Trazado 103807" d="M395.113,184.96c0,.335-10.233.606-22.853.606s-22.854-.272-22.854-.606,10.23-.606,22.854-.606S395.113,184.626,395.113,184.96Z" transform="translate(-349.406 -184.354)" fill="#455a64"/>
        </g>
      </g>
      <g id="Grupo_58691" data-name="Grupo 58691" transform="translate(93.884 58.297)">
        <g id="Grupo_58690" data-name="Grupo 58690">
          <path id="Trazado_103808" data-name="Trazado 103808" d="M383.872,196.221c0,.335-16.909.607-37.761.607s-37.764-.272-37.764-.607,16.9-.606,37.764-.606S383.872,195.887,383.872,196.221Z" transform="translate(-308.347 -195.615)" fill="#455a64"/>
        </g>
      </g>
      <g id="Grupo_58693" data-name="Grupo 58693" transform="translate(93.644 92.098)">
        <g id="Grupo_58692" data-name="Grupo 58692">
          <path id="Trazado_103809" data-name="Trazado 103809" d="M381.115,239.752c0,.335-16.36.606-36.537.606s-36.54-.271-36.54-.606,16.357-.606,36.54-.606S381.115,239.418,381.115,239.752Z" transform="translate(-308.038 -239.146)" fill="#455a64"/>
        </g>
      </g>
      <g id="Grupo_58695" data-name="Grupo 58695" transform="translate(98.149 118.059)">
        <g id="Grupo_58694" data-name="Grupo 58694">
          <path id="Trazado_103810" data-name="Trazado 103810" d="M382.412,273.186c0,.335-15.352.606-34.285.606s-34.287-.272-34.287-.606,15.348-.607,34.287-.607S382.412,272.851,382.412,273.186Z" transform="translate(-313.84 -272.579)" fill="#e8505b"/>
        </g>
      </g>
      <g id="Grupo_58697" data-name="Grupo 58697" transform="translate(98.149 126.786)">
        <g id="Grupo_58696" data-name="Grupo 58696">
          <path id="Trazado_103811" data-name="Trazado 103811" d="M382.412,284.425c0,.335-15.352.606-34.285.606s-34.287-.271-34.287-.606,15.348-.606,34.287-.606S382.412,284.091,382.412,284.425Z" transform="translate(-313.84 -283.819)" fill="#455a64"/>
        </g>
      </g>
      <g id="Grupo_58699" data-name="Grupo 58699" transform="translate(98.149 135.514)">
        <g id="Grupo_58698" data-name="Grupo 58698">
          <path id="Trazado_103812" data-name="Trazado 103812" d="M382.412,295.665c0,.335-15.352.606-34.285.606s-34.287-.272-34.287-.606,15.348-.606,34.287-.606S382.412,295.33,382.412,295.665Z" transform="translate(-313.84 -295.059)" fill="#455a64"/>
        </g>
      </g>
      <g id="Grupo_58701" data-name="Grupo 58701" transform="translate(98.149 144.241)">
        <g id="Grupo_58700" data-name="Grupo 58700">
          <path id="Trazado_103813" data-name="Trazado 103813" d="M382.412,306.9c0,.335-15.352.607-34.285.607s-34.287-.272-34.287-.607,15.348-.606,34.287-.606S382.412,306.57,382.412,306.9Z" transform="translate(-313.84 -306.298)" fill="#455a64"/>
        </g>
      </g>
      <g id="Grupo_58703" data-name="Grupo 58703" transform="translate(98.149 152.968)">
        <g id="Grupo_58702" data-name="Grupo 58702">
          <path id="Trazado_103814" data-name="Trazado 103814" d="M353.315,318.144c0,.168-2.209.319-5.781.429s-8.506.177-13.956.177-10.386-.068-13.958-.177-5.781-.262-5.781-.429,2.209-.319,5.781-.429,8.506-.178,13.958-.178,10.384.068,13.956.178S353.315,317.977,353.315,318.144Z" transform="translate(-313.84 -317.538)" fill="#455a64"/>
        </g>
      </g>
      <g id="Grupo_58705" data-name="Grupo 58705" transform="translate(95.233 101.535)">
        <g id="Grupo_58704" data-name="Grupo 58704">
          <path id="Trazado_103815" data-name="Trazado 103815" d="M369.148,251.905c0,.335-13.223.607-29.53.607s-29.533-.272-29.533-.607,13.22-.606,29.533-.606S369.148,251.571,369.148,251.905Z" transform="translate(-310.085 -251.299)" fill="#455a64"/>
        </g>
      </g>
      <g id="Grupo_58717" data-name="Grupo 58717" transform="translate(0 114.979)">
        <g id="Grupo_58708" data-name="Grupo 58708" transform="translate(23.468 4.1)">
          <g id="Grupo_58707" data-name="Grupo 58707">
            <g id="Grupo_58706" data-name="Grupo 58706">
              <path id="Trazado_103816" data-name="Trazado 103816" d="M279.943,274.465l3.638,67.366-65.869,8.25-.051-76.187Z" transform="translate(-217.661 -273.894)" fill="#e0e0e0"/>
            </g>
          </g>
        </g>
        <g id="Grupo_58711" data-name="Grupo 58711" transform="translate(0 0)">
          <g id="Grupo_58710" data-name="Grupo 58710">
            <g id="Grupo_58709" data-name="Grupo 58709">
              <rect id="Rectángulo_5662" data-name="Rectángulo 5662" width="71.465" height="89.39" transform="translate(0 71.463) rotate(-89.632)" fill="#f5f5f5"/>
            </g>
          </g>
        </g>
        <g id="Grupo_58712" data-name="Grupo 58712" transform="translate(3.111 4.519)">
          <rect id="Rectángulo_5663" data-name="Rectángulo 5663" width="62.467" height="83.11" transform="translate(0 62.466) rotate(-89.632)" fill="#bb83ff"/>
        </g>
        <g id="Grupo_58713" data-name="Grupo 58713" transform="translate(3.111 28.343)" opacity="0.2">
          <path id="Trazado_103817" data-name="Trazado 103817" d="M191.443,343.756l29.277-38.642,17.825,24.408,12.279-12.908,23.727,27.676Z" transform="translate(-191.443 -305.115)"/>
        </g>
        <g id="Grupo_58716" data-name="Grupo 58716" transform="translate(44.945 17.165)" opacity="0.2">
          <g id="Grupo_58715" data-name="Grupo 58715">
            <g id="Grupo_58714" data-name="Grupo 58714">
              <path id="Trazado_103818" data-name="Trazado 103818" d="M258.408,297.305a6.544,6.544,0,1,1-6.5-6.586A6.544,6.544,0,0,1,258.408,297.305Z" transform="translate(-245.32 -290.719)"/>
            </g>
          </g>
        </g>
      </g>
      <g id="Grupo_58721" data-name="Grupo 58721" transform="translate(95.233 202.497)">
        <g id="Grupo_58718" data-name="Grupo 58718">
          <path id="Trazado_103819" data-name="Trazado 103819" d="M312.849,382.706a1.382,1.382,0,1,1-1.381-1.382A1.381,1.381,0,0,1,312.849,382.706Z" transform="translate(-310.085 -381.324)" fill="#263238"/>
        </g>
        <g id="Grupo_58719" data-name="Grupo 58719" transform="translate(8.202)">
          <path id="Trazado_103820" data-name="Trazado 103820" d="M323.412,382.706a1.382,1.382,0,1,1-1.382-1.382A1.381,1.381,0,0,1,323.412,382.706Z" transform="translate(-320.648 -381.324)" fill="#263238"/>
        </g>
        <g id="Grupo_58720" data-name="Grupo 58720" transform="translate(16.405)">
          <path id="Trazado_103821" data-name="Trazado 103821" d="M333.976,382.706a1.382,1.382,0,1,1-1.381-1.382A1.381,1.381,0,0,1,333.976,382.706Z" transform="translate(-331.212 -381.324)" fill="#263238"/>
        </g>
      </g>
      <g id="Grupo_58723" data-name="Grupo 58723" transform="translate(94.029 171.154)">
        <g id="Grupo_58722" data-name="Grupo 58722">
          <path id="Trazado_103822" data-name="Trazado 103822" d="M359.123,341.565c0,.335-11.326.606-25.293.606s-25.3-.271-25.3-.606,11.323-.606,25.3-.606S359.123,341.231,359.123,341.565Z" transform="translate(-308.534 -340.959)" fill="#e8505b"/>
        </g>
      </g>
      <g id="Grupo_58725" data-name="Grupo 58725" transform="translate(94.029 180.122)">
        <g id="Grupo_58724" data-name="Grupo 58724">
          <path id="Trazado_103823" data-name="Trazado 103823" d="M381.61,353.114c0,.335-16.36.606-36.536.606s-36.54-.272-36.54-.606,16.357-.606,36.54-.606S381.61,352.779,381.61,353.114Z" transform="translate(-308.534 -352.508)" fill="#455a64"/>
        </g>
      </g>
    </g>
    <g id="Grupo_58752" data-name="Grupo 58752" transform="translate(605.023 5486.853)">
      <g id="Grupo_58732" data-name="Grupo 58732" transform="translate(28.24 8.21)">
        <g id="Grupo_58729" data-name="Grupo 58729" transform="translate(0)">
          <g id="Grupo_58728" data-name="Grupo 58728">
            <g id="Grupo_58727" data-name="Grupo 58727">
              <rect id="Rectángulo_5664" data-name="Rectángulo 5664" width="43.047" height="53.845" transform="translate(0 43.047) rotate(-89.632)" fill="#f5f5f5"/>
            </g>
          </g>
        </g>
        <rect id="Rectángulo_5665" data-name="Rectángulo 5665" width="37.628" height="50.062" transform="translate(1.874 40.349) rotate(-89.632)" fill="#e8505b"/>
        <path id="Trazado_103824" data-name="Trazado 103824" d="M611.753,417.793l17.635-23.276,10.737,14.7,7.4-7.775,14.292,16.671Z" transform="translate(-609.879 -377.444)" opacity="0.2"/>
        <g id="Grupo_58731" data-name="Grupo 58731" transform="translate(27.073 10.339)" opacity="0.2">
          <g id="Grupo_58730" data-name="Grupo 58730">
            <path id="Trazado_103825" data-name="Trazado 103825" d="M652.089,389.812a3.941,3.941,0,1,1-3.916-3.967A3.941,3.941,0,0,1,652.089,389.812Z" transform="translate(-644.206 -385.845)"/>
          </g>
        </g>
      </g>
      <g id="Grupo_58738" data-name="Grupo 58738" transform="translate(20.344 3.715)">
        <g id="Grupo_58735" data-name="Grupo 58735" transform="translate(0 0)">
          <g id="Grupo_58734" data-name="Grupo 58734">
            <g id="Grupo_58733" data-name="Grupo 58733">
              <rect id="Rectángulo_5666" data-name="Rectángulo 5666" width="43.047" height="53.845" transform="translate(0 43.047) rotate(-89.632)" fill="#f5f5f5"/>
            </g>
          </g>
        </g>
        <rect id="Rectángulo_5667" data-name="Rectángulo 5667" width="37.628" height="50.062" transform="translate(1.874 40.349) rotate(-89.632)" fill="#e8505b"/>
        <path id="Trazado_103826" data-name="Trazado 103826" d="M601.584,412l17.635-23.276,10.737,14.7,7.4-7.775,14.292,16.671Z" transform="translate(-599.71 -371.655)" opacity="0.2"/>
        <g id="Grupo_58737" data-name="Grupo 58737" transform="translate(27.073 10.339)" opacity="0.2">
          <g id="Grupo_58736" data-name="Grupo 58736">
            <path id="Trazado_103827" data-name="Trazado 103827" d="M641.92,384.023A3.941,3.941,0,1,1,638,380.056,3.942,3.942,0,0,1,641.92,384.023Z" transform="translate(-634.037 -380.056)"/>
          </g>
        </g>
      </g>
      <g id="Grupo_58744" data-name="Grupo 58744" transform="translate(13.312)">
        <g id="Grupo_58741" data-name="Grupo 58741">
          <g id="Grupo_58740" data-name="Grupo 58740">
            <g id="Grupo_58739" data-name="Grupo 58739">
              <rect id="Rectángulo_5668" data-name="Rectángulo 5668" width="43.047" height="53.845" transform="translate(0 43.047) rotate(-89.632)" fill="#f5f5f5"/>
            </g>
          </g>
        </g>
        <rect id="Rectángulo_5669" data-name="Rectángulo 5669" width="37.628" height="50.062" transform="translate(1.874 40.349) rotate(-89.632)" fill="#e8505b"/>
        <path id="Trazado_103828" data-name="Trazado 103828" d="M592.528,407.22l17.635-23.276,10.737,14.7,7.4-7.775,14.292,16.671Z" transform="translate(-590.654 -366.871)" opacity="0.2"/>
        <g id="Grupo_58743" data-name="Grupo 58743" transform="translate(27.072 10.339)" opacity="0.2">
          <g id="Grupo_58742" data-name="Grupo 58742">
            <path id="Trazado_103829" data-name="Trazado 103829" d="M632.864,379.239a3.942,3.942,0,1,1-3.917-3.967A3.942,3.942,0,0,1,632.864,379.239Z" transform="translate(-624.98 -375.272)"/>
          </g>
        </g>
      </g>
      <g id="Grupo_58750" data-name="Grupo 58750" transform="translate(5.416 4.624)">
        <g id="Grupo_58747" data-name="Grupo 58747" transform="translate(0 0)">
          <g id="Grupo_58746" data-name="Grupo 58746">
            <g id="Grupo_58745" data-name="Grupo 58745">
              <rect id="Rectángulo_5670" data-name="Rectángulo 5670" width="43.047" height="53.845" transform="translate(0 43.047) rotate(-89.632)" fill="#f5f5f5"/>
            </g>
          </g>
        </g>
        <rect id="Rectángulo_5671" data-name="Rectángulo 5671" width="37.628" height="50.062" transform="translate(1.874 40.349) rotate(-89.632)" fill="#455a64"/>
        <path id="Trazado_103830" data-name="Trazado 103830" d="M582.358,413.174,599.994,389.9l10.737,14.7,7.4-7.775L632.419,413.5Z" transform="translate(-580.485 -372.826)" opacity="0.2"/>
        <g id="Grupo_58749" data-name="Grupo 58749" transform="translate(27.072 10.339)" opacity="0.2">
          <g id="Grupo_58748" data-name="Grupo 58748">
            <path id="Trazado_103831" data-name="Trazado 103831" d="M622.695,385.194a3.942,3.942,0,1,1-3.917-3.967A3.942,3.942,0,0,1,622.695,385.194Z" transform="translate(-614.811 -381.227)"/>
          </g>
        </g>
      </g>
      <g id="Grupo_58751" data-name="Grupo 58751" transform="translate(0 20.63)">
        <rect id="Rectángulo_5672" data-name="Rectángulo 5672" width="31.086" height="41.563" transform="translate(59.536)" fill="#263238"/>
        <path id="Trazado_103832" data-name="Trazado 103832" d="M572.971,388.526v41.563h62.173V388.526Zm37.7,9.836H597.448a2.861,2.861,0,0,1,0-5.722h13.219a2.861,2.861,0,0,1,0,5.722Z" transform="translate(-572.971 -388.526)" fill="#e8505b"/>
      </g>
    </g>
    <g id="Grupo_58877" data-name="Grupo 58877" transform="translate(411.204 5409.101)">
      <g id="Grupo_58789" data-name="Grupo 58789" transform="translate(0 56.102)">
        <g id="Grupo_58762" data-name="Grupo 58762" transform="translate(0 74.652)">
          <g id="Grupo_58753" data-name="Grupo 58753">
            <path id="Trazado_103833" data-name="Trazado 103833" d="M476.865,435.063l-57.814-3.541c-.364-.827-.607-1.308-.607-1.308l-15.669.312-5.1-.312s-.078.155-.2.418l-52.6,1.047c-10.486,0-21.512,6.4-21.512,14.574-.133,7.78,3.635,16.226,13.032,16.034l71.665-.241,71.665.241c9.4.192,11.881-5.475,11.895-12.2C492.718,437.572,484.876,435.167,476.865,435.063Z" transform="translate(-323.36 -430.214)" fill="#455a64"/>
          </g>
          <g id="Grupo_58755" data-name="Grupo 58755" transform="translate(19.613 10.175)">
            <g id="Grupo_58754" data-name="Grupo 58754">
              <path id="Trazado_103834" data-name="Trazado 103834" d="M348.618,465.221s.116-.013.345-.019l1.013-.019,3.9-.037,14.42-.063,48.12-.064-.2.214c-.1-1.571-.2-3.252-.309-4.946-.216-3.467-.428-6.877-.63-10.121l.178.186-44.329-4.933-13.136-1.5-3.539-.424-.915-.119a1.985,1.985,0,0,1-.31-.053,1.911,1.911,0,0,1,.314.016l.92.082,3.546.354,13.15,1.382,44.343,4.8.168.018.01.169c.2,3.243.417,6.654.634,10.121.106,1.694.21,3.375.308,4.947l.013.214h-.215l-48.12-.064-14.42-.062-3.9-.036-1.013-.019C348.734,465.234,348.618,465.221,348.618,465.221Z" transform="translate(-348.618 -443.319)" fill="#263238"/>
            </g>
          </g>
          <g id="Grupo_58757" data-name="Grupo 58757" transform="translate(19.006 6.777)">
            <g id="Grupo_58756" data-name="Grupo 58756">
              <path id="Trazado_103835" data-name="Trazado 103835" d="M363.22,443.684c-.044.054-.763-.525-2.027-1.3a21.506,21.506,0,0,0-10.952-3.149c-1.478-.019-2.4.09-2.4.021a2.034,2.034,0,0,1,.635-.148,13.427,13.427,0,0,1,1.766-.159,19.036,19.036,0,0,1,11.109,3.194,13.292,13.292,0,0,1,1.412,1.074C363.073,443.5,363.238,443.663,363.22,443.684Z" transform="translate(-347.837 -438.942)" fill="#263238"/>
            </g>
          </g>
          <g id="Grupo_58759" data-name="Grupo 58759" transform="translate(97.991 8.44)">
            <g id="Grupo_58758" data-name="Grupo 58758">
              <path id="Trazado_103836" data-name="Trazado 103836" d="M500.585,441.087c.026.109-11.378,2.866-25.466,6.158s-25.535,5.874-25.561,5.765,11.375-2.866,25.469-6.159S500.56,440.978,500.585,441.087Z" transform="translate(-449.558 -441.084)" fill="#263238"/>
            </g>
          </g>
          <g id="Grupo_58761" data-name="Grupo 58761" transform="translate(131.273 7.313)">
            <g id="Grupo_58760" data-name="Grupo 58760">
              <path id="Trazado_103837" data-name="Trazado 103837" d="M500.524,439.648a16.49,16.49,0,0,0-8.1,5.511,3.976,3.976,0,0,1,.778-1.264,11.876,11.876,0,0,1,5.86-3.987A3.971,3.971,0,0,1,500.524,439.648Z" transform="translate(-492.421 -439.633)" fill="#263238"/>
            </g>
          </g>
        </g>
        <g id="Grupo_58763" data-name="Grupo 58763" transform="translate(95.181 16.343)">
          <path id="Trazado_103838" data-name="Trazado 103838" d="M468.614,355.121,486.927,387a13.544,13.544,0,0,1,.37,12.8h0a13.545,13.545,0,0,1-12.5,7.482l-28.119-.794-.741-10.226,24.765-4.742-16.7-28.9Z" transform="translate(-445.94 -355.121)" fill="#ffbe9d"/>
        </g>
        <g id="Grupo_58764" data-name="Grupo 58764" transform="translate(34.889 16.343)">
          <path id="Trazado_103839" data-name="Trazado 103839" d="M383.008,409.672l25.857,6.849.562-7.754L385.6,394.927l17.4-32.3-14.606-7.5L370.082,387h0a14.929,14.929,0,0,0,8.62,21.3Z" transform="translate(-368.291 -355.121)" fill="#ffbe9d"/>
        </g>
        <g id="Grupo_58765" data-name="Grupo 58765" transform="translate(45.741)">
          <path id="Trazado_103840" data-name="Trazado 103840" d="M446.606,370.884l17.673-9.307a89.491,89.491,0,0,0-7.571-12.626,38.777,38.777,0,0,0-23.6-14.877h0l-20.328.24a26.88,26.88,0,0,0-7.249,1.669l.014-.079c-11.031,2.433-23.274,26.5-23.274,26.5l16.082,8.467.356,2.53a17.18,17.18,0,0,0,4.191,9.014l-4.684,30.8,52.2,1.079-6.646-22.059Z" transform="translate(-382.268 -334.073)" fill="#bb83ff"/>
        </g>
        <g id="Grupo_58767" data-name="Grupo 58767" transform="translate(62.066 25.86)">
          <g id="Grupo_58766" data-name="Grupo 58766">
            <path id="Trazado_103841" data-name="Trazado 103841" d="M408.07,390.019a3.737,3.737,0,0,1-.777-.589,11.257,11.257,0,0,1-1.775-1.984,12.914,12.914,0,0,1-2.178-8.4,27.356,27.356,0,0,1,1.193-4.683c.468-1.4.943-2.649,1.357-3.687s.771-1.868,1.03-2.437a4.272,4.272,0,0,1,.445-.865,4.734,4.734,0,0,1-.3.925l-.908,2.479c-.378,1.048-.823,2.3-1.27,3.7a29.384,29.384,0,0,0-1.146,4.617,13.3,13.3,0,0,0,.439,4.674,12.421,12.421,0,0,0,1.574,3.514A21.645,21.645,0,0,0,408.07,390.019Z" transform="translate(-403.292 -367.377)" fill="#263238"/>
          </g>
        </g>
        <g id="Grupo_58770" data-name="Grupo 58770" transform="translate(56.074 52.218)">
          <g id="Grupo_58768" data-name="Grupo 58768">
            <path id="Trazado_103842" data-name="Trazado 103842" d="M398.522,435.68l-2.947-34.357h63.58l-4.214,34.785Z" transform="translate(-395.575 -401.323)" fill="#263238"/>
          </g>
          <g id="Grupo_58769" data-name="Grupo 58769" transform="translate(27.742 14.274)">
            <path id="Trazado_103843" data-name="Trazado 103843" d="M439.4,423.755a4.049,4.049,0,1,1-4.049-4.049A4.049,4.049,0,0,1,439.4,423.755Z" transform="translate(-431.302 -419.706)" fill="#fafafa"/>
          </g>
        </g>
        <g id="Grupo_58784" data-name="Grupo 58784" transform="translate(86.751 93.287)">
          <g id="Grupo_58771" data-name="Grupo 58771">
            <path id="Trazado_103844" data-name="Trazado 103844" d="M435.083,454.214l10.795,1.507v11.734l-9.928-.256Z" transform="translate(-435.083 -454.214)" fill="#ffbe9d"/>
          </g>
          <g id="Grupo_58781" data-name="Grupo 58781" transform="translate(10.795 1.507)">
            <g id="Grupo_58772" data-name="Grupo 58772">
              <path id="Trazado_103845" data-name="Trazado 103845" d="M448.985,456.154h4.853a5.381,5.381,0,0,1,2.691.721l2.559,1.478a39.686,39.686,0,0,0,4.473,2.133c2.951.949,7.915,2.225,8.961,3.031,2.986,2.3,2.078,5.025.438,5.31-1.44.249-23.975-.938-23.975-.938Z" transform="translate(-448.985 -456.154)" fill="#e8505b"/>
            </g>
            <g id="Grupo_58774" data-name="Grupo 58774" transform="translate(7.443 4.639)">
              <g id="Grupo_58773" data-name="Grupo 58773">
                <path id="Trazado_103846" data-name="Trazado 103846" d="M459.1,468.254a11.093,11.093,0,0,1-.184-6.125,175.309,175.309,0,0,0,.184,6.125Z" transform="translate(-458.57 -462.129)" fill="#263238"/>
              </g>
            </g>
            <g id="Grupo_58776" data-name="Grupo 58776" transform="translate(10.094 5.1)">
              <g id="Grupo_58775" data-name="Grupo 58775">
                <path id="Trazado_103847" data-name="Trazado 103847" d="M462.166,468.322a19.482,19.482,0,0,1,.044-5.6,19.485,19.485,0,0,1-.044,5.6Z" transform="translate(-461.984 -462.722)" fill="#263238"/>
              </g>
            </g>
            <g id="Grupo_58778" data-name="Grupo 58778" transform="translate(12.468 5.39)">
              <g id="Grupo_58777" data-name="Grupo 58777">
                <path id="Trazado_103848" data-name="Trazado 103848" d="M465.569,468.871a20.889,20.889,0,0,1-.45-5.775,20.808,20.808,0,0,1,.45,5.775Z" transform="translate(-465.042 -463.096)" fill="#263238"/>
              </g>
            </g>
            <g id="Grupo_58780" data-name="Grupo 58780" transform="translate(1.042 2.757)">
              <g id="Grupo_58779" data-name="Grupo 58779">
                <path id="Trazado_103849" data-name="Trazado 103849" d="M455.157,464.588a3.351,3.351,0,0,1-.995-.313,9.329,9.329,0,0,1-2.425-1.5c-.23-.2-.463-.412-.693-.651a2.77,2.77,0,0,1-.618-.876,1.222,1.222,0,0,1,.135-1.2.913.913,0,0,1,.6-.332,1.539,1.539,0,0,1,.654.074,4.833,4.833,0,0,1,1.016,8.6,3.067,3.067,0,0,1-1.112.5,1.3,1.3,0,0,1-.634-.03.849.849,0,0,1-.489-.431,1.223,1.223,0,0,1,.142-1.118,3.439,3.439,0,0,1,.624-.749,7.449,7.449,0,0,1,2.386-1.563,3.081,3.081,0,0,1,1-.284c.01.032-.345.14-.94.428a8.029,8.029,0,0,0-2.248,1.621,3.2,3.2,0,0,0-.554.7.927.927,0,0,0-.114.818.642.642,0,0,0,.758.26,2.741,2.741,0,0,0,.968-.459,4.487,4.487,0,0,0-.92-7.933.765.765,0,0,0-.869.127.885.885,0,0,0-.1.86,4.753,4.753,0,0,0,1.187,1.432A13.079,13.079,0,0,0,455.157,464.588Z" transform="translate(-450.328 -459.704)" fill="#263238"/>
              </g>
            </g>
          </g>
          <g id="Grupo_58783" data-name="Grupo 58783" transform="translate(16.444 1.643)">
            <g id="Grupo_58782" data-name="Grupo 58782">
              <path id="Trazado_103850" data-name="Trazado 103850" d="M474.586,468.865a2.844,2.844,0,0,0,.591-.738,2.778,2.778,0,0,0-.318-2.447,5.453,5.453,0,0,0-3-2.26c-1.371-.494-3.009-.732-4.66-1.247a32.494,32.494,0,0,1-8.018-3.653c-.953-.607-1.688-1.152-2.186-1.54a4.4,4.4,0,0,1-.735-.648,4.716,4.716,0,0,1,.829.522c.523.347,1.278.851,2.242,1.423a36.244,36.244,0,0,0,7.985,3.51c1.626.509,3.247.752,4.674,1.285a5.642,5.642,0,0,1,3.12,2.472,2.88,2.88,0,0,1,.207,2.656,1.64,1.64,0,0,1-.5.552C474.673,468.842,474.592,468.876,474.586,468.865Z" transform="translate(-456.26 -456.33)" fill="#263238"/>
            </g>
          </g>
        </g>
        <g id="Grupo_58786" data-name="Grupo 58786" transform="translate(56.588 8.271)">
          <g id="Grupo_58785" data-name="Grupo 58785">
            <path id="Trazado_103851" data-name="Trazado 103851" d="M453.819,344.887a.626.626,0,0,1,0,.165l-.036.485q-.062.68-.171,1.877c-.168,1.667-.407,4.052-.708,7.049l-.018.181-.163-.085-9.373-4.935.222-.062-5.091,8.59-.109.184-.17-.13-8.574-6.574.246,0-3.734,2.927-5.091,3.986-.187.147-.113-.209c-1.69-3.127-3.316-6.133-4.85-8.972l.243.082-10.285,4.583-.189.084-.034-.2c-.6-3.525-1.119-6.592-1.552-9.147l.158.089-5.889,2.246-1.566.581-.406.141a.52.52,0,0,1-.141.038.493.493,0,0,1,.13-.068l.394-.171,1.544-.638,5.849-2.347.133-.054.026.142c.457,2.552,1.006,5.614,1.637,9.133l-.223-.118,10.261-4.635.159-.071.084.154,4.871,8.961-.3-.062,5.088-3.99,3.736-2.925.123-.1.123.1,8.561,6.592-.279.054c1.84-3.074,3.573-5.967,5.13-8.567l.082-.137.14.075,9.333,5.012-.181.1c.349-2.992.627-5.372.822-7.036l.235-1.87c.028-.2.051-.353.069-.481A.62.62,0,0,1,453.819,344.887Z" transform="translate(-396.237 -344.725)" fill="#f5f5f5"/>
          </g>
        </g>
        <g id="Grupo_58788" data-name="Grupo 58788" transform="translate(52.816 16.599)">
          <g id="Grupo_58787" data-name="Grupo 58787">
            <path id="Trazado_103852" data-name="Trazado 103852" d="M460.279,355.929a1.067,1.067,0,0,1-.043.228l-.162.659c-.158.6-.38,1.451-.665,2.54-.6,2.234-1.465,5.443-2.544,9.448l-.041.153-.144-.069-10.953-5.258.215-.055-9.226,13.157-.135.193-.166-.168-8.867-8.986-1.861-1.888.252.03L413.988,373.4l-.171.107-.1-.175-6.442-11.377.2.076-12.287,4.229-.116.04-.04-.116-2.726-7.907-.707-2.1c-.072-.224-.13-.4-.174-.543a.839.839,0,0,1-.048-.188.815.815,0,0,1,.081.176l.2.532q.274.742.767,2.081l2.834,7.869-.157-.075,12.257-4.316.132-.047.07.123,6.483,11.354-.269-.068,11.938-7.509.137-.086.114.116,1.861,1.888,8.859,8.994-.3.026,9.267-13.129.084-.12.131.064,10.919,5.327-.186.084c1.128-3.991,2.031-7.189,2.66-9.416L460,356.8c.082-.271.148-.485.2-.65A1.106,1.106,0,0,1,460.279,355.929Z" transform="translate(-391.38 -355.45)" fill="#f5f5f5"/>
          </g>
        </g>
      </g>
      <g id="Grupo_58876" data-name="Grupo 58876" transform="translate(69.183)">
        <g id="Grupo_58790" data-name="Grupo 58790" transform="translate(5.317)">
          <path id="Trazado_103853" data-name="Trazado 103853" d="M458.688,280.833a11.4,11.4,0,0,1-8.679-2.739c2.829,1.427,6.6-.532,7.592-3.541s.179-8.606-2.291-10.59a9.8,9.8,0,0,0-8.52-1.832c-2.913.78-6,5.206-6.95,8.067l.054.087c-.448-.178-.9-.346-1.354-.5a23.321,23.321,0,0,0-10.05-1.216,16.293,16.293,0,0,0-9.186,4.044l19.744,31.736a11.762,11.762,0,0,0,8.642-5.8,21.723,21.723,0,0,0,2.777-10.32c.044-.9.042-1.814,0-2.725l6.35,1.021a14.156,14.156,0,0,0-4.222-3.774A5.3,5.3,0,0,0,458.688,280.833Z" transform="translate(-419.305 -261.822)" fill="#263238"/>
        </g>
        <g id="Grupo_58864" data-name="Grupo 58864" transform="translate(0.847 11.533)">
          <g id="Grupo_58863" data-name="Grupo 58863">
            <g id="Grupo_58862" data-name="Grupo 58862">
              <g id="Grupo_58856" data-name="Grupo 58856">
                <g id="Grupo_58855" data-name="Grupo 58855">
                  <g id="Grupo_58844" data-name="Grupo 58844">
                    <g id="Grupo_58843" data-name="Grupo 58843">
                      <g id="Grupo_58842" data-name="Grupo 58842">
                        <g id="Grupo_58795" data-name="Grupo 58795">
                          <g id="Grupo_58794" data-name="Grupo 58794">
                            <g id="Grupo_58793" data-name="Grupo 58793">
                              <g id="Grupo_58792" data-name="Grupo 58792">
                                <g id="Grupo_58791" data-name="Grupo 58791">
                                  <path id="Trazado_103854" data-name="Trazado 103854" d="M432.444,333.407a9.931,9.931,0,0,0,9.716-9.813l.458-39.482h0a3.142,3.142,0,0,0-2.812-3.187l-16.676-4.215c-5.341-.565-8.891,6.012-9.229,11.371-.376,5.955-.6,13.241.107,17.684,1.419,8.934,8.266,10.071,8.266,10.071,0-.023,0,3.458.025,7.692a9.933,9.933,0,0,0,10.145,9.881Z" transform="translate(-413.548 -276.675)" fill="#ffbe9d"/>
                                </g>
                              </g>
                            </g>
                          </g>
                        </g>
                        <g id="Grupo_58807" data-name="Grupo 58807" transform="translate(1.915 13.991)">
                          <g id="Grupo_58800" data-name="Grupo 58800" transform="translate(1.902 2.162)">
                            <g id="Grupo_58799" data-name="Grupo 58799">
                              <g id="Grupo_58798" data-name="Grupo 58798">
                                <g id="Grupo_58797" data-name="Grupo 58797">
                                  <g id="Grupo_58796" data-name="Grupo 58796">
                                    <path id="Trazado_103855" data-name="Trazado 103855" d="M418.465,298.513a1.145,1.145,0,0,0,1.1,1.156,1.1,1.1,0,0,0,1.181-1.033,1.147,1.147,0,0,0-1.1-1.157A1.1,1.1,0,0,0,418.465,298.513Z" transform="translate(-418.464 -297.478)" fill="#263238"/>
                                  </g>
                                </g>
                              </g>
                            </g>
                          </g>
                          <g id="Grupo_58806" data-name="Grupo 58806">
                            <g id="Grupo_58805" data-name="Grupo 58805">
                              <g id="Grupo_58804" data-name="Grupo 58804">
                                <g id="Grupo_58803" data-name="Grupo 58803">
                                  <g id="Grupo_58802" data-name="Grupo 58802">
                                    <g id="Grupo_58801" data-name="Grupo 58801">
                                      <path id="Trazado_103856" data-name="Trazado 103856" d="M416.033,295.9c.142.149,1.01-.493,2.243-.49,1.232-.014,2.136.62,2.27.469.065-.067-.079-.336-.474-.624a3.148,3.148,0,0,0-1.817-.56,3.024,3.024,0,0,0-1.786.576C416.091,295.56,415.963,295.831,416.033,295.9Z" transform="translate(-416.015 -294.693)" fill="#263238"/>
                                    </g>
                                  </g>
                                </g>
                              </g>
                            </g>
                          </g>
                        </g>
                        <g id="Grupo_58819" data-name="Grupo 58819" transform="translate(14.035 14.22)">
                          <g id="Grupo_58812" data-name="Grupo 58812" transform="translate(1.512 1.932)">
                            <g id="Grupo_58811" data-name="Grupo 58811">
                              <g id="Grupo_58810" data-name="Grupo 58810">
                                <g id="Grupo_58809" data-name="Grupo 58809">
                                  <g id="Grupo_58808" data-name="Grupo 58808">
                                    <path id="Trazado_103857" data-name="Trazado 103857" d="M433.571,298.513a1.146,1.146,0,0,0,1.1,1.156,1.1,1.1,0,0,0,1.181-1.033,1.147,1.147,0,0,0-1.1-1.157A1.1,1.1,0,0,0,433.571,298.513Z" transform="translate(-433.57 -297.478)" fill="#263238"/>
                                  </g>
                                </g>
                              </g>
                            </g>
                          </g>
                          <g id="Grupo_58818" data-name="Grupo 58818">
                            <g id="Grupo_58817" data-name="Grupo 58817">
                              <g id="Grupo_58816" data-name="Grupo 58816">
                                <g id="Grupo_58815" data-name="Grupo 58815">
                                  <g id="Grupo_58814" data-name="Grupo 58814">
                                    <g id="Grupo_58813" data-name="Grupo 58813">
                                      <path id="Trazado_103858" data-name="Trazado 103858" d="M431.641,296.193c.143.15,1.012-.492,2.244-.489,1.232-.015,2.137.62,2.27.469.065-.068-.078-.337-.474-.624a3.142,3.142,0,0,0-1.817-.561,3.03,3.03,0,0,0-1.786.576C431.7,295.856,431.572,296.127,431.641,296.193Z" transform="translate(-431.623 -294.989)" fill="#263238"/>
                                    </g>
                                  </g>
                                </g>
                              </g>
                            </g>
                          </g>
                        </g>
                        <g id="Grupo_58825" data-name="Grupo 58825" transform="translate(6.437 14.295)">
                          <g id="Grupo_58824" data-name="Grupo 58824">
                            <g id="Grupo_58823" data-name="Grupo 58823">
                              <g id="Grupo_58822" data-name="Grupo 58822">
                                <g id="Grupo_58821" data-name="Grupo 58821">
                                  <g id="Grupo_58820" data-name="Grupo 58820">
                                    <path id="Trazado_103859" data-name="Trazado 103859" d="M424.98,305.359a8.143,8.143,0,0,0-2-.362c-.315-.033-.613-.095-.666-.31a1.6,1.6,0,0,1,.21-.933q.444-1.143.931-2.4a41.153,41.153,0,0,0,2.091-6.272,41.265,41.265,0,0,0-2.591,6.088q-.467,1.263-.892,2.412a1.823,1.823,0,0,0-.163,1.235.79.79,0,0,0,.518.46,2.111,2.111,0,0,0,.534.075A8.03,8.03,0,0,0,424.98,305.359Z" transform="translate(-421.838 -295.085)" fill="#263238"/>
                                  </g>
                                </g>
                              </g>
                            </g>
                          </g>
                        </g>
                        <g id="Grupo_58830" data-name="Grupo 58830" transform="translate(8.727 35.968)">
                          <g id="Grupo_58829" data-name="Grupo 58829">
                            <g id="Grupo_58828" data-name="Grupo 58828">
                              <g id="Grupo_58827" data-name="Grupo 58827">
                                <g id="Grupo_58826" data-name="Grupo 58826">
                                  <path id="Trazado_103860" data-name="Trazado 103860" d="M424.787,326.188A22.733,22.733,0,0,0,436.753,323s-2.9,6.137-11.845,5.3Z" transform="translate(-424.787 -322.997)" fill="#eb996e"/>
                                </g>
                              </g>
                            </g>
                          </g>
                        </g>
                        <g id="Grupo_58835" data-name="Grupo 58835" transform="translate(9.976 26.703)">
                          <g id="Grupo_58834" data-name="Grupo 58834">
                            <g id="Grupo_58833" data-name="Grupo 58833">
                              <g id="Grupo_58832" data-name="Grupo 58832">
                                <g id="Grupo_58831" data-name="Grupo 58831">
                                  <path id="Trazado_103861" data-name="Trazado 103861" d="M426.52,311.9a2.22,2.22,0,0,1,1.992-.825,2.027,2.027,0,0,1,1.4.751,1.285,1.285,0,0,1,.1,1.47,1.491,1.491,0,0,1-1.617.409,4.671,4.671,0,0,1-1.576-.941,1.367,1.367,0,0,1-.353-.364.411.411,0,0,1,0-.459" transform="translate(-426.396 -311.064)" fill="#eb996e"/>
                                </g>
                              </g>
                            </g>
                          </g>
                        </g>
                        <g id="Grupo_58841" data-name="Grupo 58841" transform="translate(9.277 25.422)">
                          <g id="Grupo_58840" data-name="Grupo 58840">
                            <g id="Grupo_58839" data-name="Grupo 58839">
                              <g id="Grupo_58838" data-name="Grupo 58838">
                                <g id="Grupo_58837" data-name="Grupo 58837">
                                  <g id="Grupo_58836" data-name="Grupo 58836">
                                    <path id="Trazado_103862" data-name="Trazado 103862" d="M429.426,309.415c-.2-.012-.2,1.327-1.349,2.277s-2.57.8-2.58.99c-.019.084.318.26.919.276a3.336,3.336,0,0,0,2.155-.751,2.9,2.9,0,0,0,1.044-1.909C429.666,309.739,429.517,309.407,429.426,309.415Z" transform="translate(-425.496 -309.415)" fill="#263238"/>
                                  </g>
                                </g>
                              </g>
                            </g>
                          </g>
                        </g>
                      </g>
                    </g>
                  </g>
                  <g id="Grupo_58849" data-name="Grupo 58849" transform="translate(13.492 12.342)">
                    <g id="Grupo_58848" data-name="Grupo 58848">
                      <g id="Grupo_58847" data-name="Grupo 58847">
                        <g id="Grupo_58846" data-name="Grupo 58846">
                          <g id="Grupo_58845" data-name="Grupo 58845">
                            <path id="Trazado_103863" data-name="Trazado 103863" d="M430.93,293.494c.122.335,1.353.176,2.8.351,1.45.145,2.617.568,2.809.268.086-.144-.117-.459-.589-.783a4.9,4.9,0,0,0-4.272-.472C431.145,293.072,430.878,293.335,430.93,293.494Z" transform="translate(-430.924 -292.57)" fill="#263238"/>
                          </g>
                        </g>
                      </g>
                    </g>
                  </g>
                  <g id="Grupo_58854" data-name="Grupo 58854" transform="translate(2.073 11.643)">
                    <g id="Grupo_58853" data-name="Grupo 58853">
                      <g id="Grupo_58852" data-name="Grupo 58852">
                        <g id="Grupo_58851" data-name="Grupo 58851">
                          <g id="Grupo_58850" data-name="Grupo 58850">
                            <path id="Trazado_103864" data-name="Trazado 103864" d="M416.25,292.946c.217.28,1.066-.011,2.088-.024,1.021-.05,1.886.188,2.086-.1.087-.142-.049-.422-.427-.688a3.024,3.024,0,0,0-3.363.1C416.273,292.522,416.154,292.81,416.25,292.946Z" transform="translate(-416.218 -291.669)" fill="#263238"/>
                          </g>
                        </g>
                      </g>
                    </g>
                  </g>
                </g>
              </g>
              <g id="Grupo_58858" data-name="Grupo 58858" transform="translate(27.807 18.259)">
                <g id="Grupo_58857" data-name="Grupo 58857">
                  <path id="Trazado_103865" data-name="Trazado 103865" d="M449.634,300.471a2.238,2.238,0,0,1,2.336.116,4.142,4.142,0,0,1-2.611,7.693" transform="translate(-449.36 -300.19)" fill="#ffbe9d"/>
                </g>
              </g>
              <g id="Grupo_58861" data-name="Grupo 58861" transform="translate(28.501 20.251)">
                <g id="Grupo_58860" data-name="Grupo 58860">
                  <g id="Grupo_58859" data-name="Grupo 58859">
                    <path id="Trazado_103866" data-name="Trazado 103866" d="M450.458,306.189c.026-.064.347.076.779-.122A1.556,1.556,0,0,0,452,304.54a1.576,1.576,0,0,0-.954-1.433c-.446-.183-.776-.094-.794-.163-.032-.044.3-.281.893-.149a1.64,1.64,0,0,1,.874.544,1.99,1.99,0,0,1,.443,1.176,1.774,1.774,0,0,1-1.118,1.858C450.74,306.534,450.411,306.225,450.458,306.189Z" transform="translate(-450.253 -302.756)" fill="#eb996e"/>
                  </g>
                </g>
              </g>
            </g>
          </g>
        </g>
        <g id="Grupo_58866" data-name="Grupo 58866" transform="translate(30.552 36.328)">
          <g id="Grupo_58865" data-name="Grupo 58865">
            <path id="Trazado_103867" data-name="Trazado 103867" d="M453.247,309.305a1.8,1.8,0,0,1,.409.289l1.095.894,3.855,3.275.13.11-.109.131c-1.436,1.724-3.035,3.882-4.833,6.137-.407.509-.814,1.007-1.209,1.472l-.33.389-.023-.509c-.162-3.638-.287-6.858-.359-9.169-.026-1.1-.048-2.013-.065-2.725a5.057,5.057,0,0,1,.027-.992,5.089,5.089,0,0,1,.118.986c.049.71.112,1.62.188,2.718.143,2.308.317,5.526.491,9.163l-.353-.12,1.2-1.465c1.792-2.247,3.411-4.4,4.887-6.106l.02.241-3.763-3.385-1.033-.966A1.856,1.856,0,0,1,453.247,309.305Z" transform="translate(-451.805 -308.607)" fill="#455a64"/>
          </g>
        </g>
        <g id="Grupo_58867" data-name="Grupo 58867" transform="translate(0 7.662)">
          <path id="Trazado_103868" data-name="Trazado 103868" d="M426.385,271.689a32.515,32.515,0,0,0-6.515.712,10.906,10.906,0,0,0-5.633,3.171,6.621,6.621,0,0,0-1.556,6.093,4.8,4.8,0,0,0,4.946,3.449c1.647-.221,3.226-1.44,4.816-.955,1.5.457,2.329,2.291,3.872,2.576,1.524.282,2.881-1.086,4.425-1.221,1.7-.148,3.182,1.251,3.94,2.783s1.046,3.265,1.808,4.8a3.888,3.888,0,0,0,2.3,2.19,3.165,3.165,0,0,0,2.785-.783,6.473,6.473,0,0,0,1.631-2.5,13.876,13.876,0,0,0-11.274-19.021" transform="translate(-412.458 -271.689)" fill="#263238"/>
        </g>
        <g id="Grupo_58869" data-name="Grupo 58869" transform="translate(26.07 8.439)">
          <g id="Grupo_58868" data-name="Grupo 58868">
            <path id="Trazado_103869" data-name="Trazado 103869" d="M455.658,281.4c-.069.019-.277-.721-.826-1.815a12.939,12.939,0,0,0-6.911-6.244c-1.143-.436-1.9-.567-1.888-.638,0-.028.2-.016.543.03a8.079,8.079,0,0,1,1.44.339,11.788,11.788,0,0,1,7.075,6.392,8.187,8.187,0,0,1,.483,1.4C455.654,281.2,455.685,281.4,455.658,281.4Z" transform="translate(-446.033 -272.69)" fill="#e8505b"/>
          </g>
        </g>
        <g id="Grupo_58871" data-name="Grupo 58871" transform="translate(29.807 2.927)">
          <g id="Grupo_58870" data-name="Grupo 58870">
            <path id="Trazado_103870" data-name="Trazado 103870" d="M463.568,266.728a14.811,14.811,0,0,0-2.152-.667,8.583,8.583,0,0,0-5.24.789,11.633,11.633,0,0,0-4.05,3.524c-.828,1.124-1.215,1.912-1.276,1.881a1.725,1.725,0,0,1,.213-.582,11.077,11.077,0,0,1,.83-1.464,10.886,10.886,0,0,1,4.1-3.722,8.322,8.322,0,0,1,5.477-.707,6.157,6.157,0,0,1,1.587.592C463.409,266.568,463.581,266.708,463.568,266.728Z" transform="translate(-450.845 -265.592)" fill="#455a64"/>
          </g>
        </g>
        <g id="Grupo_58873" data-name="Grupo 58873" transform="translate(29.131 14.561)">
          <g id="Grupo_58872" data-name="Grupo 58872">
            <path id="Trazado_103871" data-name="Trazado 103871" d="M454.784,280.574a5.592,5.592,0,0,1,.014,1.837,14.586,14.586,0,0,1-3.475,8.06,5.629,5.629,0,0,1-1.345,1.252,18.721,18.721,0,0,0,4.806-11.149Z" transform="translate(-449.974 -280.574)" fill="#455a64"/>
          </g>
        </g>
        <g id="Grupo_58875" data-name="Grupo 58875" transform="translate(30.927 14.75)">
          <g id="Grupo_58874" data-name="Grupo 58874">
            <path id="Trazado_103872" data-name="Trazado 103872" d="M455.558,280.818c.027-.008.1.174.219.512a8.763,8.763,0,0,1,.349,1.473,12.609,12.609,0,0,1-2.395,9.477,8.664,8.664,0,0,1-1.007,1.13c-.262.243-.415.367-.435.346-.051-.05.5-.609,1.211-1.643a13.928,13.928,0,0,0,2.343-9.273C455.711,281.594,455.489,280.838,455.558,280.818Z" transform="translate(-452.287 -280.818)" fill="#455a64"/>
          </g>
        </g>
      </g>
    </g>
    <g id="Grupo_58892" data-name="Grupo 58892" transform="translate(535.622 5335.242)">
      <g id="Grupo_58878" data-name="Grupo 58878" transform="translate(0 90.52)">
        <path id="Trazado_103873" data-name="Trazado 103873" d="M486.052,283.405a3.658,3.658,0,1,0,1.673-.125" transform="translate(-483.592 -283.28)" fill="#ebebeb"/>
      </g>
      <g id="Grupo_58879" data-name="Grupo 58879" transform="translate(10.135 75.248)">
        <path id="Trazado_103874" data-name="Trazado 103874" d="M499.467,263.754a4.2,4.2,0,1,0,1.918-.143" transform="translate(-496.645 -263.611)" fill="#ebebeb"/>
      </g>
      <g id="Grupo_58883" data-name="Grupo 58883" transform="translate(0.641)">
        <g id="Grupo_58880" data-name="Grupo 58880" transform="translate(0.151 0.09)">
          <path id="Trazado_103875" data-name="Trazado 103875" d="M519.2,174.872c-7.025-.593-14.13.975-18.946,6.123a23.789,23.789,0,0,0-6.055,19.519c-7.471,3.1-11.545,12.605-8.642,20.157s12.29,11.879,19.917,9.181a27.014,27.014,0,0,0,45.937,7.313c7.328,1.656,15.552,1.548,21.708-2.757s8.942-13.779,4.251-19.647c8.441-2.055,12.73-12.6,10.227-20.916s-10-14.29-18-17.67c-5.289-2.234-11.884-3.4-16.4.15a20.893,20.893,0,0,0-34-1.452" transform="translate(-484.612 -166.818)" fill="#f5f5f5"/>
        </g>
        <g id="Grupo_58882" data-name="Grupo 58882">
          <g id="Grupo_58881" data-name="Grupo 58881">
            <path id="Trazado_103876" data-name="Trazado 103876" d="M519.153,174.846s.138-.187.426-.542a17.6,17.6,0,0,1,1.363-1.5,21.107,21.107,0,0,1,6.487-4.353,21.482,21.482,0,0,1,5.482-1.551,20.082,20.082,0,0,1,6.794.207,21.464,21.464,0,0,1,7.269,2.941,21.25,21.25,0,0,1,6.294,6.179l-.2-.033a11.348,11.348,0,0,1,6.646-2.281A21.53,21.53,0,0,1,567.2,175.1a39.078,39.078,0,0,1,7.333,3.364,34.4,34.4,0,0,1,6.8,5.129,25.43,25.43,0,0,1,5.252,7.223,21.335,21.335,0,0,1,1.495,4.391,18.756,18.756,0,0,1-2.72,13.877,14.7,14.7,0,0,1-3.413,3.646,13.529,13.529,0,0,1-4.579,2.191l.106-.311a11.06,11.06,0,0,1,2.086,4.434,13.363,13.363,0,0,1,.122,4.983,16.4,16.4,0,0,1-4.64,8.951A18.873,18.873,0,0,1,565.8,237.7a31.219,31.219,0,0,1-10.642.314c-1.3-.158-2.58-.412-3.838-.68l.2-.068a27.029,27.029,0,0,1-38.549,3.281,27.322,27.322,0,0,1-7.716-10.654l.234.106a16.244,16.244,0,0,1-13.034-1.363,15.281,15.281,0,0,1-7.627-9.666,16.411,16.411,0,0,1,1.578-11.393,15.867,15.867,0,0,1,7.693-7.221l-.085.15a23.941,23.941,0,0,1,.484-9.221,24.351,24.351,0,0,1,3.35-7.511,23.641,23.641,0,0,1,2.319-2.912,18.643,18.643,0,0,1,2.6-2.261,19.287,19.287,0,0,1,5.355-2.691,25.987,25.987,0,0,1,8.162-1.221,25.371,25.371,0,0,1,2.871.154s-.248,0-.73-.027-1.2-.05-2.141-.047a26.4,26.4,0,0,0-8.113,1.287,19.191,19.191,0,0,0-5.292,2.7,18.542,18.542,0,0,0-2.56,2.249,23.506,23.506,0,0,0-2.285,2.9,24.163,24.163,0,0,0-3.289,7.449,23.7,23.7,0,0,0-.451,9.118l.016.107-.1.043a15.59,15.59,0,0,0-7.528,7.106,16.1,16.1,0,0,0-1.527,11.172,14.943,14.943,0,0,0,7.476,9.436,15.894,15.894,0,0,0,12.739,1.322l.169-.058.066.165a27.445,27.445,0,0,0,19.76,16.444,27.345,27.345,0,0,0,25.849-9.193l.078-.094.122.026c1.247.266,2.515.517,3.8.674a30.858,30.858,0,0,0,10.5-.307,18.49,18.49,0,0,0,9.049-4.614,16.01,16.01,0,0,0,4.53-8.728,11.634,11.634,0,0,0-2.121-9.111l-.186-.234.293-.077a13.149,13.149,0,0,0,4.441-2.121,14.332,14.332,0,0,0,3.327-3.549,18.393,18.393,0,0,0,2.679-13.593,20.953,20.953,0,0,0-1.462-4.311,25.066,25.066,0,0,0-5.169-7.13,34.1,34.1,0,0,0-6.724-5.091A38.87,38.87,0,0,0,567.1,175.4a21.265,21.265,0,0,0-7.378-1.2,11.073,11.073,0,0,0-6.488,2.2l-.118.091-.081-.123a21.019,21.019,0,0,0-6.2-6.122,21.282,21.282,0,0,0-7.179-2.937,19.96,19.96,0,0,0-6.726-.237,21.6,21.6,0,0,0-11.941,5.778,20.008,20.008,0,0,0-1.387,1.474C519.312,174.675,519.153,174.846,519.153,174.846Z" transform="translate(-484.418 -166.702)" fill="#263238"/>
          </g>
        </g>
      </g>
      <g id="Grupo_58885" data-name="Grupo 58885" transform="translate(21.885 31.741)">
        <g id="Grupo_58884" data-name="Grupo 58884">
          <path id="Trazado_103877" data-name="Trazado 103877" d="M573.282,208.187c0,.335-13.769.606-30.751.606s-30.754-.271-30.754-.606,13.766-.606,30.754-.606S573.282,207.853,573.282,208.187Z" transform="translate(-511.777 -207.581)" fill="#455a64"/>
        </g>
      </g>
      <g id="Grupo_58887" data-name="Grupo 58887" transform="translate(21.885 38.414)">
        <g id="Grupo_58886" data-name="Grupo 58886">
          <path id="Trazado_103878" data-name="Trazado 103878" d="M573.282,216.781c0,.335-13.769.606-30.751.606s-30.754-.272-30.754-.606,13.766-.606,30.754-.606S573.282,216.446,573.282,216.781Z" transform="translate(-511.777 -216.175)" fill="#455a64"/>
        </g>
      </g>
      <g id="Grupo_58889" data-name="Grupo 58889" transform="translate(21.885 45.087)">
        <g id="Grupo_58888" data-name="Grupo 58888">
          <path id="Trazado_103879" data-name="Trazado 103879" d="M573.282,225.374c0,.335-13.769.607-30.751.607s-30.754-.272-30.754-.607,13.766-.606,30.754-.606S573.282,225.04,573.282,225.374Z" transform="translate(-511.777 -224.768)" fill="#455a64"/>
        </g>
      </g>
      <g id="Grupo_58891" data-name="Grupo 58891" transform="translate(21.885 51.76)">
        <g id="Grupo_58890" data-name="Grupo 58890">
          <path id="Trazado_103880" data-name="Trazado 103880" d="M573.282,233.968c0,.335-13.769.606-30.751.606s-30.754-.271-30.754-.606,13.766-.606,30.754-.606S573.282,233.634,573.282,233.968Z" transform="translate(-511.777 -233.362)" fill="#455a64"/>
        </g>
      </g>
    </g>
  </g>
</svg>
