<svg xmlns="http://www.w3.org/2000/svg" width="247.324" height="266.137" viewBox="0 0 247.324 266.137">
  <g id="Grupo_56709" data-name="Grupo 56709" transform="translate(-902.843 -117.33)">
    <rect id="Rectángulo_5521" data-name="Rectángulo 5521" width="244.795" height="142.73" rx="22.388" transform="translate(904.281 117.33)" fill="#31d9e7" opacity="0.85"/>
    <path id="Trazado_102798" data-name="Trazado 102798" d="M1148.777,381.915H907.255a2.181,2.181,0,0,0-2.182,2.181h0a2.181,2.181,0,0,0,2.182,2.182h241.523a2.182,2.182,0,0,0,2.182-2.182h0A2.181,2.181,0,0,0,1148.777,381.915Z" transform="translate(-0.791 -93.907)" fill="#513c2b"/>
    <g id="Grupo_56678" data-name="Grupo 56678" transform="translate(1010.899 137.692)">
      <path id="Rectángulo_5522" data-name="Rectángulo 5522" d="M4.986,0h66.04a4.986,4.986,0,0,1,4.986,4.986V114.451a0,0,0,0,1,0,0H0a0,0,0,0,1,0,0V4.986A4.986,4.986,0,0,1,4.986,0Z" transform="translate(0 0)" fill="#242b57"/>
      <path id="Trazado_102799" data-name="Trazado 102799" d="M1073.567,148.9h69.579a3.217,3.217,0,0,1,3.217,3.216v12.909h-76.013V152.111A3.216,3.216,0,0,1,1073.567,148.9Z" transform="translate(-1070.351 -148.895)" fill="#bb83ff"/>
      <g id="Grupo_56675" data-name="Grupo 56675" transform="translate(50.676 6.148)">
        <circle id="Elipse_3966" data-name="Elipse 3966" cx="1.915" cy="1.915" r="1.915" transform="translate(0 0)" fill="#fef200"/>
        <path id="Trazado_102800" data-name="Trazado 102800" d="M1165.207,160.34a1.915,1.915,0,1,1-1.915-1.915A1.915,1.915,0,0,1,1165.207,160.34Z" transform="translate(-1153.333 -158.425)" fill="#3dff60"/>
        <path id="Trazado_102801" data-name="Trazado 102801" d="M1177.677,160.34a1.915,1.915,0,1,1-1.915-1.915A1.915,1.915,0,0,1,1177.677,160.34Z" transform="translate(-1157.759 -158.425)" fill="#ff674f"/>
      </g>
      <rect id="Rectángulo_5523" data-name="Rectángulo 5523" width="63.655" height="11.81" transform="translate(6.179 21.073)" fill="#fff"/>
      <g id="Grupo_56677" data-name="Grupo 56677" transform="translate(8.927 22.905)">
        <g id="Grupo_56676" data-name="Grupo 56676">
          <path id="Trazado_102802" data-name="Trazado 102802" d="M1087.838,191.7a3.65,3.65,0,1,1,2.582-6.231h0a3.65,3.65,0,0,1-2.582,6.231Zm0-6.64a2.99,2.99,0,1,0,2.116.874A2.985,2.985,0,0,0,1087.838,185.062Z" transform="translate(-1084.189 -184.403)" fill="#231f20"/>
          <rect id="Rectángulo_5524" data-name="Rectángulo 5524" width="0.658" height="2.708" transform="matrix(0.707, -0.707, 0.707, 0.707, 5.765, 6.23)" fill="#231f20"/>
        </g>
      </g>
    </g>
    <path id="Trazado_102803" data-name="Trazado 102803" d="M936.659,277.66l11.275-10.54V254.129L926.94,268.961a14.765,14.765,0,0,0-5.252,17.386l11.049,28.569L948.055,293.8C944.724,285.219,936.659,277.66,936.659,277.66Z" transform="translate(-6.335 -48.553)" fill="#fba353"/>
    <g id="Grupo_56681" data-name="Grupo 56681" transform="translate(930.085 190.624)">
      <rect id="Rectángulo_5525" data-name="Rectángulo 5525" width="83.337" height="56.62" rx="4.75" transform="translate(0 0)" fill="#fff"/>
      <rect id="Rectángulo_5526" data-name="Rectángulo 5526" width="77.451" height="39.698" transform="translate(2.943 11.772)" fill="#423022"/>
      <g id="Grupo_56679" data-name="Grupo 56679" transform="translate(24.745 16.645)">
        <path id="Trazado_102804" data-name="Trazado 102804" d="M984.7,277.952c3.371,7.16,12.411,10,20.193,6.333q.762-.359,1.47-.781a3.184,3.184,0,0,0,.7-4.919c-2.051-2.2-2.849-4.834-1.8-6.842.832-1.587,2.647-2.449,4.839-2.524a3.171,3.171,0,0,0,2.8-4.481l-.023-.05c-3.37-7.161-12.411-10-20.193-6.334S981.331,270.791,984.7,277.952Z" transform="translate(-983.433 -256.754)" fill="#e6e4e5"/>
        <circle id="Elipse_3967" data-name="Elipse 3967" cx="5.816" cy="5.816" r="5.816" transform="translate(3.716 22.798) rotate(-82.046)" fill="#feb600"/>
        <path id="Trazado_102805" data-name="Trazado 102805" d="M1011.285,263.88a2.592,2.592,0,1,0,3.448,1.242A2.592,2.592,0,0,0,1011.285,263.88Z" transform="translate(-992.79 -259.195)" fill="#49ba84"/>
        <path id="Trazado_102806" data-name="Trazado 102806" d="M997.114,261.669a2.592,2.592,0,1,0,3.449,1.241A2.592,2.592,0,0,0,997.114,261.669Z" transform="translate(-987.76 -258.41)" fill="#ff674f"/>
      </g>
      <g id="Grupo_56680" data-name="Grupo 56680" transform="translate(60 3.799)">
        <path id="Trazado_102807" data-name="Trazado 102807" d="M1042.007,238.8a1.961,1.961,0,1,1-1.961-1.961A1.961,1.961,0,0,1,1042.007,238.8Z" transform="translate(-1038.085 -236.84)" fill="#fef200"/>
        <path id="Trazado_102808" data-name="Trazado 102808" d="M1054.775,238.8a1.961,1.961,0,1,1-1.96-1.961A1.96,1.96,0,0,1,1054.775,238.8Z" transform="translate(-1042.617 -236.84)" fill="#3dff60"/>
        <path id="Trazado_102809" data-name="Trazado 102809" d="M1067.542,238.8a1.961,1.961,0,1,1-1.961-1.961A1.961,1.961,0,0,1,1067.542,238.8Z" transform="translate(-1047.148 -236.84)" fill="#ff674f"/>
      </g>
    </g>
    <path id="Trazado_102810" data-name="Trazado 102810" d="M950.519,276.319c-5.026-2.9-12.281,7.942-16.2,14.745a2.29,2.29,0,0,1-4.113-.3c-3.333-8.583-11.4-16.143-11.4-16.143l11.275-10.54V251.089L909.09,265.921a14.767,14.767,0,0,0-5.252,17.386l11.05,28.569v29.25h25.124l-.123-29.25s5.99-3.477,6.6-16.468C947.03,283.992,955.414,279.141,950.519,276.319Z" transform="translate(0 -47.474)" fill="#fbb06c"/>
    <g id="Grupo_56698" data-name="Grupo 56698" transform="translate(988.567 174.062)">
      <path id="Rectángulo_5527" data-name="Rectángulo 5527" d="M7.229,0H133.919a7.223,7.223,0,0,1,7.223,7.223V91.648a5.012,5.012,0,0,1-5.012,5.012H5.012A5.012,5.012,0,0,1,0,91.648V7.229A7.229,7.229,0,0,1,7.229,0Z" fill="#fff"/>
      <path id="Trazado_102811" data-name="Trazado 102811" d="M1124.04,355.118l-2.463,13.248h30.388l-2.463-13.248Z" transform="translate(-1066.2 -258.457)" fill="#cfcfcf"/>
      <path id="Trazado_102812" data-name="Trazado 102812" d="M1124.718,355.118h25.462l1.232,6.624h-27.925Z" transform="translate(-1066.878 -258.457)" fill="#474747" opacity="0.1"/>
      <path id="Trazado_102813" data-name="Trazado 102813" d="M1095.836,379.881l.415-.638a7.886,7.886,0,0,1,6.611-3.588h49.572a7.886,7.886,0,0,1,6.762,3.829l.238.4Z" transform="translate(-1057.064 -265.746)" fill="#fff"/>
      <path id="Trazado_102814" data-name="Trazado 102814" d="M1035.732,210.027v73.849h141.142V210.027a4.752,4.752,0,0,0-4.752-4.752H1040.484A4.752,4.752,0,0,0,1035.732,210.027Z" transform="translate(-1035.732 -205.275)" fill="#231f20"/>
      <rect id="Rectángulo_5528" data-name="Rectángulo 5528" width="132.796" height="69.726" transform="translate(4.648 4.754)" fill="#fefefe"/>
      <g id="Grupo_56686" data-name="Grupo 56686" transform="translate(64.065 68.745)">
        <g id="Grupo_56685" data-name="Grupo 56685">
          <g id="Grupo_56682" data-name="Grupo 56682">
            <circle id="Elipse_3968" data-name="Elipse 3968" cx="1.251" cy="1.251" r="1.251" fill="#b0b1b3"/>
          </g>
          <g id="Grupo_56683" data-name="Grupo 56683" transform="translate(5.255)">
            <circle id="Elipse_3969" data-name="Elipse 3969" cx="1.251" cy="1.251" r="1.251" fill="#b0b1b3"/>
          </g>
          <g id="Grupo_56684" data-name="Grupo 56684" transform="translate(10.51)">
            <circle id="Elipse_3970" data-name="Elipse 3970" cx="1.251" cy="1.251" r="1.251" fill="#b0b1b3"/>
          </g>
        </g>
      </g>
      <g id="Grupo_56687" data-name="Grupo 56687" transform="translate(43 33.243)">
        <rect id="Rectángulo_5529" data-name="Rectángulo 5529" width="57.677" height="32.854" fill="#f17781"/>
      </g>
      <g id="Grupo_56688" data-name="Grupo 56688" transform="translate(49.561 56.031)">
        <path id="Trazado_102815" data-name="Trazado 102815" d="M1156.792,293.866h-43.585a.645.645,0,0,0-.645.645h0a.645.645,0,0,0,.645.645h43.585a.645.645,0,0,0,.645-.645h0A.645.645,0,0,0,1156.792,293.866Z" transform="translate(-1112.562 -292.749)" fill="#231f20"/>
        <circle id="Elipse_3971" data-name="Elipse 3971" cx="1.762" cy="1.762" r="1.762" transform="translate(1.672)" fill="#fef200"/>
      </g>
      <path id="Trazado_102816" data-name="Trazado 102816" d="M1140.658,273.657v-5.408l4.314,2.7,4.314,2.7-4.314,2.7-4.314,2.7Z" transform="translate(-1072.973 -227.626)" fill="#fff"/>
      <g id="Grupo_56691" data-name="Grupo 56691" transform="translate(109.534 33.662)">
        <rect id="Rectángulo_5530" data-name="Rectángulo 5530" width="20.099" height="32.854" fill="#d2d3d5"/>
        <g id="Grupo_56690" data-name="Grupo 56690" transform="translate(1.642 6.022)">
          <g id="Grupo_56689" data-name="Grupo 56689">
            <rect id="Rectángulo_5531" data-name="Rectángulo 5531" width="10.332" height="2.12" fill="#eaeaea"/>
            <rect id="Rectángulo_5532" data-name="Rectángulo 5532" width="6.255" height="2.12" transform="translate(0 5.97)" fill="#eaeaea"/>
            <rect id="Rectángulo_5533" data-name="Rectángulo 5533" width="8.606" height="2.12" transform="translate(8.208 5.97)" fill="#eaeaea"/>
            <rect id="Rectángulo_5534" data-name="Rectángulo 5534" width="3.612" height="2.12" transform="translate(0 11.939)" fill="#eaeaea"/>
            <rect id="Rectángulo_5535" data-name="Rectángulo 5535" width="11.079" height="2.12" transform="translate(5.736 11.939)" fill="#eaeaea"/>
            <rect id="Rectángulo_5536" data-name="Rectángulo 5536" width="7.674" height="2.12" transform="translate(0 17.909)" fill="#eaeaea"/>
            <rect id="Rectángulo_5537" data-name="Rectángulo 5537" width="4.529" height="2.12" transform="translate(12.285)" fill="#eaeaea"/>
            <rect id="Rectángulo_5538" data-name="Rectángulo 5538" width="7.187" height="2.12" transform="translate(9.628 17.909)" fill="#eaeaea"/>
          </g>
        </g>
      </g>
      <g id="Grupo_56694" data-name="Grupo 56694" transform="translate(13.941 33.662)">
        <rect id="Rectángulo_5539" data-name="Rectángulo 5539" width="20.099" height="32.854" fill="#d2d3d5"/>
        <g id="Grupo_56693" data-name="Grupo 56693" transform="translate(1.642 6.022)">
          <g id="Grupo_56692" data-name="Grupo 56692">
            <rect id="Rectángulo_5540" data-name="Rectángulo 5540" width="10.332" height="2.12" transform="translate(6.483 17.909)" fill="#eaeaea"/>
            <rect id="Rectángulo_5541" data-name="Rectángulo 5541" width="6.255" height="2.12" transform="translate(10.559 11.939)" fill="#eaeaea"/>
            <rect id="Rectángulo_5542" data-name="Rectángulo 5542" width="8.606" height="2.12" transform="translate(0 11.939)" fill="#eaeaea"/>
            <rect id="Rectángulo_5543" data-name="Rectángulo 5543" width="3.612" height="2.12" transform="translate(13.202 5.97)" fill="#eaeaea"/>
            <rect id="Rectángulo_5544" data-name="Rectángulo 5544" width="11.079" height="2.12" transform="translate(0 5.97)" fill="#eaeaea"/>
            <rect id="Rectángulo_5545" data-name="Rectángulo 5545" width="7.674" height="2.12" transform="translate(9.14)" fill="#eaeaea"/>
            <rect id="Rectángulo_5546" data-name="Rectángulo 5546" width="4.529" height="2.12" transform="translate(0 17.909)" fill="#eaeaea"/>
            <rect id="Rectángulo_5547" data-name="Rectángulo 5547" width="7.187" height="2.12" fill="#eaeaea"/>
          </g>
        </g>
      </g>
      <g id="Grupo_56697" data-name="Grupo 56697" transform="translate(4.648 4.754)">
        <rect id="Rectángulo_5548" data-name="Rectángulo 5548" width="132.796" height="23.581" fill="#7abed3"/>
        <g id="Grupo_56696" data-name="Grupo 56696">
          <rect id="Rectángulo_5549" data-name="Rectángulo 5549" width="132.796" height="6.036" fill="#513c2b"/>
          <g id="Grupo_56695" data-name="Grupo 56695" transform="translate(114.935 1.767)">
            <circle id="Elipse_3972" data-name="Elipse 3972" cx="1.251" cy="1.251" r="1.251" fill="#fef200"/>
            <circle id="Elipse_3973" data-name="Elipse 3973" cx="1.251" cy="1.251" r="1.251" transform="translate(5.255 0)" fill="#3dff60"/>
            <circle id="Elipse_3974" data-name="Elipse 3974" cx="1.251" cy="1.251" r="1.251" transform="translate(10.51 0)" fill="#ff674f"/>
          </g>
        </g>
        <rect id="Rectángulo_5550" data-name="Rectángulo 5550" width="16.177" height="5.147" rx="1.52" transform="translate(67.351 13.034)" fill="#fefefe"/>
        <rect id="Rectángulo_5551" data-name="Rectángulo 5551" width="16.177" height="5.147" rx="1.52" transform="translate(87.94 13.034)" fill="#fefefe"/>
        <rect id="Rectángulo_5552" data-name="Rectángulo 5552" width="16.177" height="5.147" rx="1.52" transform="translate(108.53 13.034)" fill="#fefefe"/>
      </g>
      <path id="Trazado_102817" data-name="Trazado 102817" d="M1042.938,212.645v69.726l50.729.092,13.943-69.818Z" transform="translate(-1038.29 -207.891)" fill="#fff" opacity="0.3"/>
      <path id="Trazado_102818" data-name="Trazado 102818" d="M1169.8,212.645l-13.943,69.818h19.41l13.943-69.818Z" transform="translate(-1078.366 -207.891)" fill="#fff" opacity="0.3"/>
    </g>
    <rect id="Rectángulo_5553" data-name="Rectángulo 5553" width="32.824" height="83.191" transform="translate(910.389 283.97)" fill="#fff"/>
    <g id="Grupo_56700" data-name="Grupo 56700" transform="translate(1001.992 262.332)">
      <path id="Rectángulo_5554" data-name="Rectángulo 5554" d="M0,0H31.54a4.055,4.055,0,0,1,4.055,4.055V21a0,0,0,0,1,0,0H0a0,0,0,0,1,0,0V0A0,0,0,0,1,0,0Z" transform="translate(1.108 0.765)" fill="#feb600"/>
      <path id="Rectángulo_5555" data-name="Rectángulo 5555" d="M0,0H30.559a3.928,3.928,0,0,1,3.928,3.928V20.346a0,0,0,0,1,0,0H0a0,0,0,0,1,0,0V0A0,0,0,0,1,0,0Z" transform="translate(1.108 2.706)" fill="#fefefe"/>
      <path id="Trazado_102819" data-name="Trazado 102819" d="M1089.364,367.975h-28.938a3.882,3.882,0,0,1-3.882-3.882v-18.1a3.882,3.882,0,0,1,3.882-3.882h7.19a3.881,3.881,0,0,1,2.5.914l3.693,3.113a3.884,3.884,0,0,0,2.5.913h13.051a3.882,3.882,0,0,1,3.882,3.882v13.16A3.882,3.882,0,0,1,1089.364,367.975Z" transform="translate(-1056.543 -342.111)" fill="#fef200"/>
      <g id="Grupo_56699" data-name="Grupo 56699" transform="translate(5.451 7.902)">
        <path id="Trazado_102820" data-name="Trazado 102820" d="M1074.21,370.152h-9.217l4.609-6.105,4.609-6.105,4.608,6.105,4.609,6.105Z" transform="translate(-1064.993 -355.632)" fill="#423022"/>
        <path id="Trazado_102821" data-name="Trazado 102821" d="M1089.816,371.6h-7.224l3.612-4.785,3.612-4.785,3.612,4.785,3.612,4.785Z" transform="translate(-1071.239 -357.084)" fill="#423022"/>
        <circle id="Elipse_3975" data-name="Elipse 3975" cx="1.98" cy="1.98" r="1.98" transform="translate(12.293)" fill="#feb600"/>
      </g>
    </g>
    <rect id="Rectángulo_5556" data-name="Rectángulo 5556" width="37.988" height="89.815" transform="translate(907.807 293.652)" fill="#2f6395"/>
    <g id="Grupo_56707" data-name="Grupo 56707" transform="translate(1095.574 228.304)">
      <rect id="Rectángulo_5557" data-name="Rectángulo 5557" width="37.599" height="59.704" rx="8.73" transform="translate(0)" fill="#363032"/>
      <rect id="Rectángulo_5558" data-name="Rectángulo 5558" width="50.816" height="37.599" rx="6.57" transform="translate(0 55.26) rotate(-90)" fill="#e6e4e5"/>
      <path id="Trazado_102822" data-name="Trazado 102822" d="M1201.614,300.489v4.165h37.6v-4.165h0a4.238,4.238,0,0,0-4.238-4.239h-29.123a4.239,4.239,0,0,0-4.238,4.239Z" transform="translate(-1201.614 -291.806)" fill="#47286d"/>
      <path id="Trazado_102823" data-name="Trazado 102823" d="M1202.906,301.248v43.317a1.481,1.481,0,0,0,1.481,1.481h0V299.767h0A1.481,1.481,0,0,0,1202.906,301.248Z" transform="translate(-1202.073 -293.055)" fill="#fff" opacity="0.5"/>
      <path id="Trazado_102824" data-name="Trazado 102824" d="M1257.794,344.565V301.248a1.481,1.481,0,0,0-1.482-1.481h0v46.279h0A1.481,1.481,0,0,0,1257.794,344.565Z" transform="translate(-1221.027 -293.055)" fill="#fff" opacity="0.5"/>
      <path id="Trazado_102825" data-name="Trazado 102825" d="M1232.568,292.347h0a.833.833,0,0,1-.833.833h-6.388a.834.834,0,0,1-.833-.833h0a.833.833,0,0,1,.833-.833h6.388A.833.833,0,0,1,1232.568,292.347Z" transform="translate(-1209.742 -290.125)" fill="#231f20"/>
      <circle id="Elipse_3976" data-name="Elipse 3976" cx="0.833" cy="0.833" r="0.833" transform="translate(24.725 1.389)" fill="#231f20"/>
      <rect id="Rectángulo_5559" data-name="Rectángulo 5559" width="26.56" height="32.167" transform="translate(5.497 15.867)" fill="#bb83ff"/>
      <g id="Grupo_56701" data-name="Grupo 56701" transform="translate(7.313 41.38)">
        <path id="Trazado_102826" data-name="Trazado 102826" d="M1235.234,355.239H1213.6a.645.645,0,0,0-.645.645h0a.645.645,0,0,0,.645.645h21.639a.645.645,0,0,0,.645-.645h0A.645.645,0,0,0,1235.234,355.239Z" transform="translate(-1212.95 -354.122)" fill="#231f20"/>
        <path id="Trazado_102827" data-name="Trazado 102827" d="M1219.065,355.27a1.762,1.762,0,1,0-1.762,1.762A1.762,1.762,0,0,0,1219.065,355.27Z" transform="translate(-1213.87 -353.508)" fill="#fef200"/>
      </g>
      <path id="Trazado_102828" data-name="Trazado 102828" d="M1224.07,332.529v-5.408l4.314,2.7,4.314,2.7-4.314,2.7-4.314,2.7Z" transform="translate(-1209.584 -302.763)" fill="#fff"/>
      <g id="Grupo_56706" data-name="Grupo 56706" transform="translate(13.994 50.135)">
        <g id="Grupo_56705" data-name="Grupo 56705">
          <g id="Grupo_56702" data-name="Grupo 56702">
            <circle id="Elipse_3977" data-name="Elipse 3977" cx="0.92" cy="0.92" r="0.92" fill="#b0b1b3"/>
          </g>
          <g id="Grupo_56703" data-name="Grupo 56703" transform="translate(3.864)">
            <circle id="Elipse_3978" data-name="Elipse 3978" cx="0.92" cy="0.92" r="0.92" fill="#b0b1b3"/>
          </g>
          <g id="Grupo_56704" data-name="Grupo 56704" transform="translate(7.727 0)">
            <path id="Trazado_102829" data-name="Trazado 102829" d="M1237.126,368a.92.92,0,1,1-.92-.92A.92.92,0,0,1,1237.126,368Z" transform="translate(-1235.286 -367.081)" fill="#b0b1b3"/>
          </g>
        </g>
      </g>
      <rect id="Rectángulo_5560" data-name="Rectángulo 5560" width="10.044" height="3.495" rx="1.036" transform="translate(12.416 7.147)" fill="#fefefe"/>
      <rect id="Rectángulo_5561" data-name="Rectángulo 5561" width="10.044" height="3.495" rx="1.036" transform="translate(24.51 7.147)" fill="#fefefe"/>
    </g>
    <g id="Grupo_56708" data-name="Grupo 56708" transform="translate(1092.866 151.319)">
      <path id="Trazado_102830" data-name="Trazado 102830" d="M1220.586,188.581V172.414h-20.776" transform="translate(-1198.266 -170.87)" fill="none" stroke="#fff" stroke-miterlimit="10" stroke-width="1" stroke-dasharray="4"/>
      <circle id="Elipse_3979" data-name="Elipse 3979" cx="1.545" cy="1.545" r="1.545" transform="translate(0 0)" fill="#fff"/>
      <path id="Trazado_102831" data-name="Trazado 102831" d="M1232.711,196.625a1.545,1.545,0,1,0-1.544,1.545A1.544,1.544,0,0,0,1232.711,196.625Z" transform="translate(-1208.847 -178.915)" fill="#fff"/>
    </g>
  </g>
</svg>
