<svg id="Grupo_58519" data-name="Grupo 58519" xmlns="http://www.w3.org/2000/svg" width="67.242" height="66.52" viewBox="0 0 67.242 66.52">
  <g id="Grupo_58507" data-name="Grupo 58507" transform="translate(13.37)">
    <g id="Grupo_58506" data-name="Grupo 58506">
      <g id="Grupo_58505" data-name="Grupo 58505">
        <g id="Grupo_58504" data-name="Grupo 58504">
          <g id="Grupo_58503" data-name="Grupo 58503">
            <path id="Trazado_103544" data-name="Trazado 103544" d="M143.265,76.717H112.749a5.354,5.354,0,0,1-5.354-5.354V15.551a5.354,5.354,0,0,1,5.354-5.354h30.516a5.354,5.354,0,0,1,5.354,5.354V71.363A5.354,5.354,0,0,1,143.265,76.717Z" transform="translate(-107.395 -10.197)" fill="#3d6d93"/>
            <path id="Trazado_103545" data-name="Trazado 103545" d="M349.41,10.2h-4.015a5.354,5.354,0,0,1,5.354,5.354V71.363a5.354,5.354,0,0,1-5.354,5.354h4.015a5.354,5.354,0,0,0,5.354-5.354V15.551A5.354,5.354,0,0,0,349.41,10.2Z" transform="translate(-313.54 -10.197)" fill="#335e80"/>
            <path id="Trazado_103546" data-name="Trazado 103546" d="M163.823,41.268a1.809,1.809,0,0,1-1.809,1.809H145.97a1.809,1.809,0,0,1-1.809-1.809A1.071,1.071,0,0,0,143.09,40.2H139.4a2.008,2.008,0,0,0-2.008,2.008V96.679a2.008,2.008,0,0,0,2.008,2.008h29.178a2.008,2.008,0,0,0,2.008-2.008V42.2a2.008,2.008,0,0,0-2.008-2.008h-3.687A1.071,1.071,0,0,0,163.823,41.268Z" transform="translate(-133.38 -36.182)" fill="#f9f7f8"/>
          </g>
        </g>
      </g>
    </g>
  </g>
  <g id="Grupo_58510" data-name="Grupo 58510" transform="translate(0.722 7.309)">
    <g id="Grupo_58508" data-name="Grupo 58508">
      <circle id="Elipse_4034" data-name="Elipse 4034" cx="11.573" cy="11.573" r="11.573" transform="translate(0 0)" fill="#ffe179"/>
      <path id="Trazado_103547" data-name="Trazado 103547" d="M86.371,64.8a11.634,11.634,0,0,0-2.008.177,11.571,11.571,0,0,1,0,22.792A11.572,11.572,0,1,0,86.371,64.8Z" transform="translate(-74.797 -64.802)" fill="#fbd268"/>
    </g>
    <g id="Grupo_58509" data-name="Grupo 58509" transform="translate(5.55 5.55)">
      <path id="Trazado_103548" data-name="Trazado 103548" d="M64.4,118.316H56.37a2.008,2.008,0,0,1-2.008-2.008v-8.031a2.008,2.008,0,0,1,2.008-2.008H64.4a2.008,2.008,0,0,1,2.008,2.008v8.031A2.008,2.008,0,0,1,64.4,118.316Z" transform="translate(-54.362 -106.27)" fill="#f58a97"/>
      <path id="Trazado_103549" data-name="Trazado 103549" d="M103.378,106.27H99.363a2.008,2.008,0,0,1,2.008,2.008v8.031a2.008,2.008,0,0,1-2.008,2.008h4.015a2.008,2.008,0,0,0,2.008-2.008v-8.031A2.008,2.008,0,0,0,103.378,106.27Z" transform="translate(-93.34 -106.27)" fill="#f07281"/>
      <circle id="Elipse_4035" data-name="Elipse 4035" cx="2.008" cy="2.008" r="2.008" transform="translate(4.015 4.015)" fill="#fff"/>
    </g>
  </g>
  <g id="Grupo_58512" data-name="Grupo 58512" transform="translate(0 34.621)">
    <g id="Grupo_58511" data-name="Grupo 58511">
      <circle id="Elipse_4036" data-name="Elipse 4036" cx="11.573" cy="11.573" r="11.573" fill="#8fd8fa"/>
      <path id="Trazado_103550" data-name="Trazado 103550" d="M80.111,268.866a11.625,11.625,0,0,0-2.141.2,11.572,11.572,0,0,1,0,22.744,11.573,11.573,0,1,0,2.141-22.945Z" transform="translate(-68.538 -268.866)" fill="#6bcdfe"/>
    </g>
    <g id="Shape_2_" transform="translate(5.129 6.256)">
      <path id="Trazado_103551" data-name="Trazado 103551" d="M55.949,316.487a2.557,2.557,0,0,0-4.487,1.712v.571a6.085,6.085,0,0,1-4.761-2.1.342.342,0,0,0-.589.122,5.312,5.312,0,0,0,3.066,6.816,6.645,6.645,0,0,1-2.672,1.062c-.247.04-.125.5-.063.66.431,1.124,5.29,1.591,8.266-.857a7.805,7.805,0,0,0,2.573-4.788A5.263,5.263,0,0,0,58.7,316.9a.611.611,0,0,0-.875-.649,2.931,2.931,0,0,1-.642.224A2.99,2.99,0,0,1,55.949,316.487Z" transform="translate(-45.819 -315.608)" fill="#fff"/>
    </g>
  </g>
  <g id="Grupo_58515" data-name="Grupo 58515" transform="translate(44.096 34.621)">
    <g id="Grupo_58513" data-name="Grupo 58513">
      <circle id="Elipse_4037" data-name="Elipse 4037" cx="11.573" cy="11.573" r="11.573" transform="translate(0 0)" fill="#f58a97"/>
      <path id="Trazado_103552" data-name="Trazado 103552" d="M410.435,268.866a11.637,11.637,0,0,0-2.008.177,11.571,11.571,0,0,1,0,22.792,11.572,11.572,0,1,0,2.008-22.969Z" transform="translate(-398.861 -268.866)" fill="#f07281"/>
    </g>
    <g id="Grupo_58514" data-name="Grupo 58514" transform="translate(8.732 7.248)">
      <path id="Trazado_103553" data-name="Trazado 103553" d="M402.2,323.4a.389.389,0,0,1,.583-.337l7.039,4.066a.389.389,0,0,1,0,.674l-7.039,4.066a.389.389,0,0,1-.583-.337Z" transform="translate(-402.196 -323.015)" fill="#fff"/>
    </g>
  </g>
  <g id="Grupo_58517" data-name="Grupo 58517" transform="translate(44.096 7.309)">
    <g id="Grupo_58516" data-name="Grupo 58516">
      <circle id="Elipse_4038" data-name="Elipse 4038" cx="11.573" cy="11.573" r="11.573" fill="#8fd8fa"/>
      <path id="Trazado_103554" data-name="Trazado 103554" d="M410.435,64.8a11.634,11.634,0,0,0-2.008.177,11.571,11.571,0,0,1,0,22.792A11.572,11.572,0,1,0,410.435,64.8Z" transform="translate(-398.861 -64.802)" fill="#6bcdfe"/>
    </g>
  </g>
  <path id="Trazado_103555" data-name="Trazado 103555" d="M204.415,198.262a8.089,8.089,0,0,0-7.44,10.694.924.924,0,0,1-.005.6l-1.077,3.064a.535.535,0,0,0,.683.683l2.155-.758a.946.946,0,0,1,.9.156,8.089,8.089,0,1,0,4.785-14.443Z" transform="translate(-170.65 -173.088)" fill="#aee69c"/>
  <g id="Grupo_58518" data-name="Grupo 58518" transform="translate(31.969 25.171)">
    <path id="Trazado_103556" data-name="Trazado 103556" d="M248.146,198.262a7.992,7.992,0,0,0-1.786.252,8.087,8.087,0,0,1-.01,15.67,8.089,8.089,0,1,0,1.8-15.921Z" transform="translate(-246.35 -198.259)" fill="#89daa4"/>
  </g>
  <g id="Grupo_58521" data-name="Grupo 58521" transform="translate(-1003.678 -285.833)">
    <path id="Trazado_103558" data-name="Trazado 103558" d="M1060.137,303.146c.924.511,2.577-.456,2.534,1.233-.04,1.552-1.593.661-2.536,1.131,0,1.83-.006,3.736,0,5.643,0,.767-.045,1.542-1.039,1.555s-1.085-.755-1.085-1.525c0-1.909,0-3.817,0-5.644-.909-.549-2.574.462-2.5-1.284.064-1.517,1.528-.635,2.5-1.124,0-.645,0-1.425,0-2.205.017-2.384,1.17-3.548,3.516-3.553a7.836,7.836,0,0,1,1.91.042c.4.1.7.583,1.044.894-.336.364-.616.937-1.02,1.044a9.747,9.747,0,0,1-2.148.07c-.757.022-1.193.38-1.183,1.187C1060.145,301.479,1060.137,302.348,1060.137,303.146Z" fill="#fff"/>
    <path id="Trazado_103559" data-name="Trazado 103559" d="M1034.8,317.887a7.471,7.471,0,0,1,.743-1.849,1.374,1.374,0,0,1,1.268-.4,1.41,1.41,0,0,1,.512,1.233c-.31,1.641.12,2.561,1.723,2.9a1.963,1.963,0,0,0,1.375-.639c.513-.487.974-.915,1.634-.379.7.566.425,1.2-.033,1.783a3.211,3.211,0,0,1-4.555.814C1035.357,320.1,1034.877,319.453,1034.8,317.887Z" fill="#fff"/>
  </g>
</svg>
