<svg xmlns="http://www.w3.org/2000/svg" width="58.703" height="61.572" viewBox="0 0 58.703 61.572">
  <g id="tv" transform="translate(-10.911)">
    <path id="Trazado_103423" data-name="Trazado 103423" d="M181.02,24.219,172.977,11.26l1.37-.758,6.673,10.485L187.692,10.5l1.37.758Z" transform="translate(-140.757 -9.121)" fill="#e1e6e9"/>
    <path id="Trazado_103424" data-name="Trazado 103424" d="M213.465,83.842a3.131,3.131,0,0,0-3.131,3.131H216.6A3.131,3.131,0,0,0,213.465,83.842Z" transform="translate(-173.202 -72.818)" fill="#64798a"/>
    <path id="Trazado_103425" data-name="Trazado 103425" d="M40.676,414.508v4.723a2.348,2.348,0,0,0,2.348,2.348H89.2a2.348,2.348,0,0,0,2.348-2.348v-4.723Z" transform="translate(-25.851 -360.008)" fill="#3a556a"/>
    <path id="Trazado_103426" data-name="Trazado 103426" d="M67.972,161.825H12.553a1.642,1.642,0,0,1-1.642-1.642V121.2a1.642,1.642,0,0,1,1.642-1.642H67.972a1.642,1.642,0,0,1,1.642,1.642v38.982A1.642,1.642,0,0,1,67.972,161.825Z" transform="translate(0 -103.839)" fill="#64798a"/>
    <path id="Trazado_103427" data-name="Trazado 103427" d="M79.806,151.684v29.743a2.345,2.345,0,0,1-2.348,2.348H43.019a2.345,2.345,0,0,1-2.348-2.348V151.684a2.345,2.345,0,0,1,2.348-2.348H77.458A2.345,2.345,0,0,1,79.806,151.684Z" transform="translate(-25.847 -129.701)" fill="#ebf0f3"/>
    <rect id="Rectángulo_5644" data-name="Rectángulo 5644" width="7.827" height="34.439" transform="translate(30.479 19.634)" fill="#27a2db"/>
    <rect id="Rectángulo_5645" data-name="Rectángulo 5645" width="7.827" height="34.439" transform="translate(22.655 19.63)" fill="#44c4a1"/>
    <path id="Trazado_103428" data-name="Trazado 103428" d="M48.5,149.336v34.439H43.019a2.345,2.345,0,0,1-2.348-2.348V151.684a2.345,2.345,0,0,1,2.348-2.348Z" transform="translate(-25.847 -129.701)" fill="#fcd462"/>
    <rect id="Rectángulo_5646" data-name="Rectángulo 5646" width="7.827" height="34.439" transform="translate(38.303 19.637)" fill="#e56353"/>
    <path id="Trazado_103429" data-name="Trazado 103429" d="M286.615,151.684v29.743a2.345,2.345,0,0,1-2.348,2.348h-5.479V149.336h5.479A2.345,2.345,0,0,1,286.615,151.684Z" transform="translate(-232.656 -129.701)" fill="#ebf0f3"/>
    <path id="Trazado_103430" data-name="Trazado 103430" d="M371.522,183.862a4.683,4.683,0,1,1-3.749-4.6A4.7,4.7,0,0,1,371.522,183.862Z" transform="translate(-305.04 -155.609)" fill="#3a556a"/>
    <path id="Trazado_103431" data-name="Trazado 103431" d="M375.1,191.073l5.193,5.193a3.848,3.848,0,0,1-1.069,1.069l-5.193-5.193a3.84,3.84,0,0,1,1.069-1.069Z" transform="translate(-315.381 -165.95)" fill="#64798a"/>
    <g id="Grupo_58495" data-name="Grupo 58495" transform="translate(57.092 38.413)">
      <rect id="Rectángulo_5647" data-name="Rectángulo 5647" width="9.393" height="1.174" fill="#d5d6db"/>
      <rect id="Rectángulo_5648" data-name="Rectángulo 5648" width="9.393" height="1.174" transform="translate(0 3.522)" fill="#d5d6db"/>
      <rect id="Rectángulo_5649" data-name="Rectángulo 5649" width="9.393" height="1.174" transform="translate(0 7.043)" fill="#d5d6db"/>
      <rect id="Rectángulo_5650" data-name="Rectángulo 5650" width="9.393" height="1.174" transform="translate(0 10.566)" fill="#d5d6db"/>
    </g>
    <path id="Trazado_103432" data-name="Trazado 103432" d="M190.271,104.048H174.617v-.706a1.642,1.642,0,0,1,1.642-1.642h12.37a1.642,1.642,0,0,1,1.642,1.642Z" transform="translate(-142.182 -88.328)" fill="#3a556a"/>
    <g id="Grupo_58496" data-name="Grupo 58496" transform="translate(31.244 0)">
      <circle id="Elipse_4027" data-name="Elipse 4027" cx="1.761" cy="1.761" r="1.761" transform="translate(14.516)" fill="#64798a"/>
      <circle id="Elipse_4028" data-name="Elipse 4028" cx="1.761" cy="1.761" r="1.761" fill="#64798a"/>
    </g>
  </g>
</svg>
