<svg xmlns="http://www.w3.org/2000/svg" width="177" height="177" viewBox="0 0 177 177">
  <g id="Grupo_60883" data-name="Grupo 60883" transform="translate(-525 -2103)">
    <g id="Elipse_3958" data-name="Elipse 3958" transform="translate(525 2103)" fill="#bb83ff" stroke="#707070" stroke-width="1" opacity="0.15">
      <circle cx="88.5" cy="88.5" r="88.5" stroke="none"/>
      <circle cx="88.5" cy="88.5" r="88" fill="none"/>
    </g>
    <g id="diseno-de-contenidos" transform="translate(555.432 2135.556)">
      <path id="Trazado_102709" data-name="Trazado 102709" d="M125.284,181.758H105.5l1.671-45.108h16.443Z" transform="translate(-57.323 -69.427)" fill="#87828e"/>
      <path id="Trazado_102710" data-name="Trazado 102710" d="M106.825,86.567H13.795A6.586,6.586,0,0,1,7.2,79.972V23.345a6.586,6.586,0,0,1,6.595-6.595h93.031a6.586,6.586,0,0,1,6.595,6.595V80.016a6.577,6.577,0,0,1-6.595,6.551Z" transform="translate(-2.241 -2.241)" fill="#ffe2e2"/>
      <path id="Trazado_102711" data-name="Trazado 102711" d="M29.208,38.476h86.868V80.427H29.208Z" transform="translate(-14.574 -14.415)" fill="#5fcdff"/>
      <path id="Trazado_102712" data-name="Trazado 102712" d="M125.335,71.9,105.917,60.686V83.108Z" transform="translate(-57.557 -26.861)" fill="#ff4a73"/>
      <path id="Trazado_102713" data-name="Trazado 102713" d="M113.132,175.55l-1.038,28.006H105.5l1.038-28.006Z" transform="translate(-57.323 -91.224)" fill="#a4a4a5"/>
      <path id="Trazado_102714" data-name="Trazado 102714" d="M20.39,86.567H13.795A6.586,6.586,0,0,1,7.2,79.972V23.345a6.586,6.586,0,0,1,6.595-6.595H20.39a6.586,6.586,0,0,0-6.595,6.595V79.972A6.586,6.586,0,0,0,20.39,86.567Z" transform="translate(-2.241 -2.241)" fill="#ffefee"/>
      <path id="Trazado_102715" data-name="Trazado 102715" d="M29.21,38.48H35.8V80.432H29.21Z" transform="translate(-14.575 -14.418)" fill="#73d7f9"/>
      <path id="Trazado_102716" data-name="Trazado 102716" d="M211.79,38.48h6.595V80.432H211.79Z" transform="translate(-116.883 -14.418)" fill="#30b6ff"/>
      <path id="Trazado_102717" data-name="Trazado 102717" d="M231.99,23.345V80.016a6.577,6.577,0,0,1-6.595,6.551H218.8a6.577,6.577,0,0,0,6.595-6.551V23.345A6.586,6.586,0,0,0,218.8,16.75h6.595A6.586,6.586,0,0,1,231.99,23.345Z" transform="translate(-120.811 -2.241)" fill="#ffcfcf"/>
      <g id="Grupo_56669" data-name="Grupo 56669" transform="translate(75.558 66.014)">
        <path id="Trazado_102718" data-name="Trazado 102718" d="M199.65,157.188l-3.174-1.833a1.689,1.689,0,0,1-.835-1.719,11.753,11.753,0,0,0,.123-1.679,11.333,11.333,0,0,0-.114-1.6,1.7,1.7,0,0,1,.835-1.715l3.451-1.992a1.705,1.705,0,0,0,.624-2.335l-1.482-2.568a1.709,1.709,0,0,0-2.335-.624l-3.522,2.031a1.69,1.69,0,0,1-1.873-.1,11.243,11.243,0,0,0-2.537-1.455,1.719,1.719,0,0,1-1.051-1.6v-4.4a1.711,1.711,0,0,0-1.71-1.706h-2.963a1.708,1.708,0,0,0-1.71,1.706v4.414a1.692,1.692,0,0,1-1.046,1.574,11.1,11.1,0,0,0-2.321,1.3,1.7,1.7,0,0,1-1.842.084l-4.058-2.343a1.705,1.705,0,0,0-2.335.624l-1.482,2.568a1.706,1.706,0,0,0,.624,2.335l3.781,2.181a1.7,1.7,0,0,1,.831,1.763,11.239,11.239,0,0,0-.154,1.855c0,.295.009.58.031.866a1.688,1.688,0,0,1-.849,1.6l-3.926,2.269a1.709,1.709,0,0,0-.624,2.335l1.482,2.563a1.711,1.711,0,0,0,2.335.629l3.447-1.992a1.713,1.713,0,0,1,1.978.193,11.168,11.168,0,0,0,2.594,1.679,1.7,1.7,0,0,1,.967,1.543v4.093a1.707,1.707,0,0,0,1.706,1.706h2.963a1.708,1.708,0,0,0,1.71-1.706v-3.627a1.7,1.7,0,0,1,1.126-1.6,11.229,11.229,0,0,0,2.976-1.6,1.7,1.7,0,0,1,1.864-.1l3.3,1.908a1.709,1.709,0,0,0,2.335-.624l1.482-2.568A1.705,1.705,0,0,0,199.65,157.188Zm-10.495-.646a6.483,6.483,0,1,1,0-9.167A6.485,6.485,0,0,1,189.156,156.542Z" transform="translate(-167.779 -133.9)" fill="#87828e"/>
      </g>
      <g id="Grupo_56670" data-name="Grupo 56670" transform="translate(3.2 12.75)">
        <path id="Trazado_102719" data-name="Trazado 102719" d="M104.584,12.75H11.553A8.363,8.363,0,0,0,3.2,21.1V77.731a8.363,8.363,0,0,0,8.353,8.353H47.389l-.907,24.489H37.757a1.759,1.759,0,1,0,0,3.517H78.425a1.759,1.759,0,1,0,0-3.517H69.655l-.907-24.489h8.868l-2.083,1.2a3.471,3.471,0,0,0-1.269,4.737l1.481,2.565a3.467,3.467,0,0,0,4.737,1.269L83.9,93.886a12.965,12.965,0,0,0,2.931,1.905v4.061A3.472,3.472,0,0,0,90.3,103.32h2.962a3.472,3.472,0,0,0,3.468-3.468v-3.59a12.893,12.893,0,0,0,3.356-1.8l3.276,1.891a3.467,3.467,0,0,0,4.737-1.269l1.481-2.566a3.471,3.471,0,0,0-1.269-4.736l-3-1.733a8.334,8.334,0,0,0,7.63-8.273V21.1a8.362,8.362,0,0,0-8.353-8.353ZM50,110.573l.907-24.489h14.32l.907,24.489ZM106.507,90.8l-1.432,2.48L101.813,91.4a3.449,3.449,0,0,0-3.8.219,9.4,9.4,0,0,1-2.505,1.346,3.464,3.464,0,0,0-2.3,3.263V99.8H90.346V95.758a3.465,3.465,0,0,0-1.983-3.133,9.431,9.431,0,0,1-2.186-1.418,3.472,3.472,0,0,0-4.007-.386l-3.4,1.966-1.432-2.48,3.883-2.242c2.347-1.355,1.471-3.45,1.825-5.557a3.483,3.483,0,0,0-1.684-3.579l-3.738-2.159,1.432-2.48,4.017,2.319a3.455,3.455,0,0,0,3.752-.184,9.41,9.41,0,0,1,1.958-1.09,3.442,3.442,0,0,0,2.138-3.2V67.769h2.864v4.345a3.462,3.462,0,0,0,2.143,3.223,9.437,9.437,0,0,1,2.139,1.226,3.441,3.441,0,0,0,3.82.229l3.478-2.008,1.432,2.48-3.406,1.967a3.445,3.445,0,0,0-1.7,3.49,9.47,9.47,0,0,1-.009,2.766,3.439,3.439,0,0,0,1.7,3.5ZM16.393,64.253V25.819H99.744V64.253ZM105.2,82.523c-.011-.088-.015-.176-.028-.263l3.419-1.974c.058-.034.113-.073.168-.109a4.842,4.842,0,0,1-3.559,2.346Zm4.218-7.74-1.039-1.8a3.466,3.466,0,0,0-4.737-1.269l-3.5,2.018A12.956,12.956,0,0,0,97.3,72.1V67.77H101.5a1.759,1.759,0,0,0,1.759-1.759V24.061A1.759,1.759,0,0,0,101.5,22.3H14.634a1.759,1.759,0,0,0-1.759,1.759V66.012a1.759,1.759,0,0,0,1.759,1.759H87.4V72.1a12.932,12.932,0,0,0-2.6,1.447l-4.031-2.327a3.462,3.462,0,0,0-4.6,1.056H28.758V70.454a1.759,1.759,0,1,0-3.517,0v1.823H14.634a1.759,1.759,0,1,0,0,3.517H25.241v1.823a1.759,1.759,0,1,0,3.517,0V75.795H74.233a3.461,3.461,0,0,0,1.585,4l3.75,2.165c-.033.2-.051.405-.075.608H11.553a4.842,4.842,0,0,1-4.836-4.836V21.1a4.842,4.842,0,0,1,4.836-4.836h93.031A4.842,4.842,0,0,1,109.42,21.1Z" transform="translate(-3.2 -12.75)" fill="#5f266d"/>
        <path id="Trazado_102720" data-name="Trazado 102720" d="M123.973,68.13,104.555,56.919a1.76,1.76,0,0,0-2.638,1.523V80.864a1.76,1.76,0,0,0,2.638,1.523l19.418-11.211a1.759,1.759,0,0,0,0-3.045Zm-18.538,9.688V61.488l14.142,8.165Z" transform="translate(-58.516 -37.367)" fill="#5f266d"/>
        <path id="Trazado_102721" data-name="Trazado 102721" d="M202.964,53.686H199.2a1.759,1.759,0,0,0,0,3.517h3.763a1.759,1.759,0,0,0,0-3.517Z" transform="translate(-112.043 -35.688)" fill="#5f266d"/>
        <path id="Trazado_102722" data-name="Trazado 102722" d="M172.994,53.686H164.2a1.759,1.759,0,0,0,0,3.517h8.793a1.759,1.759,0,1,0,0-3.517Z" transform="translate(-92.431 -35.688)" fill="#5f266d"/>
        <path id="Trazado_102723" data-name="Trazado 102723" d="M189.635,158.639a8.241,8.241,0,1,0,11.656,0A8.233,8.233,0,0,0,189.635,158.639Zm9.168,9.168a4.723,4.723,0,0,1-7.613-1.329h8.54A4.683,4.683,0,0,1,198.8,167.806Zm-7.817-4.846a4.723,4.723,0,0,1,8.948,0Z" transform="translate(-106.314 -93.143)" fill="#5f266d"/>
      </g>
    </g>
  </g>
</svg>
