<svg xmlns="http://www.w3.org/2000/svg" width="77.484" height="77.484" viewBox="0 0 77.484 77.484">
  <g id="Outline" transform="translate(-16 -16)">
    <rect id="Rectángulo_5562" data-name="Rectángulo 5562" width="2" height="3" transform="translate(54 86)" fill="#47286d"/>
    <path id="Trazado_102833" data-name="Trazado 102833" d="M22.457,44.411h4.752l8.7,6.217a1.291,1.291,0,0,0,2.017-1.3l-.982-4.912H45.7a6.465,6.465,0,0,0,6.457-6.457v-15.5A6.465,6.465,0,0,0,45.7,16H22.457A6.465,6.465,0,0,0,16,22.457v15.5a6.465,6.465,0,0,0,6.457,6.457ZM18.583,22.457a3.879,3.879,0,0,1,3.874-3.874H45.7a3.879,3.879,0,0,1,3.874,3.874v15.5A3.879,3.879,0,0,1,45.7,41.828H35.371A1.291,1.291,0,0,0,34.1,43.373l.651,3.254-6.383-4.559a1.291,1.291,0,0,0-.75-.24H22.457a3.879,3.879,0,0,1-3.874-3.874Z" fill="#47286d"/>
    <path id="Trazado_102834" data-name="Trazado 102834" d="M65.355,55.818v7.748a1.291,1.291,0,0,0,1.291,1.291H76.978a1.291,1.291,0,0,0,1.291-1.291v-.493l3.3,1.648a1.291,1.291,0,0,0,1.869-1.155V55.818a1.291,1.291,0,0,0-1.869-1.155l-3.3,1.648v-.493c0-.021-.011-.039-.012-.061a4.514,4.514,0,1,0-6.445-6.321,4.514,4.514,0,1,0-6.445,6.321C65.366,55.779,65.355,55.8,65.355,55.818Zm10.331,6.457H67.938V57.11h7.748Zm5.166-4.367v3.569l-2.583-1.291V59.2ZM75.04,50.653A1.937,1.937,0,1,1,73.1,52.59,1.937,1.937,0,0,1,75.04,50.653Zm-6.457,0a1.937,1.937,0,1,1-1.937,1.937,1.937,1.937,0,0,1,1.937-1.937Z" transform="translate(-40.315 -26.904)" fill="#47286d"/>
    <path id="Trazado_102835" data-name="Trazado 102835" d="M180.947,53.166H169.194A6.468,6.468,0,0,0,162.868,48H148.662v2.583h14.205a3.868,3.868,0,0,1,3.636,2.583H155.119a6.465,6.465,0,0,0-6.457,6.457v15.5a6.465,6.465,0,0,0,6.457,6.457h10.047l-.982,4.912a1.291,1.291,0,0,0,2.017,1.3l.541-.386v5.258l-3.607-3.607a5.857,5.857,0,1,0-8.283,8.283l7.642,7.642a12.134,12.134,0,0,0-1.213,2.421H128v6.457a6.465,6.465,0,0,0,6.457,6.457h45.2a1.291,1.291,0,0,0,1.291-1.291V94.542a14.141,14.141,0,0,0-3.458-9.286l-2.748-3.563.162-.116h6.043a6.465,6.465,0,0,0,6.457-6.457v-15.5A6.465,6.465,0,0,0,180.947,53.166Zm-25.828,2.583h25.828a3.879,3.879,0,0,1,3.874,3.874V72.706l-5.741-3.827a1.293,1.293,0,0,0-1.433,0l-6.988,4.658-9.6-7.2a1.29,1.29,0,0,0-1.549,0l-8.266,6.2V59.623A3.879,3.879,0,0,1,155.119,55.748Zm-24.537,58.113v-3.874h29.979a12.579,12.579,0,0,0,1.26,7.748H134.457A3.879,3.879,0,0,1,130.583,113.861Zm44.911-26.967a11.623,11.623,0,0,1,2.87,7.648v23.193H164.811a10.006,10.006,0,0,1-1.4-8.673,9.689,9.689,0,0,1,1.241-2.656l.581-.865a1.291,1.291,0,0,0-.159-1.633l-8.394-8.394a3.274,3.274,0,1,1,4.631-4.63l10.977,10.977,1.826-1.826-4.787-4.788V85.562l3.314-2.367Zm5.453-7.9H174.49a1.291,1.291,0,0,0-.75.24l-6.383,4.559.651-3.254a1.291,1.291,0,0,0-1.266-1.545H155.119a3.87,3.87,0,0,1-3.814-3.275l8.979-6.734,9.556,7.167a1.29,1.29,0,0,0,1.491.042l7.032-4.689,6.392,4.262A3.872,3.872,0,0,1,180.947,78.994Z" transform="translate(-93.92 -26.834)" fill="#47286d"/>
    <path id="Trazado_102836" data-name="Trazado 102836" d="M365.166,122.331A5.166,5.166,0,1,0,360,117.166,5.166,5.166,0,0,0,365.166,122.331Zm0-7.748a2.583,2.583,0,1,1-2.583,2.583A2.583,2.583,0,0,1,365.166,114.583Z" transform="translate(-288.47 -80.503)" fill="#47286d"/>
    <path id="Trazado_102837" data-name="Trazado 102837" d="M22.457,265.831H43.119a6.465,6.465,0,0,0,6.457-6.457v-7.748a6.465,6.465,0,0,0-6.457-6.457h-.928l.889-3.561a1.291,1.291,0,0,0-1.893-1.434l-8.742,5H22.457A6.465,6.465,0,0,0,16,251.625v7.748a6.465,6.465,0,0,0,6.457,6.457Zm-3.874-14.205a3.879,3.879,0,0,1,3.874-3.874H32.788a1.291,1.291,0,0,0,.64-.17l6.413-3.664-.557,2.23a1.291,1.291,0,0,0,1.252,1.6h2.583a3.879,3.879,0,0,1,3.874,3.874v7.748a3.879,3.879,0,0,1-3.874,3.874H22.457a3.879,3.879,0,0,1-3.874-3.874Z" transform="translate(0 -187.843)" fill="#47286d"/>
    <rect id="Rectángulo_5563" data-name="Rectángulo 5563" width="14" height="4" transform="translate(21 63)" fill="#47286d"/>
    <rect id="Rectángulo_5564" data-name="Rectángulo 5564" width="6" height="4" transform="translate(38 63)" fill="#47286d"/>
    <rect id="Rectángulo_5565" data-name="Rectángulo 5565" width="23" height="3" transform="translate(21 69)" fill="#47286d"/>
  </g>
</svg>
