<svg xmlns="http://www.w3.org/2000/svg" width="177" height="177" viewBox="0 0 177 177">
  <g id="Grupo_60885" data-name="Grupo 60885" transform="translate(-1023 -2103)">
    <g id="Elipse_3960" data-name="Elipse 3960" transform="translate(1023 2103)" fill="#bb83ff" stroke="#707070" stroke-width="1" opacity="0.15">
      <circle cx="88.5" cy="88.5" r="88.5" stroke="none"/>
      <circle cx="88.5" cy="88.5" r="88" fill="none"/>
    </g>
    <g id="equipo" transform="translate(1064 2133)">
      <path id="Trazado_102735" data-name="Trazado 102735" d="M47.939,35.812,34.581,32a4.887,4.887,0,0,1-9.774,0L11.448,35.812A13.034,13.034,0,0,0,2,48.339v6.467H57.387V48.339A13.034,13.034,0,0,0,47.939,35.812Z" transform="translate(0.629 19.5)" fill="#ff826e"/>
      <path id="Trazado_102736" data-name="Trazado 102736" d="M18.29,52a16.3,16.3,0,0,1,16.29,16.29H2A16.3,16.3,0,0,1,18.29,52Z" transform="translate(0.629 32.081)" fill="#ffeaa7"/>
      <path id="Trazado_102737" data-name="Trazado 102737" d="M74.581,68.29H42a16.29,16.29,0,1,1,32.581,0Z" transform="translate(25.79 32.081)" fill="#ffeaa7"/>
      <path id="Trazado_102738" data-name="Trazado 102738" d="M38.29,52a16.3,16.3,0,0,1,16.29,16.29H22A16.3,16.3,0,0,1,38.29,52Z" transform="translate(13.21 32.081)" fill="#ffeaa7"/>
      <path id="Trazado_102739" data-name="Trazado 102739" d="M41.193,15a6.454,6.454,0,0,1,3.437,10.361L42.692,27.3a4.851,4.851,0,0,0-3.111-1.124H35.068A20.709,20.709,0,0,1,22.655,22.04a3.733,3.733,0,0,0-5.36.929l-2.15,3.209H13.516A4.851,4.851,0,0,0,10.4,27.3L8.466,25.363A6.454,6.454,0,0,1,11.9,15c0-.081-.016-.147-.016-.228A6.514,6.514,0,0,1,18.4,8.258a6.332,6.332,0,0,1,2.3.44,6.473,6.473,0,0,1,11.7,0,6.332,6.332,0,0,1,2.3-.44,6.514,6.514,0,0,1,6.516,6.516C41.21,14.856,41.193,14.921,41.193,15Z" transform="translate(3.774 2.516)" fill="#b27946"/>
      <g id="Grupo_56671" data-name="Grupo 56671" transform="translate(12.403 23.806)">
        <path id="Trazado_102740" data-name="Trazado 102740" d="M31.112,19.124c.114.1.228.2.342.31A4.884,4.884,0,0,1,28,27.774H25.41a18.338,18.338,0,0,0,.961-5.9V18H28A4.851,4.851,0,0,1,31.112,19.124Z" transform="translate(2.951 -13.113)" fill="#f0d0b4"/>
        <path id="Trazado_102741" data-name="Trazado 102741" d="M14.516,18v3.877a18.338,18.338,0,0,0,.961,5.9h-2.59A4.894,4.894,0,0,1,8,22.887,4.9,4.9,0,0,1,12.887,18Z" transform="translate(-8 -13.113)" fill="#f0d0b4"/>
        <path id="Trazado_102742" data-name="Trazado 102742" d="M34.806,19.887v3.877a18.338,18.338,0,0,1-.961,5.9,18.2,18.2,0,0,1-2.15,4.464A18.36,18.36,0,0,1,28.29,38L23.4,41.065a18.814,18.814,0,0,1-10.442-11.4,18.338,18.338,0,0,1-.961-5.9V19.887l2.15-3.209a3.733,3.733,0,0,1,5.36-.929,20.709,20.709,0,0,0,12.413,4.138Z" transform="translate(-5.484 -15)" fill="#f0d0b4"/>
        <path id="Trazado_102743" data-name="Trazado 102743" d="M20.887,32.183l4.887-3.063v4.692a4.887,4.887,0,1,1-9.774,0V29.12a18.613,18.613,0,0,0,4.887,3.063Z" transform="translate(-2.968 -6.118)" fill="#f0d0b4"/>
      </g>
      <path id="Trazado_102744" data-name="Trazado 102744" d="M23.29,50.145a8.145,8.145,0,1,1-16.29,0,7.676,7.676,0,0,1,.163-1.629,8.012,8.012,0,0,1,1.466-3.258,8.146,8.146,0,0,1,14.5,3.258A7.676,7.676,0,0,1,23.29,50.145Z" transform="translate(3.774 25.79)" fill="#ffeaa7"/>
      <path id="Trazado_102745" data-name="Trazado 102745" d="M41.661,45.258a8.049,8.049,0,0,1,1.629,4.887,8.145,8.145,0,1,1-16.29,0,7.676,7.676,0,0,1,.163-1.629,8.159,8.159,0,0,1,4.724-5.832v-.016A8.318,8.318,0,0,1,35.145,42,8.161,8.161,0,0,1,41.661,45.258Z" transform="translate(16.355 25.79)" fill="#ffeaa7"/>
      <circle id="Elipse_3965" data-name="Elipse 3965" cx="8" cy="8" r="8" transform="translate(76 68)" fill="#ffeaa7"/>
      <path id="Trazado_102746" data-name="Trazado 102746" d="M73.1,12H40.516A6.514,6.514,0,0,0,34,18.516V38.065a6.514,6.514,0,0,0,6.516,6.516h8.145v7.4a2.371,2.371,0,0,0,2.378,2.378,2.329,2.329,0,0,0,1.548-.57l10.735-9.2H73.1a6.514,6.514,0,0,0,6.516-6.516V18.516A6.514,6.514,0,0,0,73.1,12Z" transform="translate(20.758 6.919)" fill="#e6e9ed"/>
      <path id="Trazado_102747" data-name="Trazado 102747" d="M53.032,8.516v3.258H40V8.516a6.516,6.516,0,0,1,13.032,0Z" transform="translate(24.532 0.629)" fill="#aab2bd"/>
      <path id="Trazado_102748" data-name="Trazado 102748" d="M53.032,20l-4.154,8.324a2.649,2.649,0,0,1-4.724,0L40,20H53.032Z" transform="translate(24.532 11.952)" fill="#aab2bd"/>
      <path id="Trazado_102749" data-name="Trazado 102749" d="M50.516,14.516V27.548H44V8h6.516Z" transform="translate(27.048 4.403)" fill="#b4dd7f"/>
      <path id="Trazado_102750" data-name="Trazado 102750" d="M46.516,8V27.548H40V8Z" transform="translate(24.532 4.403)" fill="#ff826e"/>
      <path id="Trazado_102751" data-name="Trazado 102751" d="M90.2,81.662a9.774,9.774,0,1,0-12.231,0,17.986,17.986,0,0,0-10.175,9.4,17.991,17.991,0,0,0-10.175-9.4,9.747,9.747,0,0,0,2.03-13.006v-2.7a14.72,14.72,0,0,0-10.633-14.1L36.839,48.385V45.646A20.4,20.4,0,0,0,41.92,38.21h1.435a6.505,6.505,0,0,0,5.353-10.217l.849-.849.116-.129a8.037,8.037,0,0,0,1.828-5.1,8.12,8.12,0,0,0-4.942-7.467,8.156,8.156,0,0,0-8.09-7.194,7.694,7.694,0,0,0-1.536.156,8.1,8.1,0,0,0-13.218,0,7.694,7.694,0,0,0-1.536-.156,8.156,8.156,0,0,0-8.09,7.194,8.12,8.12,0,0,0-4.942,7.467,8.037,8.037,0,0,0,1.828,5.1l.968.974A6.5,6.5,0,0,0,17.29,38.21h1.435a20.4,20.4,0,0,0,5.081,7.437v2.738L11.633,51.863A14.722,14.722,0,0,0,1,65.959v8.09H9.145A9.761,9.761,0,0,0,12.8,81.662,17.933,17.933,0,0,0,1,98.484v1.629H102V98.484A17.933,17.933,0,0,0,90.2,81.662Zm-38.7-1.1a6.516,6.516,0,1,1,6.516-6.516A6.523,6.523,0,0,1,51.5,80.565ZM43.355,34.952H42.9a20.422,20.422,0,0,0,.454-4.262V28.435a3.258,3.258,0,1,1,0,6.516ZM16.086,17.2l1.28-.327-.055-1.321a.5.5,0,0,0-.02-.158.006.006,0,0,0,0,0A4.852,4.852,0,0,1,23.9,10.847l1.394.529.648-1.344a4.849,4.849,0,0,1,8.766,0l.648,1.344,1.394-.529A4.855,4.855,0,0,1,43.358,15.3l-.081,1.582,1.28.327a4.869,4.869,0,0,1,3.685,4.713,4.816,4.816,0,0,1-1.054,2.986l-.966.966a6.441,6.441,0,0,0-2.867-.694H38.846a19.183,19.183,0,0,1-11.434-3.81,5.377,5.377,0,0,0-7.7,1.32l-1.66,2.491H17.29a6.441,6.441,0,0,0-2.867.694l-.966-.966A4.813,4.813,0,0,1,12.4,21.919,4.873,4.873,0,0,1,16.086,17.2Zm1.2,17.747a3.258,3.258,0,1,1,0-6.516V30.69a20.421,20.421,0,0,0,.454,4.262Zm3.258-4.262V27.3l1.87-2.807a2.189,2.189,0,0,1,3.038-.52,22.448,22.448,0,0,0,13.389,4.464H40.1V30.69A17.163,17.163,0,0,1,30.323,46.2,17.163,17.163,0,0,1,20.548,30.69Zm9.132,18.791.642.275.642-.275a20.344,20.344,0,0,0,2.616-1.354v1.486a3.258,3.258,0,1,1-6.516,0V48.127a20.662,20.662,0,0,0,2.616,1.354ZM4.258,70.79V65.959A11.451,11.451,0,0,1,12.527,55L24.17,51.669a6.474,6.474,0,0,0,12.306,0L48.118,55a11.44,11.44,0,0,1,8.238,10.582,9.555,9.555,0,0,0-6.485-1.157v-3.4H46.613V65.6A9.817,9.817,0,0,0,42.3,70.79H28.123A9.739,9.739,0,0,0,14.032,65.6V61.016H10.774v7.64A9.727,9.727,0,0,0,9.715,70.79ZM12.4,74.048a6.516,6.516,0,1,1,6.516,6.516A6.523,6.523,0,0,1,12.4,74.048ZM4.349,96.855a14.661,14.661,0,0,1,29.14,0ZM25.035,81.662a9.761,9.761,0,0,0,3.659-7.614H41.726a9.761,9.761,0,0,0,3.659,7.614,17.986,17.986,0,0,0-10.175,9.4A17.986,17.986,0,0,0,25.035,81.662Zm11.9,15.192a14.661,14.661,0,0,1,29.14,0ZM77.565,74.048a6.516,6.516,0,1,1,6.516,6.516A6.523,6.523,0,0,1,77.565,74.048ZM69.511,96.855a14.661,14.661,0,0,1,29.14,0Z" transform="translate(0 1.887)" fill="#5f266d"/>
      <path id="Trazado_102752" data-name="Trazado 102752" d="M73.726,17.29H59.065V9.145a8.145,8.145,0,0,0-16.29,0V17.29H41.145A8.154,8.154,0,0,0,33,25.435V44.984a8.154,8.154,0,0,0,8.145,8.145h6.516V58.9a4.008,4.008,0,0,0,6.616,3.043l10.278-8.81h9.171a8.154,8.154,0,0,0,8.145-8.145V25.435A8.154,8.154,0,0,0,73.726,17.29ZM46.032,30.323V14.032H49.29v16.29ZM54.8,33.581,51.82,39.54a1.043,1.043,0,0,1-1.8,0l-2.981-5.959Zm1.007-3.258H52.548V14.032h3.258ZM50.919,4.258a4.893,4.893,0,0,1,4.887,4.887v1.629H46.032V9.145A4.893,4.893,0,0,1,50.919,4.258ZM78.613,44.984a4.893,4.893,0,0,1-4.887,4.887H63.349L52.156,59.466a.776.776,0,0,1-1.236-.57V49.871H41.145a4.893,4.893,0,0,1-4.887-4.887V25.435a4.893,4.893,0,0,1,4.887-4.887h1.629V32.336L47.1,41a4.266,4.266,0,0,0,7.63,0l4.33-8.662V20.548H73.726a4.893,4.893,0,0,1,4.887,4.887Z" transform="translate(20.129)" fill="#5f266d"/>
      <path id="Trazado_102753" data-name="Trazado 102753" d="M51,15H64.032v3.258H51Z" transform="translate(31.452 8.806)" fill="#5f266d"/>
      <path id="Trazado_102754" data-name="Trazado 102754" d="M51,19H64.032v3.258H51Z" transform="translate(31.452 11.323)" fill="#5f266d"/>
      <path id="Trazado_102755" data-name="Trazado 102755" d="M51,23H64.032v3.258H51Z" transform="translate(31.452 13.839)" fill="#5f266d"/>
      <path id="Trazado_102756" data-name="Trazado 102756" d="M57,27h3.258v3.258H57Z" transform="translate(35.226 16.355)" fill="#5f266d"/>
      <path id="Trazado_102757" data-name="Trazado 102757" d="M53,27h3.258v3.258H53Z" transform="translate(32.71 16.355)" fill="#5f266d"/>
    </g>
  </g>
</svg>
