<svg xmlns="http://www.w3.org/2000/svg" width="489.822" height="294.473" viewBox="0 0 489.822 294.473">
  <g id="Grupo_60880" data-name="Grupo 60880" transform="translate(-214.178 -1388)">
    <g id="Grupo_59280" data-name="Grupo 59280" transform="translate(66.846 1264.863)">
      <path id="Trazado_104604" data-name="Trazado 104604" d="M330.878,123.671c75.019-4.353,153.675,18.322,142.113,51.192s61.812-11.675,91.093.176c20.846,8.437,12.513,34.122,22.6,44.471,23.124,23.73,46.773-6.152,76.2,11.777s-30.824,185.264-61.569,186.2l-350.668-2.131-25.164-2.261s-69.609-38.064-19.815-73.178c33.668-23.743,9.443-40.984,5.781-51.854-4.2-12.48-14.014-34.276,28.729-50.271s31.707-50.8,30.656-58.006-14.976-51.76,60.043-56.113Z" transform="translate(-33.612 0)" fill="#9bc1f9" opacity="0.1"/>
      <g id="Grupo_59224" data-name="Grupo 59224" transform="translate(191.26 275.755)">
        <g id="Grupo_59217" data-name="Grupo 59217" transform="translate(9.94 8.563)">
          <path id="Trazado_104605" data-name="Trazado 104605" d="M479.251,1140.893c-8.066-12.025-10.019-26.825-10.237-37.124a99.19,99.19,0,0,1,1.48-19.7l-.559-.181a99.86,99.86,0,0,0-1.494,19.839c.218,10.4,2.193,25.352,10.359,37.526Z" transform="translate(-468.418 -1083.887)" fill="#3c8f7c"/>
        </g>
        <g id="Grupo_59218" data-name="Grupo 59218" transform="translate(9.056)">
          <path id="Trazado_104606" data-name="Trazado 104606" d="M467.917,1039.478a8.5,8.5,0,0,1-2.622,6.053,9.966,9.966,0,0,1-2.135-6.633,8.5,8.5,0,0,1,2.622-6.053A9.964,9.964,0,0,1,467.917,1039.478Z" transform="translate(-463.152 -1032.846)" fill="#3c8f7c"/>
        </g>
        <g id="Grupo_59219" data-name="Grupo 59219" transform="translate(3.432 8.734)">
          <path id="Trazado_104607" data-name="Trazado 104607" d="M435.067,1088.828a9.952,9.952,0,0,1,1.525,6.8,8.606,8.606,0,0,1-5.34-3.92,9.953,9.953,0,0,1-1.525-6.8A8.605,8.605,0,0,1,435.067,1088.828Z" transform="translate(-429.624 -1084.908)" fill="#3c8f7c"/>
        </g>
        <g id="Grupo_59220" data-name="Grupo 59220" transform="translate(0 18.394)">
          <path id="Trazado_104608" data-name="Trazado 104608" d="M415.368,1143.719a9.489,9.489,0,0,1,4.1,5.488,7.352,7.352,0,0,1-6.2-.9,9.488,9.488,0,0,1-4.1-5.488A7.352,7.352,0,0,1,415.368,1143.719Z" transform="translate(-409.17 -1142.484)" fill="#3c8f7c"/>
        </g>
        <g id="Grupo_59221" data-name="Grupo 59221" transform="translate(1.007 26.664)">
          <ellipse id="Elipse_4302" data-name="Elipse 4302" cx="2.494" cy="4.816" rx="2.494" ry="4.816" transform="matrix(0.568, -0.823, 0.823, 0.568, 0, 4.105)" fill="#3c8f7c"/>
        </g>
        <g id="Grupo_59222" data-name="Grupo 59222" transform="translate(10.329 16.666)">
          <path id="Trazado_104609" data-name="Trazado 104609" d="M474.02,1133.113a6.308,6.308,0,0,1,5.491-.527,7.116,7.116,0,0,1-3.28,4.732,6.308,6.308,0,0,1-5.491.527A7.117,7.117,0,0,1,474.02,1133.113Z" transform="translate(-470.74 -1132.188)" fill="#3c8f7c"/>
        </g>
        <g id="Grupo_59223" data-name="Grupo 59223" transform="translate(10.367 23.279)">
          <path id="Trazado_104610" data-name="Trazado 104610" d="M474.245,1172.532a6.307,6.307,0,0,1,5.491-.527,7.115,7.115,0,0,1-3.28,4.731,6.307,6.307,0,0,1-5.491.527A7.115,7.115,0,0,1,474.245,1172.532Z" transform="translate(-470.965 -1171.607)" fill="#3c8f7c"/>
        </g>
      </g>
      <g id="Grupo_59233" data-name="Grupo 59233" transform="translate(147.332 335.709)">
        <g id="Grupo_59225" data-name="Grupo 59225" transform="translate(8.814 9.41)">
          <path id="Trazado_104611" data-name="Trazado 104611" d="M247.444,1501.561c-16.909-6.157-28.736-20.841-35.681-32.076a120.521,120.521,0,0,1-11.148-23.184l-.747.3a121.351,121.351,0,0,0,11.221,23.348c7.011,11.347,18.961,26.181,36.08,32.414Z" transform="translate(-199.869 -1446.301)" fill="#96d9c9"/>
        </g>
        <g id="Grupo_59226" data-name="Grupo 59226" transform="translate(3.045)">
          <path id="Trazado_104612" data-name="Trazado 104612" d="M172.658,1395.671a12.222,12.222,0,0,1,.984,9.053,10.57,10.57,0,0,1-6.72-5.458,12.222,12.222,0,0,1-.984-9.053A10.57,10.57,0,0,1,172.658,1395.671Z" transform="translate(-165.482 -1390.213)" fill="#96d9c9"/>
        </g>
        <g id="Grupo_59227" data-name="Grupo 59227" transform="translate(0 15.81)">
          <path id="Trazado_104613" data-name="Trazado 104613" d="M155.9,1485.19a10.779,10.779,0,0,1,6.138,6.183,10.3,10.3,0,0,1-8.565.408,10.779,10.779,0,0,1-6.138-6.183A10.3,10.3,0,0,1,155.9,1485.19Z" transform="translate(-147.332 -1484.451)" fill="#96d9c9"/>
        </g>
        <g id="Grupo_59228" data-name="Grupo 59228" transform="translate(2.033 25.577)">
          <ellipse id="Elipse_4303" data-name="Elipse 4303" cx="7.948" cy="3.489" rx="7.948" ry="3.489" transform="matrix(0.99, -0.141, 0.141, 0.99, 0, 2.243)" fill="#96d9c9"/>
        </g>
        <g id="Grupo_59229" data-name="Grupo 59229" transform="translate(7.994 35.276)">
          <ellipse id="Elipse_4304" data-name="Elipse 4304" cx="7.948" cy="3.489" rx="7.948" ry="3.489" transform="translate(0 2.243) rotate(-8.113)" fill="#96d9c9"/>
        </g>
        <g id="Grupo_59230" data-name="Grupo 59230" transform="translate(15.552 13.552)">
          <path id="Trazado_104614" data-name="Trazado 104614" d="M240.054,1478.708a11.931,11.931,0,0,1,3.328-7.714,10.362,10.362,0,0,1,2.471,7.61,11.93,11.93,0,0,1-3.328,7.713A10.362,10.362,0,0,1,240.054,1478.708Z" transform="translate(-240.035 -1470.995)" fill="#96d9c9"/>
        </g>
        <g id="Grupo_59231" data-name="Grupo 59231" transform="translate(21.786 23.533)">
          <path id="Trazado_104615" data-name="Trazado 104615" d="M277.2,1538.256a11.973,11.973,0,0,1,3.215-7.772,10.311,10.311,0,0,1,2.584,7.558,11.973,11.973,0,0,1-3.215,7.772A10.313,10.313,0,0,1,277.2,1538.256Z" transform="translate(-277.193 -1530.484)" fill="#96d9c9"/>
        </g>
        <g id="Grupo_59232" data-name="Grupo 59232" transform="translate(23.842 45.894)">
          <path id="Trazado_104616" data-name="Trazado 104616" d="M291.82,1664.281a4.177,4.177,0,0,1,3.635-.172,4.817,4.817,0,0,1-2.373,3,4.178,4.178,0,0,1-3.635.171A4.815,4.815,0,0,1,291.82,1664.281Z" transform="translate(-289.447 -1663.773)" fill="#96d9c9"/>
        </g>
      </g>
      <path id="Trazado_104617" data-name="Trazado 104617" d="M363.962,1275.749s13.145-29.023,8.751-35.5c-6.073-8.95-13.625,18.513-13.993,16.1-3.478-22.8-2.75-51.546-19.018-55.9-9.247-2.477.611,21.472-.537,27.642s-16.531-15.859-26.005-27.515-15.275-5.225-9.783,8.915c5.31,13.673,24.548,29.694,20.242,31.065s-28.454-17.676-32.093-10.656c-4.462,8.607,32.736,23.8,29,25.513s-21.453-6.344-21.453.512,24.487,8.569,23.85,11.534c-1.031,4.8-16.413-7.489-17.614-.829-1.229,6.812,20.881,7.328,20.108,12.657-.444,3.062-6.012-.143-7.02,4.066-2.3,9.6,32.543,23.049,32.543,23.049Z" transform="translate(-119.693 -891.654)" fill="#3c8f7c"/>
      <path id="Trazado_104618" data-name="Trazado 104618" d="M662.605,1716.109c5.289,2.478,3.862,8.631,3.862,8.631s14.341-11.2,19.7-4.662,2.544,19.347-3.744,21.43-60.981.623-60.981.623S657.848,1713.88,662.605,1716.109Z" transform="translate(-394.573 -1325.621)" fill="#96d9c9"/>
      <g id="Grupo_59244" data-name="Grupo 59244" transform="translate(198.641 328.502)">
        <g id="Grupo_59243" data-name="Grupo 59243">
          <g id="Grupo_59234" data-name="Grupo 59234" transform="translate(11.389 9.904)">
            <path id="Trazado_104619" data-name="Trazado 104619" d="M541.581,1474.16l.506-.432c-11.49-14-16.4-31.544-18.49-43.8a121.163,121.163,0,0,1-1.807-23.512l-.7-.125a121.931,121.931,0,0,0,1.814,23.66C525.017,1442.31,529.969,1460.012,541.581,1474.16Z" transform="translate(-521.052 -1406.292)" fill="#50bfa5"/>
          </g>
          <g id="Grupo_59235" data-name="Grupo 59235" transform="translate(7.979)">
            <path id="Trazado_104620" data-name="Trazado 104620" d="M506.415,1355.062a9.28,9.28,0,0,1-1.952,7.308,13.565,13.565,0,0,1-3.655-7.807,9.279,9.279,0,0,1,1.952-7.308A13.564,13.564,0,0,1,506.415,1355.062Z" transform="translate(-500.73 -1347.255)" fill="#50bfa5"/>
          </g>
          <g id="Grupo_59236" data-name="Grupo 59236" transform="translate(2.305 10.392)">
            <path id="Trazado_104621" data-name="Trazado 104621" d="M473.783,1413.652a13.269,13.269,0,0,1,2.978,8.026,11.662,11.662,0,0,1-6.878-4.451,13.27,13.27,0,0,1-2.978-8.026A11.663,11.663,0,0,1,473.783,1413.652Z" transform="translate(-466.905 -1409.201)" fill="#50bfa5"/>
          </g>
          <g id="Grupo_59237" data-name="Grupo 59237" transform="translate(0 21.941)">
            <path id="Trazado_104622" data-name="Trazado 104622" d="M460.5,1479.347a13.286,13.286,0,0,1,5.719,6.366,8.656,8.656,0,0,1-7.333-.828,13.286,13.286,0,0,1-5.719-6.366A8.656,8.656,0,0,1,460.5,1479.347Z" transform="translate(-453.168 -1478.039)" fill="#50bfa5"/>
          </g>
          <g id="Grupo_59238" data-name="Grupo 59238" transform="translate(8.927 36.679)">
            <path id="Trazado_104623" data-name="Trazado 104623" d="M509.447,1566.293a5.538,5.538,0,0,1,2.567,2.5,3.539,3.539,0,0,1-3.069-.108,5.539,5.539,0,0,1-2.568-2.5A3.541,3.541,0,0,1,509.447,1566.293Z" transform="translate(-506.378 -1565.885)" fill="#50bfa5"/>
          </g>
          <g id="Grupo_59239" data-name="Grupo 59239" transform="translate(10.342 41.838)">
            <path id="Trazado_104624" data-name="Trazado 104624" d="M517.881,1597.045a5.539,5.539,0,0,1,2.567,2.5,3.542,3.542,0,0,1-3.069-.108,5.538,5.538,0,0,1-2.567-2.5A3.541,3.541,0,0,1,517.881,1597.045Z" transform="translate(-514.812 -1596.637)" fill="#50bfa5"/>
          </g>
          <g id="Grupo_59240" data-name="Grupo 59240" transform="translate(12.593 19.291)">
            <path id="Trazado_104625" data-name="Trazado 104625" d="M531.182,1463.478a6.883,6.883,0,0,1,6.259-.848,7.369,7.369,0,0,1-2.949,5.762,6.883,6.883,0,0,1-6.259.848A7.37,7.37,0,0,1,531.182,1463.478Z" transform="translate(-528.233 -1462.241)" fill="#50bfa5"/>
          </g>
          <g id="Grupo_59241" data-name="Grupo 59241" transform="translate(13.818 27.159)">
            <path id="Trazado_104626" data-name="Trazado 104626" d="M538.484,1510.379a6.882,6.882,0,0,1,6.259-.847,7.369,7.369,0,0,1-2.95,5.762,6.882,6.882,0,0,1-6.259.847A7.368,7.368,0,0,1,538.484,1510.379Z" transform="translate(-535.534 -1509.141)" fill="#50bfa5"/>
          </g>
          <g id="Grupo_59242" data-name="Grupo 59242" transform="translate(15.653 38.953)">
            <path id="Trazado_104627" data-name="Trazado 104627" d="M548.392,1580.245a4.481,4.481,0,0,1,4.074-.552,4.8,4.8,0,0,1-1.92,3.75,4.48,4.48,0,0,1-4.074.552A4.8,4.8,0,0,1,548.392,1580.245Z" transform="translate(-546.472 -1579.439)" fill="#50bfa5"/>
          </g>
        </g>
      </g>
      <path id="Trazado_104628" data-name="Trazado 104628" d="M397.691,1731.5s-16.8-21.567-23.82-24.871c-7.482-3.521-.994,8.68-.994,8.68s-16-15.717-19.757-11.792.254,7.6.254,7.6-13.4-2.489-15.35,2.529c-3,7.711,19.033,11.547,19.033,11.547s-10.556-2.317-8.444,2.458C351.8,1734.852,397.691,1731.5,397.691,1731.5Z" transform="translate(-158.467 -1314.725)" fill="#50bfa5"/>
      <path id="Trazado_104629" data-name="Trazado 104629" d="M339.418,1711.962c1.953-5.018,15.35-2.529,15.35-2.529s-4.012-3.672-.255-7.6,16.281,5.343,16.281,5.343-1.94-8.517,7.467-1.818c6.719,4.786,19.689,22.637,19.689,22.637Z" transform="translate(-159.86 -1313.041)" fill="#96d9c9"/>
      <g id="Grupo_59246" data-name="Grupo 59246" transform="translate(226.872 369.237)">
        <g id="Grupo_59245" data-name="Grupo 59245" transform="translate(0 0)">
          <path id="Trazado_104630" data-name="Trazado 104630" d="M621.445,1637.282s26.766,1.893,31.98-2.9.041-13.476.041-13.476,9.185-7.26,9.042-12-6.128-2.335-6.128-2.335,10.142-13.059,7.737-15.543c-4.481-4.626-16.207,8.948-16.207,8.948s3.48-6.457-.191-7.482c-5.537-1.546-9.609,14.379-9.609,14.379s1.033-6.29-2.783-5.455C628.479,1602.914,621.445,1637.282,621.445,1637.282Z" transform="translate(-621.445 -1590.064)" fill="#50bfa5"/>
        </g>
      </g>
      <path id="Trazado_104631" data-name="Trazado 104631" d="M742.827,1658.064h-2.24l8.349-43.382,1.863.354Z" transform="translate(-493.727 -1241.314)" fill="#0e2e35"/>
      <path id="Trazado_104632" data-name="Trazado 104632" d="M2129.713,1382.449l2.161-5.24a7.367,7.367,0,0,1,9.583-4.11h0c9.111,3.991,13.072,15.1,8.847,24.811l-3.089,7.1a8.94,8.94,0,0,0,.943,8.945,7.9,7.9,0,0,1,.779,7.88l-1.628,3.744a14.852,14.852,0,0,1-9.262,8.291,9.012,9.012,0,0,0-5.593,5.071l-2.306,5.3c-2.549,5.86-9.072,8.658-14.569,6.25l-3.137-1.374c-5.5-2.408-7.887-9.11-5.338-14.969h0c4.122-7.006,3.793-12.236,2.333-15.782a21.283,21.283,0,0,1,.2-16.556l.326-.749a21.022,21.022,0,0,1,12.828-11.648C2125.281,1388.615,2127.876,1386.672,2129.713,1382.449Z" transform="translate(-1630.139 -1039.788)" fill="#50bfa5"/>
      <path id="Trazado_104633" data-name="Trazado 104633" d="M2012.856,1594.118c4.422-5.752,28.991-36.3,44.8-41.438,17.451-5.668,1,16.846,1,16.846s30.957-33.966,42.318-30.9c10.414,2.807,0,23.86,0,23.86s11.729-11.658,25.952-11.658c13.843,0-9.611,42.389-10.88,44.6Z" transform="translate(-1552.552 -1177.852)" fill="#96d9c9"/>
      <g id="Grupo_59249" data-name="Grupo 59249" transform="translate(525.18 333.996)">
        <g id="Grupo_59247" data-name="Grupo 59247" transform="translate(0 5.347)">
          <path id="Trazado_104634" data-name="Trazado 104634" d="M2427.956,1423.418a210.365,210.365,0,0,0-27.142,66.213l-1.252-.014a213.753,213.753,0,0,1,27.421-65.882c2.935-4.6,6.1-10.061,11.6-11.856.106-.034.146.127.045.166C2433.609,1413.942,2430.7,1419.115,2427.956,1423.418Z" transform="translate(-2399.563 -1411.874)" fill="#3c8f7c"/>
        </g>
        <g id="Grupo_59248" data-name="Grupo 59248" transform="translate(4.128 30.293)">
          <path id="Trazado_104635" data-name="Trazado 104635" d="M2424.169,1613.421a257.1,257.1,0,0,1,51.906-52.815c.2-.155.48.2.274.36a254.456,254.456,0,0,0-50.886,52.465Z" transform="translate(-2424.169 -1560.568)" fill="#3c8f7c"/>
        </g>
        <path id="Trazado_104636" data-name="Trazado 104636" d="M2570.953,1387.455a9.034,9.034,0,0,1,1.938,3.38,6.984,6.984,0,0,1,.062,3.449,7.515,7.515,0,0,0,1.922-3.337c.621-1.988.186-4.746-.586-5.659-1.335-2.065-3.666-2.275-4.119-1.273C2569.689,1385.008,2570.3,1386.362,2570.953,1387.455Z" transform="translate(-2541.404 -1382.856)" fill="#3c8f7c"/>
        <path id="Trazado_104637" data-name="Trazado 104637" d="M2560.168,1491.74a8.989,8.989,0,0,0-3.329-2.011,6.914,6.914,0,0,0-3.435-.13,7.483,7.483,0,0,1,3.363-1.862c1.993-.584,4.732-.094,5.628.7,2.031,1.38,2.194,3.723,1.187,4.158C2562.581,1493.057,2561.244,1492.418,2560.168,1491.74Z" transform="translate(-2527.593 -1469.449)" fill="#3c8f7c"/>
        <path id="Trazado_104638" data-name="Trazado 104638" d="M2532.949,1537.961a8.99,8.99,0,0,0-3.329-2.011,6.914,6.914,0,0,0-3.435-.13,7.489,7.489,0,0,1,3.363-1.863c1.993-.584,4.732-.093,5.628.7,2.032,1.38,2.194,3.723,1.187,4.158C2535.362,1539.277,2534.025,1538.639,2532.949,1537.961Z" transform="translate(-2504.94 -1507.915)" fill="#3c8f7c"/>
        <path id="Trazado_104639" data-name="Trazado 104639" d="M2630.037,1645.171a8.987,8.987,0,0,0-3.33-2.011,6.913,6.913,0,0,0-3.435-.13,7.485,7.485,0,0,1,3.363-1.862c1.993-.584,4.732-.094,5.628.7,2.031,1.38,2.194,3.723,1.187,4.158C2632.45,1646.487,2631.114,1645.849,2630.037,1645.171Z" transform="translate(-2585.74 -1597.139)" fill="#3c8f7c"/>
        <path id="Trazado_104640" data-name="Trazado 104640" d="M2679.639,1601.323a8.987,8.987,0,0,0-3.33-2.011,6.913,6.913,0,0,0-3.435-.13,7.485,7.485,0,0,1,3.363-1.862c1.993-.584,4.732-.094,5.627.7,2.032,1.38,2.194,3.723,1.188,4.158C2682.052,1602.64,2680.715,1602,2679.639,1601.323Z" transform="translate(-2627.021 -1560.648)" fill="#3c8f7c"/>
        <path id="Trazado_104641" data-name="Trazado 104641" d="M2530.74,1439.567a9.009,9.009,0,0,1,2.445,3.031,6.977,6.977,0,0,1,.6,3.4,7.528,7.528,0,0,0,1.374-3.6c.3-2.061-.562-4.716-1.469-5.5-1.642-1.828-3.978-1.666-4.268-.606C2529.107,1437.351,2529.922,1438.591,2530.74,1439.567Z" transform="translate(-2507.581 -1426.194)" fill="#3c8f7c"/>
        <path id="Trazado_104642" data-name="Trazado 104642" d="M2486.968,1488.142c.565.3,2.54.846,3.533,2.329a6.027,6.027,0,0,1,1.191,3.53,9.985,9.985,0,0,0,1.342-4.61c.14-2.43-1.3-5.021-2.566-5.5-2.348-1.332-5.351-.144-5.6,1.165C2484.586,1486.373,2485.791,1487.406,2486.968,1488.142Z" transform="translate(-2470.523 -1465.975)" fill="#3c8f7c"/>
        <path id="Trazado_104643" data-name="Trazado 104643" d="M2442.622,1566.5c.607.2,2.645.406,3.872,1.7a6.024,6.024,0,0,1,1.767,3.278,10,10,0,0,0,.55-4.77c-.27-2.42-2.121-4.73-3.452-4.989-2.538-.917-5.3.761-5.323,2.093C2439.977,1565.158,2441.338,1565.974,2442.622,1566.5Z" transform="translate(-2433.244 -1531.014)" fill="#3c8f7c"/>
        <path id="Trazado_104644" data-name="Trazado 104644" d="M2572.219,1627.611a6.4,6.4,0,0,1,2.741,2.1,4.912,4.912,0,0,1,.769,2.939,8.138,8.138,0,0,0,1.353-3.673c.251-1.969-.771-4.159-1.776-4.621-1.834-1.218-4.345-.423-4.62.628C2570.382,1626.036,2571.3,1626.945,2572.219,1627.611Z" transform="translate(-2541.929 -1582.847)" fill="#3c8f7c"/>
        <path id="Trazado_104645" data-name="Trazado 104645" d="M2625.622,1413.117a5.336,5.336,0,0,0-1.882-1.336,4.1,4.1,0,0,0-2.026-.228,4.435,4.435,0,0,1,2.071-.954,4.343,4.343,0,0,1,3.3.661c1.142.905,1.135,2.3.521,2.512C2626.992,1414,2626.229,1413.566,2625.622,1413.117Z" transform="translate(-2584.444 -1405.4)" fill="#3c8f7c"/>
        <path id="Trazado_104646" data-name="Trazado 104646" d="M2624.174,1382.058a5.376,5.376,0,0,1-.095,2.311,4.127,4.127,0,0,1-1.057,1.749,4.435,4.435,0,0,0,2.018-1.063,4.375,4.375,0,0,0,1.491-3.025c-.017-1.46-1.121-2.306-1.664-1.948S2624.191,1381.3,2624.174,1382.058Z" transform="translate(-2585.531 -1380.001)" fill="#3c8f7c"/>
        <path id="Trazado_104647" data-name="Trazado 104647" d="M2729.533,1564.909a5.331,5.331,0,0,0-1.882-1.336,4.1,4.1,0,0,0-2.026-.228,4.436,4.436,0,0,1,2.071-.954,4.342,4.342,0,0,1,3.3.661c1.142.905,1.135,2.3.521,2.511C2730.9,1565.793,2730.141,1565.357,2729.533,1564.909Z" transform="translate(-2670.922 -1531.726)" fill="#3c8f7c"/>
        <path id="Trazado_104648" data-name="Trazado 104648" d="M2726.629,1533.183a5.373,5.373,0,0,1,.094,2.311,4.13,4.13,0,0,1-.911,1.83,4.435,4.435,0,0,0,1.924-1.225,4.376,4.376,0,0,0,1.24-3.138c-.137-1.453-1.306-2.206-1.818-1.8S2726.584,1532.428,2726.629,1533.183Z" transform="translate(-2671.077 -1505.709)" fill="#3c8f7c"/>
      </g>
      <path id="Trazado_104649" data-name="Trazado 104649" d="M2643.6,1722.918a8.4,8.4,0,0,1,.3,3.6,6.451,6.451,0,0,1-1.3,2.915,6.927,6.927,0,0,0,2.923-2.036c1.3-1.42,2.022-3.9,1.733-4.976-.306-2.259-2.178-3.358-2.952-2.7C2643.5,1720.367,2643.477,1721.743,2643.6,1722.918Z" transform="translate(-2076.633 -1328.575)" fill="#3c8f7c"/>
      <path id="Trazado_104650" data-name="Trazado 104650" d="M2575.775,1747.284a8.4,8.4,0,0,1,.3,3.6,6.453,6.453,0,0,1-1.3,2.915,6.934,6.934,0,0,0,2.924-2.036c1.3-1.421,2.022-3.9,1.734-4.976-.307-2.259-2.179-3.358-2.952-2.7C2575.677,1744.733,2575.656,1746.109,2575.775,1747.284Z" transform="translate(-2020.189 -1348.854)" fill="#3c8f7c"/>
      <path id="Trazado_104651" data-name="Trazado 104651" d="M2506.864,1778.105a8.382,8.382,0,0,1,.3,3.6,6.459,6.459,0,0,1-1.3,2.915,6.937,6.937,0,0,0,2.923-2.036c1.3-1.421,2.022-3.9,1.734-4.976-.306-2.259-2.179-3.358-2.952-2.7C2506.766,1775.554,2506.745,1776.93,2506.864,1778.105Z" transform="translate(-1962.84 -1374.504)" fill="#3c8f7c"/>
      <path id="Trazado_104652" data-name="Trazado 104652" d="M2647.19,1780.78a7.73,7.73,0,0,0-1.785-2.819,5.931,5.931,0,0,0-2.582-1.418,6.392,6.392,0,0,1,3.287-.136,6.286,6.286,0,0,1,4.045,2.7c1.031,1.837.262,3.695-.675,3.641C2648.537,1782.714,2647.756,1781.713,2647.19,1780.78Z" transform="translate(-2076.83 -1375.771)" fill="#3c8f7c"/>
      <path id="Trazado_104653" data-name="Trazado 104653" d="M2576.646,1805.834a7.737,7.737,0,0,0-1.785-2.819,5.935,5.935,0,0,0-2.583-1.417,6.393,6.393,0,0,1,3.287-.137,6.286,6.286,0,0,1,4.045,2.7c1.031,1.837.262,3.695-.675,3.641C2577.993,1807.769,2577.212,1806.767,2576.646,1805.834Z" transform="translate(-2018.121 -1396.622)" fill="#3c8f7c"/>
      <path id="Trazado_104654" data-name="Trazado 104654" d="M2706.213,1764.57a4.954,4.954,0,0,0-1.492-1.533,3.8,3.8,0,0,0-1.808-.548,4.106,4.106,0,0,1,2.046-.521,4.027,4.027,0,0,1,2.9,1.157c.889,1.017.651,2.285.055,2.376C2707.314,1765.606,2706.691,1765.08,2706.213,1764.57Z" transform="translate(-2126.84 -1363.887)" fill="#3c8f7c"/>
      <path id="Trazado_104655" data-name="Trazado 104655" d="M2705.871,1735.692a4.975,4.975,0,0,1-.472,2.09,3.813,3.813,0,0,1-1.255,1.416,4.1,4.1,0,0,0,2.016-.63,4.045,4.045,0,0,0,1.864-2.505c.228-1.333-.637-2.289-1.191-2.054S2706.011,1735.006,2705.871,1735.692Z" transform="translate(-2127.863 -1340.593)" fill="#3c8f7c"/>
      <path id="Trazado_104656" data-name="Trazado 104656" d="M2311.459,736.07a1.1,1.1,0,0,0,1.111-1.337c-.279-1.044-.541-2.093-.808-3.14-.591-2.312-.686-2.385-.524-2.58.387-.466,1.321.077,1.646.309a12.989,12.989,0,0,0,2.139,1.579c1.6.708,3.194-.205,2.933-2.039-.238-1.679-.574-3.357-.92-5.025,1.677.9,3.33,1.843,5.018,2.715a.752.752,0,0,0,1.123-.789l-.886-7.286c-.045-.372-.461-2.084-.084-2.275.338-.172,1.462.532,1.731.657,1.486.688,2.02.911,6.9,3.038a.88.88,0,0,0,1.122-1.031c-2.068-6-1.316-6.266-2.371-7.335a.416.416,0,0,0-.693.151c-.334.71-.364.9.267,3.66q.246,1.069.543,2.124c-5.883-2.7-7.3-3.517-8.542-2.386-.862.785-.66,1.128.367,9.4-1.71-1.032-3.472-1.954-5.229-2.916a.856.856,0,0,0-1.281.9c.885,6.01,1.152,6.13,1.087,6.681,0,.015.3.185-.17,0-.795-.316-1.944-1.95-3.559-2.234a2.58,2.58,0,0,0-3.2,2.074c-.078.924.154,1.328.923,4.722a22.178,22.178,0,0,0-5.252.141,3.45,3.45,0,0,0-1.922.794.919.919,0,0,0,.333,1.541C2305.117,736.614,2306.327,735.44,2311.459,736.07Z" transform="translate(-1793.723 -489.571)" fill="#f7cc7f"/>
      <path id="Trazado_104657" data-name="Trazado 104657" d="M2433.667,955.4a27.455,27.455,0,0,1,1.088-4.743c.1-.3.216-.89.583-.99.883-.24,1.617,1.373,4.3,2.852,1.162.642,3.509,2.071,4.552.563a9.847,9.847,0,0,0,.935-2.8c.2-.675.423-1.341.633-2.012,4.262,2.7,3.915,2.891,5.106,2.745a.619.619,0,0,0,.49-.72c-.32-1.136-.279-.827-5.618-4.282a.958.958,0,0,0-1.43.467c-.268.913-1.257,5.117-1.462,5.613-.038-.047-.273-.071-.321-.087a15.77,15.77,0,0,1-4.892-3.086c-1.267-1.026-3.225-1.621-4.227.093a19.127,19.127,0,0,0-1.383,4.668c-2.563-1.749-5.114-3.518-7.687-5.25a1.053,1.053,0,0,0-1.576.514c-.425,1.885-.912,3.75-1.414,5.614a17.844,17.844,0,0,1-3.956-3.773c-.826-1.072-2.6,0-.334,2.565a17.251,17.251,0,0,0,4.336,3.727,1.06,1.06,0,0,0,1.581-.515c.551-1.83,1.02-3.688,1.451-5.551,2.574,1.711,5.167,3.4,7.74,5.108A.978.978,0,0,0,2433.667,955.4Z" transform="translate(-1888.013 -684.699)" fill="#f47458"/>
      <path id="Trazado_104658" data-name="Trazado 104658" d="M2420.3,1119.291a1.057,1.057,0,0,0,.6,1.287,23.274,23.274,0,0,0,7.71,2.584c1.428.173,1.544-1.995.173-2.247a28.265,28.265,0,0,1-6.359-1.812,22.558,22.558,0,0,1,2.011-4.432,1.088,1.088,0,0,0-.512-1.6c-1.693-.453-8.156-1.976-8.232-1.924a.346.346,0,0,0,.046-.17c.077-.713,1.257-2.86,1.517-3.925.292-1.195-1.145-2.088-2.066-2.461-1.868-.757-4.413,0-6.064-1.308-1.588-1.254,1.28-3.476.485-6.117-.612-2.035-2.69-2.1-5.9-2.415a2.371,2.371,0,0,0-2.154.476.54.54,0,0,0-.121.622c.661,1.122,1.872,1.066,4.786,1.433.371.047,1.031.015,1.267.37.789,1.182-1.458,3.117-.817,5.5.5,1.859,2.348,2.724,4.05,3.015,1.333.228,3.145-.048,4.313.8-.4,1.1-.843,2.194-1.161,3.314a2.05,2.05,0,0,0,1.22,2.724,34.094,34.094,0,0,0,4.164,1.091c.924.229,1.847.463,2.773.684A25.505,25.505,0,0,0,2420.3,1119.291Z" transform="translate(-1875.893 -808.569)" fill="#3cb4c5"/>
      <path id="Trazado_104659" data-name="Trazado 104659" d="M2119.893,634.465c-5.492-8.121-10.79-3.862-9.436-.766a2.108,2.108,0,0,0,3.306.926.865.865,0,0,0-.488-1.5c-.619.009-.561-.674.113-.744.909-.094,1.717.792,2.3,1.37,1.371,1.347,3.168,3.074,2.837,5.2-.494,3.168-4.55,5.469-8.61,2.327-5.857-4.532-2.318-15.268,5.237-14.977a10.372,10.372,0,0,1,9.14,6.842c.276.75,1.307.275,1.243-.414-.485-5.221-5.909-8.772-10.895-8.535-5.114.243-8.874,4.438-9.587,9.362-.748,5.164,2.258,10.54,7.577,11.548C2118.471,646.208,2123.733,640.143,2119.893,634.465Z" transform="translate(-1629.193 -416.986)" fill="#3cb4c5"/>
      <path id="Trazado_104660" data-name="Trazado 104660" d="M2394.292,1294.585c-.939-1.182-3.232-2.419-4.509-1.042a1.4,1.4,0,0,0,.125,2.173c.771.534,1.7.312,2.126,1.3a1.875,1.875,0,0,1-.962,2.168c-2.123,1.382-5.3-.183-6.877-1.769a4.75,4.75,0,0,1,2.078-8.026,10.669,10.669,0,0,1,3.624-.057c.672.04,1.271-.865.706-1.4-2.17-2.051-5.814-1.333-7.974.389a7.6,7.6,0,0,0-2.389,7.836c.873,3.085,3.806,5.365,6.8,6.221C2393.266,1304.156,2397.334,1298.412,2394.292,1294.585Z" transform="translate(-1858.072 -968.341)" fill="#3c8f7c"/>
      <g id="Grupo_59250" data-name="Grupo 59250" transform="translate(200.444 229.533)">
        <path id="Trazado_104661" data-name="Trazado 104661" d="M560.184,932.321a24.363,24.363,0,0,0-2.194-11.662c-1.526-3.2-5.3-5.017-8.748-5.022-10.937-.014-12.328,14.548-19.29,20.164-2.127,1.716-4.505,3.114-6.518,4.965-7.433,6.834-4.085,19.486,2.74,25.478,4.736,4.158,12.18,6.52,18.017,3.27a18.444,18.444,0,0,0,7.008-7.607c2.339-4.386,3.847-9.446,5.51-14.12A53.046,53.046,0,0,0,560.184,932.321Z" transform="translate(-509.944 -889.079)" fill="#0e2e35"/>
        <path id="Trazado_104662" data-name="Trazado 104662" d="M490.7,802.224s-8.033-14.447-9.987-17.518-7.045-15.275-7.227-15.756,3.506-6.256,2.683-6.454-1.734,3.045-2.612,2.658-3.444-8.194-3.944-7.806c-.937.725,1.383,4.842.884,5.1s-2.012-4.531-2.992-4.39,1.864,4.39,1.59,4.766-3.228-3.628-3.762-2.775c-.29.464,2.715,3.495,2.138,3.779s-3.251-1.673-3.534-1.109,2.473,1.337,3.3,2.858,2.228,2.179,2.81,5,1.454,13.011,4.439,18.1,9.551,16.343,9.551,16.343Z" transform="translate(-463.918 -757.333)" fill="#f79c8d"/>
        <path id="Trazado_104663" data-name="Trazado 104663" d="M770.05,1210.886l-12.489-9.56s-1.256-8.918-2.939-16.833c-2.107.6-4.009,2.256-6.119,2.835l3.176,17.723,16.369,8.473,4.624,5.963,1.052-6.121Z" transform="translate(-700.759 -1112.83)" fill="#f48c7f"/>
        <path id="Trazado_104664" data-name="Trazado 104664" d="M738.13,1081.025c-3.416-10.4-7.236-9.955-7.236-9.955l2.954,21.861c2.11-.579,4.857-1.867,6.964-2.464A95.5,95.5,0,0,0,738.13,1081.025Z" transform="translate(-686.104 -1018.433)" fill="#f7cc7f"/>
        <path id="Trazado_104665" data-name="Trazado 104665" d="M538.075,1781.905s-.771,5.375-2.1,7.11a13.7,13.7,0,0,0-1.791,2.371c-.83,1.638-.371,4.076.241,5.419.314.689-.022.687.694.909a4.391,4.391,0,0,0,5.279-2.492,12.716,12.716,0,0,0,1.036-4.58,16.656,16.656,0,0,1,1.735-7.361Z" transform="translate(-522.024 -1610.016)" fill="#f7a491"/>
        <path id="Trazado_104666" data-name="Trazado 104666" d="M693.477,1796.559s.476,6.061.09,8.031c-.207,1.054-1.358,3.226-.83,4.218a2.659,2.659,0,0,0,1.132,1.241l13.69.222c.746.012.253-.471-.349-.915a27.545,27.545,0,0,0-4.922-2.738c-.2-.1-.951-.577-1.221-.743a9.494,9.494,0,0,1-1.958-1.74c-.983-1.1-1.069-6.438-1.069-6.438Z" transform="translate(-654.234 -1622.212)" fill="#f7a491"/>
        <path id="Trazado_104667" data-name="Trazado 104667" d="M696.742,1308.8s1.724,9.841.592,16.292-6.565,66.252-6.565,66.252l-6.037.342s-1.266-24.98-1.039-28.454a54.116,54.116,0,0,1,2.018-9.287l-.6-20.168,7.618-26.5Z" transform="translate(-646.8 -1215.021)" fill="#13375b"/>
        <path id="Trazado_104668" data-name="Trazado 104668" d="M572.006,1292.922s-4.754,7.2-5.886,13.151.831,24.257-1.347,32.061c-1.179,4.225-5.646,10.749-6.325,16.208s-3.343,19.758-3.343,19.758l6.035,1.2,14.025-35.712,11-32.278,2.818-16.624Z" transform="translate(-539.808 -1201.21)" fill="#355389"/>
        <path id="Trazado_104669" data-name="Trazado 104669" d="M632.832,1059.852s-6.294-.4-8.784,2.326,5.524,24.321,5.976,27.8-2.308,12.711-2.308,12.711,14.786,2.992,19.011.18c0,0,.453-24.98,0-27.462s-4.226-12.573-5.131-13.565S632.832,1059.852,632.832,1059.852Z" transform="translate(-596.785 -1009.082)" fill="#fae0b2"/>
        <path id="Trazado_104670" data-name="Trazado 104670" d="M679.819,1008.84s-.033.186-.091.5c-.28,1.522-1.361,6.57-2.091,7.958-.882,1.677,3.02,7.026,6.777,6.374,1.118-.195-.945-4.915-.846-5.415.19-.957.447-2.263.711-3.6l.44-2.241c.4-2.045.729-3.718.729-3.718Z" transform="translate(-641.677 -966.528)" fill="#f7a491"/>
        <path id="Trazado_104671" data-name="Trazado 104671" d="M689.881,1009.344c.058-.317.091-.5.091-.5l5.629-.141s-.328,1.673-.729,3.718l-.438,2.229a5.263,5.263,0,0,1-2.687-1.355,7.146,7.146,0,0,1-2.036-3.045C689.779,1009.888,689.837,1009.58,689.881,1009.344Z" transform="translate(-651.83 -966.528)" fill="#f47458"/>
        <path id="Trazado_104672" data-name="Trazado 104672" d="M683.243,932.769a5.057,5.057,0,0,0-4.316,1.855c-1.663,2.163-3.455,8.852.676,12.489s8.213-.48,8.818-4.845S689.261,932.611,683.243,932.769Z" transform="translate(-641.312 -903.324)" fill="#f7a491"/>
        <path id="Trazado_104673" data-name="Trazado 104673" d="M740.771,977.252c-.493.964-1.321,1.5-1.849,1.192s-.556-1.335-.063-2.3,1.321-1.5,1.849-1.192S741.264,976.288,740.771,977.252Z" transform="translate(-692.44 -938.372)" fill="#f7a491"/>
        <path id="Trazado_104674" data-name="Trazado 104674" d="M671.231,928.246s-3.544,6.361-6.08,6.655-2.869,3.674-2.869,3.674.907-7.789,3.417-9.291A9.278,9.278,0,0,1,671.231,928.246Z" transform="translate(-629.003 -899.517)" fill="#0e2e35"/>
        <path id="Trazado_104675" data-name="Trazado 104675" d="M538.506,1841.086a6.729,6.729,0,0,1-6.616-2.78c-.836,1.641-1.244,4.089-.629,5.437.541,1.187,2.124,1.153,3.37,1.2a3.252,3.252,0,0,0,2.991-1.84A11.056,11.056,0,0,0,538.506,1841.086Z" transform="translate(-519.717 -1656.955)" fill="#b75742"/>
        <path id="Trazado_104676" data-name="Trazado 104676" d="M700.913,1850.554a12.327,12.327,0,0,1-7.794-.308c-.386,1.1-.9,2.481-.626,3.277.332.975.806,1.2,1.224,1.206,3.307.087,12.113.206,14.635.239a.415.415,0,0,0,.32-.681C708.047,1853.536,701.183,1850.72,700.913,1850.554Z" transform="translate(-654.082 -1666.892)" fill="#b75742"/>
        <path id="Trazado_104677" data-name="Trazado 104677" d="M670.187,968.875c.206,1.13-.208,2.166-.926,2.314s-1.467-.647-1.673-1.777.209-2.166.926-2.314S669.981,967.745,670.187,968.875Z" transform="translate(-633.375 -931.892)" fill="#f7a491"/>
        <path id="Trazado_104678" data-name="Trazado 104678" d="M579.043,997.005s8.885,9.609,10.206,13.481-1.288,9.412-4.89,9.654-11.62-17.055-11.62-17.055Z" transform="translate(-554.482 -956.796)" fill="#f7cc7f"/>
      </g>
      <g id="Grupo_59267" data-name="Grupo 59267" transform="translate(374.856 243.503)">
        <rect id="Rectángulo_5741" data-name="Rectángulo 5741" width="123.179" height="172.908" rx="37.794" transform="translate(0)" fill="#f7cc7f"/>
        <rect id="Rectángulo_5742" data-name="Rectángulo 5742" width="102.158" height="26.377" transform="translate(11.092 14.222)" fill="#3cb4c5"/>
        <path id="Trazado_104679" data-name="Trazado 104679" d="M1572.353,929.171H1671.8v-3.8H1569.643v26.377h2.71Z" transform="translate(-1558.551 -911.152)" fill="#3cb4c5" opacity="0.5" style="mix-blend-mode: multiply;isolation: isolate"/>
        <path id="Rectángulo_5743" data-name="Rectángulo 5743" d="M2.905,0h23.5a2.906,2.906,0,0,1,2.906,2.906V6.6A2.905,2.905,0,0,1,26.408,9.5H2.906A2.906,2.906,0,0,1,0,6.6V2.905A2.905,2.905,0,0,1,2.905,0Z" transform="translate(11.092 48.123)" fill="#f47458"/>
        <rect id="Rectángulo_5744" data-name="Rectángulo 5744" width="29.313" height="9.503" rx="2.905" transform="translate(47.514 48.123)" fill="#f47458"/>
        <rect id="Rectángulo_5745" data-name="Rectángulo 5745" width="29.313" height="9.503" rx="2.905" transform="translate(83.937 48.123)" fill="#f47458"/>
        <rect id="Rectángulo_5746" data-name="Rectángulo 5746" width="22.685" height="21.303" rx="6.514" transform="translate(11.092 65.15)" fill="#f47458"/>
        <path id="Rectángulo_5747" data-name="Rectángulo 5747" d="M6.514,0h9.658a6.514,6.514,0,0,1,6.514,6.514v8.275A6.515,6.515,0,0,1,16.17,21.3H6.514A6.514,6.514,0,0,1,0,14.79V6.514A6.514,6.514,0,0,1,6.514,0Z" transform="translate(37.583 65.15)" fill="#fae0b2"/>
        <path id="Rectángulo_5748" data-name="Rectángulo 5748" d="M6.514,0h9.657a6.514,6.514,0,0,1,6.514,6.514v8.275A6.515,6.515,0,0,1,16.17,21.3H6.514A6.514,6.514,0,0,1,0,14.79V6.514A6.514,6.514,0,0,1,6.514,0Z" transform="translate(64.074 65.15)" fill="#fae0b2"/>
        <path id="Rectángulo_5749" data-name="Rectángulo 5749" d="M6.515,0H16.17a6.515,6.515,0,0,1,6.515,6.515v8.275A6.514,6.514,0,0,1,16.171,21.3H6.514A6.514,6.514,0,0,1,0,14.79V6.515A6.515,6.515,0,0,1,6.515,0Z" transform="translate(11.092 91.413)" fill="#f47458"/>
        <path id="Rectángulo_5750" data-name="Rectángulo 5750" d="M6.515,0H16.17a6.515,6.515,0,0,1,6.515,6.515v8.274A6.515,6.515,0,0,1,16.17,21.3H6.514A6.514,6.514,0,0,1,0,14.79V6.515A6.515,6.515,0,0,1,6.515,0Z" transform="translate(37.583 91.413)" fill="#fae0b2"/>
        <path id="Rectángulo_5751" data-name="Rectángulo 5751" d="M6.515,0h9.657a6.514,6.514,0,0,1,6.514,6.514V14.79A6.514,6.514,0,0,1,16.171,21.3H6.514A6.514,6.514,0,0,1,0,14.79V6.515A6.515,6.515,0,0,1,6.515,0Z" transform="translate(64.074 91.413)" fill="#fae0b2"/>
        <path id="Trazado_104680" data-name="Trazado 104680" d="M2061.418,1228.943h-13.442a4.63,4.63,0,0,0-4.622,4.637v38.292a4.629,4.629,0,0,0,4.622,4.637h13.442a4.629,4.629,0,0,0,4.622-4.637V1233.58A4.629,4.629,0,0,0,2061.418,1228.943Z" transform="translate(-1952.791 -1163.793)" fill="#fae0b2"/>
        <rect id="Rectángulo_5752" data-name="Rectángulo 5752" width="22.685" height="21.303" rx="6.514" transform="translate(11.092 117.676)" fill="#f47458"/>
        <rect id="Rectángulo_5753" data-name="Rectángulo 5753" width="22.685" height="21.303" rx="6.514" transform="translate(37.583 117.676)" fill="#fae0b2"/>
        <rect id="Rectángulo_5754" data-name="Rectángulo 5754" width="22.685" height="21.303" rx="6.514" transform="translate(64.074 117.676)" fill="#fae0b2"/>
        <path id="Rectángulo_5755" data-name="Rectángulo 5755" d="M6.514,0H16.17a6.515,6.515,0,0,1,6.515,6.515V14.79A6.514,6.514,0,0,1,16.171,21.3H6.514A6.514,6.514,0,0,1,0,14.79V6.514A6.514,6.514,0,0,1,6.514,0Z" transform="translate(90.565 117.676)" fill="#fae0b2"/>
        <rect id="Rectángulo_5756" data-name="Rectángulo 5756" width="22.685" height="21.303" rx="6.514" transform="translate(11.092 143.939)" fill="#f47458"/>
        <rect id="Rectángulo_5757" data-name="Rectángulo 5757" width="22.685" height="21.303" rx="6.514" transform="translate(37.583 143.939)" fill="#fae0b2"/>
        <rect id="Rectángulo_5758" data-name="Rectángulo 5758" width="22.685" height="21.303" rx="6.514" transform="translate(64.074 143.939)" fill="#fae0b2"/>
        <rect id="Rectángulo_5759" data-name="Rectángulo 5759" width="22.685" height="21.303" rx="6.514" transform="translate(90.565 143.939)" fill="#e87b50"/>
        <g id="Grupo_59251" data-name="Grupo 59251" transform="translate(18.73 122.731)">
          <path id="Trazado_104681" data-name="Trazado 104681" d="M1622.761,1572.16v1.077l-5.237,10.992h-1.684l5.218-10.677v-.037h-5.884v-1.356Z" transform="translate(-1615.174 -1572.16)" fill="#fff"/>
        </g>
        <g id="Grupo_59252" data-name="Grupo 59252" transform="translate(44.953 122.526)">
          <path id="Trazado_104682" data-name="Trazado 104682" d="M1771.482,1580.153a3.448,3.448,0,0,1,2.387-3.231l-.018-.056a2.99,2.99,0,0,1-1.906-2.711c0-1.913,1.61-3.212,3.719-3.212,2.332,0,3.5,1.467,3.5,2.971a3.067,3.067,0,0,1-1.98,2.823v.055a3.344,3.344,0,0,1,2.424,3.12c0,2.1-1.8,3.509-4.09,3.509C1773,1583.421,1771.482,1581.917,1771.482,1580.153Zm6.477-.074c0-1.467-1.018-2.172-2.646-2.637a2.62,2.62,0,0,0-2.165,2.488,2.228,2.228,0,0,0,2.406,2.3A2.18,2.18,0,0,0,1777.959,1580.078Zm-4.478-6.035c0,1.207.907,1.857,2.294,2.228a2.376,2.376,0,0,0,1.832-2.191,1.873,1.873,0,0,0-2.036-1.968A1.916,1.916,0,0,0,1773.481,1574.044Z" transform="translate(-1771.482 -1570.943)" fill="#fff"/>
        </g>
        <g id="Grupo_59253" data-name="Grupo 59253" transform="translate(44.935 148.467)">
          <path id="Trazado_104683" data-name="Trazado 104683" d="M1779.534,1731.673c0,4.1-1.517,6.369-4.182,6.369-2.35,0-3.942-2.209-3.979-6.2,0-4.048,1.739-6.276,4.182-6.276C1778.09,1725.564,1779.534,1727.829,1779.534,1731.673Zm-6.532.186c0,3.138.962,4.921,2.443,4.921,1.665,0,2.461-1.95,2.461-5.032,0-2.971-.759-4.921-2.443-4.921C1774.038,1726.827,1773,1728.572,1773,1731.859Z" transform="translate(-1771.373 -1725.564)" fill="#fff"/>
        </g>
        <g id="Grupo_59254" data-name="Grupo 59254" transform="translate(71.899 122.526)">
          <path id="Trazado_104684" data-name="Trazado 104684" d="M1933.114,1582.065a6.775,6.775,0,0,0,1.314-.056,4.529,4.529,0,0,0,2.517-1.17,5.3,5.3,0,0,0,1.591-3.212h-.055a3.611,3.611,0,0,1-6.384-2.4,4.132,4.132,0,0,1,4.108-4.289c2.461,0,3.979,2.005,3.979,5.088a7.64,7.64,0,0,1-2.073,5.663,6,6,0,0,1-3.5,1.615,7.561,7.561,0,0,1-1.5.093Zm.592-6.944a2.319,2.319,0,0,0,2.313,2.562,2.69,2.69,0,0,0,2.369-1.262,1.081,1.081,0,0,0,.148-.594c0-2.061-.759-3.639-2.461-3.639C1934.687,1572.187,1933.706,1573.412,1933.706,1575.121Z" transform="translate(-1932.096 -1570.943)" fill="#fff"/>
        </g>
        <g id="Grupo_59255" data-name="Grupo 59255" transform="translate(17.953 95.954)">
          <path id="Trazado_104685" data-name="Trazado 104685" d="M1616.13,1424.621v-3.287h-5.589v-1.077l5.367-7.706h1.758v7.5h1.684v1.281h-1.684v3.287Zm0-4.568v-4.029q0-.947.056-1.894h-.056c-.37.706-.666,1.226-1,1.782l-2.942,4.1v.037Z" transform="translate(-1610.541 -1412.551)" fill="#fff"/>
        </g>
        <g id="Grupo_59256" data-name="Grupo 59256" transform="translate(45.046 95.954)">
          <path id="Trazado_104686" data-name="Trazado 104686" d="M1779.269,1413.925h-4.589l-.463,3.1a6.411,6.411,0,0,1,.981-.074,5.071,5.071,0,0,1,2.591.65,3.442,3.442,0,0,1,1.721,3.1,4.179,4.179,0,0,1-4.479,4.122,5.873,5.873,0,0,1-3-.743l.407-1.244a5.37,5.37,0,0,0,2.572.669,2.658,2.658,0,0,0,2.85-2.618c-.018-1.56-1.055-2.674-3.46-2.674a12.367,12.367,0,0,0-1.665.13l.777-5.793h5.755Z" transform="translate(-1772.034 -1412.551)" fill="#fff"/>
        </g>
        <g id="Grupo_59257" data-name="Grupo 59257" transform="translate(71.769 95.768)">
          <path id="Trazado_104687" data-name="Trazado 104687" d="M1938.392,1412.781a5.857,5.857,0,0,0-1.221.074,4.9,4.9,0,0,0-4.182,4.289h.056a3.665,3.665,0,0,1,6.532,2.507,4.03,4.03,0,0,1-4,4.252c-2.573,0-4.256-2.005-4.256-5.143a7.6,7.6,0,0,1,2.036-5.441,6.539,6.539,0,0,1,3.849-1.783,7.816,7.816,0,0,1,1.184-.093Zm-.463,6.963a2.449,2.449,0,0,0-2.48-2.766,2.679,2.679,0,0,0-2.332,1.485,1.393,1.393,0,0,0-.185.724c.037,1.987.944,3.454,2.646,3.454C1936.986,1422.641,1937.929,1421.471,1937.929,1419.744Z" transform="translate(-1931.323 -1411.444)" fill="#fff"/>
        </g>
        <g id="Grupo_59258" data-name="Grupo 59258" transform="translate(19.6 70.292)">
          <path id="Trazado_104688" data-name="Trazado 104688" d="M1622.8,1261.115h-.037l-2.091,1.133-.314-1.244,2.628-1.411h1.388v12.069H1622.8Z" transform="translate(-1620.358 -1259.593)" fill="#fff"/>
        </g>
        <g id="Grupo_59259" data-name="Grupo 59259" transform="translate(45.101 70.088)">
          <path id="Trazado_104689" data-name="Trazado 104689" d="M1772.365,1270.649v-1l1.277-1.244c3.072-2.934,4.46-4.494,4.479-6.313a2.15,2.15,0,0,0-2.387-2.358,4.09,4.09,0,0,0-2.553,1.021l-.518-1.151a5.268,5.268,0,0,1,3.4-1.226,3.39,3.39,0,0,1,3.683,3.509c0,2.228-1.61,4.029-4.145,6.481l-.962.891v.037h5.4v1.356Z" transform="translate(-1772.365 -1258.375)" fill="#fff"/>
        </g>
        <g id="Grupo_59260" data-name="Grupo 59260" transform="translate(71.917 70.088)">
          <path id="Trazado_104690" data-name="Trazado 104690" d="M1932.65,1268.773a5.427,5.427,0,0,0,2.664.761c2.091,0,2.739-1.337,2.721-2.34-.019-1.69-1.536-2.414-3.109-2.414h-.907v-1.226h.907c1.185,0,2.683-.613,2.683-2.042,0-.965-.611-1.82-2.11-1.82a4.408,4.408,0,0,0-2.406.8l-.426-1.188a5.7,5.7,0,0,1,3.146-.928c2.369,0,3.442,1.411,3.442,2.878a3,3,0,0,1-2.22,2.841v.037a3.141,3.141,0,0,1,2.683,3.1c0,1.931-1.5,3.621-4.385,3.621a6.1,6.1,0,0,1-3.128-.817Z" transform="translate(-1932.206 -1258.375)" fill="#fff"/>
        </g>
        <g id="Grupo_59261" data-name="Grupo 59261" transform="translate(20.983 157.693)">
          <ellipse id="Elipse_4305" data-name="Elipse 4305" cx="1.451" cy="1.456" rx="1.451" ry="1.456" fill="#fff"/>
        </g>
        <g id="Grupo_59262" data-name="Grupo 59262" transform="translate(93.29 82.04)">
          <path id="Trazado_104691" data-name="Trazado 104691" d="M2076.833,1337.279H2069.2v-7.662h-1.963v7.662H2059.6v1.97h7.636v7.662h1.963v-7.662h7.636Z" transform="translate(-2059.599 -1329.617)" fill="#fff"/>
        </g>
        <g id="Grupo_59263" data-name="Grupo 59263" transform="translate(70.334 149.97)">
          <path id="Trazado_104692" data-name="Trazado 104692" d="M1932.931,1743.681l-4.043-4.057,4.043-4.056-1.04-1.043-4.043,4.056-4.042-4.056-1.04,1.043,4.042,4.056-4.042,4.057,1.04,1.043,4.042-4.056,4.043,4.056Z" transform="translate(-1922.767 -1734.525)" fill="#fff"/>
        </g>
        <g id="Grupo_59264" data-name="Grupo 59264" transform="translate(95.042 127.91)">
          <rect id="Rectángulo_5760" data-name="Rectángulo 5760" width="12.787" height="1.965" fill="#fff"/>
        </g>
        <g id="Grupo_59265" data-name="Grupo 59265" transform="translate(95.514 150.618)">
          <rect id="Rectángulo_5761" data-name="Rectángulo 5761" width="12.787" height="1.965" fill="#fff"/>
        </g>
        <g id="Grupo_59266" data-name="Grupo 59266" transform="translate(95.514 155.565)">
          <rect id="Rectángulo_5762" data-name="Rectángulo 5762" width="12.787" height="1.965" fill="#fff"/>
        </g>
      </g>
      <path id="Trazado_104693" data-name="Trazado 104693" d="M989.759,266.874h0l-.033-.011c-.314-.113-.634-.214-.956-.307-.11-.032-.22-.065-.331-.094s-.235-.059-.353-.087-.239-.057-.36-.083-.229-.047-.343-.069-.258-.048-.387-.069q-.165-.027-.331-.051c-.14-.02-.281-.038-.422-.054-.1-.012-.205-.024-.309-.034-.161-.015-.324-.027-.487-.037-.086-.005-.171-.013-.257-.017-.25-.012-.5-.019-.754-.019H868.4q-.405,0-.805.02a15.689,15.689,0,0,0-1.578.161q-.388.059-.77.138a15.691,15.691,0,0,0-12.412,13.776,15.888,15.888,0,0,0-.081,1.605V519.59a15.7,15.7,0,0,0,10.322,14.766h0l.08.027c.3.107.6.2.909.291.11.032.22.065.332.095s.235.058.353.087.239.058.36.084.229.047.343.069.258.048.387.069c.11.018.22.036.331.051.14.02.281.037.422.054.1.012.205.024.309.034.161.016.324.027.487.037.086.006.171.013.257.017.25.012.5.019.754.019H984.435a15.683,15.683,0,0,0,15.647-15.7V281.64A15.7,15.7,0,0,0,989.759,266.874Z" transform="translate(-587.075 -118.846)" fill="#47286d"/>
      <rect id="Rectángulo_5763" data-name="Rectángulo 5763" width="132.158" height="226.555" transform="translate(273.263 168.492)" fill="#f3fcff"/>
      <rect id="Rectángulo_5764" data-name="Rectángulo 5764" width="56.552" height="2.839" rx="0.868" transform="translate(311.173 158.533)" fill="#fff"/>
      <ellipse id="Elipse_4306" data-name="Elipse 4306" cx="6.491" cy="6.513" rx="6.491" ry="6.513" transform="translate(332.775 399.449)" fill="#daeef7" opacity="0.3"/>
      <rect id="Rectángulo_5765" data-name="Rectángulo 5765" width="132.158" height="9.505" transform="translate(273.263 385.541)" fill="#3cb4c5" opacity="0.2"/>
      <rect id="Rectángulo_5766" data-name="Rectángulo 5766" width="132.158" height="12.023" transform="translate(273.263 168.492)" fill="#3cb4c5" opacity="0.2"/>
      <g id="Grupo_59268" data-name="Grupo 59268" transform="translate(173.214 161.705)">
        <path id="Trazado_104694" data-name="Trazado 104694" d="M451.806,426.513H337.031a7.191,7.191,0,0,0-7.179,7.2v47.526a7.191,7.191,0,0,0,7.179,7.2h90.363c3.657,5.12,10.288,14.29,10.873,14.29.548,0-.507-8.661-1.251-14.29h14.79a7.191,7.191,0,0,0,7.179-7.2V433.716A7.191,7.191,0,0,0,451.806,426.513Z" transform="translate(-325.113 -414.185)" fill="#daeef7" opacity="0.3" style="mix-blend-mode: multiply;isolation: isolate"/>
        <path id="Trazado_104695" data-name="Trazado 104695" d="M423.559,353.029H308.784a7.191,7.191,0,0,0-7.179,7.2v47.526a7.191,7.191,0,0,0,7.179,7.2h90.363c3.657,5.12,10.288,14.29,10.873,14.29.548,0-.507-8.661-1.251-14.29h14.791a7.191,7.191,0,0,0,7.179-7.2V360.232A7.191,7.191,0,0,0,423.559,353.029Z" transform="translate(-301.605 -353.029)" fill="#d9c0f8"/>
        <rect id="Rectángulo_5767" data-name="Rectángulo 5767" width="56.589" height="3.138" rx="0.959" transform="translate(11.869 15.41)" fill="#fff"/>
        <path id="Rectángulo_5768" data-name="Rectángulo 5768" d="M.959,0H23.418a.959.959,0,0,1,.959.959V2.178a.96.96,0,0,1-.96.96H.959A.959.959,0,0,1,0,2.178V.959A.959.959,0,0,1,.959,0Z" transform="translate(11.869 23.689)" fill="#fff"/>
        <path id="Rectángulo_5769" data-name="Rectángulo 5769" d="M.959,0h73.95a.96.96,0,0,1,.96.96V2.178a.96.96,0,0,1-.96.96H.959A.959.959,0,0,1,0,2.178V.959A.959.959,0,0,1,.959,0Z" transform="translate(38.995 23.689)" fill="#fff"/>
        <rect id="Rectángulo_5770" data-name="Rectángulo 5770" width="40.852" height="3.138" rx="0.959" transform="translate(74.242 15.41)" fill="#fff"/>
        <path id="Rectángulo_5771" data-name="Rectángulo 5771" d="M.959,0H102.265a.959.959,0,0,1,.959.959V2.178a.96.96,0,0,1-.96.96H.959A.959.959,0,0,1,0,2.178V.959A.959.959,0,0,1,.959,0Z" transform="translate(11.869 39.919)" fill="#fff"/>
        <path id="Rectángulo_5772" data-name="Rectángulo 5772" d="M.959,0H52.366a.959.959,0,0,1,.959.959V2.178a.96.96,0,0,1-.96.96H.96A.96.96,0,0,1,0,2.178V.959A.959.959,0,0,1,.959,0Z" transform="translate(11.869 31.969)" fill="#fff"/>
        <path id="Rectángulo_5773" data-name="Rectángulo 5773" d="M.959,0H45.843A.959.959,0,0,1,46.8.959V2.178a.96.96,0,0,1-.96.96H.959A.959.959,0,0,1,0,2.178V.959A.959.959,0,0,1,.959,0Z" transform="translate(68.292 31.969)" fill="#fff"/>
      </g>
      <path id="Rectángulo_5774" data-name="Rectángulo 5774" d="M.858,0H34.422a.858.858,0,0,1,.858.858V1.946a.857.857,0,0,1-.857.857H.857A.857.857,0,0,1,0,1.946V.858A.858.858,0,0,1,.858,0Z" transform="translate(424.466 148.155) rotate(180)" fill="#fff"/>
      <path id="Trazado_104696" data-name="Trazado 104696" d="M1495.367,208.532h102.54a6.424,6.424,0,0,1,6.413,6.435v42.46a6.424,6.424,0,0,1-6.413,6.435h-80.729c-3.267,4.575-9.191,12.767-9.714,12.767-.49,0,.453-7.738,1.117-12.767h-13.214a6.424,6.424,0,0,1-6.413-6.435v-42.46A6.424,6.424,0,0,1,1495.367,208.532Z" transform="translate(-1116.543 -71.069)" fill="#daeef7" opacity="0.3" style="mix-blend-mode: multiply;isolation: isolate"/>
      <path id="Trazado_104697" data-name="Trazado 104697" d="M1520.6,142.882h102.539a6.424,6.424,0,0,1,6.413,6.435v42.46a6.424,6.424,0,0,1-6.413,6.435h-80.729c-3.267,4.575-9.191,12.767-9.714,12.767-.49,0,.453-7.738,1.117-12.767H1520.6a6.424,6.424,0,0,1-6.413-6.435v-42.46A6.424,6.424,0,0,1,1520.6,142.882Z" transform="translate(-1137.544 -16.433)" fill="#d9c0f8"/>
      <path id="Rectángulo_5775" data-name="Rectángulo 5775" d="M.858,0H30.491a.857.857,0,0,1,.857.857V1.946a.857.857,0,0,1-.857.857H.857A.857.857,0,0,1,0,1.946V.858A.858.858,0,0,1,.858,0Z" transform="translate(478.849 143.019) rotate(180)" fill="#fff"/>
      <path id="Rectángulo_5776" data-name="Rectángulo 5776" d="M.857,0H20.318a.857.857,0,0,1,.857.857V1.946a.857.857,0,0,1-.857.857H.856A.856.856,0,0,1,0,1.947V.857A.857.857,0,0,1,.857,0Z" transform="translate(478.849 152.175) rotate(180)" fill="#fff"/>
      <path id="Rectángulo_5777" data-name="Rectángulo 5777" d="M.857,0H25.2a.857.857,0,0,1,.857.857v1.09A.856.856,0,0,1,25.2,2.8H.857A.857.857,0,0,1,0,1.946V.857A.857.857,0,0,1,.857,0Z" transform="translate(455.117 152.175) rotate(180)" fill="#fff"/>
      <path id="Rectángulo_5778" data-name="Rectángulo 5778" d="M.857,0h34.7a.858.858,0,0,1,.858.858V1.946a.857.857,0,0,1-.857.857H.857A.857.857,0,0,1,0,1.946V.857A.857.857,0,0,1,.857,0Z" transform="translate(425.758 152.175) rotate(180)" fill="#fff"/>
      <path id="Rectángulo_5779" data-name="Rectángulo 5779" d="M.857,0H51.721a.858.858,0,0,1,.858.858V1.946a.857.857,0,0,1-.857.857H.858A.858.858,0,0,1,0,1.946V.857A.857.857,0,0,1,.857,0Z" transform="translate(441.765 143.019) rotate(180)" fill="#fff"/>
      <path id="Rectángulo_5780" data-name="Rectángulo 5780" d="M.857,0H88.805a.857.857,0,0,1,.857.857V1.946a.857.857,0,0,1-.857.857H.858A.858.858,0,0,1,0,1.946V.857A.857.857,0,0,1,.857,0Z" transform="translate(478.849 170.108) rotate(180)" fill="#fff"/>
      <path id="Rectángulo_5781" data-name="Rectángulo 5781" d="M.858,0h44.6a.857.857,0,0,1,.857.857V1.946a.857.857,0,0,1-.857.857H.857A.857.857,0,0,1,0,1.946V.858A.858.858,0,0,1,.858,0Z" transform="translate(478.849 161.247) rotate(180)" fill="#fff"/>
      <path id="Rectángulo_5782" data-name="Rectángulo 5782" d="M.857,0H40.188a.857.857,0,0,1,.857.857V1.946a.857.857,0,0,1-.857.857H.858A.858.858,0,0,1,0,1.946V.857A.857.857,0,0,1,.857,0Z" transform="translate(430.232 161.247) rotate(180)" fill="#fff"/>
      <g id="Grupo_59269" data-name="Grupo 59269" transform="translate(284.216 197.716)">
        <path id="Trazado_104698" data-name="Trazado 104698" d="M985.361,905.444s-25.616,3.7-21.7,28.418c3.649,23.049,25.616,18.368,31.257,17.213S985.361,905.444,985.361,905.444Z" transform="translate(-963.252 -848.779)" fill="#f7cc7f"/>
        <path id="Trazado_104699" data-name="Trazado 104699" d="M998.762,1073.62c2.627-.538.735-10.468-2.036-20.927-9.43,1.849-19.935,3.911-28.853,5.672C972.43,1079.184,993.286,1074.741,998.762,1073.62Z" transform="translate(-967.098 -971.324)" fill="#e8ba70"/>
        <path id="Trazado_104700" data-name="Trazado 104700" d="M1182.874,1160.332s5.626,20.088,4.145,35.7c-1.381,14.555.691,16.981,6.1,16.519s18.536-3.7,18.766-8.895-2.187-31.884-11.283-46.208S1182.874,1160.332,1182.874,1160.332Z" transform="translate(-1146.029 -1053.762)" fill="#31d9e7"/>
        <path id="Trazado_104701" data-name="Trazado 104701" d="M1191.617,1152.975c-3.607,2.423-8.743,8.378-8.743,8.378s5.626,20.088,4.145,35.7c-1.381,14.555.691,16.981,6.1,16.519a45.545,45.545,0,0,0,8.05-1.588C1203.328,1176.206,1194.1,1157.023,1191.617,1152.975Z" transform="translate(-1146.029 -1054.782)" fill="#2bc0cc"/>
        <path id="Trazado_104702" data-name="Trazado 104702" d="M1238.881,615.208s-42.483,30.931-56.212,40.288l-8.03,11.956,5.7,34.83,13.729,6.758,67.091,13.256-1.554-7.538-12.175-33.79-6.217-38.468-1.813-23.653Z" transform="translate(-1139.176 -607.234)" fill="#31d9e7"/>
        <path id="Trazado_104703" data-name="Trazado 104703" d="M1263.634,957.153,1262,947.067,1194.11,963.6l2.432,14.865,13.729,6.758,67.091,13.256-1.554-7.538Z" transform="translate(-1155.38 -883.419)" fill="#2bc0cc"/>
        <path id="Trazado_104704" data-name="Trazado 104704" d="M1106.839,841.785s-5.613,29.544,11.4,53.544a2.974,2.974,0,0,1-1.122,3.61l-12.664,3.235s-5.872,2.079-10.822-6.354-13.7-27.378-8.52-48.288c0,0,1.266-5.66,8.174-6.7l9.21-1.733S1106.58,838.464,1106.839,841.785Z" transform="translate(-1063.345 -793.524)" fill="#20a0ab"/>
        <path id="Trazado_104705" data-name="Trazado 104705" d="M1536.329,575.653s11.052-8.144,17.442-7.971,12.779,8.664,16.924,15.6,15.025,34.136,16.061,52.5.863,44.533-8.117,47.652-20.032-.693-20.032-.693-14.506-12.476-22.968-51.291S1536.329,575.653,1536.329,575.653Z" transform="translate(-1436.624 -567.68)" fill="#20a0ab"/>
        <path id="Trazado_104706" data-name="Trazado 104706" d="M1617.057,691.364s10.33-13.428,5.066-49.686c-8.289-57.086-29.185-65.719-29.185-65.719s-15.466,11.786-.691,66.953C1604.422,688.369,1617.057,691.364,1617.057,691.364Z" transform="translate(-1481.403 -574.57)" fill="#2bc0cc"/>
        <path id="Trazado_104707" data-name="Trazado 104707" d="M1594.48,835.793a209.894,209.894,0,0,0,4.945,23.214c1.18,4.4,2.364,8.406,3.54,12.049,6.425-2.232,16.815-7.825,12.377-22.013C1611.232,835.9,1600.529,835.094,1594.48,835.793Z" transform="translate(-1488.581 -790.665)" fill="#f7cc7f"/>
        <path id="Trazado_104708" data-name="Trazado 104708" d="M1617.163,928.5c1.18,4.4,2.364,8.406,3.54,12.049,6.336-2.2,16.527-7.672,12.552-21.43l-17.462,4.038Q1616.431,925.763,1617.163,928.5Z" transform="translate(-1506.319 -860.163)" fill="#e8ba70"/>
        <path id="Trazado_104709" data-name="Trazado 104709" d="M1128.528,1059.83a65.479,65.479,0,0,1-10.2-23.117l-22.444,4.25a77.1,77.1,0,0,0,8.031,19.358c4.951,8.433,10.822,6.354,10.822,6.354l12.664-3.235A2.974,2.974,0,0,0,1128.528,1059.83Z" transform="translate(-1073.637 -958.025)" fill="#3c8f7c" opacity="0.3" style="mix-blend-mode: multiply;isolation: isolate"/>
      </g>
      <g id="Grupo_59274" data-name="Grupo 59274" transform="translate(507.277 170.261)">
        <g id="Grupo_59270" data-name="Grupo 59270" transform="translate(39.395)">
          <path id="Trazado_104710" data-name="Trazado 104710" d="M2580.428,414.64l-.1,11.127,7.052-6.638,22.226-15.095-18.14,3.956s-9.067,3.435-9.516,3.957A22.978,22.978,0,0,0,2580.428,414.64Z" transform="translate(-2571.491 -404.034)" fill="#dd513a"/>
          <path id="Trazado_104711" data-name="Trazado 104711" d="M2527.664,409.034l38.113-5L2536.6,414.64Z" transform="translate(-2527.664 -404.034)" fill="#f47458"/>
          <path id="Trazado_104712" data-name="Trazado 104712" d="M2607.6,424.136l-10.986-6.819,26.545-13.283Z" transform="translate(-2585.05 -404.034)" fill="#f47458"/>
        </g>
        <g id="Grupo_59273" data-name="Grupo 59273" transform="translate(0 15.719)">
          <g id="Grupo_59271" data-name="Grupo 59271" transform="translate(0 4.021)">
            <path id="Trazado_104713" data-name="Trazado 104713" d="M2292.844,558.49a24.593,24.593,0,0,1,.173-2.677c.1-.82.239-1.651.419-2.47l.884.2c-.175.79-.31,1.592-.4,2.382a23.63,23.63,0,0,0-.166,2.578q0,.376,0,.752l-.9.02C2292.844,559.006,2292.843,558.743,2292.844,558.49Zm2.484-10.781a34.536,34.536,0,0,1,2.916-5.161l.747.512a33.646,33.646,0,0,0-2.839,5.025Zm28.266-5.324c-.056-.026-.112-.054-.168-.082l.407-.811.138.068a.526.526,0,0,0,.094.017,4.161,4.161,0,0,0,2.457-.62,3.851,3.851,0,0,0,1.25-1.833l.855.3a4.8,4.8,0,0,1-1.551,2.254,5.024,5.024,0,0,1-3.12.8A1.179,1.179,0,0,1,2323.595,542.384Zm-21.67-4.469a47.206,47.206,0,0,1,4.259-4.094l.584.693a46.3,46.3,0,0,0-4.177,4.015Zm17.218-2.119a11.093,11.093,0,0,1,0-2.687,13.207,13.207,0,0,1,.272-1.507l.88.213a12.2,12.2,0,0,0-.253,1.4,10.161,10.161,0,0,0,0,2.466,8.449,8.449,0,0,0,.384,1.662l-.856.294A9.331,9.331,0,0,1,2319.143,535.8Zm3.751-5.125-.121-.04.282-.863.131.044a9.111,9.111,0,0,1,4.7,3.586l-.763.489A8.189,8.189,0,0,0,2322.893,530.671Zm-11.538.188a20.672,20.672,0,0,1,3.661-1.337c.737-.127,1.416-.219,2.075-.28l.083.9c-.635.059-1.291.148-2,.271a18.654,18.654,0,0,0-3.446,1.271Zm10.505-4.723a20.289,20.289,0,0,1,3.98-4.444l.578.7a19.382,19.382,0,0,0-3.8,4.246Z" transform="translate(-2292.844 -521.692)" fill="#6db1b5"/>
          </g>
          <g id="Grupo_59272" data-name="Grupo 59272" transform="translate(38.099)">
            <path id="Trazado_104714" data-name="Trazado 104714" d="M2520.285,499.5a17.423,17.423,0,0,1,2.771-.888l-.2-.886a18.312,18.312,0,0,0-2.915.934Z" transform="translate(-2519.94 -497.727)" fill="#6db1b5"/>
          </g>
        </g>
      </g>
      <g id="Grupo_59278" data-name="Grupo 59278" transform="translate(441.891 250.198)">
        <path id="Trazado_104715" data-name="Trazado 104715" d="M1912.726,1111.923l-.463.416a.569.569,0,0,1-.8-.02l-8.224-9.072a.563.563,0,0,1,.062-.8l.463-.416a.569.569,0,0,1,.8.02l8.224,9.071A.563.563,0,0,1,1912.726,1111.923Z" transform="translate(-1903.101 -1064.742)" fill="#13375b"/>
        <path id="Trazado_104716" data-name="Trazado 104716" d="M1949.837,1117.128c-1.1-.9-9.6,2.846-9.492,4.149s-5.932,13.934-5.932,13.934l-10.437-8.35,0,0c-.092-.3-1.082-3.55-1.13-4.13-.051-.609-1.814-1.676-2.633-1.519s.7,1.188.8,1.377c.272.515-.778.708-.778.708s-3.015-1.661-3.08-2.637-.686-3.024-1.338-2.6c-.336.221-.333,1.673-.228,2.362-.194-.782-.468-1.665-.735-1.753-.488-.16-.73.463-.642.768s.876,3.627,1.115,4,5.1,4.3,5.806,5.156c0,0,13.5,15.485,14.461,15.89.843.355,3.85-4.981,6.691-8.524S1953.272,1119.93,1949.837,1117.128Z" transform="translate(-1912.33 -1077.318)" fill="#f7a491"/>
        <path id="Trazado_104717" data-name="Trazado 104717" d="M2283.56,1771.275s1.855,1.816,1.9,2.483.164,7.807-.593,8.474-2.981,1.139-2.267,1.889c.541.567,4.7.445,7.455.293.8-.045,1.813-6.485,2.132-7.432.463-1.375,1.588-4.472,1.167-5.43a8.043,8.043,0,0,0-2.568-2.322,12.651,12.651,0,0,1-2.844-3.039Z" transform="translate(-2218.815 -1617.604)" fill="#f48c7f"/>
        <path id="Trazado_104718" data-name="Trazado 104718" d="M2139.851,1821.2s1.66,4.705,1.662,4.718c.123.746.61,2.587.61,3.265,0,2.546-11.444-2.161-8.879-3.289a2.723,2.723,0,0,0,1.037-1.784,5.977,5.977,0,0,0-.964-3.01Z" transform="translate(-2094.322 -1663.303)" fill="#f7a491"/>
        <g id="Grupo_59275" data-name="Grupo 59275" transform="translate(24.495 70.276)">
          <path id="Trazado_104719" data-name="Trazado 104719" d="M2052.192,1299.405s-.834,8.436-.834,8.562c0,13.646-2.7,40.3-2.183,42.866,1.25,6.258,14.712,38.179,14.712,38.179l7.276-.873-9.481-38.219,3.489-15.383,4.937-30.408Z" transform="translate(-2049.11 -1299.405)" fill="#355389"/>
          <path id="Trazado_104720" data-name="Trazado 104720" d="M2102.33,1312.838l1.381,8,3.735,32.905,14.224,32.16s-2,4.679-4.953,5.337l-22.639-33.019-14.062-42.25.493-9.387Z" transform="translate(-2074.831 -1305.376)" fill="#13375b"/>
        </g>
        <path id="Trazado_104721" data-name="Trazado 104721" d="M2050.186,1070.145l10.089,1.033s.463-8.3.463-12.257c0-4.8-.408-10.988-.986-10.855a8.786,8.786,0,0,0-5.108,3.066C2050.143,1057.337,2050.186,1070.145,2050.186,1070.145Z" transform="translate(-2025.51 -1019.954)" fill="#86b1f2"/>
        <path id="Trazado_104722" data-name="Trazado 104722" d="M2059.441,1056.49c-.211,1.464-4.089,41.273-4.089,41.273,18.369,8.9,28.5,1.586,28.5,1.586s-.6-27.954.12-31.759c.476-2.517,1.07-19.245-.555-19.713a40.56,40.56,0,0,0-7.085-1.511c-2.226-.232-10.872-.366-12.419.155A19.791,19.791,0,0,0,2059.441,1056.49Z" transform="translate(-2029.809 -1018.37)" fill="#9bc1f9"/>
        <path id="Trazado_104723" data-name="Trazado 104723" d="M2287,1784.038s-4.275,12.079-5.949,12.662c-.444.155-2.577.547-2.979,1.494a4.1,4.1,0,0,0,0,1.237h8.911s1.128-5.322,1.573-7.66c0,0,2.358-5.713,2.1-6.233S2287,1784.038,2287,1784.038Z" transform="translate(-2215.116 -1632.457)" fill="#184655"/>
        <path id="Trazado_104724" data-name="Trazado 104724" d="M2098.786,1853.689l-1.311-4.154s-2.752,1.168-4.128.974a41.6,41.6,0,0,1-4.062-.974c-5.493,1.814-9.992,2.694-9.174,4.154h18.675Z" transform="translate(-2050.334 -1686.966)" fill="#184655"/>
        <g id="Grupo_59276" data-name="Grupo 59276" transform="translate(22.031 56.791)">
          <path id="Trazado_104725" data-name="Trazado 104725" d="M2035.649,1229.405a2.363,2.363,0,0,1-.277-.207c.327-3.9.268-7.679-.952-8.957.029-.061.3-.63.574-1.22,1.414,1.1,2.085,4.012,1.822,8.744a8.021,8.021,0,0,1-.186.98C2036.22,1229.2,2035.848,1229.489,2035.649,1229.405Z" transform="translate(-2034.42 -1219.022)" fill="#f7a491"/>
        </g>
        <path id="Trazado_104726" data-name="Trazado 104726" d="M2241.742,1144.35a1.072,1.072,0,0,0,0-.256c-.27-2.757-2.552-25.906-2.936-26.891-.347-.888-10.578-15.571-10.578-15.571l-5.029,6.874,9.84,13.169c.22.837,3.77,16.464,3.77,16.464s.728,2.849,1.054,4.555c-.149.411-.294.8-.424,1.118a10.324,10.324,0,0,1-1.06,1.709,11.751,11.751,0,0,0-1.257,2.229c-.1.4-.292,1.238-.4,1.742s-.252,1.091-.277,1.365a2.633,2.633,0,0,1-.318.733.44.44,0,0,0,.518.636c.358-.119.635-.583.807-.873.484-.817.742-2.308.862-2.229s.545,2.608.612,2.895a31.367,31.367,0,0,0,.863,3.761c.288.537.667.447.769.111.087-.289-.317-4.4-.317-4.4s-.05-.524.178-.36.6,3.895.762,4.441.522.836.83.4c.375-.534-.27-4.491-.27-4.491s-.072-.5.14-.451.477,3.226.642,3.5a.417.417,0,0,0,.779-.085c.234-.54-.372-4.068-.372-4.068s.03-.281.162-.187.552,2.788.825,3.037a.289.289,0,0,0,.421.006c.5-.344-.267-2.906-.26-4.181s-.582-2.707-.406-4.224C2241.691,1144.731,2241.722,1144.5,2241.742,1144.35Z" transform="translate(-2169.501 -1064.535)" fill="#f8a492"/>
        <path id="Trazado_104727" data-name="Trazado 104727" d="M2214.085,1073.382l-8.739,5.888s-4.926-7.355-7.57-9.973c-3.312-3.28,1.207-13.328,3.341-12.76C2205.89,1057.809,2214.085,1073.382,2214.085,1073.382Z" transform="translate(-2147.36 -1026.986)" fill="#9bc1f9"/>
        <path id="Trazado_104728" data-name="Trazado 104728" d="M2138.482,993.542l1.307,8.645s-4.774,10.294-7.624,9.4c-2.391-.749-.92-9.857-.92-9.857s1.3-4.891.912-7.339S2138.482,993.542,2138.482,993.542Z" transform="translate(-2092.598 -974.153)" fill="#f7a491"/>
        <path id="Trazado_104729" data-name="Trazado 104729" d="M2138.075,994.392c-.391-2.448,6.324-.85,6.324-.85l.109.717a3.991,3.991,0,0,1-.728,1.2,8.828,8.828,0,0,1-5.872,2.666A13.387,13.387,0,0,0,2138.075,994.392Z" transform="translate(-2098.515 -974.153)" fill="#f47458"/>
        <g id="Grupo_59277" data-name="Grupo 59277" transform="translate(35.519)">
          <path id="Trazado_104730" data-name="Trazado 104730" d="M2126.287,909.784c.189-.069,1.521,9.846-1.005,12.575s-7.45,3.621-9.216,1.472c-1.953-2.377-1.855-13.034,2.073-15.84S2126.287,909.784,2126.287,909.784Z" transform="translate(-2114.82 -902.625)" fill="#f7a491"/>
          <path id="Trazado_104731" data-name="Trazado 104731" d="M2126.594,880.572a10.9,10.9,0,0,1,5.726,3.277c1.379.163,3.253.928,5.188,4.143a8.057,8.057,0,0,1-2.147,10.481,6.27,6.27,0,0,0-2.731,4.631l-.438-1.284a7.2,7.2,0,0,1-.347-3.024,5.931,5.931,0,0,1,.448-1.818c.666-1.435-1.431-2.389-2.019-3.582-.452-.919-.475-3.023-1.188-4.542l-.852-1.16s-1.966-1.535-3.889-1.1S2122.7,879.775,2126.594,880.572Z" transform="translate(-2121.779 -880.511)" fill="#184655"/>
          <path id="Trazado_104732" data-name="Trazado 104732" d="M2166.214,957.071c-.02,1.21.528,2.2,1.224,2.212s1.276-.959,1.3-2.169-.528-2.2-1.224-2.212S2166.234,955.862,2166.214,957.071Z" transform="translate(-2157.592 -942.422)" fill="#f7a491"/>
        </g>
        <path id="Trazado_104733" data-name="Trazado 104733" d="M2122.865,983.511l-3.809-.2a1.671,1.671,0,0,0,1.685,1.592C2122.781,985.07,2122.865,983.511,2122.865,983.511Z" transform="translate(-2082.827 -966.066)" fill="#fff"/>
      </g>
      <path id="Trazado_104734" data-name="Trazado 104734" d="M1082.229,1657.869l1.863-.354-8.048-42.833-1.863.354Z" transform="translate(-771.355 -1241.314)" fill="#0e2e35"/>
      <path id="Trazado_104735" data-name="Trazado 104735" d="M987.311,1658.064h-2.24l8.349-43.382,1.863.354Z" transform="translate(-697.194 -1241.314)" fill="#0e2e35"/>
      <path id="Trazado_104736" data-name="Trazado 104736" d="M835.69,1659.03l1.819.022-8-43.209-1.863.354Z" transform="translate(-566.177 -1242.281)" fill="#0e2e35"/>
      <path id="Trazado_104737" data-name="Trazado 104737" d="M764.089,1265.509c-7.376.793-16.92,1.629-26.5,17.945-10.473,17.832-4.96,44.469,3.306,51.872s35.262,16.542,57.956,2.859c0,0,13.7-8.292,6.67-22.054-10.822-21.177-9.293-25.594-14.132-33.893S779.745,1263.827,764.089,1265.509Z" transform="translate(-486.45 -950.567)" fill="#fae0b2"/>
      <path id="Trazado_104738" data-name="Trazado 104738" d="M737.587,1290.636c6.54-11.136,13.063-15.06,18.89-16.682a48.948,48.948,0,0,0-6.827,9.246c-10.472,17.832-4.96,44.469,3.306,51.872,7.33,6.564,29.391,14.493,50.118,6.661a21.076,21.076,0,0,1-4.225,3.634c-22.694,13.683-49.69,4.543-57.956-2.859S727.114,1308.468,737.587,1290.636Z" transform="translate(-486.45 -957.749)" fill="#f7cc7f"/>
      <path id="Trazado_104739" data-name="Trazado 104739" d="M1045.94,1427.988l1.9,5.707-5.777-2.28Z" transform="translate(-744.622 -1085.942)" fill="#f79c8d"/>
      <path id="Trazado_104740" data-name="Trazado 104740" d="M1011.405,1326.767c.385.016,1.44.369,2.984,3.286,1.971,3.725,4.852,14.977,4.852,14.977l-8.6,3.2-1.1-2.349-1.819-18.08S1011.3,1326.762,1011.405,1326.767Z" transform="translate(-716.042 -1001.702)" fill="#dd513a"/>
      <path id="Trazado_104741" data-name="Trazado 104741" d="M886.3,1317.1a52.5,52.5,0,0,1,11.366,1.623s2.074,17.828-1.867,31.376c-.883,3.032.73,12.571.73,12.571l-25.478-.336s3.018-23.06,1.881-26.785-1.164-16.706-1.164-16.706.174-.027,5.724-.986A57.69,57.69,0,0,1,886.3,1317.1Z" transform="translate(-602.3 -993.656)" fill="#f47458"/>
      <path id="Trazado_104742" data-name="Trazado 104742" d="M908.326,1785.968s.564,6.506,1.6,8.307-.055,4.865-.109,5.285-2.182,1.021-5.563.661-3.327-1.141-3.055-2.4,2.073-2.883,2.182-4.083-1.036-5.525-1.036-5.525Z" transform="translate(-627.299 -1383.864)" fill="#f7a491"/>
      <path id="Trazado_104743" data-name="Trazado 104743" d="M891.495,1554.739s17.588-.977,21.515,1.4-.71,7.263-.71,7.263-14.318,6.225-38.289,7.609c-5.676.328-6.165-14.8-5.1-16.052S891.495,1554.739,891.495,1554.739Z" transform="translate(-600.144 -1191.096)" fill="#256653"/>
      <path id="Trazado_104744" data-name="Trazado 104744" d="M902.8,1843.874c-3.482-.371-3.052-2.082-2.771-3.381.176-.813,1.175-1.772,1.77-2.678a5.8,5.8,0,0,0,2.33,1.132c1.57.464,3.723-.454,5.095-1.029a16.821,16.821,0,0,1,.466,4.492C909.637,1842.843,906.286,1844.245,902.8,1843.874Z" transform="translate(-626.27 -1427.013)" fill="#184655"/>
      <path id="Trazado_104745" data-name="Trazado 104745" d="M862.8,1568.188c.7,5.317,4.182,31.787,4.182,31.787l-8.072,1s-9.927-34.549-9.418-39.833,4.225-5.729,4.225-5.729S860.942,1554.113,862.8,1568.188Z" transform="translate(-584.346 -1191.963)" fill="#3c8f7c"/>
      <path id="Trazado_104746" data-name="Trazado 104746" d="M853.96,1339.165c2.382-.894,3.547,20.57,3.868,29.4a103.845,103.845,0,0,0,13.4-.134c.861-.065,2.846-.792,3.7-.9a8.554,8.554,0,0,1,2.1-.1,39.721,39.721,0,0,1,4.932,2.22c.466.489,1.727,1.723,1.515,2.256s-2.425-1.487-2.425-1.487l-1.081-.606c1.346,1.315,3.914,3.047,3.544,3.677-.361.615-2.677-1.142-4.328-2.34,1.416,1.279,3.175,3.567,2.769,3.924-.364.321-2.365-2.329-4.5-3.092-.792-.283-1.582.5-2.205.595a4.482,4.482,0,0,1-1.615.09l-2.315-.656c-.789.071-.809.538-1.605.707-.925.2-2.441.4-3.619.692-6.78,1.657-9.042,2.426-11.118,2.425C848.694,1375.832,848.33,1341.276,853.96,1339.165Z" transform="translate(-584.773 -1011.997)" fill="#f7a491"/>
      <path id="Trazado_104747" data-name="Trazado 104747" d="M845.866,1349.366c-.446-9.049-.381-20.2,4.692-22.106,2-.751,5.53,3.764,4.9,22.29A38.109,38.109,0,0,1,845.866,1349.366Z" transform="translate(-581.2 -1002.048)" fill="#dd513a"/>
      <path id="Trazado_104748" data-name="Trazado 104748" d="M974.762,1436.234h-.517l-7.773,19.1.535-.082Z" transform="translate(-681.715 -1092.804)" fill="#f79c8d"/>
      <path id="Trazado_104749" data-name="Trazado 104749" d="M1053.57,1819.137a4.4,4.4,0,0,0,.557,3.752c1.261,1.493,6.5,2.959,7.19,3.767a2.267,2.267,0,0,1,.636,1.5l-14.709-.4.16-4.443.677-3.193Z" transform="translate(-748.936 -1411.469)" fill="#f7a491"/>
      <path id="Trazado_104750" data-name="Trazado 104750" d="M1050.958,1844.259s-3.78,1.529-5.605.624-1.771-1.156-2.3-.818-.718,4.5-.718,4.5l16.541.486c1.151-.026,1.733-.874.8-1.6a13.512,13.512,0,0,0-1.8-1.072C1056.577,1845.638,1050.958,1844.259,1050.958,1844.259Z" transform="translate(-744.853 -1432.095)" fill="#184655"/>
      <path id="Trazado_104751" data-name="Trazado 104751" d="M1054.42,1560.7c1.137-2.392,3.723-5.507,8.272-3.631,4.339,1.789,5.5,6.187,4.135,10.69s-10.382,30.976-10.7,34.616l-7.2.048s1.308-20.961,1.629-26.028A49.066,49.066,0,0,1,1054.42,1560.7Z" transform="translate(-750.344 -1192.891)" fill="#3c8f7c"/>
      <path id="Trazado_104752" data-name="Trazado 104752" d="M918.876,1436.234H894.821a1.568,1.568,0,0,0-1.451.977l-7.407,18.126H872.7a.672.672,0,0,0-.672.673h0a.672.672,0,0,0,.672.673h37.744a2.634,2.634,0,0,0,2.4-1.561l7.458-16.67A1.573,1.573,0,0,0,918.876,1436.234Z" transform="translate(-603.118 -1092.804)"/>
      <path id="Trazado_104753" data-name="Trazado 104753" d="M1061.136,1490.443a1.324,1.324,0,1,1-.992-1.732A1.416,1.416,0,0,1,1061.136,1490.443Z" transform="translate(-758.329 -1136.458)" fill="#fff"/>
      <g id="Grupo_59279" data-name="Grupo 59279" transform="translate(276.324 299.824)">
        <path id="Trazado_104754" data-name="Trazado 104754" d="M929.6,1178.159a18.457,18.457,0,0,1-2.128-.852,10.683,10.683,0,0,0-2.426-.914c-1.343-.207-3.649-.069-4.922,1.313-1.587,1.721-4.406.311-3.838,9.326.643,10.2,6.317,9.084,6.454,8.911s5.06-6.528,5.06-6.528,1.721,3.765,1.721,3.627S938.308,1181.092,929.6,1178.159Z" transform="translate(-916.211 -1176.316)" fill="#0e2e35"/>
        <path id="Trazado_104755" data-name="Trazado 104755" d="M941.439,1269.309l.49,3.646s1.1,5.253-.314,6.266-6-6.415-6-6.415l.485-9.239Z" transform="translate(-932.357 -1248.929)" fill="#f7a491"/>
        <path id="Trazado_104756" data-name="Trazado 104756" d="M937.569,1266.56a10.461,10.461,0,0,0,5.914,5.84l-.415-3.091-5.342-5.743Z" transform="translate(-933.986 -1248.928)" fill="#f47458"/>
        <path id="Trazado_104757" data-name="Trazado 104757" d="M938.037,1203.333a4.862,4.862,0,0,1,5.6,4.917,36.927,36.927,0,0,1-.41,4.677c-.65,4.209-3.522,7.915-5.421,7.584s-6.676-3.962-5.835-9.951C932.49,1206.862,934.9,1203.84,938.037,1203.333Z" transform="translate(-929.245 -1198.749)" fill="#f7a491"/>
        <path id="Trazado_104758" data-name="Trazado 104758" d="M926.61,1241.4a1.415,1.415,0,1,1-1.076-1.914A1.566,1.566,0,0,1,926.61,1241.4Z" transform="translate(-922.566 -1228.87)" fill="#f7a491"/>
        <path id="Trazado_104759" data-name="Trazado 104759" d="M930.306,1202.431s2.3.571,3.148-.906,3.9-4.663,7.771-3.342-3.408-3.212-3.718-3.212-4.027-.026-4.027-.026-2.866,2.358-2.969,2.617-.929,3.083-.929,3.083Z" transform="translate(-927.338 -1191.82)" fill="#0e2e35"/>
      </g>
      <path id="Trazado_104760" data-name="Trazado 104760" d="M958.858,1276.287l4.177.8a1.859,1.859,0,0,1-2.246,1.275C958.537,1278,958.858,1276.287,958.858,1276.287Z" transform="translate(-675.366 -959.691)" fill="#fff"/>
      <path id="Trazado_104761" data-name="Trazado 104761" d="M701.566,998.917l4.177.8a1.859,1.859,0,0,1-2.246,1.276C701.245,1000.628,701.566,998.917,701.566,998.917Z" transform="translate(-461.239 -728.854)" fill="#fff"/>
      <path id="Trazado_104762" data-name="Trazado 104762" d="M2483.391,1763.026a65.788,65.788,0,0,0-10.788,1.931,129.883,129.883,0,0,0-18.78,6.868c-3,1.31-6.029,2.6-8.976,4.038a32.346,32.346,0,0,0-4.034,2.2,44.759,44.759,0,0,0-4.706,3.85l1.4.042a46.6,46.6,0,0,1,9.366-6.108c11.579-5.578,23.608-11.3,36.523-12.719A.053.053,0,0,0,2483.391,1763.026Z" transform="translate(-1904.796 -1364.771)" fill="#3c8f7c"/>
    </g>
  </g>
</svg>
