<svg xmlns="http://www.w3.org/2000/svg" width="342.915" height="345.88" viewBox="0 0 342.915 345.88">
  <g id="Grupo_59384" data-name="Grupo 59384" transform="translate(304.364 -36.244)">
    <g id="Grupo_59375" data-name="Grupo 59375" transform="translate(-304.364 36.244)" opacity="0.39">
      <path id="Trazado_104851" data-name="Trazado 104851" d="M9.2,200.045A153.283,153.283,0,0,1-144.077,353.33,153.285,153.285,0,0,1-297.364,200.045,153.287,153.287,0,0,1-144.077,46.763,153.285,153.285,0,0,1,9.2,200.045Z" transform="translate(312.676 -23.753)" fill="#b69eef"/>
      <path id="Trazado_104852" data-name="Trazado 104852" d="M-196.315,57.776a14.478,14.478,0,0,1-14.479,14.483,14.48,14.48,0,0,1-14.481-14.483A14.48,14.48,0,0,1-210.793,43.3,14.478,14.478,0,0,1-196.315,57.776Z" transform="translate(398.278 -27.865)" fill="#b69eef"/>
      <path id="Trazado_104853" data-name="Trazado 104853" d="M-197.6,59.121a6.934,6.934,0,0,1-6.932,6.932,6.934,6.934,0,0,1-6.932-6.932,6.935,6.935,0,0,1,6.932-6.936A6.935,6.935,0,0,1-197.6,59.121Z" transform="translate(414.676 -17.315)" fill="#b69eef"/>
      <path id="Trazado_104854" data-name="Trazado 104854" d="M-135.847,133.762a18.287,18.287,0,0,1-18.287,18.287,18.285,18.285,0,0,1-18.285-18.287,18.284,18.284,0,0,1,18.285-18.283A18.286,18.286,0,0,1-135.847,133.762Z" transform="translate(461.04 57.842)" fill="#b69eef"/>
      <path id="Trazado_104855" data-name="Trazado 104855" d="M-133.567,113.921a12.922,12.922,0,0,1-12.923,12.923,12.923,12.923,0,0,1-12.923-12.923A12.926,12.926,0,0,1-146.491,101,12.924,12.924,0,0,1-133.567,113.921Z" transform="translate(476.483 40.647)" fill="#b69eef"/>
      <path id="Trazado_104856" data-name="Trazado 104856" d="M-263.122,98.59a20.624,20.624,0,0,1-20.621,20.625A20.626,20.626,0,0,1-304.364,98.59a20.622,20.622,0,0,1,20.621-20.621A20.621,20.621,0,0,1-263.122,98.59Z" transform="translate(304.364 13.302)" fill="#b69eef"/>
      <path id="Trazado_104857" data-name="Trazado 104857" d="M-211.957,191.777a17.693,17.693,0,0,1-17.7,17.7,17.694,17.694,0,0,1-17.692-17.7,17.7,17.7,0,0,1,17.692-17.694A17.694,17.694,0,0,1-211.957,191.777Z" transform="translate(372.07 127.431)" fill="#b69eef"/>
      <path id="Trazado_104858" data-name="Trazado 104858" d="M-269.1,73.246A13.16,13.16,0,0,1-282.26,86.4a13.158,13.158,0,0,1-13.157-13.155,13.161,13.161,0,0,1,13.157-13.16A13.162,13.162,0,0,1-269.1,73.246Z" transform="translate(314.988 -7.933)" fill="#b69eef"/>
      <path id="Trazado_104859" data-name="Trazado 104859" d="M-232.03,45.059a8.818,8.818,0,0,1-8.818,8.815,8.812,8.812,0,0,1-8.818-8.815,8.815,8.815,0,0,1,8.818-8.815A8.821,8.821,0,0,1-232.03,45.059Z" transform="translate(369.315 -36.244)" fill="#b69eef"/>
      <path id="Trazado_104860" data-name="Trazado 104860" d="M-170.424,44.743a6.568,6.568,0,0,1-6.567,6.567,6.566,6.566,0,0,1-6.569-6.567,6.568,6.568,0,0,1,6.569-6.569A6.57,6.57,0,0,1-170.424,44.743Z" transform="translate(447.811 -33.952)" fill="#b69eef"/>
      <path id="Trazado_104861" data-name="Trazado 104861" d="M-260.222,53.48a6.566,6.566,0,0,1-6.569,6.569,6.567,6.567,0,0,1-6.567-6.569,6.567,6.567,0,0,1,6.567-6.562A6.566,6.566,0,0,1-260.222,53.48Z" transform="translate(341.182 -23.569)" fill="#b69eef"/>
      <path id="Trazado_104862" data-name="Trazado 104862" d="M-172.217,51.583a13.408,13.408,0,0,1-13.4,13.409,13.409,13.409,0,0,1-13.409-13.409,13.409,13.409,0,0,1,13.409-13.409A13.408,13.408,0,0,1-172.217,51.583Z" transform="translate(429.44 -33.952)" fill="#b69eef"/>
      <path id="Trazado_104863" data-name="Trazado 104863" d="M-225.975,67.985a19.443,19.443,0,0,1-19.44,19.44,19.443,19.443,0,0,1-19.44-19.44,19.442,19.442,0,0,1,19.44-19.442A19.442,19.442,0,0,1-225.975,67.985Z" transform="translate(351.28 -21.64)" fill="#b69eef"/>
      <path id="Trazado_104864" data-name="Trazado 104864" d="M-245.3,195.134a8.973,8.973,0,0,1-8.971,8.975,8.976,8.976,0,0,1-8.977-8.975,8.976,8.976,0,0,1,8.977-8.975A8.973,8.973,0,0,1-245.3,195.134Z" transform="translate(353.183 141.77)" fill="#b69eef"/>
      <path id="Trazado_104865" data-name="Trazado 104865" d="M-172.692,195.9a17.949,17.949,0,0,1-17.95,17.95A17.948,17.948,0,0,1-208.59,195.9a17.946,17.946,0,0,1,17.948-17.946A17.946,17.946,0,0,1-172.692,195.9Z" transform="translate(418.089 132.028)" fill="#b69eef"/>
      <path id="Trazado_104866" data-name="Trazado 104866" d="M-167.579,189.634a9.958,9.958,0,0,1-9.955,9.955,9.958,9.958,0,0,1-9.955-9.955,9.957,9.957,0,0,1,9.955-9.957A9.957,9.957,0,0,1-167.579,189.634Z" transform="translate(443.145 134.073)" fill="#b69eef"/>
      <path id="Trazado_104867" data-name="Trazado 104867" d="M-261.054,173.481a8.567,8.567,0,0,1-8.566,8.566,8.57,8.57,0,0,1-8.57-8.566,8.57,8.57,0,0,1,8.57-8.57A8.566,8.566,0,0,1-261.054,173.481Z" transform="translate(335.444 116.54)" fill="#b69eef"/>
      <path id="Trazado_104868" data-name="Trazado 104868" d="M-265.036,170.537a14.456,14.456,0,0,1-14.455,14.457,14.456,14.456,0,0,1-14.455-14.457,14.456,14.456,0,0,1,14.455-14.455A14.456,14.456,0,0,1-265.036,170.537Z" transform="translate(316.736 106.056)" fill="#b69eef"/>
      <path id="Trazado_104869" data-name="Trazado 104869" d="M-278.627,179.4a8.024,8.024,0,0,1-8.021,8.024,8.025,8.025,0,0,1-8.026-8.024,8.022,8.022,0,0,1,8.026-8.026A8.021,8.021,0,0,1-278.627,179.4Z" transform="translate(315.87 124.212)" fill="#b69eef"/>
      <path id="Trazado_104870" data-name="Trazado 104870" d="M-145.337,155.114a7.7,7.7,0,0,1-7.7,7.7,7.7,7.7,0,0,1-7.7-7.7,7.7,7.7,0,0,1,7.7-7.7A7.7,7.7,0,0,1-145.337,155.114Z" transform="translate(474.915 95.763)" fill="#b69eef"/>
    </g>
    <g id="Grupo_59376" data-name="Grupo 59376" transform="translate(-179.766 41.649)">
      <rect id="Rectángulo_5795" data-name="Rectángulo 5795" width="13.034" height="36.086" transform="translate(39.942 111.379)" fill="#7ec7cc"/>
      <rect id="Rectángulo_5796" data-name="Rectángulo 5796" width="82.352" height="6.38" transform="translate(5.681 57.268)" fill="#84cad2"/>
      <path id="Trazado_104871" data-name="Trazado 104871" d="M-159.37,64.9V76.254a41.23,41.23,0,0,1-41.174,41.176,40.9,40.9,0,0,1-29.117-12.062,40.912,40.912,0,0,1-11.587-22.811,42.2,42.2,0,0,1-.475-6.3V64.9H-247.4V76.254a46.269,46.269,0,0,0,.549,7.155,46.447,46.447,0,0,0,13.177,25.974,46.5,46.5,0,0,0,33.133,13.726,46.9,46.9,0,0,0,46.853-46.855V64.9Z" transform="translate(247.403 -7.628)" fill="#84cad2"/>
      <path id="Trazado_104872" data-name="Trazado 104872" d="M-241.724,71.276v4.979a42.2,42.2,0,0,0,.477,6.3,40.87,40.87,0,0,0,11.587,22.811,40.888,40.888,0,0,0,29.113,12.062v5.679a46.485,46.485,0,0,1-33.129-13.726,46.447,46.447,0,0,1-13.177-25.974,46.269,46.269,0,0,1-.549-7.155V64.9h46.855v6.381Z" transform="translate(247.403 -7.628)" fill="#86acc3" opacity="0.59" style="mix-blend-mode: multiply;isolation: isolate"/>
      <path id="Trazado_104873" data-name="Trazado 104873" d="M-173.112,85.57V95.982h1.894v6.381h-1.894v4.979a33.786,33.786,0,0,1-.435,5.431h1.912a35.485,35.485,0,0,1-35.076,30.064,35.381,35.381,0,0,1-25.1-10.395,35.409,35.409,0,0,1-9.979-19.669h1.932c-.02-.094-.035-.188-.057-.28a32.518,32.518,0,0,1-.4-5.151v-4.979h-1.894V95.982h1.894V85.57h-1.894V79.189h1.894V74.211a32.081,32.081,0,0,1,.4-5.13c.022-.094.037-.208.057-.3h-1.932a35.489,35.489,0,0,1,35.082-30.062,35.391,35.391,0,0,1,25.1,10.395,35.331,35.331,0,0,1,9.955,19.667h-1.892a34.181,34.181,0,0,1,.435,5.434v4.979h1.894V85.57Z" transform="translate(253.571 -38.715)" fill="#fff"/>
      <path id="Trazado_104874" data-name="Trazado 104874" d="M-192.382,85.57V95.982h1.894v6.381h-1.894v4.979a33.786,33.786,0,0,1-.435,5.431h1.912a35.485,35.485,0,0,1-35.076,30.064V38.715a35.391,35.391,0,0,1,25.1,10.395,35.331,35.331,0,0,1,9.955,19.667h-1.892a34.181,34.181,0,0,1,.435,5.434v4.979h1.894V85.57Z" transform="translate(272.84 -38.715)" fill="#8aaec4" opacity="0.55" style="mix-blend-mode: multiply;isolation: isolate"/>
      <path id="Trazado_104875" data-name="Trazado 104875" d="M-221.79,67.812v10.41h-19.1c-.02-.094-.035-.188-.057-.28a32.518,32.518,0,0,1-.4-5.151V67.812Z" transform="translate(254.599 -4.164)" fill="#cdcbd5" style="mix-blend-mode: multiply;isolation: isolate"/>
      <rect id="Rectángulo_5797" data-name="Rectángulo 5797" width="19.555" height="10.413" transform="translate(13.255 46.855)" fill="#cdcbd5" style="mix-blend-mode: multiply;isolation: isolate"/>
      <path id="Trazado_104876" data-name="Trazado 104876" d="M-221.79,52.458V62.87h-19.553V57.892a32.081,32.081,0,0,1,.4-5.13c.022-.094.037-.208.057-.3Z" transform="translate(254.599 -22.396)" fill="#cdcbd5" style="mix-blend-mode: multiply;isolation: isolate"/>
      <path id="Trazado_104877" data-name="Trazado 104877" d="M-219.56,67.812h19.553v4.979a33.786,33.786,0,0,1-.435,5.431H-219.56Z" transform="translate(280.465 -4.164)" fill="#cdcbd5" style="mix-blend-mode: multiply;isolation: isolate"/>
      <path id="Trazado_104878" data-name="Trazado 104878" d="M-200.442,52.458a34.181,34.181,0,0,1,.435,5.434V62.87H-219.56V52.458Z" transform="translate(280.465 -22.396)" fill="#cdcbd5" style="mix-blend-mode: multiply;isolation: isolate"/>
      <rect id="Rectángulo_5798" data-name="Rectángulo 5798" width="19.552" height="10.413" transform="translate(60.905 46.855)" fill="#cdcbd5" style="mix-blend-mode: multiply;isolation: isolate"/>
      <rect id="Rectángulo_5799" data-name="Rectángulo 5799" width="47.648" height="5.207" transform="translate(22.635 147.466)" fill="#84cad2"/>
      <rect id="Rectángulo_5800" data-name="Rectángulo 5800" width="75.447" height="8.243" transform="translate(8.736 152.673)" fill="#84cad2"/>
    </g>
    <g id="Grupo_59377" data-name="Grupo 59377" transform="translate(-291.465 123.658)">
      <path id="Trazado_104879" data-name="Trazado 104879" d="M-159.589,76.206v3.4h-10v-3.4H-284.03v3.4h-10.056v-3.4h-4.381V262.6h4.381v-2.642h10.056V262.6h114.442v-2.642h10V262.6h3.9V76.206ZM-284.03,254.316h-10.027v-8.958h10.027Zm0-14.573h-10.027v-8.958h10.027Zm0-14.6h-10.027v-8.962h10.027Zm0-14.605h-10.027v-8.958h10.027Zm0-14.577h-10.027V187h10.027Zm0-14.6h-10.027v-8.962h10.027Zm0-14.577h-10.027v-8.988h10.027Zm0-14.6h-10.027v-8.958h10.027Zm0-14.608h-10.027V128.61h10.027Zm0-14.6h-10.027v-8.958h10.027Zm0-14.575h-10.027V99.4h10.027Zm0-14.605h-10.027V84.829h10.027Zm124.467,160.529h-10.025v-8.958h10.025Zm0-14.573h-10.025v-8.958h10.025Zm0-14.6h-10.025v-8.962h10.025Zm0-14.605h-10.025v-8.958h10.025Zm0-14.577h-10.025V187h10.025Zm0-14.6h-10.025v-8.962h10.025Zm0-14.577h-10.025v-8.988h10.025Zm0-14.6h-10.025v-8.958h10.025Zm0-14.608h-10.025V128.61h10.025Zm0-14.6h-10.025v-8.958h10.025Zm0-14.575h-10.025V99.4h10.025Zm0-14.605h-10.025V84.829h10.025Z" transform="translate(298.467 -76.206)" fill="#4d3742"/>
      <path id="Rectángulo_5801" data-name="Rectángulo 5801" d="M2.573,0H102.931A2.572,2.572,0,0,1,105.5,2.572v75.4a2.573,2.573,0,0,1-2.573,2.573H2.572A2.572,2.572,0,0,1,0,77.968V2.573A2.573,2.573,0,0,1,2.573,0Z" transform="translate(18.647 52.926)" fill="#7ec7cc"/>
      <path id="Trazado_104880" data-name="Trazado 104880" d="M-184.434,76.206v32.186a5.645,5.645,0,0,1-5.626,5.628h-94.252a5.629,5.629,0,0,1-5.624-5.628V76.206Z" transform="translate(308.597 -76.206)" fill="#7ec7cc"/>
      <path id="Trazado_104881" data-name="Trazado 104881" d="M-184.434,149.849V181.73h-105.5V149.936a5.606,5.606,0,0,1,5.624-5.626h94.252a5.54,5.54,0,0,1,3.83,1.492,6.041,6.041,0,0,1,1.547,2.474,4.467,4.467,0,0,1,.223,1.1A2.946,2.946,0,0,1-184.434,149.849Z" transform="translate(308.597 4.663)" fill="#7ec7cc"/>
      <path id="Trazado_104882" data-name="Trazado 104882" d="M-185.22,105.187V174.48a5.644,5.644,0,0,1-5.626,5.63H-285.1a5.568,5.568,0,0,1-4.187-1.888l102.3-77.116A5.537,5.537,0,0,1-185.22,105.187Z" transform="translate(309.37 -46.638)" fill="#f6cdde" opacity="0.5" style="mix-blend-mode: multiply;isolation: isolate"/>
      <path id="Trazado_104883" data-name="Trazado 104883" d="M-241.63,76.206l-47.662,35.926a5.739,5.739,0,0,0,1.354,1.1c.138.083.276.162.442.247a5.575,5.575,0,0,0,1.216.394,1.287,1.287,0,0,0,.477.088,6.8,6.8,0,0,0,.726.055h94.252a5.645,5.645,0,0,0,5.626-5.628V76.206Z" transform="translate(309.362 -76.206)" fill="#f6cdde" opacity="0.5" style="mix-blend-mode: multiply;isolation: isolate"/>
      <path id="Trazado_104884" data-name="Trazado 104884" d="M-214.843,149.053v31.882h-49.484l47.688-35.929.026-.026a5.614,5.614,0,0,1,1.52,2.5,4.467,4.467,0,0,1,.223,1.1A2.946,2.946,0,0,1-214.843,149.053Z" transform="translate(339.006 5.459)" fill="#f6cdde" opacity="0.5" style="mix-blend-mode: multiply;isolation: isolate"/>
      <path id="Trazado_104885" data-name="Trazado 104885" d="M-223.481,116.949a31.664,31.664,0,0,0-25.333-12.639,31.7,31.7,0,0,0-31.678,31.707,31.551,31.551,0,0,0,6.376,19.1,31.644,31.644,0,0,0,25.3,12.637,31.714,31.714,0,0,0,31.707-31.737A31.539,31.539,0,0,0-223.481,116.949Zm-25.333,46.592a27.382,27.382,0,0,1-21.962-10.955,27.368,27.368,0,0,1-5.56-16.57,27.531,27.531,0,0,1,27.522-27.52A27.3,27.3,0,0,1-226.85,119.48a27.294,27.294,0,0,1,5.558,16.537A27.5,27.5,0,0,1-248.814,163.541Z" transform="translate(319.811 -42.834)" fill="#fff"/>
      <path id="Trazado_104886" data-name="Trazado 104886" d="M-241.348,128.026l-14.706,8.491-14.708,8.49V111.049l14.708,8.486Z" transform="translate(331.365 -34.832)" fill="#fff"/>
    </g>
    <g id="Grupo_59381" data-name="Grupo 59381" transform="translate(-119.648 130.286)">
      <g id="Grupo_59378" data-name="Grupo 59378" transform="translate(10.334 47.646)">
        <rect id="Rectángulo_5802" data-name="Rectángulo 5802" width="138.947" height="28.863" fill="#fff"/>
        <path id="Trazado_104887" data-name="Trazado 104887" d="M-177.138,104.438l-11.1,13.019H-203.96l11.1-13.019Z" transform="translate(228.537 -96.956)" fill="#634755"/>
        <path id="Trazado_104888" data-name="Trazado 104888" d="M-162.717,104.438l-11.1,13.019H-189.57l11.1-13.019Z" transform="translate(245.625 -96.956)" fill="#634755"/>
        <path id="Trazado_104889" data-name="Trazado 104889" d="M-148.344,104.438l-11.1,13.019h-15.723l11.094-13.019Z" transform="translate(262.731 -96.956)" fill="#634755"/>
        <path id="Trazado_104890" data-name="Trazado 104890" d="M-200.062,104.438l-11.1,13.019V104.438Z" transform="translate(219.985 -96.956)" fill="#634755"/>
        <path id="Trazado_104891" data-name="Trazado 104891" d="M-149.444,104.438v13.019H-160.6l11.1-13.019Z" transform="translate(280.028 -96.956)" fill="#634755"/>
      </g>
      <g id="Grupo_59379" data-name="Grupo 59379" transform="translate(6.4)">
        <rect id="Rectángulo_5803" data-name="Rectángulo 5803" width="138.949" height="28.86" transform="translate(0 19.059) rotate(-7.884)" fill="#fff"/>
        <path id="Trazado_104892" data-name="Trazado 104892" d="M-176.882,87.016-164.1,98.393l15.573-2.157L-161.3,84.86Z" transform="translate(264.625 -72.557)" fill="#634755"/>
        <path id="Trazado_104893" data-name="Trazado 104893" d="M-191.151,88.994l12.78,11.375,15.6-2.161-12.777-11.374Z" transform="translate(247.682 -70.213)" fill="#634755"/>
        <path id="Trazado_104894" data-name="Trazado 104894" d="M-205.4,90.966l12.777,11.376,15.577-2.156L-189.831,88.81Z" transform="translate(230.757 -67.868)" fill="#634755"/>
        <path id="Trazado_104895" data-name="Trazado 104895" d="M-162.628,84.7l12.777,11.378-1.78-12.9Z" transform="translate(281.551 -74.556)" fill="#634755"/>
        <path id="Trazado_104896" data-name="Trazado 104896" d="M-212.741,90.816l1.788,12.9,11.046-1.529-12.779-11.374Z" transform="translate(222.044 -65.494)" fill="#634755"/>
      </g>
      <path id="Trazado_104897" data-name="Trazado 104897" d="M-199.258,106.626a10.335,10.335,0,0,1-10.329,10.331,10.333,10.333,0,0,1-10.333-10.331A10.332,10.332,0,0,1-209.587,96.3,10.333,10.333,0,0,1-199.258,106.626Z" transform="translate(219.92 -58.979)" fill="#634755"/>
      <rect id="Rectángulo_5804" data-name="Rectángulo 5804" width="138.947" height="62.27" transform="translate(10.334 76.509)" fill="#f7a119"/>
      <g id="Grupo_59380" data-name="Grupo 59380" transform="translate(39.553 92.309)">
        <rect id="Rectángulo_5805" data-name="Rectángulo 5805" width="75.285" height="2.789" fill="#f2f2f2"/>
        <rect id="Rectángulo_5806" data-name="Rectángulo 5806" width="75.285" height="2.789" transform="translate(0 13.94)" fill="#f2f2f2"/>
        <rect id="Rectángulo_5807" data-name="Rectángulo 5807" width="75.285" height="2.787" transform="translate(0 27.882)" fill="#f2f2f2"/>
      </g>
      <path id="Trazado_104898" data-name="Trazado 104898" d="M-76.261,114.258v62.261H-215.193Z" transform="translate(225.534 -37.65)" fill="#f5e1d3" style="mix-blend-mode: multiply;isolation: isolate"/>
    </g>
    <g id="Grupo_59382" data-name="Grupo 59382" transform="translate(-201.585 251.501)">
      <path id="Trazado_104899" data-name="Trazado 104899" d="M-151.71,181.826a34.185,34.185,0,0,1-34.185,34.183h-37.3a34.184,34.184,0,0,1-34.187-34.183h0a34.185,34.185,0,0,1,34.187-34.185h37.3a34.186,34.186,0,0,1,34.185,34.185Z" transform="translate(257.378 -119.224)" fill="#4d3742"/>
      <path id="Trazado_104900" data-name="Trazado 104900" d="M-123.855,197.252a62.6,62.6,0,0,1-62.6,62.6,62.6,62.6,0,0,1-62.6-62.6,62.6,62.6,0,0,1,62.6-62.6A62.6,62.6,0,0,1-123.855,197.252Z" transform="translate(267.261 -134.65)" fill="#56b9c5"/>
      <path id="Trazado_104901" data-name="Trazado 104901" d="M-134.94,193.351a55.416,55.416,0,0,1-55.416,55.414,55.41,55.41,0,0,1-55.412-55.414,55.412,55.412,0,0,1,55.412-55.416A55.418,55.418,0,0,1-134.94,193.351Z" transform="translate(271.163 -130.749)" fill="#fff"/>
      <path id="Trazado_104902" data-name="Trazado 104902" d="M-143.75,184.551a55.413,55.413,0,0,1-55.408,55.425,55.172,55.172,0,0,1-39.179-16.231v-.02l78.354-78.354A55.223,55.223,0,0,1-143.75,184.551Z" transform="translate(279.988 -121.918)" fill="#c6d9dc" style="mix-blend-mode: multiply;isolation: isolate"/>
      <path id="Trazado_104903" data-name="Trazado 104903" d="M-187.075,175.008A21.624,21.624,0,0,1-208.7,196.631a21.622,21.622,0,0,1-21.621-21.623A21.622,21.622,0,0,1-208.7,153.383,21.625,21.625,0,0,1-187.075,175.008Z" transform="translate(289.506 -112.406)" fill="#f7a119"/>
      <path id="Trazado_104904" data-name="Trazado 104904" d="M-210.876,164.731a7.555,7.555,0,0,1-7.56,7.555,7.558,7.558,0,0,1-7.56-7.555,7.562,7.562,0,0,1,7.56-7.562A7.559,7.559,0,0,1-210.876,164.731Z" transform="translate(294.642 -107.91)" fill="#fff"/>
      <path id="Trazado_104905" data-name="Trazado 104905" d="M-142.184,153.008l-5.081,5.079a55.164,55.164,0,0,0-39.175-16.233,55.415,55.415,0,0,0-55.412,55.412,55.2,55.2,0,0,0,16.233,39.175v.02l-5.1,5.079a62.519,62.519,0,0,1-18.331-44.274,62.61,62.61,0,0,1,62.607-62.6A62.368,62.368,0,0,1-142.184,153.008Z" transform="translate(267.271 -134.633)" fill="#aeddd9" style="mix-blend-mode: multiply;isolation: isolate"/>
      <path id="Trazado_104906" data-name="Trazado 104906" d="M-202.589,150.249l-8.343,8.343a28.4,28.4,0,0,1,8.319,20.142,28.359,28.359,0,0,1-8.319,20.124l8.343,8.339a40.085,40.085,0,0,0,11.8-28.463A40.14,40.14,0,0,0-202.589,150.249Zm0,0-8.343,8.343a28.4,28.4,0,0,1,8.319,20.142,28.359,28.359,0,0,1-8.319,20.124l8.343,8.339a40.085,40.085,0,0,0,11.8-28.463A40.14,40.14,0,0,0-202.589,150.249Zm0,0-8.343,8.343a28.4,28.4,0,0,1,8.319,20.142,28.359,28.359,0,0,1-8.319,20.124l8.343,8.339a40.085,40.085,0,0,0,11.8-28.463A40.14,40.14,0,0,0-202.589,150.249Zm0,0-8.343,8.343a28.4,28.4,0,0,1,8.319,20.142,28.359,28.359,0,0,1-8.319,20.124l8.343,8.339a40.085,40.085,0,0,0,11.8-28.463A40.14,40.14,0,0,0-202.589,150.249Zm0,0-8.343,8.343a28.4,28.4,0,0,1,8.319,20.142,28.359,28.359,0,0,1-8.319,20.124l8.343,8.339a40.085,40.085,0,0,0,11.8-28.463A40.14,40.14,0,0,0-202.589,150.249Zm0,0-8.343,8.343a28.4,28.4,0,0,1,8.319,20.142,28.359,28.359,0,0,1-8.319,20.124l8.343,8.339a40.085,40.085,0,0,0,11.8-28.463A40.14,40.14,0,0,0-202.589,150.249Zm0,0-8.343,8.343a28.4,28.4,0,0,1,8.319,20.142,28.359,28.359,0,0,1-8.319,20.124l8.343,8.339a40.085,40.085,0,0,0,11.8-28.463A40.14,40.14,0,0,0-202.589,150.249Zm0,0-8.343,8.343a28.4,28.4,0,0,1,8.319,20.142,28.359,28.359,0,0,1-8.319,20.124l8.343,8.339a40.085,40.085,0,0,0,11.8-28.463A40.14,40.14,0,0,0-202.589,150.249Zm0,0-8.343,8.343a28.4,28.4,0,0,1,8.319,20.142,28.359,28.359,0,0,1-8.319,20.124l8.343,8.339a40.085,40.085,0,0,0,11.8-28.463A40.14,40.14,0,0,0-202.589,150.249Zm0,0-8.343,8.343a28.4,28.4,0,0,1,8.319,20.142,28.359,28.359,0,0,1-8.319,20.124l8.343,8.339a40.085,40.085,0,0,0,11.8-28.463A40.14,40.14,0,0,0-202.589,150.249Zm0,0-8.343,8.343a28.4,28.4,0,0,1,8.319,20.142,28.359,28.359,0,0,1-8.319,20.124l8.343,8.339a40.085,40.085,0,0,0,11.8-28.463A40.14,40.14,0,0,0-202.589,150.249Zm0,0-8.343,8.343a28.4,28.4,0,0,1,8.319,20.142,28.359,28.359,0,0,1-8.319,20.124l8.343,8.339a40.085,40.085,0,0,0,11.8-28.463A40.14,40.14,0,0,0-202.589,150.249Zm0,0-8.343,8.343a28.4,28.4,0,0,1,8.319,20.142,28.359,28.359,0,0,1-8.319,20.124l8.343,8.339a40.085,40.085,0,0,0,11.8-28.463A40.14,40.14,0,0,0-202.589,150.249Zm0,0-8.343,8.343a28.4,28.4,0,0,1,8.319,20.142,28.359,28.359,0,0,1-8.319,20.124l8.343,8.339a40.085,40.085,0,0,0,11.8-28.463A40.14,40.14,0,0,0-202.589,150.249Zm0,0-8.343,8.343a28.4,28.4,0,0,1,8.319,20.142,28.359,28.359,0,0,1-8.319,20.124l8.343,8.339a40.085,40.085,0,0,0,11.8-28.463A40.14,40.14,0,0,0-202.589,150.249Zm0,0-8.343,8.343a28.4,28.4,0,0,1,8.319,20.142,28.359,28.359,0,0,1-8.319,20.124l8.343,8.339a40.085,40.085,0,0,0,11.8-28.463A40.14,40.14,0,0,0-202.589,150.249Zm0,0-8.343,8.343a28.4,28.4,0,0,1,8.319,20.142,28.359,28.359,0,0,1-8.319,20.124l8.343,8.339a40.085,40.085,0,0,0,11.8-28.463A40.14,40.14,0,0,0-202.589,150.249Zm0,0-8.343,8.343a28.4,28.4,0,0,1,8.319,20.142,28.359,28.359,0,0,1-8.319,20.124l8.343,8.339a40.085,40.085,0,0,0,11.8-28.463A40.14,40.14,0,0,0-202.589,150.249Zm0,0-8.343,8.343a28.4,28.4,0,0,1,8.319,20.142,28.359,28.359,0,0,1-8.319,20.124l8.343,8.339a40.085,40.085,0,0,0,11.8-28.463A40.14,40.14,0,0,0-202.589,150.249Zm0,0-8.343,8.343a28.4,28.4,0,0,1,8.319,20.142,28.359,28.359,0,0,1-8.319,20.124l8.343,8.339a40.085,40.085,0,0,0,11.8-28.463A40.14,40.14,0,0,0-202.589,150.249Zm0,0-8.343,8.343a28.4,28.4,0,0,1,8.319,20.142,28.359,28.359,0,0,1-8.319,20.124l8.343,8.339a40.085,40.085,0,0,0,11.8-28.463A40.14,40.14,0,0,0-202.589,150.249Zm0,0-8.343,8.343a28.4,28.4,0,0,1,8.319,20.142,28.359,28.359,0,0,1-8.319,20.124l8.343,8.339a40.085,40.085,0,0,0,11.8-28.463A40.14,40.14,0,0,0-202.589,150.249Zm0,0-8.343,8.343a28.4,28.4,0,0,1,8.319,20.142,28.359,28.359,0,0,1-8.319,20.124l8.343,8.339a40.085,40.085,0,0,0,11.8-28.463A40.14,40.14,0,0,0-202.589,150.249Z" transform="translate(312.53 -116.127)" fill="#fff"/>
      <path id="Trazado_104907" data-name="Trazado 104907" d="M-164.059,195.566a83.8,83.8,0,0,1-24.694,59.472l-7.739-7.739a72.957,72.957,0,0,0,21.459-51.733,72.981,72.981,0,0,0-21.459-51.728l7.739-7.763A83.891,83.891,0,0,1-164.059,195.566Z" transform="translate(329.676 -132.959)" fill="#fff"/>
      <path id="Trazado_104908" data-name="Trazado 104908" d="M-177.59,187.149a62.039,62.039,0,0,1-18.226,43.967l-7.765-7.739a51.028,51.028,0,0,0,15.036-36.228,50.992,50.992,0,0,0-15.036-36.226l7.765-7.761A62.167,62.167,0,0,1-177.59,187.149Z" transform="translate(321.258 -124.543)" fill="#fff" opacity="0.67"/>
      <path id="Trazado_104909" data-name="Trazado 104909" d="M-177.59,187.149a62.039,62.039,0,0,1-18.226,43.967l-7.765-7.739a51.028,51.028,0,0,0,15.036-36.228,50.992,50.992,0,0,0-15.036-36.226l7.765-7.761A62.167,62.167,0,0,1-177.59,187.149Z" transform="translate(321.258 -124.543)" fill="#fff"/>
    </g>
  </g>
</svg>
