<svg xmlns="http://www.w3.org/2000/svg" width="500" height="361.266" viewBox="0 0 500 361.266">
  <g id="Grupo_59576" data-name="Grupo 59576" transform="translate(-527.101 -78.025)">
    <g id="Grupo_59575" data-name="Grupo 59575" transform="translate(527.101 78.025)">
      <g id="Grupo_59531" data-name="Grupo 59531">
        <g id="Grupo_59524" data-name="Grupo 59524" transform="translate(382.516 219.283)">
          <g id="Grupo_59523" data-name="Grupo 59523" transform="translate(0 20.583)">
            <path id="Trazado_105248" data-name="Trazado 105248" d="M825.55,265.968a117.36,117.36,0,0,1,37.995,7.827,120.716,120.716,0,0,1,33.508,19.59,115.141,115.141,0,0,1,15.4,15.414c.451.547,1.284-.175.832-.723a118.329,118.329,0,0,0-29.562-25.555,121.583,121.583,0,0,0-36.2-14.772,116.574,116.574,0,0,0-21.881-2.881c-.707-.024-.8,1.073-.091,1.1Z" transform="translate(-825.062 -264.869)" fill="#f9e478"/>
          </g>
          <path id="Trazado_105249" data-name="Trazado 105249" d="M845.512,274.435c7.808-7.524,18.521-15.987,29.5-20.75,6.216-2.7,13.082-4.921,20.2-4.848,3.37.036,6.982.714,9.043,2.7,3.059,2.942,1.35,7.46-1.941,10.338-3.565,3.116-8.581,5.057-13.573,6.7-13.283,4.383-28.885,4.633-43.235,5.859" transform="translate(-819.259 -248.836)" fill="#f9e478"/>
          <path id="Trazado_105250" data-name="Trazado 105250" d="M871.172,282.229c7.133-4.564,16.634-9.4,25.774-11.365,5.172-1.112,10.772-1.761,16.214-.614,2.574.544,5.237,1.618,6.51,3.451,1.892,2.723-.109,5.919-3.072,7.618-3.207,1.84-7.344,2.557-11.422,3.053-10.843,1.32-22.828-.881-34-2.143" transform="translate(-811.977 -242.93)" fill="#f9e478"/>
          <path id="Trazado_105251" data-name="Trazado 105251" d="M874.684,281.435c10.411,3.031,23.082,8.117,32.676,15.276,5.43,4.052,10.775,8.9,14.252,15.118,1.646,2.94,2.854,6.412,2.158,9.185-1.031,4.117-5.8,4.882-9.934,3.457-4.475-1.543-8.654-4.928-12.567-8.442-10.409-9.343-18.385-22.755-26.586-34.594" transform="translate(-810.981 -239.585)" fill="#f9e478"/>
          <path id="Trazado_105252" data-name="Trazado 105252" d="M854.173,270.819c6.244,6.556,13.395,15.644,17.74,25.151,2.46,5.38,4.6,11.361,5.005,17.681.193,2.991-.091,6.228-1.469,8.153-2.048,2.858-5.6,1.564-8.012-1.214-2.609-3.009-4.414-7.363-5.994-11.711-4.2-11.566-5.406-25.392-7.271-38.06" transform="translate(-816.801 -242.597)" fill="#f9e478"/>
          <path id="Trazado_105253" data-name="Trazado 105253" d="M839.244,266.69a62.613,62.613,0,0,1,11.379,16.135,32.587,32.587,0,0,1,3.212,11.342c.123,1.918-.059,4-.942,5.23-1.313,1.833-3.594,1-5.14-.779a24.434,24.434,0,0,1-3.845-7.511c-2.7-7.42-3.467-16.29-4.664-24.416" transform="translate(-821.038 -243.769)" fill="#f9e478"/>
        </g>
        <g id="Grupo_59526" data-name="Grupo 59526" transform="translate(180.092 298.557)" opacity="0.09">
          <g id="Grupo_59525" data-name="Grupo 59525" transform="translate(17.574)">
            <path id="Trazado_105254" data-name="Trazado 105254" d="M729.779,310.759a74.16,74.16,0,0,1-15,19.377A76.285,76.285,0,0,1,694.348,343.7a72.764,72.764,0,0,1-13.024,4.447.348.348,0,0,0,.179.673,74.747,74.747,0,0,0,22.715-9.666,76.823,76.823,0,0,0,18.443-16.427,73.722,73.722,0,0,0,7.717-11.612c.211-.4-.386-.754-.6-.357Z" transform="translate(-681.074 -310.586)" fill="#4b0263"/>
          </g>
          <path id="Trazado_105255" data-name="Trazado 105255" d="M713.725,321.258c2.1,6.52,3.921,14.951,3.57,22.506a31.64,31.64,0,0,1-2.867,12.808c-.956,1.9-2.347,3.763-4.043,4.38-2.52.918-4.609-1.307-5.325-3.975-.777-2.889-.484-6.274-.031-9.564,1.207-8.754,5.4-17.675,8.7-26.156" transform="translate(-656.829 -307.558)" fill="#4b0263"/>
          <path id="Trazado_105256" data-name="Trazado 105256" d="M701.2,332.848c.606,5.315.709,12.051-.718,17.782A24.705,24.705,0,0,1,696.321,360a6.73,6.73,0,0,1-3.768,2.734c-2.069.317-3.328-1.707-3.467-3.86a19.52,19.52,0,0,1,1.443-7.328c2.266-6.518,6.846-12.706,10.669-18.7" transform="translate(-661.231 -304.269)" fill="#4b0263"/>
          <path id="Trazado_105257" data-name="Trazado 105257" d="M704.65,334.288c-4.614,5.063-11.021,10.838-17.75,14.291a31.619,31.619,0,0,1-12.537,3.882c-2.126.117-4.432-.163-5.812-1.329-2.049-1.729-1.157-4.647.8-6.6,2.12-2.111,5.2-3.539,8.282-4.783,8.194-3.307,18.02-4.1,27.016-5.465" transform="translate(-667.384 -303.861)" fill="#4b0263"/>
          <path id="Trazado_105258" data-name="Trazado 105258" d="M715.908,327.093a61.627,61.627,0,0,1-19.2,3.072,32.084,32.084,0,0,1-11.422-2.075c-1.75-.723-3.508-1.783-4.217-3.1-1.053-1.955.67-3.613,2.917-4.207a24.038,24.038,0,0,1,8.309-.145c7.731.829,15.909,3.991,23.614,6.455" transform="translate(-663.59 -307.815)" fill="#4b0263"/>
          <path id="Trazado_105259" data-name="Trazado 105259" d="M719.614,319.238a39.557,39.557,0,0,1-12.317,1.971,20.585,20.585,0,0,1-7.326-1.331,5.448,5.448,0,0,1-2.7-1.989c-.675-1.254.429-2.319,1.87-2.7a15.4,15.4,0,0,1,5.33-.094c4.958.533,10.2,2.561,15.147,4.141" transform="translate(-658.962 -309.359)" fill="#4b0263"/>
        </g>
        <g id="Grupo_59528" data-name="Grupo 59528" transform="translate(297.58)" opacity="0.09">
          <g id="Grupo_59527" data-name="Grupo 59527" transform="translate(0 19.532)">
            <path id="Trazado_105260" data-name="Trazado 105260" d="M759.553,133.838a74.118,74.118,0,0,1,13.947-20.15,76.294,76.294,0,0,1,19.676-14.634,72.807,72.807,0,0,1,12.769-5.136.348.348,0,0,0-.214-.662,74.778,74.778,0,0,0-22.167,10.863,76.852,76.852,0,0,0-17.542,17.389,73.683,73.683,0,0,0-7.085,12.006c-.19.406.426.732.616.325Z" transform="translate(-758.901 -93.239)" fill="#4b0263"/>
          </g>
          <path id="Trazado_105261" data-name="Trazado 105261" d="M767.2,122.814c-2.442-6.4-4.711-14.721-4.764-22.284a31.611,31.611,0,0,1,2.18-12.943c.854-1.95,2.141-3.882,3.8-4.59,2.468-1.051,4.672,1.06,5.529,3.686.931,2.842.818,6.238.541,9.549-.737,8.805-4.451,17.937-7.288,26.582" transform="translate(-757.899 -76.692)" fill="#4b0263"/>
          <path id="Trazado_105262" data-name="Trazado 105262" d="M778.894,108.386c-.89-5.275-1.352-12-.232-17.794a24.734,24.734,0,0,1,3.654-9.577,6.729,6.729,0,0,1,3.616-2.931c2.051-.426,3.415,1.528,3.669,3.67a19.492,19.492,0,0,1-1.05,7.395c-1.915,6.629-6.158,13.052-9.657,19.237" transform="translate(-753.48 -78.025)" fill="#4b0263"/>
          <path id="Trazado_105263" data-name="Trazado 105263" d="M780.721,104.514c4.337-5.3,10.427-11.41,16.963-15.217A31.628,31.628,0,0,1,810,84.751c2.116-.23,4.433-.073,5.873,1.017,2.139,1.618,1.4,4.579-.448,6.629-2,2.221-5.005,3.813-8.015,5.219-8.006,3.74-17.775,5.059-26.686,6.9" transform="translate(-752.709 -76.142)" fill="#4b0263"/>
          <path id="Trazado_105264" data-name="Trazado 105264" d="M769.476,110.332a61.635,61.635,0,0,1,19.009-4.093A32.119,32.119,0,0,1,800,107.7c1.786.628,3.6,1.593,4.375,2.871,1.157,1.9-.476,3.645-2.687,4.357a24.051,24.051,0,0,1-8.291.588c-7.763-.417-16.1-3.138-23.923-5.186" transform="translate(-755.9 -70.024)" fill="#4b0263"/>
          <path id="Trazado_105265" data-name="Trazado 105265" d="M763.384,117.663a39.554,39.554,0,0,1,12.193-2.625,20.624,20.624,0,0,1,7.388.938,5.458,5.458,0,0,1,2.806,1.842c.742,1.217-.306,2.338-1.724,2.795a15.418,15.418,0,0,1-5.317.377c-4.98-.267-10.327-2.013-15.346-3.328" transform="translate(-757.629 -67.525)" fill="#4b0263"/>
        </g>
        <g id="Grupo_59530" data-name="Grupo 59530" transform="translate(0 57.511)">
          <g id="Grupo_59529" data-name="Grupo 59529" transform="translate(25.485 22.038)">
            <path id="Trazado_105266" data-name="Trazado 105266" d="M633.765,155.836a105.972,105.972,0,0,1-34.934,2.579,109.007,109.007,0,0,1-33.942-8.745,103.959,103.959,0,0,1-17.177-9.59c-.526-.363-1.072.469-.544.833a106.878,106.878,0,0,0,31.985,14.9,109.782,109.782,0,0,0,35.087,3.9,105.281,105.281,0,0,0,19.716-2.9c.62-.153.43-1.13-.191-.977Z" transform="translate(-546.953 -139.99)" fill="#f9e478"/>
          </g>
          <path id="Trazado_105267" data-name="Trazado 105267" d="M606.975,154.637c-4.925,8.463-12.142,18.458-20.506,25.306-4.733,3.876-10.148,7.5-16.353,9.2-2.935.8-6.24,1.1-8.519-.11-3.384-1.8-3.014-6.145-.865-9.458,2.326-3.587,6.2-6.511,10.134-9.174,10.456-7.086,23.946-11.155,36.109-15.761" transform="translate(-518.024 -113.796)" fill="#f9e478"/>
          <path id="Trazado_105268" data-name="Trazado 105268" d="M580.61,151.7c-5.068,5.724-12.128,12.272-19.583,16.233-4.218,2.243-8.921,4.189-13.932,4.534-2.371.164-4.948-.112-6.507-1.389-2.315-1.9-1.366-5.17.788-7.377,2.331-2.389,5.749-4.034,9.167-5.47,9.093-3.823,20.046-4.869,30.066-6.532" transform="translate(-523.655 -114.629)" fill="#f9e478"/>
          <path id="Trazado_105269" data-name="Trazado 105269" d="M579.51,156.973c-9.791-.064-22.053-1.354-32.153-5.2-5.717-2.179-11.557-5.072-16.111-9.613-2.154-2.148-4.061-4.866-4.141-7.445-.121-3.832,3.833-5.673,7.776-5.456,4.269.236,8.734,2.145,13,4.23,11.349,5.547,21.587,15.228,31.632,23.488" transform="translate(-527.101 -121.003)" fill="#f9e478"/>
          <path id="Trazado_105270" data-name="Trazado 105270" d="M595.3,164.131c-7.043-4.153-15.5-10.282-21.618-17.467a45.891,45.891,0,0,1-8.713-14.123c-.905-2.55-1.457-5.433-.736-7.445,1.072-2.987,4.48-2.742,7.259-.922,3.008,1.969,5.651,5.3,8.1,8.691,6.507,9.01,10.963,20.721,15.711,31.265" transform="translate(-516.657 -122.824)" fill="#f9e478"/>
          <path id="Trazado_105271" data-name="Trazado 105271" d="M606.8,160.758a56.532,56.532,0,0,1-13.867-11.2,29.438,29.438,0,0,1-5.588-9.06,7.793,7.793,0,0,1-.472-4.776c.688-1.917,2.874-1.759,4.656-.591a22.014,22.014,0,0,1,5.194,5.575c4.174,5.778,7.033,13.292,10.078,20.055" transform="translate(-510.2 -119.578)" fill="#f9e478"/>
        </g>
      </g>
      <g id="Grupo_59532" data-name="Grupo 59532" transform="translate(71.17 28.63)">
        <path id="Trazado_105272" data-name="Trazado 105272" d="M684.167,100.327,582.539,257.412l203.255-1.674Z" transform="translate(-582.539 -100.327)" fill="#4b0263" opacity="0.09"/>
        <circle id="Elipse_4385" data-name="Elipse 4385" cx="67.838" cy="67.838" r="67.838" transform="translate(42.374 149.352)" fill="#ffd96e" opacity="0.45"/>
        <rect id="Rectángulo_5875" data-name="Rectángulo 5875" width="187.993" height="175.036" transform="translate(173.933 65.01)" fill="#bb83ff" opacity="0.24"/>
      </g>
      <rect id="Rectángulo_5876" data-name="Rectángulo 5876" width="157.464" height="146.611" transform="translate(319.746 56.298)" fill="none" stroke="#02a2cb" stroke-miterlimit="10" stroke-width="1"/>
      <g id="Grupo_59533" data-name="Grupo 59533" transform="translate(75.282 270.546)">
        <rect id="Rectángulo_5877" data-name="Rectángulo 5877" width="29.11" height="29.11" fill="#1b1a1b"/>
        <rect id="Rectángulo_5878" data-name="Rectángulo 5878" width="29.11" height="29.11" transform="translate(29.11)" fill="#febb09"/>
        <rect id="Rectángulo_5879" data-name="Rectángulo 5879" width="29.11" height="29.11" transform="translate(58.22)" fill="#ff0b00"/>
        <rect id="Rectángulo_5880" data-name="Rectángulo 5880" width="29.11" height="29.11" transform="translate(87.331)" fill="#02a2cb"/>
      </g>
      <g id="Grupo_59535" data-name="Grupo 59535" transform="translate(325.105 245.82)">
        <path id="Trazado_105273" data-name="Trazado 105273" d="M836.024,300.514a25.235,25.235,0,1,1-25.235-25.235A25.236,25.236,0,0,1,836.024,300.514Z" transform="translate(-778.863 -267.869)" fill="none" stroke="#febb09" stroke-miterlimit="10" stroke-width="1"/>
        <g id="Grupo_59534" data-name="Grupo 59534">
          <line id="Línea_183" data-name="Línea 183" y2="65.291" transform="translate(32.646)" fill="none" stroke="#010305" stroke-miterlimit="10" stroke-width="3"/>
          <line id="Línea_184" data-name="Línea 184" x1="65.291" transform="translate(0 32.645)" fill="none" stroke="#010305" stroke-miterlimit="10" stroke-width="3"/>
        </g>
      </g>
      <g id="Grupo_59542" data-name="Grupo 59542" transform="translate(33.72 189.227)">
        <g id="Grupo_59536" data-name="Grupo 59536" transform="translate(4.595 5.068)">
          <path id="Trazado_105274" data-name="Trazado 105274" d="M573.943,263.362a17,17,0,1,1,16.995-16.995A17.015,17.015,0,0,1,573.943,263.362Zm0-33.147a16.152,16.152,0,1,0,16.151,16.152A16.17,16.17,0,0,0,573.943,230.214Z" transform="translate(-556.947 -229.371)" fill="#ff0b00"/>
        </g>
        <g id="Grupo_59541" data-name="Grupo 59541">
          <g id="Grupo_59538" data-name="Grupo 59538" transform="translate(21.413)">
            <g id="Grupo_59537" data-name="Grupo 59537">
              <path id="Trazado_105275" data-name="Trazado 105275" d="M570.052,226.047V267.18c0,.558-.012,1.117,0,1.675,0,.023,0,.047,0,.072a.646.646,0,0,0,1.291,0V227.793c0-.557.012-1.117,0-1.674,0-.024,0-.048,0-.072a.646.646,0,0,0-1.291,0Z" transform="translate(-570.047 -225.423)" fill="#010305"/>
            </g>
          </g>
          <g id="Grupo_59540" data-name="Grupo 59540" transform="translate(0 21.413)">
            <g id="Grupo_59539" data-name="Grupo 59539">
              <path id="Trazado_105276" data-name="Trazado 105276" d="M596.872,242.108H555.738c-.558,0-1.118-.012-1.675,0-.024,0-.047,0-.072,0a.645.645,0,0,0,0,1.29h41.134c.558,0,1.118.013,1.675,0h.072a.645.645,0,0,0,0-1.29Z" transform="translate(-553.367 -242.103)" fill="#010305"/>
            </g>
          </g>
        </g>
      </g>
      <path id="Trazado_105277" data-name="Trazado 105277" d="M847.074,112.381H887.38A5.611,5.611,0,0,1,892.9,117l2.971,16.524a19.424,19.424,0,0,0,19.117,15.987h0l-1.745-38.81a13.424,13.424,0,0,0-13.41-12.82H767.846a14.174,14.174,0,0,0-14.16,13.537l-1.713,38.092h0a19.428,19.428,0,0,0,19.121-15.989l3.117-17.339a4.616,4.616,0,0,1,4.543-3.8h41.13c.513,25.118.546,50.364.546,75.417v14.5c0,25.36-.032,50.487-.534,75.111l-18.386,1.969a12.912,12.912,0,0,0-11.537,12.839h87.02a12.912,12.912,0,0,0-11.537-12.839l-18.381-1.969c-.507-25.018-.539-50.162-.539-75.111V187.8C846.534,162.332,846.566,137.1,847.074,112.381Z" transform="translate(-463.287 -72.391)" fill="#f17781"/>
      <g id="Grupo_59543" data-name="Grupo 59543" transform="translate(76.201 52.254)">
        <path id="Trazado_105278" data-name="Trazado 105278" d="M675.476,283.163H609a.884.884,0,0,1-.874-1.021l3.849-24.993a.885.885,0,0,1,.874-.75h56.436a.884.884,0,0,1,.867.707l5.324,26.056Z" transform="translate(-580.312 -79.66)" fill="none" stroke="#4b0263" stroke-miterlimit="10" stroke-width="2"/>
        <path id="Trazado_105279" data-name="Trazado 105279" d="M706.968,207.5,653.9,119.736a1.587,1.587,0,0,0-2.944.822v78.277a7.854,7.854,0,1,1-4.132-.048v-78.47a1.586,1.586,0,0,0-2.919-.859L586.711,208.2a1.586,1.586,0,0,0-.135,1.461L617.844,285.9a1.586,1.586,0,0,0,1.467.985h55.721a1.586,1.586,0,0,0,1.474-1l30.578-76.973A1.584,1.584,0,0,0,706.968,207.5Z" transform="translate(-586.458 -118.729)" fill="none" stroke="#4b0263" stroke-miterlimit="10" stroke-width="2"/>
      </g>
      <g id="Grupo_59544" data-name="Grupo 59544" transform="translate(45.821 9.96)">
        <path id="Trazado_105280" data-name="Trazado 105280" d="M568.459,122.949s76.238-76.237,171.536,0" transform="translate(-561.185 -84.852)" fill="none" stroke="#4b0263" stroke-miterlimit="10" stroke-width="2"/>
        <path id="Trazado_105281" data-name="Trazado 105281" d="M572.756,118.079a4.982,4.982,0,1,1-4.981-4.981A4.982,4.982,0,0,1,572.756,118.079Z" transform="translate(-562.793 -78.032)" fill="#4b0263"/>
        <circle id="Elipse_4386" data-name="Elipse 4386" cx="4.981" cy="4.981" r="4.981" transform="translate(173.828 35.066)" fill="#4b0263"/>
        <rect id="Rectángulo_5881" data-name="Rectángulo 5881" width="8.429" height="8.429" transform="translate(88.828)" fill="#4b0263"/>
      </g>
      <g id="Grupo_59549" data-name="Grupo 59549" transform="translate(75.973 333.093)">
        <g id="Grupo_59545" data-name="Grupo 59545" transform="translate(2.615 3.71)">
          <path id="Trazado_105282" data-name="Trazado 105282" d="M589.321,340.378c30.5,24.4,57.735,23.129,75.214,17.765a82.227,82.227,0,0,0,31.034-17.706l1.136,1.136a83.92,83.92,0,0,1-31.634,18.086c-17.865,5.5-45.683,6.83-76.755-18.027Z" transform="translate(-588.317 -340.378)" fill="#02a2cb"/>
        </g>
        <g id="Grupo_59546" data-name="Grupo 59546" transform="translate(108.753)">
          <path id="Trazado_105283" data-name="Trazado 105283" d="M670.993,340.605a3.116,3.116,0,1,1,3.116,3.117A3.117,3.117,0,0,1,670.993,340.605Z" transform="translate(-670.993 -337.488)" fill="#02a2cb"/>
        </g>
        <g id="Grupo_59547" data-name="Grupo 59547">
          <path id="Trazado_105284" data-name="Trazado 105284" d="M586.28,340.605a3.117,3.117,0,1,1,3.117,3.117A3.117,3.117,0,0,1,586.28,340.605Z" transform="translate(-586.28 -337.488)" fill="#02a2cb"/>
        </g>
        <g id="Grupo_59548" data-name="Grupo 59548" transform="translate(54.139 22.899)">
          <rect id="Rectángulo_5882" data-name="Rectángulo 5882" width="5.273" height="5.273" transform="translate(5.273 5.273) rotate(180)" fill="#02a2cb"/>
        </g>
      </g>
      <g id="Grupo_59554" data-name="Grupo 59554" transform="translate(418.289 118.473)">
        <g id="Grupo_59550" data-name="Grupo 59550" transform="translate(2.675 1.265)">
          <path id="Trazado_105285" data-name="Trazado 105285" d="M927.125,186.458c-20.48-16.384-38.773-15.532-50.51-11.93a55.23,55.23,0,0,0-20.841,11.89l-.763-.763a56.341,56.341,0,0,1,21.243-12.146c12-3.691,30.678-4.587,51.545,12.106Z" transform="translate(-855.011 -171.295)" fill="#02a2cb"/>
        </g>
        <g id="Grupo_59551" data-name="Grupo 59551" transform="translate(0 14.733)">
          <circle id="Elipse_4387" data-name="Elipse 4387" cx="2.093" cy="2.093" r="2.093" fill="#02a2cb"/>
        </g>
        <g id="Grupo_59552" data-name="Grupo 59552" transform="translate(73.033 14.733)">
          <circle id="Elipse_4388" data-name="Elipse 4388" cx="2.093" cy="2.093" r="2.093" fill="#02a2cb"/>
        </g>
        <g id="Grupo_59553" data-name="Grupo 59553" transform="translate(37.32)">
          <rect id="Rectángulo_5883" data-name="Rectángulo 5883" width="3.541" height="3.541" fill="#02a2cb"/>
        </g>
      </g>
      <g id="Grupo_59562" data-name="Grupo 59562" transform="translate(211.79 56.158)">
        <g id="Grupo_59556" data-name="Grupo 59556" transform="translate(0 27.481)">
          <g id="Grupo_59555" data-name="Grupo 59555">
            <path id="Trazado_105286" data-name="Trazado 105286" d="M720.318,185.086l-17.481,3.575a.238.238,0,0,1-.285-.221l-.333-6.78a.238.238,0,0,1,.19-.244l14.842-3.036a.236.236,0,0,1,.266.14l2.8,6.565Z" transform="translate(-689.196 -133.187)" fill="#4b0263"/>
            <path id="Trazado_105287" data-name="Trazado 105287" d="M723.691,163.541l-18.678-20.226a.425.425,0,0,0-.729.374l4.21,20.585a2.11,2.11,0,1,1-1.089.211l-4.221-20.637a.426.426,0,0,0-.814-.068L692.1,170.193a.425.425,0,0,0,.044.392l12.323,18.367a.425.425,0,0,0,.439.18l14.654-3a.426.426,0,0,0,.334-.341l3.9-21.888A.42.42,0,0,0,723.691,163.541Z" transform="translate(-692.075 -143.176)" fill="#4b0263"/>
          </g>
          <rect id="Rectángulo_5884" data-name="Rectángulo 5884" width="18.078" height="89.978" transform="translate(13.356 55.254) rotate(-11.56)" fill="#f60034"/>
        </g>
        <g id="Grupo_59558" data-name="Grupo 59558" transform="translate(31.227)">
          <rect id="Rectángulo_5885" data-name="Rectángulo 5885" width="18.078" height="89.978" transform="matrix(1, -0.027, 0.027, 1, 8.266, 54.554)" fill="#feb604"/>
          <g id="Grupo_59557" data-name="Grupo 59557">
            <path id="Trazado_105288" data-name="Trazado 105288" d="M740.918,165.68l-17.838.476a.238.238,0,0,1-.241-.268l.854-6.733a.238.238,0,0,1,.23-.208l15.143-.4a.236.236,0,0,1,.238.184l1.615,6.953Z" transform="translate(-714.572 -111.334)" fill="none" stroke="#4b0263" stroke-miterlimit="10" stroke-width="1"/>
            <path id="Trazado_105289" data-name="Trazado 105289" d="M748.725,145.149l-14.87-23.171a.425.425,0,0,0-.783.241l.56,21a2.107,2.107,0,1,1-1.109.017l-.561-21.055a.426.426,0,0,0-.79-.211L716.461,146.2a.426.426,0,0,0-.026.393l8.936,20.234a.423.423,0,0,0,.4.253l14.951-.4a.427.427,0,0,0,.389-.28l7.654-20.873A.424.424,0,0,0,748.725,145.149Z" transform="translate(-716.399 -121.769)" fill="none" stroke="#4b0263" stroke-miterlimit="10" stroke-width="1"/>
          </g>
        </g>
        <g id="Grupo_59560" data-name="Grupo 59560" transform="translate(49.183 37.482)">
          <path id="Trazado_105290" data-name="Trazado 105290" d="M764.754,185.3l-17.588-4.36,1.807-7.37,17.443,4.532-1.661,7.2Z" transform="translate(-725.624 -144.551)" fill="#4b0263"/>
          <rect id="Rectángulo_5886" data-name="Rectángulo 5886" width="18.078" height="89.978" transform="matrix(0.971, 0.241, -0.241, 0.971, 21.649, 36.134)" fill="#f60034"/>
          <g id="Grupo_59559" data-name="Grupo 59559" transform="translate(24.438)">
            <path id="Trazado_105291" data-name="Trazado 105291" d="M765.644,181.752l3.164-13.764-4.946-17.022L752.8,164.046l-3.374,13.669Z" transform="translate(-749.422 -150.966)" fill="none" stroke="#4b0263" stroke-miterlimit="10" stroke-width="1"/>
            <line id="Línea_185" data-name="Línea 185" x2="9.174" y2="2.049" transform="translate(8.04 7.493)" fill="none" stroke="#4b0263" stroke-miterlimit="10" stroke-width="1"/>
          </g>
        </g>
        <g id="Grupo_59561" data-name="Grupo 59561" transform="translate(6.747 136.639)">
          <path id="Rectángulo_5887" data-name="Rectángulo 5887" d="M3.294,0H80.117a3.342,3.342,0,0,1,3.342,3.342V94.626a25.367,25.367,0,0,1-25.367,25.367H24.461A24.461,24.461,0,0,1,0,95.532V3.294A3.294,3.294,0,0,1,3.294,0Z" fill="#4b0263"/>
          <rect id="Rectángulo_5888" data-name="Rectángulo 5888" width="83.459" height="11.147" transform="translate(0 12.92)" fill="#fdf6e6" opacity="0.2"/>
          <rect id="Rectángulo_5889" data-name="Rectángulo 5889" width="83.459" height="11.147" transform="translate(0 31.474)" fill="#fdf6e6" opacity="0.2"/>
        </g>
      </g>
      <g id="Grupo_59563" data-name="Grupo 59563" transform="translate(233.863 181.158)">
        <line id="Línea_186" data-name="Línea 186" y2="178.113" transform="translate(223.729)" fill="none" stroke="#4b0263" stroke-miterlimit="10" stroke-width="2"/>
        <line id="Línea_187" data-name="Línea 187" x1="246.173" transform="translate(0 158.381)" fill="none" stroke="#4b0263" stroke-miterlimit="10" stroke-width="2"/>
      </g>
      <g id="Grupo_59567" data-name="Grupo 59567" transform="translate(309.839 185.715)">
        <path id="Trazado_105292" data-name="Trazado 105292" d="M853.239,338.587l-1.464-4.292a9.646,9.646,0,0,0-6.015-6.014l-4.293-1.464,4.373-1.594a9.727,9.727,0,0,0,5.8-5.8l1.594-4.373,1.117,3.511A10.994,10.994,0,0,0,861.5,325.7l3.51,1.117-3.609,1.422c-3.084,1.214-5.252,2.2-6.739,6.739Z" transform="translate(-747.729 -196.479)" fill="#4b0263"/>
        <path id="Trazado_105293" data-name="Trazado 105293" d="M910.25,258.251l-.959-2.811a6.316,6.316,0,0,0-3.939-3.94l-2.813-.959L905.4,249.5a6.367,6.367,0,0,0,3.8-3.8l1.044-2.864.732,2.3a7.2,7.2,0,0,0,4.679,4.678l2.3.732-2.365.932c-2.019.8-3.439,1.439-4.414,4.414Z" transform="translate(-730.398 -216.972)" fill="#fcb610"/>
        <g id="Grupo_59564" data-name="Grupo 59564" transform="translate(66.691 134.323)">
          <path id="Trazado_105294" data-name="Trazado 105294" d="M826.385,339.292a5.986,5.986,0,1,1,5.986-5.986A5.993,5.993,0,0,1,826.385,339.292Zm0-10.175a4.189,4.189,0,1,0,4.189,4.189A4.194,4.194,0,0,0,826.385,329.116Z" transform="translate(-820.399 -327.319)" fill="#fcb610"/>
        </g>
        <g id="Grupo_59565" data-name="Grupo 59565" transform="translate(184.876)">
          <path id="Trazado_105295" data-name="Trazado 105295" d="M915.1,227.975a2.643,2.643,0,1,1,2.643-2.643A2.646,2.646,0,0,1,915.1,227.975Zm0-4.493a1.85,1.85,0,1,0,1.85,1.85A1.853,1.853,0,0,0,915.1,223.481Z" transform="translate(-912.459 -222.688)" fill="#fcb610"/>
        </g>
        <g id="Grupo_59566" data-name="Grupo 59566" transform="translate(0 126.28)">
          <path id="Trazado_105296" data-name="Trazado 105296" d="M771.093,326.339a2.643,2.643,0,1,1,2.642-2.642A2.646,2.646,0,0,1,771.093,326.339Zm0-4.492a1.849,1.849,0,1,0,1.849,1.85A1.851,1.851,0,0,0,771.093,321.847Z" transform="translate(-768.45 -321.054)" fill="#fcb610"/>
        </g>
      </g>
      <g id="Grupo_59574" data-name="Grupo 59574" transform="translate(15.619 6.618)">
        <path id="Trazado_105297" data-name="Trazado 105297" d="M719.393,106.721l-1.465-4.292a9.639,9.639,0,0,0-6.015-6.015l-4.292-1.464,4.371-1.594a9.723,9.723,0,0,0,5.8-5.8l1.6-4.373,1.117,3.511a11,11,0,0,0,7.142,7.143l3.511,1.117-3.61,1.422c-3.082,1.214-5.252,2.2-6.737,6.739Z" transform="translate(-491.491 -83.18)" fill="#fcb610"/>
        <path id="Trazado_105298" data-name="Trazado 105298" d="M551.037,205.3l-1.464-4.292a9.645,9.645,0,0,0-6.015-6.015l-4.292-1.464,4.371-1.594a9.723,9.723,0,0,0,5.8-5.8l1.594-4.373,1.117,3.511a11,11,0,0,0,7.143,7.143l3.511,1.117-3.61,1.422c-3.082,1.216-5.252,2.2-6.737,6.739Z" transform="translate(-539.267 -55.205)" fill="#f17781"/>
        <path id="Trazado_105299" data-name="Trazado 105299" d="M612.187,339.6l-1.026-3.007a6.755,6.755,0,0,0-4.212-4.212l-3.005-1.024,3.062-1.117a6.809,6.809,0,0,0,4.064-4.064l1.117-3.062.782,2.458a7.7,7.7,0,0,0,5,5l2.458.783-2.528,1c-2.159.851-3.678,1.538-4.719,4.719Z" transform="translate(-520.913 -15.092)" fill="#4b0263"/>
        <g id="Grupo_59568" data-name="Grupo 59568" transform="translate(249.045 26.436)">
          <path id="Trazado_105300" data-name="Trazado 105300" d="M739.246,115.745a5.986,5.986,0,1,1,5.986-5.986A5.992,5.992,0,0,1,739.246,115.745Zm0-10.175a4.189,4.189,0,1,0,4.19,4.189A4.194,4.194,0,0,0,739.246,105.569Z" transform="translate(-733.261 -103.772)" fill="#fcb610"/>
        </g>
        <g id="Grupo_59569" data-name="Grupo 59569" transform="translate(29.198 257.942)">
          <path id="Trazado_105301" data-name="Trazado 105301" d="M568,296.077a5.986,5.986,0,1,1,5.986-5.986A5.992,5.992,0,0,1,568,296.077Zm0-10.175a4.189,4.189,0,1,0,4.19,4.189A4.194,4.194,0,0,0,568,285.9Z" transform="translate(-562.011 -284.104)" fill="#fcb610"/>
        </g>
        <g id="Grupo_59570" data-name="Grupo 59570" transform="translate(111.851 308.386)">
          <path id="Trazado_105302" data-name="Trazado 105302" d="M629.036,328.682a2.643,2.643,0,1,1,2.642-2.642A2.646,2.646,0,0,1,629.036,328.682Zm0-4.492a1.849,1.849,0,1,0,1.849,1.85A1.851,1.851,0,0,0,629.036,324.19Z" transform="translate(-626.393 -323.397)" fill="#fcb610"/>
        </g>
        <g id="Grupo_59571" data-name="Grupo 59571" transform="translate(83.79 43.389)">
          <path id="Trazado_105303" data-name="Trazado 105303" d="M607.177,122.265a2.643,2.643,0,1,1,2.643-2.643A2.646,2.646,0,0,1,607.177,122.265Zm0-4.493a1.85,1.85,0,1,0,1.85,1.85A1.852,1.852,0,0,0,607.177,117.771Z" transform="translate(-604.535 -116.978)" fill="#fcb610"/>
        </g>
        <g id="Grupo_59572" data-name="Grupo 59572" transform="translate(256.164 0.7)">
          <path id="Trazado_105304" data-name="Trazado 105304" d="M741.449,89.01a2.643,2.643,0,1,1,2.642-2.643A2.646,2.646,0,0,1,741.449,89.01Zm0-4.493a1.85,1.85,0,1,0,1.849,1.85A1.852,1.852,0,0,0,741.449,84.517Z" transform="translate(-738.806 -83.725)" fill="#fcb610"/>
        </g>
        <g id="Grupo_59573" data-name="Grupo 59573" transform="translate(25.948 158.142)">
          <path id="Trazado_105305" data-name="Trazado 105305" d="M565.464,218.338a5.986,5.986,0,1,1,5.988-5.986A5.992,5.992,0,0,1,565.464,218.338Zm0-10.175a4.189,4.189,0,1,0,4.19,4.189A4.194,4.194,0,0,0,565.464,208.162Z" transform="translate(-559.479 -206.365)" fill="#fcb610"/>
        </g>
      </g>
    </g>
  </g>
</svg>
