<svg xmlns="http://www.w3.org/2000/svg" width="424.652" height="378.498" viewBox="0 0 424.652 378.498">
  <g id="Grupo_60322" data-name="Grupo 60322" transform="translate(-195.827 -46.555)">
    <g id="Grupo_60320" data-name="Grupo 60320" transform="translate(196.903 148.098)">
      <path id="Rectángulo_5949" data-name="Rectángulo 5949" d="M6.456,0h351.02a6.456,6.456,0,0,1,6.456,6.456V216.278a6.456,6.456,0,0,1-6.456,6.456H6.455A6.455,6.455,0,0,1,0,216.279V6.456A6.456,6.456,0,0,1,6.456,0Z" transform="translate(21.903 25.799)" fill="#fff" stroke="#270e41" stroke-linecap="round" stroke-linejoin="round" stroke-width="2.152"/>
      <rect id="Rectángulo_5950" data-name="Rectángulo 5950" width="341.061" height="185.943" transform="translate(33.339 48.67)" fill="#bb83ff" stroke="#270e41" stroke-linecap="round" stroke-linejoin="round" stroke-width="2.152"/>
      <path id="Trazado_105730" data-name="Trazado 105730" d="M330.482,239.651c56.774,45.285,133.124,63.1,204.88,53.555V157.235H281.582C285.082,189.692,304.373,218.825,330.482,239.651Z" transform="translate(-164.192 -105.814)" fill="#b7cbd7" opacity="0.5" style="mix-blend-mode: soft-light;isolation: isolate"/>
      <path id="Trazado_105731" data-name="Trazado 105731" d="M227.414,334.232V155.251h-6.462V341.194H562.013v-6.962Z" transform="translate(-187.613 -106.581)" fill="#9aabb4" style="mix-blend-mode: multiply;isolation: isolate"/>
      <path id="Trazado_105732" data-name="Trazado 105732" d="M196.9,299.422H619.4s0,27.346-23.366,27.346H222.26C202.124,326.768,196.9,299.422,196.9,299.422Z" transform="translate(-196.903 -50.889)" fill="#fff" stroke="#270e41" stroke-linecap="round" stroke-linejoin="round" stroke-width="2.152"/>
      <g id="Grupo_60318" data-name="Grupo 60318" transform="translate(33.339 48.67)">
        <rect id="Rectángulo_5951" data-name="Rectángulo 5951" width="341.061" height="17.897" fill="#f4f4f4" stroke="#270e41" stroke-linecap="round" stroke-linejoin="round" stroke-width="2.152"/>
        <path id="Trazado_105733" data-name="Trazado 105733" d="M442.269,163.7a5.22,5.22,0,1,1-5.221-5.221A5.219,5.219,0,0,1,442.269,163.7Z" transform="translate(-139.492 -154.004)" fill="#f4f4f4" stroke="#270e41" stroke-linecap="round" stroke-linejoin="round" stroke-width="2.152"/>
        <path id="Trazado_105734" data-name="Trazado 105734" d="M453.207,163.7a5.22,5.22,0,1,1-5.219-5.221A5.219,5.219,0,0,1,453.207,163.7Z" transform="translate(-135.267 -154.004)" fill="#f4f4f4" stroke="#270e41" stroke-linecap="round" stroke-linejoin="round" stroke-width="2.152"/>
        <path id="Trazado_105735" data-name="Trazado 105735" d="M464.147,163.7a5.22,5.22,0,1,1-5.221-5.221A5.22,5.22,0,0,1,464.147,163.7Z" transform="translate(-131.041 -154.004)" fill="#f4f4f4" stroke="#270e41" stroke-linecap="round" stroke-linejoin="round" stroke-width="2.152"/>
        <path id="Trazado_105736" data-name="Trazado 105736" d="M415.607,163.161a5.222,5.222,0,0,1-5.221,5.221H238.364a5.221,5.221,0,0,1-5.219-5.221h0a5.221,5.221,0,0,1,5.219-5.221H410.386a5.222,5.222,0,0,1,5.221,5.221Z" transform="translate(-216.242 -154.212)" fill="#f4f4f4" stroke="#270e41" stroke-linecap="round" stroke-linejoin="round" stroke-width="2.152"/>
      </g>
      <path id="Trazado_105737" data-name="Trazado 105737" d="M358.585,149.744a7.27,7.27,0,1,1-7.271-7.271A7.271,7.271,0,0,1,358.585,149.744Z" transform="translate(-140.064 -111.517)" fill="#3aaeb0" stroke="#270e41" stroke-linecap="round" stroke-linejoin="round" stroke-width="2.152"/>
      <rect id="Rectángulo_5952" data-name="Rectángulo 5952" width="67.75" height="13.673" transform="translate(177.375 248.534)" fill="#b3b3b3" stroke="#270e41" stroke-linecap="round" stroke-linejoin="round" stroke-width="2.152"/>
      <g id="Grupo_60319" data-name="Grupo 60319" transform="translate(79)">
        <rect id="Rectángulo_5953" data-name="Rectángulo 5953" width="119.759" height="175.992" transform="translate(0 36.04)" fill="#f17781" stroke="#270e41" stroke-linecap="round" stroke-linejoin="round" stroke-width="2.97"/>
        <rect id="Rectángulo_5954" data-name="Rectángulo 5954" width="119.76" height="175.992" transform="translate(143.711 36.04)" fill="#f17781" stroke="#270e41" stroke-linecap="round" stroke-linejoin="round" stroke-width="2.97"/>
        <rect id="Rectángulo_5955" data-name="Rectángulo 5955" width="23.952" height="175.992" transform="translate(119.759 36.04)" fill="#9a0e0c" stroke="#270e41" stroke-linecap="round" stroke-linejoin="round" stroke-width="2.97"/>
        <path id="Trazado_105738" data-name="Trazado 105738" d="M378.1,327.526c-16.841-30.361-119.759-8.233-119.759-8.233V143.3s96.228-29.847,119.759,8.233Z" transform="translate(-252.169 -115.494)" fill="#d2d1d1" stroke="#270e41" stroke-linecap="round" stroke-linejoin="round" stroke-width="2.97"/>
        <path id="Trazado_105739" data-name="Trazado 105739" d="M382.287,329.3c-16.841-30.361-119.759-22.641-119.759-22.641V130.67s96.231-15.438,119.759,22.642Z" transform="translate(-250.552 -117.272)" fill="#e8e8e8" stroke="#270e41" stroke-linecap="round" stroke-linejoin="round" stroke-width="2.97"/>
        <path id="Trazado_105740" data-name="Trazado 105740" d="M381.484,332.175c-16.841-30.361-107.55-36.021-107.55-36.021V120.162s84.02-2.059,107.55,36.021Z" transform="translate(-246.146 -120.143)" fill="#fff" stroke="#270e41" stroke-linecap="round" stroke-linejoin="round" stroke-width="2.97"/>
        <path id="Trazado_105741" data-name="Trazado 105741" d="M343.349,137.171V314.008c4.967,3.392,8.906,7.236,11.32,11.589V149.606A48.455,48.455,0,0,0,343.349,137.171Z" transform="translate(-219.332 -113.565)" fill="#adc3d0" opacity="0.5" style="mix-blend-mode: multiply;isolation: isolate"/>
        <path id="Trazado_105742" data-name="Trazado 105742" d="M358.3,327.526c16.841-30.361,119.76-8.233,119.76-8.233V143.3s-96.229-29.847-119.76,8.233Z" transform="translate(-213.557 -115.494)" fill="#d2d1d1" stroke="#270e41" stroke-linecap="round" stroke-linejoin="round" stroke-width="2.97"/>
        <path id="Trazado_105743" data-name="Trazado 105743" d="M354.114,329.3c16.841-30.361,119.76-22.641,119.76-22.641V130.67s-96.231-15.438-119.76,22.642Z" transform="translate(-215.173 -117.272)" fill="#e8e8e8" stroke="#270e41" stroke-linecap="round" stroke-linejoin="round" stroke-width="2.97"/>
        <path id="Trazado_105744" data-name="Trazado 105744" d="M351.515,332.175c16.842-30.361,107.55-36.021,107.55-36.021V120.162s-84.019-2.059-107.55,36.021Z" transform="translate(-216.177 -120.143)" fill="#fff" stroke="#270e41" stroke-linecap="round" stroke-linejoin="round" stroke-width="2.97"/>
        <path id="Trazado_105745" data-name="Trazado 105745" d="M361.294,138.084a47.23,47.23,0,0,0-9.779,11.169V325.244a33.8,33.8,0,0,1,9.779-10.494Z" transform="translate(-216.177 -113.212)" fill="#adc3d0" opacity="0.5" style="mix-blend-mode: multiply;isolation: isolate"/>
      </g>
    </g>
    <g id="Grupo_60321" data-name="Grupo 60321" transform="translate(363.141 75.511)">
      <path id="Trazado_105746" data-name="Trazado 105746" d="M378.9,189.505s.621,7.809-19.644,7.809-18.529-7.809-18.529-7.809V161.62H378.9Z" transform="translate(-307.6 -31.533)" fill="#777776" stroke="#270e41" stroke-linecap="round" stroke-linejoin="round" stroke-width="2.146"/>
      <path id="Trazado_105747" data-name="Trazado 105747" d="M369.1,67.782c-31.307,0-52.283,23-52.283,48.211,0,31.623,18,40.671,24.323,51.455s2.6,28.562,9.3,28.562h37.329c6.694,0,2.975-17.779,9.3-28.562s24.323-19.832,24.323-51.455C421.384,90.785,401.006,67.782,369.1,67.782Z" transform="translate(-316.819 -67.782)" fill="#f9e478" stroke="#270e41" stroke-linecap="round" stroke-linejoin="round" stroke-width="2.146"/>
      <path id="Trazado_105748" data-name="Trazado 105748" d="M361.592,166.381c-6.321-10.784-22.533-21.481-26.4-52.868-1.816-14.747,3.335-30.784,12.96-42.969C328.8,78.1,316.819,95.881,316.819,114.926c0,31.623,18,40.671,24.323,51.455s2.6,28.562,9.3,28.562h20.451C364.194,194.943,367.912,177.164,361.592,166.381Z" transform="translate(-316.819 -66.715)" fill="#d9c5c3" style="mix-blend-mode: multiply;isolation: isolate"/>
      <path id="Trazado_105749" data-name="Trazado 105749" d="M386.908,135.174c-9.036,1.747-18.794-9.421-21.8-24.949S367,80.694,376.027,78.946s18.794,9.421,21.8,24.949S395.941,133.426,386.908,135.174Z" transform="translate(-298.506 -63.539)" fill="#f8ae8e" style="mix-blend-mode: soft-light;isolation: isolate"/>
      <line id="Línea_188" data-name="Línea 188" y1="14.873" transform="translate(37.708 113.355)" fill="none" stroke="#270e41" stroke-linecap="round" stroke-linejoin="round" stroke-width="2.146"/>
      <line id="Línea_189" data-name="Línea 189" y1="7.438" transform="translate(44.401 120.79)" fill="none" stroke="#270e41" stroke-linecap="round" stroke-linejoin="round" stroke-width="2.146"/>
      <rect id="Rectángulo_5956" data-name="Rectángulo 5956" width="45.362" height="7.807" transform="translate(29.528 128.228)" fill="#a3a3a3" stroke="#270e41" stroke-linecap="round" stroke-linejoin="round" stroke-width="2.146"/>
      <rect id="Rectángulo_5957" data-name="Rectángulo 5957" width="45.362" height="7.807" transform="translate(29.528 140.809)" fill="#a3a3a3" stroke="#270e41" stroke-linecap="round" stroke-linejoin="round" stroke-width="2.146"/>
      <rect id="Rectángulo_5958" data-name="Rectángulo 5958" width="45.362" height="7.808" transform="translate(29.528 152.582)" fill="#a3a3a3" stroke="#270e41" stroke-linecap="round" stroke-linejoin="round" stroke-width="2.146"/>
    </g>
    <line id="Línea_190" data-name="Línea 190" y1="16.692" transform="translate(419.614 47.774)" fill="none" stroke="#270e41" stroke-linecap="round" stroke-linejoin="round" stroke-width="2.146"/>
    <line id="Línea_191" data-name="Línea 191" x2="26.299" transform="translate(480.523 119.032)" fill="none" stroke="#270e41" stroke-linecap="round" stroke-linejoin="round" stroke-width="2.146"/>
    <line id="Línea_192" data-name="Línea 192" x1="27.666" transform="translate(314.292 119.032)" fill="none" stroke="#270e41" stroke-linecap="round" stroke-linejoin="round" stroke-width="2.146"/>
    <line id="Línea_193" data-name="Línea 193" y1="9.498" x2="18.949" transform="translate(474.724 75.511)" fill="none" stroke="#270e41" stroke-linecap="round" stroke-linejoin="round" stroke-width="2.146"/>
    <line id="Línea_194" data-name="Línea 194" x1="10.69" y1="15.794" transform="translate(357.465 64.466)" fill="none" stroke="#270e41" stroke-linecap="round" stroke-linejoin="round" stroke-width="2.146"/>
    <line id="Línea_195" data-name="Línea 195" y1="16.242" x2="11.733" transform="translate(451.612 56.121)" fill="none" stroke="#270e41" stroke-linecap="round" stroke-linejoin="round" stroke-width="2.146"/>
    <line id="Línea_196" data-name="Línea 196" x1="2.494" y1="16.692" transform="translate(390.176 47.774)" fill="none" stroke="#270e41" stroke-linecap="round" stroke-linejoin="round" stroke-width="2.146"/>
    <line id="Línea_197" data-name="Línea 197" x1="19.089" y1="11.555" transform="translate(338.376 85.009)" fill="none" stroke="#270e41" stroke-linecap="round" stroke-linejoin="round" stroke-width="2.146"/>
  </g>
</svg>
