<svg xmlns="http://www.w3.org/2000/svg" width="376.556" height="369.009" viewBox="0 0 376.556 369.009">
  <g id="Grupo_60617" data-name="Grupo 60617" transform="translate(-45.254 -48.814)">
    <g id="Background_Complete" data-name="Background Complete" transform="translate(52.2 48.823)">
      <g id="Grupo_60524" data-name="Grupo 60524" transform="translate(0)">
        <path id="Trazado_107071" data-name="Trazado 107071" d="M93.375,324.006c-.043-1.762-.107-3.506-.124-5.239l.258.258c-4.178.049-8.354.15-12.531.154l-12.532.06.473-.472-.051,10.59-.422-.421c2.065.017,4.124.007,6.2.051l6.227.106,12.64.264ZM81.087,329.62l-6.3.107c-2.106.044-4.224.035-6.336.051l-.419,0,0-.426-.051-10.59,0-.475.474,0,12.532.06c4.177,0,8.353.106,12.531.154l.261,0,0,.256c-.018,1.8-.082,3.584-.124,5.351l-.134,5.239Z" transform="translate(-53.991 -70.55)" fill="#ebebeb"/>
        <path id="Trazado_107072" data-name="Trazado 107072" d="M78.168,338.532c-.043-1.763-.107-3.506-.124-5.24l.258.257c-4.177.049-8.354.151-12.531.155l-12.531.06.473-.473-.051,10.59-.421-.422c2.065.017,4.124.007,6.195.052l6.227.106,12.64.264Zm-12.287,5.615-6.305.106c-2.106.045-4.224.035-6.335.052l-.42,0,0-.425-.051-10.59,0-.475.475,0,12.531.06c4.177,0,8.354.107,12.531.154l.261,0,0,.256c-.017,1.8-.081,3.584-.124,5.351l-.134,5.24Z" transform="translate(-52.765 -71.721)" fill="#ebebeb"/>
        <path id="Trazado_107073" data-name="Trazado 107073" d="M108.581,338.532c-.042-1.763-.106-3.506-.123-5.24l.257.257c-4.177.049-8.353.151-12.531.155l-12.531.06.473-.473-.051,10.59-.422-.422c2.065.017,4.124.007,6.2.052l6.227.106,12.64.264Zm-12.287,5.615-6.3.106c-2.106.045-4.224.035-6.336.052l-.419,0,0-.425-.051-10.59,0-.475.474,0,12.531.06c4.178,0,8.354.107,12.531.154l.261,0,0,.256c-.018,1.8-.082,3.584-.124,5.351l-.134,5.24Z" transform="translate(-55.217 -71.721)" fill="#ebebeb"/>
        <path id="Trazado_107074" data-name="Trazado 107074" d="M429.37,338.532c-.042-1.763-.106-3.506-.123-5.24l.257.257c-4.177.049-8.353.151-12.531.155l-12.531.06.472-.473-.051,10.59-.422-.422c2.065.017,4.124.007,6.195.052l6.227.106,12.641.264Zm-12.287,5.615-6.3.106c-2.106.045-4.225.035-6.336.052l-.42,0,0-.425-.051-10.59,0-.475.475,0,12.531.06c4.178,0,8.354.107,12.531.154l.261,0,0,.256c-.017,1.8-.081,3.584-.123,5.351l-.134,5.24Z" transform="translate(-81.082 -71.721)" fill="#ebebeb"/>
        <path id="Trazado_107075" data-name="Trazado 107075" d="M429.37,54.538c-.042-1.763-.106-3.506-.123-5.24l.257.258c-4.177.049-8.353.15-12.531.154l-12.531.06.472-.473-.051,10.59-.422-.422c2.065.017,4.124.008,6.195.052l6.227.106,12.641.264Zm-12.287,5.615-6.3.106c-2.106.045-4.225.036-6.336.052l-.42,0,0-.426L403.97,49.3l0-.475.475,0,12.531.06c4.178,0,8.354.106,12.531.154l.261,0,0,.256c-.017,1.8-.081,3.584-.123,5.351l-.134,5.24Z" transform="translate(-81.082 -48.823)" fill="#ebebeb"/>
        <path id="Trazado_107076" data-name="Trazado 107076" d="M444.577,69.064c-.042-1.763-.106-3.507-.124-5.24l.258.258c-4.177.049-8.354.151-12.531.155l-12.531.059.473-.473-.051,10.591-.422-.422c2.065.017,4.124.007,6.195.052l6.227.106,12.64.264ZM432.29,74.678l-6.3.106c-2.107.044-4.224.035-6.336.051l-.42,0,0-.425-.051-10.591,0-.474.475,0,12.531.06c4.177,0,8.354.107,12.531.154l.261,0,0,.255c-.017,1.8-.081,3.585-.124,5.352l-.134,5.24Z" transform="translate(-82.308 -49.994)" fill="#ebebeb"/>
        <path id="Trazado_107077" data-name="Trazado 107077" d="M78.168,54.55c-.043-1.762-.107-3.506-.124-5.24l.258.258c-4.177.049-8.354.151-12.531.155l-12.531.059.473-.473L53.661,59.9l-.421-.422c2.065.017,4.124.007,6.195.052l6.227.106L78.3,59.9ZM65.881,60.165l-6.305.106c-2.106.044-4.224.035-6.335.052l-.42,0,0-.425L52.767,49.31l0-.474.475,0,12.531.06c4.177,0,8.354.107,12.531.154l.261,0,0,.255c-.017,1.8-.081,3.585-.124,5.352L78.3,59.9Z" transform="translate(-52.765 -48.824)" fill="#ebebeb"/>
        <path id="Trazado_107078" data-name="Trazado 107078" d="M218.917,174.837c.042,1.763.106,3.507.123,5.24l-.257-.258c4.177-.048,8.353-.15,12.531-.154l12.531-.06-.473.473.051-10.59.422.422c-2.065-.017-4.124-.007-6.2-.052l-6.227-.106-12.64-.264Zm12.287-5.615,6.3-.106c2.106-.045,4.224-.036,6.336-.052l.42,0,0,.425.051,10.59,0,.475-.475,0-12.531-.06c-4.178,0-8.354-.107-12.531-.155l-.261,0,0-.256c.018-1.8.082-3.584.124-5.351l.135-5.24Z" transform="translate(-66.13 -58.518)" fill="#ebebeb"/>
        <path id="Trazado_107079" data-name="Trazado 107079" d="M234.123,160.312c.043,1.763.107,3.507.124,5.24l-.258-.258c4.178-.049,8.354-.15,12.532-.154l12.531-.06-.473.473.051-10.59.422.422c-2.065-.017-4.124-.008-6.2-.052l-6.227-.106-12.64-.264Zm12.288-5.615,6.3-.107c2.106-.044,4.224-.035,6.336-.051l.42,0,0,.426.051,10.59,0,.475-.475,0-12.531-.06c-4.178,0-8.354-.106-12.532-.154l-.26,0,0-.256c.018-1.8.082-3.584.124-5.351l.134-5.24Z" transform="translate(-67.356 -57.346)" fill="#ebebeb"/>
      </g>
      <g id="Grupo_60529" data-name="Grupo 60529" transform="translate(0 22.339)">
        <g id="Grupo_60525" data-name="Grupo 60525" transform="translate(0 100.733)">
          <rect id="Rectángulo_5989" data-name="Rectángulo 5989" width="40.764" height="40.764" transform="translate(44.748 0) rotate(90)" fill="#dbdbdb"/>
          <rect id="Rectángulo_5990" data-name="Rectángulo 5990" width="28.123" height="28.123" transform="translate(38.427 6.321) rotate(90)" fill="#fff"/>
          <path id="Trazado_107080" data-name="Trazado 107080" d="M92.1,189.563H63.973v28.123Z" transform="translate(-53.669 -183.243)" fill="#ebebeb"/>
          <rect id="Rectángulo_5991" data-name="Rectángulo 5991" width="3.984" height="40.764" transform="translate(3.984 40.764) rotate(180)" fill="#c7c7c7"/>
        </g>
        <g id="Grupo_60526" data-name="Grupo 60526" transform="translate(50.464 100.733)">
          <rect id="Rectángulo_5992" data-name="Rectángulo 5992" width="40.764" height="40.764" transform="translate(44.748 0) rotate(90)" fill="#dbdbdb"/>
          <rect id="Rectángulo_5993" data-name="Rectángulo 5993" width="28.123" height="28.123" transform="translate(38.427 6.32) rotate(90)" fill="#fff"/>
          <path id="Trazado_107081" data-name="Trazado 107081" d="M138.728,189.563H118.862v19.866Z" transform="translate(-108.558 -183.243)" fill="#ebebeb"/>
          <rect id="Rectángulo_5994" data-name="Rectángulo 5994" width="3.984" height="40.764" transform="translate(3.984 40.764) rotate(180)" fill="#c7c7c7"/>
        </g>
        <g id="Grupo_60527" data-name="Grupo 60527" transform="translate(0 151.256)">
          <rect id="Rectángulo_5995" data-name="Rectángulo 5995" width="53.276" height="91.227" transform="translate(95.211 0) rotate(90)" fill="#dbdbdb"/>
          <rect id="Rectángulo_5996" data-name="Rectángulo 5996" width="40.101" height="77.909" transform="translate(88.552 6.587) rotate(90)" fill="#fff"/>
          <path id="Trazado_107082" data-name="Trazado 107082" d="M115.413,244.806H64.341v26.287Z" transform="translate(-53.698 -238.219)" fill="#ebebeb"/>
          <rect id="Rectángulo_5997" data-name="Rectángulo 5997" width="3.984" height="53.276" transform="translate(3.984 53.276) rotate(180)" fill="#c7c7c7"/>
        </g>
        <g id="Grupo_60528" data-name="Grupo 60528">
          <rect id="Rectángulo_5998" data-name="Rectángulo 5998" width="91.228" height="91.227" transform="translate(95.211 0) rotate(90)" fill="#dbdbdb"/>
          <rect id="Rectángulo_5999" data-name="Rectángulo 5999" width="77.917" height="77.903" transform="translate(10.639 6.659)" fill="#fff"/>
          <path id="Trazado_107083" data-name="Trazado 107083" d="M64.336,136.453c11.845-11.775,45.406-45.168,56.187-56.089H64.336Z" transform="translate(-53.698 -73.705)" fill="#ebebeb"/>
          <rect id="Rectángulo_6000" data-name="Rectángulo 6000" width="3.984" height="91.228" transform="translate(3.984 91.228) rotate(180)" fill="#c7c7c7"/>
        </g>
      </g>
      <g id="Grupo_60539" data-name="Grupo 60539" transform="translate(111.848 27.706)">
        <g id="Grupo_60531" data-name="Grupo 60531" transform="translate(0 156.281)">
          <path id="Trazado_107084" data-name="Trazado 107084" d="M200.884,281.366a17.166,17.166,0,0,1-5.059,2.047,17.458,17.458,0,1,1,5.059-2.047Z" transform="translate(-174.422 -248.945)" fill="#ebebeb"/>
          <g id="Grupo_60530" data-name="Grupo 60530" transform="translate(8.103 10.155)">
            <path id="Trazado_107085" data-name="Trazado 107085" d="M198.284,265.366a5.312,5.312,0,1,1-5.249-5.375A5.313,5.313,0,0,1,198.284,265.366Z" transform="translate(-183.593 -259.991)" fill="#fff"/>
            <path id="Trazado_107086" data-name="Trazado 107086" d="M201.622,281.011l-.027,2.191a17.166,17.166,0,0,1-5.059,2.047,17.361,17.361,0,0,1-13.3-2.273l.026-2.183a9.181,9.181,0,1,1,18.36.218Z" transform="translate(-183.236 -260.936)" fill="#fff"/>
          </g>
        </g>
        <g id="Grupo_60533" data-name="Grupo 60533" transform="translate(183.527)">
          <path id="Trazado_107087" data-name="Trazado 107087" d="M422.678,138.543a32.079,32.079,0,0,1-33.741-.415,32.083,32.083,0,1,1,33.741.415Z" transform="translate(-374.044 -78.959)" fill="#ebebeb"/>
          <g id="Grupo_60532" data-name="Grupo 60532" transform="translate(14.893 18.662)">
            <path id="Trazado_107088" data-name="Trazado 107088" d="M417.9,109.137a9.764,9.764,0,1,1-9.647-9.879A9.764,9.764,0,0,1,417.9,109.137Z" transform="translate(-390.898 -99.257)" fill="#fff"/>
            <path id="Trazado_107089" data-name="Trazado 107089" d="M424.032,137.89l-.048,4.028a32.079,32.079,0,0,1-33.741-.415l.048-4.013a16.872,16.872,0,1,1,33.741.4Z" transform="translate(-390.243 -100.996)" fill="#fff"/>
          </g>
        </g>
        <g id="Grupo_60535" data-name="Grupo 60535" transform="translate(220.745 161.026)">
          <g id="aiZGp2">
            <g id="Grupo_60534" data-name="Grupo 60534">
              <path id="Trazado_107090" data-name="Trazado 107090" d="M422.127,263.913a22.213,22.213,0,0,0-1.506,6.881c-.034,0-.061,0-.088,0H414.6c-.026,0-.051,0-.076,0v-.169c.017-.155.035-.311.05-.467a16.713,16.713,0,0,1,.4-2.4A18.512,18.512,0,0,1,416.334,264a.136.136,0,0,1,.146-.089q2.772,0,5.543,0Z" transform="translate(-414.526 -254.897)" fill="#ebebeb"/>
              <path id="Trazado_107091" data-name="Trazado 107091" d="M421.943,280.043h-.1q-2.75,0-5.5,0a.129.129,0,0,1-.137-.088,17.534,17.534,0,0,1-1.665-6.377.547.547,0,0,0-.016-.074v-.168c.03,0,.061-.006.092-.006h5.9c.109,0,.1,0,.111.109.038.489.07.979.117,1.467a19.307,19.307,0,0,0,.374,2.306,20.885,20.885,0,0,0,.8,2.742C421.924,279.982,421.932,280.008,421.943,280.043Z" transform="translate(-414.526 -255.657)" fill="#ebebeb"/>
              <path id="Trazado_107092" data-name="Trazado 107092" d="M447.136,282.562c-.019.034-.033.059-.049.083A16.7,16.7,0,0,1,445.5,284.7a15.661,15.661,0,0,1-2.325,2.144,16.711,16.711,0,0,1-5.449,2.731,17.409,17.409,0,0,1-2.332.5c-.077.011-.154.026-.23.038h-.135l-.13-.083c.055-.039.1-.074.149-.1a17.978,17.978,0,0,0,4.416-4.282,20.233,20.233,0,0,0,1.8-2.994.129.129,0,0,1,.139-.086h5.729Z" transform="translate(-416.169 -256.401)" fill="#ebebeb"/>
              <path id="Trazado_107093" data-name="Trazado 107093" d="M441.425,270.789H433.56v-6.872c.032,0,.062,0,.091,0q3.024,0,6.05,0a.113.113,0,0,1,.124.081,19.059,19.059,0,0,1,1.25,4.028,19.829,19.829,0,0,1,.3,2.181C441.393,270.394,441.41,270.587,441.425,270.789Z" transform="translate(-416.061 -254.897)" fill="#ebebeb"/>
              <path id="Trazado_107094" data-name="Trazado 107094" d="M441.374,273.387c-.007.163-.009.325-.023.485-.035.383-.062.766-.115,1.147-.074.526-.154,1.053-.259,1.575a18.78,18.78,0,0,1-1.021,3.355.131.131,0,0,1-.143.1q-3.1,0-6.193,0h-.111v-6.661Z" transform="translate(-416.057 -255.662)" fill="#ebebeb"/>
              <path id="Trazado_107095" data-name="Trazado 107095" d="M430.957,263.961v6.883h-7.681c.012-.175.017-.346.034-.516.039-.384.071-.771.131-1.153.095-.584.195-1.167.32-1.745a17.89,17.89,0,0,1,1.11-3.387.121.121,0,0,1,.13-.085q2.929,0,5.857,0Z" transform="translate(-415.231 -254.901)" fill="#ebebeb"/>
              <path id="Trazado_107096" data-name="Trazado 107096" d="M430.966,273.477q0,3.237,0,6.472v.1h-.1q-3.017,0-6.034,0a.123.123,0,0,1-.135-.09,17.491,17.491,0,0,1-1.045-3.469c-.115-.611-.2-1.228-.28-1.845-.051-.4-.063-.812-.09-1.217a.289.289,0,0,1,0-.043c.03,0,.059,0,.089,0q3.751,0,7.5,0C430.948,273.378,430.966,273.4,430.966,273.477Z" transform="translate(-415.232 -255.661)" fill="#ebebeb"/>
              <path id="Trazado_107097" data-name="Trazado 107097" d="M450.491,270.838h-6.446a22.384,22.384,0,0,0-1.5-6.925h.1q2.953,0,5.907,0a.134.134,0,0,1,.141.084,16.956,16.956,0,0,1,1.486,4.309,18.753,18.753,0,0,1,.314,2.417C450.493,270.758,450.491,270.794,450.491,270.838Z" transform="translate(-416.785 -254.897)" fill="#ebebeb"/>
              <path id="Trazado_107098" data-name="Trazado 107098" d="M450.512,273.332c-.007.155-.011.3-.022.45a17.184,17.184,0,0,1-.211,1.737,16.913,16.913,0,0,1-1.185,3.87c-.087.2-.183.4-.272.6a.09.09,0,0,1-.1.062q-2.961,0-5.923,0c-.019,0-.038,0-.064,0,.073-.207.143-.407.212-.608a20.865,20.865,0,0,0,.8-3.14,20.406,20.406,0,0,0,.277-2.337c.011-.185.023-.371.031-.555,0-.05.016-.074.067-.069.02,0,.04,0,.06,0Z" transform="translate(-416.801 -255.657)" fill="#ebebeb"/>
              <path id="Trazado_107099" data-name="Trazado 107099" d="M446.96,261.367l-.013.027h-5.719a.128.128,0,0,1-.136-.08,19.4,19.4,0,0,0-2.8-4.146,15.646,15.646,0,0,0-2.148-1.979c-.383-.3-.782-.573-1.176-.858-.02-.014-.04-.029-.065-.049l.078-.053c-.011-.036-.021-.073-.037-.122a16.86,16.86,0,0,1,12.013,7.26Z" transform="translate(-416.169 -254.107)" fill="#ebebeb"/>
              <path id="Trazado_107100" data-name="Trazado 107100" d="M429.4,290.03a.688.688,0,0,1-.164.027,15.367,15.367,0,0,1-1.838-.358,16.509,16.509,0,0,1-3.272-1.212,16.727,16.727,0,0,1-3.335-2.189,15.881,15.881,0,0,1-2.005-2,16.906,16.906,0,0,1-1.25-1.732c-.008-.015-.015-.028-.027-.054h.093q2.626,0,5.25,0a.126.126,0,0,1,.131.085,20.191,20.191,0,0,0,1.93,3.145,19.857,19.857,0,0,0,2.261,2.5,17.4,17.4,0,0,0,2.177,1.75Z" transform="translate(-414.767 -256.397)" fill="#ebebeb"/>
              <path id="Trazado_107101" data-name="Trazado 107101" d="M429.346,254.278c-.239.175-.521.374-.8.584a19.656,19.656,0,0,0-2.542,2.367,17.826,17.826,0,0,0-2.67,3.807c-.045.087-.086.177-.136.261a.116.116,0,0,1-.081.051c-.1.006-.191,0-.287,0H417.7a16.759,16.759,0,0,1,11.583-7.205l-.033.066C429.287,254.236,429.322,254.26,429.346,254.278Z" transform="translate(-414.782 -254.11)" fill="#ebebeb"/>
              <path id="Trazado_107102" data-name="Trazado 107102" d="M439.075,282.567a18.383,18.383,0,0,1-2.6,3.515,16.392,16.392,0,0,1-2.967,2.517v-6.032Z" transform="translate(-416.057 -256.402)" fill="#ebebeb"/>
              <path id="Trazado_107103" data-name="Trazado 107103" d="M431.161,282.569v5.916a17.117,17.117,0,0,1-5.339-5.916Z" transform="translate(-415.437 -256.402)" fill="#ebebeb"/>
              <path id="Trazado_107104" data-name="Trazado 107104" d="M438.9,261.483h-5.342v-5.637a16.308,16.308,0,0,1,3,2.51A18.859,18.859,0,0,1,438.9,261.483Z" transform="translate(-416.061 -254.247)" fill="#ebebeb"/>
              <path id="Trazado_107105" data-name="Trazado 107105" d="M431.181,256.038v5.506h-5.128A16.215,16.215,0,0,1,431.181,256.038Z" transform="translate(-415.455 -254.263)" fill="#ebebeb"/>
            </g>
          </g>
        </g>
        <g id="Grupo_60536" data-name="Grupo 60536" transform="translate(9.403 3.775)">
          <path id="Trazado_107106" data-name="Trazado 107106" d="M189.946,112.484h-2.483a2.791,2.791,0,0,1-2.813-2.814,2.825,2.825,0,0,1,2.813-2.814h3.461l1.625-9.405H189.4a2.814,2.814,0,0,1,0-5.627h4.122l1.07-6.434a2.76,2.76,0,0,1,2.814-2.324,2.889,2.889,0,0,1,2.813,3.3l-.964,5.456h8.481l1.083-6.434a2.777,2.777,0,0,1,2.867-2.324,2.858,2.858,0,0,1,2.761,3.3l-.925,5.456h2.5a2.822,2.822,0,0,1,2.8,2.813,2.857,2.857,0,0,1-2.8,2.814h-3.461l-1.625,9.405h3.078a2.791,2.791,0,0,1,2.813,2.814,2.825,2.825,0,0,1-2.813,2.814h-4.055l-1.136,6.644a2.787,2.787,0,0,1-2.813,2.325,2.856,2.856,0,0,1-2.814-3.29l1.031-5.68h-8.494l-1.136,6.644a2.819,2.819,0,0,1-2.854,2.325,2.765,2.765,0,0,1-2.761-3.29Zm15.206-5.628,1.625-9.405h-8.442l-1.625,9.405Z" transform="translate(-184.649 -83.065)" fill="#ebebeb"/>
        </g>
        <g id="Grupo_60538" data-name="Grupo 60538" transform="translate(131.964 205.739)">
          <g id="Grupo_60537" data-name="Grupo 60537">
            <path id="Trazado_107107" data-name="Trazado 107107" d="M345.7,303.215a23.081,23.081,0,1,0-9.272,45.221,21.97,21.97,0,0,0,5.647.426,1.859,1.859,0,0,0,1.489-.624,1.835,1.835,0,0,0,.449-1.456,1.574,1.574,0,0,0-.4-1.237,2.113,2.113,0,0,0-1.641-.646,16.823,16.823,0,0,1-4.72-.462,18.994,18.994,0,1,1,22.4-14.833,18,18,0,0,1-3.8,8.072,6.279,6.279,0,0,1-3.922,2.33l-.45-.092c-.576-.118-.684-.328-.7-.349a5.189,5.189,0,0,1-.142-1.324c.189-2.3,1.875-9.15,1.9-9.23l.17-.829c1.386-6.764-2.708-13.337-9.13-14.654a12.288,12.288,0,0,0-14.278,9.855c-1.4,6.836,2.735,13.484,9.22,14.814a11.245,11.245,0,0,0,8.352-1.554l-.212,1.036a6.013,6.013,0,0,0,.421,3.53,4.831,4.831,0,0,0,3.575,2.7,5.032,5.032,0,0,0,1.417.14,10.789,10.789,0,0,0,6.831-3.564c.071-.07.12-.125.131-.132l.1-.1A23.228,23.228,0,0,0,345.7,303.215Zm-6.313,30.793c-4.251-.872-6.836-5.156-5.89-9.767.934-4.557,5.091-7.572,9.269-6.715,4.143.85,6.871,5.351,5.951,9.836C347.792,331.892,343.6,334.873,339.391,334.009Z" transform="translate(-317.959 -302.741)" fill="#ebebeb"/>
          </g>
        </g>
      </g>
    </g>
    <g id="Shadow" transform="translate(77.959 389.585)">
      <ellipse id="Elipse_4411" data-name="Elipse 4411" cx="155.574" cy="14.119" rx="155.574" ry="14.119" fill="#ebebeb"/>
    </g>
    <g id="Plant" transform="translate(352.966 264.336)">
      <g id="Grupo_60551" data-name="Grupo 60551">
        <g id="Grupo_60548" data-name="Grupo 60548">
          <g id="Grupo_60541" data-name="Grupo 60541" transform="translate(35.026 32.502)">
            <path id="Trazado_107108" data-name="Trazado 107108" d="M446.938,318.807c-12.6,17.061-25.731,36.86-28.93,58.254-.039.324.481.429.555.108a127.391,127.391,0,0,1,5.57-17.13c8.282-2.279,16.411-4.151,20.759-12.371,4.436-8.449,3.872-19.467,3.029-28.671C447.863,318.5,447.194,318.48,446.938,318.807Z" transform="translate(-418.006 -318.589)" fill="#31d9e7"/>
            <g id="Grupo_60540" data-name="Grupo 60540" transform="translate(6.229 5.374)">
              <path id="Trazado_107109" data-name="Trazado 107109" d="M424.8,360.35c5.659-12.7,12.924-25.45,22.158-35.892.062-.07.159.031.1.1-6.045,7.437-10.639,15.536-15.126,23.778,4.171-4.235,8.741-8.028,12.693-12.517.076-.088.2.039.127.127-3.924,4.707-8.209,9.823-13.318,13.307q-2.059,3.792-4.156,7.6c.343-.191.7-.362,1.05-.537.063-.03.117.062.054.094-.39.2-.775.4-1.177.576-.664,1.2-1.321,2.4-2,3.6C425.056,360.852,424.685,360.619,424.8,360.35Z" transform="translate(-424.782 -324.434)" fill="#263238"/>
              <path id="Trazado_107110" data-name="Trazado 107110" d="M429.38,358.113a74.5,74.5,0,0,0,9.67-6.455c.082-.067.2.048.118.119a51.044,51.044,0,0,1-9.649,6.574C429.363,358.431,429.226,358.2,429.38,358.113Z" transform="translate(-425.147 -326.628)" fill="#263238"/>
            </g>
          </g>
          <g id="Grupo_60543" data-name="Grupo 60543" transform="translate(32.663)">
            <path id="Trazado_107111" data-name="Trazado 107111" d="M416.343,371.031c.026.259.466.254.461-.021.065-7.045.006-14.123.112-21.2,1.8-3.643,5.679-5.659,8.373-8.578a37.546,37.546,0,0,0,5.025-7,50.262,50.262,0,0,0,5.829-19.436c.744-7.536-2.116-32.405-5.293-31.541-1.648.448-6.978,12.765-8.392,16.837a117.256,117.256,0,0,0-5.014,20.645C414.869,337.321,415.083,354.346,416.343,371.031Z" transform="translate(-415.436 -283.236)" fill="#31d9e7"/>
            <g id="Grupo_60542" data-name="Grupo 60542" transform="translate(0.794 4.35)">
              <path id="Trazado_107112" data-name="Trazado 107112" d="M416.363,341.018l.032-.028c.385-8.914,2.394-17.917,4.274-26.563,2.025-9.314,4.393-18.085,9.186-26.392.089-.154.317-.018.237.139a98,98,0,0,0-7.379,20.258c.321-.5.711-.978,1.044-1.453.132-.187.44-.013.311.181a13.129,13.129,0,0,1-1.5,2.115.131.131,0,0,1-.062.028c-1.65,6.658-2.835,13.468-3.849,20.261.076-.086.15-.179.226-.262.052-.056.139.015.1.079-.125.225-.266.45-.4.674-.51,3.449-.984,6.89-1.46,10.3,6.14-5.248,11.382-11.432,14.339-19.054.014-.035.071-.02.058.017-2.9,7.9-7.464,14.932-14.495,19.728q-.193,1.379-.388,2.753c-.027.19-.329.14-.329-.045,0-.812.042-1.625.073-2.44A.189.189,0,0,1,416.363,341.018Z" transform="translate(-416.3 -287.967)" fill="#263238"/>
              <path id="Trazado_107113" data-name="Trazado 107113" d="M419.512,329.729c4.692-7,9.073-13.8,12.507-21.542.038-.086.187-.025.153.064-2.893,7.69-6.944,15.482-12.424,21.659C419.635,330.036,419.417,329.871,419.512,329.729Z" transform="translate(-416.557 -289.594)" fill="#263238"/>
              <path id="Trazado_107114" data-name="Trazado 107114" d="M426.294,305.4c1.944-3.438,3.993-6.785,5.821-10.291.052-.1.187-.012.145.085a53.618,53.618,0,0,1-5.667,10.383C426.465,305.756,426.181,305.6,426.294,305.4Z" transform="translate(-417.103 -288.54)" fill="#263238"/>
              <path id="Trazado_107115" data-name="Trazado 107115" d="M425.468,307.936a.03.03,0,0,1,0,.061A.03.03,0,0,1,425.468,307.936Z" transform="translate(-417.036 -289.577)" fill="#263238"/>
            </g>
          </g>
          <g id="Grupo_60545" data-name="Grupo 60545" transform="translate(9.128 10.652)">
            <path id="Trazado_107116" data-name="Trazado 107116" d="M409.511,351.59a71.718,71.718,0,0,1-1.646,13.881c.072.5.144,1,.218,1.519a66.165,66.165,0,0,0,2.483-15.472.473.473,0,0,0,.021-.478v-.016a102.539,102.539,0,0,0-1.555-20.964c-2.182-12.948-6.949-25.375-15.979-35.079a.644.644,0,0,0-1,.205c-3.644,9.265-2.373,20.322.731,29.565a54.093,54.093,0,0,0,7.161,14.041C403.046,343.148,406.994,346.833,409.511,351.59Z" transform="translate(-389.836 -294.822)" fill="#31d9e7"/>
            <g id="Grupo_60544" data-name="Grupo 60544" transform="translate(3.927 4.404)">
              <path id="Trazado_107117" data-name="Trazado 107117" d="M394.466,299.7c8.558,13.889,14.512,30.358,15.24,46.764.013.291-.476.368-.518.071-.2-1.475-.428-2.936-.664-4.39,0,0-.01,0-.015-.006-3.541-3.391-7.175-6.969-9.71-11.206-.044-.074.062-.162.122-.094a117.747,117.747,0,0,0,9.432,10.266c-.613-3.628-1.339-7.2-2.2-10.715-.229-.262-.452-.531-.677-.8-.149-.175.1-.428.254-.254l.206.227a123.806,123.806,0,0,0-4.475-14.206c-2.179-2.6-4.614-4.844-6.2-7.975a.066.066,0,0,1,.114-.066c1.275,1.79,2.51,3.591,3.958,5.252.576.661,1.209,1.281,1.807,1.926a109.63,109.63,0,0,0-7.007-14.6A.192.192,0,0,1,394.466,299.7Z" transform="translate(-394.107 -299.612)" fill="#263238"/>
              <path id="Trazado_107118" data-name="Trazado 107118" d="M396.36,318.343c2.766,3.723,5.919,7.275,8.49,11.123.074.11-.086.223-.178.138-3.3-3.1-6.1-7.332-8.5-11.151C396.1,318.332,396.28,318.234,396.36,318.343Z" transform="translate(-394.272 -301.118)" fill="#263238"/>
              <path id="Trazado_107119" data-name="Trazado 107119" d="M406.021,331.381l.118.118a.09.09,0,0,1-.127.127l-.118-.118A.09.09,0,0,1,406.021,331.381Z" transform="translate(-395.055 -302.171)" fill="#263238"/>
            </g>
          </g>
          <g id="Grupo_60547" data-name="Grupo 60547" transform="translate(0 41.01)">
            <path id="Trazado_107120" data-name="Trazado 107120" d="M379.912,328.68a42.623,42.623,0,0,0,9.031,21.188,22.479,22.479,0,0,0,7.323,5.715c3.172,1.569,6.494,3.377,9.775,4.665a64.149,64.149,0,0,1,3.46,12.292c.107-.358.211-.731.317-1.089-2.106-18.092-13.814-33.556-28.788-43.483A.727.727,0,0,0,379.912,328.68Z" transform="translate(-379.908 -327.842)" fill="#31d9e7"/>
            <g id="Grupo_60546" data-name="Grupo 60546" transform="translate(5.141 5.964)">
              <path id="Trazado_107121" data-name="Trazado 107121" d="M385.537,334.548c-.106-.093.037-.282.153-.2a61.272,61.272,0,0,1,19.081,23.516c.109.248-.231.465-.371.218-.7-1.22-1.406-2.407-2.128-3.572,0,0-.006,0-.01,0-3.417-.644-6.654-3.049-9.192-5.332-.069-.062.032-.163.1-.1a21.03,21.03,0,0,0,4.325,3.039c1.394.707,2.893,1.153,4.344,1.72-1.267-2.011-2.587-3.939-3.965-5.81a39.846,39.846,0,0,1-10.273-5.775c-.1-.071-.011-.23.1-.165a102.556,102.556,0,0,0,9.548,5.1,85.526,85.526,0,0,0-6.741-7.86c-1.161-.613-2.34-1.229-3.465-1.886a.1.1,0,0,1,.074-.176,12.416,12.416,0,0,1,2.659,1.307C388.419,337.213,387.027,335.864,385.537,334.548Z" transform="translate(-385.5 -334.329)" fill="#263238"/>
              <path id="Trazado_107122" data-name="Trazado 107122" d="M385.874,341.361a4.428,4.428,0,0,1,.576.411c.055.049-.016.119-.073.095a4.245,4.245,0,0,1-.6-.34C385.674,341.46,385.77,341.294,385.874,341.361Z" transform="translate(-385.519 -334.895)" fill="#263238"/>
            </g>
          </g>
        </g>
        <g id="Grupo_60550" data-name="Grupo 60550" transform="translate(12.245 73.514)">
          <g id="Grupo_60549" data-name="Grupo 60549" transform="translate(0 5.762)">
            <path id="Trazado_107123" data-name="Trazado 107123" d="M434.261,415.075H393.227l3.313-37.369.727-8.241h32.955l.727,8.241Z" transform="translate(-393.227 -369.464)" fill="#455a64"/>
            <path id="Trazado_107124" data-name="Trazado 107124" d="M431.239,377.706H396.83l.727-8.241h32.955Z" transform="translate(-393.517 -369.464)" fill="#263238"/>
          </g>
          <rect id="Rectángulo_6001" data-name="Rectángulo 6001" width="36.881" height="8.156" transform="translate(2.077)" fill="#455a64"/>
        </g>
      </g>
    </g>
    <g id="Table" transform="translate(45.754 389.222)">
      <line id="Línea_200" data-name="Línea 200" x2="375.556" fill="none" stroke="#263238" stroke-linecap="round" stroke-linejoin="round" stroke-width="1"/>
    </g>
    <g id="Light_Bulb" data-name="Light Bulb" transform="translate(159.878 48.823)">
      <g id="Grupo_60557" data-name="Grupo 60557">
        <g id="Grupo_60555" data-name="Grupo 60555" transform="translate(30.436 29.061)">
          <g id="Grupo_60552" data-name="Grupo 60552">
            <path id="Trazado_107125" data-name="Trazado 107125" d="M361.874,168.6c-6.079,52.037-39.505,61.609-45.1,75.489-2.991,7.514-6.952,26.611-6.952,26.611l-54.368.008s-3.934-19.1-6.961-26.608c-5.567-13.879-39.032-23.438-45.092-75.475-4.006-34.192,21.692-88.182,79.225-88.191S365.834,134.4,361.874,168.6Z" transform="translate(-202.992 -80.433)" fill="#f9e478"/>
          </g>
          <g id="Grupo_60553" data-name="Grupo 60553" transform="translate(50.146 102.328)">
            <line id="Línea_201" data-name="Línea 201" x1="16.146" y1="86.482" transform="translate(0 5.013)" fill="none" stroke="#fff" stroke-miterlimit="10" stroke-width="1"/>
            <line id="Línea_202" data-name="Línea 202" y1="86.487" x2="16.119" transform="translate(42.876 5.004)" fill="none" stroke="#fff" stroke-miterlimit="10" stroke-width="1"/>
            <path id="Trazado_107127" data-name="Trazado 107127" d="M259.038,200.05s3.2,16.934,10.866,16.933,14.854-25.245,4.789-25.244-.316,33.071,12.466,33.069,20.126-33.074,11.179-33.073-6.117,26.362,6.184,26.36c6.6,0,11.315-16.981,11.315-16.981" transform="translate(-257.657 -191.735)" fill="none" stroke="#fff" stroke-miterlimit="10" stroke-width="0.5"/>
          </g>
          <g id="Grupo_60554" data-name="Grupo 60554" transform="translate(46.117 187.942)">
            <rect id="Rectángulo_6002" data-name="Rectángulo 6002" width="67.081" height="13.11" fill="#455a64"/>
            <rect id="Rectángulo_6003" data-name="Rectángulo 6003" width="67.081" height="13.109" transform="translate(0.002 15.23)" fill="#455a64"/>
            <rect id="Rectángulo_6004" data-name="Rectángulo 6004" width="67.081" height="13.109" transform="translate(0.005 30.46)" fill="#455a64"/>
          </g>
        </g>
        <g id="Grupo_60556" data-name="Grupo 60556">
          <line id="Línea_203" data-name="Línea 203" x1="0.364" y1="19.73" transform="translate(108.781)" fill="none" stroke="#263238" stroke-miterlimit="10" stroke-width="1"/>
          <line id="Línea_204" data-name="Línea 204" x1="10.18" y1="16.905" transform="translate(53.917 15.395)" fill="none" stroke="#263238" stroke-miterlimit="10" stroke-width="1"/>
          <line id="Línea_205" data-name="Línea 205" x1="17.268" y1="9.55" transform="translate(14.1 56.159)" fill="none" stroke="#263238" stroke-miterlimit="10" stroke-width="1"/>
          <line id="Línea_206" data-name="Línea 206" x1="19.73" y2="0.364" transform="translate(0 111.006)" fill="none" stroke="#263238" stroke-miterlimit="10" stroke-width="1"/>
          <line id="Línea_207" data-name="Línea 207" x1="16.905" y2="10.18" transform="translate(15.395 156.054)" fill="none" stroke="#263238" stroke-miterlimit="10" stroke-width="1"/>
          <line id="Línea_208" data-name="Línea 208" x2="17.268" y2="9.55" transform="translate(188.782 154.442)" fill="none" stroke="#263238" stroke-miterlimit="10" stroke-width="1"/>
          <line id="Línea_209" data-name="Línea 209" y1="0.363" x2="19.73" transform="translate(200.421 108.781)" fill="none" stroke="#263238" stroke-miterlimit="10" stroke-width="1"/>
          <line id="Línea_210" data-name="Línea 210" y1="10.18" x2="16.905" transform="translate(187.851 53.917)" fill="none" stroke="#263238" stroke-miterlimit="10" stroke-width="1"/>
          <line id="Línea_211" data-name="Línea 211" y1="17.268" x2="9.55" transform="translate(154.442 14.1)" fill="none" stroke="#263238" stroke-miterlimit="10" stroke-width="1"/>
        </g>
      </g>
    </g>
    <g id="Social_Icons" data-name="Social Icons" transform="translate(194.757 81.259)">
      <g id="Grupo_60578" data-name="Grupo 60578">
        <g id="Grupo_60560" data-name="Grupo 60560" transform="translate(61.651 51.236)">
          <g id="Grupo_60558" data-name="Grupo 60558" transform="translate(15.012)">
            <path id="Trazado_107128" data-name="Trazado 107128" d="M307.589,145.693a5.861,5.861,0,1,1-5.861-5.86A5.861,5.861,0,0,1,307.589,145.693Z" transform="translate(-291.587 -139.833)" fill="#263238"/>
            <path id="Trazado_107129" data-name="Trazado 107129" d="M311.481,162.89v2.143h-20.27V162.89a10.135,10.135,0,0,1,20.27,0Z" transform="translate(-291.211 -140.877)" fill="#263238"/>
          </g>
          <g id="Grupo_60559" data-name="Grupo 60559" transform="translate(0 3.532)">
            <path id="Trazado_107130" data-name="Trazado 107130" d="M291.26,149.536a5.861,5.861,0,1,1-5.86-5.861A5.86,5.86,0,0,1,291.26,149.536Z" transform="translate(-275.257 -143.675)" fill="#455a64"/>
            <path id="Trazado_107131" data-name="Trazado 107131" d="M295.152,166.732v2.143h-20.27v-2.143a10.135,10.135,0,0,1,20.27,0Z" transform="translate(-274.882 -144.719)" fill="#455a64"/>
          </g>
        </g>
        <path id="Trazado_107132" data-name="Trazado 107132" d="M248.292,236.321a1.543,1.543,0,0,1,1.615.012q.2.123.414.235c.143.076.285.148.429.216a1.537,1.537,0,0,1,.9,1.335l.062,1.986,6.47-.2-.061-1.986a1.538,1.538,0,0,1,.813-1.4,8.984,8.984,0,0,0,.82-.507,1.538,1.538,0,0,1,1.606-.1l1.747.937,3.06-5.706-1.747-.937a1.539,1.539,0,0,1-.8-1.4,9.107,9.107,0,0,0-.031-.964,1.538,1.538,0,0,1,.712-1.449l1.688-1.047-3.412-5.5-1.7,1.051a1.533,1.533,0,0,1-1.607-.012c-.135-.082-.274-.16-.414-.235s-.283-.147-.427-.214a1.542,1.542,0,0,1-.9-1.34l-.06-1.988-6.47.2.063,1.98a1.541,1.541,0,0,1-.812,1.4,9.064,9.064,0,0,0-.823.51,1.536,1.536,0,0,1-1.607.1l-1.746-.936-3.061,5.707,1.746.936a1.538,1.538,0,0,1,.8,1.4,8.946,8.946,0,0,0,.03.968,1.538,1.538,0,0,1-.714,1.447l-1.684,1.043,3.412,5.5Zm1.622-10.216a5.3,5.3,0,1,1,2.17,7.178A5.307,5.307,0,0,1,249.914,226.1Z" transform="translate(-210.661 -94.828)" fill="#263238"/>
        <path id="Trazado_107133" data-name="Trazado 107133" d="M209.027,169.257a1.08,1.08,0,0,1,.528,1q-.008.166-.008.334t.008.336a1.076,1.076,0,0,1-.526,1l-1.205.7,2.266,3.928,1.205-.7a1.076,1.076,0,0,1,1.13.04,6.152,6.152,0,0,0,.585.338,1.08,1.08,0,0,1,.6.958v1.388h4.535v-1.388a1.08,1.08,0,0,1,.6-.958,6.16,6.16,0,0,0,.585-.338,1.076,1.076,0,0,1,1.13-.04l1.206.7,2.266-3.928-1.211-.7a1.074,1.074,0,0,1-.525-1q.008-.167.008-.334t-.008-.334a1.078,1.078,0,0,1,.528-1l1.208-.7-2.266-3.927-1.2.694a1.077,1.077,0,0,1-1.13-.039,6.407,6.407,0,0,0-.587-.339,1.076,1.076,0,0,1-.6-.958v-1.388h-4.535v1.388a1.076,1.076,0,0,1-.6.958,6.407,6.407,0,0,0-.587.339,1.077,1.077,0,0,1-1.13.039l-1.2-.694-2.266,3.927Zm6.845-2.381a3.714,3.714,0,1,1-3.713,3.716A3.718,3.718,0,0,1,215.872,166.875Z" transform="translate(-207.824 -90.433)" fill="#455a64"/>
        <path id="Trazado_107134" data-name="Trazado 107134" d="M236.461,130.578c-.579-5.819-4.589-11.61-11.637-11.61s-11.049,5.791-11.628,11.61c-.891,8.981,5.168,17.117,11.628,24.539C231.293,147.695,237.353,139.559,236.461,130.578Zm-11.637,6.46a6.371,6.371,0,1,1,6.38-6.371A6.37,6.37,0,0,1,224.825,137.038Z" transform="translate(-208.25 -86.915)" fill="#ffc727"/>
        <g id="Grupo_60561" data-name="Grupo 60561" transform="translate(29.7)">
          <circle id="Elipse_4412" data-name="Elipse 4412" cx="26.643" cy="26.643" r="26.643" fill="#455a64"/>
          <path id="Trazado_107135" data-name="Trazado 107135" d="M267.283,104.314c-.06,1.7-.019,3.41-.019,5.247h6.619c-.283,2.179-.525,4.2-.848,6.195-.02.2-.525.444-.807.464-1.594.04-3.188.02-4.924.02v22.076a26.068,26.068,0,0,1-7.022-1.089V116.281H254.49v-6.659h5.671c.019-.5.06-.908.06-1.292.04-1.756-.02-3.511.142-5.247.363-3.814,2.7-6.5,6.478-7.022A54.089,54.089,0,0,1,274.084,96v6.054c-.868,0-1.755-.02-2.623,0a11.107,11.107,0,0,0-2.321.162A2.18,2.18,0,0,0,267.283,104.314Z" transform="translate(-241.287 -85.055)" fill="#fff"/>
        </g>
        <g id="Grupo_60563" data-name="Grupo 60563" transform="translate(99.25 38.182)">
          <circle id="Elipse_4413" data-name="Elipse 4413" cx="26.643" cy="26.643" r="26.643" fill="#455a64"/>
          <g id="Grupo_60562" data-name="Grupo 60562" transform="translate(12.095 14.945)">
            <path id="Trazado_107136" data-name="Trazado 107136" d="M328.934,166.092a14.869,14.869,0,0,0,9.6-2.959c-3.971-1.206-5.553-2.418-6.13-4.676l2.663-.131c-3.134-1.2-4.975-3.308-5.217-6.746l2.742.725c-2.875-3.618-3.457-6.423-1.74-9.041a19.809,19.809,0,0,0,14.081,7.042c-.026-.45-.051-.786-.064-1.123a6.476,6.476,0,0,1,3.772-6.513,6.551,6.551,0,0,1,7.481.9,1.374,1.374,0,0,0,1.51.309c1.069-.4,2.144-.788,3.323-1.22a6.817,6.817,0,0,1-2.614,3.352c.026.064.051.129.075.193l3.292-.845c.043.044.088.087.131.131-.85.857-1.666,1.753-2.566,2.553a1.76,1.76,0,0,0-.715,1.468,19.263,19.263,0,0,1-17.533,19.309,19.557,19.557,0,0,1-11.432-2.333C329.367,166.366,329.153,166.225,328.934,166.092Z" transform="translate(-328.934 -141.89)" fill="#fff"/>
          </g>
        </g>
        <g id="Grupo_60565" data-name="Grupo 60565" transform="translate(0.588 87.353)">
          <circle id="Elipse_4414" data-name="Elipse 4414" cx="18.685" cy="18.685" r="18.685" transform="matrix(0.159, -0.987, 0.987, 0.159, 0, 36.894)" fill="#455a64"/>
          <g id="_2dqxSk.tif" data-name="2dqxSk.tif" transform="translate(11.601 11.626)">
            <g id="Grupo_60564" data-name="Grupo 60564">
              <path id="Trazado_107137" data-name="Trazado 107137" d="M223.58,191.764a.4.4,0,0,0,.078.023,2.332,2.332,0,0,1,2.142,1.977,2.307,2.307,0,0,1-.792,2.172,2.267,2.267,0,0,1-1.113.53,2.361,2.361,0,0,1-2.689-1.643,2.181,2.181,0,0,1-.086-.492c0-.033.006-.071-.039-.086v-.2c.041-.016.036-.053.039-.086.007-.067.01-.135.021-.2a2.319,2.319,0,0,1,2.156-1.966.409.409,0,0,0,.079-.023Z" transform="translate(-221.081 -191.764)" fill="#fff"/>
              <path id="Trazado_107138" data-name="Trazado 107138" d="M232.59,200.544c.019-.027.04-.051.059-.079a4.679,4.679,0,0,1,.687-.806,4.269,4.269,0,0,1,1.9-1.021,5.859,5.859,0,0,1,1.058-.143,5.559,5.559,0,0,1,.722.008,5.383,5.383,0,0,1,2.006.5,3.475,3.475,0,0,1,1.5,1.431,5.368,5.368,0,0,1,.5,1.26,6.884,6.884,0,0,1,.184.915c.02.154.029.31.039.465.018.288.032.576.049.864v.025c.007.275.018.55.02.824q.01,1.382.013,2.762,0,2.087,0,4.173c0,.155-.006.162-.164.162H239.4l-1.648,0c-.087,0-.176.008-.263.012h-.042c-.195-.01-.2-.055-.2-.2q0-1.729,0-3.459c0-1.145,0-2.289,0-3.434a4.392,4.392,0,0,0-.167-1.283,2.509,2.509,0,0,0-.314-.693,1.614,1.614,0,0,0-1.035-.685,2.032,2.032,0,0,0-.488-.052c-.176,0-.352,0-.525.019a1.939,1.939,0,0,0-1.656,1.2,3.622,3.622,0,0,0-.262.972,7.785,7.785,0,0,0-.066,1.076v6.289c0,.048,0,.1,0,.144-.006.064-.033.089-.1.094-.037,0-.074,0-.11,0h-2.006q-.633,0-1.266,0c-.124,0-.249.008-.373.012h-.051c-.166-.017-.178-.06-.177-.182,0-.062,0-.124,0-.187q0-4.143,0-8.286,0-2.091,0-4.181c0-.037,0-.074,0-.11,0-.093.038-.125.131-.132.022,0,.045,0,.068,0h3.586c.09.005.124.035.125.126,0,.158-.006.316-.006.475,0,.232,0,.464,0,.7,0,.111,0,.222,0,.332,0,.029,0,.06,0,.09Z" transform="translate(-221.691 -192.306)" fill="#fff"/>
              <path id="Trazado_107139" data-name="Trazado 107139" d="M221.46,205.372v-6.34a.72.72,0,0,1,.006-.109.074.074,0,0,1,.079-.073l.093,0h3.74c.143,0,.179.038.179.184,0,.478,0,.957,0,1.436v11.218a.832.832,0,0,1-.009.135.1.1,0,0,1-.1.091c-.1.005-.192.008-.288.01-.037,0-.074-.007-.109-.007h-3.119c-.082,0-.164.008-.245.012a.311.311,0,0,1-.051,0c-.138-.016-.179-.031-.179-.188q0-3.183,0-6.366Z" transform="translate(-221.111 -192.335)" fill="#fff"/>
            </g>
          </g>
        </g>
        <g id="Grupo_60568" data-name="Grupo 60568" transform="translate(45.58 77.195)">
          <circle id="Elipse_4415" data-name="Elipse 4415" cx="26.618" cy="26.618" r="26.618" transform="translate(0 51.847) rotate(-76.883)" fill="#ffc727"/>
          <g id="Grupo_60567" data-name="Grupo 60567" transform="translate(16.071 15.994)">
            <g id="Grupo_60566" data-name="Grupo 60566">
              <path id="Trazado_107140" data-name="Trazado 107140" d="M306.648,192.667c-.018-4.32-2.716-7.114-7-7.155q-8.888-.09-17.778,0c-4.19.044-6.906,2.82-6.97,7-.04,2.958-.007,5.918-.007,8.875,0,2.893-.018,5.791,0,8.684.037,4.417,2.731,7.24,7.1,7.284q8.793.1,17.589,0c4.287-.048,7.032-2.868,7.054-7.135Q306.694,201.446,306.648,192.667Zm-2.833,17.607c-.03,2.731-1.5,4.243-4.236,4.261q-8.793.055-17.585,0c-2.745-.015-4.231-1.523-4.246-4.243q-.04-8.87,0-17.74c.011-2.708,1.526-4.265,4.231-4.283q8.791-.061,17.585,0c2.712.018,4.22,1.567,4.25,4.269.033,2.957.007,5.913.007,8.87S303.848,207.317,303.815,210.273Z" transform="translate(-274.882 -185.466)" fill="#fff"/>
              <path id="Trazado_107141" data-name="Trazado 107141" d="M291.464,193.774a8.3,8.3,0,1,0,8.243,8.418A8.284,8.284,0,0,0,291.464,193.774Zm-.1,13.82a5.6,5.6,0,0,1-5.44-5.461,5.53,5.53,0,0,1,11.06,0A5.6,5.6,0,0,1,291.36,207.594Z" transform="translate(-275.552 -186.136)" fill="#fff"/>
              <path id="Trazado_107142" data-name="Trazado 107142" d="M303.564,193.374a1.72,1.72,0,0,1-1.979,1.716,1.738,1.738,0,0,1-1.8-2.068,1.836,1.836,0,0,1,2-1.763A1.859,1.859,0,0,1,303.564,193.374Z" transform="translate(-276.889 -185.933)" fill="#fff"/>
            </g>
          </g>
        </g>
        <g id="Grupo_60570" data-name="Grupo 60570" transform="translate(82.997 0.469)">
          <circle id="Elipse_4416" data-name="Elipse 4416" cx="17.998" cy="17.998" r="17.998" transform="translate(0 34.677) rotate(-74.438)" fill="#ffc727"/>
          <g id="Grupo_60569" data-name="Grupo 60569" transform="translate(15.454 15.257)">
            <path id="Trazado_107143" data-name="Trazado 107143" d="M314.909,115.029v-13.82l16.479,6.91Z" transform="translate(-314.909 -101.209)" fill="#fff"/>
          </g>
        </g>
        <g id="Grupo_60571" data-name="Grupo 60571" transform="translate(37.22 139.172)">
          <circle id="Elipse_4417" data-name="Elipse 4417" cx="18.685" cy="18.685" r="18.685" transform="matrix(0.926, -0.378, 0.378, 0.926, 0, 14.125)" fill="#ffc727"/>
          <path id="Trazado_107144" data-name="Trazado 107144" d="M284.2,263.5c-3.085,6.219-10.42,9.909-10.42,9.909s-7.335-3.69-10.413-9.909c-2.569-5.187-.941-10.793,3.112-12.018,5.81-1.758,7.3,8.362,7.3,8.362s1.491-10.119,7.307-8.362C285.142,252.706,286.769,258.312,284.2,263.5Z" transform="translate(-249.423 -236.755)" fill="#fff"/>
        </g>
        <g id="Grupo_60573" data-name="Grupo 60573" transform="translate(14.269 46.371)">
          <circle id="Elipse_4418" data-name="Elipse 4418" cx="18.685" cy="18.685" r="18.685" transform="translate(0 26.425) rotate(-45)" fill="#263238"/>
          <g id="QfoS7x.tif" transform="translate(16.559 14.907)">
            <g id="Grupo_60572" data-name="Grupo 60572">
              <path id="Trazado_107145" data-name="Trazado 107145" d="M256.741,154.708a4.693,4.693,0,0,0,.325.514.232.232,0,0,1,.028.023A4.887,4.887,0,0,1,256.741,154.708Zm.359.545v0h0c.065.046.13.093.195.138C257.231,155.349,257.165,155.3,257.1,155.254Zm3.169,3.4v-1.468a4.943,4.943,0,0,1-.576-.133,5.143,5.143,0,0,1-.947-.372,4.706,4.706,0,0,1-.839-.553,4.282,4.282,0,0,1-.394-.359l-.056-.06-.048-.053a3.08,3.08,0,0,1-.308-.4.454.454,0,0,1-.138-.093,4.83,4.83,0,0,1-.587-.593,5.2,5.2,0,0,1-.685-1.077,6.013,6.013,0,0,1-.427-1.2c-.037-.151-.068-.3-.1-.455v-.022c0-.013,0-.027,0-.04h-2.849c-.066,0-.078.019-.078.081q0,6.757,0,13.516c0,.4,0,.79,0,1.185,0,.225-.023.45-.047.673a5.394,5.394,0,0,1-.154.839,1.571,1.571,0,0,1-.171.348,3.193,3.193,0,0,1-.607.761,2.823,2.823,0,0,1-.577.416,3.047,3.047,0,0,1-.913.331c-.115.021-.23.036-.346.048a3.1,3.1,0,0,1-.346.009,3.235,3.235,0,0,1-1.162-.238,2.821,2.821,0,0,1-.741-.436,2.262,2.262,0,0,1-.6-.731,5.042,5.042,0,0,1-.246-.649,2.989,2.989,0,0,0,.233.619.039.039,0,0,1,0,.025l0,.008a1.389,1.389,0,0,1-.236-.161l-.015-.011a2.336,2.336,0,0,1-.78-1.075,3.748,3.748,0,0,1-.158-.559,3.279,3.279,0,0,1-.057-.454c0-.092-.013-.183-.011-.275a3.63,3.63,0,0,1,.15-.961,3.007,3.007,0,0,1,.447-.9,2.782,2.782,0,0,1,.813-.737,3.187,3.187,0,0,1,.94-.373,4.138,4.138,0,0,1,.439-.07,4.52,4.52,0,0,1,.688-.021,2.739,2.739,0,0,1,.481.048c.065.014.077,0,.077-.068q0-1.553,0-3.107c-.238,0-.476-.011-.712,0a6.792,6.792,0,0,0-1.731.319,5.9,5.9,0,0,0-.622.245,6.127,6.127,0,0,0-.9.5,6.814,6.814,0,0,0-.59.451,6.244,6.244,0,0,0-.538.519,6.316,6.316,0,0,0-.594.741,7.209,7.209,0,0,0-.571.977,7.692,7.692,0,0,0-.325.78,7.955,7.955,0,0,0-.308,1.144c-.037.183-.059.37-.082.555a7.642,7.642,0,0,0-.048,1.095c0,.213.025.425.048.636a6.977,6.977,0,0,0,.184.992,6.856,6.856,0,0,0,.35,1.009,6.774,6.774,0,0,0,.576,1.046,2.6,2.6,0,0,1,.154.243,6.77,6.77,0,0,0,.456.523c-.122-.131-.237-.269-.35-.408a.023.023,0,0,1,0-.031.435.435,0,0,1,.051.032c.047.033.088.074.132.111l.013.01a7.149,7.149,0,0,0,1.423.884,8.089,8.089,0,0,0,1.1.424,5.88,5.88,0,0,0,.576.12c.172.034.345.055.517.085.078.013.16.019.24.027a6.9,6.9,0,0,0,.78.037c.223-.007.447-.02.669-.047a7.317,7.317,0,0,0,.777-.13,6,6,0,0,0,1.126-.369,6.081,6.081,0,0,0,1.194-.7,6.4,6.4,0,0,0,.824-.753,5.806,5.806,0,0,0,.531-.667,7.106,7.106,0,0,0,.595-1.024,7.857,7.857,0,0,0,.462-1.243c.066-.236.119-.475.165-.716.034-.176.057-.353.085-.53a2.915,2.915,0,0,0,.027-.3c.08-1.352.027-2.7.036-4.058s0-2.71,0-4.065v-.074l.141.119a5.693,5.693,0,0,0,.7.5,6.846,6.846,0,0,0,.677.363,8.674,8.674,0,0,0,1.242.468c.307.091.619.165.933.229.24.048.48.089.722.121.147.02.3.034.445.044.1.006.2,0,.293.01.053,0,.061-.017.061-.063C260.268,159.58,260.268,159.116,260.268,158.651Zm-16.6,12.5-.009,0,0,0,.01,0Zm.05.044-.011-.007.009-.006.01,0C243.726,171.188,243.726,171.2,243.717,171.192Zm.369.444.031.034Zm9.307-19.864h0Zm1.771,0s0,.021,0,.04c0-.013,0-.027,0-.04Z" transform="translate(-241.433 -150.838)" fill="#fefefe"/>
              <path id="Trazado_107146" data-name="Trazado 107146" d="M261.28,161.471c0,.054-.011.07-.068.069-.211-.006-.421-.028-.632-.05-.168-.017-.336-.041-.5-.067-.19-.03-.379-.072-.566-.112a9.619,9.619,0,0,1-1.084-.3,8.953,8.953,0,0,1-.84-.338,6.662,6.662,0,0,1-.982-.556,4.747,4.747,0,0,1-.512-.4c-.017.006-.009.02-.009.031.009.568-.015,1.136-.014,1.705q0,2.987,0,5.976a4.757,4.757,0,0,1-.047.613c-.018.134-.03.27-.051.4-.03.194-.069.386-.111.579a7.737,7.737,0,0,1-.217.783,8.091,8.091,0,0,1-.37.907,7.2,7.2,0,0,1-.6,1.024c-.106.152-.223.3-.342.439s-.217.247-.332.363a5.847,5.847,0,0,1-.515.462c-.165.129-.333.253-.509.366a5.925,5.925,0,0,1-.94.491,6.322,6.322,0,0,1-.889.291c-.183.044-.368.079-.554.109s-.375.048-.563.074c-.052.007-.107-.015-.157.013h-.744c-.012-.024-.034-.012-.051-.013a5.658,5.658,0,0,1-.61-.062c-.161-.022-.32-.052-.48-.075a4.987,4.987,0,0,1-1.038-.285c-.2-.075-.4-.161-.593-.25a7.153,7.153,0,0,1-.962-.541,6.441,6.441,0,0,1-.519-.385,6.635,6.635,0,0,1-.62-.572l-.006-.007-.015-.015-.031-.034a6.766,6.766,0,0,1-.456-.523,1.2,1.2,0,0,1,.156.116c.051.041.1.084.132.111l.013.01a7.147,7.147,0,0,0,1.423.884,8.093,8.093,0,0,0,1.1.424c.188.057.384.083.576.12.172.034.345.055.517.085.078.013.16.019.24.027a6.9,6.9,0,0,0,.78.037c.223-.007.447-.02.669-.047a7.317,7.317,0,0,0,.777-.13,6,6,0,0,0,1.126-.369,6.082,6.082,0,0,0,1.194-.7,6.393,6.393,0,0,0,.824-.753,5.8,5.8,0,0,0,.531-.667,7.1,7.1,0,0,0,.595-1.024,7.853,7.853,0,0,0,.462-1.243c.066-.236.119-.475.166-.716.034-.176.057-.353.085-.53a2.916,2.916,0,0,0,.027-.3c.08-1.352.027-2.7.036-4.058s0-2.71,0-4.065v-.074l.141.119a5.693,5.693,0,0,0,.7.5,6.841,6.841,0,0,0,.677.363,8.679,8.679,0,0,0,1.242.468c.307.091.619.165.933.229.24.048.48.089.722.121.147.02.3.034.445.044.1.006.2,0,.293.01.053,0,.061-.017.061-.062,0-.464,0-.929,0-1.394v-1.468l.011,0a1.7,1.7,0,0,0,.263.05c.136.02.274.036.411.051.058.006.116,0,.174.011.031.006.039.015.037.042a.241.241,0,0,0,0,.026Q261.279,159.652,261.28,161.471Z" transform="translate(-241.549 -151.313)" fill="#455a64"/>
              <path id="Trazado_107147" data-name="Trazado 107147" d="M249.274,160.477l-.012,0c-.238,0-.476-.011-.713,0a6.792,6.792,0,0,0-1.731.319,5.906,5.906,0,0,0-.622.245,6.131,6.131,0,0,0-.9.5,6.811,6.811,0,0,0-.59.451,6.243,6.243,0,0,0-.538.519,6.314,6.314,0,0,0-.594.741,7.212,7.212,0,0,0-.571.977,7.7,7.7,0,0,0-.325.78,7.959,7.959,0,0,0-.308,1.144c-.037.183-.059.37-.082.555a7.647,7.647,0,0,0-.048,1.095c0,.213.025.425.048.636a6.977,6.977,0,0,0,.184.992,6.85,6.85,0,0,0,.35,1.009,6.77,6.77,0,0,0,.576,1.046,2.594,2.594,0,0,1,.154.243c-.051-.043-.1-.084-.151-.13a7.03,7.03,0,0,1-.678-.763,6.828,6.828,0,0,1-.555-.861,6.857,6.857,0,0,1-.72-2.121c-.03-.182-.051-.367-.07-.551a.786.786,0,0,0-.022-.227V166.2c.016-.01.013-.026.013-.04a4.737,4.737,0,0,1,.049-.522,7.129,7.129,0,0,1,.206-1.039,7.513,7.513,0,0,1,1.068-2.292c.132-.189.276-.37.424-.548a6.235,6.235,0,0,1,.541-.561,6.253,6.253,0,0,1,2.326-1.359,5.924,5.924,0,0,1,.952-.223q.265-.037.532-.063a6.448,6.448,0,0,1,.853-.02,5.291,5.291,0,0,1,.671.059c.074.013.149.02.223.026.045,0,.06.024.06.068C249.273,159.952,249.274,160.215,249.274,160.477Z" transform="translate(-241.356 -151.464)" fill="#ffc727"/>
              <path id="Trazado_107148" data-name="Trazado 107148" d="M255.537,151.69h-2.848c-.066,0-.078.019-.078.081q0,6.757,0,13.516c0,.4,0,.79,0,1.185,0,.225-.023.45-.047.673a5.391,5.391,0,0,1-.154.839,1.573,1.573,0,0,1-.171.348,3.194,3.194,0,0,1-.607.761,2.825,2.825,0,0,1-.577.416,3.047,3.047,0,0,1-.913.331c-.115.021-.23.036-.346.048a3.1,3.1,0,0,1-.346.009,3.236,3.236,0,0,1-1.162-.238,2.823,2.823,0,0,1-.741-.436,2.263,2.263,0,0,1-.6-.731c.057.03.1.051.141.074a3.137,3.137,0,0,0,.827.312,3.265,3.265,0,0,0,.972.071,3.025,3.025,0,0,0,1.2-.337,2.934,2.934,0,0,0,.57-.383,3.327,3.327,0,0,0,.659-.775,1.989,1.989,0,0,0,.29-.771c.029-.19.057-.382.083-.574a2.764,2.764,0,0,0,.026-.348c0-.2.016-.4.015-.6q0-7.152,0-14.3c0-.019,0-.039,0-.057s.009-.048.042-.044h3.593c.094,0,.1,0,.1.095a4.178,4.178,0,0,0,.074.764A.5.5,0,0,1,255.537,151.69Z" transform="translate(-241.807 -150.756)" fill="#ffc727"/>
              <path id="Trazado_107149" data-name="Trazado 107149" d="M250.508,161.419v3.209c0,.082,0,.078-.079.063s-.168-.023-.252-.03c-.123-.01-.246-.01-.37-.015a3.943,3.943,0,0,0-.963.088,3.139,3.139,0,0,0-.861.314,2.907,2.907,0,0,0-.513.359,2.784,2.784,0,0,0-.629.8,3.077,3.077,0,0,0-.3.849c-.025.121-.039.244-.052.367a3.742,3.742,0,0,0-.009.476,2.876,2.876,0,0,0,.079.593c.01.049.022.1.035.142a5.044,5.044,0,0,0,.246.649l-.01-.006a1.684,1.684,0,0,1-.254-.164,2.336,2.336,0,0,1-.78-1.075,3.746,3.746,0,0,1-.158-.559,3.279,3.279,0,0,1-.057-.454c0-.092-.013-.183-.011-.275a3.629,3.629,0,0,1,.15-.961,3.007,3.007,0,0,1,.447-.9,2.783,2.783,0,0,1,.813-.737,3.188,3.188,0,0,1,.941-.373,4.144,4.144,0,0,1,.439-.07,4.519,4.519,0,0,1,.688-.021,2.738,2.738,0,0,1,.481.048c.065.014.077,0,.077-.068q0-1.553,0-3.107l.012,0a.216.216,0,0,0,.091.016,5.009,5.009,0,0,1,.642.06.451.451,0,0,0,.117.015c.042,0,.046.016.046.051C250.508,160.94,250.508,161.18,250.508,161.419Z" transform="translate(-241.695 -151.547)" fill="#455a64"/>
              <path id="Trazado_107150" data-name="Trazado 107150" d="M258.227,155.256h0a.454.454,0,0,1-.138-.093,4.83,4.83,0,0,1-.587-.593,5.194,5.194,0,0,1-.685-1.077,6.016,6.016,0,0,1-.427-1.2c-.037-.151-.068-.3-.1-.455v-.016a.277.277,0,0,1,0-.046h0c.254,0,.508,0,.761,0,.037,0,.045.012.045.047a4.571,4.571,0,0,0,.051.663,6.843,6.843,0,0,0,.232,1.059,6.291,6.291,0,0,0,.345.89c.046.1.095.192.142.276v0a4.88,4.88,0,0,0,.352.537h0l.006.008h0Z" transform="translate(-242.56 -150.838)" fill="#263238"/>
              <path id="Trazado_107151" data-name="Trazado 107151" d="M261.578,156.7c0,.262,0,.525,0,.787l-.011,0a4.943,4.943,0,0,1-.576-.133,5.142,5.142,0,0,1-.947-.372,4.707,4.707,0,0,1-.839-.553,4.28,4.28,0,0,1-.394-.359l-.056-.06a3.489,3.489,0,0,1-.355-.449v0h0c.065.046.131.1.2.142l.029.021a4.65,4.65,0,0,0,.74.418,4.876,4.876,0,0,0,.517.205,5.9,5.9,0,0,0,.981.234,6.454,6.454,0,0,0,.676.074C261.571,156.655,261.578,156.668,261.578,156.7Z" transform="translate(-242.73 -151.144)" fill="#ffc727"/>
            </g>
          </g>
        </g>
        <g id="Grupo_60575" data-name="Grupo 60575" transform="translate(101.531 88.286)">
          <circle id="Elipse_4419" data-name="Elipse 4419" cx="18.685" cy="18.685" r="18.685" transform="matrix(0.926, -0.378, 0.378, 0.926, 0, 14.125)" fill="#263238"/>
          <g id="Grupo_60574" data-name="Grupo 60574" transform="translate(12.937 13.021)">
            <path id="Trazado_107152" data-name="Trazado 107152" d="M332.331,216.976c.489-1.761.923-3.4,1.407-5.021a1.812,1.812,0,0,0-.135-1.451,11.339,11.339,0,1,1,21.575-4.69,11.431,11.431,0,0,1-10.731,10.92,12.155,12.155,0,0,1-5.621-1.062,1.8,1.8,0,0,0-1.077-.082C335.987,216.012,334.238,216.483,332.331,216.976Zm2.748-2.666c1.12-.29,2.066-.565,3.028-.764a1.611,1.611,0,0,1,1,.129,10.091,10.091,0,0,0,4.569,1.19,9.435,9.435,0,0,0,9.426-11,8.842,8.842,0,0,0-7.087-7.4,8.989,8.989,0,0,0-9.831,3.68c-2.368,3.233-2.431,6.718-.5,10.244a1.748,1.748,0,0,1,.143,1.108C335.642,212.4,335.358,213.288,335.079,214.31Z" transform="translate(-332.331 -194.296)" fill="#fff"/>
            <path id="Trazado_107153" data-name="Trazado 107153" d="M339.331,201.512c.77-1.038,1.8-.833,2.344.313.21.449.261.6.468,1.111a1.385,1.385,0,0,1-.314,1.787c-.405.362-.367.681-.086,1.1a7.96,7.96,0,0,0,3.438,2.9.757.757,0,0,0,1.042-.232c.995-1.189,1.009-1.177,2.415-.515.162.075.323.154.484.231a1.316,1.316,0,0,1,.364,2.343,3.161,3.161,0,0,1-3.171.771,11.542,11.542,0,0,1-6.882-5.229,4.374,4.374,0,0,1-.862-2.565A3.806,3.806,0,0,1,339.331,201.512Z" transform="translate(-332.834 -194.823)" fill="#fff"/>
          </g>
        </g>
        <g id="xsrjP0" transform="translate(85.807 122.618)">
          <g id="Grupo_60576" data-name="Grupo 60576">
            <path id="Trazado_107154" data-name="Trazado 107154" d="M315.026,245.017c-.681-.425-1.275-1.043-2.186-.954-.349.036-.273-.254-.276-.443q-.025-5.143-.041-10.277c0-.249.014-.454.285-.592,2.611-1.328,3.737-3.928,5.332-6.151a10.246,10.246,0,0,0,1.873-7.779c-.112-.77.246-1.118.941-1.278a1.718,1.718,0,0,1,1.956.609,13.809,13.809,0,0,1,1.51,4.485,16.084,16.084,0,0,1-.464,3.85c-.116.941-.332,1.872-.508,2.825.23.165.5.078.743.081q4.34-.008,8.682-.026c1.219,0,1.818.344,1.99,1.153a2.32,2.32,0,0,1-1.251,2.514c-.216.109-.608.012-.633.351s.378.308.578.447c1.05.715.861,2.2-.348,3.059-.291.206-.857.113-.87.541-.005.341.524.336.764.576a1.958,1.958,0,0,1-.828,3.028,3.978,3.978,0,0,0-.508.2c-.143.1-.284.206,0,.4a1.705,1.705,0,0,1-.025,3.051c-.124.09-.25.182-.377.272a2.446,2.446,0,0,1-1.522.338q-6.807.036-13.614.049A1.617,1.617,0,0,1,315.026,245.017Z" transform="translate(-302.073 -217.476)" fill="#455a64" fill-rule="evenodd"/>
            <path id="Trazado_107155" data-name="Trazado 107155" d="M301.186,240.275c-.007-2.175,0-4.354-.029-6.529,0-.443.04-.661.583-.656q3.984.036,7.963-.024c.52-.007.6.172.6.634q0,6.57.047,13.14c.005.557-.146.715-.705.708-2.575-.02-5.15-.018-7.724.03-.641.013-.73-.211-.724-.772C301.221,244.629,301.194,242.453,301.186,240.275Z" transform="translate(-301.157 -218.733)" fill="#455a64" fill-rule="evenodd"/>
          </g>
        </g>
        <g id="Grupo_60577" data-name="Grupo 60577" transform="translate(81.922 153.529)">
          <path id="Trazado_107156" data-name="Trazado 107156" d="M300.566,271.291h-1.7a1.916,1.916,0,0,1-1.932-1.932,1.939,1.939,0,0,1,1.932-1.932h2.376l1.115-6.456h-2.158a1.932,1.932,0,0,1,0-3.863h2.829l.735-4.416a1.894,1.894,0,0,1,1.932-1.6,1.984,1.984,0,0,1,1.932,2.267l-.662,3.745h5.821l.743-4.416a1.907,1.907,0,0,1,1.968-1.6,1.962,1.962,0,0,1,1.895,2.267l-.634,3.745h1.714a1.937,1.937,0,0,1,1.922,1.932,1.962,1.962,0,0,1-1.922,1.932h-2.376l-1.116,6.456h2.114a1.916,1.916,0,0,1,1.931,1.932,1.939,1.939,0,0,1-1.931,1.932H314.3l-.781,4.561a1.911,1.911,0,0,1-1.931,1.6,1.96,1.96,0,0,1-1.932-2.257l.707-3.9h-5.831l-.78,4.561a1.934,1.934,0,0,1-1.958,1.6,1.9,1.9,0,0,1-1.9-2.257ZM311,267.428l1.116-6.456h-5.795l-1.115,6.456Z" transform="translate(-296.93 -251.097)" fill="#263238"/>
        </g>
      </g>
    </g>
    <g id="Stars" transform="translate(165.914 57.113)">
      <g id="Grupo_60579" data-name="Grupo 60579">
        <path id="Trazado_107157" data-name="Trazado 107157" d="M342.75,269.176l-5.5,1.015-1.228,5.789-1.228-5.789-5.5-1.018,5.472-1.336,1.252-5.468,1.252,5.468Z" transform="translate(-188.776 -74.33)" fill="#ffc727"/>
        <path id="Trazado_107158" data-name="Trazado 107158" d="M199.55,200.559l-5.5,1.015-1.228,5.789-1.228-5.789-5.5-1.018,5.472-1.336,1.252-5.468,1.252,5.468Z" transform="translate(-177.23 -68.798)" fill="#ffc727"/>
        <path id="Trazado_107159" data-name="Trazado 107159" d="M321.2,72.56l-5.5,1.015-1.228,5.789-1.228-5.789-5.5-1.018,5.472-1.336,1.252-5.468,1.252,5.468Z" transform="translate(-187.038 -58.478)" fill="#ffc727"/>
        <path id="Trazado_107160" data-name="Trazado 107160" d="M199.667,152.6l-3.072.568-.686,3.236-.686-3.236-3.072-.569,3.058-.747.7-3.056.7,3.056Z" transform="translate(-177.718 -65.173)" fill="#ffc727"/>
        <path id="Trazado_107161" data-name="Trazado 107161" d="M220.1,261.629l-3.072.568-.686,3.236-.687-3.236-3.071-.569,3.058-.747.7-3.056.7,3.056Z" transform="translate(-179.365 -73.964)" fill="#ffc727"/>
        <path id="Trazado_107162" data-name="Trazado 107162" d="M388.772,197.145l-3.072.567-.686,3.236-.686-3.236-3.072-.569,3.058-.747.7-3.056.7,3.056Z" transform="translate(-192.965 -68.765)" fill="#ffc727"/>
        <path id="Trazado_107163" data-name="Trazado 107163" d="M351.446,257.9l-3.072.567-.686,3.235L347,258.467l-3.072-.569,3.059-.747.7-3.056.7,3.056Z" transform="translate(-189.955 -73.663)" fill="#ffc727"/>
        <path id="Trazado_107164" data-name="Trazado 107164" d="M209.5,215.259l-3.072.568-.686,3.235-.686-3.235-3.072-.569,3.058-.747.7-3.056.7,3.056Z" transform="translate(-178.511 -70.225)" fill="#ffc727"/>
        <path id="Trazado_107165" data-name="Trazado 107165" d="M303.382,61.644l-3.072.568-.686,3.235-.686-3.235-3.071-.569,3.058-.747.7-3.056.7,3.056Z" transform="translate(-186.08 -57.84)" fill="#ffc727"/>
        <path id="Trazado_107166" data-name="Trazado 107166" d="M219.975,99.472l-3.072.568-.686,3.236-.686-3.236-3.072-.569,3.058-.747.7-3.056.7,3.056Z" transform="translate(-179.355 -60.889)" fill="#ffc727"/>
        <path id="Trazado_107167" data-name="Trazado 107167" d="M356.369,271.473a.89.89,0,0,0,0,1.779A.89.89,0,0,0,356.369,271.473Z" transform="translate(-190.889 -75.064)" fill="#ffc727"/>
        <path id="Trazado_107168" data-name="Trazado 107168" d="M225.072,87.018a.89.89,0,0,0,0,1.78A.89.89,0,0,0,225.072,87.018Z" transform="translate(-180.303 -60.192)" fill="#ffc727"/>
        <path id="Trazado_107169" data-name="Trazado 107169" d="M363.691,114.951a.89.89,0,0,0,0,1.779A.89.89,0,0,0,363.691,114.951Z" transform="translate(-191.479 -62.444)" fill="#ffc727"/>
        <path id="Trazado_107170" data-name="Trazado 107170" d="M404.857,190.779a.89.89,0,0,0,0,1.779A.89.89,0,0,0,404.857,190.779Z" transform="translate(-194.798 -68.558)" fill="#ffc727"/>
        <path id="Trazado_107171" data-name="Trazado 107171" d="M231.49,263.719a.89.89,0,0,0,0,1.78A.89.89,0,0,0,231.49,263.719Z" transform="translate(-180.82 -74.439)" fill="#ffc727"/>
        <path id="Trazado_107172" data-name="Trazado 107172" d="M391.856,185.147a.63.63,0,0,0,0,1.259A.63.63,0,0,0,391.856,185.147Z" transform="translate(-193.77 -68.104)" fill="#ffc727"/>
        <path id="Trazado_107173" data-name="Trazado 107173" d="M227.282,276.918a.63.63,0,0,0,0,1.26A.63.63,0,0,0,227.282,276.918Z" transform="translate(-180.501 -75.503)" fill="#ffc727"/>
        <path id="Trazado_107174" data-name="Trazado 107174" d="M185.5,140.656a.63.63,0,0,0,0,1.259A.63.63,0,0,0,185.5,140.656Z" transform="translate(-177.132 -64.517)" fill="#ffc727"/>
        <path id="Trazado_107175" data-name="Trazado 107175" d="M363.621,104.548a1.707,1.707,0,0,0,0,3.412A1.707,1.707,0,0,0,363.621,104.548Z" transform="translate(-191.41 -61.605)" fill="#ffc727"/>
        <path id="Trazado_107176" data-name="Trazado 107176" d="M178.1,155.233a1.707,1.707,0,0,0,0,3.412A1.707,1.707,0,0,0,178.1,155.233Z" transform="translate(-176.452 -65.692)" fill="#ffc727"/>
      </g>
    </g>
    <g id="Character" transform="translate(62.138 192.214)">
      <g id="Grupo_60612" data-name="Grupo 60612" transform="translate(0 0)">
        <g id="Grupo_60584" data-name="Grupo 60584" transform="translate(70.514 76.545)">
          <g id="Grupo_60582" data-name="Grupo 60582" transform="translate(0.077 0.718)">
            <path id="Trazado_107177" data-name="Trazado 107177" d="M141.332,303.532c6.92,31.164,21.444,68.564,27.714,74.663,7.928,7.713,60.665,22.132,63.3,22.435,6.523.706,19.934-46.177,12.993-47.231-10.568-1.6-49.017-3.974-51.307-6.357-2.373-2.493-18.459-23.081-34.987-46.333C147.637,284.641,137.038,284.2,141.332,303.532Z" transform="translate(-140.357 -288.829)" fill="#eb9481"/>
            <g id="Grupo_60581" data-name="Grupo 60581" transform="translate(86.767 63.874)">
              <path id="Trazado_107178" data-name="Trazado 107178" d="M234.733,403.661c.774.4,11.774,6.032,18.586,8.059,5.082,1.513,19.829,5.476,22.05.046,1.52-3.7-6.878-7.052-12.763-9.555-3.1-1.317-6.909-4.6-5.978-6.594,1.627-3.483,9.607.086,14.85,3.182,10.138,5.989,23.622,16.733,29.879,11.614,2.362-1.936-.341-5.511-4.309-9.026,6.45,4.11,13.337,7.492,16.047,5.445,1.555-1.165,1.638-2.779.791-4.629,2,.664,3.765.55,5.007-.745,2.123-2.189,1.119-5.449-1.161-8.8a2.51,2.51,0,0,0,1.922-1.243c4.51-6.768-17.672-26.453-25.38-28.336-22.674-5.563-46.616-4.731-46.616-4.731C238.683,365.414,234.715,403.646,234.733,403.661Z" transform="translate(-234.733 -358.305)" fill="#eb9481"/>
              <g id="Grupo_60580" data-name="Grupo 60580" transform="translate(33.494 6.697)">
                <path id="Trazado_107179" data-name="Trazado 107179" d="M271.221,385.158a38.556,38.556,0,0,1,15.108,5.941c5.73,3.841,9.518,8.318,14.317,12.833.126.119-.054.318-.181.2-2.286-2.147-11.768-10.221-14.219-12.058A36.7,36.7,0,0,0,271.2,385.25C271.14,385.238,271.161,385.148,271.221,385.158Z" transform="translate(-271.164 -367.167)" fill="#263238"/>
                <path id="Trazado_107180" data-name="Trazado 107180" d="M275.9,374.708c5.958,1.675,12.063,3.369,17.583,6.233,6.041,3.133,10.75,8.205,15.381,13.086q4.172,4.4,8.145,8.977c.111.129-.061.328-.18.2q-7.047-7.563-14.544-14.7a48.546,48.546,0,0,0-16-10.246c-3.407-1.327-6.908-2.389-10.4-3.449C275.81,374.793,275.832,374.689,275.9,374.708Z" transform="translate(-271.541 -366.324)" fill="#263238"/>
                <path id="Trazado_107181" data-name="Trazado 107181" d="M282.906,365.59c5.791,1.233,10.844,2.288,15.958,5.433,6.769,4.163,13.283,11.144,15.569,13.618,2.525,2.733,4.955,5.548,7.342,8.4.1.116-.1.288-.2.173A192.574,192.574,0,0,0,304,375.565a38.313,38.313,0,0,0-9.846-6.5,69.017,69.017,0,0,0-11.26-3.431A.02.02,0,0,1,282.906,365.59Z" transform="translate(-272.109 -365.589)" fill="#263238"/>
              </g>
            </g>
          </g>
          <g id="Grupo_60583" data-name="Grupo 60583">
            <path id="Trazado_107182" data-name="Trazado 107182" d="M236.4,350.736,219.776,402.1s-43.9-12.875-51.879-21.605-22.492-53.6-26.7-75.334,6.76-21.114,16.745-7.361,34.852,47.092,36.25,47.823S236.4,350.736,236.4,350.736Z" transform="translate(-140.273 -288.048)" fill="#f17781"/>
            <path id="Trazado_107183" data-name="Trazado 107183" d="M145.6,314.32a2.051,2.051,0,0,1-.9-.3,1.732,1.732,0,0,1-.781-1.462,2.2,2.2,0,0,0-1.425-2.032,2.538,2.538,0,0,0-.248-.074c.055.294.129.588.193.892l.009.009a1.619,1.619,0,0,1,.579,1.223,2.232,2.232,0,0,0,1.361,2.069,2.15,2.15,0,0,0,1.214.12c.359-.074.717-.12,1.085-.221C146.313,314.44,145.954,314.394,145.6,314.32Zm79.084,45.628a2.012,2.012,0,0,1-.892-.3,1.7,1.7,0,0,1-.781-1.462,2.219,2.219,0,0,0-1.434-2.032,2.188,2.188,0,0,0-1.2-.083c-.359.074-.726.12-1.085.221.359.1.726.147,1.085.221a2.083,2.083,0,0,1,.919.276,1.7,1.7,0,0,1,.827,1.416,2.224,2.224,0,0,0,1.352,2.069,2.164,2.164,0,0,0,1.214.119c.368-.073.726-.119,1.094-.221C225.406,360.068,225.048,360.022,224.68,359.948ZM153.8,345.211a1.809,1.809,0,0,1-.892-.3,1.684,1.684,0,0,1-.781-1.453,2.223,2.223,0,0,0-1.26-1.967c.4,1.259.818,2.519,1.241,3.769a1.661,1.661,0,0,0,.478.276,2.164,2.164,0,0,0,1.214.12c.368-.074.726-.12,1.094-.221C154.523,345.33,154.164,345.284,153.8,345.211ZM203.718,393.6a2.054,2.054,0,0,1-.892-.3,1.732,1.732,0,0,1-.781-1.462,2.2,2.2,0,0,0-1.425-2.032,2.224,2.224,0,0,0-1.214-.083c-.359.074-.717.119-1.085.221.368.1.726.147,1.085.221a1.971,1.971,0,0,1,.919.276,1.688,1.688,0,0,1,.827,1.416,2.227,2.227,0,0,0,1.361,2.069,2.126,2.126,0,0,0,1.2.119c.368-.083.726-.119,1.094-.221C204.445,393.717,204.086,393.671,203.718,393.6Zm-19.812-29.539a1.876,1.876,0,0,1-.9-.3,1.676,1.676,0,0,1-.772-1.453,2.232,2.232,0,0,0-1.434-2.041,2.186,2.186,0,0,0-1.2-.074c-.368.074-.726.11-1.094.211.368.1.726.147,1.094.221a2.167,2.167,0,0,1,.91.276,1.659,1.659,0,0,1,.827,1.416,2.246,2.246,0,0,0,1.361,2.069,2.149,2.149,0,0,0,1.214.119c.359-.074.726-.119,1.085-.221C184.632,364.178,184.265,364.132,183.906,364.058Zm-4.487-22.81a2.085,2.085,0,0,1-.837.451,1.687,1.687,0,0,1-1.591-.423,2.246,2.246,0,0,0-2.427-.5,2.124,2.124,0,0,0-.938.772c-.2.313-.423.6-.616.929.331-.184.616-.414.929-.616a2.035,2.035,0,0,1,.846-.423,1.694,1.694,0,0,1,1.581.487,2.176,2.176,0,0,0,3.365-.377c.2-.3.432-.588.616-.919C180.017,340.816,179.732,341.046,179.419,341.248Zm43.817,39.671c-.074-.359-.12-.726-.221-1.085-.1.359-.138.726-.221,1.085a1.971,1.971,0,0,1-.276.919,1.688,1.688,0,0,1-1.416.827,2.233,2.233,0,0,0-2.069,1.351,2.164,2.164,0,0,0-.12,1.214c.083.368.12.726.221,1.094.1-.368.147-.726.221-1.094a2.012,2.012,0,0,1,.3-.892,1.711,1.711,0,0,1,1.462-.781,2.219,2.219,0,0,0,2.032-1.434A2.188,2.188,0,0,0,223.237,380.919Zm-25.467-33.6a1.8,1.8,0,0,0-.451.671,2.15,2.15,0,0,0-.12,1.214c.074.368.12.726.221,1.085.1-.359.147-.717.221-1.085a2.012,2.012,0,0,1,.3-.892,1.676,1.676,0,0,1,1.4-.781C198.781,347.454,198.248,347.381,197.77,347.316Zm-31.507-24.5c-.074-.368-.11-.726-.211-1.094-.1.368-.147.726-.221,1.094a2.167,2.167,0,0,1-.276.91,1.66,1.66,0,0,1-1.416.827,2.259,2.259,0,0,0-2.078,1.361,2.067,2.067,0,0,0-.11,1.214c.074.359.12.726.221,1.085.1-.359.147-.726.221-1.085a1.937,1.937,0,0,1,.294-.9,1.7,1.7,0,0,1,1.462-.772,2.232,2.232,0,0,0,2.041-1.434A2.185,2.185,0,0,0,166.263,322.815Zm-6.206-21.256h-.009a2.073,2.073,0,0,0-1.1.193,2.2,2.2,0,0,0-.91.791c-.2.313-.423.6-.607.929.322-.184.607-.414.919-.616a2.116,2.116,0,0,1,.846-.45,1.66,1.66,0,0,1,1.581.414,2,2,0,0,0,.451.34C160.82,302.607,160.425,302.074,160.057,301.559Zm1.609,62.416a2.009,2.009,0,0,1-.846.414,1.689,1.689,0,0,1-1.581-.478,1.854,1.854,0,0,0-.487-.359c.193.506.4,1,.607,1.5a2.179,2.179,0,0,0,1.682.009,2.142,2.142,0,0,0,.938-.781c.2-.3.423-.588.616-.919C162.264,363.543,161.979,363.764,161.666,363.975Zm46.419,5.434a1.991,1.991,0,0,1-.855.414,1.7,1.7,0,0,1-1.581-.478,2.207,2.207,0,0,0-2.446-.432,2.23,2.23,0,0,0-.91.8c-.211.313-.432.6-.616.929.331-.184.616-.414.919-.616a2.116,2.116,0,0,1,.846-.45,1.659,1.659,0,0,1,1.581.414,2.235,2.235,0,0,0,2.427.506,2.187,2.187,0,0,0,.938-.772c.211-.313.432-.6.616-.929C208.674,368.977,208.389,369.207,208.085,369.409Zm-19.932,10.775a1.933,1.933,0,0,1-.846.423,1.7,1.7,0,0,1-1.581-.487,2.235,2.235,0,0,0-2.455-.423,2.2,2.2,0,0,0-.91.791c-.2.313-.432.6-.616.929.331-.184.616-.414.929-.616a2.145,2.145,0,0,1,.837-.45,1.7,1.7,0,0,1,1.591.414,2.232,2.232,0,0,0,2.427.506,2.124,2.124,0,0,0,.938-.772c.2-.313.432-.6.616-.929C188.751,379.752,188.466,379.982,188.153,380.184Z" transform="translate(-140.431 -289.136)" fill="#fff"/>
            <path id="Trazado_107184" data-name="Trazado 107184" d="M220.949,384.123c1.882-5.734,3.81-11.454,5.479-17.261.948-3.3,1.915-6.594,2.832-9.9.034-.125-.176-.2-.222-.08-2.117,5.678-4.228,11.378-6.084,17.155-1.847,5.748-3.742,11.48-5.514,17.253-1.008,3.283-1.913,6.585-2.72,9.927-.016.067.09.107.117.042C217.146,395.647,219.055,389.9,220.949,384.123Z" transform="translate(-146.275 -293.592)" fill="#263238"/>
            <path id="Trazado_107185" data-name="Trazado 107185" d="M197.639,394.86l-1.944-.7c-3.655-1.335-7.383-2.767-10.891-4.231-.453-.182-.9-.372-1.337-.562-.7-.3-1.409-.6-2.09-.909-.348-.149-.68-.305-1.021-.454-.121-.058-.243-.108-.364-.165-.357-.165-.705-.33-1.053-.5-1.393-.652-2.713-1.3-3.943-1.962-.283-.149-.575-.305-.85-.462a30.6,30.6,0,0,1-5.4-3.606c-.154-.14-.306-.279-.444-.417s-.282-.279-.4-.41c-7.982-8.727-22.5-53.6-26.7-75.336-.047-.253-.094-.5-.141-.748l-.024-.163c-.28-1.652-.526-3.693-.721-5.9v-.025c-.531-10.8,4.592-12.529,10.871-7.738C166.741,324.489,190.446,380.474,197.639,394.86Z" transform="translate(-140.273 -288.048)" fill="#263238"/>
          </g>
        </g>
        <g id="Grupo_60585" data-name="Grupo 60585" transform="translate(0 72.9)">
          <path id="Trazado_107186" data-name="Trazado 107186" d="M171.671,408.342l-108.1-.177c.257-2.131,30.732-103.107,51.446-120.326,8.83-7.339,25.061-1.955,27.128-.267C162.183,303.929,173.181,407.1,171.671,408.342Z" transform="translate(-63.575 -284.083)" fill="#f17781"/>
          <path id="Trazado_107187" data-name="Trazado 107187" d="M93.583,328.431a1.983,1.983,0,0,1-.846.423,1.694,1.694,0,0,1-.68,0c-.11.257-.221.515-.331.781a2.015,2.015,0,0,0,1.232-.119,2.065,2.065,0,0,0,.938-.772c.2-.313.432-.6.616-.929C94.18,328.008,93.9,328.228,93.583,328.431Zm3.282,67.4a2.009,2.009,0,0,1-.846.414,1.689,1.689,0,0,1-1.581-.478,2.221,2.221,0,0,0-2.455-.432,2.29,2.29,0,0,0-.91.8c-.2.313-.432.6-.616.929.331-.184.616-.414.929-.616a2.085,2.085,0,0,1,.837-.45,1.683,1.683,0,0,1,1.591.414,2.232,2.232,0,0,0,2.427.506,2.186,2.186,0,0,0,.938-.772c.2-.313.423-.6.616-.929C97.462,395.4,97.177,395.627,96.865,395.83Zm41-4.661a2.035,2.035,0,0,1-.846.423,1.713,1.713,0,0,1-1.591-.478,2.2,2.2,0,0,0-2.446-.432,2.229,2.229,0,0,0-.91.8c-.2.313-.432.6-.616.919.331-.184.616-.4.919-.607a2.143,2.143,0,0,1,.846-.46,1.686,1.686,0,0,1,1.591.423,2.234,2.234,0,0,0,2.418.506,2.168,2.168,0,0,0,.947-.781c.2-.3.423-.6.607-.919C138.466,390.746,138.172,390.966,137.869,391.168Zm18.066-28.51a2.01,2.01,0,0,1-.846.414,1.689,1.689,0,0,1-1.581-.478,2.221,2.221,0,0,0-2.455-.432,2.29,2.29,0,0,0-.91.8c-.2.313-.432.6-.616.929.331-.193.616-.414.929-.616a1.978,1.978,0,0,1,.837-.45,1.66,1.66,0,0,1,1.59.414,2.249,2.249,0,0,0,2.427.506,2.142,2.142,0,0,0,.938-.781c.2-.3.423-.588.616-.919C156.532,362.227,156.247,362.447,155.935,362.659ZM117.45,407.386a1.934,1.934,0,0,1-.846.423,1.7,1.7,0,0,1-1.581-.487,2.235,2.235,0,0,0-2.455-.423,2.2,2.2,0,0,0-.91.791c-.138.221-.294.423-.432.644h.248c.165-.1.331-.221.5-.331a2.115,2.115,0,0,1,.846-.45,1.688,1.688,0,0,1,1.581.414,2.213,2.213,0,0,0,.5.377h2.188a2.185,2.185,0,0,0,.68-.644c.2-.313.432-.6.616-.929C118.047,406.954,117.762,407.184,117.45,407.386Zm-8.6-40.7a1.911,1.911,0,0,1-.846.414,1.7,1.7,0,0,1-1.581-.478,2.221,2.221,0,0,0-2.455-.432,2.29,2.29,0,0,0-.91.8c-.2.313-.432.6-.616.929.331-.193.616-.414.929-.616a2.007,2.007,0,0,1,.846-.451,1.666,1.666,0,0,1,1.581.414,2.249,2.249,0,0,0,2.427.506,2.142,2.142,0,0,0,.938-.781c.2-.3.432-.588.616-.919C109.451,366.253,109.166,366.474,108.853,366.686Zm23.554-38.255a2.035,2.035,0,0,1-.846.423,1.672,1.672,0,0,1-1.581-.487,2.176,2.176,0,0,0-3.365.377c-.2.3-.432.6-.616.919.331-.184.616-.4.929-.616a2.14,2.14,0,0,1,.837-.451,1.687,1.687,0,0,1,1.591.423,2.246,2.246,0,0,0,2.427.5,2.065,2.065,0,0,0,.938-.772c.2-.313.423-.6.607-.929C133.005,328.008,132.711,328.228,132.408,328.431Zm19.463-26.551c-.064.092-.12.184-.175.276a1.947,1.947,0,0,0,.23-.147C151.908,301.962,151.889,301.925,151.871,301.879ZM72.584,383.1c-.074-.359-.12-.726-.221-1.085-.1.359-.147.726-.221,1.085a2.005,2.005,0,0,1-.276.919,2.059,2.059,0,0,1-.313.386l-.009.009c-.129.4-.257.809-.4,1.2A2.225,2.225,0,0,0,72.5,384.3,2.187,2.187,0,0,0,72.584,383.1Zm41.436,2.988c-.074-.368-.11-.726-.211-1.094-.1.368-.147.726-.221,1.094a2.21,2.21,0,0,1-.276.91,1.659,1.659,0,0,1-1.416.827,2.259,2.259,0,0,0-2.078,1.361,2.067,2.067,0,0,0-.11,1.214c.074.359.12.726.221,1.085.1-.359.147-.726.221-1.085a1.937,1.937,0,0,1,.294-.9,1.7,1.7,0,0,1,1.462-.772,2.232,2.232,0,0,0,2.041-1.434A2.185,2.185,0,0,0,114.02,386.084Zm44.9-62.931a1.63,1.63,0,0,1-.515.083,2.259,2.259,0,0,0-2.078,1.361,2.067,2.067,0,0,0-.11,1.214c.074.359.12.726.221,1.085.1-.359.147-.726.221-1.085a1.936,1.936,0,0,1,.294-.9,1.7,1.7,0,0,1,1.462-.772,2.167,2.167,0,0,0,.726-.138C159.07,323.714,159,323.438,158.922,323.153Zm-48.708-9.387c-.074-.368-.12-.726-.221-1.085-.1.359-.147.717-.221,1.085a2.167,2.167,0,0,1-.276.91,1.659,1.659,0,0,1-1.416.827,2.246,2.246,0,0,0-2.069,1.361,2.149,2.149,0,0,0-.12,1.214c.074.359.12.726.221,1.085.1-.359.147-.726.221-1.085a2.092,2.092,0,0,1,.3-.9,1.68,1.68,0,0,1,1.462-.772,2.219,2.219,0,0,0,2.032-1.434A2.192,2.192,0,0,0,110.214,313.767ZM93,350.679c-.074-.359-.12-.726-.221-1.085-.1.359-.147.726-.221,1.085a2.211,2.211,0,0,1-.276.919,1.67,1.67,0,0,1-1.416.818,2.246,2.246,0,0,0-2.069,1.361,2.15,2.15,0,0,0-.12,1.214c.074.368.12.726.221,1.085.1-.359.147-.717.221-1.085a2.012,2.012,0,0,1,.3-.892,1.688,1.688,0,0,1,1.462-.781,2.229,2.229,0,0,0,2.032-1.434A2.188,2.188,0,0,0,93,350.679Zm78.753,46.713a1.648,1.648,0,0,1-.781.2,2.246,2.246,0,0,0-2.069,1.361,2.15,2.15,0,0,0-.119,1.214c.074.359.119.726.221,1.085.1-.359.147-.726.221-1.085a2.052,2.052,0,0,1,.3-.9,1.7,1.7,0,0,1,1.462-.772,2.218,2.218,0,0,0,.846-.184C171.812,398.009,171.785,397.705,171.757,397.393ZM128.16,348.4c-.074-.368-.12-.726-.221-1.085-.1.358-.147.717-.221,1.085a2.043,2.043,0,0,1-.276.91,1.659,1.659,0,0,1-1.416.827,2.246,2.246,0,0,0-2.069,1.361,2.15,2.15,0,0,0-.12,1.214c.074.359.12.726.221,1.085.1-.359.147-.726.221-1.085a2.093,2.093,0,0,1,.3-.9,1.7,1.7,0,0,1,1.462-.772,2.219,2.219,0,0,0,2.032-1.434A2.193,2.193,0,0,0,128.16,348.4Zm8.072-63.179a1.937,1.937,0,0,1-.147.313,1.679,1.679,0,0,1-1.416.827,2.232,2.232,0,0,0-2.069,1.361,2.15,2.15,0,0,0-.12,1.214c.074.359.12.726.221,1.085.1-.359.147-.726.221-1.085a2.052,2.052,0,0,1,.3-.9,1.68,1.68,0,0,1,1.462-.772,2.219,2.219,0,0,0,2.032-1.434,1.6,1.6,0,0,0,.11-.46C136.637,285.321,136.435,285.266,136.232,285.22Zm-16.015,13.009a2.143,2.143,0,0,1-.846.46,1.663,1.663,0,0,1-1.581-.423,2.252,2.252,0,0,0-2.427-.506,2.141,2.141,0,0,0-.938.782c-.2.3-.432.6-.616.919.331-.184.616-.4.929-.607a1.934,1.934,0,0,1,.846-.423,1.7,1.7,0,0,1,1.581.478,2.222,2.222,0,0,0,2.455.432,2.29,2.29,0,0,0,.91-.8c.2-.313.423-.6.607-.919C120.814,297.806,120.529,298.027,120.217,298.229Zm27.848,45.665a1.808,1.808,0,0,1-.892-.3,1.684,1.684,0,0,1-.781-1.453,2.218,2.218,0,0,0-1.434-2.041,2.182,2.182,0,0,0-1.2-.074c-.359.074-.726.11-1.085.211.359.1.726.147,1.085.221a2.211,2.211,0,0,1,.919.276,1.7,1.7,0,0,1,.827,1.416,2.214,2.214,0,0,0,1.351,2.069,2.164,2.164,0,0,0,1.214.12c.368-.074.726-.12,1.094-.221C148.791,344.014,148.432,343.968,148.065,343.894Zm-57,35.984a2.051,2.051,0,0,1-.9-.3,1.709,1.709,0,0,1-.781-1.462,2.2,2.2,0,0,0-1.425-2.032A2.225,2.225,0,0,0,86.743,376c-.359.074-.717.119-1.085.221.368.1.726.147,1.085.221a2.084,2.084,0,0,1,.919.276,1.7,1.7,0,0,1,.827,1.416A2.218,2.218,0,0,0,89.85,380.2a2.149,2.149,0,0,0,1.214.12c.359-.074.717-.12,1.085-.221C91.781,380,91.422,379.952,91.064,379.879Zm39.037-6.417a2.051,2.051,0,0,1-.9-.3,1.7,1.7,0,0,1-.772-1.462,2.18,2.18,0,0,0-2.639-2.115c-.368.074-.726.12-1.094.221.368.1.726.138,1.094.212a2.084,2.084,0,0,1,.91.285,1.668,1.668,0,0,1,.827,1.416,2.241,2.241,0,0,0,1.361,2.069,2.066,2.066,0,0,0,1.214.11c.359-.074.726-.11,1.085-.211C130.826,373.572,130.459,373.535,130.1,373.461ZM78.036,407.037a2.051,2.051,0,0,1-.9-.3,1.709,1.709,0,0,1-.781-1.462,2.2,2.2,0,0,0-1.425-2.032,2.225,2.225,0,0,0-1.214-.083c-.359.074-.717.12-1.085.221.368.1.726.147,1.085.221a2.083,2.083,0,0,1,.919.276,1.7,1.7,0,0,1,.827,1.416,2.218,2.218,0,0,0,1.361,2.069,2.15,2.15,0,0,0,1.214.12c.359-.074.717-.12,1.085-.221C78.753,407.156,78.395,407.11,78.036,407.037Zm71.49-.009A2.219,2.219,0,0,0,148.092,405a2.187,2.187,0,0,0-1.2-.083c-.368.074-.726.12-1.085.221.359.1.717.147,1.085.221a2.167,2.167,0,0,1,.91.276,1.659,1.659,0,0,1,.827,1.416,2.274,2.274,0,0,0,.451,1.352h1.112A1.632,1.632,0,0,1,149.526,407.028Zm-41.188-64a1.9,1.9,0,0,1-.892-.3,1.688,1.688,0,0,1-.781-1.462,2.229,2.229,0,0,0-1.434-2.032,2.187,2.187,0,0,0-1.2-.083c-.359.074-.726.12-1.085.221.359.1.726.147,1.085.221a2.212,2.212,0,0,1,.919.276,1.67,1.67,0,0,1,.818,1.416,2.246,2.246,0,0,0,1.361,2.069,2.157,2.157,0,0,0,1.214.12c.368-.074.726-.12,1.085-.221C109.065,343.15,108.706,343.1,108.339,343.03Zm48.525,41.74a1.973,1.973,0,0,1-.9-.294,1.7,1.7,0,0,1-.772-1.462,2.232,2.232,0,0,0-1.434-2.041,2.27,2.27,0,0,0-1.2-.074c-.368.074-.726.11-1.085.211a10.786,10.786,0,0,0,1.085.221,2.167,2.167,0,0,1,.91.276,1.671,1.671,0,0,1,.827,1.416,2.259,2.259,0,0,0,1.361,2.078,2.067,2.067,0,0,0,1.214.11c.359-.074.726-.12,1.085-.221C157.589,384.889,157.222,384.852,156.863,384.77Zm-17-71.766a2.052,2.052,0,0,1-.9-.3,1.732,1.732,0,0,1-.781-1.462,2.2,2.2,0,0,0-1.425-2.032,2.225,2.225,0,0,0-1.214-.083c-.359.074-.717.12-1.085.221.368.1.726.147,1.085.221a1.971,1.971,0,0,1,.919.276,1.688,1.688,0,0,1,.827,1.416,2.232,2.232,0,0,0,1.361,2.069,2.15,2.15,0,0,0,1.214.12c.359-.074.717-.12,1.085-.221C140.581,313.123,140.222,313.077,139.864,313Z" transform="translate(-64.186 -284.174)" fill="#fff"/>
        </g>
        <g id="Grupo_60596" data-name="Grupo 60596" transform="translate(18.442 47.985)">
          <g id="Grupo_60589" data-name="Grupo 60589" transform="translate(72.565)">
            <g id="Grupo_60588" data-name="Grupo 60588">
              <g id="Grupo_60587" data-name="Grupo 60587">
                <path id="Trazado_107188" data-name="Trazado 107188" d="M175.312,262.932s-4.627-8.7-10.3-5.06.3,11.473.3,11.473Z" transform="translate(-162.563 -256.983)" fill="#dd6a57"/>
                <rect id="Rectángulo_6005" data-name="Rectángulo 6005" width="11.884" height="69.275" transform="translate(49.918 63.947) rotate(147.344)" fill="#ffc727"/>
                <rect id="Rectángulo_6006" data-name="Rectángulo 6006" width="13.877" height="2.754" transform="matrix(-0.842, 0.54, -0.54, -0.842, 14.663, 7.09)" fill="#37474f"/>
                <rect id="Rectángulo_6007" data-name="Rectángulo 6007" width="13.877" height="2.754" transform="matrix(-0.842, 0.54, -0.54, -0.842, 16.306, 9.652)" fill="#37474f"/>
                <g id="Grupo_60586" data-name="Grupo 60586" transform="translate(39.907 63.136)">
                  <path id="Trazado_107189" data-name="Trazado 107189" d="M205.969,332.88l8.379,4.786,2.757,1.588-.269-3.182-.849-9.612-1.944-.8s-.051,2.052-.059,2.088l-1.944-.8s-.052,2.051-.059,2.088l-1.922-.818s-.074,2.066-.082,2.1l-1.922-.817s-.074,2.066-.082,2.1l-1.922-.818S205.977,332.845,205.969,332.88Z" transform="translate(-205.969 -325.656)" fill="#ebebeb"/>
                  <path id="Trazado_107190" data-name="Trazado 107190" d="M215.083,338.58l2.757,1.588-.269-3.182Z" transform="translate(-206.704 -326.569)" fill="#37474f"/>
                </g>
              </g>
            </g>
          </g>
          <g id="Grupo_60595" data-name="Grupo 60595" transform="translate(0 30.42)">
            <g id="Grupo_60592" data-name="Grupo 60592" transform="translate(1.515 0.898)">
              <path id="Trazado_107191" data-name="Trazado 107191" d="M104.235,308.036c-10.406,24.3-26.38,75.241-15.068,91.486,10.9,15.645,74.558-18.479,87.47-25.468,5.3-2.868-8.185-48.168-14.185-45.821-13.175,5.156-40.123,23.143-40.827,22.8-.625-.3.5-20.986.9-41.349C123.107,280.056,111.715,290.572,104.235,308.036Z" transform="translate(-85.283 -291.048)" fill="#eb9481"/>
              <g id="Grupo_60591" data-name="Grupo 60591" transform="translate(61.6 7.989)">
                <path id="Trazado_107192" data-name="Trazado 107192" d="M205.6,300.971c4.321,3.718.413,8.121.413,8.121a10.647,10.647,0,0,1,6.852,2.344c3.287,2.9.175,9.331.175,9.331a13.131,13.131,0,0,1,6.833,3.623c2.867,3.1.651,10.029.651,10.029a11.509,11.509,0,0,1,4,6.97c.92,7.336-7.79,14.524-13.358,19.054-8.273,6.729-25.479,12.433-29.13,14.313l-29.755-35.181s19.186-27.19,26.161-32.092C185.57,302.473,201.356,297.315,205.6,300.971Z" transform="translate(-152.285 -299.738)" fill="#eb9481"/>
                <g id="Grupo_60590" data-name="Grupo 60590" transform="translate(32.581 8.985)">
                  <path id="Trazado_107193" data-name="Trazado 107193" d="M208.153,309.52c-7.462,2.446-13.792,6.967-20.369,11.119a.135.135,0,0,0,.146.226c6.492-4.205,13.735-7.068,20.382-11.007A.189.189,0,0,0,208.153,309.52Z" transform="translate(-187.724 -309.511)" fill="#263238"/>
                  <path id="Trazado_107194" data-name="Trazado 107194" d="M216.234,322.212a20.476,20.476,0,0,0-4.579,2.772q-2.328,1.638-4.6,3.353-4.55,3.43-8.923,7.085c-.129.109,0,.332.146.226,3.027-2.274,6.087-4.5,9.207-6.646q2.34-1.609,4.708-3.182a24.335,24.335,0,0,0,4.32-3.17A.271.271,0,0,0,216.234,322.212Z" transform="translate(-188.559 -310.533)" fill="#263238"/>
                  <path id="Trazado_107195" data-name="Trazado 107195" d="M224.928,337.56c-1.474.467-2.791,1.773-3.989,2.716q-2.041,1.605-4.1,3.189c-2.743,2.111-5.487,4.219-8.3,6.232-.141.1,0,.327.146.226,2.87-2.031,5.768-4.023,8.621-6.08q2.1-1.514,4.186-3.052a13.385,13.385,0,0,0,3.548-3.1C225.083,337.622,225,337.537,224.928,337.56Z" transform="translate(-189.397 -311.772)" fill="#263238"/>
                </g>
              </g>
            </g>
            <g id="Grupo_60594" data-name="Grupo 60594">
              <path id="Trazado_107196" data-name="Trazado 107196" d="M146.582,334.3l23.687,46.942s-54.729,25.272-73.859,22.481-9.807-39.3-8.536-47.54c.908-5.888,11.381-41.423,19.4-55.828s14.945-14.568,15.787,5.185S122,349.278,122.8,348.929,146.582,334.3,146.582,334.3Z" transform="translate(-83.703 -290.071)" fill="#f17781"/>
              <path id="Trazado_107197" data-name="Trazado 107197" d="M158.135,385.855a1.974,1.974,0,0,1-.9-.294,1.7,1.7,0,0,1-.772-1.462,2.232,2.232,0,0,0-1.434-2.041,2.269,2.269,0,0,0-1.2-.074c-.368.074-.726.11-1.085.211a10.791,10.791,0,0,0,1.085.221,2.168,2.168,0,0,1,.91.276,1.671,1.671,0,0,1,.827,1.416,2.259,2.259,0,0,0,1.361,2.078,2.067,2.067,0,0,0,1.214.11c.359-.074.726-.12,1.085-.221C158.862,385.975,158.494,385.938,158.135,385.855Zm-48.524-41.74a1.9,1.9,0,0,1-.892-.3,1.688,1.688,0,0,1-.781-1.462,2.229,2.229,0,0,0-1.434-2.032,2.188,2.188,0,0,0-1.2-.083c-.359.074-.726.12-1.085.221.359.1.726.147,1.085.221a2.211,2.211,0,0,1,.919.276,1.67,1.67,0,0,1,.818,1.416,2.246,2.246,0,0,0,1.361,2.069,2.157,2.157,0,0,0,1.214.12c.368-.074.726-.12,1.085-.221C110.337,344.235,109.979,344.189,109.611,344.116Zm21.762,30.431a2.051,2.051,0,0,1-.9-.3,1.7,1.7,0,0,1-.772-1.462,2.18,2.18,0,0,0-2.639-2.115c-.368.074-.726.119-1.094.221.368.1.726.138,1.094.211a2.083,2.083,0,0,1,.91.285,1.668,1.668,0,0,1,.827,1.416,2.241,2.241,0,0,0,1.361,2.069,2.067,2.067,0,0,0,1.214.11c.359-.074.726-.11,1.085-.211C132.1,374.657,131.731,374.62,131.372,374.547Zm-39.037,6.417a2.051,2.051,0,0,1-.9-.3,1.709,1.709,0,0,1-.781-1.462,2.2,2.2,0,0,0-1.425-2.032,2.225,2.225,0,0,0-1.214-.083c-.359.074-.717.119-1.085.221.368.1.726.147,1.085.221a2.085,2.085,0,0,1,.919.276,1.7,1.7,0,0,1,.827,1.416,2.218,2.218,0,0,0,1.361,2.069,2.149,2.149,0,0,0,1.214.12c.359-.074.717-.12,1.085-.221C93.053,381.084,92.694,381.038,92.336,380.964Zm57-35.984a1.808,1.808,0,0,1-.892-.3,1.684,1.684,0,0,1-.781-1.453,2.218,2.218,0,0,0-1.434-2.041,2.181,2.181,0,0,0-1.2-.074c-.359.074-.726.11-1.085.211.359.1.726.147,1.085.221a2.211,2.211,0,0,1,.919.276,1.7,1.7,0,0,1,.827,1.416,2.214,2.214,0,0,0,1.351,2.069,2.164,2.164,0,0,0,1.214.119c.368-.074.726-.119,1.094-.221C150.063,345.1,149.7,345.053,149.337,344.98Zm-27.848-45.665a2.143,2.143,0,0,1-.846.46,1.663,1.663,0,0,1-1.581-.423,2.252,2.252,0,0,0-2.427-.506,2.141,2.141,0,0,0-.938.781c-.2.3-.432.6-.616.919.331-.184.616-.4.929-.607a1.933,1.933,0,0,1,.846-.423,1.7,1.7,0,0,1,1.581.478,2.221,2.221,0,0,0,2.455.432,2.29,2.29,0,0,0,.91-.8c.2-.313.423-.6.607-.919C122.087,298.892,121.8,299.112,121.489,299.315Zm7.943,50.17c-.074-.368-.12-.726-.221-1.085-.1.358-.147.717-.221,1.085a2.042,2.042,0,0,1-.276.91,1.659,1.659,0,0,1-1.416.827,2.246,2.246,0,0,0-2.069,1.361,2.15,2.15,0,0,0-.12,1.214c.074.359.12.726.221,1.085.1-.359.147-.726.221-1.085a2.093,2.093,0,0,1,.3-.9,1.7,1.7,0,0,1,1.462-.772,2.219,2.219,0,0,0,2.032-1.434A2.192,2.192,0,0,0,129.433,349.485Zm-35.157,2.28c-.074-.359-.12-.726-.221-1.085-.1.359-.147.726-.221,1.085a2.211,2.211,0,0,1-.276.919,1.67,1.67,0,0,1-1.416.818,2.246,2.246,0,0,0-2.069,1.361,2.15,2.15,0,0,0-.12,1.214c.074.368.12.726.221,1.085.1-.359.147-.717.221-1.085a2.012,2.012,0,0,1,.3-.892,1.688,1.688,0,0,1,1.462-.781,2.229,2.229,0,0,0,2.032-1.434A2.187,2.187,0,0,0,94.276,351.765Zm17.211-36.913c-.074-.368-.12-.726-.221-1.085-.1.359-.147.717-.221,1.085a2.168,2.168,0,0,1-.276.91,1.659,1.659,0,0,1-1.416.827,2.246,2.246,0,0,0-2.069,1.361,2.15,2.15,0,0,0-.12,1.214c.074.359.12.726.221,1.085.1-.359.147-.726.221-1.085a2.093,2.093,0,0,1,.3-.9,1.68,1.68,0,0,1,1.462-.772,2.219,2.219,0,0,0,2.032-1.434A2.192,2.192,0,0,0,111.486,314.852Zm3.806,72.318c-.074-.368-.11-.726-.211-1.094-.1.368-.147.726-.221,1.094a2.21,2.21,0,0,1-.276.91,1.659,1.659,0,0,1-1.416.827,2.259,2.259,0,0,0-2.078,1.361,2.067,2.067,0,0,0-.11,1.214c.074.359.12.726.221,1.085.1-.359.147-.726.221-1.085a1.937,1.937,0,0,1,.294-.9,1.7,1.7,0,0,1,1.462-.772,2.232,2.232,0,0,0,2.041-1.434A2.185,2.185,0,0,0,115.293,387.17Zm-5.167-19.4a1.912,1.912,0,0,1-.846.414,1.7,1.7,0,0,1-1.581-.478,2.221,2.221,0,0,0-2.455-.432,2.29,2.29,0,0,0-.91.8c-.2.313-.432.6-.616.929.331-.193.616-.414.929-.616a2.007,2.007,0,0,1,.846-.45,1.666,1.666,0,0,1,1.581.414,2.249,2.249,0,0,0,2.427.506,2.142,2.142,0,0,0,.938-.781c.2-.3.432-.588.616-.919C110.723,367.339,110.438,367.56,110.126,367.771Zm47.081-4.027a2.008,2.008,0,0,1-.846.414,1.689,1.689,0,0,1-1.581-.478,2.221,2.221,0,0,0-2.455-.432,2.29,2.29,0,0,0-.91.8c-.2.313-.432.6-.616.929.331-.193.616-.414.929-.616a1.977,1.977,0,0,1,.837-.45,1.66,1.66,0,0,1,1.591.414,2.249,2.249,0,0,0,2.427.506,2.141,2.141,0,0,0,.938-.781c.2-.3.423-.588.616-.919C157.8,363.312,157.519,363.533,157.207,363.744Zm-18.066,28.51a2.035,2.035,0,0,1-.846.423,1.713,1.713,0,0,1-1.591-.478,2.2,2.2,0,0,0-2.446-.432,2.229,2.229,0,0,0-.91.8c-.2.313-.432.6-.616.919.331-.184.616-.4.919-.607a2.144,2.144,0,0,1,.846-.46,1.687,1.687,0,0,1,1.591.423,2.234,2.234,0,0,0,2.418.506,2.168,2.168,0,0,0,.947-.781c.2-.3.423-.6.607-.919C139.739,391.831,139.445,392.052,139.141,392.254Zm-41,4.661a2.009,2.009,0,0,1-.846.414,1.689,1.689,0,0,1-1.581-.478,2.221,2.221,0,0,0-2.455-.432,2.29,2.29,0,0,0-.91.8c-.2.313-.432.6-.616.929.331-.184.616-.414.929-.616a2.085,2.085,0,0,1,.837-.45,1.683,1.683,0,0,1,1.591.414,2.232,2.232,0,0,0,2.427.506,2.186,2.186,0,0,0,.938-.772c.2-.313.423-.6.616-.929C98.735,396.483,98.45,396.713,98.137,396.915Z" transform="translate(-83.9 -290.766)" fill="#fff"/>
              <g id="Grupo_60593" data-name="Grupo 60593" transform="translate(0 27.076)">
                <path id="Trazado_107198" data-name="Trazado 107198" d="M125.072,353.373a53.971,53.971,0,0,0-6.342,8.192,94.437,94.437,0,0,0-4.967,8.66c-.036.066.137.1.176.038,1.75-2.845,3.842-5.605,5.769-8.4s4.155-5.491,5.9-8.326C125.717,353.35,125.235,353.21,125.072,353.373Z" transform="translate(-86.063 -322.246)" fill="#263238"/>
                <path id="Trazado_107199" data-name="Trazado 107199" d="M91.4,347.068c-1.505,5.861-2.856,11.757-3.931,17.7a133.694,133.694,0,0,0-2.3,17.9,60.942,60.942,0,0,0,.258,8.941,29.954,29.954,0,0,0,2,8.565,11.543,11.543,0,0,0,5.586,6.107,18.045,18.045,0,0,0,8.444,1.373c5.9-.258,11.741-1.893,17.511-3.575,5.776-1.714,11.484-3.693,17.188-5.679s11.385-4.055,17.041-6.193,11.321-4.257,16.953-6.465l-.051.141-1.465-3.131,1.648,3.039.052.1-.1.047q-8.284,3.717-16.672,7.2-8.4,3.439-16.9,6.667-8.509,3.19-17.2,5.9c-5.8,1.726-11.7,3.509-17.934,3.774a19.763,19.763,0,0,1-9.27-1.628,12.087,12.087,0,0,1-3.846-2.943,15.05,15.05,0,0,1-2.5-4.077,31.5,31.5,0,0,1-2.046-9.056,53.935,53.935,0,0,1-.071-9.183C84.806,370.424,87.754,358.6,91.4,347.068Z" transform="translate(-83.634 -321.743)" fill="#263238"/>
                <path id="Trazado_107200" data-name="Trazado 107200" d="M126.558,319.522c.069,2.49.058,4.977.095,7.465l-.018,7.459c.011,4.969-.115,9.951-.063,14.892l.026.915.022.44.017.2.01.072c0,.017,0,.02,0,0l-.007-.02-.054-.1a.609.609,0,0,0-.34-.257l-.095-.035a.4.4,0,0,0-.17-.007.369.369,0,0,0-.076.022l.008,0,.04-.019c.057-.028.1-.042.17-.079l.393-.206.8-.446c1.07-.609,2.137-1.246,3.2-1.882l6.409-3.805,6.428-3.784,6.477-3.711.062-.035.027.06.451,1.031-.561-.975.087.025q-3.059,2.14-6.155,4.225l-6.234,4.1c-2.082,1.362-4.194,2.677-6.306,4-1.064.648-2.127,1.295-3.212,1.925l-.824.468-.432.23c-.068.038-.168.08-.251.119l-.066.029-.045.019a1.114,1.114,0,0,1-.133.036,1.128,1.128,0,0,1-.283.019.6.6,0,0,1-.15-.025.78.78,0,0,1-.376-.3.586.586,0,0,1-.063-.12l-.013-.038-.024-.076a.947.947,0,0,1-.028-.116l-.024-.159-.027-.264-.028-.49-.023-.95c-.017-5.005.149-9.966.393-14.94l.4-7.452C126.178,324.485,126.322,322,126.558,319.522Z" transform="translate(-86.986 -319.522)" fill="#263238"/>
                <path id="Trazado_107201" data-name="Trazado 107201" d="M154.1,372.114c-2.691-5.4-5.34-10.827-8.233-16.129-1.644-3.014-3.272-6.037-4.945-9.035-.063-.113-.268-.022-.213.1,2.484,5.527,4.988,11.065,7.727,16.48,2.725,5.388,5.4,10.8,8.2,16.15q2.384,4.566,5.042,8.974c.035.059.139.013.112-.051C159.5,382.985,156.814,377.554,154.1,372.114Z" transform="translate(-88.236 -321.729)" fill="#263238"/>
                <path id="Trazado_107202" data-name="Trazado 107202" d="M128.531,325.927a38.182,38.182,0,0,1-.852,4.323,37.768,37.768,0,0,1-1.3,4.211,37.787,37.787,0,0,1,.852-4.323A38.482,38.482,0,0,1,128.531,325.927Z" transform="translate(-87.081 -320.038)" fill="#263238"/>
              </g>
            </g>
          </g>
        </g>
        <g id="Grupo_60611" data-name="Grupo 60611" transform="translate(34.734)">
          <g id="Grupo_60609" data-name="Grupo 60609">
            <g id="Grupo_60598" data-name="Grupo 60598" transform="translate(16.996 55.481)">
              <g id="Grupo_60597" data-name="Grupo 60597" transform="translate(0 0.003)">
                <path id="Trazado_107203" data-name="Trazado 107203" d="M145.933,300.857c-5.574,2.582-17.456-4.316-22.908-10.76-.371-.443-.679-5.841-1.364-12.382-.43-3.968-1-8.376-1.818-12.361-.171-.816,26.231.969,26.231.969s-.751,8.854.71,15.792a9.056,9.056,0,0,0,.506,1.6c.024.074.064.16.091.264C148.521,286.981,151.319,298.359,145.933,300.857Z" transform="translate(-119.842 -265.14)" fill="#eb9481"/>
              </g>
              <path id="Trazado_107204" data-name="Trazado 107204" d="M121.537,265.143c2.535,6.5,10.049,21.92,23.445,19.5a15.373,15.373,0,0,0,2.528-.661,1.183,1.183,0,0,0-.088-.268,10.3,10.3,0,0,1-.509-1.593c-1.461-6.95-.7-15.8-.7-15.8S127.164,265.028,121.537,265.143Z" transform="translate(-119.979 -265.136)" fill="#263238"/>
            </g>
            <g id="Grupo_60608" data-name="Grupo 60608">
              <g id="Grupo_60599" data-name="Grupo 60599" transform="translate(8.881 6.977)">
                <path id="Trazado_107205" data-name="Trazado 107205" d="M111.2,229.948c-1.537,9.33,6.66,34.591,13.808,39.513,10.363,7.134,25.6,5.91,31.227-6.152,5.454-11.692-5.812-44.425-13.635-48.719C131.079,208.265,113.472,216.166,111.2,229.948Z" transform="translate(-111.015 -212.379)" fill="#eb9481"/>
              </g>
              <g id="Grupo_60605" data-name="Grupo 60605" transform="translate(29.7 23.787)">
                <g id="Grupo_60600" data-name="Grupo 60600" transform="translate(3.287 11.92)">
                  <path id="Trazado_107206" data-name="Trazado 107206" d="M141.074,245.006c-.037-.06-.1.128-.076.2.661,1.662,1.138,3.678-.182,4.787-.04.034-.006.117.048.089C142.627,249.146,141.967,246.475,141.074,245.006Z" transform="translate(-137.522 -243.739)" fill="#263238"/>
                  <path id="Trazado_107207" data-name="Trazado 107207" d="M138.649,243.681c-2.78.772-1.032,6.276,1.545,5.56C142.728,248.538,140.979,243.034,138.649,243.681Z" transform="translate(-137.234 -243.629)" fill="#263238"/>
                </g>
                <g id="Grupo_60601" data-name="Grupo 60601" transform="translate(16.369 7.801)">
                  <path id="Trazado_107208" data-name="Trazado 107208" d="M151.495,241.762c-.007-.069.159.039.179.109.487,1.722,1.336,3.612,3.058,3.689.053,0,.076.09.017.1C152.782,245.992,151.681,243.471,151.495,241.762Z" transform="translate(-151.467 -239.356)" fill="#263238"/>
                  <path id="Trazado_107209" data-name="Trazado 107209" d="M152.449,239.289c2.676-1.079,4.638,4.352,2.16,5.352C152.168,245.625,150.206,240.193,152.449,239.289Z" transform="translate(-151.464 -239.147)" fill="#263238"/>
                </g>
                <path id="Trazado_107210" data-name="Trazado 107210" d="M135.459,242.062a22.712,22.712,0,0,0,2.115-1.074,3.831,3.831,0,0,0,1.947-1.505,1.221,1.221,0,0,0-.387-1.44,3.032,3.032,0,0,0-3.068.088,4.446,4.446,0,0,0-2.289,2.243A1.3,1.3,0,0,0,135.459,242.062Z" transform="translate(-133.66 -231.227)" fill="#263238"/>
                <path id="Trazado_107211" data-name="Trazado 107211" d="M153.43,233.785a22.41,22.41,0,0,1-2.368.127,3.823,3.823,0,0,1-2.439-.33,1.223,1.223,0,0,1-.384-1.442,3.031,3.031,0,0,1,2.7-1.455,4.452,4.452,0,0,1,3.1.8A1.3,1.3,0,0,1,153.43,233.785Z" transform="translate(-134.828 -230.663)" fill="#263238"/>
                <path id="Trazado_107212" data-name="Trazado 107212" d="M143.462,263.18a2.716,2.716,0,0,0,1.752.544,4.707,4.707,0,0,0,1.7-1.01.063.063,0,0,1,.1.063,2.411,2.411,0,0,1-1.87,1.613,1.906,1.906,0,0,1-1.82-1.082C143.266,263.218,143.384,263.14,143.462,263.18Z" transform="translate(-134.438 -233.246)" fill="#263238"/>
                <g id="Grupo_60603" data-name="Grupo 60603" transform="translate(9.124 3.385)">
                  <g id="Grupo_60602" data-name="Grupo 60602">
                    <path id="Trazado_107213" data-name="Trazado 107213" d="M143.655,255.219a6.091,6.091,0,0,0,4.7,1.352,7.684,7.684,0,0,0,2.119-.568,2.217,2.217,0,0,0,.384-.173c.12-.054.227-.1.355-.176a.445.445,0,0,0,.221-.491l0-.012a.857.857,0,0,0-.072-.169l0-.013-.051-.149c-.381-1.324-1.143-3.279-1.143-3.279.556.088,3.351.411,3.095-.263-2.143-5.57-4.526-11.763-7.834-16.853a.166.166,0,0,0-.3.142c1.848,5.434,4.638,10.508,6.582,15.936a10.668,10.668,0,0,0-3,.039c-.169.113,1.539,3.754,1.663,4.362a.229.229,0,0,1,.008.066c-2.116.982-3.99.844-6.6.043C143.608,254.958,143.51,255.116,143.655,255.219Z" transform="translate(-143.584 -234.345)" fill="#263238"/>
                  </g>
                </g>
                <g id="Grupo_60604" data-name="Grupo 60604" transform="translate(9.084 24.21)">
                  <path id="Trazado_107214" data-name="Trazado 107214" d="M149.48,257.411a7.231,7.231,0,0,1-2.08,3.013,3.244,3.244,0,0,1-1.844.715c-1.476.075-1.906-1.164-2-2.312a7.816,7.816,0,0,1,.09-1.83A9.356,9.356,0,0,0,149.48,257.411Z" transform="translate(-143.54 -256.996)" fill="#263238"/>
                  <path id="Trazado_107215" data-name="Trazado 107215" d="M147.4,260.576a3.246,3.246,0,0,1-1.844.715c-1.476.075-1.906-1.164-2-2.312C145.069,258.666,146.829,259.2,147.4,260.576Z" transform="translate(-143.542 -257.149)" fill="#ff98b9"/>
                </g>
              </g>
              <g id="Grupo_60606" data-name="Grupo 60606">
                <path id="Trazado_107216" data-name="Trazado 107216" d="M120.405,243.185c1.109-5.474-3.022-13.871-.7-16.562,5.019-5.823,17.877,2.466,25.854,1.495,7.73-.941,9.677-6.239,7.48-12.329s-8.06-9.62-16.9-9.805c-9.139-.191-16.851,4.469-20.93,7.885,0,0,1.55-3.379.7-4.259s-4.253,2.614-5.245,4.044a11.758,11.758,0,0,0-1.414,3.965,12.536,12.536,0,0,0-3.574.086c-1.957.3-4.236,2.157-4.316,2.636s2.777.479,4.76.326c0,0-3.049,5.351-2.435,9.516s9.651,23.172,11.239,23.187C116.962,253.391,119.955,245.409,120.405,243.185Z" transform="translate(-101.355 -204.885)" fill="#263238"/>
                <path id="Trazado_107217" data-name="Trazado 107217" d="M106.944,221.3c.063-.05.17.034.11.1a13.319,13.319,0,0,0-3.421,6.442,16.546,16.546,0,0,0,1.016,8.616c1.925,5.329,5.241,9.961,8.22,14.727.086.14-.147.29-.243.157-3.479-4.844-7.061-10.132-8.871-15.862C102.212,230.594,102.635,224.693,106.944,221.3Z" transform="translate(-101.483 -206.119)" fill="#263238"/>
                <path id="Trazado_107218" data-name="Trazado 107218" d="M120.682,226.221a19.033,19.033,0,0,1,7.066-.439c2.253.272,4.3,1.393,6.387,2.2,4.692,1.823,9.743,3.055,14.774,2.1a.05.05,0,0,1,.017.1c-4.562,1.175-9.27.376-13.648-1.147-2.208-.769-4.359-2-6.645-2.494-2.6-.564-5.272-.186-7.878.094A.21.21,0,0,1,120.682,226.221Z" transform="translate(-102.9 -206.47)" fill="#263238"/>
                <path id="Trazado_107219" data-name="Trazado 107219" d="M121.3,210.97a37.028,37.028,0,0,1,9.493-4.543,29.175,29.175,0,0,1,9.948-1.625c5.841.2,11.57,3.172,13.664,8.877a12.605,12.605,0,0,1-.025,9.071.162.162,0,0,1-.3-.112,13.013,13.013,0,0,0-4.878-14.8c-5.211-3.472-11.843-2.943-17.579-1.259a53.369,53.369,0,0,0-10.293,4.428C121.3,211.017,121.277,210.984,121.3,210.97Z" transform="translate(-102.962 -204.789)" fill="#263238"/>
              </g>
              <g id="Grupo_60607" data-name="Grupo 60607" transform="translate(5.828 39.551)">
                <path id="Trazado_107220" data-name="Trazado 107220" d="M119.292,253.169s-7.126-7.45-10.594-4.784,2.789,14.093,7.493,15.063a4.577,4.577,0,0,0,5.686-3.367Z" transform="translate(-107.694 -247.809)" fill="#eb9481"/>
                <path id="Trazado_107221" data-name="Trazado 107221" d="M110.82,251.949c-.073,0-.071.107,0,.123,3.313.782,5.4,3.421,7.014,6.242-1.106-1.01-2.466-1.448-3.842-.106-.072.071.026.186.11.154a2.815,2.815,0,0,1,3.212.5,13.611,13.611,0,0,1,1.848,2.251c.189.257.67.03.515-.275l-.038-.068C119.1,256.78,115.151,251.691,110.82,251.949Z" transform="translate(-107.942 -248.142)" fill="#263238"/>
              </g>
            </g>
          </g>
          <g id="Grupo_60610" data-name="Grupo 60610" transform="translate(14.753 73.935)">
            <path id="Trazado_107222" data-name="Trazado 107222" d="M147.056,285.208l-3.42,15.818-21.591-15.592-4.187,6.9s23.07,26.688,22.954,25.324l3.924-13.8,10.322,7.374-4.517-22.165Z" transform="translate(-117.439 -285.208)" fill="#ebebeb"/>
            <path id="Trazado_107223" data-name="Trazado 107223" d="M153.408,300.493c-.868-3.635-1.641-7.319-2.677-10.909-.037-.128-.25-.152-.256.007-.131,3.676,3.264,17.556,3.823,20.929-.015-.011-.032-.021-.046-.032-.433-.322-9.5-6.419-9.552-6.287-.977,2.251-3.87,12.307-4.031,13.2-3.652-4.241-18.908-20.815-23.039-24.711a.129.129,0,0,0-.2.165c3.365,4.563,23.164,26.492,23.374,26.389a145.865,145.865,0,0,0,4.078-14.578c1.6,1.394,10.894,8.432,10.827,7.882A117.529,117.529,0,0,0,153.408,300.493Z" transform="translate(-117.402 -285.552)" fill="#263238"/>
          </g>
        </g>
      </g>
    </g>
    <g id="Device" transform="translate(185.776 333.694)">
      <g id="Grupo_60616" data-name="Grupo 60616">
        <g id="Grupo_60613" data-name="Grupo 60613" transform="translate(0 63.105)">
          <rect id="Rectángulo_6008" data-name="Rectángulo 6008" width="102.229" height="4.585" fill="#455a64"/>
          <rect id="Rectángulo_6009" data-name="Rectángulo 6009" width="51.453" height="4.585" transform="translate(0 0.005)" fill="#263238"/>
        </g>
        <g id="Grupo_60615" data-name="Grupo 60615" transform="translate(50.26)">
          <g id="Grupo_60614" data-name="Grupo 60614">
            <path id="Trazado_107224" data-name="Trazado 107224" d="M252.723,426.364l99.629-.019,14.065-67.668-99.63.018Z" transform="translate(-252.723 -358.677)" fill="#37474f"/>
          </g>
          <path id="Trazado_107225" data-name="Trazado 107225" d="M306.153,396.552a5.867,5.867,0,0,0,5.944,6.639,7.557,7.557,0,0,0,7.337-6.642,5.867,5.867,0,0,0-5.944-6.639A7.555,7.555,0,0,0,306.153,396.552Z" transform="translate(-257.028 -361.195)" fill="#fff"/>
        </g>
      </g>
    </g>
  </g>
</svg>
