<svg xmlns="http://www.w3.org/2000/svg" xmlns:xlink="http://www.w3.org/1999/xlink" width="357.401" height="176.076" viewBox="0 0 357.401 176.076">
  <defs>
    <radialGradient id="radial-gradient" cx="-0.025" cy="1.003" r="1.849" gradientTransform="translate(0)" gradientUnits="objectBoundingBox">
      <stop offset="0" stop-color="#f5ec53"/>
      <stop offset="0.241" stop-color="#e48244"/>
      <stop offset="0.397" stop-color="#d05667"/>
      <stop offset="0.489" stop-color="#c84278"/>
      <stop offset="1" stop-color="#192cfa"/>
    </radialGradient>
  </defs>
  <g id="Grupo_58488" data-name="Grupo 58488" transform="translate(-65.704 -80.114)">
    <g id="Grupo_58476" data-name="Grupo 58476">
      <path id="Trazado_103153" data-name="Trazado 103153" d="M197.487,152.617h0a35.863,35.863,0,0,1-35.863-35.864h0A35.863,35.863,0,0,1,197.487,80.89h0a35.863,35.863,0,0,1,35.863,35.863h0A35.863,35.863,0,0,1,197.487,152.617Z" fill="#57f676"/>
      <g id="Grupo_58475" data-name="Grupo 58475">
        <path id="Trazado_103154" data-name="Trazado 103154" d="M217.149,115.758a19.318,19.318,0,0,0-38.6-.352c-.009.28-.018.561-.018.841a19.024,19.024,0,0,0,2.766,9.9l-3.481,10.281,10.7-3.4a19.339,19.339,0,0,0,28.645-16.782C217.158,116.084,217.158,115.921,217.149,115.758Zm-19.305,16.6a16.172,16.172,0,0,1-8.933-2.668l-6.239,1.99L184.7,125.7a15.955,15.955,0,0,1-3.092-9.449,15.026,15.026,0,0,1,.081-1.564,16.246,16.246,0,0,1,32.343.307c.037.416.055.832.055,1.257A16.2,16.2,0,0,1,197.844,132.36Z" fill="#fff" fill-rule="evenodd"/>
        <path id="Trazado_103155" data-name="Trazado 103155" d="M206.7,120.117c-.479-.235-2.8-1.375-3.237-1.528s-.751-.235-1.068.235-1.229,1.528-1.5,1.835-.551.353-1.03.118a12.816,12.816,0,0,1-3.807-2.333,14.05,14.05,0,0,1-2.631-3.246c-.271-.47-.027-.723.208-.959.217-.216.47-.551.714-.822.064-.082.117-.154.172-.226a5.3,5.3,0,0,0,.3-.561.846.846,0,0,0-.036-.823c-.117-.235-1.067-2.55-1.465-3.49s-.786-.778-1.067-.778-.587-.045-.9-.045a1.753,1.753,0,0,0-1.266.588,5.26,5.26,0,0,0-1.654,3.924,5.958,5.958,0,0,0,.244,1.6,10.669,10.669,0,0,0,1.691,3.255c.234.307,3.273,5.208,8.083,7.1,4.819,1.872,4.819,1.247,5.688,1.166a4.724,4.724,0,0,0,3.191-2.233,3.879,3.879,0,0,0,.281-2.234C207.483,120.469,207.166,120.352,206.7,120.117Z" fill="#fff" fill-rule="evenodd"/>
      </g>
    </g>
    <g id="Grupo_58477" data-name="Grupo 58477" transform="translate(10)">
      <path id="Trazado_103156" data-name="Trazado 103156" d="M91.567,151.841h0A35.863,35.863,0,0,1,55.7,115.978h0A35.863,35.863,0,0,1,91.567,80.114h0a35.863,35.863,0,0,1,35.863,35.864h0A35.863,35.863,0,0,1,91.567,151.841Z" fill="#29a9e1"/>
      <path id="Trazado_103157" data-name="Trazado 103157" d="M72.459,127.983a22.189,22.189,0,0,0,12.018,3.523c14.557,0,22.781-12.295,22.286-23.323a15.9,15.9,0,0,0,3.912-4.059,15.629,15.629,0,0,1-4.5,1.234,7.851,7.851,0,0,0,3.447-4.337,15.736,15.736,0,0,1-4.978,1.9,7.846,7.846,0,0,0-13.361,7.151,22.253,22.253,0,0,1-16.16-8.193,7.851,7.851,0,0,0,2.427,10.469,7.829,7.829,0,0,1-3.553-.981,7.849,7.849,0,0,0,6.289,7.787,7.855,7.855,0,0,1-3.54.134,7.845,7.845,0,0,0,7.324,5.445A15.757,15.757,0,0,1,72.459,127.983Z" fill="#fff"/>
    </g>
    <g id="Grupo_58479" data-name="Grupo 58479" transform="translate(10)">
      <path id="Trazado_103158" data-name="Trazado 103158" d="M91.567,256.19h0A35.863,35.863,0,0,1,55.7,220.326h0a35.862,35.862,0,0,1,35.863-35.863h0a35.862,35.862,0,0,1,35.863,35.863h0A35.863,35.863,0,0,1,91.567,256.19Z" fill="#df4b38"/>
      <g id="Grupo_58478" data-name="Grupo 58478">
        <path id="Trazado_103159" data-name="Trazado 103159" d="M96.05,219.391H81.561l.017,4.151h9.769c-1.155,5.053-4.721,8.151-9.507,8.151a11.367,11.367,0,1,1,7.728-19.7l3.205-2.764A15.58,15.58,0,1,0,81.84,235.907c8.263,0,14.234-6.3,14.234-14.908Z" fill="#fff"/>
        <path id="Trazado_103160" data-name="Trazado 103160" d="M116.875,219.563h-5.981v-5.981h-3.816v5.981H101.1v3.816h5.981v5.981h3.816v-5.981h5.981Z" fill="#fff"/>
      </g>
    </g>
    <g id="Grupo_58480" data-name="Grupo 58480" transform="translate(-10)">
      <path id="Trazado_103161" data-name="Trazado 103161" d="M302.208,151.841h0a35.863,35.863,0,0,1-35.863-35.863h0a35.863,35.863,0,0,1,35.863-35.864h0a35.864,35.864,0,0,1,35.864,35.864h0A35.864,35.864,0,0,1,302.208,151.841Z" fill="#3e5c9a"/>
      <path id="Trazado_103162" data-name="Trazado 103162" d="M296.744,137.655h8.73V115.794h6.091l.649-7.32h-6.74v-4.169c0-1.726.346-2.408,2.015-2.408h4.725V94.3h-6.045c-6.5,0-9.425,2.862-9.425,8.338v5.836H292.2v7.411h4.541Z" fill="#fff"/>
    </g>
    <g id="Grupo_58482" data-name="Grupo 58482" transform="translate(-20)">
      <path id="Trazado_103163" data-name="Trazado 103163" d="M407.241,151.841h0a35.863,35.863,0,0,1-35.863-35.863h0a35.863,35.863,0,0,1,35.863-35.864h0a35.864,35.864,0,0,1,35.864,35.864h0A35.864,35.864,0,0,1,407.241,151.841Z" fill="url(#radial-gradient)"/>
      <g id="Grupo_58481" data-name="Grupo 58481">
        <path id="Trazado_103164" data-name="Trazado 103164" d="M407.241,99.857c5.251,0,5.873.02,7.946.114a10.882,10.882,0,0,1,3.652.678,6.517,6.517,0,0,1,3.731,3.731,10.882,10.882,0,0,1,.678,3.652c.094,2.073.114,2.695.114,7.946s-.02,5.872-.114,7.946a10.868,10.868,0,0,1-.678,3.651,6.515,6.515,0,0,1-3.731,3.732,10.863,10.863,0,0,1-3.652.677c-2.073.094-2.7.115-7.946.115s-5.872-.021-7.946-.115a10.849,10.849,0,0,1-3.651-.677,6.513,6.513,0,0,1-3.732-3.732,10.9,10.9,0,0,1-.677-3.651c-.095-2.074-.114-2.7-.114-7.946s.019-5.873.114-7.946a10.916,10.916,0,0,1,.677-3.652,6.515,6.515,0,0,1,3.732-3.731,10.868,10.868,0,0,1,3.651-.678c2.074-.094,2.7-.114,7.946-.114m0-3.543c-5.34,0-6.01.023-8.107.118a14.443,14.443,0,0,0-4.773.914,10.054,10.054,0,0,0-5.751,5.751,14.422,14.422,0,0,0-.914,4.773c-.1,2.1-.119,2.767-.119,8.108s.023,6.01.119,8.107a14.429,14.429,0,0,0,.914,4.774,10.054,10.054,0,0,0,5.751,5.751,14.469,14.469,0,0,0,4.773.914c2.1.1,2.767.118,8.107.118s6.01-.023,8.108-.118a14.474,14.474,0,0,0,4.773-.914,10.054,10.054,0,0,0,5.751-5.751,14.454,14.454,0,0,0,.914-4.774c.1-2.1.118-2.767.118-8.107s-.023-6.01-.118-8.108a14.447,14.447,0,0,0-.914-4.773,10.054,10.054,0,0,0-5.751-5.751,14.448,14.448,0,0,0-4.773-.914c-2.1-.1-2.767-.118-8.108-.118" fill="#fff"/>
        <path id="Trazado_103165" data-name="Trazado 103165" d="M407.241,105.88a10.1,10.1,0,1,0,10.1,10.1,10.1,10.1,0,0,0-10.1-10.1m0,16.653a6.555,6.555,0,1,1,6.555-6.555,6.554,6.554,0,0,1-6.555,6.555" fill="#fff"/>
        <path id="Trazado_103166" data-name="Trazado 103166" d="M420.1,105.481a2.36,2.36,0,1,1-2.36-2.359,2.361,2.361,0,0,1,2.36,2.359" fill="#fff"/>
      </g>
    </g>
    <g id="Grupo_58483" data-name="Grupo 58483" transform="translate(-20)">
      <path id="Trazado_103167" data-name="Trazado 103167" d="M407.241,256.19h0a35.863,35.863,0,0,1-35.863-35.864h0a35.863,35.863,0,0,1,35.863-35.863h0a35.864,35.864,0,0,1,35.864,35.863h0A35.864,35.864,0,0,1,407.241,256.19Z" fill="#cd2129"/>
      <path id="Trazado_103168" data-name="Trazado 103168" d="M395.765,223.659a.843.843,0,0,0,1.225-.611c.112-.429.38-1.513.5-1.964a1.181,1.181,0,0,0-.353-1.363,7.066,7.066,0,0,1-1.613-4.8A11.587,11.587,0,0,1,407.568,203.2c6.57,0,10.18,4.014,10.18,9.377,0,7.054-3.122,13.007-7.757,13.007a3.786,3.786,0,0,1-3.862-4.711c.737-3.1,2.16-6.445,2.16-8.683,0-2-1.075-3.673-3.3-3.673-2.617,0-4.719,2.707-4.719,6.332a9.412,9.412,0,0,0,.781,3.872s-2.677,11.346-3.147,13.332a27.4,27.4,0,0,0-.073,9.3.325.325,0,0,0,.581.141,26.078,26.078,0,0,0,4.416-8.007c.3-1.088,1.723-6.724,1.723-6.724.849,1.621,3.334,3.048,5.975,3.048,7.866,0,13.2-7.169,13.2-16.767,0-7.257-6.145-14.016-15.488-14.016-11.624,0-17.486,8.334-17.486,15.284C390.754,218.521,392.348,222.265,395.765,223.659Z" fill="#fff"/>
    </g>
    <g id="Grupo_58486" data-name="Grupo 58486" transform="translate(-10)">
      <path id="Trazado_103169" data-name="Trazado 103169" d="M302.208,256.19h0a35.863,35.863,0,0,1-35.863-35.864h0a35.863,35.863,0,0,1,35.863-35.863h0a35.864,35.864,0,0,1,35.864,35.863h0A35.864,35.864,0,0,1,302.208,256.19Z" fill="#0057ff"/>
      <g id="Grupo_58485" data-name="Grupo 58485">
        <path id="Trazado_103170" data-name="Trazado 103170" d="M296.855,232.226a6.923,6.923,0,0,0,4.616-3.236,7.353,7.353,0,0,0,1.117-4.005,6.642,6.642,0,0,0-.978-3.679,5.594,5.594,0,0,0-2.9-2.216,6,6,0,0,0,1.916-1.43,5.6,5.6,0,0,0,1.163-3.7,6.389,6.389,0,0,0-1.153-3.833q-1.916-2.605-6.507-2.674H281.99v25.112h11.316A17.416,17.416,0,0,0,296.855,232.226ZM287,211.816h5.463a9.4,9.4,0,0,1,2.968.393,2.246,2.246,0,0,1,1.349,2.316,2.371,2.371,0,0,1-1.021,2.207,5.05,5.05,0,0,1-2.656.621H287Zm0,16.389v-6.694h6.18a6.317,6.317,0,0,1,2.511.426,2.693,2.693,0,0,1,1.6,2.69,3.164,3.164,0,0,1-1.65,3.136,5.915,5.915,0,0,1-2.542.442Z" fill="#fff"/>
        <g id="Grupo_58484" data-name="Grupo 58484">
          <path id="Trazado_103171" data-name="Trazado 103171" d="M306.841,230.912a10.113,10.113,0,0,0,6.54,2.286,9.017,9.017,0,0,0,6.986-2.709,6.068,6.068,0,0,0,1.8-3.356h-4.958a4.063,4.063,0,0,1-1,1.276,4.1,4.1,0,0,1-2.7.853,4.925,4.925,0,0,1-2.676-.7,4.456,4.456,0,0,1-1.942-3.919h13.524a23.835,23.835,0,0,0-.159-3.685,9.124,9.124,0,0,0-1.48-3.839,7.535,7.535,0,0,0-3.21-2.747,10.557,10.557,0,0,0-4.366-.869,8.954,8.954,0,0,0-6.64,2.574q-2.559,2.572-2.558,7.4Q304.008,228.628,306.841,230.912Zm3.468-12.345a3.859,3.859,0,0,1,2.9-1.06,4.264,4.264,0,0,1,2.881,1,4.053,4.053,0,0,1,1.294,2.934h-8.366A5.062,5.062,0,0,1,310.309,218.567Z" fill="#fff"/>
          <rect id="Rect치ngulo_5626" data-name="Rect치ngulo 5626" width="10.913" height="2.534" transform="translate(307.434 208.898)" fill="#fff"/>
        </g>
      </g>
    </g>
    <g id="Grupo_58487" data-name="Grupo 58487">
      <rect id="Rect치ngulo_5627" data-name="Rect치ngulo 5627" width="71.727" height="71.727" rx="35.863" transform="translate(161.624 184.463)" fill="#faf807"/>
      <path id="Trazado_103172" data-name="Trazado 103172" d="M218.269,230.728v-.009c-.009-.011-.019-.011-.039-.03h-.009a5.238,5.238,0,0,0-1.346-.487c-.009,0-.019,0-.019-.01a11.54,11.54,0,0,1-5.525-4.025,12.707,12.707,0,0,1-1.891-3.3v-.02a1.605,1.605,0,0,1,.068-1.413.01.01,0,0,0,.01-.01,3.935,3.935,0,0,1,1.9-1.208h.01A7.349,7.349,0,0,0,214,218.887c.009,0,.009-.009.02-.009a1.528,1.528,0,0,0,.369-.478.732.732,0,0,0,.059-.175.951.951,0,0,0-.048-.673v-.009a2.074,2.074,0,0,0-.9-.858h-.01a1.856,1.856,0,0,0-1.539-.136h-.011a9.949,9.949,0,0,1-1.364.4.036.036,0,0,0-.029.01,3.162,3.162,0,0,1-1.55-.039c-.009-.059-.009-.185-.029-.341h.01c-.039-.936.049-1.9.058-2.9v-.01a26.513,26.513,0,0,0-.117-4.658v-.02a10.435,10.435,0,0,0-4.366-6.471,10.965,10.965,0,0,0-5.34-1.9h0c-.653-.058-1.286-.078-1.92-.078a11.959,11.959,0,0,0-7.3,2.319,11.79,11.79,0,0,0-3.557,4.639v.01a13.133,13.133,0,0,0-.575,5.662h0a26.788,26.788,0,0,1,.088,3.722.438.438,0,0,1-.02.079,5.069,5.069,0,0,1-1.832-.049h-.01a13.746,13.746,0,0,1-1.4-.39.035.035,0,0,1-.029-.01,1.677,1.677,0,0,0-1.364.312c-.01,0-.02,0-.02.01s-.019.01-.019.019a1.4,1.4,0,0,0-.751,1.121.426.426,0,0,0,0,.107c.01,0,0,.01.01.01a1.3,1.3,0,0,0,.468.76c.194.166.37.273.477.361.01,0,.019.009.03.019a13.731,13.731,0,0,0,2.874,1.248h0a2.068,2.068,0,0,1,1.287,1.228,3.517,3.517,0,0,1-.507,2.2v.01a13.561,13.561,0,0,1-4.366,5,10.49,10.49,0,0,1-3.206,1.462.175.175,0,0,0-.049.019,1.816,1.816,0,0,0-1.14.663c-.019.039-.039.078-.059.127a.976.976,0,0,0,.186.9,1.5,1.5,0,0,0,.487.381c.009,0,.019.01.029.01a11.186,11.186,0,0,0,2.963,1.032c.009,0,.009.01.009.01a10.292,10.292,0,0,1,1.852.458c.019.039.078.215.2.507.175.526.253,1.14.448,1.793a.557.557,0,0,0,.4.361,1.056,1.056,0,0,0,.711-.059h.059a11.572,11.572,0,0,1,4.677-.166h0a18.532,18.532,0,0,1,4.4,2.378v.01h0a7.2,7.2,0,0,0,3.508,1.286h.01a24.809,24.809,0,0,0,2.972-.068h.019a5.447,5.447,0,0,0,2.339-.8c.01-.01.02-.019.029-.019,1.589-.907,2.992-1.988,4.542-2.671h.01a7.522,7.522,0,0,1,1.822-.214h.02a24.036,24.036,0,0,1,3.839.195.273.273,0,0,0,.127,0,.724.724,0,0,0,.438-.244.588.588,0,0,0,.137-.273c.039-.127.068-.185.01-.078a.482.482,0,0,0,.048-.107,5.275,5.275,0,0,1,.741-1.89,1.125,1.125,0,0,1,.789-.244h.069a13.879,13.879,0,0,0,3.05-.858.062.062,0,0,1,.039-.009,2.683,2.683,0,0,0,1.238-.829v-.009h0a.873.873,0,0,0-.264-1.248Z" fill="#fff" stroke="#222221" stroke-miterlimit="10" stroke-width="1" fill-rule="evenodd"/>
    </g>
  </g>
</svg>
