<svg xmlns="http://www.w3.org/2000/svg" xmlns:xlink="http://www.w3.org/1999/xlink" width="1020" height="260.921" viewBox="0 0 1020 260.921">
  <defs>
    <clipPath id="clip-path">
      <rect width="1020" height="260.921" fill="none"/>
    </clipPath>
  </defs>
  <g id="Cuadrícula_de_repetición_1" data-name="Cuadrícula de repetición 1" clip-path="url(#clip-path)">
    <g id="Grupo_60882" data-name="Grupo 60882" transform="translate(-284 -593)">
      <path id="Trazado_103217" data-name="Trazado 103217" d="M238.893,160.125a1.2,1.2,0,0,1-.6-2.229l12.731-7.35a1.195,1.195,0,1,1,1.195,2.069l-12.731,7.352A1.2,1.2,0,0,1,238.893,160.125Z" transform="translate(586.717 535.229)" fill="#303841"/>
      <path id="Trazado_103218" data-name="Trazado 103218" d="M203.306,183.74a1.195,1.195,0,0,1-.6-2.229l21.866-12.623a1.195,1.195,0,1,1,1.195,2.069L203.9,183.58A1.166,1.166,0,0,1,203.306,183.74Z" transform="translate(537.268 560.711)" fill="#303841"/>
      <path id="Trazado_103219" data-name="Trazado 103219" d="M200.288,144.793a1.195,1.195,0,0,1-.6-2.229l2.067-1.195a1.195,1.195,0,1,1,1.195,2.069l-2.067,1.195A1.18,1.18,0,0,1,200.288,144.793Z" transform="translate(533.075 522.479)" fill="#303841"/>
      <path id="Trazado_103220" data-name="Trazado 103220" d="M204.924,151.1a1.195,1.195,0,0,1-.6-2.229l3.6-2.081a1.195,1.195,0,1,1,1.195,2.069l-3.6,2.081A1.189,1.189,0,0,1,204.924,151.1Zm12.611-7.283a1.195,1.195,0,0,1-.6-2.229l3.606-2.079a1.195,1.195,0,0,1,1.195,2.069l-3.606,2.079A1.166,1.166,0,0,1,217.535,143.818Zm12.611-7.281a1.195,1.195,0,0,1-.6-2.229l3.6-2.081a1.2,1.2,0,1,1,1.195,2.072l-3.6,2.079A1.18,1.18,0,0,1,230.147,136.538Z" transform="translate(539.516 509.777)" fill="#303841"/>
      <path id="Trazado_103221" data-name="Trazado 103221" d="M220.757,132.976a1.195,1.195,0,0,1-.6-2.229l2.069-1.195a1.195,1.195,0,0,1,1.195,2.069l-2.069,1.195A1.2,1.2,0,0,1,220.757,132.976Z" transform="translate(561.517 506.059)" fill="#303841"/>
      <path id="Trazado_103222" data-name="Trazado 103222" d="M196.214,177.179a1.192,1.192,0,0,1-1.195-1.195v-2.389a1.195,1.195,0,0,1,2.389,0v2.389A1.194,1.194,0,0,1,196.214,177.179Z" transform="translate(527.417 565.816)" fill="#303841"/>
      <path id="Trazado_103223" data-name="Trazado 103223" d="M196.214,189.791a1.192,1.192,0,0,1-1.195-1.195v-4.16a1.195,1.195,0,0,1,2.389,0v4.16A1.194,1.194,0,0,1,196.214,189.791Zm0-14.561a1.194,1.194,0,0,1-1.195-1.195v-4.162a1.195,1.195,0,0,1,2.389,0v4.162A1.2,1.2,0,0,1,196.214,175.23Zm0-14.563a1.192,1.192,0,0,1-1.195-1.195v-4.16a1.195,1.195,0,0,1,2.389,0v4.16A1.194,1.194,0,0,1,196.214,160.666Z" transform="translate(527.417 540.414)" fill="#303841"/>
      <path id="Trazado_103224" data-name="Trazado 103224" d="M196.214,153.543a1.194,1.194,0,0,1-1.195-1.195v-2.389a1.195,1.195,0,0,1,2.389,0v2.389A1.2,1.2,0,0,1,196.214,153.543Z" transform="translate(527.417 532.977)" fill="#303841"/>
      <path id="Trazado_103225" data-name="Trazado 103225" d="M222.824,195.857a1.188,1.188,0,0,1-.595-.158l-2.069-1.195a1.2,1.2,0,0,1,1.195-2.072l2.069,1.195a1.195,1.195,0,0,1-.6,2.229Z" transform="translate(561.517 593.429)" fill="#303841"/>
      <path id="Trazado_103226" data-name="Trazado 103226" d="M233.748,202.166a1.205,1.205,0,0,1-.6-.16l-3.6-2.081a1.195,1.195,0,1,1,1.195-2.069l3.6,2.081a1.194,1.194,0,0,1-.6,2.229Zm-12.611-7.283a1.18,1.18,0,0,1-.6-.16l-3.6-2.081a1.195,1.195,0,0,1,1.195-2.069l3.6,2.081a1.195,1.195,0,0,1-.6,2.229ZM208.523,187.6a1.19,1.19,0,0,1-.595-.16l-3.6-2.081a1.195,1.195,0,0,1,1.195-2.069l3.6,2.079a1.2,1.2,0,0,1-.6,2.232Z" transform="translate(539.515 580.727)" fill="#303841"/>
      <path id="Trazado_103227" data-name="Trazado 103227" d="M202.353,184.038a1.18,1.18,0,0,1-.6-.16l-2.067-1.195a1.195,1.195,0,0,1,1.195-2.069l2.067,1.195a1.194,1.194,0,0,1-.6,2.229Z" transform="translate(533.073 577.007)" fill="#303841"/>
      <path id="Trazado_103228" data-name="Trazado 103228" d="M233.839,206.662a1.2,1.2,0,0,1-.6-2.229l41.251-23.818a1.195,1.195,0,0,1,1.195,2.069L234.437,206.5A1.205,1.205,0,0,1,233.839,206.662Z" transform="translate(579.695 577.007)" fill="#303841"/>
      <path id="Trazado_103229" data-name="Trazado 103229" d="M255.176,153.543a1.2,1.2,0,0,1-1.195-1.195v-2.389a1.195,1.195,0,1,1,2.389,0v2.389A1.194,1.194,0,0,1,255.176,153.543Z" transform="translate(609.339 532.977)" fill="#303841"/>
      <path id="Trazado_103230" data-name="Trazado 103230" d="M255.176,189.791a1.194,1.194,0,0,1-1.195-1.195v-4.16a1.195,1.195,0,1,1,2.389,0v4.16A1.192,1.192,0,0,1,255.176,189.791Zm0-14.561a1.2,1.2,0,0,1-1.195-1.195v-4.162a1.195,1.195,0,1,1,2.389,0v4.162A1.194,1.194,0,0,1,255.176,175.23Zm0-14.563a1.2,1.2,0,0,1-1.195-1.195v-4.16a1.195,1.195,0,1,1,2.389,0v4.16A1.194,1.194,0,0,1,255.176,160.666Z" transform="translate(609.339 540.414)" fill="#303841"/>
      <path id="Trazado_103231" data-name="Trazado 103231" d="M255.176,177.179a1.194,1.194,0,0,1-1.195-1.195v-2.389a1.195,1.195,0,0,1,2.389,0v2.389A1.192,1.192,0,0,1,255.176,177.179Z" transform="translate(609.339 565.816)" fill="#303841"/>
      <path id="Trazado_103232" data-name="Trazado 103232" d="M277.555,159.371a1.18,1.18,0,0,1-.6-.16l-45.49-26.264a1.195,1.195,0,1,1,1.195-2.069l45.49,26.264a1.195,1.195,0,0,1-.6,2.229Z" transform="translate(577.23 507.903)" fill="#303841"/>
      <path id="Trazado_103233" data-name="Trazado 103233" d="M232.229,147.2a12.431,12.431,0,1,1,12.432-12.43A12.446,12.446,0,0,1,232.229,147.2Zm0-22.472a10.042,10.042,0,1,0,10.043,10.043A10.054,10.054,0,0,0,232.229,124.726Z" transform="translate(561.844 496.259)" fill="#303841"/>
      <path id="Trazado_103234" data-name="Trazado 103234" d="M242.772,202.157a11.237,11.237,0,1,1-11.237-11.235A11.239,11.239,0,0,1,242.772,202.157Z" transform="translate(562.538 591.552)" fill="#fbcb43"/>
      <path id="Trazado_103235" data-name="Trazado 103235" d="M232.229,215.284a12.431,12.431,0,1,1,12.432-12.432A12.446,12.446,0,0,1,232.229,215.284Zm0-22.472a10.042,10.042,0,1,0,10.043,10.04A10.054,10.054,0,0,0,232.229,192.811Z" transform="translate(561.844 590.857)" fill="#303841"/>
      <path id="Trazado_103236" data-name="Trazado 103236" d="M261.709,198.264a12.432,12.432,0,1,1,12.434-12.432A12.446,12.446,0,0,1,261.709,198.264Zm0-22.475a10.043,10.043,0,1,0,10.045,10.043A10.054,10.054,0,0,0,261.709,175.789Z" transform="translate(602.806 567.206)" fill="#303841"/>
      <path id="Trazado_103238" data-name="Trazado 103238" d="M261.709,164.222a12.432,12.432,0,1,1,12.434-12.432A12.446,12.446,0,0,1,261.709,164.222Zm0-22.475a10.043,10.043,0,1,0,10.045,10.043A10.054,10.054,0,0,0,261.709,141.747Z" transform="translate(602.806 519.907)" fill="#303841"/>
      <path id="Trazado_103240" data-name="Trazado 103240" d="M202.748,198.264a12.432,12.432,0,1,1,12.43-12.432A12.446,12.446,0,0,1,202.748,198.264Zm0-22.475a10.043,10.043,0,1,0,10.04,10.043A10.054,10.054,0,0,0,202.748,175.789Z" transform="translate(520.882 567.206)" fill="#303841"/>
      <path id="Trazado_103241" data-name="Trazado 103241" d="M213.288,151.1a11.236,11.236,0,1,1-11.237-11.237A11.237,11.237,0,0,1,213.288,151.1Z" transform="translate(521.577 520.603)" fill="#fbcb43"/>
      <path id="Trazado_103242" data-name="Trazado 103242" d="M202.748,164.222a12.432,12.432,0,1,1,12.43-12.432A12.446,12.446,0,0,1,202.748,164.222Zm0-22.475a10.043,10.043,0,1,0,10.04,10.043A10.054,10.054,0,0,0,202.748,141.747Z" transform="translate(520.882 519.907)" fill="#303841"/>
      <path id="Trazado_103246" data-name="Trazado 103246" d="M232.421,212.2a37.7,37.7,0,0,1-11.918-1.945,1.2,1.2,0,1,1,.755-2.268A35.216,35.216,0,0,0,265.8,185.7a35.354,35.354,0,0,0-4.743-31.583A1.194,1.194,0,0,1,263,152.732a37.759,37.759,0,0,1,5.068,33.724A37.672,37.672,0,0,1,232.421,212.2Z" transform="translate(561.687 537.794)" fill="#303841"/>
      <path id="Trazado_103247" data-name="Trazado 103247" d="M214.341,200.988a1.192,1.192,0,0,1-1.068-.657,37.61,37.61,0,0,1,45.492-52.562,38.174,38.174,0,0,1,6.028,2.609,1.195,1.195,0,0,1-1.135,2.1,35.241,35.241,0,0,0-50.192,19.844,34.975,34.975,0,0,0,1.943,26.933,1.195,1.195,0,0,1-1.068,1.73Z" transform="translate(547.193 528.916)" fill="#303841"/>
      <path id="Trazado_103248" data-name="Trazado 103248" d="M225.695,207.441a1.194,1.194,0,0,1-1.195-1.195v-28.73a1.195,1.195,0,1,1,2.389,0v28.73A1.194,1.194,0,0,1,225.695,207.441Z" transform="translate(568.378 571.265)" fill="#303841"/>
      <path id="Trazado_103249" data-name="Trazado 103249" d="M225.695,163.488a1.2,1.2,0,0,1-1.195-1.195V136.058a1.195,1.195,0,0,1,2.389,0v26.236A1.2,1.2,0,0,1,225.695,163.488Z" transform="translate(568.378 513.662)" fill="#303841"/>
      <path id="Trazado_103250" data-name="Trazado 103250" d="M260.857,183.771a1.181,1.181,0,0,1-.6-.16L238.3,170.931a1.195,1.195,0,0,1,1.195-2.069l21.963,12.681a1.2,1.2,0,0,1-.6,2.229Z" transform="translate(586.717 560.68)" fill="#303841"/>
      <path id="Trazado_103251" data-name="Trazado 103251" d="M229.469,165.65a1.18,1.18,0,0,1-.6-.16l-29.184-16.848a1.195,1.195,0,0,1,1.195-2.069l29.184,16.848a1.195,1.195,0,0,1-.6,2.229Z" transform="translate(533.073 529.708)" fill="#303841"/>
      <path id="Trazado_103252" data-name="Trazado 103252" d="M127.686,146.873a4.836,4.836,0,1,1,4.836-4.836A4.842,4.842,0,0,1,127.686,146.873Zm0-7.283a2.447,2.447,0,1,0,2.447,2.447A2.451,2.451,0,0,0,127.686,139.59Z" transform="translate(427.145 516.911)" fill="#303841"/>
      <path id="Trazado_103253" data-name="Trazado 103253" d="M141,153.644H121.485a1.194,1.194,0,0,1-1.195-1.195,10.952,10.952,0,0,1,21.9,0A1.192,1.192,0,0,1,141,153.644Zm-18.236-2.389h16.96a8.565,8.565,0,0,0-16.96,0Z" transform="translate(423.588 522.886)" fill="#303841"/>
      <g id="Grupo_58494" data-name="Grupo 58494" opacity="0.53">
        <path id="Trazado_103237" data-name="Trazado 103237" d="M272.251,151.1a11.236,11.236,0,1,1-11.237-11.237A11.237,11.237,0,0,1,272.251,151.1Z" transform="translate(603.5 520.603)" fill="#bb83ff"/>
        <path id="Trazado_103239" data-name="Trazado 103239" d="M213.288,185.137A11.236,11.236,0,1,1,202.051,173.9,11.237,11.237,0,0,1,213.288,185.137Z" transform="translate(521.577 567.901)" fill="#bb83ff"/>
        <path id="Trazado_103243" data-name="Trazado 103243" d="M254.971,168.377c-.64.349-3.171.291-3.178-.115-.007-.435-.327-.647-.523-.96-.351-.559-3.548-6.033-4.287-7.089-.124-.179-.127-.308.062-.423a.672.672,0,0,0-.889-.691,2.525,2.525,0,0,1-.865.105c-.879-.136-9.238-2.75-9.383-2.318-.091-.119.01-.4-.208-.363-.416.081-.808-.131-1.238,0-.516.162-5.818,3.782-6.387,4.1a1.223,1.223,0,0,0-.385.318c-.547.686-.832,1.524-1.371,2.213-.256.323-.191,4.3-.227,4.843,0,.067.127.17.215.21.581.265,3.577,3.613,4.466,3.271.294-.112.619-.291.949-.1.237.141,5.7.593,5.715,1.324a2.25,2.25,0,0,1-.148.922,1.359,1.359,0,0,0,.483,1.7c.339.289,1.266,4.258.975,4.831-.485.946,1.171,6.915,1.541,7.457a2.464,2.464,0,0,1,.726,1.809c-.076.487.4.779.913.688a33.554,33.554,0,0,0,5.14-3.066c.069-.062.041-.16.012-.244-.208-.59,3.565-5.539,3.639-6.119.079-.612.827-6.394,1.677-7.422.4-.478,1.066-.681,1.379-1.243.475-.848.9-1.728,1.357-2.585a1.573,1.573,0,0,0,.172-.855C255.292,168.348,255.189,168.26,254.971,168.377Z" transform="translate(570.591 543.697)" fill="#bb83ff"/>
        <path id="Trazado_103244" data-name="Trazado 103244" d="M213.633,175.19a.579.579,0,0,0,.683-.031c.251-.287.466-.2.707-.06s.507.191.652.466c.318.609,2.533,1.876,2.827,2.385a3.107,3.107,0,0,0,1.694,1.113c.2.072,1.529.337,1.6.6a2.1,2.1,0,0,1-.373,2,6.368,6.368,0,0,0-1.044,1.548c-.088.208,2.275,6.1,2.483,6.447a1.4,1.4,0,0,0,.571.509,4.493,4.493,0,0,1,1.5.934c.323.389.836,5.379.934,6.06a8.809,8.809,0,0,1,.21,2.738,1.334,1.334,0,0,0,.124,1.1.4.4,0,0,1,.067.294,22.57,22.57,0,0,0,2.671,6.033,1.057,1.057,0,0,0,1.269.05c.084-.084.141-.16.065-.265-.318-.425-.074-.8.122-1.159.239-.437,1.878-5.03,2.084-5.45a17.776,17.776,0,0,1,1.078-1.6,11.15,11.15,0,0,0,1.577-3.175,37.545,37.545,0,0,0,2.9-2.7c.475-1.123,1.426-5.278,1.876-5.737a1.791,1.791,0,0,0,.459-.97.848.848,0,0,0-.683-1.118,2.177,2.177,0,0,1-1.238-.815.366.366,0,0,0-.241-.184c-.707-.086-7.962-4.365-8.332-4.98a1.241,1.241,0,0,0-.638-.583c-.413-.134-.674-.487-1.073-.628-.206-.072-1.41-.645-2.055-.277-.019.01-.134-.139-.2-.22-.2-.256-1.876-.11-2.165-.072a1.44,1.44,0,0,0-1.106.908c-.17.318-.459.6-.867.215-.361-.339-2.571-.9-2.478-1.453.076-.444,2.475-6.786,2.521-7.037.017-.1-.055-.2-.055-.306,0-.669-.4-1.381.184-2a5.684,5.684,0,0,1,1.594-1.145c.638-.323,1.207-1.618,1.343-1.443.165-.172.37-.287.4-.542.007-.076.014-.234.108-.191.444.217.585-.208.7-.406a1.926,1.926,0,0,1,1.412-.875c.122-.024,2.315-1.235,2.468-1.054a.294.294,0,0,0,.464,0c.475-.552,1.216-.557,1.806-.877.361-.194,1.974-2.5,2.889-3.054.22-.134-1.216-2.671-1.1-3.015.038-.115-6.243-4.413-6.126-4.776s-.043-.418-.339-.32c-.131.043-1.947,2.069-2.636,1.417-.045-.043-.177-.031-.253,0a2.024,2.024,0,0,1-1.223-.1,1.469,1.469,0,0,0-1.546.442c-.1.115-.253.3-.354.064-.194-.454-.5-.44-.894-.346a1.16,1.16,0,0,1-.318.021A36.34,36.34,0,0,0,210.023,170.9,35.476,35.476,0,0,0,213.633,175.19Z" transform="translate(548.263 534.765)" fill="#bb83ff"/>
        <path id="Trazado_103245" data-name="Trazado 103245" d="M242.45,151.091c-.165.007-.294.012-.356.01.124.222-1.123.272-1.3.174a17.777,17.777,0,0,0-4.483-1.08c-1.663-.021-5.018,2.939-5.737,3.18-.657.222,10.341,12.15,10.776,11.9.361-.205.519-.01.571.418a9.421,9.421,0,0,1-1.056,2.824.888.888,0,0,0,.533.774c.227.129,4.167,5.381,4.217,6.494a1.533,1.533,0,0,0,.213.473c.11.244.268.289.542.246a5.21,5.21,0,0,0,1.527-.65c.105-.053.194-.258.265-.246.812.136,1.125-.475,1.544-.958-.229-.146-.483.022-.734-.172a4.936,4.936,0,0,1,.631,0,1.769,1.769,0,0,0,1.842-.9,3.978,3.978,0,0,1,.731-1.07c.339-.27.287-.466-.038-.781-.227-.22.354-.483,1-.7A36.336,36.336,0,0,0,242.45,151.091Z" transform="translate(576.778 534.964)" fill="#bb83ff"/>
        <circle id="Elipse_4023" data-name="Elipse 4023" cx="7.76" cy="7.76" r="7.76" transform="translate(530.969 728.834)" fill="#bb83ff"/>
        <circle id="Elipse_4024" data-name="Elipse 4024" cx="6.036" cy="6.036" r="6.036" transform="translate(1089.504 751.132)" fill="#bb83ff"/>
        <path id="Trazado_103271" data-name="Trazado 103271" d="M344.4,202.037h32.35a16.175,16.175,0,1,0-32.35,0Z" transform="translate(734.967 584.52)" fill="#bb83ff"/>
        <path id="Trazado_103273" data-name="Trazado 103273" d="M151.1,207.275H128.019l33.15,14.584Z" transform="translate(434.326 614.273)" fill="#bb83ff"/>
        <path id="Trazado_103275" data-name="Trazado 103275" d="M134.327,197.643a3.057,3.057,0,1,0,3.058-3.058A3.058,3.058,0,0,0,134.327,197.643Z" transform="translate(443.091 596.642)" fill="#bb83ff"/>
        <path id="Trazado_103276" data-name="Trazado 103276" d="M132.178,206.859h16.387a8.193,8.193,0,0,0-16.387,0Z" transform="translate(440.105 602.312)" fill="#bb83ff"/>
        <path id="Trazado_103319" data-name="Trazado 103319" d="M88.639,143.126a25.144,25.144,0,0,0-19.165,41.44l-.024-.012-5.061,20.573a1.461,1.461,0,0,0,2.239,1.558l19.631-13.35-.012-.007c.788.074,1.584.122,2.392.122a25.162,25.162,0,0,0,0-50.323Z" transform="translate(344.652 525.144)" fill="#bb83ff"/>
        <rect id="Rectángulo_5629" data-name="Rectángulo 5629" width="36.288" height="49.225" transform="translate(650.331 686.665)" fill="#bb83ff"/>
        <path id="Trazado_103326" data-name="Trazado 103326" d="M302.2,226.343H271.97l4.847-13.156h20.539Z" transform="translate(634.334 622.486)" fill="#bb83ff"/>
        <rect id="Rectángulo_5631" data-name="Rectángulo 5631" width="55.34" height="31.169" transform="translate(893.855 794.026)" fill="#bb83ff"/>
        <circle id="Elipse_4026" data-name="Elipse 4026" cx="17.467" cy="17.467" r="17.467" transform="translate(704.386 827.093) rotate(-76.965)" fill="#bb83ff"/>
        <rect id="Rectángulo_5632" data-name="Rectángulo 5632" width="13.074" height="104.445" transform="translate(942.657 643.229)" fill="#bb83ff"/>
        <rect id="Rectángulo_5633" data-name="Rectángulo 5633" width="66.299" height="40.765" rx="4.214" transform="translate(1037.028 827.025) rotate(180)" fill="#bb83ff"/>
        <path id="Trazado_103365" data-name="Trazado 103365" d="M335.941,165.5a7.365,7.365,0,1,1-7.364-7.367A7.365,7.365,0,0,1,335.941,165.5Z" transform="translate(702.748 545.99)" fill="#bb83ff"/>
        <rect id="Rectángulo_5639" data-name="Rectángulo 5639" width="81.444" height="73.277" transform="translate(1176.453 740.679)" fill="#bb83ff"/>
        <path id="Trazado_103397" data-name="Trazado 103397" d="M427.474,161.107a8.844,8.844,0,1,1-8.843-8.846A8.844,8.844,0,0,1,427.474,161.107Z" transform="translate(825.815 537.836)" fill="#bb83ff"/>
        <path id="Trazado_103398" data-name="Trazado 103398" d="M12.028,186.014l25.265-22.855v22.855Z" transform="translate(273.167 552.977)" fill="#bb83ff"/>
        <path id="Trazado_103412" data-name="Trazado 103412" d="M199.5,151.454a23.214,23.214,0,1,0-34.247-1.555l2.972,2.972A23.213,23.213,0,0,0,199.5,151.454Zm-27.041-5.787a15.027,15.027,0,1,1,21.251,0A15.027,15.027,0,0,1,172.462,145.667Z" transform="translate(478.589 481.656)" fill="#bb83ff"/>
      </g>
      <path id="Trazado_103254" data-name="Trazado 103254" d="M137.132,146.873a4.836,4.836,0,1,1,4.836-4.836A4.842,4.842,0,0,1,137.132,146.873Zm0-7.283a2.447,2.447,0,1,0,2.447,2.447A2.451,2.451,0,0,0,137.132,139.59Z" transform="translate(440.269 516.911)" fill="#303841"/>
      <path id="Trazado_103255" data-name="Trazado 103255" d="M150.446,153.644H130.932a1.192,1.192,0,0,1-1.195-1.195,10.952,10.952,0,0,1,21.9,0A1.194,1.194,0,0,1,150.446,153.644Zm-18.238-2.389h16.96a8.565,8.565,0,0,0-16.96,0Z" transform="translate(436.714 522.886)" fill="#303841"/>
      <path id="Trazado_103256" data-name="Trazado 103256" d="M118.24,156.874a4.835,4.835,0,1,1,4.836-4.836A4.84,4.84,0,0,1,118.24,156.874Zm0-7.281a2.446,2.446,0,1,0,2.447,2.444A2.448,2.448,0,0,0,118.24,149.593Z" transform="translate(414.021 530.81)" fill="#303841"/>
      <path id="Trazado_103257" data-name="Trazado 103257" d="M131.553,163.65H112.039a1.2,1.2,0,0,1-1.195-1.195,10.952,10.952,0,1,1,21.9,0A1.2,1.2,0,0,1,131.553,163.65Zm-18.236-2.389h16.958a8.562,8.562,0,0,0-16.958,0Z" transform="translate(410.463 536.781)" fill="#303841"/>
      <path id="Trazado_103258" data-name="Trazado 103258" d="M127.686,156.874a4.835,4.835,0,1,1,4.836-4.836A4.842,4.842,0,0,1,127.686,156.874Zm0-7.281a2.446,2.446,0,1,0,2.447,2.444A2.449,2.449,0,0,0,127.686,149.593Z" transform="translate(427.145 530.81)" fill="#303841"/>
      <path id="Trazado_103259" data-name="Trazado 103259" d="M141,163.65H121.485a1.2,1.2,0,0,1-1.195-1.195,10.952,10.952,0,1,1,21.9,0A1.194,1.194,0,0,1,141,163.65Zm-18.236-2.389h16.96a8.564,8.564,0,0,0-16.96,0Z" transform="translate(423.588 536.781)" fill="#303841"/>
      <circle id="Elipse_4022" data-name="Elipse 4022" cx="3.641" cy="3.641" r="3.641" transform="translate(573.761 679.207)" fill="#fbcb43"/>
      <path id="Trazado_103260" data-name="Trazado 103260" d="M149.751,161.759H130.237a9.757,9.757,0,0,1,19.514,0Z" transform="translate(437.408 537.478)" fill="#fbcb43"/>
      <path id="Trazado_103261" data-name="Trazado 103261" d="M146.579,156.874a4.835,4.835,0,1,1,4.834-4.836A4.84,4.84,0,0,1,146.579,156.874Zm0-7.281a2.446,2.446,0,1,0,2.444,2.444A2.448,2.448,0,0,0,146.579,149.593Z" transform="translate(453.395 530.81)" fill="#303841"/>
      <path id="Trazado_103262" data-name="Trazado 103262" d="M159.892,163.65H140.378a1.2,1.2,0,0,1-1.195-1.195,10.952,10.952,0,1,1,21.9,0A1.2,1.2,0,0,1,159.892,163.65Zm-18.236-2.389h16.958a8.562,8.562,0,0,0-16.958,0Z" transform="translate(449.838 536.781)" fill="#303841"/>
      <path id="Trazado_103263" data-name="Trazado 103263" d="M118.24,166.876a4.835,4.835,0,1,1,4.836-4.834A4.838,4.838,0,0,1,118.24,166.876Zm0-7.281a2.446,2.446,0,1,0,2.447,2.447A2.448,2.448,0,0,0,118.24,159.6Z" transform="translate(414.021 544.706)" fill="#303841"/>
      <path id="Trazado_103264" data-name="Trazado 103264" d="M131.553,173.65H112.039a1.194,1.194,0,0,1-1.195-1.195,10.952,10.952,0,0,1,21.9,0A1.194,1.194,0,0,1,131.553,173.65Zm-18.236-2.389h16.958a8.563,8.563,0,0,0-16.958,0Z" transform="translate(410.463 550.68)" fill="#303841"/>
      <path id="Trazado_103265" data-name="Trazado 103265" d="M127.686,166.876a4.835,4.835,0,1,1,4.836-4.834A4.84,4.84,0,0,1,127.686,166.876Zm0-7.281a2.446,2.446,0,1,0,2.447,2.447A2.45,2.45,0,0,0,127.686,159.6Z" transform="translate(427.145 544.706)" fill="#303841"/>
      <path id="Trazado_103266" data-name="Trazado 103266" d="M141,173.65H121.485a1.194,1.194,0,0,1-1.195-1.195,10.952,10.952,0,0,1,21.9,0A1.192,1.192,0,0,1,141,173.65Zm-18.236-2.389h16.96a8.564,8.564,0,0,0-16.96,0Z" transform="translate(423.588 550.68)" fill="#303841"/>
      <path id="Trazado_103267" data-name="Trazado 103267" d="M146.579,166.876a4.835,4.835,0,1,1,4.834-4.834A4.838,4.838,0,0,1,146.579,166.876Zm0-7.281a2.446,2.446,0,1,0,2.444,2.447A2.448,2.448,0,0,0,146.579,159.6Z" transform="translate(453.395 544.706)" fill="#303841"/>
      <path id="Trazado_103268" data-name="Trazado 103268" d="M159.892,173.65H140.378a1.194,1.194,0,0,1-1.195-1.195,10.952,10.952,0,0,1,21.9,0A1.194,1.194,0,0,1,159.892,173.65Zm-18.236-2.389h16.958a8.563,8.563,0,0,0-16.958,0Z" transform="translate(449.838 550.68)" fill="#303841"/>
      <path id="Trazado_103269" data-name="Trazado 103269" d="M162.527,249.551h-.014a57.814,57.814,0,0,1,.667-115.624,1.272,1.272,0,0,1,1.283,1.195,1.123,1.123,0,0,1-1.106,1.195h-.177a55.424,55.424,0,0,0-2.8,110.778,4.886,4.886,0,0,1-.569-1.29l-5.672-20.683a5,5,0,0,1,9.637-2.645L165.6,229.1c.076-.048.155-.091.234-.134V204.123a5,5,0,1,1,9.995,0V208.7a4.993,4.993,0,0,1,8.148,3.876v2.16a4.993,4.993,0,0,1,8.146,3.876v.349a5,5,0,0,1,8.148,3.876v6.361a4.211,4.211,0,0,1,1.854,3.5,1.195,1.195,0,0,1-2.389,0A1.824,1.824,0,0,0,198.61,231a1.2,1.2,0,0,1-.734-1.1v-7.068a2.608,2.608,0,0,0-5.216,0v6.831a1.194,1.194,0,0,1-1.195,1.195h-.542a1.2,1.2,0,0,1-1.195-1.195V218.608a2.607,2.607,0,1,0-5.214,0v11.056a1.2,1.2,0,0,1-1.195,1.195h-.542a1.194,1.194,0,0,1-1.195-1.195V212.572a2.608,2.608,0,1,0-5.216,0v17.091a1.2,1.2,0,0,1-1.195,1.195h-.542a1.2,1.2,0,0,1-1.195-1.195v-25.54a2.608,2.608,0,1,0-5.216,0v25.655a1.191,1.191,0,0,1-.886,1.152,1.84,1.84,0,0,0-1.216,1.044,1.2,1.2,0,0,1-2.253-.151l-2.389-8.714a2.606,2.606,0,1,0-5.027,1.379l5.67,20.683a2.612,2.612,0,0,0,.471.915,1.2,1.2,0,0,1,.234.514l.712,1.113a1.194,1.194,0,0,1-1.006,1.837Z" transform="translate(402.848 512.362)" fill="#303841"/>
      <path id="Trazado_103270" data-name="Trazado 103270" d="M129.9,184.678a1.2,1.2,0,0,1-.846-.349l-8.769-8.772a1.195,1.195,0,0,1,1.689-1.689l8.772,8.769a1.195,1.195,0,0,1-.846,2.041Z" transform="translate(423.089 567.369)" fill="#303841"/>
      <circle id="Elipse_4025" data-name="Elipse 4025" cx="4.049" cy="4.049" r="4.049" transform="translate(1122.1 756.734)" fill="#fbcb43"/>
      <path id="Trazado_103272" data-name="Trazado 103272" d="M359.437,196.4h21.7a10.85,10.85,0,1,0-21.7,0Z" transform="translate(755.861 584.094)" fill="#fbcb43"/>
      <path id="Trazado_103274" data-name="Trazado 103274" d="M171.07,232.869H124.909a11.277,11.277,0,0,1-11.264-11.264V200.978a11.277,11.277,0,0,1,11.264-11.264H171.07a11.277,11.277,0,0,1,11.264,11.264v20.628A11.277,11.277,0,0,1,171.07,232.869ZM124.909,192.1a8.884,8.884,0,0,0-8.874,8.874v20.628a8.884,8.884,0,0,0,8.874,8.874H171.07a8.884,8.884,0,0,0,8.874-8.874V200.978a8.884,8.884,0,0,0-8.874-8.874Z" transform="translate(414.355 589.874)" fill="#303841"/>
      <path id="Trazado_103277" data-name="Trazado 103277" d="M142.522,197.284H118.776a1.195,1.195,0,1,1,0-2.389h23.746a1.195,1.195,0,0,1,0,2.389Z" transform="translate(419.824 597.072)" fill="#303841"/>
      <path id="Trazado_103278" data-name="Trazado 103278" d="M132.227,199.245h-2.389a1.195,1.195,0,0,1,0-2.389h2.389a1.195,1.195,0,1,1,0,2.389Z" transform="translate(435.193 599.797)" fill="#303841"/>
      <path id="Trazado_103279" data-name="Trazado 103279" d="M136.211,199.245H131.4a1.195,1.195,0,1,1,0-2.389h4.807a1.195,1.195,0,0,1,0,2.389Zm-9.615,0h-4.807a1.195,1.195,0,1,1,0-2.389H126.6a1.195,1.195,0,0,1,0,2.389Z" transform="translate(424.01 599.797)" fill="#303841"/>
      <path id="Trazado_103280" data-name="Trazado 103280" d="M121.165,199.245h-2.389a1.195,1.195,0,1,1,0-2.389h2.389a1.195,1.195,0,0,1,0,2.389Z" transform="translate(419.824 599.797)" fill="#303841"/>
      <path id="Trazado_103281" data-name="Trazado 103281" d="M132.227,201.206h-2.389a1.195,1.195,0,0,1,0-2.389h2.389a1.195,1.195,0,1,1,0,2.389Z" transform="translate(435.193 602.521)" fill="#303841"/>
      <path id="Trazado_103282" data-name="Trazado 103282" d="M136.211,201.206H131.4a1.195,1.195,0,1,1,0-2.389h4.807a1.195,1.195,0,0,1,0,2.389Zm-9.615,0h-4.807a1.195,1.195,0,1,1,0-2.389H126.6a1.195,1.195,0,0,1,0,2.389Z" transform="translate(424.01 602.521)" fill="#303841"/>
      <path id="Trazado_103283" data-name="Trazado 103283" d="M121.165,201.206h-2.389a1.195,1.195,0,0,1,0-2.389h2.389a1.195,1.195,0,0,1,0,2.389Z" transform="translate(419.824 602.521)" fill="#303841"/>
      <path id="Trazado_103284" data-name="Trazado 103284" d="M132.227,203.167h-2.389a1.195,1.195,0,0,1,0-2.389h2.389a1.195,1.195,0,1,1,0,2.389Z" transform="translate(435.193 605.246)" fill="#303841"/>
      <path id="Trazado_103285" data-name="Trazado 103285" d="M136.211,203.167H131.4a1.195,1.195,0,1,1,0-2.389h4.807a1.195,1.195,0,0,1,0,2.389Zm-9.615,0h-4.807a1.195,1.195,0,1,1,0-2.389H126.6a1.195,1.195,0,0,1,0,2.389Z" transform="translate(424.01 605.246)" fill="#303841"/>
      <path id="Trazado_103286" data-name="Trazado 103286" d="M121.165,203.167h-2.389a1.195,1.195,0,0,1,0-2.389h2.389a1.195,1.195,0,0,1,0,2.389Z" transform="translate(419.824 605.246)" fill="#303841"/>
      <path id="Trazado_103287" data-name="Trazado 103287" d="M156.437,211.927h23.081l-33.15,14.584Z" transform="translate(459.821 620.736)" fill="#fbcb43"/>
      <path id="Trazado_103288" data-name="Trazado 103288" d="M203.294,237.521H157.13a11.274,11.274,0,0,1-11.261-11.264V205.63a11.275,11.275,0,0,1,11.261-11.264h46.163a11.277,11.277,0,0,1,11.264,11.264v20.628A11.276,11.276,0,0,1,203.294,237.521ZM157.13,196.755a8.884,8.884,0,0,0-8.872,8.874v20.628a8.884,8.884,0,0,0,8.872,8.874h46.163a8.884,8.884,0,0,0,8.874-8.874V205.63a8.884,8.884,0,0,0-8.874-8.874Z" transform="translate(459.127 596.337)" fill="#303841"/>
      <path id="Trazado_103289" data-name="Trazado 103289" d="M157.712,202.3a3.058,3.058,0,1,1-3.058-3.058A3.058,3.058,0,0,1,157.712,202.3Z" transform="translate(467.083 603.104)" fill="#fbcb43"/>
      <path id="Trazado_103290" data-name="Trazado 103290" d="M165.833,211.511H149.446a8.193,8.193,0,1,1,16.387,0Z" transform="translate(464.097 608.774)" fill="#fbcb43"/>
      <path id="Trazado_103291" data-name="Trazado 103291" d="M184.9,202.344H161.158a1.195,1.195,0,0,1,0-2.389H184.9a1.195,1.195,0,0,1,0,2.389Z" transform="translate(478.709 604.103)" fill="#303841"/>
      <path id="Trazado_103292" data-name="Trazado 103292" d="M161.423,204.305h-2.389a1.195,1.195,0,0,1,0-2.389h2.389a1.195,1.195,0,0,1,0,2.389Z" transform="translate(475.759 606.827)" fill="#303841"/>
      <path id="Trazado_103293" data-name="Trazado 103293" d="M176.469,204.305h-4.807a1.195,1.195,0,0,1,0-2.389h4.807a1.195,1.195,0,0,1,0,2.389Zm-9.615,0h-4.807a1.195,1.195,0,0,1,0-2.389h4.807a1.195,1.195,0,0,1,0,2.389Z" transform="translate(479.945 606.827)" fill="#303841"/>
      <path id="Trazado_103294" data-name="Trazado 103294" d="M172.485,204.305H170.1a1.195,1.195,0,1,1,0-2.389h2.389a1.195,1.195,0,0,1,0,2.389Z" transform="translate(491.128 606.827)" fill="#303841"/>
      <path id="Trazado_103295" data-name="Trazado 103295" d="M161.423,206.266h-2.389a1.195,1.195,0,0,1,0-2.389h2.389a1.195,1.195,0,0,1,0,2.389Z" transform="translate(475.759 609.552)" fill="#303841"/>
      <path id="Trazado_103296" data-name="Trazado 103296" d="M176.469,206.266h-4.807a1.195,1.195,0,0,1,0-2.389h4.807a1.195,1.195,0,0,1,0,2.389Zm-9.615,0h-4.807a1.195,1.195,0,0,1,0-2.389h4.807a1.195,1.195,0,0,1,0,2.389Z" transform="translate(479.945 609.552)" fill="#303841"/>
      <path id="Trazado_103297" data-name="Trazado 103297" d="M172.485,206.266H170.1a1.195,1.195,0,0,1,0-2.389h2.389a1.195,1.195,0,0,1,0,2.389Z" transform="translate(491.128 609.552)" fill="#303841"/>
      <path id="Trazado_103298" data-name="Trazado 103298" d="M161.423,208.228h-2.389a1.195,1.195,0,0,1,0-2.389h2.389a1.195,1.195,0,0,1,0,2.389Z" transform="translate(475.759 612.278)" fill="#303841"/>
      <path id="Trazado_103299" data-name="Trazado 103299" d="M176.469,208.228h-4.807a1.195,1.195,0,0,1,0-2.389h4.807a1.195,1.195,0,0,1,0,2.389Zm-9.615,0h-4.807a1.195,1.195,0,0,1,0-2.389h4.807a1.195,1.195,0,0,1,0,2.389Z" transform="translate(479.945 612.278)" fill="#303841"/>
      <path id="Trazado_103300" data-name="Trazado 103300" d="M172.485,208.228H170.1a1.195,1.195,0,1,1,0-2.389h2.389a1.195,1.195,0,0,1,0,2.389Z" transform="translate(491.128 612.278)" fill="#303841"/>
      <rect id="Rectángulo_5628" data-name="Rectángulo 5628" width="66.299" height="40.765" rx="4.214" transform="translate(1047.724 797.377)" fill="#fbcb43"/>
      <path id="Trazado_103301" data-name="Trazado 103301" d="M331.85,230.692a1.192,1.192,0,0,1-.982-1.873l10.069-14.585a1.192,1.192,0,0,1,.982-.514H365a1.194,1.194,0,0,1,.48,2.287l-33.151,14.585A1.156,1.156,0,0,1,331.85,230.692Zm10.7-14.583-7.319,10.6,24.09-10.6Z" transform="translate(715.873 623.229)" fill="#303841"/>
      <path id="Trazado_103302" data-name="Trazado 103302" d="M342.5,204.586a3.058,3.058,0,1,1-3.058-3.056A3.058,3.058,0,0,1,342.5,204.586Z" transform="translate(723.83 606.291)" fill="#fbcb43"/>
      <path id="Trazado_103303" data-name="Trazado 103303" d="M340.136,209.534a4.252,4.252,0,1,1,4.251-4.251A4.257,4.257,0,0,1,340.136,209.534Zm0-6.115A1.863,1.863,0,1,0,342,205.283,1.863,1.863,0,0,0,340.136,203.419Z" transform="translate(723.136 605.596)" fill="#303841"/>
      <path id="Trazado_103304" data-name="Trazado 103304" d="M350.621,213.8H334.234a8.193,8.193,0,1,1,16.387,0Z" transform="translate(720.844 611.96)" fill="#fbcb43"/>
      <path id="Trazado_103305" data-name="Trazado 103305" d="M351.317,215.7H334.928a1.2,1.2,0,0,1-1.195-1.195,9.389,9.389,0,1,1,18.778,0A1.2,1.2,0,0,1,351.317,215.7Zm-15.092-2.389h13.794a7,7,0,0,0-13.794,0Z" transform="translate(720.148 611.265)" fill="#303841"/>
      <path id="Trazado_103306" data-name="Trazado 103306" d="M369.689,204.636H345.946a1.195,1.195,0,1,1,0-2.389h23.744a1.195,1.195,0,0,1,0,2.389Z" transform="translate(735.457 607.287)" fill="#303841"/>
      <path id="Trazado_103307" data-name="Trazado 103307" d="M346.211,206.6h-2.389a1.195,1.195,0,0,1,0-2.389h2.389a1.195,1.195,0,0,1,0,2.389Z" transform="translate(732.506 610.012)" fill="#303841"/>
      <path id="Trazado_103308" data-name="Trazado 103308" d="M361.26,206.6h-4.81a1.195,1.195,0,0,1,0-2.389h4.81a1.195,1.195,0,0,1,0,2.389Zm-9.617,0h-4.807a1.195,1.195,0,0,1,0-2.389h4.807a1.195,1.195,0,0,1,0,2.389Z" transform="translate(736.692 610.012)" fill="#303841"/>
      <path id="Trazado_103309" data-name="Trazado 103309" d="M357.272,206.6h-2.389a1.195,1.195,0,0,1,0-2.389h2.389a1.195,1.195,0,0,1,0,2.389Z" transform="translate(747.874 610.012)" fill="#303841"/>
      <path id="Trazado_103310" data-name="Trazado 103310" d="M346.211,208.559h-2.389a1.195,1.195,0,0,1,0-2.389h2.389a1.195,1.195,0,0,1,0,2.389Z" transform="translate(732.506 612.738)" fill="#303841"/>
      <path id="Trazado_103311" data-name="Trazado 103311" d="M361.26,208.559h-4.81a1.195,1.195,0,0,1,0-2.389h4.81a1.195,1.195,0,0,1,0,2.389Zm-9.617,0h-4.807a1.195,1.195,0,0,1,0-2.389h4.807a1.195,1.195,0,0,1,0,2.389Z" transform="translate(736.692 612.738)" fill="#303841"/>
      <path id="Trazado_103312" data-name="Trazado 103312" d="M357.272,208.559h-2.389a1.195,1.195,0,0,1,0-2.389h2.389a1.195,1.195,0,0,1,0,2.389Z" transform="translate(747.874 612.738)" fill="#303841"/>
      <path id="Trazado_103313" data-name="Trazado 103313" d="M346.211,210.52h-2.389a1.195,1.195,0,0,1,0-2.389h2.389a1.195,1.195,0,0,1,0,2.389Z" transform="translate(732.506 615.463)" fill="#303841"/>
      <path id="Trazado_103314" data-name="Trazado 103314" d="M361.26,210.52h-4.81a1.195,1.195,0,0,1,0-2.389h4.81a1.195,1.195,0,0,1,0,2.389Zm-9.617,0h-4.807a1.195,1.195,0,0,1,0-2.389h4.807a1.195,1.195,0,0,1,0,2.389Z" transform="translate(736.692 615.463)" fill="#303841"/>
      <path id="Trazado_103315" data-name="Trazado 103315" d="M357.272,210.52h-2.389a1.195,1.195,0,0,1,0-2.389h2.389a1.195,1.195,0,0,1,0,2.389Z" transform="translate(747.874 615.463)" fill="#303841"/>
      <path id="Trazado_103316" data-name="Trazado 103316" d="M234.5,242.917a2.206,2.206,0,0,1-2.134-2.726l3.331-13.538a18.451,18.451,0,0,1,23.175-27.715,1.194,1.194,0,0,1-1.128,2.105A16.058,16.058,0,0,0,237.923,225.6a1.193,1.193,0,0,1,.182,1.257l-3.3,13.417,12.946-8.8a1.228,1.228,0,0,1,.877-.277,16.136,16.136,0,0,0,7.684-1.142,1.195,1.195,0,0,1,.915,2.208,18.5,18.5,0,0,1-8.372,1.352l-13.12,8.92A2.2,2.2,0,0,1,234.5,242.917Z" transform="translate(578.39 599.658)" fill="#303841"/>
      <path id="Trazado_103317" data-name="Trazado 103317" d="M258.883,197.256a17.247,17.247,0,0,1,13.146,28.424l.014-.01,3.472,14.112a1,1,0,0,1-1.536,1.068l-13.464-9.156.01,0c-.542.05-1.087.084-1.642.084a17.259,17.259,0,1,1,0-34.517Z" transform="translate(592.17 600.353)" fill="#fbcb43"/>
      <path id="Trazado_103318" data-name="Trazado 103318" d="M118.171,208.828a2.645,2.645,0,0,1-1.493-.464L97.39,195.251a26.376,26.376,0,0,1-12.145-1.916,1.2,1.2,0,0,1,.918-2.208,24.186,24.186,0,0,0,11.457,1.706,1.153,1.153,0,0,1,.934.32l19.469,13.235a.241.241,0,0,0,.3,0,.245.245,0,0,0,.108-.282l-5.018-20.389a1.183,1.183,0,0,1,.182-1.231,23.963,23.963,0,0,0-29.567-36.639,1.195,1.195,0,0,1-1.13-2.105,26.348,26.348,0,0,1,32.933,39.793l4.917,20a2.662,2.662,0,0,1-2.578,3.295Z" transform="translate(370.76 524.45)" fill="#303841"/>
      <path id="Trazado_103320" data-name="Trazado 103320" d="M206.46,218.247H168.413a6.783,6.783,0,0,1-6.774-6.776V152.784a6.782,6.782,0,0,1,6.774-6.774H206.46a6.782,6.782,0,0,1,6.774,6.774V211.47A6.783,6.783,0,0,1,206.46,218.247ZM168.413,148.4a4.389,4.389,0,0,0-4.385,4.385V211.47a4.391,4.391,0,0,0,4.385,4.387H206.46a4.391,4.391,0,0,0,4.385-4.387V152.784a4.389,4.389,0,0,0-4.385-4.385Z" transform="translate(481.038 529.15)" fill="#303841"/>
      <path id="Trazado_103321" data-name="Trazado 103321" d="M174.4,178.745a3.38,3.38,0,1,1,3.381-3.381A3.385,3.385,0,0,1,174.4,178.745Zm0-4.37a.99.99,0,1,0,.992.989A.991.991,0,0,0,174.4,174.374Z" transform="translate(494.074 565.24)" fill="#303841"/>
      <path id="Trazado_103322" data-name="Trazado 103322" d="M173.462,151.786a1.766,1.766,0,1,1,1.768-1.766A1.768,1.768,0,0,1,173.462,151.786Z" transform="translate(495.012 532.268)" fill="#303841"/>
      <path id="Trazado_103323" data-name="Trazado 103323" d="M295.362,201.3H271.346a4.485,4.485,0,0,1-4.48-4.48V150.533a4.485,4.485,0,0,1,4.48-4.48h24.016a4.485,4.485,0,0,1,4.48,4.48v46.283A4.485,4.485,0,0,1,295.362,201.3Zm-24.016-52.854a2.093,2.093,0,0,0-2.091,2.091v46.283a2.093,2.093,0,0,0,2.091,2.091h24.016a2.093,2.093,0,0,0,2.091-2.091V150.533a2.093,2.093,0,0,0-2.091-2.091Z" transform="translate(627.242 529.211)" fill="#303841"/>
      <rect id="Rectángulo_5630" data-name="Rectángulo 5630" width="21.65" height="35.594" transform="translate(899.771 684.88)" fill="#fbcb43"/>
      <path id="Trazado_103324" data-name="Trazado 103324" d="M275.434,171.122a2.864,2.864,0,1,1,2.862-2.863A2.867,2.867,0,0,1,275.434,171.122Zm0-3.338a.477.477,0,0,0-.478.475c0,.523.951.523.951,0A.475.475,0,0,0,275.434,167.784Z" transform="translate(635.163 556.084)" fill="#303841"/>
      <path id="Trazado_103325" data-name="Trazado 103325" d="M274.872,151.565a1.9,1.9,0,1,1,1.9-1.9A1.9,1.9,0,0,1,274.872,151.565Z" transform="translate(635.726 531.594)" fill="#303841"/>
      <path id="Trazado_103327" data-name="Trazado 103327" d="M335.069,245.388H267.542a5.813,5.813,0,0,1-5.806-5.806v-42.9a5.813,5.813,0,0,1,5.806-5.806h67.527a5.813,5.813,0,0,1,5.806,5.806v42.9A5.813,5.813,0,0,1,335.069,245.388ZM267.542,193.26a3.422,3.422,0,0,0-3.417,3.417v42.9A3.422,3.422,0,0,0,267.542,243h67.527a3.421,3.421,0,0,0,3.417-3.417v-42.9a3.421,3.421,0,0,0-3.417-3.417Z" transform="translate(620.115 591.48)" fill="#303841"/>
      <path id="Trazado_103328" data-name="Trazado 103328" d="M294.1,214.1h-2.389a1.195,1.195,0,0,1,0-2.389h1.195v-1.195a1.195,1.195,0,1,1,2.389,0v2.389A1.194,1.194,0,0,1,294.1,214.1Z" transform="translate(660.106 617.115)" fill="#303841"/>
      <path id="Trazado_103329" data-name="Trazado 103329" d="M319.67,212.71h-4.676a1.195,1.195,0,1,1,0-2.389h4.676a1.195,1.195,0,1,1,0,2.389Zm-9.355,0h-4.676a1.195,1.195,0,0,1,0-2.389h4.676a1.195,1.195,0,0,1,0,2.389Zm-9.352,0h-4.676a1.195,1.195,0,0,1,0-2.389h4.676a1.195,1.195,0,0,1,0,2.389Zm-9.355,0h-4.676a1.195,1.195,0,0,1,0-2.389h4.676a1.195,1.195,0,0,1,0,2.389Zm-9.352,0H277.58a1.195,1.195,0,0,1,0-2.389h4.676a1.195,1.195,0,0,1,0,2.389Zm-9.355,0h-4.676a1.195,1.195,0,1,1,0-2.389H272.9a1.195,1.195,0,1,1,0,2.389Z" transform="translate(627.472 618.504)" fill="#303841"/>
      <path id="Trazado_103330" data-name="Trazado 103330" d="M267.658,214.1h-2.389a1.2,1.2,0,0,1-1.195-1.195v-2.389a1.195,1.195,0,1,1,2.389,0v1.195h1.195a1.195,1.195,0,0,1,0,2.389Z" transform="translate(623.363 617.115)" fill="#303841"/>
      <path id="Trazado_103331" data-name="Trazado 103331" d="M265.269,224.525a1.2,1.2,0,0,1-1.195-1.195v-5.149a1.195,1.195,0,0,1,2.389,0v5.149A1.194,1.194,0,0,1,265.269,224.525Zm0-10.3a1.194,1.194,0,0,1-1.195-1.195v-5.147a1.195,1.195,0,0,1,2.389,0v5.147A1.192,1.192,0,0,1,265.269,214.227Zm0-10.3a1.2,1.2,0,0,1-1.195-1.195v-5.149a1.195,1.195,0,0,1,2.389,0v5.149A1.194,1.194,0,0,1,265.269,203.931Z" transform="translate(623.363 599.151)" fill="#303841"/>
      <path id="Trazado_103332" data-name="Trazado 103332" d="M265.269,198.016a1.194,1.194,0,0,1-1.195-1.195v-2.389a1.2,1.2,0,0,1,1.195-1.195h2.389a1.195,1.195,0,0,1,0,2.389h-1.195v1.195A1.192,1.192,0,0,1,265.269,198.016Z" transform="translate(623.363 594.768)" fill="#303841"/>
      <path id="Trazado_103333" data-name="Trazado 103333" d="M319.67,195.626h-4.676a1.195,1.195,0,1,1,0-2.389h4.676a1.195,1.195,0,1,1,0,2.389Zm-9.355,0h-4.676a1.195,1.195,0,0,1,0-2.389h4.676a1.195,1.195,0,0,1,0,2.389Zm-9.352,0h-4.676a1.195,1.195,0,0,1,0-2.389h4.676a1.195,1.195,0,0,1,0,2.389Zm-9.355,0h-4.676a1.195,1.195,0,0,1,0-2.389h4.676a1.195,1.195,0,0,1,0,2.389Zm-9.352,0H277.58a1.195,1.195,0,0,1,0-2.389h4.676a1.195,1.195,0,0,1,0,2.389Zm-9.355,0h-4.676a1.195,1.195,0,1,1,0-2.389H272.9a1.195,1.195,0,1,1,0,2.389Z" transform="translate(627.472 594.768)" fill="#303841"/>
      <path id="Trazado_103334" data-name="Trazado 103334" d="M294.1,198.016a1.194,1.194,0,0,1-1.195-1.195v-1.195h-1.195a1.195,1.195,0,0,1,0-2.389H294.1a1.194,1.194,0,0,1,1.195,1.195v2.389A1.192,1.192,0,0,1,294.1,198.016Z" transform="translate(660.106 594.768)" fill="#303841"/>
      <path id="Trazado_103335" data-name="Trazado 103335" d="M292.714,224.525a1.2,1.2,0,0,1-1.195-1.195v-5.149a1.195,1.195,0,0,1,2.389,0v5.149A1.194,1.194,0,0,1,292.714,224.525Zm0-10.3a1.194,1.194,0,0,1-1.195-1.195v-5.147a1.195,1.195,0,0,1,2.389,0v5.147A1.192,1.192,0,0,1,292.714,214.227Zm0-10.3a1.2,1.2,0,0,1-1.195-1.195v-5.149a1.195,1.195,0,1,1,2.389,0v5.149A1.194,1.194,0,0,1,292.714,203.931Z" transform="translate(661.496 599.151)" fill="#303841"/>
      <path id="Trazado_103336" data-name="Trazado 103336" d="M310.273,220.582H270.714a1.195,1.195,0,0,1,0-2.389h39.559a1.195,1.195,0,0,1,0,2.389Z" transform="translate(630.928 629.441)" fill="#303841"/>
      <path id="Trazado_103337" data-name="Trazado 103337" d="M214.275,239.665a34.78,34.78,0,0,1-30.886-18.69,1.195,1.195,0,1,1,2.117-1.109,32.464,32.464,0,0,0,61.226-15.049,1.195,1.195,0,0,1,2.389,0A34.886,34.886,0,0,1,214.275,239.665Z" transform="translate(511.068 609.199)" fill="#303841"/>
      <path id="Trazado_103338" data-name="Trazado 103338" d="M228.343,216.968a1.192,1.192,0,0,1-.846-.351l-10.112-10.11-10.112,10.11a1.194,1.194,0,0,1-1.689-1.687l10.958-10.958a1.2,1.2,0,0,1,1.689,0l10.955,10.958a1.195,1.195,0,0,1-.843,2.038Z" transform="translate(541.61 609.198)" fill="#303841"/>
      <path id="Trazado_103339" data-name="Trazado 103339" d="M182.846,225.582a1.194,1.194,0,0,1-1.195-1.195,34.855,34.855,0,0,1,65.738-16.155,1.195,1.195,0,1,1-2.117,1.109,32.465,32.465,0,0,0-61.231,15.046A1.2,1.2,0,0,1,182.846,225.582Z" transform="translate(508.843 589.629)" fill="#303841"/>
      <path id="Trazado_103340" data-name="Trazado 103340" d="M189.217,212.384a1.193,1.193,0,0,1-.846-.351l-10.955-10.955a1.195,1.195,0,0,1,1.689-1.689L189.217,209.5l10.112-10.112a1.195,1.195,0,0,1,1.689,1.689L190.06,212.033A1.183,1.183,0,0,1,189.217,212.384Z" transform="translate(502.472 602.827)" fill="#303841"/>
      <path id="Trazado_103341" data-name="Trazado 103341" d="M300.952,138.363H287.88a1.192,1.192,0,0,1-1.195-1.195v-6.583a1.192,1.192,0,0,1,1.195-1.195h13.073a1.192,1.192,0,0,1,1.195,1.195v6.583A1.192,1.192,0,0,1,300.952,138.363Zm-11.878-2.389h10.683V131.78H289.074Z" transform="translate(654.779 506.061)" fill="#303841"/>
      <path id="Trazado_103342" data-name="Trazado 103342" d="M294.416,204.973h0a1.189,1.189,0,0,1-1.159-.91l-6.537-26.726a1.193,1.193,0,0,1,1.161-1.479h13.072a1.193,1.193,0,0,1,1.161,1.479l-6.54,26.726A1.191,1.191,0,0,1,294.416,204.973ZM289.4,178.247l5.015,20.5,5.015-20.5Z" transform="translate(654.778 570.622)" fill="#303841"/>
      <path id="Trazado_103343" data-name="Trazado 103343" d="M322.866,204.883a4.253,4.253,0,1,1,4.256-4.253A4.256,4.256,0,0,1,322.866,204.883Zm0-6.117a1.864,1.864,0,1,0,1.866,1.864A1.866,1.866,0,0,0,322.866,198.766Z" transform="translate(699.143 599.131)" fill="#303841"/>
      <path id="Trazado_103344" data-name="Trazado 103344" d="M334.047,211.041H317.661a1.192,1.192,0,0,1-1.195-1.195,9.388,9.388,0,1,1,18.776,0A1.192,1.192,0,0,1,334.047,211.041Zm-15.089-2.389H332.75a7,7,0,0,0-13.792,0Z" transform="translate(696.157 604.801)" fill="#303841"/>
      <path id="Trazado_103345" data-name="Trazado 103345" d="M327.31,199.576H303.564a1.195,1.195,0,0,1,0-2.389H327.31a1.195,1.195,0,0,1,0,2.389Z" transform="translate(676.57 600.256)" fill="#303841"/>
      <path id="Trazado_103346" data-name="Trazado 103346" d="M317.015,201.537h-2.389a1.195,1.195,0,0,1,0-2.389h2.389a1.195,1.195,0,0,1,0,2.389Z" transform="translate(691.94 602.98)" fill="#303841"/>
      <path id="Trazado_103347" data-name="Trazado 103347" d="M321,201.537h-4.81a1.195,1.195,0,0,1,0-2.389H321a1.195,1.195,0,0,1,0,2.389Zm-9.615,0h-4.81a1.195,1.195,0,0,1,0-2.389h4.81a1.195,1.195,0,0,1,0,2.389Z" transform="translate(680.755 602.98)" fill="#303841"/>
      <path id="Trazado_103348" data-name="Trazado 103348" d="M305.953,201.537h-2.389a1.195,1.195,0,0,1,0-2.389h2.389a1.195,1.195,0,0,1,0,2.389Z" transform="translate(676.57 602.98)" fill="#303841"/>
      <path id="Trazado_103349" data-name="Trazado 103349" d="M317.015,203.5h-2.389a1.195,1.195,0,0,1,0-2.389h2.389a1.195,1.195,0,0,1,0,2.389Z" transform="translate(691.94 605.707)" fill="#303841"/>
      <path id="Trazado_103350" data-name="Trazado 103350" d="M321,203.5h-4.81a1.195,1.195,0,0,1,0-2.389H321a1.195,1.195,0,0,1,0,2.389Zm-9.615,0h-4.81a1.195,1.195,0,0,1,0-2.389h4.81a1.195,1.195,0,0,1,0,2.389Z" transform="translate(680.755 605.707)" fill="#303841"/>
      <path id="Trazado_103351" data-name="Trazado 103351" d="M305.953,203.5h-2.389a1.195,1.195,0,0,1,0-2.389h2.389a1.195,1.195,0,0,1,0,2.389Z" transform="translate(676.57 605.707)" fill="#303841"/>
      <path id="Trazado_103352" data-name="Trazado 103352" d="M317.015,205.46h-2.389a1.195,1.195,0,0,1,0-2.389h2.389a1.195,1.195,0,0,1,0,2.389Z" transform="translate(691.94 608.432)" fill="#303841"/>
      <path id="Trazado_103353" data-name="Trazado 103353" d="M321,205.46h-4.81a1.195,1.195,0,0,1,0-2.389H321a1.195,1.195,0,0,1,0,2.389Zm-9.615,0h-4.81a1.195,1.195,0,0,1,0-2.389h4.81a1.195,1.195,0,0,1,0,2.389Z" transform="translate(680.755 608.432)" fill="#303841"/>
      <path id="Trazado_103354" data-name="Trazado 103354" d="M305.953,205.46h-2.389a1.195,1.195,0,0,1,0-2.389h2.389a1.195,1.195,0,0,1,0,2.389Z" transform="translate(676.57 608.432)" fill="#303841"/>
      <path id="Trazado_103355" data-name="Trazado 103355" d="M346.651,226.041a1.173,1.173,0,0,1-.483-.1L313.02,211.356a1.2,1.2,0,0,1,.483-2.289h23.079a1.194,1.194,0,0,1,.982.516l10.069,14.585a1.194,1.194,0,0,1-.982,1.873Zm-27.466-14.585,24.088,10.6-7.319-10.6Z" transform="translate(690.377 616.763)" fill="#303841"/>
      <path id="Trazado_103356" data-name="Trazado 103356" d="M342.679,182.579,341.5,180.5c10.052-5.725,13.921-12.055,13.959-12.119l2.053,1.223C357.346,169.887,353.329,176.515,342.679,182.579Z" transform="translate(730.938 560.237)" fill="#303841"/>
      <path id="Trazado_103357" data-name="Trazado 103357" d="M359.194,256.132a60.018,60.018,0,1,1,60.017-60.02A60.087,60.087,0,0,1,359.194,256.132Zm0-117.648a57.629,57.629,0,1,0,57.628,57.628A57.693,57.693,0,0,0,359.194,138.484Z" transform="translate(672.131 515.375)" fill="#303841"/>
      <rect id="Rectángulo_5634" data-name="Rectángulo 5634" width="2.389" height="51.457" transform="translate(1030.13 718.854)" fill="#303841"/>
      <rect id="Rectángulo_5635" data-name="Rectángulo 5635" width="2.389" height="51.456" transform="translate(1030.13 652.664)" fill="#303841"/>
      <rect id="Rectángulo_5636" data-name="Rectángulo 5636" width="51.459" height="2.389" transform="translate(1038.689 710.292)" fill="#303841"/>
      <rect id="Rectángulo_5637" data-name="Rectángulo 5637" width="25.138" height="2.389" transform="translate(998.818 710.292)" fill="#303841"/>
      <rect id="Rectángulo_5638" data-name="Rectángulo 5638" width="11.588" height="2.389" transform="translate(972.5 710.292)" fill="#303841"/>
      <path id="Trazado_103358" data-name="Trazado 103358" d="M329.683,214.1c-.82-.487-20.138-12.365-22.482-49.69l2.385-.151c2.265,36.075,21.127,47.671,21.316,47.784Z" transform="translate(683.284 554.511)" fill="#303841"/>
      <path id="Trazado_103359" data-name="Trazado 103359" d="M309.586,187.148,307.2,187c2.342-37.327,21.662-49.205,22.482-49.693l1.221,2.055C330.715,139.472,311.844,151.178,309.586,187.148Z" transform="translate(683.284 517.057)" fill="#303841"/>
      <path id="Trazado_103360" data-name="Trazado 103360" d="M332.693,195.863l-1.231-2.048c.072-.045,7.386-4.571,13.417-16.427l2.129,1.082C340.64,190.991,333.013,195.669,332.693,195.863Z" transform="translate(716.993 572.748)" fill="#303841"/>
      <path id="Trazado_103361" data-name="Trazado 103361" d="M352.279,220.2l-2.311-.614a98.141,98.141,0,0,0,3.039-25.156c0-41.54-21.33-54.945-21.545-55.074l1.231-2.048c.927.557,22.7,14.126,22.7,57.121A100.648,100.648,0,0,1,352.279,220.2Z" transform="translate(716.993 517.059)" fill="#303841"/>
      <path id="Trazado_103362" data-name="Trazado 103362" d="M357.51,192.315c-43.153,0-56.574-21.782-57.124-22.709l2.053-1.221c.129.215,13.385,21.541,55.071,21.541a95.958,95.958,0,0,0,27.894-3.8l.7,2.284A98.207,98.207,0,0,1,357.51,192.315Z" transform="translate(673.815 560.239)" fill="#303841"/>
      <path id="Trazado_103363" data-name="Trazado 103363" d="M302.431,167.961l-2.045-1.23c.557-.927,14.129-22.7,57.124-22.7s56.565,21.777,57.121,22.7l-2.045,1.23c-.131-.215-13.534-21.545-55.076-21.545S302.563,167.746,302.431,167.961Z" transform="translate(673.815 526.394)" fill="#303841"/>
      <path id="Trazado_103364" data-name="Trazado 103364" d="M319.254,165.5a7.365,7.365,0,1,1-7.364-7.367A7.365,7.365,0,0,1,319.254,165.5Z" transform="translate(679.563 545.99)" fill="#fbcb43"/>
      <path id="Trazado_103366" data-name="Trazado 103366" d="M350.463,179.1a7.367,7.367,0,1,1-7.367-7.367A7.367,7.367,0,0,1,350.463,179.1Z" transform="translate(722.922 564.892)" fill="#fbcb43"/>
      <path id="Trazado_103367" data-name="Trazado 103367" d="M105.03,202.97h-4.538a1.434,1.434,0,0,1-1.434-1.436v-9.077a1.433,1.433,0,0,1,1.434-1.434h4.538a5.974,5.974,0,1,1,0,11.947Zm-3.1-2.87h3.1a3.1,3.1,0,0,0,0-6.208h-3.1Z" transform="translate(394.089 591.691)" fill="#303841"/>
      <path id="Trazado_103368" data-name="Trazado 103368" d="M121.931,193.443H66.138a3.524,3.524,0,0,0-3.524,3.522v30.188a3.524,3.524,0,0,0,3.524,3.522H75.35l-11.629,37.3a2.729,2.729,0,0,0,2.6,3.543H76.752a2.727,2.727,0,0,0,2.6-1.919l10.1-32.384a9.313,9.313,0,0,1,8.889-6.54h23.588l23.591,13.261V180.182Z" transform="translate(343.451 576.63)" fill="#fbcb43"/>
      <path id="Trazado_103369" data-name="Trazado 103369" d="M116.629,195.79H106.094a1.434,1.434,0,1,1,0-2.867h10.535a1.434,1.434,0,1,1,0,2.867Z" transform="translate(401.871 594.332)" fill="#303841"/>
      <path id="Trazado_103370" data-name="Trazado 103370" d="M106.14,195.064a1.435,1.435,0,0,1-.822-2.612l10.317-7.187a1.434,1.434,0,0,1,1.639,2.354l-10.318,7.187A1.415,1.415,0,0,1,106.14,195.064Z" transform="translate(401.934 583.334)" fill="#303841"/>
      <path id="Trazado_103371" data-name="Trazado 103371" d="M116.455,207.887a1.445,1.445,0,0,1-.82-.258l-10.317-7.19a1.433,1.433,0,1,1,1.639-2.351l10.318,7.187a1.435,1.435,0,0,1-.82,2.612Z" transform="translate(401.934 601.149)" fill="#303841"/>
      <path id="Trazado_103372" data-name="Trazado 103372" d="M79.836,225.233A1.435,1.435,0,0,1,78.4,223.8V186.565a1.435,1.435,0,0,1,2.87,0V223.8A1.435,1.435,0,0,1,79.836,225.233Z" transform="translate(365.385 583.506)" fill="#303841"/>
      <path id="Trazado_103373" data-name="Trazado 103373" d="M70.75,217.065H69.236A12.489,12.489,0,0,1,56.758,204.59v-4.822a12.489,12.489,0,0,1,12.478-12.475H70.75a1.432,1.432,0,0,1,1.434,1.434v26.9A1.433,1.433,0,0,1,70.75,217.065Zm-1.515-26.9a9.62,9.62,0,0,0-9.61,9.608v4.822a9.62,9.62,0,0,0,9.61,9.608h.081Z" transform="translate(335.315 586.51)" fill="#303841"/>
      <path id="Trazado_103374" data-name="Trazado 103374" d="M100.662,246.2H98.146a1.433,1.433,0,0,1-1.434-1.434V181.016a1.433,1.433,0,0,1,1.434-1.434h2.516a4.532,4.532,0,0,1,4.526,4.526v57.571A4.532,4.532,0,0,1,100.662,246.2Zm-1.082-2.867h1.082a1.659,1.659,0,0,0,1.658-1.658V184.108a1.659,1.659,0,0,0-1.658-1.658H99.579Z" transform="translate(390.828 575.796)" fill="#303841"/>
      <path id="Trazado_103375" data-name="Trazado 103375" d="M506.945,263.969a1.194,1.194,0,0,1-1.195-1.195V182.3a11.351,11.351,0,0,0-11.34-11.338H387.732A11.35,11.35,0,0,0,376.394,182.3v80.471a1.195,1.195,0,0,1-2.389,0V182.3a13.742,13.742,0,0,1,13.727-13.727H494.41A13.744,13.744,0,0,1,508.14,182.3v80.471A1.2,1.2,0,0,1,506.945,263.969Z" transform="translate(776.103 560.504)" fill="#303841"/>
      <path id="Trazado_103376" data-name="Trazado 103376" d="M528.572,227.908H376.553a10.829,10.829,0,0,1-10.817-10.814v-5.935a1.2,1.2,0,0,1,1.195-1.195H538.192a1.2,1.2,0,0,1,1.195,1.195v5.935A10.827,10.827,0,0,1,528.572,227.908ZM368.125,212.353v4.741a8.436,8.436,0,0,0,8.428,8.425H528.572A8.435,8.435,0,0,0,537,217.094v-4.741Z" transform="translate(764.614 618.009)" fill="#303841"/>
      <path id="Trazado_103377" data-name="Trazado 103377" d="M434.852,220.131H394.278a1.194,1.194,0,0,1-1.195-1.195v-7.777a1.2,1.2,0,0,1,1.195-1.195h40.575a1.194,1.194,0,0,1,1.195,1.195v7.777A1.192,1.192,0,0,1,434.852,220.131Zm-39.38-2.389h38.185v-5.388H395.472Z" transform="translate(802.61 618.009)" fill="#303841"/>
      <path id="Trazado_103378" data-name="Trazado 103378" d="M396.858,179.464a3.205,3.205,0,1,1-3.207-3.2A3.207,3.207,0,0,1,396.858,179.464Z" transform="translate(798.947 571.181)" fill="#fbcb43"/>
      <path id="Trazado_103379" data-name="Trazado 103379" d="M405.373,188.635h-17.18a8.59,8.59,0,1,1,17.18,0Z" transform="translate(795.816 576.439)" fill="#fbcb43"/>
      <rect id="Rectángulo_5640" data-name="Rectángulo 5640" width="41.124" height="7.217" transform="translate(1209.696 747.44)" fill="#fbcb43"/>
      <path id="Trazado_103380" data-name="Trazado 103380" d="M440.762,192.748H399.638a1.2,1.2,0,0,1-1.195-1.195v-7.218a1.2,1.2,0,0,1,1.195-1.195h41.124a1.194,1.194,0,0,1,1.195,1.195v7.218A1.194,1.194,0,0,1,440.762,192.748Zm-39.93-2.389h38.735v-4.829H400.832Z" transform="translate(810.057 580.74)" fill="#303841"/>
      <path id="Trazado_103381" data-name="Trazado 103381" d="M440.762,183.343H399.638a1.195,1.195,0,0,1,0-2.389h41.124a1.195,1.195,0,0,1,0,2.389Z" transform="translate(810.057 577.702)" fill="#303841"/>
      <path id="Trazado_103382" data-name="Trazado 103382" d="M447.419,196.1H388.888a1.2,1.2,0,0,1-1.195-1.195V189.95a1.2,1.2,0,0,1,1.195-1.195h58.531a1.194,1.194,0,0,1,1.195,1.195v4.958A1.194,1.194,0,0,1,447.419,196.1Zm-57.336-2.389h56.142v-2.569H390.082Z" transform="translate(795.121 588.541)" fill="#303841"/>
      <path id="Trazado_103383" data-name="Trazado 103383" d="M418.153,195.41H388.888a1.195,1.195,0,0,1,0-2.389h29.266a1.195,1.195,0,0,1,0,2.389Z" transform="translate(795.121 594.469)" fill="#303841"/>
      <path id="Trazado_103384" data-name="Trazado 103384" d="M447.419,203.5H388.888a1.194,1.194,0,0,1-1.195-1.195v-4.956a1.194,1.194,0,0,1,1.195-1.195h58.531a1.192,1.192,0,0,1,1.195,1.195v4.956A1.192,1.192,0,0,1,447.419,203.5Zm-57.336-2.389h56.142v-2.566H390.082Z" transform="translate(795.121 598.824)" fill="#303841"/>
      <path id="Trazado_103385" data-name="Trazado 103385" d="M418.153,202.81H388.888a1.195,1.195,0,0,1,0-2.389h29.266a1.195,1.195,0,0,1,0,2.389Z" transform="translate(795.121 604.75)" fill="#303841"/>
      <path id="Trazado_103386" data-name="Trazado 103386" d="M409.99,184.933a1.2,1.2,0,0,1-1.1-.731q-.914-2.172-1.931-4.306a1.194,1.194,0,1,1,2.155-1.03q1.039,2.179,1.978,4.408a1.194,1.194,0,0,1-.636,1.565A1.228,1.228,0,0,1,409.99,184.933Zm-233.493-.3a1.2,1.2,0,0,1-1.1-1.663q.946-2.222,1.993-4.4a1.2,1.2,0,0,1,2.155,1.037q-1.025,2.125-1.947,4.3A1.194,1.194,0,0,1,176.5,184.629Zm225.771-14.506a1.2,1.2,0,0,1-1.011-.559q-1.258-2-2.614-3.94a1.195,1.195,0,1,1,1.962-1.364q1.384,1.989,2.674,4.031a1.194,1.194,0,0,1-1.011,1.833Zm-218-.272a1.194,1.194,0,0,1-1.008-1.835q1.294-2.032,2.679-4.012a1.194,1.194,0,0,1,1.957,1.369q-1.355,1.935-2.616,3.923A1.193,1.193,0,0,1,184.265,169.851Zm208.006-13.13a1.209,1.209,0,0,1-.9-.406q-1.552-1.781-3.187-3.5a1.194,1.194,0,1,1,1.73-1.646q1.67,1.76,3.259,3.575a1.193,1.193,0,0,1-.9,1.981ZM194.286,156.5a1.193,1.193,0,0,1-.9-1.981q1.584-1.81,3.254-3.555a1.195,1.195,0,0,1,1.728,1.651q-1.638,1.71-3.185,3.479A1.192,1.192,0,0,1,194.286,156.5Zm186.09-11.541a1.174,1.174,0,0,1-.774-.287q-1.8-1.534-3.658-3a1.2,1.2,0,1,1,1.481-1.876q1.9,1.5,3.725,3.061a1.2,1.2,0,0,1-.774,2.105Zm-174.188-.174a1.194,1.194,0,0,1-.774-2.1q1.832-1.563,3.735-3.056a1.195,1.195,0,1,1,1.474,1.88q-1.864,1.462-3.661,2.994A1.189,1.189,0,0,1,206.188,144.784Zm160.774-9.789a1.178,1.178,0,0,1-.645-.189q-1.989-1.272-4.031-2.48a1.195,1.195,0,0,1,1.211-2.06q2.086,1.229,4.107,2.528a1.194,1.194,0,0,1-.643,2.2Zm-147.334-.143a1.194,1.194,0,0,1-.645-2.2q2.025-1.294,4.11-2.521a1.195,1.195,0,1,1,1.211,2.06q-2.047,1.2-4.036,2.475A1.185,1.185,0,0,1,219.628,134.851Zm132.708-7.945a1.2,1.2,0,0,1-.509-.115q-2.136-1-4.32-1.94a1.194,1.194,0,1,1,.939-2.2q2.226.95,4.4,1.974a1.2,1.2,0,0,1-.507,2.277Zm-118.068-.115a1.194,1.194,0,0,1-.509-2.275q2.175-1.021,4.4-1.969a1.195,1.195,0,1,1,.937,2.2q-2.186.932-4.322,1.933A1.2,1.2,0,0,1,234.268,126.791Zm102.53-6.045a1.189,1.189,0,0,1-.373-.057q-2.244-.735-4.528-1.391a1.194,1.194,0,1,1,.662-2.294q2.322.667,4.609,1.412a1.194,1.194,0,0,1-.37,2.33Zm-86.982-.081a1.2,1.2,0,0,1-.368-2.332q2.287-.738,4.612-1.4a1.2,1.2,0,0,1,.657,2.3q-2.287.652-4.533,1.379A1.163,1.163,0,0,1,249.816,120.665Zm70.808-4.117a1.148,1.148,0,0,1-.234-.024q-2.315-.455-4.664-.832a1.194,1.194,0,1,1,.378-2.358q2.391.383,4.75.846a1.2,1.2,0,0,1-.229,2.368ZM266,116.5a1.2,1.2,0,0,1-.227-2.368q2.358-.455,4.743-.836a1.194,1.194,0,1,1,.38,2.358q-2.348.376-4.667.824A1.24,1.24,0,0,1,266,116.5Zm38.056-2.184-.091,0c-1.572-.117-3.147-.21-4.733-.277a1.2,1.2,0,0,1-1.145-1.245,1.109,1.109,0,0,1,1.247-1.142q2.416.1,4.81.282a1.194,1.194,0,0,1-.088,2.385Zm-21.488-.019a1.2,1.2,0,0,1-.086-2.387q2.394-.176,4.81-.275a1.182,1.182,0,0,1,1.242,1.147,1.2,1.2,0,0,1-1.147,1.242q-2.376.093-4.731.268Z" transform="translate(500.019 481.375)" fill="#303841"/>
      <path id="Trazado_103387" data-name="Trazado 103387" d="M371.02,231.911a1.192,1.192,0,0,1-1.195-1.195v-27.4l-10.733-16.8a1.225,1.225,0,0,1-.165-.406,5.589,5.589,0,0,1-.76-1.646l-6.731-24.537a5.707,5.707,0,1,1,11.008-3.018l2.234,8.155a4.813,4.813,0,0,1,.636-.375V135.073a5.706,5.706,0,0,1,11.412,0l.079,5.845a5.7,5.7,0,0,1,9.586,4.179l.043,3.013a5.708,5.708,0,0,1,9.625,4.15l.031.875a5.7,5.7,0,0,1,9.634,4.136v7.668a4.776,4.776,0,0,1,2.2,4.026v19.173a1.192,1.192,0,0,1-.108.492l-6.6,14.6v13.307a1.195,1.195,0,1,1-2.389,0V202.97a1.209,1.209,0,0,1,.107-.492l6.6-14.6V168.964a2.392,2.392,0,0,0-1.467-2.208,1.193,1.193,0,0,1-.734-1.1v-8.384a3.316,3.316,0,1,0-6.633,0l-.182,8.2a1.2,1.2,0,0,1-1.19,1.168h0a1.2,1.2,0,0,1-1.195-1.154l-.461-13.187a3.317,3.317,0,1,0-6.633-.041l-.356,13.149a1.2,1.2,0,0,1-1.195,1.164h-.007a1.2,1.2,0,0,1-1.187-1.178L384,145.116a3.315,3.315,0,1,0-6.631-.019l-.241,20.315a1.192,1.192,0,0,1-1.195,1.18h0a1.2,1.2,0,0,1-1.195-1.178l-.4-30.324a3.317,3.317,0,1,0-6.633-.017v30.439a1.2,1.2,0,0,1-.886,1.154,2.409,2.409,0,0,0-1.591,1.362,1.237,1.237,0,0,1-1.178.729,1.2,1.2,0,0,1-1.075-.877l-2.834-10.339a3.316,3.316,0,0,0-6.081-.765,3.288,3.288,0,0,0-.315,2.518l6.731,24.539a3.274,3.274,0,0,0,.6,1.164,1.2,1.2,0,0,1,.239.552l10.717,16.778a1.2,1.2,0,0,1,.189.643v27.746A1.194,1.194,0,0,1,371.02,231.911Z" transform="translate(744.458 506.026)" fill="#303841"/>
      <path id="Trazado_103388" data-name="Trazado 103388" d="M360.131,136.392a1.194,1.194,0,0,1-1.195-1.195V124.041a1.195,1.195,0,0,1,2.389,0V135.2A1.192,1.192,0,0,1,360.131,136.392Z" transform="translate(755.166 496.967)" fill="#303841"/>
      <path id="Trazado_103389" data-name="Trazado 103389" d="M362.978,132.76a1.194,1.194,0,0,1-.844-2.038l4.32-4.322a1.195,1.195,0,0,1,1.689,1.689l-4.32,4.322A1.19,1.19,0,0,1,362.978,132.76Z" transform="translate(759.121 501.418)" fill="#303841"/>
      <path id="Trazado_103390" data-name="Trazado 103390" d="M359.7,132.474a1.181,1.181,0,0,1-.843-.349l-3.83-3.83a1.194,1.194,0,1,1,1.689-1.689l3.83,3.83a1.193,1.193,0,0,1-.846,2.038Z" transform="translate(749.245 501.704)" fill="#303841"/>
      <path id="Trazado_103391" data-name="Trazado 103391" d="M367.2,132.494h-3.412a1.195,1.195,0,0,1,0-2.389H367.2a1.195,1.195,0,0,1,0,2.389Z" transform="translate(760.248 507.053)" fill="#303841"/>
      <path id="Trazado_103392" data-name="Trazado 103392" d="M358.579,132.494h-3.41a1.195,1.195,0,0,1,0-2.389h3.41a1.195,1.195,0,0,1,0,2.389Z" transform="translate(748.272 507.053)" fill="#303841"/>
      <path id="Trazado_103393" data-name="Trazado 103393" d="M414.789,154.162a12.273,12.273,0,1,1-12.274-12.274A12.274,12.274,0,0,1,414.789,154.162Z" transform="translate(798.662 523.424)" fill="#fbcb43"/>
      <path id="Trazado_103394" data-name="Trazado 103394" d="M415.818,195.542a1.2,1.2,0,0,1-1.078-.681l-3.061-6.439a23.417,23.417,0,0,1-4.571-.717l-4.894,5.173a1.2,1.2,0,0,1-1.343.275,30.7,30.7,0,0,1-3.486-1.771,1.194,1.194,0,0,1-.561-1.245l1.309-7.013c-.612-.5-1.185-1.02-1.718-1.551a23.006,23.006,0,0,1-1.551-1.718l-7.013,1.309a1.208,1.208,0,0,1-1.247-.561,30.863,30.863,0,0,1-1.771-3.486,1.2,1.2,0,0,1,.275-1.343l5.173-4.894a23.533,23.533,0,0,1-.714-4.571l-6.442-3.061a1.2,1.2,0,0,1-.676-1.19,31.026,31.026,0,0,1,.617-3.861,1.2,1.2,0,0,1,1.013-.925l7.054-.918a23.221,23.221,0,0,1,2.108-4.124l-3.407-6.251a1.2,1.2,0,0,1,.153-1.36c.428-.487.87-.968,1.336-1.434s.946-.906,1.434-1.336a1.2,1.2,0,0,1,1.36-.151l6.248,3.4A23.3,23.3,0,0,1,404.488,143l.92-7.054a1.193,1.193,0,0,1,.922-1.011,30.766,30.766,0,0,1,3.866-.616,1.188,1.188,0,0,1,1.188.679l3.058,6.437a23.468,23.468,0,0,1,4.573.717l4.891-5.173a1.182,1.182,0,0,1,1.341-.275,30.485,30.485,0,0,1,3.486,1.768,1.2,1.2,0,0,1,.566,1.247l-1.309,7.013c.612.5,1.185,1.02,1.718,1.551s1.051,1.109,1.551,1.718l7.013-1.309a1.2,1.2,0,0,1,1.245.564,29.954,29.954,0,0,1,1.768,3.486,1.2,1.2,0,0,1-.275,1.34l-5.171,4.893c.117.452.222.9.311,1.36a1.2,1.2,0,0,1-2.349.456c-.119-.624-.272-1.243-.449-1.854a1.2,1.2,0,0,1,.325-1.2l5.075-4.805c-.277-.593-.571-1.173-.877-1.732l-6.884,1.288a1.22,1.22,0,0,1-1.166-.444,21.976,21.976,0,0,0-1.806-2.067,21.378,21.378,0,0,0-2.067-1.806A1.2,1.2,0,0,1,425.51,147l1.286-6.884c-.559-.308-1.14-.6-1.737-.877l-4.8,5.077a1.2,1.2,0,0,1-1.2.323,21.3,21.3,0,0,0-5.412-.848,1.194,1.194,0,0,1-1.047-.681l-3-6.32c-.636.076-1.278.179-1.923.306l-.9,6.927a1.2,1.2,0,0,1-.786.972,21.112,21.112,0,0,0-4.877,2.49,1.185,1.185,0,0,1-1.25.064l-6.138-3.345c-.239.217-.471.442-.7.671s-.456.468-.676.7l3.345,6.141a1.2,1.2,0,0,1-.065,1.25,20.8,20.8,0,0,0-2.49,4.877,1.2,1.2,0,0,1-.973.784l-6.929.9c-.122.643-.225,1.285-.308,1.921l6.325,3.006a1.2,1.2,0,0,1,.681,1.044,21.313,21.313,0,0,0,.848,5.412,1.2,1.2,0,0,1-.325,1.207l-5.078,4.8c.279.6.571,1.18.877,1.735l6.886-1.288a1.214,1.214,0,0,1,1.164.447,20.723,20.723,0,0,0,3.873,3.871,1.192,1.192,0,0,1,.444,1.166l-1.286,6.884c.554.308,1.135.6,1.732.879l4.805-5.077a1.2,1.2,0,0,1,1.207-.325,21.029,21.029,0,0,0,5.41.846,1.2,1.2,0,0,1,1.044.681l3.006,6.322c.633-.076,1.276-.179,1.923-.306l.9-6.927a1.2,1.2,0,0,1,.786-.973,21.012,21.012,0,0,0,2.5-1.075,1.195,1.195,0,0,1,1.085,2.129c-.681.346-1.383.662-2.1.941l-.918,7.053a1.193,1.193,0,0,1-.925,1.011,31.073,31.073,0,0,1-3.864.616C415.89,195.539,415.856,195.542,415.818,195.542Z" transform="translate(787.829 512.896)" fill="#303841"/>
      <path id="Trazado_103395" data-name="Trazado 103395" d="M394.619,166.617a1.183,1.183,0,0,1-.843-.351l-3.262-3.259a1.2,1.2,0,0,1,0-1.689l4.062-4.062a4.277,4.277,0,0,0,0-6.038l-4.062-4.062a1.2,1.2,0,0,1,0-1.689l3.262-3.259a1.227,1.227,0,0,1,1.689,0l4.06,4.06a4.372,4.372,0,0,0,6.038,0l4.064-4.06a1.186,1.186,0,0,1,.843-.351h0a1.2,1.2,0,0,1,.846.351l3.259,3.259a1.2,1.2,0,0,1,0,1.689l-4.06,4.062a4.266,4.266,0,0,0,0,6.038l4.06,4.062a1.2,1.2,0,0,1,0,1.689l-3.259,3.259a1.191,1.191,0,0,1-1.689,0l-4.064-4.06a4.372,4.372,0,0,0-6.038,0l-4.06,4.06A1.192,1.192,0,0,1,394.619,166.617Zm7.926-8.05a6.611,6.611,0,0,1,4.707,1.95l3.218,3.216,1.57-1.57-3.214-3.219a6.654,6.654,0,0,1,0-9.417l3.214-3.216-1.57-1.572-3.218,3.216a6.822,6.822,0,0,1-9.417,0l-3.216-3.216-1.57,1.572,3.216,3.216a6.669,6.669,0,0,1,0,9.417l-3.216,3.219,1.57,1.57,3.216-3.216A6.621,6.621,0,0,1,402.545,158.567Z" transform="translate(798.555 523.377)" fill="#303841"/>
      <path id="Trazado_103396" data-name="Trazado 103396" d="M423.657,187.145l-.081,0a20.188,20.188,0,0,1-2.492-.325,1.2,1.2,0,0,1-.951-.987l-.652-4.169a15.261,15.261,0,0,1-2.232-1.059l-3.644,2.115a1.206,1.206,0,0,1-1.369-.117,19.793,19.793,0,0,1-1.823-1.728,1.19,1.19,0,0,1-.186-1.355l1.921-3.759c-.222-.342-.435-.7-.633-1.061s-.378-.734-.545-1.109l-4.2-.435a1.189,1.189,0,0,1-1.032-.9,19.6,19.6,0,0,1-.456-2.471,1.194,1.194,0,0,1,.645-1.209l3.759-1.907a15.185,15.185,0,0,1,.327-2.447l-3.142-2.817a1.2,1.2,0,0,1-.311-1.333,19.082,19.082,0,0,1,1.087-2.27,1.192,1.192,0,0,1,1.231-.6l4.155.664a15.638,15.638,0,0,1,1.7-1.792l-.882-4.119a1.2,1.2,0,0,1,.535-1.262c.351-.22.714-.437,1.087-.638s.743-.385,1.118-.561a1.2,1.2,0,0,1,1.352.239l2.975,2.984a15.23,15.23,0,0,1,2.43-.454l1.706-3.849a1.177,1.177,0,0,1,1.173-.707,19.44,19.44,0,0,1,2.492.327,1.194,1.194,0,0,1,.948.987l.655,4.167a15.125,15.125,0,0,1,2.229,1.059l3.646-2.112a1.19,1.19,0,0,1,1.364.117,19.8,19.8,0,0,1,1.828,1.725,1.194,1.194,0,0,1,.186,1.355l-1.923,3.761c.225.342.437.693.636,1.059s.378.734.54,1.109l4.2.435a1.2,1.2,0,0,1,1.035.9,19.644,19.644,0,0,1,.452,2.473,1.19,1.19,0,0,1-.643,1.207l-3.756,1.907a15.191,15.191,0,0,1-.327,2.447l3.14,2.817a1.2,1.2,0,0,1,.311,1.333,19.074,19.074,0,0,1-1.085,2.27,1.182,1.182,0,0,1-1.233.6l-4.155-.664a15.079,15.079,0,0,1-1.7,1.792l.884,4.117a1.2,1.2,0,0,1-.535,1.266c-.356.22-.712.437-1.085.636s-.745.387-1.123.562a1.207,1.207,0,0,1-1.352-.239l-2.972-2.984a15.355,15.355,0,0,1-2.428.454l-1.706,3.849A1.193,1.193,0,0,1,423.657,187.145Zm-1.3-2.533c.182.029.366.05.549.072l1.649-3.718a1.2,1.2,0,0,1,1.027-.707,12.813,12.813,0,0,0,3.271-.612,1.2,1.2,0,0,1,1.214.294l2.872,2.884c.086-.043.167-.086.249-.131l.244-.134-.858-3.981A1.2,1.2,0,0,1,433,177.4a12.715,12.715,0,0,0,2.292-2.409,1.2,1.2,0,0,1,1.154-.478l4.017.64c.081-.165.163-.332.241-.5l-3.034-2.721a1.2,1.2,0,0,1-.356-1.2,12.81,12.81,0,0,0,.44-3.3,1.19,1.19,0,0,1,.655-1.061l3.627-1.842c-.029-.184-.062-.363-.1-.545l-4.055-.421a1.186,1.186,0,0,1-.989-.755,13.085,13.085,0,0,0-.7-1.515,12.136,12.136,0,0,0-.891-1.41,1.189,1.189,0,0,1-.1-1.245l1.857-3.63c-.134-.129-.265-.256-.4-.38l-3.52,2.041a1.189,1.189,0,0,1-1.25-.029,12.738,12.738,0,0,0-3.008-1.426,1.207,1.207,0,0,1-.81-.953l-.628-4.024c-.182-.026-.368-.05-.552-.072l-1.646,3.718a1.2,1.2,0,0,1-1.03.71,12.6,12.6,0,0,0-3.266.609,1.2,1.2,0,0,1-1.219-.291l-2.874-2.884c-.081.041-.16.084-.239.127s-.167.091-.248.136l.853,3.983a1.2,1.2,0,0,1-.413,1.178,12.7,12.7,0,0,0-2.291,2.409,1.186,1.186,0,0,1-1.157.478l-4.014-.64c-.084.165-.165.332-.241.5l3.032,2.722a1.2,1.2,0,0,1,.358,1.2,12.838,12.838,0,0,0-.442,3.3,1.194,1.194,0,0,1-.652,1.063l-3.63,1.842c.031.182.065.363.1.542l4.06.421a1.2,1.2,0,0,1,.992.76,12.458,12.458,0,0,0,.7,1.513,12.311,12.311,0,0,0,.891,1.407,1.194,1.194,0,0,1,.1,1.245l-1.859,3.632c.134.127.268.253.4.378l3.522-2.041a1.19,1.19,0,0,1,1.247.031,12.958,12.958,0,0,0,3.006,1.426,1.192,1.192,0,0,1,.81.951Z" transform="translate(819.544 531.515)" fill="#303841"/>
      <path id="Trazado_103399" data-name="Trazado 103399" d="M110,287.8H12.723a1.2,1.2,0,0,1-1.195-1.195v-99.9a1.195,1.195,0,0,1,2.389,0v98.7h94.888V165.048H37.988a1.195,1.195,0,1,1,0-2.389H110a1.192,1.192,0,0,1,1.195,1.195V286.605A1.194,1.194,0,0,1,110,287.8Z" transform="translate(272.472 552.282)" fill="#303841"/>
      <path id="Trazado_103400" data-name="Trazado 103400" d="M76.69,177.86H29.977a1.194,1.194,0,0,1-1.195-1.195v-9.622a1.192,1.192,0,0,1,1.195-1.195H76.69a1.194,1.194,0,0,1,1.195,1.195v9.622A1.2,1.2,0,0,1,76.69,177.86ZM31.171,175.47H75.5v-7.233H31.171Z" transform="translate(296.445 556.714)" fill="#303841"/>
      <path id="Trazado_103401" data-name="Trazado 103401" d="M85.971,186.248H23.3a1.194,1.194,0,0,1-1.195-1.195V177.46a1.2,1.2,0,0,1,1.195-1.195H85.971a1.2,1.2,0,0,1,1.195,1.195v7.594A1.194,1.194,0,0,1,85.971,186.248Zm-61.48-2.389H84.776v-5.2H24.491Z" transform="translate(287.164 571.188)" fill="#303841"/>
      <rect id="Rectángulo_5641" data-name="Rectángulo 5641" width="62.673" height="8.088" transform="translate(310.461 761.171)" fill="#fbcb43"/>
      <path id="Trazado_103402" data-name="Trazado 103402" d="M85.971,197.131H23.3a1.2,1.2,0,0,1-1.195-1.195v-8.088a1.2,1.2,0,0,1,1.195-1.195H85.971a1.2,1.2,0,0,1,1.195,1.195v8.088A1.2,1.2,0,0,1,85.971,197.131Zm-61.48-2.389H84.776v-5.7H24.491Z" transform="translate(287.164 585.62)" fill="#303841"/>
      <rect id="Rectángulo_5642" data-name="Rectángulo 5642" width="62.673" height="8.088" transform="translate(310.461 785.763)" fill="#fbcb43"/>
      <rect id="Rectángulo_5643" data-name="Rectángulo 5643" width="62.673" height="8.088" transform="translate(310.461 798.059)" fill="#fbcb43"/>
      <path id="Trazado_103403" data-name="Trazado 103403" d="M95.231,216.421h-78.6a1.194,1.194,0,0,1-1.195-1.195v-5.754a1.2,1.2,0,0,1,1.195-1.195h78.6a1.2,1.2,0,0,1,1.195,1.195v5.754A1.194,1.194,0,0,1,95.231,216.421Zm-77.405-2.389h76.21v-3.364H17.826Z" transform="translate(277.903 615.666)" fill="#303841"/>
      <path id="Trazado_103404" data-name="Trazado 103404" d="M25.692,180.243H16.632a1.195,1.195,0,0,1,0-2.389h9.061a1.195,1.195,0,0,1,0,2.389Z" transform="translate(277.903 573.395)" fill="#303841"/>
      <path id="Trazado_103405" data-name="Trazado 103405" d="M25.692,185.588H16.632a1.195,1.195,0,0,1,0-2.389h9.061a1.195,1.195,0,0,1,0,2.389Z" transform="translate(277.903 580.82)" fill="#303841"/>
      <path id="Trazado_103406" data-name="Trazado 103406" d="M25.692,190.734H16.632a1.195,1.195,0,1,1,0-2.389h9.061a1.195,1.195,0,1,1,0,2.389Z" transform="translate(277.903 587.972)" fill="#303841"/>
      <path id="Trazado_103407" data-name="Trazado 103407" d="M25.692,195.852H16.632a1.195,1.195,0,1,1,0-2.389h9.061a1.195,1.195,0,1,1,0,2.389Z" transform="translate(277.903 595.082)" fill="#303841"/>
      <path id="Trazado_103408" data-name="Trazado 103408" d="M25.692,201.026H16.632a1.195,1.195,0,1,1,0-2.389h9.061a1.195,1.195,0,1,1,0,2.389Z" transform="translate(277.903 602.271)" fill="#303841"/>
      <path id="Trazado_103409" data-name="Trazado 103409" d="M81.354,175.359H26.62a1.195,1.195,0,0,1,0-2.389H81.354a1.195,1.195,0,0,1,0,2.389Z" transform="translate(291.781 566.608)" fill="#303841"/>
      <path id="Trazado_103410" data-name="Trazado 103410" d="M95.231,205.937h-78.6a1.195,1.195,0,0,1,0-2.389h78.6a1.195,1.195,0,0,1,0,2.389Z" transform="translate(277.903 609.095)" fill="#303841"/>
      <path id="Trazado_103411" data-name="Trazado 103411" d="M95.231,208.547h-78.6a1.195,1.195,0,1,1,0-2.389h78.6a1.195,1.195,0,1,1,0,2.389Z" transform="translate(277.903 612.721)" fill="#303841"/>
      <path id="Trazado_103413" data-name="Trazado 103413" d="M155.076,166.536a1.193,1.193,0,0,1-.846-.351l-7.027-7.027a1.2,1.2,0,0,1,0-1.689l28.859-28.857a1.191,1.191,0,0,1,1.689,0l7.027,7.027a1.191,1.191,0,0,1,0,1.689L155.92,166.185A1.183,1.183,0,0,1,155.076,166.536Zm-5.338-8.222,5.338,5.338,27.168-27.17-5.338-5.338Z" transform="translate(460.495 504.489)" fill="#303841"/>
      <path id="Trazado_103414" data-name="Trazado 103414" d="M161.6,134.687a1.193,1.193,0,0,1-.846-2.038l4.418-4.418a1.195,1.195,0,0,1,1.689,1.689l-4.418,4.418A1.18,1.18,0,0,1,161.6,134.687Z" transform="translate(479.319 503.963)" fill="#303841"/>
    </g>
  </g>
</svg>
